G04 #@! TF.FileFunction,Soldermask,Bot*
%FSLAX46Y46*%
G04 Gerber Fmt 4.6, Leading zero omitted, Abs format (unit mm)*
G04 Created by KiCad (PCBNEW 4.0.1-stable) date Friday, March 04, 2016 'AMt' 01:06:34 AM*
%MOMM*%
G01*
G04 APERTURE LIST*
%ADD10C,0.100000*%
%ADD11C,3.400000*%
%ADD12R,2.127200X2.432000*%
%ADD13O,2.127200X2.432000*%
%ADD14R,2.127200X2.127200*%
%ADD15O,2.127200X2.127200*%
%ADD16C,1.901140*%
%ADD17R,1.901140X1.901140*%
G04 APERTURE END LIST*
D10*
D11*
X114200000Y-90300000D03*
X111200000Y-85600000D03*
X117200000Y-85600000D03*
D12*
X111140000Y-138550000D03*
D13*
X113680000Y-138550000D03*
X116220000Y-138550000D03*
X118760000Y-138550000D03*
X121300000Y-138550000D03*
X123840000Y-138550000D03*
D14*
X134000000Y-138550000D03*
D15*
X134000000Y-136010000D03*
X136540000Y-138550000D03*
X136540000Y-136010000D03*
X139080000Y-138550000D03*
X139080000Y-136010000D03*
X141620000Y-138550000D03*
X141620000Y-136010000D03*
X144160000Y-138550000D03*
X144160000Y-136010000D03*
X146700000Y-138550000D03*
X146700000Y-136010000D03*
X149240000Y-138550000D03*
X149240000Y-136010000D03*
X151780000Y-138550000D03*
X151780000Y-136010000D03*
X154320000Y-138550000D03*
X154320000Y-136010000D03*
X156860000Y-138550000D03*
X156860000Y-136010000D03*
X159400000Y-138550000D03*
X159400000Y-136010000D03*
X161940000Y-138550000D03*
X161940000Y-136010000D03*
X164480000Y-138550000D03*
X164480000Y-136010000D03*
X167020000Y-138550000D03*
X167020000Y-136010000D03*
X169560000Y-138550000D03*
X169560000Y-136010000D03*
X172100000Y-138550000D03*
X172100000Y-136010000D03*
X174640000Y-138550000D03*
X174640000Y-136010000D03*
X177180000Y-138550000D03*
X177180000Y-136010000D03*
X179720000Y-138550000D03*
X179720000Y-136010000D03*
X182260000Y-138550000D03*
X182260000Y-136010000D03*
X184800000Y-138550000D03*
X184800000Y-136010000D03*
X187340000Y-138550000D03*
X187340000Y-136010000D03*
X189880000Y-138550000D03*
X189880000Y-136010000D03*
X192420000Y-138550000D03*
X192420000Y-136010000D03*
X194960000Y-138550000D03*
X194960000Y-136010000D03*
D12*
X117250000Y-97250000D03*
D13*
X119790000Y-97250000D03*
X122330000Y-97250000D03*
X124870000Y-97250000D03*
D14*
X134000000Y-87750000D03*
D15*
X134000000Y-85210000D03*
X136540000Y-87750000D03*
X136540000Y-85210000D03*
X139080000Y-87750000D03*
X139080000Y-85210000D03*
X141620000Y-87750000D03*
X141620000Y-85210000D03*
X144160000Y-87750000D03*
X144160000Y-85210000D03*
X146700000Y-87750000D03*
X146700000Y-85210000D03*
X149240000Y-87750000D03*
X149240000Y-85210000D03*
X151780000Y-87750000D03*
X151780000Y-85210000D03*
X154320000Y-87750000D03*
X154320000Y-85210000D03*
X156860000Y-87750000D03*
X156860000Y-85210000D03*
X159400000Y-87750000D03*
X159400000Y-85210000D03*
X161940000Y-87750000D03*
X161940000Y-85210000D03*
X164480000Y-87750000D03*
X164480000Y-85210000D03*
X167020000Y-87750000D03*
X167020000Y-85210000D03*
X169560000Y-87750000D03*
X169560000Y-85210000D03*
X172100000Y-87750000D03*
X172100000Y-85210000D03*
X174640000Y-87750000D03*
X174640000Y-85210000D03*
X177180000Y-87750000D03*
X177180000Y-85210000D03*
X179720000Y-87750000D03*
X179720000Y-85210000D03*
X182260000Y-87750000D03*
X182260000Y-85210000D03*
X184800000Y-87750000D03*
X184800000Y-85210000D03*
X187340000Y-87750000D03*
X187340000Y-85210000D03*
X189880000Y-87750000D03*
X189880000Y-85210000D03*
X192420000Y-87750000D03*
X192420000Y-85210000D03*
X194960000Y-87750000D03*
X194960000Y-85210000D03*
D16*
X117750000Y-101750000D03*
X120570000Y-106340000D03*
D17*
X119250000Y-111000000D03*
M02*
