M48
INCH,TZ
T1C0.013
T2C0.013
T3C0.032
T4C0.040
T5C0.118
%
G90
G05
T1
X43240Y-44094
X43299Y-40610
X43894Y-41850
X44016Y-34843
X44441Y-40835
X44528Y-34646
X44685Y-44433
X44724Y-51142
X44921Y-47756
X44974Y-41077
X45433Y-53484
X45610Y-41850
X45630Y-51378
X45677Y-40055
X45886Y-34724
X46850Y-48780
X47283Y-46299
X47283Y-36319
X47480Y-50787
X47480Y-52126
X47559Y-46575
X47654Y-45925
X47899Y-46216
X48498Y-46815
X48976Y-40669
X49331Y-45669
X49488Y-48504
X49606Y-41181
X49606Y-42795
X49646Y-44843
X49776Y-45397
X49961Y-45669
X49961Y-49528
X50016Y-53331
X50039Y-42756
X50394Y-44646
X50406Y-53646
X50448Y-45630
X50448Y-48764
X50787Y-47795
X50866Y-49488
X50876Y-48376
X50926Y-48881
X50996Y-46740
X51339Y-50591
X51890Y-52795
X51890Y-52126
X51894Y-41512
X52445Y-42110
X52598Y-51732
X52717Y-52795
X53031Y-51693
X53307Y-52835
X55098Y-35748
X55453Y-36004
X55827Y-41260
X55846Y-43583
X57244Y-35669
X57407Y-47761
X57583Y-48039
X57704Y-49315
X57835Y-36004
X57861Y-49604
X58031Y-43563
X58132Y-48317
X58348Y-49589
X58386Y-46890
X58768Y-47559
X58799Y-49478
X59056Y-48158
X59122Y-50764
X59571Y-50887
X59630Y-48039
X59961Y-41654
X60083Y-42193
X60519Y-49358
X60826Y-48456
X61378Y-42957
X61665Y-37236
X61732Y-42685
X61949Y-36953
X62025Y-48297
X62223Y-49109
X62444Y-38750
X62475Y-36773
X62507Y-37100
X62548Y-38113
X62579Y-37421
X62586Y-37750
X62633Y-47562
X62650Y-38494
X62728Y-50075
X62933Y-47205
X62941Y-43128
X62945Y-36902
X63062Y-35922
X63071Y-37303
X63110Y-47736
X63252Y-49898
X63295Y-37902
X63348Y-37480
X63406Y-46981
X63433Y-47801
X63994Y-41796
X64331Y-41732
X64376Y-52619
X64634Y-42035
X64736Y-46307
X65242Y-52451
X65706Y-52331
X65957Y-51862
X66171Y-51451
X66301Y-49615
X66398Y-51764
X66577Y-52564
X66834Y-52318
X67012Y-50827
X67061Y-52077
X67224Y-51772
X67406Y-52553
X67484Y-51201
X67710Y-52107
X67799Y-51732
X67972Y-48386
X68215Y-48164
X68898Y-49370
X68902Y-52047
X68996Y-51665
X69350Y-49331
X70381Y-49378
X70616Y-49608
X71646Y-44496
X72197Y-49378
T2
X60764Y-45511
X60781Y-44385
X60856Y-44955
X61007Y-45734
X61027Y-45239
X61036Y-44069
X61134Y-42063
X61170Y-44792
X61187Y-43568
X61276Y-46072
X61382Y-44305
X61470Y-45791
X61474Y-43793
X61512Y-42205
X61547Y-43343
X61728Y-45998
X61915Y-45727
X62305Y-46042
X63404Y-46042
X63794Y-45727
X63981Y-45998
X64239Y-45791
X64240Y-43728
X64461Y-44153
X64464Y-46061
X64545Y-44830
X64584Y-43847
X64679Y-45260
X64752Y-44319
X64843Y-44973
X65055Y-45929
T3
X46358Y-40059
X46949Y-43701
X47469Y-41866
T4
X43756Y-54547
X44756Y-54547
X45756Y-54547
X46161Y-38287
X46756Y-54547
X47161Y-38287
X47756Y-54547
X48161Y-38287
X48756Y-54547
X49161Y-38287
X52756Y-33547
X52756Y-34547
X52756Y-53547
X52756Y-54547
X53756Y-33547
X53756Y-34547
X53756Y-53547
X53756Y-54547
X54756Y-33547
X54756Y-34547
X54756Y-53547
X54756Y-54547
X55756Y-33547
X55756Y-34547
X55756Y-53547
X55756Y-54547
X56756Y-33547
X56756Y-34547
X56756Y-53547
X56756Y-54547
X57756Y-33547
X57756Y-34547
X57756Y-53547
X57756Y-54547
X58756Y-33547
X58756Y-34547
X58756Y-53547
X58756Y-54547
X59756Y-33547
X59756Y-34547
X59756Y-53547
X59756Y-54547
X60756Y-33547
X60756Y-34547
X60756Y-53547
X60756Y-54547
X61756Y-33547
X61756Y-34547
X61756Y-53547
X61756Y-54547
X62756Y-33547
X62756Y-34547
X62756Y-53547
X62756Y-54547
X63756Y-33547
X63756Y-34547
X63756Y-53547
X63756Y-54547
X64756Y-33547
X64756Y-34547
X64756Y-53547
X64756Y-54547
X65756Y-33547
X65756Y-34547
X65756Y-53547
X65756Y-54547
X66756Y-33547
X66756Y-34547
X66756Y-53547
X66756Y-54547
X67756Y-33547
X67756Y-34547
X67756Y-53547
X67756Y-54547
X68756Y-33547
X68756Y-34547
X68756Y-53547
X68756Y-54547
X69756Y-33547
X69756Y-34547
X69756Y-53547
X69756Y-54547
X70756Y-33547
X70756Y-34547
X70756Y-53547
X70756Y-54547
X71756Y-33547
X71756Y-34547
X71756Y-53547
X71756Y-54547
X72756Y-33547
X72756Y-34547
X72756Y-53547
X72756Y-54547
X73756Y-33547
X73756Y-34547
X73756Y-53547
X73756Y-54547
X74756Y-33547
X74756Y-34547
X74756Y-53547
X74756Y-54547
X75756Y-33547
X75756Y-34547
X75756Y-53547
X75756Y-54547
X76756Y-33547
X76756Y-34547
X76756Y-53547
X76756Y-54547
T5
X52264Y-36516
X52264Y-48524
X64272Y-36516
X64272Y-48524
X76280Y-36516
X76280Y-48524
T0
M30
