G04 #@! TF.FileFunction,Paste,Top*
%FSLAX46Y46*%
G04 Gerber Fmt 4.6, Leading zero omitted, Abs format (unit mm)*
G04 Created by KiCad (PCBNEW 4.0.1-stable) date Thursday, April 14, 2016 'AMt' 11:51:39 AM*
%MOMM*%
G01*
G04 APERTURE LIST*
%ADD10C,0.100000*%
%ADD11R,1.800860X0.800100*%
%ADD12R,1.400000X1.200000*%
%ADD13R,1.060000X0.650000*%
%ADD14R,0.797560X0.797560*%
%ADD15R,1.200000X0.900000*%
%ADD16R,1.300000X1.550000*%
%ADD17C,2.000000*%
%ADD18R,0.700000X0.200000*%
%ADD19R,0.750000X1.200000*%
%ADD20R,0.900000X1.200000*%
%ADD21R,0.900000X0.240000*%
%ADD22R,0.240000X0.900000*%
%ADD23R,0.600000X2.000000*%
%ADD24R,0.700000X4.200000*%
%ADD25O,3.000000X2.400000*%
%ADD26O,2.400000X3.000000*%
G04 APERTURE END LIST*
D10*
D11*
X113500000Y-110000000D03*
X113500000Y-111900000D03*
X116502280Y-110950000D03*
D12*
X112000000Y-116300000D03*
X112000000Y-118800000D03*
X112000000Y-121300000D03*
X116400000Y-116300000D03*
X116400000Y-118800000D03*
X116400000Y-121300000D03*
D13*
X114850000Y-102700000D03*
X114850000Y-101750000D03*
X114850000Y-100800000D03*
X112650000Y-100800000D03*
X112650000Y-102700000D03*
X112600000Y-105380000D03*
X112600000Y-106330000D03*
X112600000Y-107280000D03*
X114800000Y-107280000D03*
X114800000Y-105380000D03*
D14*
X126449300Y-134287969D03*
X124950700Y-134287969D03*
X126449300Y-130787969D03*
X124950700Y-130787969D03*
X126449300Y-127287969D03*
X124950700Y-127287969D03*
D15*
X123000000Y-134287969D03*
X120800000Y-134287969D03*
X123000000Y-130787969D03*
X120800000Y-130787969D03*
X123000000Y-127300000D03*
X120800000Y-127300000D03*
D16*
X115250000Y-134275000D03*
X110750000Y-134275000D03*
X110750000Y-126325000D03*
X115250000Y-126325000D03*
D17*
X158550000Y-91250000D03*
D18*
X161190000Y-100200000D03*
X161190000Y-100600000D03*
X161190000Y-101000000D03*
X161190000Y-101400000D03*
X161190000Y-101800000D03*
X161190000Y-102200000D03*
X161190000Y-102600000D03*
X161190000Y-103000000D03*
X161190000Y-103400000D03*
X161190000Y-103800000D03*
X161190000Y-107800000D03*
X161190000Y-107400000D03*
X161190000Y-107000000D03*
X161190000Y-106600000D03*
X161190000Y-106200000D03*
X161190000Y-105800000D03*
X161190000Y-105400000D03*
X161190000Y-105000000D03*
X161190000Y-104600000D03*
X161190000Y-104200000D03*
X161190000Y-108200000D03*
X161190000Y-108600000D03*
X161190000Y-109000000D03*
X161190000Y-109400000D03*
X161190000Y-109800000D03*
X161190000Y-110200000D03*
X161190000Y-110600000D03*
X161190000Y-111000000D03*
X161190000Y-111400000D03*
X161190000Y-111800000D03*
X161190000Y-115800000D03*
X161190000Y-115400000D03*
X161190000Y-115000000D03*
X161190000Y-114600000D03*
X161190000Y-114200000D03*
X161190000Y-113800000D03*
X161190000Y-113400000D03*
X161190000Y-113000000D03*
X161190000Y-112600000D03*
X161190000Y-112200000D03*
X158110000Y-112200000D03*
X158110000Y-112600000D03*
X158110000Y-113000000D03*
X158110000Y-113400000D03*
X158110000Y-113800000D03*
X158110000Y-114200000D03*
X158110000Y-114600000D03*
X158110000Y-115000000D03*
X158110000Y-115400000D03*
X158110000Y-115800000D03*
X158110000Y-111800000D03*
X158110000Y-111400000D03*
X158110000Y-111000000D03*
X158110000Y-110600000D03*
X158110000Y-110200000D03*
X158110000Y-109800000D03*
X158110000Y-109400000D03*
X158110000Y-109000000D03*
X158110000Y-108600000D03*
X158110000Y-108200000D03*
X158110000Y-104200000D03*
X158110000Y-104600000D03*
X158110000Y-105000000D03*
X158110000Y-105400000D03*
X158110000Y-105800000D03*
X158110000Y-106200000D03*
X158110000Y-106600000D03*
X158110000Y-107000000D03*
X158110000Y-107400000D03*
X158110000Y-107800000D03*
X158110000Y-103800000D03*
X158110000Y-103400000D03*
X158110000Y-103000000D03*
X158110000Y-102600000D03*
X158110000Y-102200000D03*
X158110000Y-101800000D03*
X158110000Y-101400000D03*
X158110000Y-101000000D03*
X158110000Y-100600000D03*
X158110000Y-100200000D03*
D19*
X110560000Y-105410000D03*
X110560000Y-107310000D03*
X116940000Y-105410000D03*
X116940000Y-107310000D03*
D20*
X119000000Y-133870000D03*
X119000000Y-131670000D03*
X117300000Y-131660000D03*
X117300000Y-133860000D03*
D18*
X188610000Y-109800000D03*
X191690000Y-109800000D03*
X188610000Y-109400000D03*
X191690000Y-109400000D03*
X188610000Y-109000000D03*
X191690000Y-109000000D03*
X188610000Y-108600000D03*
X191690000Y-108600000D03*
X188610000Y-108200000D03*
X191690000Y-108200000D03*
X188610000Y-107800000D03*
X191690000Y-107800000D03*
X188610000Y-107400000D03*
X191690000Y-107400000D03*
X188610000Y-107000000D03*
X191690000Y-107000000D03*
X188610000Y-106600000D03*
X191690000Y-106600000D03*
X188610000Y-106200000D03*
X191690000Y-106200000D03*
D20*
X117300000Y-127300000D03*
X117300000Y-129500000D03*
D21*
X124850000Y-118650000D03*
X128450000Y-118650000D03*
X128450000Y-118150000D03*
X124850000Y-118150000D03*
D22*
X125400000Y-119700000D03*
X125900000Y-119700000D03*
X126400000Y-119700000D03*
X126900000Y-119700000D03*
X127400000Y-119700000D03*
X127900000Y-119700000D03*
X127900000Y-117100000D03*
X127400000Y-117100000D03*
X126900000Y-117100000D03*
X126400000Y-117100000D03*
X125900000Y-117100000D03*
X125400000Y-117100000D03*
D15*
X178900000Y-111300000D03*
X181100000Y-111300000D03*
X183600000Y-111300000D03*
X185800000Y-111300000D03*
D14*
X118650000Y-106550700D03*
X118650000Y-108049300D03*
D15*
X120600000Y-108950000D03*
X122800000Y-108950000D03*
D23*
X137000000Y-127500000D03*
X138000000Y-127500000D03*
X139000000Y-127500000D03*
X140000000Y-127500000D03*
X141000000Y-127500000D03*
X142000000Y-127500000D03*
X143000000Y-127500000D03*
X144000000Y-127500000D03*
X145000000Y-127500000D03*
X146000000Y-127500000D03*
X147000000Y-127500000D03*
X148000000Y-127500000D03*
X149000000Y-127500000D03*
X150000000Y-127500000D03*
X151000000Y-127500000D03*
X152000000Y-127500000D03*
D24*
X136000000Y-129600000D03*
X153000000Y-129600000D03*
D23*
X167500000Y-127500000D03*
X168500000Y-127500000D03*
X169500000Y-127500000D03*
X170500000Y-127500000D03*
X171500000Y-127500000D03*
X172500000Y-127500000D03*
X173500000Y-127500000D03*
X174500000Y-127500000D03*
X175500000Y-127500000D03*
X176500000Y-127500000D03*
X177500000Y-127500000D03*
X178500000Y-127500000D03*
X179500000Y-127500000D03*
X180500000Y-127500000D03*
X181500000Y-127500000D03*
X182500000Y-127500000D03*
D24*
X166500000Y-129600000D03*
X183500000Y-129600000D03*
D25*
X114200000Y-90300000D03*
D26*
X111200000Y-85600000D03*
X117200000Y-85600000D03*
M02*
