G04 #@! TF.FileFunction,Legend,Bot*
%FSLAX46Y46*%
G04 Gerber Fmt 4.6, Leading zero omitted, Abs format (unit mm)*
G04 Created by KiCad (PCBNEW 4.0.1-stable) date Friday, March 04, 2016 'AMt' 01:06:34 AM*
%MOMM*%
G01*
G04 APERTURE LIST*
%ADD10C,0.100000*%
%ADD11C,0.300000*%
G04 APERTURE END LIST*
D10*
D11*
X171552858Y-100388571D02*
X170695715Y-100388571D01*
X171124286Y-101888571D02*
X171124286Y-100388571D01*
X170195715Y-101888571D02*
X170195715Y-100388571D01*
X169552858Y-101888571D02*
X169552858Y-101102857D01*
X169624287Y-100960000D01*
X169767144Y-100888571D01*
X169981429Y-100888571D01*
X170124287Y-100960000D01*
X170195715Y-101031429D01*
X168838572Y-101888571D02*
X168838572Y-100888571D01*
X168838572Y-100388571D02*
X168910001Y-100460000D01*
X168838572Y-100531429D01*
X168767144Y-100460000D01*
X168838572Y-100388571D01*
X168838572Y-100531429D01*
X168195715Y-101817143D02*
X168052858Y-101888571D01*
X167767143Y-101888571D01*
X167624286Y-101817143D01*
X167552858Y-101674286D01*
X167552858Y-101602857D01*
X167624286Y-101460000D01*
X167767143Y-101388571D01*
X167981429Y-101388571D01*
X168124286Y-101317143D01*
X168195715Y-101174286D01*
X168195715Y-101102857D01*
X168124286Y-100960000D01*
X167981429Y-100888571D01*
X167767143Y-100888571D01*
X167624286Y-100960000D01*
X165838572Y-101817143D02*
X165695715Y-101888571D01*
X165410000Y-101888571D01*
X165267143Y-101817143D01*
X165195715Y-101674286D01*
X165195715Y-101602857D01*
X165267143Y-101460000D01*
X165410000Y-101388571D01*
X165624286Y-101388571D01*
X165767143Y-101317143D01*
X165838572Y-101174286D01*
X165838572Y-101102857D01*
X165767143Y-100960000D01*
X165624286Y-100888571D01*
X165410000Y-100888571D01*
X165267143Y-100960000D01*
X164552857Y-101888571D02*
X164552857Y-100888571D01*
X164552857Y-100388571D02*
X164624286Y-100460000D01*
X164552857Y-100531429D01*
X164481429Y-100460000D01*
X164552857Y-100388571D01*
X164552857Y-100531429D01*
X163195714Y-101888571D02*
X163195714Y-100388571D01*
X163195714Y-101817143D02*
X163338571Y-101888571D01*
X163624285Y-101888571D01*
X163767143Y-101817143D01*
X163838571Y-101745714D01*
X163910000Y-101602857D01*
X163910000Y-101174286D01*
X163838571Y-101031429D01*
X163767143Y-100960000D01*
X163624285Y-100888571D01*
X163338571Y-100888571D01*
X163195714Y-100960000D01*
X161910000Y-101817143D02*
X162052857Y-101888571D01*
X162338571Y-101888571D01*
X162481428Y-101817143D01*
X162552857Y-101674286D01*
X162552857Y-101102857D01*
X162481428Y-100960000D01*
X162338571Y-100888571D01*
X162052857Y-100888571D01*
X161910000Y-100960000D01*
X161838571Y-101102857D01*
X161838571Y-101245714D01*
X162552857Y-101388571D01*
X160052857Y-101888571D02*
X160052857Y-100888571D01*
X160052857Y-100388571D02*
X160124286Y-100460000D01*
X160052857Y-100531429D01*
X159981429Y-100460000D01*
X160052857Y-100388571D01*
X160052857Y-100531429D01*
X159338571Y-100888571D02*
X159338571Y-101888571D01*
X159338571Y-101031429D02*
X159267143Y-100960000D01*
X159124285Y-100888571D01*
X158910000Y-100888571D01*
X158767143Y-100960000D01*
X158695714Y-101102857D01*
X158695714Y-101888571D01*
X158195714Y-100888571D02*
X157624285Y-100888571D01*
X157981428Y-100388571D02*
X157981428Y-101674286D01*
X157910000Y-101817143D01*
X157767142Y-101888571D01*
X157624285Y-101888571D01*
X156552857Y-101817143D02*
X156695714Y-101888571D01*
X156981428Y-101888571D01*
X157124285Y-101817143D01*
X157195714Y-101674286D01*
X157195714Y-101102857D01*
X157124285Y-100960000D01*
X156981428Y-100888571D01*
X156695714Y-100888571D01*
X156552857Y-100960000D01*
X156481428Y-101102857D01*
X156481428Y-101245714D01*
X157195714Y-101388571D01*
X155838571Y-100888571D02*
X155838571Y-101888571D01*
X155838571Y-101031429D02*
X155767143Y-100960000D01*
X155624285Y-100888571D01*
X155410000Y-100888571D01*
X155267143Y-100960000D01*
X155195714Y-101102857D01*
X155195714Y-101888571D01*
X154695714Y-100888571D02*
X154124285Y-100888571D01*
X154481428Y-100388571D02*
X154481428Y-101674286D01*
X154410000Y-101817143D01*
X154267142Y-101888571D01*
X154124285Y-101888571D01*
X153624285Y-101888571D02*
X153624285Y-100888571D01*
X153624285Y-100388571D02*
X153695714Y-100460000D01*
X153624285Y-100531429D01*
X153552857Y-100460000D01*
X153624285Y-100388571D01*
X153624285Y-100531429D01*
X152695713Y-101888571D02*
X152838571Y-101817143D01*
X152909999Y-101745714D01*
X152981428Y-101602857D01*
X152981428Y-101174286D01*
X152909999Y-101031429D01*
X152838571Y-100960000D01*
X152695713Y-100888571D01*
X152481428Y-100888571D01*
X152338571Y-100960000D01*
X152267142Y-101031429D01*
X152195713Y-101174286D01*
X152195713Y-101602857D01*
X152267142Y-101745714D01*
X152338571Y-101817143D01*
X152481428Y-101888571D01*
X152695713Y-101888571D01*
X151552856Y-100888571D02*
X151552856Y-101888571D01*
X151552856Y-101031429D02*
X151481428Y-100960000D01*
X151338570Y-100888571D01*
X151124285Y-100888571D01*
X150981428Y-100960000D01*
X150909999Y-101102857D01*
X150909999Y-101888571D01*
X149552856Y-101888571D02*
X149552856Y-101102857D01*
X149624285Y-100960000D01*
X149767142Y-100888571D01*
X150052856Y-100888571D01*
X150195713Y-100960000D01*
X149552856Y-101817143D02*
X149695713Y-101888571D01*
X150052856Y-101888571D01*
X150195713Y-101817143D01*
X150267142Y-101674286D01*
X150267142Y-101531429D01*
X150195713Y-101388571D01*
X150052856Y-101317143D01*
X149695713Y-101317143D01*
X149552856Y-101245714D01*
X148624284Y-101888571D02*
X148767142Y-101817143D01*
X148838570Y-101674286D01*
X148838570Y-100388571D01*
X147838570Y-101888571D02*
X147981428Y-101817143D01*
X148052856Y-101674286D01*
X148052856Y-100388571D01*
X147409999Y-100888571D02*
X147052856Y-101888571D01*
X146695714Y-100888571D02*
X147052856Y-101888571D01*
X147195714Y-102245714D01*
X147267142Y-102317143D01*
X147409999Y-102388571D01*
X144767142Y-101888571D02*
X144910000Y-101817143D01*
X144981428Y-101674286D01*
X144981428Y-100388571D01*
X143624286Y-101817143D02*
X143767143Y-101888571D01*
X144052857Y-101888571D01*
X144195714Y-101817143D01*
X144267143Y-101674286D01*
X144267143Y-101102857D01*
X144195714Y-100960000D01*
X144052857Y-100888571D01*
X143767143Y-100888571D01*
X143624286Y-100960000D01*
X143552857Y-101102857D01*
X143552857Y-101245714D01*
X144267143Y-101388571D01*
X143124286Y-100888571D02*
X142552857Y-100888571D01*
X142910000Y-101888571D02*
X142910000Y-100602857D01*
X142838572Y-100460000D01*
X142695714Y-100388571D01*
X142552857Y-100388571D01*
X142267143Y-100888571D02*
X141695714Y-100888571D01*
X142052857Y-100388571D02*
X142052857Y-101674286D01*
X141981429Y-101817143D01*
X141838571Y-101888571D01*
X141695714Y-101888571D01*
X140052857Y-101888571D02*
X140052857Y-100388571D01*
X140052857Y-100960000D02*
X139910000Y-100888571D01*
X139624286Y-100888571D01*
X139481429Y-100960000D01*
X139410000Y-101031429D01*
X139338571Y-101174286D01*
X139338571Y-101602857D01*
X139410000Y-101745714D01*
X139481429Y-101817143D01*
X139624286Y-101888571D01*
X139910000Y-101888571D01*
X140052857Y-101817143D01*
X138481428Y-101888571D02*
X138624286Y-101817143D01*
X138695714Y-101674286D01*
X138695714Y-100388571D01*
X137267143Y-101888571D02*
X137267143Y-101102857D01*
X137338572Y-100960000D01*
X137481429Y-100888571D01*
X137767143Y-100888571D01*
X137910000Y-100960000D01*
X137267143Y-101817143D02*
X137410000Y-101888571D01*
X137767143Y-101888571D01*
X137910000Y-101817143D01*
X137981429Y-101674286D01*
X137981429Y-101531429D01*
X137910000Y-101388571D01*
X137767143Y-101317143D01*
X137410000Y-101317143D01*
X137267143Y-101245714D01*
X136552857Y-100888571D02*
X136552857Y-101888571D01*
X136552857Y-101031429D02*
X136481429Y-100960000D01*
X136338571Y-100888571D01*
X136124286Y-100888571D01*
X135981429Y-100960000D01*
X135910000Y-101102857D01*
X135910000Y-101888571D01*
X135195714Y-101888571D02*
X135195714Y-100388571D01*
X135052857Y-101317143D02*
X134624286Y-101888571D01*
X134624286Y-100888571D02*
X135195714Y-101460000D01*
X133981428Y-101745714D02*
X133910000Y-101817143D01*
X133981428Y-101888571D01*
X134052857Y-101817143D01*
X133981428Y-101745714D01*
X133981428Y-101888571D01*
X160124286Y-104860000D02*
X160195714Y-104788571D01*
X160338571Y-104574286D01*
X160410000Y-104431429D01*
X160481429Y-104217143D01*
X160552857Y-103860000D01*
X160552857Y-103574286D01*
X160481429Y-103217143D01*
X160410000Y-103002857D01*
X160338571Y-102860000D01*
X160195714Y-102645714D01*
X160124286Y-102574286D01*
X159552857Y-104288571D02*
X159552857Y-102788571D01*
X159052857Y-103288571D02*
X158481428Y-103288571D01*
X158838571Y-102788571D02*
X158838571Y-104074286D01*
X158767143Y-104217143D01*
X158624285Y-104288571D01*
X158481428Y-104288571D01*
X158052857Y-104217143D02*
X157910000Y-104288571D01*
X157624285Y-104288571D01*
X157481428Y-104217143D01*
X157410000Y-104074286D01*
X157410000Y-104002857D01*
X157481428Y-103860000D01*
X157624285Y-103788571D01*
X157838571Y-103788571D01*
X157981428Y-103717143D01*
X158052857Y-103574286D01*
X158052857Y-103502857D01*
X157981428Y-103360000D01*
X157838571Y-103288571D01*
X157624285Y-103288571D01*
X157481428Y-103360000D01*
X155838571Y-103288571D02*
X155267142Y-103288571D01*
X155624285Y-102788571D02*
X155624285Y-104074286D01*
X155552857Y-104217143D01*
X155409999Y-104288571D01*
X155267142Y-104288571D01*
X154767142Y-104288571D02*
X154767142Y-102788571D01*
X154124285Y-104288571D02*
X154124285Y-103502857D01*
X154195714Y-103360000D01*
X154338571Y-103288571D01*
X154552856Y-103288571D01*
X154695714Y-103360000D01*
X154767142Y-103431429D01*
X152838571Y-104217143D02*
X152981428Y-104288571D01*
X153267142Y-104288571D01*
X153409999Y-104217143D01*
X153481428Y-104074286D01*
X153481428Y-103502857D01*
X153409999Y-103360000D01*
X153267142Y-103288571D01*
X152981428Y-103288571D01*
X152838571Y-103360000D01*
X152767142Y-103502857D01*
X152767142Y-103645714D01*
X153481428Y-103788571D01*
X150981428Y-104288571D02*
X150981428Y-102788571D01*
X150981428Y-103360000D02*
X150838571Y-103288571D01*
X150552857Y-103288571D01*
X150410000Y-103360000D01*
X150338571Y-103431429D01*
X150267142Y-103574286D01*
X150267142Y-104002857D01*
X150338571Y-104145714D01*
X150410000Y-104217143D01*
X150552857Y-104288571D01*
X150838571Y-104288571D01*
X150981428Y-104217143D01*
X148981428Y-104288571D02*
X148981428Y-103502857D01*
X149052857Y-103360000D01*
X149195714Y-103288571D01*
X149481428Y-103288571D01*
X149624285Y-103360000D01*
X148981428Y-104217143D02*
X149124285Y-104288571D01*
X149481428Y-104288571D01*
X149624285Y-104217143D01*
X149695714Y-104074286D01*
X149695714Y-103931429D01*
X149624285Y-103788571D01*
X149481428Y-103717143D01*
X149124285Y-103717143D01*
X148981428Y-103645714D01*
X147624285Y-104217143D02*
X147767142Y-104288571D01*
X148052856Y-104288571D01*
X148195714Y-104217143D01*
X148267142Y-104145714D01*
X148338571Y-104002857D01*
X148338571Y-103574286D01*
X148267142Y-103431429D01*
X148195714Y-103360000D01*
X148052856Y-103288571D01*
X147767142Y-103288571D01*
X147624285Y-103360000D01*
X146981428Y-104288571D02*
X146981428Y-102788571D01*
X146838571Y-103717143D02*
X146410000Y-104288571D01*
X146410000Y-103288571D02*
X146981428Y-103860000D01*
X145767142Y-104145714D02*
X145695714Y-104217143D01*
X145767142Y-104288571D01*
X145838571Y-104217143D01*
X145767142Y-104145714D01*
X145767142Y-104288571D01*
X145195713Y-104860000D02*
X145124285Y-104788571D01*
X144981428Y-104574286D01*
X144909999Y-104431429D01*
X144838570Y-104217143D01*
X144767142Y-103860000D01*
X144767142Y-103574286D01*
X144838570Y-103217143D01*
X144909999Y-103002857D01*
X144981428Y-102860000D01*
X145124285Y-102645714D01*
X145195713Y-102574286D01*
M02*
