G04 #@! TF.FileFunction,Legend,Top*
%FSLAX46Y46*%
G04 Gerber Fmt 4.6, Leading zero omitted, Abs format (unit mm)*
G04 Created by KiCad (PCBNEW 4.0.1-stable) date Thursday, April 14, 2016 'AMt' 11:51:39 AM*
%MOMM*%
G01*
G04 APERTURE LIST*
%ADD10C,0.100000*%
%ADD11C,0.300000*%
%ADD12C,0.150000*%
%ADD13C,0.220000*%
G04 APERTURE END LIST*
D10*
D11*
X110564286Y-121978571D02*
X110064286Y-121264286D01*
X109707143Y-121978571D02*
X109707143Y-120478571D01*
X110278571Y-120478571D01*
X110421429Y-120550000D01*
X110492857Y-120621429D01*
X110564286Y-120764286D01*
X110564286Y-120978571D01*
X110492857Y-121121429D01*
X110421429Y-121192857D01*
X110278571Y-121264286D01*
X109707143Y-121264286D01*
X110214286Y-116192857D02*
X109714286Y-116192857D01*
X109714286Y-116978571D02*
X109714286Y-115478571D01*
X110428572Y-115478571D01*
D12*
X116600000Y-123250000D02*
G75*
G03X119350000Y-126000000I2750000J0D01*
G01*
X119350000Y-90000000D02*
G75*
G03X116600000Y-92750000I0J-2750000D01*
G01*
X116600000Y-92750000D02*
X116600000Y-95550000D01*
D13*
X167696428Y-124375952D02*
X167577381Y-124435476D01*
X167339285Y-124435476D01*
X167220238Y-124375952D01*
X167160714Y-124316429D01*
X167101190Y-124197381D01*
X167101190Y-123840238D01*
X167160714Y-123721190D01*
X167220238Y-123661667D01*
X167339285Y-123602143D01*
X167577381Y-123602143D01*
X167696428Y-123661667D01*
X168232143Y-124435476D02*
X168232143Y-123185476D01*
X168351191Y-123959286D02*
X168708334Y-124435476D01*
X168708334Y-123602143D02*
X168232143Y-124078333D01*
X169779762Y-124435476D02*
X169779762Y-123185476D01*
X169779762Y-124375952D02*
X169660715Y-124435476D01*
X169422619Y-124435476D01*
X169303572Y-124375952D01*
X169244048Y-124316429D01*
X169184524Y-124197381D01*
X169184524Y-123840238D01*
X169244048Y-123721190D01*
X169303572Y-123661667D01*
X169422619Y-123602143D01*
X169660715Y-123602143D01*
X169779762Y-123661667D01*
X170375000Y-124316429D02*
X170434524Y-124375952D01*
X170375000Y-124435476D01*
X170315476Y-124375952D01*
X170375000Y-124316429D01*
X170375000Y-124435476D01*
X170791667Y-123602143D02*
X171267857Y-123602143D01*
X170970238Y-123185476D02*
X170970238Y-124256905D01*
X171029762Y-124375952D01*
X171148809Y-124435476D01*
X171267857Y-124435476D01*
X172160715Y-124375952D02*
X172041667Y-124435476D01*
X171803572Y-124435476D01*
X171684524Y-124375952D01*
X171625000Y-124256905D01*
X171625000Y-123780714D01*
X171684524Y-123661667D01*
X171803572Y-123602143D01*
X172041667Y-123602143D01*
X172160715Y-123661667D01*
X172220238Y-123780714D01*
X172220238Y-123899762D01*
X171625000Y-124018810D01*
X173291667Y-124375952D02*
X173172620Y-124435476D01*
X172934524Y-124435476D01*
X172815477Y-124375952D01*
X172755953Y-124316429D01*
X172696429Y-124197381D01*
X172696429Y-123840238D01*
X172755953Y-123721190D01*
X172815477Y-123661667D01*
X172934524Y-123602143D01*
X173172620Y-123602143D01*
X173291667Y-123661667D01*
X173827382Y-124435476D02*
X173827382Y-123185476D01*
X174363096Y-124435476D02*
X174363096Y-123780714D01*
X174303573Y-123661667D01*
X174184525Y-123602143D01*
X174005953Y-123602143D01*
X173886906Y-123661667D01*
X173827382Y-123721190D01*
X175851191Y-123125952D02*
X174779763Y-124733095D01*
X176803572Y-123602143D02*
X176803572Y-124614048D01*
X176744049Y-124733095D01*
X176684525Y-124792619D01*
X176565477Y-124852143D01*
X176386906Y-124852143D01*
X176267858Y-124792619D01*
X176803572Y-124375952D02*
X176684525Y-124435476D01*
X176446429Y-124435476D01*
X176327382Y-124375952D01*
X176267858Y-124316429D01*
X176208334Y-124197381D01*
X176208334Y-123840238D01*
X176267858Y-123721190D01*
X176327382Y-123661667D01*
X176446429Y-123602143D01*
X176684525Y-123602143D01*
X176803572Y-123661667D01*
X177398810Y-123959286D02*
X178351191Y-123959286D01*
X178767858Y-123602143D02*
X179244048Y-123602143D01*
X178946429Y-123185476D02*
X178946429Y-124256905D01*
X179005953Y-124375952D01*
X179125000Y-124435476D01*
X179244048Y-124435476D01*
X180136906Y-124375952D02*
X180017858Y-124435476D01*
X179779763Y-124435476D01*
X179660715Y-124375952D01*
X179601191Y-124256905D01*
X179601191Y-123780714D01*
X179660715Y-123661667D01*
X179779763Y-123602143D01*
X180017858Y-123602143D01*
X180136906Y-123661667D01*
X180196429Y-123780714D01*
X180196429Y-123899762D01*
X179601191Y-124018810D01*
X180672620Y-124375952D02*
X180791668Y-124435476D01*
X181029763Y-124435476D01*
X181148811Y-124375952D01*
X181208335Y-124256905D01*
X181208335Y-124197381D01*
X181148811Y-124078333D01*
X181029763Y-124018810D01*
X180851192Y-124018810D01*
X180732144Y-123959286D01*
X180672620Y-123840238D01*
X180672620Y-123780714D01*
X180732144Y-123661667D01*
X180851192Y-123602143D01*
X181029763Y-123602143D01*
X181148811Y-123661667D01*
X181565478Y-123602143D02*
X182041668Y-123602143D01*
X181744049Y-123185476D02*
X181744049Y-124256905D01*
X181803573Y-124375952D01*
X181922620Y-124435476D01*
X182041668Y-124435476D01*
X182458335Y-123959286D02*
X183410716Y-123959286D01*
X184005954Y-124435476D02*
X184005954Y-123185476D01*
X184005954Y-123661667D02*
X184125002Y-123602143D01*
X184363097Y-123602143D01*
X184482145Y-123661667D01*
X184541668Y-123721190D01*
X184601192Y-123840238D01*
X184601192Y-124197381D01*
X184541668Y-124316429D01*
X184482145Y-124375952D01*
X184363097Y-124435476D01*
X184125002Y-124435476D01*
X184005954Y-124375952D01*
X185315477Y-124435476D02*
X185196430Y-124375952D01*
X185136906Y-124316429D01*
X185077382Y-124197381D01*
X185077382Y-123840238D01*
X185136906Y-123721190D01*
X185196430Y-123661667D01*
X185315477Y-123602143D01*
X185494049Y-123602143D01*
X185613097Y-123661667D01*
X185672620Y-123721190D01*
X185732144Y-123840238D01*
X185732144Y-124197381D01*
X185672620Y-124316429D01*
X185613097Y-124375952D01*
X185494049Y-124435476D01*
X185315477Y-124435476D01*
X186089287Y-123602143D02*
X186565477Y-123602143D01*
X186267858Y-123185476D02*
X186267858Y-124256905D01*
X186327382Y-124375952D01*
X186446429Y-124435476D01*
X186565477Y-124435476D01*
X187875001Y-123125952D02*
X186803573Y-124733095D01*
X188172620Y-123602143D02*
X188470239Y-124435476D01*
X188767859Y-123602143D01*
X189125001Y-123185476D02*
X189898811Y-123185476D01*
X189482144Y-123661667D01*
X189660716Y-123661667D01*
X189779763Y-123721190D01*
X189839287Y-123780714D01*
X189898811Y-123899762D01*
X189898811Y-124197381D01*
X189839287Y-124316429D01*
X189779763Y-124375952D01*
X189660716Y-124435476D01*
X189303573Y-124435476D01*
X189184525Y-124375952D01*
X189125001Y-124316429D01*
D11*
X141875714Y-107378571D02*
X141875714Y-105878571D01*
X142375714Y-106950000D01*
X142875714Y-105878571D01*
X142875714Y-107378571D01*
X143804286Y-107378571D02*
X143661428Y-107307143D01*
X143590000Y-107235714D01*
X143518571Y-107092857D01*
X143518571Y-106664286D01*
X143590000Y-106521429D01*
X143661428Y-106450000D01*
X143804286Y-106378571D01*
X144018571Y-106378571D01*
X144161428Y-106450000D01*
X144232857Y-106521429D01*
X144304286Y-106664286D01*
X144304286Y-107092857D01*
X144232857Y-107235714D01*
X144161428Y-107307143D01*
X144018571Y-107378571D01*
X143804286Y-107378571D01*
X145590000Y-107378571D02*
X145590000Y-105878571D01*
X145590000Y-107307143D02*
X145447143Y-107378571D01*
X145161429Y-107378571D01*
X145018571Y-107307143D01*
X144947143Y-107235714D01*
X144875714Y-107092857D01*
X144875714Y-106664286D01*
X144947143Y-106521429D01*
X145018571Y-106450000D01*
X145161429Y-106378571D01*
X145447143Y-106378571D01*
X145590000Y-106450000D01*
X146232857Y-107307143D02*
X146375714Y-107378571D01*
X146661429Y-107378571D01*
X146804286Y-107307143D01*
X146875714Y-107164286D01*
X146875714Y-107092857D01*
X146804286Y-106950000D01*
X146661429Y-106878571D01*
X146447143Y-106878571D01*
X146304286Y-106807143D01*
X146232857Y-106664286D01*
X146232857Y-106592857D01*
X146304286Y-106450000D01*
X146447143Y-106378571D01*
X146661429Y-106378571D01*
X146804286Y-106450000D01*
X140947143Y-108350000D02*
X140804286Y-108278571D01*
X140590000Y-108278571D01*
X140375715Y-108350000D01*
X140232857Y-108492857D01*
X140161429Y-108635714D01*
X140090000Y-108921429D01*
X140090000Y-109135714D01*
X140161429Y-109421429D01*
X140232857Y-109564286D01*
X140375715Y-109707143D01*
X140590000Y-109778571D01*
X140732857Y-109778571D01*
X140947143Y-109707143D01*
X141018572Y-109635714D01*
X141018572Y-109135714D01*
X140732857Y-109135714D01*
X141875715Y-109778571D02*
X141732857Y-109707143D01*
X141661429Y-109635714D01*
X141590000Y-109492857D01*
X141590000Y-109064286D01*
X141661429Y-108921429D01*
X141732857Y-108850000D01*
X141875715Y-108778571D01*
X142090000Y-108778571D01*
X142232857Y-108850000D01*
X142304286Y-108921429D01*
X142375715Y-109064286D01*
X142375715Y-109492857D01*
X142304286Y-109635714D01*
X142232857Y-109707143D01*
X142090000Y-109778571D01*
X141875715Y-109778571D01*
X144161429Y-109778571D02*
X144161429Y-108278571D01*
X144161429Y-108992857D02*
X145018572Y-108992857D01*
X145018572Y-109778571D02*
X145018572Y-108278571D01*
X146304286Y-109707143D02*
X146161429Y-109778571D01*
X145875715Y-109778571D01*
X145732858Y-109707143D01*
X145661429Y-109564286D01*
X145661429Y-108992857D01*
X145732858Y-108850000D01*
X145875715Y-108778571D01*
X146161429Y-108778571D01*
X146304286Y-108850000D01*
X146375715Y-108992857D01*
X146375715Y-109135714D01*
X145661429Y-109278571D01*
X147018572Y-109778571D02*
X147018572Y-108778571D01*
X147018572Y-109064286D02*
X147090000Y-108921429D01*
X147161429Y-108850000D01*
X147304286Y-108778571D01*
X147447143Y-108778571D01*
X148518571Y-109707143D02*
X148375714Y-109778571D01*
X148090000Y-109778571D01*
X147947143Y-109707143D01*
X147875714Y-109564286D01*
X147875714Y-108992857D01*
X147947143Y-108850000D01*
X148090000Y-108778571D01*
X148375714Y-108778571D01*
X148518571Y-108850000D01*
X148590000Y-108992857D01*
X148590000Y-109135714D01*
X147875714Y-109278571D01*
X169604286Y-107515714D02*
X169532857Y-107587143D01*
X169318571Y-107658571D01*
X169175714Y-107658571D01*
X168961429Y-107587143D01*
X168818571Y-107444286D01*
X168747143Y-107301429D01*
X168675714Y-107015714D01*
X168675714Y-106801429D01*
X168747143Y-106515714D01*
X168818571Y-106372857D01*
X168961429Y-106230000D01*
X169175714Y-106158571D01*
X169318571Y-106158571D01*
X169532857Y-106230000D01*
X169604286Y-106301429D01*
X170461429Y-107658571D02*
X170318571Y-107587143D01*
X170247143Y-107515714D01*
X170175714Y-107372857D01*
X170175714Y-106944286D01*
X170247143Y-106801429D01*
X170318571Y-106730000D01*
X170461429Y-106658571D01*
X170675714Y-106658571D01*
X170818571Y-106730000D01*
X170890000Y-106801429D01*
X170961429Y-106944286D01*
X170961429Y-107372857D01*
X170890000Y-107515714D01*
X170818571Y-107587143D01*
X170675714Y-107658571D01*
X170461429Y-107658571D01*
X171604286Y-106658571D02*
X171604286Y-107658571D01*
X171604286Y-106801429D02*
X171675714Y-106730000D01*
X171818572Y-106658571D01*
X172032857Y-106658571D01*
X172175714Y-106730000D01*
X172247143Y-106872857D01*
X172247143Y-107658571D01*
X172747143Y-106658571D02*
X173318572Y-106658571D01*
X172961429Y-106158571D02*
X172961429Y-107444286D01*
X173032857Y-107587143D01*
X173175715Y-107658571D01*
X173318572Y-107658571D01*
X173818572Y-107658571D02*
X173818572Y-106658571D01*
X173818572Y-106944286D02*
X173890000Y-106801429D01*
X173961429Y-106730000D01*
X174104286Y-106658571D01*
X174247143Y-106658571D01*
X174961429Y-107658571D02*
X174818571Y-107587143D01*
X174747143Y-107515714D01*
X174675714Y-107372857D01*
X174675714Y-106944286D01*
X174747143Y-106801429D01*
X174818571Y-106730000D01*
X174961429Y-106658571D01*
X175175714Y-106658571D01*
X175318571Y-106730000D01*
X175390000Y-106801429D01*
X175461429Y-106944286D01*
X175461429Y-107372857D01*
X175390000Y-107515714D01*
X175318571Y-107587143D01*
X175175714Y-107658571D01*
X174961429Y-107658571D01*
X176318572Y-107658571D02*
X176175714Y-107587143D01*
X176104286Y-107444286D01*
X176104286Y-106158571D01*
X178532857Y-106872857D02*
X178747143Y-106944286D01*
X178818571Y-107015714D01*
X178890000Y-107158571D01*
X178890000Y-107372857D01*
X178818571Y-107515714D01*
X178747143Y-107587143D01*
X178604285Y-107658571D01*
X178032857Y-107658571D01*
X178032857Y-106158571D01*
X178532857Y-106158571D01*
X178675714Y-106230000D01*
X178747143Y-106301429D01*
X178818571Y-106444286D01*
X178818571Y-106587143D01*
X178747143Y-106730000D01*
X178675714Y-106801429D01*
X178532857Y-106872857D01*
X178032857Y-106872857D01*
X179747143Y-107658571D02*
X179604285Y-107587143D01*
X179532857Y-107515714D01*
X179461428Y-107372857D01*
X179461428Y-106944286D01*
X179532857Y-106801429D01*
X179604285Y-106730000D01*
X179747143Y-106658571D01*
X179961428Y-106658571D01*
X180104285Y-106730000D01*
X180175714Y-106801429D01*
X180247143Y-106944286D01*
X180247143Y-107372857D01*
X180175714Y-107515714D01*
X180104285Y-107587143D01*
X179961428Y-107658571D01*
X179747143Y-107658571D01*
X181532857Y-107658571D02*
X181532857Y-106872857D01*
X181461428Y-106730000D01*
X181318571Y-106658571D01*
X181032857Y-106658571D01*
X180890000Y-106730000D01*
X181532857Y-107587143D02*
X181390000Y-107658571D01*
X181032857Y-107658571D01*
X180890000Y-107587143D01*
X180818571Y-107444286D01*
X180818571Y-107301429D01*
X180890000Y-107158571D01*
X181032857Y-107087143D01*
X181390000Y-107087143D01*
X181532857Y-107015714D01*
X182247143Y-107658571D02*
X182247143Y-106658571D01*
X182247143Y-106944286D02*
X182318571Y-106801429D01*
X182390000Y-106730000D01*
X182532857Y-106658571D01*
X182675714Y-106658571D01*
X183818571Y-107658571D02*
X183818571Y-106158571D01*
X183818571Y-107587143D02*
X183675714Y-107658571D01*
X183390000Y-107658571D01*
X183247142Y-107587143D01*
X183175714Y-107515714D01*
X183104285Y-107372857D01*
X183104285Y-106944286D01*
X183175714Y-106801429D01*
X183247142Y-106730000D01*
X183390000Y-106658571D01*
X183675714Y-106658571D01*
X183818571Y-106730000D01*
X184461428Y-107587143D02*
X184604285Y-107658571D01*
X184890000Y-107658571D01*
X185032857Y-107587143D01*
X185104285Y-107444286D01*
X185104285Y-107372857D01*
X185032857Y-107230000D01*
X184890000Y-107158571D01*
X184675714Y-107158571D01*
X184532857Y-107087143D01*
X184461428Y-106944286D01*
X184461428Y-106872857D01*
X184532857Y-106730000D01*
X184675714Y-106658571D01*
X184890000Y-106658571D01*
X185032857Y-106730000D01*
X173497143Y-108630000D02*
X173354286Y-108558571D01*
X173140000Y-108558571D01*
X172925715Y-108630000D01*
X172782857Y-108772857D01*
X172711429Y-108915714D01*
X172640000Y-109201429D01*
X172640000Y-109415714D01*
X172711429Y-109701429D01*
X172782857Y-109844286D01*
X172925715Y-109987143D01*
X173140000Y-110058571D01*
X173282857Y-110058571D01*
X173497143Y-109987143D01*
X173568572Y-109915714D01*
X173568572Y-109415714D01*
X173282857Y-109415714D01*
X174425715Y-110058571D02*
X174282857Y-109987143D01*
X174211429Y-109915714D01*
X174140000Y-109772857D01*
X174140000Y-109344286D01*
X174211429Y-109201429D01*
X174282857Y-109130000D01*
X174425715Y-109058571D01*
X174640000Y-109058571D01*
X174782857Y-109130000D01*
X174854286Y-109201429D01*
X174925715Y-109344286D01*
X174925715Y-109772857D01*
X174854286Y-109915714D01*
X174782857Y-109987143D01*
X174640000Y-110058571D01*
X174425715Y-110058571D01*
X176711429Y-110058571D02*
X176711429Y-108558571D01*
X176711429Y-109272857D02*
X177568572Y-109272857D01*
X177568572Y-110058571D02*
X177568572Y-108558571D01*
X178854286Y-109987143D02*
X178711429Y-110058571D01*
X178425715Y-110058571D01*
X178282858Y-109987143D01*
X178211429Y-109844286D01*
X178211429Y-109272857D01*
X178282858Y-109130000D01*
X178425715Y-109058571D01*
X178711429Y-109058571D01*
X178854286Y-109130000D01*
X178925715Y-109272857D01*
X178925715Y-109415714D01*
X178211429Y-109558571D01*
X179568572Y-110058571D02*
X179568572Y-109058571D01*
X179568572Y-109344286D02*
X179640000Y-109201429D01*
X179711429Y-109130000D01*
X179854286Y-109058571D01*
X179997143Y-109058571D01*
X181068571Y-109987143D02*
X180925714Y-110058571D01*
X180640000Y-110058571D01*
X180497143Y-109987143D01*
X180425714Y-109844286D01*
X180425714Y-109272857D01*
X180497143Y-109130000D01*
X180640000Y-109058571D01*
X180925714Y-109058571D01*
X181068571Y-109130000D01*
X181140000Y-109272857D01*
X181140000Y-109415714D01*
X180425714Y-109558571D01*
D12*
X187939048Y-112302381D02*
X188558096Y-112302381D01*
X188224762Y-112683333D01*
X188367620Y-112683333D01*
X188462858Y-112730952D01*
X188510477Y-112778571D01*
X188558096Y-112873810D01*
X188558096Y-113111905D01*
X188510477Y-113207143D01*
X188462858Y-113254762D01*
X188367620Y-113302381D01*
X188081905Y-113302381D01*
X187986667Y-113254762D01*
X187939048Y-113207143D01*
X188986667Y-113207143D02*
X189034286Y-113254762D01*
X188986667Y-113302381D01*
X188939048Y-113254762D01*
X188986667Y-113207143D01*
X188986667Y-113302381D01*
X189939048Y-112302381D02*
X189462857Y-112302381D01*
X189415238Y-112778571D01*
X189462857Y-112730952D01*
X189558095Y-112683333D01*
X189796191Y-112683333D01*
X189891429Y-112730952D01*
X189939048Y-112778571D01*
X189986667Y-112873810D01*
X189986667Y-113111905D01*
X189939048Y-113207143D01*
X189891429Y-113254762D01*
X189796191Y-113302381D01*
X189558095Y-113302381D01*
X189462857Y-113254762D01*
X189415238Y-113207143D01*
X190415238Y-113302381D02*
X190415238Y-112635714D01*
X190415238Y-112730952D02*
X190462857Y-112683333D01*
X190558095Y-112635714D01*
X190700953Y-112635714D01*
X190796191Y-112683333D01*
X190843810Y-112778571D01*
X190843810Y-113302381D01*
X190843810Y-112778571D02*
X190891429Y-112683333D01*
X190986667Y-112635714D01*
X191129524Y-112635714D01*
X191224762Y-112683333D01*
X191272381Y-112778571D01*
X191272381Y-113302381D01*
X191748571Y-113302381D02*
X191748571Y-112635714D01*
X191748571Y-112730952D02*
X191796190Y-112683333D01*
X191891428Y-112635714D01*
X192034286Y-112635714D01*
X192129524Y-112683333D01*
X192177143Y-112778571D01*
X192177143Y-113302381D01*
X192177143Y-112778571D02*
X192224762Y-112683333D01*
X192320000Y-112635714D01*
X192462857Y-112635714D01*
X192558095Y-112683333D01*
X192605714Y-112778571D01*
X192605714Y-113302381D01*
X157049048Y-118002381D02*
X157668096Y-118002381D01*
X157334762Y-118383333D01*
X157477620Y-118383333D01*
X157572858Y-118430952D01*
X157620477Y-118478571D01*
X157668096Y-118573810D01*
X157668096Y-118811905D01*
X157620477Y-118907143D01*
X157572858Y-118954762D01*
X157477620Y-119002381D01*
X157191905Y-119002381D01*
X157096667Y-118954762D01*
X157049048Y-118907143D01*
X158096667Y-118907143D02*
X158144286Y-118954762D01*
X158096667Y-119002381D01*
X158049048Y-118954762D01*
X158096667Y-118907143D01*
X158096667Y-119002381D01*
X159049048Y-118002381D02*
X158572857Y-118002381D01*
X158525238Y-118478571D01*
X158572857Y-118430952D01*
X158668095Y-118383333D01*
X158906191Y-118383333D01*
X159001429Y-118430952D01*
X159049048Y-118478571D01*
X159096667Y-118573810D01*
X159096667Y-118811905D01*
X159049048Y-118907143D01*
X159001429Y-118954762D01*
X158906191Y-119002381D01*
X158668095Y-119002381D01*
X158572857Y-118954762D01*
X158525238Y-118907143D01*
X159525238Y-119002381D02*
X159525238Y-118335714D01*
X159525238Y-118430952D02*
X159572857Y-118383333D01*
X159668095Y-118335714D01*
X159810953Y-118335714D01*
X159906191Y-118383333D01*
X159953810Y-118478571D01*
X159953810Y-119002381D01*
X159953810Y-118478571D02*
X160001429Y-118383333D01*
X160096667Y-118335714D01*
X160239524Y-118335714D01*
X160334762Y-118383333D01*
X160382381Y-118478571D01*
X160382381Y-119002381D01*
X160858571Y-119002381D02*
X160858571Y-118335714D01*
X160858571Y-118430952D02*
X160906190Y-118383333D01*
X161001428Y-118335714D01*
X161144286Y-118335714D01*
X161239524Y-118383333D01*
X161287143Y-118478571D01*
X161287143Y-119002381D01*
X161287143Y-118478571D02*
X161334762Y-118383333D01*
X161430000Y-118335714D01*
X161572857Y-118335714D01*
X161668095Y-118383333D01*
X161715714Y-118478571D01*
X161715714Y-119002381D01*
D11*
X112607143Y-135000000D02*
X112464286Y-134928571D01*
X112250000Y-134928571D01*
X112035715Y-135000000D01*
X111892857Y-135142857D01*
X111821429Y-135285714D01*
X111750000Y-135571429D01*
X111750000Y-135785714D01*
X111821429Y-136071429D01*
X111892857Y-136214286D01*
X112035715Y-136357143D01*
X112250000Y-136428571D01*
X112392857Y-136428571D01*
X112607143Y-136357143D01*
X112678572Y-136285714D01*
X112678572Y-135785714D01*
X112392857Y-135785714D01*
X113607143Y-134928571D02*
X113892857Y-134928571D01*
X114035715Y-135000000D01*
X114178572Y-135142857D01*
X114250000Y-135428571D01*
X114250000Y-135928571D01*
X114178572Y-136214286D01*
X114035715Y-136357143D01*
X113892857Y-136428571D01*
X113607143Y-136428571D01*
X113464286Y-136357143D01*
X113321429Y-136214286D01*
X113250000Y-135928571D01*
X113250000Y-135428571D01*
X113321429Y-135142857D01*
X113464286Y-135000000D01*
X113607143Y-134928571D01*
X128107143Y-134392857D02*
X127607143Y-134392857D01*
X127607143Y-135178571D02*
X127607143Y-133678571D01*
X128321429Y-133678571D01*
X128821428Y-134750000D02*
X129535714Y-134750000D01*
X128678571Y-135178571D02*
X129178571Y-133678571D01*
X129678571Y-135178571D01*
X130178571Y-135178571D02*
X130178571Y-133678571D01*
X131607143Y-135178571D02*
X130892857Y-135178571D01*
X130892857Y-133678571D01*
X128107143Y-130892857D02*
X128321429Y-130964286D01*
X128392857Y-131035714D01*
X128464286Y-131178571D01*
X128464286Y-131392857D01*
X128392857Y-131535714D01*
X128321429Y-131607143D01*
X128178571Y-131678571D01*
X127607143Y-131678571D01*
X127607143Y-130178571D01*
X128107143Y-130178571D01*
X128250000Y-130250000D01*
X128321429Y-130321429D01*
X128392857Y-130464286D01*
X128392857Y-130607143D01*
X128321429Y-130750000D01*
X128250000Y-130821429D01*
X128107143Y-130892857D01*
X127607143Y-130892857D01*
X129107143Y-130178571D02*
X129107143Y-131392857D01*
X129178571Y-131535714D01*
X129250000Y-131607143D01*
X129392857Y-131678571D01*
X129678571Y-131678571D01*
X129821429Y-131607143D01*
X129892857Y-131535714D01*
X129964286Y-131392857D01*
X129964286Y-130178571D01*
X130607143Y-131607143D02*
X130821429Y-131678571D01*
X131178572Y-131678571D01*
X131321429Y-131607143D01*
X131392858Y-131535714D01*
X131464286Y-131392857D01*
X131464286Y-131250000D01*
X131392858Y-131107143D01*
X131321429Y-131035714D01*
X131178572Y-130964286D01*
X130892858Y-130892857D01*
X130750000Y-130821429D01*
X130678572Y-130750000D01*
X130607143Y-130607143D01*
X130607143Y-130464286D01*
X130678572Y-130321429D01*
X130750000Y-130250000D01*
X130892858Y-130178571D01*
X131250000Y-130178571D01*
X131464286Y-130250000D01*
X132392857Y-130964286D02*
X132392857Y-131678571D01*
X131892857Y-130178571D02*
X132392857Y-130964286D01*
X132892857Y-130178571D01*
X127607143Y-127928571D02*
X127607143Y-126428571D01*
X128178571Y-126428571D01*
X128321429Y-126500000D01*
X128392857Y-126571429D01*
X128464286Y-126714286D01*
X128464286Y-126928571D01*
X128392857Y-127071429D01*
X128321429Y-127142857D01*
X128178571Y-127214286D01*
X127607143Y-127214286D01*
X129035714Y-127500000D02*
X129750000Y-127500000D01*
X128892857Y-127928571D02*
X129392857Y-126428571D01*
X129892857Y-127928571D01*
X130321428Y-127857143D02*
X130535714Y-127928571D01*
X130892857Y-127928571D01*
X131035714Y-127857143D01*
X131107143Y-127785714D01*
X131178571Y-127642857D01*
X131178571Y-127500000D01*
X131107143Y-127357143D01*
X131035714Y-127285714D01*
X130892857Y-127214286D01*
X130607143Y-127142857D01*
X130464285Y-127071429D01*
X130392857Y-127000000D01*
X130321428Y-126857143D01*
X130321428Y-126714286D01*
X130392857Y-126571429D01*
X130464285Y-126500000D01*
X130607143Y-126428571D01*
X130964285Y-126428571D01*
X131178571Y-126500000D01*
X131749999Y-127857143D02*
X131964285Y-127928571D01*
X132321428Y-127928571D01*
X132464285Y-127857143D01*
X132535714Y-127785714D01*
X132607142Y-127642857D01*
X132607142Y-127500000D01*
X132535714Y-127357143D01*
X132464285Y-127285714D01*
X132321428Y-127214286D01*
X132035714Y-127142857D01*
X131892856Y-127071429D01*
X131821428Y-127000000D01*
X131749999Y-126857143D01*
X131749999Y-126714286D01*
X131821428Y-126571429D01*
X131892856Y-126500000D01*
X132035714Y-126428571D01*
X132392856Y-126428571D01*
X132607142Y-126500000D01*
X120214287Y-100928571D02*
X119500001Y-100928571D01*
X119428572Y-101642857D01*
X119500001Y-101571429D01*
X119642858Y-101500000D01*
X120000001Y-101500000D01*
X120142858Y-101571429D01*
X120214287Y-101642857D01*
X120285715Y-101785714D01*
X120285715Y-102142857D01*
X120214287Y-102285714D01*
X120142858Y-102357143D01*
X120000001Y-102428571D01*
X119642858Y-102428571D01*
X119500001Y-102357143D01*
X119428572Y-102285714D01*
X120714286Y-100928571D02*
X121214286Y-102428571D01*
X121714286Y-100928571D01*
X121695715Y-105668571D02*
X122624286Y-105668571D01*
X122124286Y-106240000D01*
X122338572Y-106240000D01*
X122481429Y-106311429D01*
X122552858Y-106382857D01*
X122624286Y-106525714D01*
X122624286Y-106882857D01*
X122552858Y-107025714D01*
X122481429Y-107097143D01*
X122338572Y-107168571D01*
X121910000Y-107168571D01*
X121767143Y-107097143D01*
X121695715Y-107025714D01*
X123267143Y-107025714D02*
X123338571Y-107097143D01*
X123267143Y-107168571D01*
X123195714Y-107097143D01*
X123267143Y-107025714D01*
X123267143Y-107168571D01*
X123838572Y-105668571D02*
X124767143Y-105668571D01*
X124267143Y-106240000D01*
X124481429Y-106240000D01*
X124624286Y-106311429D01*
X124695715Y-106382857D01*
X124767143Y-106525714D01*
X124767143Y-106882857D01*
X124695715Y-107025714D01*
X124624286Y-107097143D01*
X124481429Y-107168571D01*
X124052857Y-107168571D01*
X123910000Y-107097143D01*
X123838572Y-107025714D01*
X125195714Y-105668571D02*
X125695714Y-107168571D01*
X126195714Y-105668571D01*
X121607143Y-110500000D02*
X121464286Y-110428571D01*
X121250000Y-110428571D01*
X121035715Y-110500000D01*
X120892857Y-110642857D01*
X120821429Y-110785714D01*
X120750000Y-111071429D01*
X120750000Y-111285714D01*
X120821429Y-111571429D01*
X120892857Y-111714286D01*
X121035715Y-111857143D01*
X121250000Y-111928571D01*
X121392857Y-111928571D01*
X121607143Y-111857143D01*
X121678572Y-111785714D01*
X121678572Y-111285714D01*
X121392857Y-111285714D01*
X122321429Y-111928571D02*
X122321429Y-110428571D01*
X123178572Y-111928571D01*
X123178572Y-110428571D01*
X123892858Y-111928571D02*
X123892858Y-110428571D01*
X124250001Y-110428571D01*
X124464286Y-110500000D01*
X124607144Y-110642857D01*
X124678572Y-110785714D01*
X124750001Y-111071429D01*
X124750001Y-111285714D01*
X124678572Y-111571429D01*
X124607144Y-111714286D01*
X124464286Y-111857143D01*
X124250001Y-111928571D01*
X123892858Y-111928571D01*
X118807143Y-122178571D02*
X118307143Y-121464286D01*
X117950000Y-122178571D02*
X117950000Y-120678571D01*
X118521428Y-120678571D01*
X118664286Y-120750000D01*
X118735714Y-120821429D01*
X118807143Y-120964286D01*
X118807143Y-121178571D01*
X118735714Y-121321429D01*
X118664286Y-121392857D01*
X118521428Y-121464286D01*
X117950000Y-121464286D01*
X120092857Y-121178571D02*
X120092857Y-122178571D01*
X119450000Y-121178571D02*
X119450000Y-121964286D01*
X119521428Y-122107143D01*
X119664286Y-122178571D01*
X119878571Y-122178571D01*
X120021428Y-122107143D01*
X120092857Y-122035714D01*
X120807143Y-121178571D02*
X120807143Y-122178571D01*
X120807143Y-121321429D02*
X120878571Y-121250000D01*
X121021429Y-121178571D01*
X121235714Y-121178571D01*
X121378571Y-121250000D01*
X121450000Y-121392857D01*
X121450000Y-122178571D01*
X118457143Y-116192857D02*
X117957143Y-116192857D01*
X117957143Y-116978571D02*
X117957143Y-115478571D01*
X118671429Y-115478571D01*
X119457143Y-116978571D02*
X119314285Y-116907143D01*
X119242857Y-116764286D01*
X119242857Y-115478571D01*
X120671428Y-116978571D02*
X120671428Y-116192857D01*
X120599999Y-116050000D01*
X120457142Y-115978571D01*
X120171428Y-115978571D01*
X120028571Y-116050000D01*
X120671428Y-116907143D02*
X120528571Y-116978571D01*
X120171428Y-116978571D01*
X120028571Y-116907143D01*
X119957142Y-116764286D01*
X119957142Y-116621429D01*
X120028571Y-116478571D01*
X120171428Y-116407143D01*
X120528571Y-116407143D01*
X120671428Y-116335714D01*
X121314285Y-116907143D02*
X121457142Y-116978571D01*
X121742857Y-116978571D01*
X121885714Y-116907143D01*
X121957142Y-116764286D01*
X121957142Y-116692857D01*
X121885714Y-116550000D01*
X121742857Y-116478571D01*
X121528571Y-116478571D01*
X121385714Y-116407143D01*
X121314285Y-116264286D01*
X121314285Y-116192857D01*
X121385714Y-116050000D01*
X121528571Y-115978571D01*
X121742857Y-115978571D01*
X121885714Y-116050000D01*
X122600000Y-116978571D02*
X122600000Y-115478571D01*
X123242857Y-116978571D02*
X123242857Y-116192857D01*
X123171428Y-116050000D01*
X123028571Y-115978571D01*
X122814286Y-115978571D01*
X122671428Y-116050000D01*
X122600000Y-116121429D01*
D12*
X196500000Y-92750000D02*
G75*
G03X193750000Y-90000000I-2750000J0D01*
G01*
X196500000Y-92750000D02*
X196500000Y-123250000D01*
X193750000Y-126000000D02*
G75*
G03X196500000Y-123250000I0J2750000D01*
G01*
X163350000Y-90000000D02*
X193750000Y-90000000D01*
X163250000Y-90000000D02*
G75*
G03X160500000Y-92750000I0J-2750000D01*
G01*
X163250000Y-126000000D02*
X193750000Y-126000000D01*
X160500000Y-92750000D02*
X160500000Y-123250000D01*
X160500000Y-123250000D02*
G75*
G03X163250000Y-126000000I2750000J0D01*
G01*
X130000000Y-123250000D02*
G75*
G03X132750000Y-126000000I2750000J0D01*
G01*
X163250000Y-126000000D02*
G75*
G03X166000000Y-123250000I0J2750000D01*
G01*
X166000000Y-92750000D02*
G75*
G03X163250000Y-90000000I-2750000J0D01*
G01*
X132750000Y-90000000D02*
G75*
G03X130000000Y-92750000I0J-2750000D01*
G01*
X119350000Y-126000000D02*
X163250000Y-126000000D01*
X130000000Y-92750000D02*
X130000000Y-123250000D01*
X166000000Y-92750000D02*
X166000000Y-123250000D01*
X119350000Y-90000000D02*
X163250000Y-90000000D01*
D10*
G36*
X185083691Y-129030592D02*
X185083691Y-127517505D01*
X185440564Y-127333111D01*
X185429397Y-127339473D01*
X185418906Y-127346274D01*
X185409092Y-127353514D01*
X185399955Y-127361193D01*
X185391494Y-127369311D01*
X185383711Y-127377867D01*
X185376604Y-127386862D01*
X185370174Y-127396296D01*
X185364421Y-127406169D01*
X185359345Y-127416481D01*
X185354945Y-127427231D01*
X185351223Y-127438420D01*
X185348177Y-127450048D01*
X185345808Y-127462115D01*
X185344116Y-127474621D01*
X185343101Y-127487565D01*
X185342762Y-127500948D01*
X185342762Y-128228554D01*
X185342762Y-128228536D01*
X185359014Y-128234639D01*
X185375308Y-128240394D01*
X185391645Y-128245800D01*
X185408024Y-128250857D01*
X185424445Y-128255565D01*
X185440909Y-128259925D01*
X185457416Y-128263936D01*
X185473965Y-128267598D01*
X185490557Y-128270911D01*
X185507191Y-128273876D01*
X185523868Y-128276492D01*
X185540588Y-128278759D01*
X185557349Y-128280677D01*
X185574154Y-128282246D01*
X185591001Y-128283467D01*
X185607890Y-128284339D01*
X185624822Y-128284862D01*
X185641797Y-128285037D01*
X185660766Y-128284832D01*
X185679089Y-128284219D01*
X185696765Y-128283197D01*
X185713795Y-128281766D01*
X185730178Y-128279926D01*
X185745915Y-128277678D01*
X185761006Y-128275021D01*
X185775449Y-128271954D01*
X185789247Y-128268479D01*
X185804707Y-128263867D01*
X185820080Y-128258309D01*
X185835368Y-128251805D01*
X185850570Y-128244354D01*
X185865685Y-128235958D01*
X185880714Y-128226615D01*
X185895657Y-128216327D01*
X185910514Y-128205092D01*
X185921049Y-128196138D01*
X185931105Y-128186319D01*
X185940683Y-128175635D01*
X185949783Y-128164085D01*
X185958404Y-128151671D01*
X185966547Y-128138391D01*
X185974211Y-128124246D01*
X185981398Y-128109236D01*
X185988106Y-128093360D01*
X185994335Y-128076620D01*
X186000087Y-128059014D01*
X186004172Y-128045368D01*
X186007975Y-128031256D01*
X186011497Y-128016679D01*
X186014737Y-128001636D01*
X186017695Y-127986128D01*
X186020371Y-127970154D01*
X186022766Y-127953715D01*
X186024879Y-127936811D01*
X186026710Y-127919441D01*
X186028260Y-127901605D01*
X186029528Y-127883304D01*
X186030514Y-127864538D01*
X186031218Y-127845307D01*
X186031641Y-127825609D01*
X186031782Y-127805447D01*
X186031658Y-127785171D01*
X186031286Y-127765337D01*
X186030667Y-127745943D01*
X186029801Y-127726991D01*
X186028686Y-127708481D01*
X186027324Y-127690411D01*
X186025715Y-127672783D01*
X186023858Y-127655596D01*
X186021753Y-127638851D01*
X186019401Y-127622546D01*
X186016801Y-127606683D01*
X186013953Y-127591261D01*
X186010858Y-127576281D01*
X186007515Y-127561742D01*
X186003925Y-127547644D01*
X186000087Y-127533987D01*
X185994347Y-127514680D01*
X185988151Y-127496353D01*
X185981500Y-127479007D01*
X185974394Y-127462640D01*
X185966832Y-127447253D01*
X185958814Y-127432846D01*
X185950341Y-127419419D01*
X185941412Y-127406972D01*
X185932028Y-127395504D01*
X185922188Y-127385017D01*
X185911892Y-127375510D01*
X185897444Y-127363601D01*
X185883040Y-127352684D01*
X185868678Y-127342757D01*
X185854359Y-127333821D01*
X185840084Y-127325875D01*
X185825851Y-127318920D01*
X185811661Y-127312956D01*
X185797515Y-127307983D01*
X185783132Y-127303794D01*
X185768232Y-127300163D01*
X185752815Y-127297091D01*
X185736881Y-127294578D01*
X185720431Y-127292623D01*
X185703464Y-127291226D01*
X185685980Y-127290388D01*
X185667979Y-127290109D01*
X185647336Y-127290329D01*
X185627370Y-127290987D01*
X185608080Y-127292084D01*
X185589467Y-127293619D01*
X185571531Y-127295594D01*
X185554272Y-127298007D01*
X185537690Y-127300859D01*
X185521784Y-127304150D01*
X185506555Y-127307880D01*
X185492004Y-127312049D01*
X185478129Y-127316656D01*
X185464930Y-127321702D01*
X185452409Y-127327187D01*
X185440564Y-127333111D01*
X185083691Y-127517505D01*
X185083921Y-127502385D01*
X185084610Y-127487341D01*
X185085758Y-127472373D01*
X185087366Y-127457482D01*
X185089433Y-127442666D01*
X185091960Y-127427928D01*
X185094828Y-127414457D01*
X185098709Y-127400029D01*
X185103602Y-127384646D01*
X185109508Y-127368307D01*
X185116427Y-127351012D01*
X185124357Y-127332760D01*
X185133301Y-127313552D01*
X185141246Y-127298445D01*
X185149769Y-127283747D01*
X185158871Y-127269457D01*
X185168551Y-127255575D01*
X185178810Y-127242101D01*
X185189647Y-127229036D01*
X185201063Y-127216379D01*
X185213057Y-127204131D01*
X185225629Y-127192291D01*
X185235677Y-127183666D01*
X185246529Y-127175253D01*
X185258185Y-127167050D01*
X185270645Y-127159058D01*
X185283909Y-127151277D01*
X185297976Y-127143706D01*
X185312848Y-127136347D01*
X185328523Y-127129199D01*
X185345002Y-127122261D01*
X185362285Y-127115534D01*
X185380371Y-127109018D01*
X185399262Y-127102714D01*
X185413877Y-127098041D01*
X185428782Y-127093669D01*
X185443978Y-127089599D01*
X185459465Y-127085831D01*
X185475243Y-127082364D01*
X185491311Y-127079198D01*
X185507669Y-127076334D01*
X185524319Y-127073772D01*
X185541259Y-127071511D01*
X185558490Y-127069551D01*
X185576012Y-127067893D01*
X185593824Y-127066536D01*
X185611927Y-127065481D01*
X185630320Y-127064727D01*
X185649005Y-127064275D01*
X185667979Y-127064124D01*
X185685384Y-127064294D01*
X185702686Y-127064803D01*
X185719886Y-127065650D01*
X185736983Y-127066837D01*
X185753979Y-127068364D01*
X185770873Y-127070229D01*
X185787665Y-127072433D01*
X185804354Y-127074977D01*
X185820942Y-127077859D01*
X185834825Y-127080642D01*
X185848912Y-127083996D01*
X185863205Y-127087920D01*
X185877703Y-127092416D01*
X185892406Y-127097483D01*
X185907314Y-127103120D01*
X185922427Y-127109329D01*
X185937745Y-127116108D01*
X185953268Y-127123459D01*
X185968995Y-127131380D01*
X185984928Y-127139873D01*
X185999685Y-127148114D01*
X186014097Y-127156757D01*
X186028164Y-127165801D01*
X186041887Y-127175247D01*
X186055266Y-127185094D01*
X186068300Y-127195344D01*
X186080989Y-127205994D01*
X186093334Y-127217047D01*
X186105334Y-127228501D01*
X186116990Y-127240357D01*
X186128302Y-127252614D01*
X186139269Y-127265274D01*
X186147806Y-127275846D01*
X186156148Y-127286981D01*
X186164294Y-127298680D01*
X186172243Y-127310943D01*
X186179997Y-127323769D01*
X186187555Y-127337158D01*
X186194917Y-127351111D01*
X186202083Y-127365627D01*
X186209052Y-127380707D01*
X186215826Y-127396350D01*
X186222404Y-127412557D01*
X186228786Y-127429327D01*
X186234972Y-127446660D01*
X186240962Y-127464557D01*
X186246755Y-127483017D01*
X186251275Y-127497789D01*
X186255550Y-127512806D01*
X186259582Y-127528066D01*
X186263368Y-127543571D01*
X186266911Y-127559321D01*
X186270209Y-127575314D01*
X186273263Y-127591552D01*
X186276072Y-127608035D01*
X186278637Y-127624761D01*
X186280958Y-127641732D01*
X186283035Y-127658947D01*
X186284867Y-127676407D01*
X186286455Y-127694111D01*
X186287799Y-127712059D01*
X186288898Y-127730252D01*
X186289753Y-127748689D01*
X186290364Y-127767370D01*
X186290731Y-127786296D01*
X186290853Y-127805466D01*
X186290721Y-127825277D01*
X186290328Y-127844814D01*
X186289672Y-127864075D01*
X186288753Y-127883062D01*
X186287572Y-127901773D01*
X186286128Y-127920210D01*
X186284422Y-127938371D01*
X186282453Y-127956258D01*
X186280222Y-127973869D01*
X186277729Y-127991206D01*
X186274972Y-128008267D01*
X186271954Y-128025054D01*
X186268673Y-128041565D01*
X186265129Y-128057802D01*
X186261323Y-128073763D01*
X186257255Y-128089449D01*
X186252924Y-128104861D01*
X186248330Y-128119997D01*
X186243474Y-128134859D01*
X186238356Y-128149445D01*
X186232975Y-128163756D01*
X186225740Y-128181892D01*
X186218161Y-128199435D01*
X186210237Y-128216386D01*
X186201969Y-128232745D01*
X186193357Y-128248513D01*
X186184399Y-128263688D01*
X186175098Y-128278271D01*
X186165451Y-128292261D01*
X186155460Y-128305660D01*
X186145125Y-128318467D01*
X186134445Y-128330682D01*
X186123421Y-128342304D01*
X186112052Y-128353335D01*
X186100339Y-128363773D01*
X186088281Y-128373619D01*
X186075879Y-128382874D01*
X186061487Y-128392905D01*
X186047052Y-128402529D01*
X186032576Y-128411745D01*
X186018057Y-128420554D01*
X186003497Y-128428955D01*
X185988894Y-128436948D01*
X185974248Y-128444534D01*
X185959561Y-128451713D01*
X185944832Y-128458483D01*
X185930060Y-128464847D01*
X185915246Y-128470802D01*
X185900390Y-128476350D01*
X185885492Y-128481491D01*
X185870551Y-128486223D01*
X185855674Y-128490399D01*
X185840572Y-128494265D01*
X185825245Y-128497822D01*
X185809692Y-128501069D01*
X185793915Y-128504008D01*
X185777913Y-128506637D01*
X185761686Y-128508956D01*
X185745234Y-128510967D01*
X185728557Y-128512668D01*
X185711655Y-128514060D01*
X185694528Y-128515142D01*
X185677176Y-128515915D01*
X185659599Y-128516379D01*
X185641797Y-128516534D01*
X185624533Y-128516406D01*
X185607346Y-128516024D01*
X185590235Y-128515386D01*
X185573201Y-128514493D01*
X185556244Y-128513344D01*
X185539363Y-128511941D01*
X185522558Y-128510283D01*
X185505830Y-128508369D01*
X185489179Y-128506200D01*
X185472604Y-128503776D01*
X185456106Y-128501097D01*
X185439684Y-128498162D01*
X185423339Y-128494973D01*
X185407071Y-128491528D01*
X185390879Y-128487828D01*
X185374764Y-128483873D01*
X185358725Y-128479663D01*
X185342762Y-128475198D01*
X185342762Y-129030555D01*
X185083691Y-129030555D01*
X185083691Y-129030592D01*
X185083691Y-129030592D01*
G37*
G36*
X186642253Y-128156908D02*
X186873763Y-127531277D01*
X186870092Y-127544245D01*
X186866657Y-127557654D01*
X186863460Y-127571505D01*
X186860499Y-127585797D01*
X186857776Y-127600530D01*
X186855289Y-127615705D01*
X186853039Y-127631321D01*
X186851025Y-127647379D01*
X186849249Y-127663878D01*
X186847709Y-127680818D01*
X186846407Y-127698200D01*
X186845341Y-127716024D01*
X186844512Y-127734288D01*
X186843920Y-127752994D01*
X186843565Y-127772142D01*
X186843446Y-127791731D01*
X186843565Y-127811325D01*
X186843920Y-127830489D01*
X186844512Y-127849222D01*
X186845341Y-127867524D01*
X186846407Y-127885396D01*
X186847709Y-127902836D01*
X186849249Y-127919847D01*
X186851025Y-127936426D01*
X186853039Y-127952575D01*
X186855289Y-127968293D01*
X186857776Y-127983581D01*
X186860499Y-127998437D01*
X186863460Y-128012864D01*
X186866657Y-128026859D01*
X186870092Y-128040424D01*
X186873763Y-128053558D01*
X186879776Y-128071666D01*
X186886291Y-128088909D01*
X186893306Y-128105287D01*
X186900823Y-128120799D01*
X186908840Y-128135445D01*
X186917359Y-128149226D01*
X186926379Y-128162142D01*
X186935900Y-128174192D01*
X186945922Y-128185376D01*
X186956445Y-128195695D01*
X186967470Y-128205149D01*
X186981267Y-128215762D01*
X186995098Y-128225559D01*
X187008964Y-128234540D01*
X187022863Y-128242704D01*
X187036797Y-128250052D01*
X187050764Y-128256584D01*
X187064766Y-128262300D01*
X187078802Y-128267200D01*
X187092871Y-128271283D01*
X187107281Y-128274758D01*
X187122337Y-128277824D01*
X187138040Y-128280481D01*
X187154389Y-128282730D01*
X187171385Y-128284569D01*
X187189028Y-128286000D01*
X187207316Y-128287022D01*
X187226252Y-128287636D01*
X187245833Y-128287840D01*
X187265704Y-128287636D01*
X187284895Y-128287022D01*
X187303405Y-128286000D01*
X187321234Y-128284569D01*
X187338383Y-128282730D01*
X187354851Y-128280481D01*
X187370639Y-128277824D01*
X187385747Y-128274758D01*
X187400174Y-128271283D01*
X187414243Y-128267196D01*
X187428279Y-128262294D01*
X187442280Y-128256576D01*
X187456248Y-128250043D01*
X187470181Y-128242695D01*
X187484081Y-128234531D01*
X187497946Y-128225552D01*
X187511778Y-128215758D01*
X187525575Y-128205149D01*
X187536588Y-128195695D01*
X187547077Y-128185376D01*
X187557042Y-128174192D01*
X187566483Y-128162142D01*
X187575401Y-128149226D01*
X187583794Y-128135445D01*
X187591664Y-128120799D01*
X187599010Y-128105287D01*
X187605832Y-128088909D01*
X187612130Y-128071666D01*
X187617904Y-128053558D01*
X187621742Y-128040424D01*
X187625332Y-128026859D01*
X187628675Y-128012864D01*
X187631770Y-127998437D01*
X187634618Y-127983581D01*
X187637218Y-127968293D01*
X187639570Y-127952575D01*
X187641675Y-127936426D01*
X187643532Y-127919847D01*
X187645141Y-127902836D01*
X187646503Y-127885396D01*
X187647618Y-127867524D01*
X187648484Y-127849222D01*
X187649103Y-127830489D01*
X187649475Y-127811325D01*
X187649598Y-127791731D01*
X187649475Y-127772142D01*
X187649103Y-127752994D01*
X187648484Y-127734288D01*
X187647618Y-127716024D01*
X187646503Y-127698200D01*
X187645141Y-127680818D01*
X187643532Y-127663878D01*
X187641675Y-127647379D01*
X187639570Y-127631321D01*
X187637218Y-127615705D01*
X187634618Y-127600530D01*
X187631770Y-127585797D01*
X187628675Y-127571505D01*
X187625332Y-127557654D01*
X187621742Y-127544245D01*
X187617904Y-127531277D01*
X187612130Y-127512931D01*
X187605832Y-127495472D01*
X187599010Y-127478902D01*
X187591664Y-127463219D01*
X187583794Y-127448425D01*
X187575401Y-127434520D01*
X187566483Y-127421502D01*
X187557042Y-127409372D01*
X187547077Y-127398131D01*
X187536588Y-127387778D01*
X187525575Y-127378313D01*
X187511778Y-127367700D01*
X187497946Y-127357903D01*
X187484081Y-127348922D01*
X187470181Y-127340758D01*
X187456248Y-127333409D01*
X187442280Y-127326877D01*
X187428279Y-127321162D01*
X187414243Y-127316262D01*
X187400174Y-127312179D01*
X187385747Y-127308704D01*
X187370639Y-127305638D01*
X187354851Y-127302981D01*
X187338383Y-127300732D01*
X187321234Y-127298892D01*
X187303405Y-127297462D01*
X187284895Y-127296439D01*
X187265704Y-127295826D01*
X187245833Y-127295622D01*
X187226252Y-127295826D01*
X187207316Y-127296439D01*
X187189028Y-127297462D01*
X187171385Y-127298892D01*
X187154389Y-127300732D01*
X187138040Y-127302981D01*
X187122337Y-127305638D01*
X187107281Y-127308704D01*
X187092871Y-127312179D01*
X187078802Y-127316266D01*
X187064766Y-127321168D01*
X187050764Y-127326886D01*
X187036797Y-127333419D01*
X187022863Y-127340767D01*
X187008964Y-127348931D01*
X186995098Y-127357909D01*
X186981267Y-127367704D01*
X186967470Y-127378313D01*
X186956445Y-127387778D01*
X186945922Y-127398131D01*
X186935900Y-127409372D01*
X186926379Y-127421502D01*
X186917359Y-127434520D01*
X186908840Y-127448425D01*
X186900823Y-127463219D01*
X186893306Y-127478902D01*
X186886291Y-127495472D01*
X186879776Y-127512931D01*
X186873763Y-127531277D01*
X186642253Y-128156908D01*
X186636988Y-128143119D01*
X186631969Y-128129063D01*
X186627194Y-128114740D01*
X186622664Y-128100148D01*
X186618379Y-128085289D01*
X186614339Y-128070163D01*
X186610543Y-128054768D01*
X186606993Y-128039106D01*
X186603687Y-128023177D01*
X186600627Y-128006979D01*
X186597811Y-127990514D01*
X186595240Y-127973781D01*
X186592914Y-127956781D01*
X186590832Y-127939513D01*
X186588996Y-127921977D01*
X186587404Y-127904173D01*
X186586058Y-127886102D01*
X186584956Y-127867763D01*
X186584099Y-127849157D01*
X186583487Y-127830282D01*
X186583119Y-127811141D01*
X186582997Y-127791731D01*
X186583119Y-127772324D01*
X186583487Y-127753191D01*
X186584099Y-127734331D01*
X186584956Y-127715744D01*
X186586058Y-127697431D01*
X186587404Y-127679391D01*
X186588996Y-127661624D01*
X186590832Y-127644131D01*
X186592914Y-127626911D01*
X186595240Y-127609964D01*
X186597811Y-127593291D01*
X186600627Y-127576891D01*
X186603687Y-127560765D01*
X186606993Y-127544912D01*
X186610543Y-127529332D01*
X186614339Y-127514025D01*
X186618379Y-127498992D01*
X186622664Y-127484233D01*
X186627194Y-127469746D01*
X186631969Y-127455533D01*
X186636988Y-127441594D01*
X186642253Y-127427928D01*
X186649372Y-127410519D01*
X186656786Y-127393635D01*
X186664497Y-127377276D01*
X186672503Y-127361441D01*
X186680804Y-127346130D01*
X186689401Y-127331343D01*
X186698294Y-127317081D01*
X186707483Y-127303343D01*
X186716967Y-127290130D01*
X186726747Y-127277440D01*
X186736822Y-127265276D01*
X186747193Y-127253635D01*
X186757860Y-127242519D01*
X186768822Y-127231927D01*
X186780080Y-127221860D01*
X186791634Y-127212316D01*
X186803483Y-127203298D01*
X186818072Y-127192892D01*
X186832703Y-127182937D01*
X186847376Y-127173432D01*
X186862092Y-127164376D01*
X186876850Y-127155771D01*
X186891649Y-127147616D01*
X186906491Y-127139910D01*
X186921376Y-127132655D01*
X186936302Y-127125850D01*
X186951271Y-127119495D01*
X186966281Y-127113590D01*
X186981334Y-127108135D01*
X186996430Y-127103129D01*
X187011567Y-127098574D01*
X187027021Y-127094210D01*
X187042671Y-127090168D01*
X187058519Y-127086450D01*
X187074563Y-127083056D01*
X187090804Y-127079984D01*
X187107242Y-127077236D01*
X187123877Y-127074811D01*
X187140709Y-127072710D01*
X187157737Y-127070932D01*
X187174963Y-127069477D01*
X187192385Y-127068345D01*
X187210004Y-127067537D01*
X187227820Y-127067052D01*
X187245833Y-127066890D01*
X187264029Y-127067052D01*
X187282000Y-127067537D01*
X187299746Y-127068345D01*
X187317266Y-127069477D01*
X187334562Y-127070932D01*
X187351633Y-127072710D01*
X187368479Y-127074811D01*
X187385100Y-127077236D01*
X187401495Y-127079984D01*
X187417666Y-127083056D01*
X187433612Y-127086450D01*
X187449333Y-127090168D01*
X187464829Y-127094210D01*
X187480100Y-127098574D01*
X187495427Y-127103129D01*
X187510698Y-127108135D01*
X187525913Y-127113590D01*
X187541071Y-127119495D01*
X187556173Y-127125850D01*
X187571219Y-127132655D01*
X187586209Y-127139910D01*
X187601142Y-127147616D01*
X187616019Y-127155771D01*
X187630840Y-127164376D01*
X187645605Y-127173432D01*
X187660313Y-127182937D01*
X187674966Y-127192892D01*
X187689562Y-127203298D01*
X187701411Y-127212316D01*
X187712964Y-127221860D01*
X187724222Y-127231927D01*
X187735185Y-127242519D01*
X187745851Y-127253635D01*
X187756222Y-127265276D01*
X187766298Y-127277440D01*
X187776078Y-127290130D01*
X187785562Y-127303343D01*
X187794750Y-127317081D01*
X187803643Y-127331343D01*
X187812240Y-127346130D01*
X187820542Y-127361441D01*
X187828548Y-127377276D01*
X187836258Y-127393635D01*
X187843673Y-127410519D01*
X187850792Y-127427928D01*
X187856057Y-127441594D01*
X187861076Y-127455533D01*
X187865851Y-127469746D01*
X187870381Y-127484233D01*
X187874666Y-127498992D01*
X187878706Y-127514025D01*
X187882501Y-127529332D01*
X187886052Y-127544912D01*
X187889357Y-127560765D01*
X187892418Y-127576891D01*
X187895234Y-127593291D01*
X187897805Y-127609964D01*
X187900131Y-127626911D01*
X187902212Y-127644131D01*
X187904049Y-127661624D01*
X187905640Y-127679391D01*
X187906987Y-127697431D01*
X187908089Y-127715744D01*
X187908946Y-127734331D01*
X187909558Y-127753191D01*
X187909925Y-127772324D01*
X187910048Y-127791731D01*
X187909925Y-127811141D01*
X187909558Y-127830282D01*
X187908946Y-127849157D01*
X187908089Y-127867763D01*
X187906987Y-127886102D01*
X187905640Y-127904173D01*
X187904049Y-127921977D01*
X187902212Y-127939513D01*
X187900131Y-127956781D01*
X187897805Y-127973781D01*
X187895234Y-127990514D01*
X187892418Y-128006979D01*
X187889357Y-128023177D01*
X187886052Y-128039106D01*
X187882501Y-128054768D01*
X187878706Y-128070163D01*
X187874666Y-128085289D01*
X187870381Y-128100148D01*
X187865851Y-128114740D01*
X187861076Y-128129063D01*
X187856057Y-128143119D01*
X187850792Y-128156908D01*
X187843673Y-128174159D01*
X187836258Y-128190895D01*
X187828548Y-128207117D01*
X187820542Y-128222823D01*
X187812240Y-128238015D01*
X187803643Y-128252691D01*
X187794750Y-128266853D01*
X187785562Y-128280499D01*
X187776078Y-128293631D01*
X187766298Y-128306248D01*
X187756222Y-128318349D01*
X187745851Y-128329936D01*
X187735185Y-128341008D01*
X187724222Y-128351565D01*
X187712964Y-128361607D01*
X187701411Y-128371133D01*
X187689562Y-128380145D01*
X187674966Y-128390558D01*
X187660313Y-128400535D01*
X187645605Y-128410075D01*
X187630840Y-128419180D01*
X187616019Y-128427850D01*
X187601142Y-128436083D01*
X187586209Y-128443881D01*
X187571219Y-128451242D01*
X187556173Y-128458168D01*
X187541071Y-128464658D01*
X187525913Y-128470713D01*
X187510698Y-128476331D01*
X187495427Y-128481514D01*
X187480100Y-128486261D01*
X187464829Y-128490436D01*
X187449333Y-128494303D01*
X187433612Y-128497859D01*
X187417666Y-128501107D01*
X187401495Y-128504045D01*
X187385100Y-128506674D01*
X187368479Y-128508994D01*
X187351633Y-128511004D01*
X187334562Y-128512705D01*
X187317266Y-128514097D01*
X187299746Y-128515180D01*
X187282000Y-128515953D01*
X187264029Y-128516417D01*
X187245833Y-128516572D01*
X187227820Y-128516417D01*
X187210004Y-128515953D01*
X187192385Y-128515180D01*
X187174963Y-128514097D01*
X187157737Y-128512705D01*
X187140709Y-128511004D01*
X187123877Y-128508994D01*
X187107242Y-128506674D01*
X187090804Y-128504045D01*
X187074563Y-128501107D01*
X187058519Y-128497859D01*
X187042671Y-128494303D01*
X187027021Y-128490436D01*
X187011567Y-128486261D01*
X186996430Y-128481514D01*
X186981334Y-128476331D01*
X186966281Y-128470713D01*
X186951271Y-128464658D01*
X186936302Y-128458168D01*
X186921376Y-128451242D01*
X186906491Y-128443881D01*
X186891649Y-128436083D01*
X186876850Y-128427850D01*
X186862092Y-128419180D01*
X186847376Y-128410075D01*
X186832703Y-128400535D01*
X186818072Y-128390558D01*
X186803483Y-128380145D01*
X186791634Y-128371133D01*
X186780080Y-128361607D01*
X186768822Y-128351565D01*
X186757860Y-128341008D01*
X186747193Y-128329936D01*
X186736822Y-128318349D01*
X186726747Y-128306248D01*
X186716967Y-128293631D01*
X186707483Y-128280499D01*
X186698294Y-128266853D01*
X186689401Y-128252691D01*
X186680804Y-128238015D01*
X186672503Y-128222823D01*
X186664497Y-128207117D01*
X186656786Y-128190895D01*
X186649372Y-128174159D01*
X186642253Y-128156908D01*
X186642253Y-128156908D01*
G37*
G36*
X188284874Y-128494521D02*
X188284874Y-126550122D01*
X188543945Y-126550122D01*
X188543945Y-128494521D01*
X188284874Y-128494521D01*
X188284874Y-128494521D01*
G37*
G36*
X188852626Y-127086175D02*
X189129612Y-127086175D01*
X189508572Y-128141743D01*
X189880642Y-127086175D01*
X190157628Y-127086175D01*
X189578852Y-128644738D01*
X189571444Y-128664260D01*
X189563873Y-128683300D01*
X189556140Y-128701858D01*
X189548245Y-128719934D01*
X189540187Y-128737527D01*
X189531968Y-128754639D01*
X189523585Y-128771269D01*
X189515041Y-128787417D01*
X189506334Y-128803082D01*
X189497465Y-128818266D01*
X189488433Y-128832968D01*
X189479240Y-128847187D01*
X189469884Y-128860925D01*
X189460365Y-128874181D01*
X189450685Y-128886954D01*
X189440842Y-128899246D01*
X189430836Y-128911055D01*
X189420669Y-128922383D01*
X189410339Y-128933228D01*
X189399846Y-128943592D01*
X189389192Y-128953473D01*
X189378375Y-128962873D01*
X189367396Y-128971790D01*
X189356254Y-128980225D01*
X189344950Y-128988179D01*
X189333484Y-128995650D01*
X189321856Y-129002639D01*
X189310065Y-129009147D01*
X189298112Y-129015172D01*
X189285996Y-129020715D01*
X189273719Y-129025776D01*
X189261279Y-129030356D01*
X189248676Y-129034453D01*
X189235911Y-129038068D01*
X189222984Y-129041201D01*
X189209895Y-129043852D01*
X189196644Y-129046021D01*
X189183230Y-129047708D01*
X189169653Y-129048913D01*
X189155915Y-129049637D01*
X189142014Y-129049878D01*
X189140640Y-129049878D01*
X189124956Y-129049724D01*
X189109137Y-129049265D01*
X189093184Y-129048499D01*
X189077098Y-129047427D01*
X189060877Y-129046049D01*
X189044522Y-129044365D01*
X189028034Y-129042374D01*
X189011411Y-129040077D01*
X188994654Y-129037474D01*
X188977764Y-129034564D01*
X188960739Y-129031349D01*
X188943581Y-129027827D01*
X188943581Y-128796310D01*
X188960296Y-128800514D01*
X188976819Y-128804304D01*
X188993149Y-128807682D01*
X189009286Y-128810646D01*
X189025230Y-128813197D01*
X189040981Y-128815334D01*
X189056539Y-128817059D01*
X189071904Y-128818370D01*
X189087076Y-128819268D01*
X189102055Y-128819754D01*
X189113648Y-128819392D01*
X189125090Y-128818308D01*
X189136382Y-128816501D01*
X189147524Y-128813972D01*
X189158517Y-128810719D01*
X189169359Y-128806744D01*
X189180051Y-128802046D01*
X189190593Y-128796626D01*
X189200985Y-128790483D01*
X189211227Y-128783617D01*
X189221318Y-128776028D01*
X189231260Y-128767716D01*
X189241052Y-128758682D01*
X189250694Y-128748925D01*
X189260185Y-128738445D01*
X189269527Y-128727243D01*
X189278718Y-128715318D01*
X189287760Y-128702670D01*
X189296651Y-128689299D01*
X189305392Y-128675206D01*
X189313984Y-128660389D01*
X189322425Y-128644851D01*
X189330716Y-128628589D01*
X189338857Y-128611604D01*
X189346848Y-128593897D01*
X189354689Y-128575468D01*
X189362380Y-128556315D01*
X189369921Y-128536440D01*
X189377312Y-128515841D01*
X189384553Y-128494521D01*
X188852630Y-127086175D01*
X188852626Y-127086175D01*
X188852626Y-127086175D01*
G37*
G36*
X190345041Y-127484429D02*
X190345351Y-127467058D01*
X190346282Y-127449949D01*
X190347832Y-127433102D01*
X190350002Y-127416518D01*
X190352793Y-127400195D01*
X190356203Y-127384134D01*
X190360234Y-127368334D01*
X190364885Y-127352797D01*
X190370156Y-127337522D01*
X190376047Y-127322508D01*
X190382558Y-127307757D01*
X190389690Y-127293267D01*
X190397441Y-127279039D01*
X190405813Y-127265073D01*
X190414805Y-127251369D01*
X190424416Y-127237927D01*
X190434648Y-127224747D01*
X190445500Y-127211829D01*
X190456972Y-127199173D01*
X190469065Y-127186778D01*
X190479306Y-127177162D01*
X190489967Y-127167939D01*
X190501046Y-127159107D01*
X190512545Y-127150669D01*
X190524462Y-127142623D01*
X190536798Y-127134969D01*
X190549553Y-127127708D01*
X190562727Y-127120839D01*
X190576320Y-127114363D01*
X190590332Y-127108280D01*
X190604763Y-127102589D01*
X190619613Y-127097290D01*
X190634881Y-127092384D01*
X190650569Y-127087870D01*
X190666675Y-127083749D01*
X190683201Y-127080020D01*
X190700145Y-127076684D01*
X190717508Y-127073740D01*
X190735291Y-127071189D01*
X190753492Y-127069031D01*
X190772112Y-127067264D01*
X190791151Y-127065891D01*
X190810609Y-127064909D01*
X190830486Y-127064321D01*
X190850781Y-127064124D01*
X190867427Y-127064299D01*
X190884052Y-127064822D01*
X190900656Y-127065695D01*
X190917240Y-127066917D01*
X190933802Y-127068488D01*
X190950344Y-127070407D01*
X190966865Y-127072676D01*
X190983365Y-127075294D01*
X190999844Y-127078261D01*
X191016302Y-127081577D01*
X191032740Y-127085242D01*
X191049156Y-127089256D01*
X191065552Y-127093619D01*
X191081927Y-127098331D01*
X191098281Y-127103393D01*
X191114614Y-127108803D01*
X191130927Y-127114562D01*
X191147218Y-127120671D01*
X191163489Y-127127128D01*
X191179739Y-127133935D01*
X191195968Y-127141090D01*
X191212176Y-127148595D01*
X191228364Y-127156449D01*
X191228364Y-127379686D01*
X191210955Y-127371873D01*
X191193641Y-127364440D01*
X191176420Y-127357389D01*
X191159293Y-127350718D01*
X191142260Y-127344429D01*
X191125320Y-127338521D01*
X191108474Y-127332994D01*
X191091722Y-127327849D01*
X191075064Y-127323084D01*
X191058499Y-127318701D01*
X191042029Y-127314699D01*
X191025652Y-127311078D01*
X191009368Y-127307838D01*
X190993179Y-127304979D01*
X190977083Y-127302502D01*
X190961081Y-127300405D01*
X190945172Y-127298690D01*
X190929358Y-127297356D01*
X190913637Y-127296403D01*
X190898010Y-127295831D01*
X190882476Y-127295641D01*
X190862138Y-127295888D01*
X190842568Y-127296631D01*
X190823765Y-127297869D01*
X190805729Y-127299602D01*
X190788461Y-127301831D01*
X190771961Y-127304555D01*
X190756228Y-127307774D01*
X190741262Y-127311488D01*
X190727064Y-127315697D01*
X190713633Y-127320402D01*
X190700970Y-127325602D01*
X190689074Y-127331297D01*
X190677946Y-127337487D01*
X190667585Y-127344173D01*
X190657992Y-127351353D01*
X190649166Y-127359029D01*
X190641108Y-127367201D01*
X190633817Y-127375867D01*
X190627293Y-127385029D01*
X190621537Y-127394686D01*
X190616549Y-127404838D01*
X190612328Y-127415485D01*
X190608874Y-127426628D01*
X190606188Y-127438265D01*
X190604269Y-127450398D01*
X190603118Y-127463027D01*
X190602734Y-127476150D01*
X190603653Y-127489082D01*
X190606409Y-127501537D01*
X190611003Y-127513516D01*
X190617434Y-127525018D01*
X190625702Y-127536044D01*
X190635807Y-127546593D01*
X190647750Y-127556665D01*
X190661531Y-127566260D01*
X190677149Y-127575379D01*
X190690929Y-127582327D01*
X190705210Y-127589138D01*
X190719993Y-127595812D01*
X190735277Y-127602350D01*
X190751061Y-127608750D01*
X190767347Y-127615014D01*
X190784134Y-127621140D01*
X190801422Y-127627130D01*
X190819212Y-127632983D01*
X190837502Y-127638700D01*
X190856293Y-127644279D01*
X190872406Y-127648813D01*
X190888518Y-127653509D01*
X190904631Y-127658369D01*
X190920743Y-127663392D01*
X190936856Y-127668579D01*
X190952968Y-127673928D01*
X190969081Y-127679441D01*
X190985193Y-127685117D01*
X191001305Y-127690956D01*
X191017418Y-127696958D01*
X191033530Y-127703124D01*
X191049643Y-127709453D01*
X191065755Y-127715945D01*
X191080752Y-127722145D01*
X191095425Y-127728936D01*
X191109775Y-127736318D01*
X191123802Y-127744290D01*
X191137505Y-127752853D01*
X191150884Y-127762006D01*
X191163940Y-127771750D01*
X191176673Y-127782084D01*
X191189083Y-127793009D01*
X191201169Y-127804524D01*
X191212931Y-127816630D01*
X191224370Y-127829327D01*
X191235486Y-127842614D01*
X191246278Y-127856491D01*
X191255456Y-127869078D01*
X191264042Y-127882031D01*
X191272036Y-127895349D01*
X191279437Y-127909033D01*
X191286247Y-127923083D01*
X191292464Y-127937499D01*
X191298089Y-127952281D01*
X191303122Y-127967428D01*
X191307563Y-127982942D01*
X191311412Y-127998821D01*
X191314669Y-128015066D01*
X191317333Y-128031677D01*
X191319406Y-128048654D01*
X191320886Y-128065997D01*
X191321774Y-128083706D01*
X191322070Y-128101780D01*
X191321750Y-128118613D01*
X191320789Y-128135212D01*
X191319187Y-128151577D01*
X191316944Y-128167707D01*
X191314061Y-128183603D01*
X191310536Y-128199265D01*
X191306371Y-128214693D01*
X191301565Y-128229887D01*
X191296118Y-128244846D01*
X191290031Y-128259571D01*
X191283303Y-128274061D01*
X191275934Y-128288318D01*
X191267924Y-128302340D01*
X191259273Y-128316128D01*
X191249982Y-128329682D01*
X191240050Y-128343001D01*
X191229477Y-128356086D01*
X191218263Y-128368937D01*
X191206408Y-128381554D01*
X191193913Y-128393937D01*
X191183847Y-128403189D01*
X191173365Y-128412078D01*
X191162467Y-128420604D01*
X191151153Y-128428768D01*
X191139423Y-128436569D01*
X191127278Y-128444007D01*
X191114716Y-128451082D01*
X191101739Y-128457794D01*
X191088346Y-128464143D01*
X191074537Y-128470130D01*
X191060312Y-128475754D01*
X191045672Y-128481015D01*
X191030615Y-128485913D01*
X191015143Y-128490448D01*
X190999255Y-128494621D01*
X190982951Y-128498430D01*
X190966231Y-128501877D01*
X190949095Y-128504961D01*
X190931543Y-128507682D01*
X190913576Y-128510041D01*
X190895192Y-128512036D01*
X190876393Y-128513669D01*
X190857178Y-128514939D01*
X190837547Y-128515846D01*
X190817501Y-128516390D01*
X190797038Y-128516572D01*
X190779031Y-128516415D01*
X190761169Y-128515945D01*
X190743453Y-128515163D01*
X190725883Y-128514067D01*
X190708458Y-128512658D01*
X190691178Y-128510936D01*
X190674044Y-128508901D01*
X190657056Y-128506553D01*
X190640213Y-128503892D01*
X190623515Y-128500918D01*
X190606963Y-128497630D01*
X190590557Y-128494030D01*
X190574296Y-128490116D01*
X190558181Y-128485890D01*
X190542211Y-128481350D01*
X190526387Y-128476498D01*
X190510708Y-128471332D01*
X190495175Y-128465853D01*
X190479787Y-128460061D01*
X190464545Y-128453956D01*
X190449448Y-128447538D01*
X190434497Y-128440807D01*
X190419691Y-128433762D01*
X190405031Y-128426405D01*
X190390517Y-128418735D01*
X190390517Y-128184471D01*
X190405830Y-128192904D01*
X190421226Y-128200979D01*
X190436702Y-128208694D01*
X190452260Y-128216050D01*
X190467900Y-128223048D01*
X190483620Y-128229687D01*
X190499422Y-128235967D01*
X190515306Y-128241888D01*
X190531270Y-128247450D01*
X190547316Y-128252653D01*
X190563444Y-128257498D01*
X190579652Y-128261984D01*
X190595942Y-128266110D01*
X190612314Y-128269878D01*
X190628766Y-128273288D01*
X190645300Y-128276338D01*
X190661916Y-128279029D01*
X190678613Y-128281362D01*
X190695391Y-128283335D01*
X190712250Y-128284950D01*
X190729191Y-128286206D01*
X190746213Y-128287103D01*
X190763317Y-128287642D01*
X190780501Y-128287821D01*
X190786014Y-128287821D01*
X190806407Y-128287536D01*
X190826034Y-128286680D01*
X190844895Y-128285253D01*
X190862988Y-128283256D01*
X190880316Y-128280688D01*
X190896877Y-128277549D01*
X190912671Y-128273839D01*
X190927699Y-128269559D01*
X190941961Y-128264709D01*
X190955456Y-128259287D01*
X190968184Y-128253295D01*
X190980146Y-128246732D01*
X190991342Y-128239599D01*
X191004957Y-128229414D01*
X191017139Y-128218706D01*
X191027887Y-128207475D01*
X191037203Y-128195720D01*
X191045085Y-128183441D01*
X191051534Y-128170639D01*
X191056551Y-128157314D01*
X191060133Y-128143466D01*
X191062283Y-128129093D01*
X191063000Y-128114198D01*
X191062385Y-128098696D01*
X191060540Y-128083763D01*
X191057465Y-128069400D01*
X191053160Y-128055606D01*
X191047625Y-128042383D01*
X191040860Y-128029729D01*
X191032865Y-128017645D01*
X191023640Y-128006131D01*
X191013185Y-127995186D01*
X191001501Y-127984811D01*
X190988586Y-127975006D01*
X190976183Y-127966222D01*
X190963322Y-127957783D01*
X190950001Y-127949688D01*
X190936220Y-127941938D01*
X190921980Y-127934532D01*
X190907281Y-127927470D01*
X190892123Y-127920753D01*
X190876505Y-127914380D01*
X190860428Y-127908352D01*
X190843892Y-127902668D01*
X190826896Y-127897329D01*
X190809441Y-127892334D01*
X190793116Y-127887635D01*
X190776792Y-127882872D01*
X190760467Y-127878043D01*
X190744143Y-127873149D01*
X190727818Y-127868191D01*
X190711494Y-127863167D01*
X190695170Y-127858078D01*
X190678845Y-127852925D01*
X190662521Y-127847706D01*
X190646196Y-127842422D01*
X190629872Y-127837073D01*
X190613547Y-127831660D01*
X190597223Y-127826181D01*
X190581290Y-127820178D01*
X190565715Y-127813621D01*
X190550500Y-127806510D01*
X190535643Y-127798845D01*
X190521145Y-127790626D01*
X190507006Y-127781852D01*
X190493226Y-127772524D01*
X190479804Y-127762642D01*
X190466741Y-127752206D01*
X190454037Y-127741216D01*
X190441692Y-127729671D01*
X190429705Y-127717572D01*
X190418078Y-127704919D01*
X190408664Y-127693307D01*
X190399900Y-127681254D01*
X190391785Y-127668760D01*
X190384319Y-127655824D01*
X190377502Y-127642448D01*
X190371335Y-127628631D01*
X190365817Y-127614372D01*
X190360947Y-127599673D01*
X190356728Y-127584532D01*
X190353157Y-127568951D01*
X190350236Y-127552928D01*
X190347963Y-127536465D01*
X190346340Y-127519561D01*
X190345366Y-127502215D01*
X190345042Y-127484429D01*
X190345041Y-127484429D01*
X190345041Y-127484429D01*
G37*
G36*
X191523264Y-127303900D02*
X191523264Y-127086175D01*
X191768555Y-127086175D01*
X191768555Y-126665871D01*
X192026248Y-126665871D01*
X192026248Y-127086175D01*
X192401074Y-127086175D01*
X192401074Y-127303900D01*
X192026248Y-127303900D01*
X192026248Y-128122458D01*
X192026678Y-128137149D01*
X192027968Y-128151157D01*
X192030117Y-128164482D01*
X192033127Y-128177123D01*
X192036996Y-128189081D01*
X192041725Y-128200356D01*
X192047314Y-128210948D01*
X192053763Y-128220856D01*
X192061072Y-128230081D01*
X192069240Y-128238622D01*
X192078269Y-128246480D01*
X192088157Y-128253655D01*
X192098905Y-128260147D01*
X192110513Y-128265955D01*
X192122981Y-128271080D01*
X192136309Y-128275521D01*
X192150496Y-128279280D01*
X192165544Y-128282355D01*
X192181451Y-128284746D01*
X192198218Y-128286454D01*
X192215845Y-128287479D01*
X192234332Y-128287821D01*
X192237088Y-128287821D01*
X192256091Y-128287408D01*
X192274516Y-128286168D01*
X192292361Y-128284101D01*
X192309628Y-128281207D01*
X192326316Y-128277487D01*
X192342425Y-128272940D01*
X192357956Y-128267566D01*
X192372908Y-128261366D01*
X192387280Y-128254339D01*
X192401075Y-128246485D01*
X192401075Y-128478001D01*
X192384998Y-128484162D01*
X192368920Y-128489787D01*
X192352843Y-128494876D01*
X192336766Y-128499429D01*
X192320689Y-128503447D01*
X192304612Y-128506929D01*
X192288535Y-128509875D01*
X192272458Y-128512286D01*
X192256381Y-128514161D01*
X192240304Y-128515500D01*
X192224226Y-128516304D01*
X192208149Y-128516572D01*
X192201259Y-128516572D01*
X192186551Y-128516318D01*
X192171561Y-128515558D01*
X192156290Y-128514291D01*
X192140738Y-128512517D01*
X192124905Y-128510236D01*
X192108790Y-128507448D01*
X192092394Y-128504154D01*
X192079243Y-128501106D01*
X192065514Y-128497480D01*
X192051206Y-128493277D01*
X192036320Y-128488496D01*
X192020855Y-128483138D01*
X192004812Y-128477203D01*
X191988191Y-128470690D01*
X191970991Y-128463599D01*
X191953212Y-128455931D01*
X191938908Y-128448732D01*
X191925059Y-128440668D01*
X191911666Y-128431737D01*
X191898729Y-128421942D01*
X191886247Y-128411280D01*
X191874220Y-128399754D01*
X191862649Y-128387362D01*
X191851534Y-128374104D01*
X191840874Y-128359981D01*
X191830669Y-128344992D01*
X191820921Y-128329138D01*
X191813707Y-128315928D01*
X191807028Y-128302281D01*
X191800883Y-128288198D01*
X191795272Y-128273680D01*
X191790196Y-128258726D01*
X191785654Y-128243336D01*
X191781647Y-128227510D01*
X191778173Y-128211249D01*
X191775235Y-128194551D01*
X191772830Y-128177418D01*
X191770960Y-128159849D01*
X191769624Y-128141844D01*
X191768823Y-128123404D01*
X191768555Y-128104527D01*
X191768555Y-127303882D01*
X191523265Y-127303882D01*
X191523264Y-127303900D01*
X191523264Y-127303900D01*
G37*
G36*
X192661524Y-128050792D02*
X192917838Y-128047989D01*
X192918149Y-128062300D01*
X192919083Y-128076172D01*
X192920639Y-128089603D01*
X192922818Y-128102593D01*
X192925620Y-128115144D01*
X192929044Y-128127253D01*
X192933091Y-128138923D01*
X192937760Y-128150152D01*
X192943052Y-128160941D01*
X192948967Y-128171289D01*
X192955504Y-128181198D01*
X192962664Y-128190665D01*
X192970446Y-128199693D01*
X192978851Y-128208280D01*
X192987878Y-128216426D01*
X192997528Y-128224133D01*
X193007801Y-128231399D01*
X193018696Y-128238224D01*
X193030214Y-128244609D01*
X193042355Y-128250554D01*
X193055118Y-128256059D01*
X193068503Y-128261123D01*
X193082511Y-128265747D01*
X193097142Y-128269930D01*
X193112395Y-128273673D01*
X193128271Y-128276976D01*
X193144770Y-128279838D01*
X193161891Y-128282260D01*
X193179635Y-128284242D01*
X193198001Y-128285783D01*
X193216990Y-128286884D01*
X193236601Y-128287544D01*
X193256835Y-128287765D01*
X193260969Y-128287765D01*
X193280638Y-128287540D01*
X193299683Y-128286866D01*
X193318103Y-128285742D01*
X193335899Y-128284169D01*
X193353071Y-128282146D01*
X193369618Y-128279674D01*
X193385541Y-128276753D01*
X193400839Y-128273382D01*
X193415513Y-128269561D01*
X193429563Y-128265292D01*
X193442988Y-128260572D01*
X193455789Y-128255403D01*
X193467965Y-128249785D01*
X193479517Y-128243717D01*
X193490444Y-128237200D01*
X193500747Y-128230234D01*
X193510426Y-128222818D01*
X193519480Y-128214952D01*
X193527910Y-128206637D01*
X193535715Y-128197872D01*
X193542896Y-128188659D01*
X193549452Y-128178995D01*
X193555384Y-128168882D01*
X193560692Y-128158320D01*
X193565375Y-128147308D01*
X193569434Y-128135847D01*
X193572868Y-128123936D01*
X193575678Y-128111576D01*
X193577863Y-128098766D01*
X193579425Y-128085507D01*
X193580361Y-128071799D01*
X193580673Y-128057641D01*
X193580673Y-127828871D01*
X193565895Y-127826584D01*
X193550694Y-127824452D01*
X193535072Y-127822475D01*
X193519027Y-127820654D01*
X193502561Y-127818989D01*
X193485673Y-127817479D01*
X193468363Y-127816124D01*
X193450632Y-127814925D01*
X193432478Y-127813882D01*
X193413903Y-127812994D01*
X193394906Y-127812261D01*
X193375486Y-127811685D01*
X193355646Y-127811263D01*
X193335383Y-127810997D01*
X193319128Y-127811224D01*
X193302647Y-127811903D01*
X193285942Y-127813036D01*
X193269012Y-127814622D01*
X193251857Y-127816661D01*
X193234477Y-127819153D01*
X193216871Y-127822098D01*
X193201218Y-127824692D01*
X193185263Y-127827678D01*
X193169006Y-127831054D01*
X193152448Y-127834822D01*
X193135589Y-127838980D01*
X193118428Y-127843529D01*
X193100966Y-127848470D01*
X193083202Y-127853801D01*
X193067584Y-127859058D01*
X193052579Y-127865030D01*
X193038186Y-127871717D01*
X193024405Y-127879118D01*
X193011238Y-127887233D01*
X192998682Y-127896063D01*
X192986739Y-127905608D01*
X192975409Y-127915867D01*
X192964690Y-127926840D01*
X192953709Y-127939888D01*
X192944192Y-127953539D01*
X192936139Y-127967793D01*
X192929550Y-127982650D01*
X192924426Y-127998109D01*
X192920765Y-128014170D01*
X192918569Y-128030835D01*
X192917837Y-128048102D01*
X192917838Y-128047989D01*
X192661524Y-128050792D01*
X192661830Y-128033498D01*
X192662749Y-128016525D01*
X192664280Y-127999873D01*
X192666423Y-127983541D01*
X192669179Y-127967529D01*
X192672548Y-127951838D01*
X192676529Y-127936467D01*
X192681122Y-127921417D01*
X192686328Y-127906688D01*
X192692147Y-127892279D01*
X192698578Y-127878190D01*
X192705621Y-127864422D01*
X192713277Y-127850974D01*
X192721545Y-127837847D01*
X192730425Y-127825041D01*
X192739919Y-127812555D01*
X192750024Y-127800389D01*
X192760742Y-127788544D01*
X192772073Y-127777020D01*
X192784016Y-127765816D01*
X192796571Y-127754932D01*
X192809739Y-127744369D01*
X192823520Y-127734127D01*
X192837912Y-127724205D01*
X192849820Y-127716435D01*
X192862025Y-127708929D01*
X192874527Y-127701687D01*
X192887326Y-127694708D01*
X192900422Y-127687992D01*
X192913815Y-127681539D01*
X192927505Y-127675350D01*
X192941492Y-127669424D01*
X192955776Y-127663762D01*
X192970357Y-127658363D01*
X192985235Y-127653227D01*
X193000411Y-127648355D01*
X193015883Y-127643746D01*
X193031652Y-127639401D01*
X193047719Y-127635319D01*
X193064082Y-127631500D01*
X193080743Y-127627944D01*
X193097700Y-127624652D01*
X193114955Y-127621624D01*
X193132506Y-127618858D01*
X193150355Y-127616356D01*
X193168501Y-127614118D01*
X193186944Y-127612142D01*
X193205683Y-127610431D01*
X193224720Y-127608982D01*
X193244054Y-127607797D01*
X193263685Y-127606875D01*
X193283613Y-127606217D01*
X193303838Y-127605822D01*
X193324360Y-127605690D01*
X193341962Y-127605764D01*
X193359491Y-127605984D01*
X193376946Y-127606352D01*
X193394328Y-127606867D01*
X193411636Y-127607530D01*
X193428870Y-127608339D01*
X193446031Y-127609296D01*
X193463119Y-127610400D01*
X193480133Y-127611651D01*
X193497074Y-127613049D01*
X193513941Y-127614594D01*
X193530735Y-127616287D01*
X193547455Y-127618126D01*
X193564102Y-127620113D01*
X193580675Y-127622247D01*
X193579421Y-127601682D01*
X193577604Y-127581813D01*
X193575224Y-127562640D01*
X193572282Y-127544163D01*
X193568778Y-127526382D01*
X193564710Y-127509297D01*
X193560080Y-127492909D01*
X193554888Y-127477216D01*
X193549132Y-127462219D01*
X193542814Y-127447919D01*
X193535934Y-127434315D01*
X193528490Y-127421406D01*
X193520484Y-127409194D01*
X193511916Y-127397678D01*
X193502785Y-127386858D01*
X193493091Y-127376734D01*
X193482834Y-127367306D01*
X193473234Y-127359398D01*
X193463000Y-127351917D01*
X193452132Y-127344864D01*
X193440630Y-127338238D01*
X193428495Y-127332039D01*
X193415727Y-127326269D01*
X193402324Y-127320925D01*
X193388288Y-127316009D01*
X193373618Y-127311521D01*
X193358315Y-127307460D01*
X193342377Y-127303826D01*
X193325807Y-127300620D01*
X193308602Y-127297841D01*
X193290764Y-127295490D01*
X193272292Y-127293567D01*
X193253187Y-127292070D01*
X193233448Y-127291002D01*
X193213075Y-127290360D01*
X193192068Y-127290147D01*
X193176087Y-127290280D01*
X193160016Y-127290678D01*
X193143858Y-127291342D01*
X193127610Y-127292272D01*
X193111275Y-127293468D01*
X193094850Y-127294929D01*
X193078337Y-127296656D01*
X193061736Y-127298649D01*
X193045045Y-127300907D01*
X193028267Y-127303431D01*
X193011399Y-127306221D01*
X192994444Y-127309276D01*
X192977399Y-127312597D01*
X192960266Y-127316184D01*
X192943045Y-127320036D01*
X192925734Y-127324154D01*
X192908336Y-127328538D01*
X192890848Y-127333188D01*
X192873273Y-127338103D01*
X192855608Y-127343283D01*
X192837855Y-127348730D01*
X192820014Y-127354442D01*
X192802083Y-127360420D01*
X192802083Y-127139929D01*
X192818111Y-127133988D01*
X192834221Y-127128289D01*
X192850416Y-127122832D01*
X192866695Y-127117618D01*
X192883057Y-127112646D01*
X192899503Y-127107917D01*
X192916033Y-127103431D01*
X192932646Y-127099187D01*
X192949344Y-127095185D01*
X192966125Y-127091426D01*
X192982990Y-127087910D01*
X192999939Y-127084636D01*
X193016971Y-127081604D01*
X193034088Y-127078815D01*
X193051288Y-127076269D01*
X193068572Y-127073965D01*
X193085939Y-127071904D01*
X193103391Y-127070085D01*
X193120926Y-127068508D01*
X193138545Y-127067175D01*
X193156248Y-127066083D01*
X193174035Y-127065235D01*
X193191905Y-127064628D01*
X193209859Y-127064264D01*
X193227897Y-127064143D01*
X193247317Y-127064313D01*
X193266439Y-127064823D01*
X193285265Y-127065673D01*
X193303793Y-127066863D01*
X193322025Y-127068392D01*
X193339959Y-127070262D01*
X193357597Y-127072471D01*
X193374937Y-127075021D01*
X193391980Y-127077910D01*
X193408726Y-127081139D01*
X193425176Y-127084708D01*
X193441328Y-127088618D01*
X193457183Y-127092867D01*
X193472741Y-127097455D01*
X193488002Y-127102384D01*
X193502966Y-127107653D01*
X193517633Y-127113262D01*
X193532003Y-127119210D01*
X193546075Y-127125499D01*
X193559851Y-127132127D01*
X193573330Y-127139096D01*
X193586512Y-127146404D01*
X193599396Y-127154052D01*
X193611984Y-127162040D01*
X193624275Y-127170369D01*
X193636268Y-127179036D01*
X193647965Y-127188044D01*
X193659364Y-127197392D01*
X193670466Y-127207080D01*
X193681272Y-127217108D01*
X193692106Y-127227721D01*
X193702560Y-127238652D01*
X193712634Y-127249902D01*
X193722328Y-127261469D01*
X193731641Y-127273354D01*
X193740575Y-127285556D01*
X193749128Y-127298077D01*
X193757301Y-127310916D01*
X193765095Y-127324072D01*
X193772507Y-127337546D01*
X193779540Y-127351338D01*
X193786193Y-127365448D01*
X193792465Y-127379876D01*
X193798358Y-127394622D01*
X193803870Y-127409685D01*
X193809002Y-127425067D01*
X193813754Y-127440766D01*
X193818125Y-127456783D01*
X193822117Y-127473118D01*
X193825728Y-127489771D01*
X193828959Y-127506741D01*
X193831811Y-127524030D01*
X193834282Y-127541636D01*
X193836372Y-127559561D01*
X193838083Y-127577803D01*
X193839414Y-127596363D01*
X193840364Y-127615241D01*
X193840934Y-127634436D01*
X193841124Y-127653950D01*
X193841124Y-128060463D01*
X193840856Y-128075621D01*
X193840052Y-128090780D01*
X193838713Y-128105938D01*
X193836837Y-128121097D01*
X193834425Y-128136255D01*
X193831478Y-128151414D01*
X193828581Y-128164548D01*
X193824615Y-128178751D01*
X193819581Y-128194022D01*
X193813479Y-128210362D01*
X193806307Y-128227769D01*
X193798067Y-128246245D01*
X193788759Y-128265789D01*
X193781103Y-128281188D01*
X193772835Y-128296144D01*
X193763954Y-128310658D01*
X193754461Y-128324729D01*
X193744355Y-128338357D01*
X193733637Y-128351543D01*
X193722307Y-128364285D01*
X193710364Y-128376585D01*
X193697808Y-128388443D01*
X193687760Y-128397074D01*
X193676908Y-128405514D01*
X193665252Y-128413763D01*
X193652792Y-128421820D01*
X193639529Y-128429686D01*
X193625461Y-128437361D01*
X193610590Y-128444845D01*
X193594915Y-128452137D01*
X193578436Y-128459238D01*
X193561153Y-128466148D01*
X193543066Y-128472866D01*
X193524176Y-128479394D01*
X193509566Y-128483898D01*
X193494677Y-128488112D01*
X193479508Y-128492035D01*
X193464059Y-128495667D01*
X193448330Y-128499009D01*
X193432321Y-128502060D01*
X193416032Y-128504821D01*
X193399463Y-128507291D01*
X193382614Y-128509471D01*
X193365486Y-128511360D01*
X193348077Y-128512958D01*
X193330389Y-128514266D01*
X193312420Y-128515283D01*
X193294172Y-128516009D01*
X193275644Y-128516445D01*
X193256836Y-128516590D01*
X193237522Y-128516440D01*
X193218509Y-128515988D01*
X193199798Y-128515234D01*
X193181388Y-128514180D01*
X193163280Y-128512824D01*
X193145473Y-128511166D01*
X193127968Y-128509208D01*
X193110764Y-128506948D01*
X193093861Y-128504387D01*
X193077260Y-128501524D01*
X193060961Y-128498360D01*
X193044963Y-128494895D01*
X193029266Y-128491128D01*
X193013871Y-128487060D01*
X192998777Y-128482691D01*
X192983984Y-128478020D01*
X192964864Y-128471271D01*
X192946548Y-128464349D01*
X192929035Y-128457256D01*
X192912326Y-128449990D01*
X192896422Y-128442553D01*
X192881321Y-128434944D01*
X192867023Y-128427162D01*
X192853530Y-128419209D01*
X192840841Y-128411084D01*
X192828955Y-128402787D01*
X192817873Y-128394318D01*
X192807596Y-128385677D01*
X192795979Y-128375012D01*
X192784830Y-128363960D01*
X192774151Y-128352523D01*
X192763939Y-128340699D01*
X192754197Y-128328489D01*
X192744922Y-128315894D01*
X192736117Y-128302912D01*
X192727780Y-128289544D01*
X192719911Y-128275790D01*
X192712511Y-128261650D01*
X192704307Y-128244125D01*
X192696922Y-128227376D01*
X192690355Y-128211402D01*
X192684606Y-128196202D01*
X192679675Y-128181778D01*
X192675562Y-128168128D01*
X192672268Y-128155254D01*
X192669792Y-128143154D01*
X192667265Y-128127570D01*
X192665198Y-128112064D01*
X192663590Y-128096634D01*
X192662441Y-128081283D01*
X192661752Y-128066008D01*
X192661523Y-128050811D01*
X192661524Y-128050792D01*
X192661524Y-128050792D01*
G37*
G36*
X194304145Y-128329157D02*
X194294520Y-128318313D01*
X194285174Y-128307199D01*
X194276107Y-128295814D01*
X194267319Y-128284160D01*
X194258810Y-128272236D01*
X194250580Y-128260041D01*
X194242629Y-128247577D01*
X194234957Y-128234843D01*
X194227564Y-128221838D01*
X194220450Y-128208564D01*
X194213615Y-128195020D01*
X194207059Y-128181206D01*
X194200782Y-128167122D01*
X194194784Y-128152768D01*
X194189065Y-128138143D01*
X194183625Y-128123249D01*
X194178463Y-128108085D01*
X194173581Y-128092651D01*
X194168978Y-128076947D01*
X194164654Y-128060973D01*
X194160609Y-128044729D01*
X194156842Y-128028215D01*
X194153355Y-128011431D01*
X194150147Y-127994377D01*
X194147217Y-127977053D01*
X194144567Y-127959459D01*
X194142196Y-127941596D01*
X194140103Y-127923462D01*
X194138290Y-127905058D01*
X194136756Y-127886384D01*
X194135500Y-127867440D01*
X194134524Y-127848226D01*
X194133826Y-127828743D01*
X194133408Y-127808989D01*
X194133268Y-127788965D01*
X194133408Y-127768943D01*
X194133826Y-127749192D01*
X194134524Y-127729714D01*
X194135500Y-127710508D01*
X194136756Y-127691575D01*
X194138290Y-127672913D01*
X194140103Y-127654524D01*
X194142196Y-127636407D01*
X194144567Y-127618563D01*
X194147217Y-127600991D01*
X194150147Y-127583690D01*
X194153355Y-127566663D01*
X194156842Y-127549907D01*
X194160609Y-127533424D01*
X194164654Y-127517213D01*
X194168978Y-127501274D01*
X194173581Y-127485607D01*
X194178463Y-127470213D01*
X194183625Y-127455091D01*
X194189065Y-127440241D01*
X194194784Y-127425664D01*
X194200782Y-127411359D01*
X194207059Y-127397326D01*
X194213615Y-127383565D01*
X194220450Y-127370076D01*
X194227564Y-127356860D01*
X194234957Y-127343916D01*
X194242629Y-127331244D01*
X194250580Y-127318845D01*
X194258810Y-127306718D01*
X194267319Y-127294863D01*
X194276107Y-127283280D01*
X194285174Y-127271969D01*
X194294520Y-127260931D01*
X194304145Y-127250165D01*
X194314639Y-127239061D01*
X194325409Y-127228298D01*
X194336455Y-127217877D01*
X194347777Y-127207798D01*
X194359374Y-127198060D01*
X194371247Y-127188664D01*
X194383397Y-127179610D01*
X194395822Y-127170897D01*
X194408523Y-127162526D01*
X194421500Y-127154497D01*
X194434752Y-127146809D01*
X194448281Y-127139463D01*
X194462085Y-127132459D01*
X194476166Y-127125796D01*
X194490522Y-127119475D01*
X194505154Y-127113496D01*
X194520062Y-127107859D01*
X194535245Y-127102563D01*
X194550705Y-127097608D01*
X194566440Y-127092996D01*
X194582452Y-127088725D01*
X194598739Y-127084796D01*
X194615302Y-127081208D01*
X194632141Y-127077962D01*
X194649256Y-127075058D01*
X194666646Y-127072495D01*
X194684313Y-127070274D01*
X194702255Y-127068395D01*
X194720473Y-127066858D01*
X194738967Y-127065662D01*
X194757737Y-127064808D01*
X194776783Y-127064295D01*
X194796105Y-127064124D01*
X194813278Y-127064250D01*
X194830403Y-127064627D01*
X194847480Y-127065256D01*
X194864508Y-127066135D01*
X194881488Y-127067266D01*
X194898419Y-127068649D01*
X194915302Y-127070283D01*
X194932136Y-127072168D01*
X194948921Y-127074305D01*
X194965659Y-127076693D01*
X194982347Y-127079332D01*
X194998987Y-127082223D01*
X195015579Y-127085365D01*
X195032122Y-127088758D01*
X195048616Y-127092403D01*
X195065063Y-127096299D01*
X195081460Y-127100447D01*
X195097809Y-127104846D01*
X195114110Y-127109496D01*
X195130362Y-127114398D01*
X195146565Y-127119551D01*
X195162720Y-127124955D01*
X195178827Y-127130611D01*
X195194885Y-127136518D01*
X195210894Y-127142676D01*
X195210894Y-127387965D01*
X195194925Y-127380432D01*
X195178941Y-127373219D01*
X195162943Y-127366326D01*
X195146930Y-127359755D01*
X195130903Y-127353504D01*
X195114862Y-127347573D01*
X195098807Y-127341963D01*
X195082737Y-127336674D01*
X195066652Y-127331705D01*
X195050554Y-127327057D01*
X195034441Y-127322729D01*
X195018313Y-127318722D01*
X195002172Y-127315035D01*
X194986016Y-127311669D01*
X194969845Y-127308624D01*
X194953660Y-127305899D01*
X194937461Y-127303495D01*
X194921248Y-127301411D01*
X194905020Y-127299648D01*
X194888778Y-127298205D01*
X194872521Y-127297083D01*
X194856250Y-127296282D01*
X194839965Y-127295801D01*
X194823666Y-127295641D01*
X194818153Y-127295641D01*
X194798933Y-127295892D01*
X194780133Y-127296647D01*
X194761753Y-127297904D01*
X194743794Y-127299664D01*
X194726255Y-127301927D01*
X194709136Y-127304693D01*
X194692438Y-127307962D01*
X194676160Y-127311734D01*
X194660302Y-127316009D01*
X194644864Y-127320787D01*
X194629847Y-127326067D01*
X194615250Y-127331851D01*
X194601074Y-127338137D01*
X194587318Y-127344927D01*
X194573982Y-127352219D01*
X194561066Y-127360014D01*
X194548571Y-127368313D01*
X194536496Y-127377114D01*
X194524841Y-127386418D01*
X194513606Y-127396225D01*
X194505289Y-127404145D01*
X194497298Y-127412640D01*
X194489633Y-127421710D01*
X194482295Y-127431355D01*
X194475282Y-127441575D01*
X194468596Y-127452369D01*
X194462236Y-127463738D01*
X194456202Y-127475682D01*
X194450494Y-127488201D01*
X194445112Y-127501295D01*
X194440057Y-127514963D01*
X194435327Y-127529206D01*
X194430924Y-127544024D01*
X194426847Y-127559417D01*
X194423096Y-127575385D01*
X194419671Y-127591927D01*
X194416573Y-127609044D01*
X194413800Y-127626736D01*
X194411354Y-127645003D01*
X194409234Y-127663845D01*
X194407440Y-127683261D01*
X194405973Y-127703252D01*
X194404831Y-127723818D01*
X194404016Y-127744959D01*
X194403526Y-127766675D01*
X194403363Y-127788965D01*
X194403504Y-127809496D01*
X194403927Y-127829562D01*
X194404631Y-127849162D01*
X194405617Y-127868296D01*
X194406885Y-127886965D01*
X194408434Y-127905168D01*
X194410266Y-127922906D01*
X194412379Y-127940178D01*
X194414773Y-127956984D01*
X194417450Y-127973325D01*
X194420408Y-127989200D01*
X194423648Y-128004610D01*
X194427170Y-128019554D01*
X194430973Y-128034032D01*
X194435058Y-128048045D01*
X194441322Y-128066154D01*
X194448087Y-128083396D01*
X194455353Y-128099774D01*
X194463120Y-128115286D01*
X194471388Y-128129932D01*
X194480158Y-128143713D01*
X194489428Y-128156629D01*
X194499199Y-128168679D01*
X194509472Y-128179863D01*
X194520246Y-128190182D01*
X194531521Y-128199636D01*
X194545914Y-128210249D01*
X194560306Y-128220046D01*
X194574699Y-128229027D01*
X194589092Y-128237191D01*
X194603485Y-128244540D01*
X194617878Y-128251072D01*
X194632271Y-128256787D01*
X194646664Y-128261687D01*
X194661056Y-128265770D01*
X194674534Y-128268916D01*
X194688507Y-128271731D01*
X194702976Y-128274214D01*
X194717942Y-128276367D01*
X194733403Y-128278188D01*
X194749361Y-128279678D01*
X194765815Y-128280837D01*
X194782765Y-128281665D01*
X194800211Y-128282162D01*
X194818153Y-128282327D01*
X194835012Y-128282172D01*
X194851829Y-128281705D01*
X194868602Y-128280928D01*
X194885332Y-128279839D01*
X194902019Y-128278439D01*
X194918663Y-128276729D01*
X194935264Y-128274707D01*
X194951822Y-128272374D01*
X194968337Y-128269730D01*
X194984809Y-128266776D01*
X195001238Y-128263510D01*
X195017624Y-128259933D01*
X195033966Y-128256045D01*
X195050266Y-128251846D01*
X195066523Y-128247336D01*
X195082736Y-128242515D01*
X195098906Y-128237383D01*
X195115034Y-128231940D01*
X195131118Y-128226186D01*
X195147159Y-128220121D01*
X195163158Y-128213745D01*
X195179113Y-128207057D01*
X195195025Y-128200059D01*
X195210894Y-128192750D01*
X195210894Y-128438039D01*
X195194884Y-128444197D01*
X195178826Y-128450104D01*
X195162720Y-128455760D01*
X195146565Y-128461164D01*
X195130361Y-128466317D01*
X195114109Y-128471219D01*
X195097809Y-128475869D01*
X195081459Y-128480268D01*
X195065062Y-128484416D01*
X195048616Y-128488312D01*
X195032121Y-128491957D01*
X195015578Y-128495350D01*
X194998987Y-128498492D01*
X194982347Y-128501383D01*
X194965658Y-128504022D01*
X194948921Y-128506410D01*
X194932135Y-128508547D01*
X194915301Y-128510432D01*
X194898419Y-128512066D01*
X194881487Y-128513448D01*
X194864508Y-128514580D01*
X194847480Y-128515459D01*
X194830403Y-128516088D01*
X194813278Y-128516465D01*
X194796104Y-128516590D01*
X194776782Y-128516418D01*
X194757737Y-128515902D01*
X194738967Y-128515042D01*
X194720473Y-128513837D01*
X194702254Y-128512288D01*
X194684312Y-128510395D01*
X194666646Y-128508158D01*
X194649255Y-128505576D01*
X194632140Y-128502651D01*
X194615301Y-128499381D01*
X194598738Y-128495767D01*
X194582451Y-128491808D01*
X194566440Y-128487506D01*
X194550704Y-128482859D01*
X194535245Y-128477868D01*
X194520061Y-128472533D01*
X194505153Y-128466854D01*
X194490521Y-128460831D01*
X194476165Y-128454463D01*
X194462085Y-128447751D01*
X194448280Y-128440695D01*
X194434752Y-128433295D01*
X194421499Y-128425551D01*
X194408522Y-128417462D01*
X194395821Y-128409029D01*
X194383396Y-128400252D01*
X194371247Y-128391131D01*
X194359374Y-128381666D01*
X194347776Y-128371856D01*
X194336454Y-128361703D01*
X194325408Y-128351205D01*
X194314639Y-128340362D01*
X194304144Y-128329176D01*
X194304145Y-128329157D01*
X194304145Y-128329157D01*
G37*
G36*
X195518197Y-128494521D02*
X195518197Y-126550122D01*
X195775890Y-126550122D01*
X195775890Y-127675982D01*
X196384983Y-127086175D01*
X196735004Y-127086175D01*
X196123156Y-127673216D01*
X196816309Y-128494521D01*
X196473177Y-128494521D01*
X195950901Y-127839953D01*
X195775890Y-128009456D01*
X195775890Y-128494521D01*
X195518197Y-128494521D01*
X195518197Y-128494521D01*
G37*
D12*
X114950340Y-109450180D02*
X115651380Y-109450180D01*
X115651380Y-109450180D02*
X115651380Y-109699100D01*
X115651380Y-112249160D02*
X115651380Y-112449820D01*
X115651380Y-112449820D02*
X114950340Y-112449820D01*
X112450000Y-122550000D02*
X112450000Y-123050000D01*
X115950000Y-123050000D02*
X112450000Y-123050000D01*
X115950000Y-122550000D02*
X115950000Y-123050000D01*
X115950000Y-114550000D02*
X112450000Y-114550000D01*
X112450000Y-114550000D02*
X112450000Y-115050000D01*
X115950000Y-114550000D02*
X115950000Y-115050000D01*
X114150000Y-103450000D02*
G75*
G03X114150000Y-103450000I-100000J0D01*
G01*
X113500000Y-103200000D02*
X114000000Y-103200000D01*
X113500000Y-100300000D02*
X113500000Y-103200000D01*
X114000000Y-100300000D02*
X113500000Y-100300000D01*
X114000000Y-103200000D02*
X114000000Y-100300000D01*
X113500000Y-104630000D02*
G75*
G03X113500000Y-104630000I-100000J0D01*
G01*
X113950000Y-104880000D02*
X113450000Y-104880000D01*
X113950000Y-107780000D02*
X113950000Y-104880000D01*
X113450000Y-107780000D02*
X113950000Y-107780000D01*
X113450000Y-104880000D02*
X113450000Y-107780000D01*
X124600000Y-134837969D02*
X126500000Y-134837969D01*
X124600000Y-133737969D02*
X126500000Y-133737969D01*
X125500000Y-134287969D02*
X125950000Y-134287969D01*
X125450000Y-134037969D02*
X125450000Y-134537969D01*
X125450000Y-134287969D02*
X125700000Y-134037969D01*
X125700000Y-134037969D02*
X125700000Y-134537969D01*
X125700000Y-134537969D02*
X125450000Y-134287969D01*
X124600000Y-131337969D02*
X126500000Y-131337969D01*
X124600000Y-130237969D02*
X126500000Y-130237969D01*
X125500000Y-130787969D02*
X125950000Y-130787969D01*
X125450000Y-130537969D02*
X125450000Y-131037969D01*
X125450000Y-130787969D02*
X125700000Y-130537969D01*
X125700000Y-130537969D02*
X125700000Y-131037969D01*
X125700000Y-131037969D02*
X125450000Y-130787969D01*
X124600000Y-127837969D02*
X126500000Y-127837969D01*
X124600000Y-126737969D02*
X126500000Y-126737969D01*
X125500000Y-127287969D02*
X125950000Y-127287969D01*
X125450000Y-127037969D02*
X125450000Y-127537969D01*
X125450000Y-127287969D02*
X125700000Y-127037969D01*
X125700000Y-127037969D02*
X125700000Y-127537969D01*
X125700000Y-127537969D02*
X125450000Y-127287969D01*
X121400000Y-133612969D02*
X122400000Y-133612969D01*
X122400000Y-134962969D02*
X121400000Y-134962969D01*
X121400000Y-130112969D02*
X122400000Y-130112969D01*
X122400000Y-131462969D02*
X121400000Y-131462969D01*
X121400000Y-126625000D02*
X122400000Y-126625000D01*
X122400000Y-127975000D02*
X121400000Y-127975000D01*
X114750714Y-130300000D02*
G75*
G03X114750714Y-130300000I-1750714J0D01*
G01*
X109775000Y-127075000D02*
X109900000Y-127075000D01*
X116225000Y-127075000D02*
X116100000Y-127075000D01*
X116225000Y-133525000D02*
X116100000Y-133525000D01*
X109900000Y-133525000D02*
X109775000Y-133525000D01*
X111600000Y-127075000D02*
X114400000Y-127075000D01*
X109775000Y-133525000D02*
X109775000Y-127075000D01*
X111600000Y-133525000D02*
X114400000Y-133525000D01*
X116225000Y-133525000D02*
X116225000Y-127075000D01*
X111160000Y-106010000D02*
X111160000Y-106710000D01*
X109960000Y-106710000D02*
X109960000Y-106010000D01*
X117540000Y-106010000D02*
X117540000Y-106710000D01*
X116340000Y-106710000D02*
X116340000Y-106010000D01*
X119675000Y-132270000D02*
X119675000Y-133270000D01*
X118325000Y-133270000D02*
X118325000Y-132270000D01*
X116625000Y-133260000D02*
X116625000Y-132260000D01*
X117975000Y-132260000D02*
X117975000Y-133260000D01*
X188460000Y-104700000D02*
X191840000Y-104700000D01*
X188460000Y-111300000D02*
X191840000Y-111300000D01*
X116625000Y-128900000D02*
X116625000Y-127900000D01*
X117975000Y-127900000D02*
X117975000Y-128900000D01*
X124482353Y-120390000D02*
G75*
G03X124482353Y-120390000I-362353J0D01*
G01*
X180500000Y-111975000D02*
X179500000Y-111975000D01*
X179500000Y-110625000D02*
X180500000Y-110625000D01*
X185200000Y-111975000D02*
X184200000Y-111975000D01*
X184200000Y-110625000D02*
X185200000Y-110625000D01*
X119200000Y-108400000D02*
X119200000Y-106500000D01*
X118100000Y-108400000D02*
X118100000Y-106500000D01*
X118650000Y-107500000D02*
X118650000Y-107050000D01*
X118400000Y-107550000D02*
X118900000Y-107550000D01*
X118650000Y-107550000D02*
X118400000Y-107300000D01*
X118400000Y-107300000D02*
X118900000Y-107300000D01*
X118900000Y-107300000D02*
X118650000Y-107550000D01*
X122200000Y-109625000D02*
X121200000Y-109625000D01*
X121200000Y-108275000D02*
X122200000Y-108275000D01*
X148766667Y-93028571D02*
X148433333Y-93028571D01*
X148433333Y-93552381D02*
X148433333Y-92552381D01*
X148909524Y-92552381D01*
X149242857Y-92647619D02*
X149290476Y-92600000D01*
X149385714Y-92552381D01*
X149623810Y-92552381D01*
X149719048Y-92600000D01*
X149766667Y-92647619D01*
X149814286Y-92742857D01*
X149814286Y-92838095D01*
X149766667Y-92980952D01*
X149195238Y-93552381D01*
X149814286Y-93552381D01*
X194466667Y-120928571D02*
X194133333Y-120928571D01*
X194133333Y-121452381D02*
X194133333Y-120452381D01*
X194609524Y-120452381D01*
X194895238Y-120452381D02*
X195514286Y-120452381D01*
X195180952Y-120833333D01*
X195323810Y-120833333D01*
X195419048Y-120880952D01*
X195466667Y-120928571D01*
X195514286Y-121023810D01*
X195514286Y-121261905D01*
X195466667Y-121357143D01*
X195419048Y-121404762D01*
X195323810Y-121452381D01*
X195038095Y-121452381D01*
X194942857Y-121404762D01*
X194895238Y-121357143D01*
X116804762Y-113147619D02*
X116709524Y-113100000D01*
X116614286Y-113004762D01*
X116471429Y-112861905D01*
X116376190Y-112814286D01*
X116280952Y-112814286D01*
X116328571Y-113052381D02*
X116233333Y-113004762D01*
X116138095Y-112909524D01*
X116090476Y-112719048D01*
X116090476Y-112385714D01*
X116138095Y-112195238D01*
X116233333Y-112100000D01*
X116328571Y-112052381D01*
X116519048Y-112052381D01*
X116614286Y-112100000D01*
X116709524Y-112195238D01*
X116757143Y-112385714D01*
X116757143Y-112719048D01*
X116709524Y-112909524D01*
X116614286Y-113004762D01*
X116519048Y-113052381D01*
X116328571Y-113052381D01*
X117709524Y-113052381D02*
X117138095Y-113052381D01*
X117423809Y-113052381D02*
X117423809Y-112052381D01*
X117328571Y-112195238D01*
X117233333Y-112290476D01*
X117138095Y-112338095D01*
X109738095Y-101202381D02*
X109738095Y-102011905D01*
X109785714Y-102107143D01*
X109833333Y-102154762D01*
X109928571Y-102202381D01*
X110119048Y-102202381D01*
X110214286Y-102154762D01*
X110261905Y-102107143D01*
X110309524Y-102011905D01*
X110309524Y-101202381D01*
X111309524Y-102202381D02*
X110738095Y-102202381D01*
X111023809Y-102202381D02*
X111023809Y-101202381D01*
X110928571Y-101345238D01*
X110833333Y-101440476D01*
X110738095Y-101488095D01*
X112928095Y-108182381D02*
X112928095Y-108991905D01*
X112975714Y-109087143D01*
X113023333Y-109134762D01*
X113118571Y-109182381D01*
X113309048Y-109182381D01*
X113404286Y-109134762D01*
X113451905Y-109087143D01*
X113499524Y-108991905D01*
X113499524Y-108182381D01*
X113928095Y-108277619D02*
X113975714Y-108230000D01*
X114070952Y-108182381D01*
X114309048Y-108182381D01*
X114404286Y-108230000D01*
X114451905Y-108277619D01*
X114499524Y-108372857D01*
X114499524Y-108468095D01*
X114451905Y-108610952D01*
X113880476Y-109182381D01*
X114499524Y-109182381D01*
X124961905Y-136452381D02*
X124961905Y-135452381D01*
X125200000Y-135452381D01*
X125342858Y-135500000D01*
X125438096Y-135595238D01*
X125485715Y-135690476D01*
X125533334Y-135880952D01*
X125533334Y-136023810D01*
X125485715Y-136214286D01*
X125438096Y-136309524D01*
X125342858Y-136404762D01*
X125200000Y-136452381D01*
X124961905Y-136452381D01*
X126485715Y-136452381D02*
X125914286Y-136452381D01*
X126200000Y-136452381D02*
X126200000Y-135452381D01*
X126104762Y-135595238D01*
X126009524Y-135690476D01*
X125914286Y-135738095D01*
X124961905Y-132952381D02*
X124961905Y-131952381D01*
X125200000Y-131952381D01*
X125342858Y-132000000D01*
X125438096Y-132095238D01*
X125485715Y-132190476D01*
X125533334Y-132380952D01*
X125533334Y-132523810D01*
X125485715Y-132714286D01*
X125438096Y-132809524D01*
X125342858Y-132904762D01*
X125200000Y-132952381D01*
X124961905Y-132952381D01*
X125914286Y-132047619D02*
X125961905Y-132000000D01*
X126057143Y-131952381D01*
X126295239Y-131952381D01*
X126390477Y-132000000D01*
X126438096Y-132047619D01*
X126485715Y-132142857D01*
X126485715Y-132238095D01*
X126438096Y-132380952D01*
X125866667Y-132952381D01*
X126485715Y-132952381D01*
X124961905Y-129452381D02*
X124961905Y-128452381D01*
X125200000Y-128452381D01*
X125342858Y-128500000D01*
X125438096Y-128595238D01*
X125485715Y-128690476D01*
X125533334Y-128880952D01*
X125533334Y-129023810D01*
X125485715Y-129214286D01*
X125438096Y-129309524D01*
X125342858Y-129404762D01*
X125200000Y-129452381D01*
X124961905Y-129452381D01*
X125866667Y-128452381D02*
X126485715Y-128452381D01*
X126152381Y-128833333D01*
X126295239Y-128833333D01*
X126390477Y-128880952D01*
X126438096Y-128928571D01*
X126485715Y-129023810D01*
X126485715Y-129261905D01*
X126438096Y-129357143D01*
X126390477Y-129404762D01*
X126295239Y-129452381D01*
X126009524Y-129452381D01*
X125914286Y-129404762D01*
X125866667Y-129357143D01*
X121733334Y-136452381D02*
X121400000Y-135976190D01*
X121161905Y-136452381D02*
X121161905Y-135452381D01*
X121542858Y-135452381D01*
X121638096Y-135500000D01*
X121685715Y-135547619D01*
X121733334Y-135642857D01*
X121733334Y-135785714D01*
X121685715Y-135880952D01*
X121638096Y-135928571D01*
X121542858Y-135976190D01*
X121161905Y-135976190D01*
X122685715Y-136452381D02*
X122114286Y-136452381D01*
X122400000Y-136452381D02*
X122400000Y-135452381D01*
X122304762Y-135595238D01*
X122209524Y-135690476D01*
X122114286Y-135738095D01*
X121733334Y-132952381D02*
X121400000Y-132476190D01*
X121161905Y-132952381D02*
X121161905Y-131952381D01*
X121542858Y-131952381D01*
X121638096Y-132000000D01*
X121685715Y-132047619D01*
X121733334Y-132142857D01*
X121733334Y-132285714D01*
X121685715Y-132380952D01*
X121638096Y-132428571D01*
X121542858Y-132476190D01*
X121161905Y-132476190D01*
X122114286Y-132047619D02*
X122161905Y-132000000D01*
X122257143Y-131952381D01*
X122495239Y-131952381D01*
X122590477Y-132000000D01*
X122638096Y-132047619D01*
X122685715Y-132142857D01*
X122685715Y-132238095D01*
X122638096Y-132380952D01*
X122066667Y-132952381D01*
X122685715Y-132952381D01*
X121733334Y-129464412D02*
X121400000Y-128988221D01*
X121161905Y-129464412D02*
X121161905Y-128464412D01*
X121542858Y-128464412D01*
X121638096Y-128512031D01*
X121685715Y-128559650D01*
X121733334Y-128654888D01*
X121733334Y-128797745D01*
X121685715Y-128892983D01*
X121638096Y-128940602D01*
X121542858Y-128988221D01*
X121161905Y-128988221D01*
X122066667Y-128464412D02*
X122685715Y-128464412D01*
X122352381Y-128845364D01*
X122495239Y-128845364D01*
X122590477Y-128892983D01*
X122638096Y-128940602D01*
X122685715Y-129035841D01*
X122685715Y-129273936D01*
X122638096Y-129369174D01*
X122590477Y-129416793D01*
X122495239Y-129464412D01*
X122209524Y-129464412D01*
X122114286Y-129416793D01*
X122066667Y-129369174D01*
X110423334Y-109257143D02*
X110375715Y-109304762D01*
X110232858Y-109352381D01*
X110137620Y-109352381D01*
X109994762Y-109304762D01*
X109899524Y-109209524D01*
X109851905Y-109114286D01*
X109804286Y-108923810D01*
X109804286Y-108780952D01*
X109851905Y-108590476D01*
X109899524Y-108495238D01*
X109994762Y-108400000D01*
X110137620Y-108352381D01*
X110232858Y-108352381D01*
X110375715Y-108400000D01*
X110423334Y-108447619D01*
X111375715Y-109352381D02*
X110804286Y-109352381D01*
X111090000Y-109352381D02*
X111090000Y-108352381D01*
X110994762Y-108495238D01*
X110899524Y-108590476D01*
X110804286Y-108638095D01*
X116753334Y-109257143D02*
X116705715Y-109304762D01*
X116562858Y-109352381D01*
X116467620Y-109352381D01*
X116324762Y-109304762D01*
X116229524Y-109209524D01*
X116181905Y-109114286D01*
X116134286Y-108923810D01*
X116134286Y-108780952D01*
X116181905Y-108590476D01*
X116229524Y-108495238D01*
X116324762Y-108400000D01*
X116467620Y-108352381D01*
X116562858Y-108352381D01*
X116705715Y-108400000D01*
X116753334Y-108447619D01*
X117134286Y-108447619D02*
X117181905Y-108400000D01*
X117277143Y-108352381D01*
X117515239Y-108352381D01*
X117610477Y-108400000D01*
X117658096Y-108447619D01*
X117705715Y-108542857D01*
X117705715Y-108638095D01*
X117658096Y-108780952D01*
X117086667Y-109352381D01*
X117705715Y-109352381D01*
X119452381Y-135866666D02*
X118976190Y-136200000D01*
X119452381Y-136438095D02*
X118452381Y-136438095D01*
X118452381Y-136057142D01*
X118500000Y-135961904D01*
X118547619Y-135914285D01*
X118642857Y-135866666D01*
X118785714Y-135866666D01*
X118880952Y-135914285D01*
X118928571Y-135961904D01*
X118976190Y-136057142D01*
X118976190Y-136438095D01*
X118785714Y-135009523D02*
X119452381Y-135009523D01*
X118404762Y-135247619D02*
X119119048Y-135485714D01*
X119119048Y-134866666D01*
X117752381Y-135866666D02*
X117276190Y-136200000D01*
X117752381Y-136438095D02*
X116752381Y-136438095D01*
X116752381Y-136057142D01*
X116800000Y-135961904D01*
X116847619Y-135914285D01*
X116942857Y-135866666D01*
X117085714Y-135866666D01*
X117180952Y-135914285D01*
X117228571Y-135961904D01*
X117276190Y-136057142D01*
X117276190Y-136438095D01*
X116752381Y-134961904D02*
X116752381Y-135438095D01*
X117228571Y-135485714D01*
X117180952Y-135438095D01*
X117133333Y-135342857D01*
X117133333Y-135104761D01*
X117180952Y-135009523D01*
X117228571Y-134961904D01*
X117323810Y-134914285D01*
X117561905Y-134914285D01*
X117657143Y-134961904D01*
X117704762Y-135009523D01*
X117752381Y-135104761D01*
X117752381Y-135342857D01*
X117704762Y-135438095D01*
X117657143Y-135485714D01*
X119352381Y-127566666D02*
X118876190Y-127900000D01*
X119352381Y-128138095D02*
X118352381Y-128138095D01*
X118352381Y-127757142D01*
X118400000Y-127661904D01*
X118447619Y-127614285D01*
X118542857Y-127566666D01*
X118685714Y-127566666D01*
X118780952Y-127614285D01*
X118828571Y-127661904D01*
X118876190Y-127757142D01*
X118876190Y-128138095D01*
X118352381Y-126709523D02*
X118352381Y-126900000D01*
X118400000Y-126995238D01*
X118447619Y-127042857D01*
X118590476Y-127138095D01*
X118780952Y-127185714D01*
X119161905Y-127185714D01*
X119257143Y-127138095D01*
X119304762Y-127090476D01*
X119352381Y-126995238D01*
X119352381Y-126804761D01*
X119304762Y-126709523D01*
X119257143Y-126661904D01*
X119161905Y-126614285D01*
X118923810Y-126614285D01*
X118828571Y-126661904D01*
X118780952Y-126709523D01*
X118733333Y-126804761D01*
X118733333Y-126995238D01*
X118780952Y-127090476D01*
X118828571Y-127138095D01*
X118923810Y-127185714D01*
X128538095Y-119552381D02*
X128538095Y-120361905D01*
X128585714Y-120457143D01*
X128633333Y-120504762D01*
X128728571Y-120552381D01*
X128919048Y-120552381D01*
X129014286Y-120504762D01*
X129061905Y-120457143D01*
X129109524Y-120361905D01*
X129109524Y-119552381D01*
X129490476Y-119552381D02*
X130109524Y-119552381D01*
X129776190Y-119933333D01*
X129919048Y-119933333D01*
X130014286Y-119980952D01*
X130061905Y-120028571D01*
X130109524Y-120123810D01*
X130109524Y-120361905D01*
X130061905Y-120457143D01*
X130014286Y-120504762D01*
X129919048Y-120552381D01*
X129633333Y-120552381D01*
X129538095Y-120504762D01*
X129490476Y-120457143D01*
X179833334Y-113252381D02*
X179500000Y-112776190D01*
X179261905Y-113252381D02*
X179261905Y-112252381D01*
X179642858Y-112252381D01*
X179738096Y-112300000D01*
X179785715Y-112347619D01*
X179833334Y-112442857D01*
X179833334Y-112585714D01*
X179785715Y-112680952D01*
X179738096Y-112728571D01*
X179642858Y-112776190D01*
X179261905Y-112776190D01*
X180166667Y-112252381D02*
X180833334Y-112252381D01*
X180404762Y-113252381D01*
X184533334Y-113252381D02*
X184200000Y-112776190D01*
X183961905Y-113252381D02*
X183961905Y-112252381D01*
X184342858Y-112252381D01*
X184438096Y-112300000D01*
X184485715Y-112347619D01*
X184533334Y-112442857D01*
X184533334Y-112585714D01*
X184485715Y-112680952D01*
X184438096Y-112728571D01*
X184342858Y-112776190D01*
X183961905Y-112776190D01*
X185104762Y-112680952D02*
X185009524Y-112633333D01*
X184961905Y-112585714D01*
X184914286Y-112490476D01*
X184914286Y-112442857D01*
X184961905Y-112347619D01*
X185009524Y-112300000D01*
X185104762Y-112252381D01*
X185295239Y-112252381D01*
X185390477Y-112300000D01*
X185438096Y-112347619D01*
X185485715Y-112442857D01*
X185485715Y-112490476D01*
X185438096Y-112585714D01*
X185390477Y-112633333D01*
X185295239Y-112680952D01*
X185104762Y-112680952D01*
X185009524Y-112728571D01*
X184961905Y-112776190D01*
X184914286Y-112871429D01*
X184914286Y-113061905D01*
X184961905Y-113157143D01*
X185009524Y-113204762D01*
X185104762Y-113252381D01*
X185295239Y-113252381D01*
X185390477Y-113204762D01*
X185438096Y-113157143D01*
X185485715Y-113061905D01*
X185485715Y-112871429D01*
X185438096Y-112776190D01*
X185390477Y-112728571D01*
X185295239Y-112680952D01*
X112266667Y-123928571D02*
X111933333Y-123928571D01*
X111933333Y-124452381D02*
X111933333Y-123452381D01*
X112409524Y-123452381D01*
X113314286Y-124452381D02*
X112742857Y-124452381D01*
X113028571Y-124452381D02*
X113028571Y-123452381D01*
X112933333Y-123595238D01*
X112838095Y-123690476D01*
X112742857Y-123738095D01*
X118011905Y-105452381D02*
X118011905Y-104452381D01*
X118250000Y-104452381D01*
X118392858Y-104500000D01*
X118488096Y-104595238D01*
X118535715Y-104690476D01*
X118583334Y-104880952D01*
X118583334Y-105023810D01*
X118535715Y-105214286D01*
X118488096Y-105309524D01*
X118392858Y-105404762D01*
X118250000Y-105452381D01*
X118011905Y-105452381D01*
X119440477Y-104785714D02*
X119440477Y-105452381D01*
X119202381Y-104404762D02*
X118964286Y-105119048D01*
X119583334Y-105119048D01*
X124483334Y-109402381D02*
X124150000Y-108926190D01*
X123911905Y-109402381D02*
X123911905Y-108402381D01*
X124292858Y-108402381D01*
X124388096Y-108450000D01*
X124435715Y-108497619D01*
X124483334Y-108592857D01*
X124483334Y-108735714D01*
X124435715Y-108830952D01*
X124388096Y-108878571D01*
X124292858Y-108926190D01*
X123911905Y-108926190D01*
X124959524Y-109402381D02*
X125150000Y-109402381D01*
X125245239Y-109354762D01*
X125292858Y-109307143D01*
X125388096Y-109164286D01*
X125435715Y-108973810D01*
X125435715Y-108592857D01*
X125388096Y-108497619D01*
X125340477Y-108450000D01*
X125245239Y-108402381D01*
X125054762Y-108402381D01*
X124959524Y-108450000D01*
X124911905Y-108497619D01*
X124864286Y-108592857D01*
X124864286Y-108830952D01*
X124911905Y-108926190D01*
X124959524Y-108973810D01*
X125054762Y-109021429D01*
X125245239Y-109021429D01*
X125340477Y-108973810D01*
X125388096Y-108926190D01*
X125435715Y-108830952D01*
X143761905Y-130952381D02*
X143761905Y-129952381D01*
X144142858Y-129952381D01*
X144238096Y-130000000D01*
X144285715Y-130047619D01*
X144333334Y-130142857D01*
X144333334Y-130285714D01*
X144285715Y-130380952D01*
X144238096Y-130428571D01*
X144142858Y-130476190D01*
X143761905Y-130476190D01*
X145238096Y-129952381D02*
X144761905Y-129952381D01*
X144714286Y-130428571D01*
X144761905Y-130380952D01*
X144857143Y-130333333D01*
X145095239Y-130333333D01*
X145190477Y-130380952D01*
X145238096Y-130428571D01*
X145285715Y-130523810D01*
X145285715Y-130761905D01*
X145238096Y-130857143D01*
X145190477Y-130904762D01*
X145095239Y-130952381D01*
X144857143Y-130952381D01*
X144761905Y-130904762D01*
X144714286Y-130857143D01*
X174261905Y-130952381D02*
X174261905Y-129952381D01*
X174642858Y-129952381D01*
X174738096Y-130000000D01*
X174785715Y-130047619D01*
X174833334Y-130142857D01*
X174833334Y-130285714D01*
X174785715Y-130380952D01*
X174738096Y-130428571D01*
X174642858Y-130476190D01*
X174261905Y-130476190D01*
X175404762Y-130380952D02*
X175309524Y-130333333D01*
X175261905Y-130285714D01*
X175214286Y-130190476D01*
X175214286Y-130142857D01*
X175261905Y-130047619D01*
X175309524Y-130000000D01*
X175404762Y-129952381D01*
X175595239Y-129952381D01*
X175690477Y-130000000D01*
X175738096Y-130047619D01*
X175785715Y-130142857D01*
X175785715Y-130190476D01*
X175738096Y-130285714D01*
X175690477Y-130333333D01*
X175595239Y-130380952D01*
X175404762Y-130380952D01*
X175309524Y-130428571D01*
X175261905Y-130476190D01*
X175214286Y-130571429D01*
X175214286Y-130761905D01*
X175261905Y-130857143D01*
X175309524Y-130904762D01*
X175404762Y-130952381D01*
X175595239Y-130952381D01*
X175690477Y-130904762D01*
X175738096Y-130857143D01*
X175785715Y-130761905D01*
X175785715Y-130571429D01*
X175738096Y-130476190D01*
X175690477Y-130428571D01*
X175595239Y-130380952D01*
M02*
