G04 #@! TF.FileFunction,Legend,Top*
%FSLAX46Y46*%
G04 Gerber Fmt 4.6, Leading zero omitted, Abs format (unit mm)*
G04 Created by KiCad (PCBNEW 4.0.1-stable) date Friday, March 04, 2016 'AMt' 01:06:34 AM*
%MOMM*%
G01*
G04 APERTURE LIST*
%ADD10C,0.100000*%
%ADD11C,0.300000*%
%ADD12C,0.150000*%
%ADD13C,0.220000*%
%ADD14C,0.010000*%
G04 APERTURE END LIST*
D10*
D11*
X110564286Y-121978571D02*
X110064286Y-121264286D01*
X109707143Y-121978571D02*
X109707143Y-120478571D01*
X110278571Y-120478571D01*
X110421429Y-120550000D01*
X110492857Y-120621429D01*
X110564286Y-120764286D01*
X110564286Y-120978571D01*
X110492857Y-121121429D01*
X110421429Y-121192857D01*
X110278571Y-121264286D01*
X109707143Y-121264286D01*
X110214286Y-116192857D02*
X109714286Y-116192857D01*
X109714286Y-116978571D02*
X109714286Y-115478571D01*
X110428572Y-115478571D01*
D12*
X116600000Y-123250000D02*
G75*
G03X119350000Y-126000000I2750000J0D01*
G01*
X119350000Y-90000000D02*
G75*
G03X116600000Y-92750000I0J-2750000D01*
G01*
X116600000Y-92750000D02*
X116600000Y-123250000D01*
D13*
X167696428Y-124375952D02*
X167577381Y-124435476D01*
X167339285Y-124435476D01*
X167220238Y-124375952D01*
X167160714Y-124316429D01*
X167101190Y-124197381D01*
X167101190Y-123840238D01*
X167160714Y-123721190D01*
X167220238Y-123661667D01*
X167339285Y-123602143D01*
X167577381Y-123602143D01*
X167696428Y-123661667D01*
X168232143Y-124435476D02*
X168232143Y-123185476D01*
X168351191Y-123959286D02*
X168708334Y-124435476D01*
X168708334Y-123602143D02*
X168232143Y-124078333D01*
X169779762Y-124435476D02*
X169779762Y-123185476D01*
X169779762Y-124375952D02*
X169660715Y-124435476D01*
X169422619Y-124435476D01*
X169303572Y-124375952D01*
X169244048Y-124316429D01*
X169184524Y-124197381D01*
X169184524Y-123840238D01*
X169244048Y-123721190D01*
X169303572Y-123661667D01*
X169422619Y-123602143D01*
X169660715Y-123602143D01*
X169779762Y-123661667D01*
X170375000Y-124316429D02*
X170434524Y-124375952D01*
X170375000Y-124435476D01*
X170315476Y-124375952D01*
X170375000Y-124316429D01*
X170375000Y-124435476D01*
X170791667Y-123602143D02*
X171267857Y-123602143D01*
X170970238Y-123185476D02*
X170970238Y-124256905D01*
X171029762Y-124375952D01*
X171148809Y-124435476D01*
X171267857Y-124435476D01*
X172160715Y-124375952D02*
X172041667Y-124435476D01*
X171803572Y-124435476D01*
X171684524Y-124375952D01*
X171625000Y-124256905D01*
X171625000Y-123780714D01*
X171684524Y-123661667D01*
X171803572Y-123602143D01*
X172041667Y-123602143D01*
X172160715Y-123661667D01*
X172220238Y-123780714D01*
X172220238Y-123899762D01*
X171625000Y-124018810D01*
X173291667Y-124375952D02*
X173172620Y-124435476D01*
X172934524Y-124435476D01*
X172815477Y-124375952D01*
X172755953Y-124316429D01*
X172696429Y-124197381D01*
X172696429Y-123840238D01*
X172755953Y-123721190D01*
X172815477Y-123661667D01*
X172934524Y-123602143D01*
X173172620Y-123602143D01*
X173291667Y-123661667D01*
X173827382Y-124435476D02*
X173827382Y-123185476D01*
X174363096Y-124435476D02*
X174363096Y-123780714D01*
X174303573Y-123661667D01*
X174184525Y-123602143D01*
X174005953Y-123602143D01*
X173886906Y-123661667D01*
X173827382Y-123721190D01*
X175851191Y-123125952D02*
X174779763Y-124733095D01*
X176803572Y-123602143D02*
X176803572Y-124614048D01*
X176744049Y-124733095D01*
X176684525Y-124792619D01*
X176565477Y-124852143D01*
X176386906Y-124852143D01*
X176267858Y-124792619D01*
X176803572Y-124375952D02*
X176684525Y-124435476D01*
X176446429Y-124435476D01*
X176327382Y-124375952D01*
X176267858Y-124316429D01*
X176208334Y-124197381D01*
X176208334Y-123840238D01*
X176267858Y-123721190D01*
X176327382Y-123661667D01*
X176446429Y-123602143D01*
X176684525Y-123602143D01*
X176803572Y-123661667D01*
X177398810Y-123959286D02*
X178351191Y-123959286D01*
X178767858Y-123602143D02*
X179244048Y-123602143D01*
X178946429Y-123185476D02*
X178946429Y-124256905D01*
X179005953Y-124375952D01*
X179125000Y-124435476D01*
X179244048Y-124435476D01*
X180136906Y-124375952D02*
X180017858Y-124435476D01*
X179779763Y-124435476D01*
X179660715Y-124375952D01*
X179601191Y-124256905D01*
X179601191Y-123780714D01*
X179660715Y-123661667D01*
X179779763Y-123602143D01*
X180017858Y-123602143D01*
X180136906Y-123661667D01*
X180196429Y-123780714D01*
X180196429Y-123899762D01*
X179601191Y-124018810D01*
X180672620Y-124375952D02*
X180791668Y-124435476D01*
X181029763Y-124435476D01*
X181148811Y-124375952D01*
X181208335Y-124256905D01*
X181208335Y-124197381D01*
X181148811Y-124078333D01*
X181029763Y-124018810D01*
X180851192Y-124018810D01*
X180732144Y-123959286D01*
X180672620Y-123840238D01*
X180672620Y-123780714D01*
X180732144Y-123661667D01*
X180851192Y-123602143D01*
X181029763Y-123602143D01*
X181148811Y-123661667D01*
X181565478Y-123602143D02*
X182041668Y-123602143D01*
X181744049Y-123185476D02*
X181744049Y-124256905D01*
X181803573Y-124375952D01*
X181922620Y-124435476D01*
X182041668Y-124435476D01*
X182458335Y-123959286D02*
X183410716Y-123959286D01*
X184005954Y-124435476D02*
X184005954Y-123185476D01*
X184005954Y-123661667D02*
X184125002Y-123602143D01*
X184363097Y-123602143D01*
X184482145Y-123661667D01*
X184541668Y-123721190D01*
X184601192Y-123840238D01*
X184601192Y-124197381D01*
X184541668Y-124316429D01*
X184482145Y-124375952D01*
X184363097Y-124435476D01*
X184125002Y-124435476D01*
X184005954Y-124375952D01*
X185315477Y-124435476D02*
X185196430Y-124375952D01*
X185136906Y-124316429D01*
X185077382Y-124197381D01*
X185077382Y-123840238D01*
X185136906Y-123721190D01*
X185196430Y-123661667D01*
X185315477Y-123602143D01*
X185494049Y-123602143D01*
X185613097Y-123661667D01*
X185672620Y-123721190D01*
X185732144Y-123840238D01*
X185732144Y-124197381D01*
X185672620Y-124316429D01*
X185613097Y-124375952D01*
X185494049Y-124435476D01*
X185315477Y-124435476D01*
X186089287Y-123602143D02*
X186565477Y-123602143D01*
X186267858Y-123185476D02*
X186267858Y-124256905D01*
X186327382Y-124375952D01*
X186446429Y-124435476D01*
X186565477Y-124435476D01*
X187875001Y-123125952D02*
X186803573Y-124733095D01*
X188172620Y-123602143D02*
X188470239Y-124435476D01*
X188767859Y-123602143D01*
X189184525Y-123304524D02*
X189244049Y-123245000D01*
X189363097Y-123185476D01*
X189660716Y-123185476D01*
X189779763Y-123245000D01*
X189839287Y-123304524D01*
X189898811Y-123423571D01*
X189898811Y-123542619D01*
X189839287Y-123721190D01*
X189125001Y-124435476D01*
X189898811Y-124435476D01*
D11*
X138447142Y-106592857D02*
X138947142Y-106592857D01*
X139161428Y-107378571D02*
X138447142Y-107378571D01*
X138447142Y-105878571D01*
X139161428Y-105878571D01*
X139661428Y-107378571D02*
X140447142Y-106378571D01*
X139661428Y-106378571D02*
X140447142Y-107378571D01*
X141018571Y-106378571D02*
X141018571Y-107878571D01*
X141018571Y-106450000D02*
X141161428Y-106378571D01*
X141447142Y-106378571D01*
X141589999Y-106450000D01*
X141661428Y-106521429D01*
X141732857Y-106664286D01*
X141732857Y-107092857D01*
X141661428Y-107235714D01*
X141589999Y-107307143D01*
X141447142Y-107378571D01*
X141161428Y-107378571D01*
X141018571Y-107307143D01*
X143018571Y-107378571D02*
X143018571Y-106592857D01*
X142947142Y-106450000D01*
X142804285Y-106378571D01*
X142518571Y-106378571D01*
X142375714Y-106450000D01*
X143018571Y-107307143D02*
X142875714Y-107378571D01*
X142518571Y-107378571D01*
X142375714Y-107307143D01*
X142304285Y-107164286D01*
X142304285Y-107021429D01*
X142375714Y-106878571D01*
X142518571Y-106807143D01*
X142875714Y-106807143D01*
X143018571Y-106735714D01*
X143732857Y-106378571D02*
X143732857Y-107378571D01*
X143732857Y-106521429D02*
X143804285Y-106450000D01*
X143947143Y-106378571D01*
X144161428Y-106378571D01*
X144304285Y-106450000D01*
X144375714Y-106592857D01*
X144375714Y-107378571D01*
X145018571Y-107307143D02*
X145161428Y-107378571D01*
X145447143Y-107378571D01*
X145590000Y-107307143D01*
X145661428Y-107164286D01*
X145661428Y-107092857D01*
X145590000Y-106950000D01*
X145447143Y-106878571D01*
X145232857Y-106878571D01*
X145090000Y-106807143D01*
X145018571Y-106664286D01*
X145018571Y-106592857D01*
X145090000Y-106450000D01*
X145232857Y-106378571D01*
X145447143Y-106378571D01*
X145590000Y-106450000D01*
X146304286Y-107378571D02*
X146304286Y-106378571D01*
X146304286Y-105878571D02*
X146232857Y-105950000D01*
X146304286Y-106021429D01*
X146375714Y-105950000D01*
X146304286Y-105878571D01*
X146304286Y-106021429D01*
X147232858Y-107378571D02*
X147090000Y-107307143D01*
X147018572Y-107235714D01*
X146947143Y-107092857D01*
X146947143Y-106664286D01*
X147018572Y-106521429D01*
X147090000Y-106450000D01*
X147232858Y-106378571D01*
X147447143Y-106378571D01*
X147590000Y-106450000D01*
X147661429Y-106521429D01*
X147732858Y-106664286D01*
X147732858Y-107092857D01*
X147661429Y-107235714D01*
X147590000Y-107307143D01*
X147447143Y-107378571D01*
X147232858Y-107378571D01*
X148375715Y-106378571D02*
X148375715Y-107378571D01*
X148375715Y-106521429D02*
X148447143Y-106450000D01*
X148590001Y-106378571D01*
X148804286Y-106378571D01*
X148947143Y-106450000D01*
X149018572Y-106592857D01*
X149018572Y-107378571D01*
X149661429Y-107307143D02*
X149804286Y-107378571D01*
X150090001Y-107378571D01*
X150232858Y-107307143D01*
X150304286Y-107164286D01*
X150304286Y-107092857D01*
X150232858Y-106950000D01*
X150090001Y-106878571D01*
X149875715Y-106878571D01*
X149732858Y-106807143D01*
X149661429Y-106664286D01*
X149661429Y-106592857D01*
X149732858Y-106450000D01*
X149875715Y-106378571D01*
X150090001Y-106378571D01*
X150232858Y-106450000D01*
X140947143Y-108350000D02*
X140804286Y-108278571D01*
X140590000Y-108278571D01*
X140375715Y-108350000D01*
X140232857Y-108492857D01*
X140161429Y-108635714D01*
X140090000Y-108921429D01*
X140090000Y-109135714D01*
X140161429Y-109421429D01*
X140232857Y-109564286D01*
X140375715Y-109707143D01*
X140590000Y-109778571D01*
X140732857Y-109778571D01*
X140947143Y-109707143D01*
X141018572Y-109635714D01*
X141018572Y-109135714D01*
X140732857Y-109135714D01*
X141875715Y-109778571D02*
X141732857Y-109707143D01*
X141661429Y-109635714D01*
X141590000Y-109492857D01*
X141590000Y-109064286D01*
X141661429Y-108921429D01*
X141732857Y-108850000D01*
X141875715Y-108778571D01*
X142090000Y-108778571D01*
X142232857Y-108850000D01*
X142304286Y-108921429D01*
X142375715Y-109064286D01*
X142375715Y-109492857D01*
X142304286Y-109635714D01*
X142232857Y-109707143D01*
X142090000Y-109778571D01*
X141875715Y-109778571D01*
X144161429Y-109778571D02*
X144161429Y-108278571D01*
X144161429Y-108992857D02*
X145018572Y-108992857D01*
X145018572Y-109778571D02*
X145018572Y-108278571D01*
X146304286Y-109707143D02*
X146161429Y-109778571D01*
X145875715Y-109778571D01*
X145732858Y-109707143D01*
X145661429Y-109564286D01*
X145661429Y-108992857D01*
X145732858Y-108850000D01*
X145875715Y-108778571D01*
X146161429Y-108778571D01*
X146304286Y-108850000D01*
X146375715Y-108992857D01*
X146375715Y-109135714D01*
X145661429Y-109278571D01*
X147018572Y-109778571D02*
X147018572Y-108778571D01*
X147018572Y-109064286D02*
X147090000Y-108921429D01*
X147161429Y-108850000D01*
X147304286Y-108778571D01*
X147447143Y-108778571D01*
X148518571Y-109707143D02*
X148375714Y-109778571D01*
X148090000Y-109778571D01*
X147947143Y-109707143D01*
X147875714Y-109564286D01*
X147875714Y-108992857D01*
X147947143Y-108850000D01*
X148090000Y-108778571D01*
X148375714Y-108778571D01*
X148518571Y-108850000D01*
X148590000Y-108992857D01*
X148590000Y-109135714D01*
X147875714Y-109278571D01*
X167818572Y-106872857D02*
X167318572Y-106872857D01*
X167318572Y-107658571D02*
X167318572Y-106158571D01*
X168032858Y-106158571D01*
X168818572Y-107658571D02*
X168675714Y-107587143D01*
X168604286Y-107444286D01*
X168604286Y-106158571D01*
X169390000Y-107658571D02*
X169390000Y-106658571D01*
X169390000Y-106158571D02*
X169318571Y-106230000D01*
X169390000Y-106301429D01*
X169461428Y-106230000D01*
X169390000Y-106158571D01*
X169390000Y-106301429D01*
X170747143Y-106658571D02*
X170747143Y-107872857D01*
X170675714Y-108015714D01*
X170604286Y-108087143D01*
X170461429Y-108158571D01*
X170247143Y-108158571D01*
X170104286Y-108087143D01*
X170747143Y-107587143D02*
X170604286Y-107658571D01*
X170318572Y-107658571D01*
X170175714Y-107587143D01*
X170104286Y-107515714D01*
X170032857Y-107372857D01*
X170032857Y-106944286D01*
X170104286Y-106801429D01*
X170175714Y-106730000D01*
X170318572Y-106658571D01*
X170604286Y-106658571D01*
X170747143Y-106730000D01*
X171461429Y-107658571D02*
X171461429Y-106158571D01*
X172104286Y-107658571D02*
X172104286Y-106872857D01*
X172032857Y-106730000D01*
X171890000Y-106658571D01*
X171675715Y-106658571D01*
X171532857Y-106730000D01*
X171461429Y-106801429D01*
X172604286Y-106658571D02*
X173175715Y-106658571D01*
X172818572Y-106158571D02*
X172818572Y-107444286D01*
X172890000Y-107587143D01*
X173032858Y-107658571D01*
X173175715Y-107658571D01*
X175675715Y-107515714D02*
X175604286Y-107587143D01*
X175390000Y-107658571D01*
X175247143Y-107658571D01*
X175032858Y-107587143D01*
X174890000Y-107444286D01*
X174818572Y-107301429D01*
X174747143Y-107015714D01*
X174747143Y-106801429D01*
X174818572Y-106515714D01*
X174890000Y-106372857D01*
X175032858Y-106230000D01*
X175247143Y-106158571D01*
X175390000Y-106158571D01*
X175604286Y-106230000D01*
X175675715Y-106301429D01*
X176532858Y-107658571D02*
X176390000Y-107587143D01*
X176318572Y-107515714D01*
X176247143Y-107372857D01*
X176247143Y-106944286D01*
X176318572Y-106801429D01*
X176390000Y-106730000D01*
X176532858Y-106658571D01*
X176747143Y-106658571D01*
X176890000Y-106730000D01*
X176961429Y-106801429D01*
X177032858Y-106944286D01*
X177032858Y-107372857D01*
X176961429Y-107515714D01*
X176890000Y-107587143D01*
X176747143Y-107658571D01*
X176532858Y-107658571D01*
X177675715Y-106658571D02*
X177675715Y-107658571D01*
X177675715Y-106801429D02*
X177747143Y-106730000D01*
X177890001Y-106658571D01*
X178104286Y-106658571D01*
X178247143Y-106730000D01*
X178318572Y-106872857D01*
X178318572Y-107658571D01*
X178818572Y-106658571D02*
X179390001Y-106658571D01*
X179032858Y-106158571D02*
X179032858Y-107444286D01*
X179104286Y-107587143D01*
X179247144Y-107658571D01*
X179390001Y-107658571D01*
X179890001Y-107658571D02*
X179890001Y-106658571D01*
X179890001Y-106944286D02*
X179961429Y-106801429D01*
X180032858Y-106730000D01*
X180175715Y-106658571D01*
X180318572Y-106658571D01*
X181032858Y-107658571D02*
X180890000Y-107587143D01*
X180818572Y-107515714D01*
X180747143Y-107372857D01*
X180747143Y-106944286D01*
X180818572Y-106801429D01*
X180890000Y-106730000D01*
X181032858Y-106658571D01*
X181247143Y-106658571D01*
X181390000Y-106730000D01*
X181461429Y-106801429D01*
X181532858Y-106944286D01*
X181532858Y-107372857D01*
X181461429Y-107515714D01*
X181390000Y-107587143D01*
X181247143Y-107658571D01*
X181032858Y-107658571D01*
X182390001Y-107658571D02*
X182247143Y-107587143D01*
X182175715Y-107444286D01*
X182175715Y-106158571D01*
X183175715Y-107658571D02*
X183032857Y-107587143D01*
X182961429Y-107444286D01*
X182961429Y-106158571D01*
X184318571Y-107587143D02*
X184175714Y-107658571D01*
X183890000Y-107658571D01*
X183747143Y-107587143D01*
X183675714Y-107444286D01*
X183675714Y-106872857D01*
X183747143Y-106730000D01*
X183890000Y-106658571D01*
X184175714Y-106658571D01*
X184318571Y-106730000D01*
X184390000Y-106872857D01*
X184390000Y-107015714D01*
X183675714Y-107158571D01*
X185032857Y-107658571D02*
X185032857Y-106658571D01*
X185032857Y-106944286D02*
X185104285Y-106801429D01*
X185175714Y-106730000D01*
X185318571Y-106658571D01*
X185461428Y-106658571D01*
X185889999Y-107587143D02*
X186032856Y-107658571D01*
X186318571Y-107658571D01*
X186461428Y-107587143D01*
X186532856Y-107444286D01*
X186532856Y-107372857D01*
X186461428Y-107230000D01*
X186318571Y-107158571D01*
X186104285Y-107158571D01*
X185961428Y-107087143D01*
X185889999Y-106944286D01*
X185889999Y-106872857D01*
X185961428Y-106730000D01*
X186104285Y-106658571D01*
X186318571Y-106658571D01*
X186461428Y-106730000D01*
X173497143Y-108630000D02*
X173354286Y-108558571D01*
X173140000Y-108558571D01*
X172925715Y-108630000D01*
X172782857Y-108772857D01*
X172711429Y-108915714D01*
X172640000Y-109201429D01*
X172640000Y-109415714D01*
X172711429Y-109701429D01*
X172782857Y-109844286D01*
X172925715Y-109987143D01*
X173140000Y-110058571D01*
X173282857Y-110058571D01*
X173497143Y-109987143D01*
X173568572Y-109915714D01*
X173568572Y-109415714D01*
X173282857Y-109415714D01*
X174425715Y-110058571D02*
X174282857Y-109987143D01*
X174211429Y-109915714D01*
X174140000Y-109772857D01*
X174140000Y-109344286D01*
X174211429Y-109201429D01*
X174282857Y-109130000D01*
X174425715Y-109058571D01*
X174640000Y-109058571D01*
X174782857Y-109130000D01*
X174854286Y-109201429D01*
X174925715Y-109344286D01*
X174925715Y-109772857D01*
X174854286Y-109915714D01*
X174782857Y-109987143D01*
X174640000Y-110058571D01*
X174425715Y-110058571D01*
X176711429Y-110058571D02*
X176711429Y-108558571D01*
X176711429Y-109272857D02*
X177568572Y-109272857D01*
X177568572Y-110058571D02*
X177568572Y-108558571D01*
X178854286Y-109987143D02*
X178711429Y-110058571D01*
X178425715Y-110058571D01*
X178282858Y-109987143D01*
X178211429Y-109844286D01*
X178211429Y-109272857D01*
X178282858Y-109130000D01*
X178425715Y-109058571D01*
X178711429Y-109058571D01*
X178854286Y-109130000D01*
X178925715Y-109272857D01*
X178925715Y-109415714D01*
X178211429Y-109558571D01*
X179568572Y-110058571D02*
X179568572Y-109058571D01*
X179568572Y-109344286D02*
X179640000Y-109201429D01*
X179711429Y-109130000D01*
X179854286Y-109058571D01*
X179997143Y-109058571D01*
X181068571Y-109987143D02*
X180925714Y-110058571D01*
X180640000Y-110058571D01*
X180497143Y-109987143D01*
X180425714Y-109844286D01*
X180425714Y-109272857D01*
X180497143Y-109130000D01*
X180640000Y-109058571D01*
X180925714Y-109058571D01*
X181068571Y-109130000D01*
X181140000Y-109272857D01*
X181140000Y-109415714D01*
X180425714Y-109558571D01*
D12*
X187939048Y-112302381D02*
X188558096Y-112302381D01*
X188224762Y-112683333D01*
X188367620Y-112683333D01*
X188462858Y-112730952D01*
X188510477Y-112778571D01*
X188558096Y-112873810D01*
X188558096Y-113111905D01*
X188510477Y-113207143D01*
X188462858Y-113254762D01*
X188367620Y-113302381D01*
X188081905Y-113302381D01*
X187986667Y-113254762D01*
X187939048Y-113207143D01*
X188986667Y-113207143D02*
X189034286Y-113254762D01*
X188986667Y-113302381D01*
X188939048Y-113254762D01*
X188986667Y-113207143D01*
X188986667Y-113302381D01*
X189939048Y-112302381D02*
X189462857Y-112302381D01*
X189415238Y-112778571D01*
X189462857Y-112730952D01*
X189558095Y-112683333D01*
X189796191Y-112683333D01*
X189891429Y-112730952D01*
X189939048Y-112778571D01*
X189986667Y-112873810D01*
X189986667Y-113111905D01*
X189939048Y-113207143D01*
X189891429Y-113254762D01*
X189796191Y-113302381D01*
X189558095Y-113302381D01*
X189462857Y-113254762D01*
X189415238Y-113207143D01*
X190415238Y-113302381D02*
X190415238Y-112635714D01*
X190415238Y-112730952D02*
X190462857Y-112683333D01*
X190558095Y-112635714D01*
X190700953Y-112635714D01*
X190796191Y-112683333D01*
X190843810Y-112778571D01*
X190843810Y-113302381D01*
X190843810Y-112778571D02*
X190891429Y-112683333D01*
X190986667Y-112635714D01*
X191129524Y-112635714D01*
X191224762Y-112683333D01*
X191272381Y-112778571D01*
X191272381Y-113302381D01*
X191748571Y-113302381D02*
X191748571Y-112635714D01*
X191748571Y-112730952D02*
X191796190Y-112683333D01*
X191891428Y-112635714D01*
X192034286Y-112635714D01*
X192129524Y-112683333D01*
X192177143Y-112778571D01*
X192177143Y-113302381D01*
X192177143Y-112778571D02*
X192224762Y-112683333D01*
X192320000Y-112635714D01*
X192462857Y-112635714D01*
X192558095Y-112683333D01*
X192605714Y-112778571D01*
X192605714Y-113302381D01*
X157049048Y-118002381D02*
X157668096Y-118002381D01*
X157334762Y-118383333D01*
X157477620Y-118383333D01*
X157572858Y-118430952D01*
X157620477Y-118478571D01*
X157668096Y-118573810D01*
X157668096Y-118811905D01*
X157620477Y-118907143D01*
X157572858Y-118954762D01*
X157477620Y-119002381D01*
X157191905Y-119002381D01*
X157096667Y-118954762D01*
X157049048Y-118907143D01*
X158096667Y-118907143D02*
X158144286Y-118954762D01*
X158096667Y-119002381D01*
X158049048Y-118954762D01*
X158096667Y-118907143D01*
X158096667Y-119002381D01*
X159049048Y-118002381D02*
X158572857Y-118002381D01*
X158525238Y-118478571D01*
X158572857Y-118430952D01*
X158668095Y-118383333D01*
X158906191Y-118383333D01*
X159001429Y-118430952D01*
X159049048Y-118478571D01*
X159096667Y-118573810D01*
X159096667Y-118811905D01*
X159049048Y-118907143D01*
X159001429Y-118954762D01*
X158906191Y-119002381D01*
X158668095Y-119002381D01*
X158572857Y-118954762D01*
X158525238Y-118907143D01*
X159525238Y-119002381D02*
X159525238Y-118335714D01*
X159525238Y-118430952D02*
X159572857Y-118383333D01*
X159668095Y-118335714D01*
X159810953Y-118335714D01*
X159906191Y-118383333D01*
X159953810Y-118478571D01*
X159953810Y-119002381D01*
X159953810Y-118478571D02*
X160001429Y-118383333D01*
X160096667Y-118335714D01*
X160239524Y-118335714D01*
X160334762Y-118383333D01*
X160382381Y-118478571D01*
X160382381Y-119002381D01*
X160858571Y-119002381D02*
X160858571Y-118335714D01*
X160858571Y-118430952D02*
X160906190Y-118383333D01*
X161001428Y-118335714D01*
X161144286Y-118335714D01*
X161239524Y-118383333D01*
X161287143Y-118478571D01*
X161287143Y-119002381D01*
X161287143Y-118478571D02*
X161334762Y-118383333D01*
X161430000Y-118335714D01*
X161572857Y-118335714D01*
X161668095Y-118383333D01*
X161715714Y-118478571D01*
X161715714Y-119002381D01*
D11*
X112607143Y-135000000D02*
X112464286Y-134928571D01*
X112250000Y-134928571D01*
X112035715Y-135000000D01*
X111892857Y-135142857D01*
X111821429Y-135285714D01*
X111750000Y-135571429D01*
X111750000Y-135785714D01*
X111821429Y-136071429D01*
X111892857Y-136214286D01*
X112035715Y-136357143D01*
X112250000Y-136428571D01*
X112392857Y-136428571D01*
X112607143Y-136357143D01*
X112678572Y-136285714D01*
X112678572Y-135785714D01*
X112392857Y-135785714D01*
X113607143Y-134928571D02*
X113892857Y-134928571D01*
X114035715Y-135000000D01*
X114178572Y-135142857D01*
X114250000Y-135428571D01*
X114250000Y-135928571D01*
X114178572Y-136214286D01*
X114035715Y-136357143D01*
X113892857Y-136428571D01*
X113607143Y-136428571D01*
X113464286Y-136357143D01*
X113321429Y-136214286D01*
X113250000Y-135928571D01*
X113250000Y-135428571D01*
X113321429Y-135142857D01*
X113464286Y-135000000D01*
X113607143Y-134928571D01*
X128107143Y-134392857D02*
X127607143Y-134392857D01*
X127607143Y-135178571D02*
X127607143Y-133678571D01*
X128321429Y-133678571D01*
X128821428Y-134750000D02*
X129535714Y-134750000D01*
X128678571Y-135178571D02*
X129178571Y-133678571D01*
X129678571Y-135178571D01*
X130178571Y-135178571D02*
X130178571Y-133678571D01*
X131607143Y-135178571D02*
X130892857Y-135178571D01*
X130892857Y-133678571D01*
X128107143Y-130892857D02*
X128321429Y-130964286D01*
X128392857Y-131035714D01*
X128464286Y-131178571D01*
X128464286Y-131392857D01*
X128392857Y-131535714D01*
X128321429Y-131607143D01*
X128178571Y-131678571D01*
X127607143Y-131678571D01*
X127607143Y-130178571D01*
X128107143Y-130178571D01*
X128250000Y-130250000D01*
X128321429Y-130321429D01*
X128392857Y-130464286D01*
X128392857Y-130607143D01*
X128321429Y-130750000D01*
X128250000Y-130821429D01*
X128107143Y-130892857D01*
X127607143Y-130892857D01*
X129107143Y-130178571D02*
X129107143Y-131392857D01*
X129178571Y-131535714D01*
X129250000Y-131607143D01*
X129392857Y-131678571D01*
X129678571Y-131678571D01*
X129821429Y-131607143D01*
X129892857Y-131535714D01*
X129964286Y-131392857D01*
X129964286Y-130178571D01*
X130607143Y-131607143D02*
X130821429Y-131678571D01*
X131178572Y-131678571D01*
X131321429Y-131607143D01*
X131392858Y-131535714D01*
X131464286Y-131392857D01*
X131464286Y-131250000D01*
X131392858Y-131107143D01*
X131321429Y-131035714D01*
X131178572Y-130964286D01*
X130892858Y-130892857D01*
X130750000Y-130821429D01*
X130678572Y-130750000D01*
X130607143Y-130607143D01*
X130607143Y-130464286D01*
X130678572Y-130321429D01*
X130750000Y-130250000D01*
X130892858Y-130178571D01*
X131250000Y-130178571D01*
X131464286Y-130250000D01*
X132392857Y-130964286D02*
X132392857Y-131678571D01*
X131892857Y-130178571D02*
X132392857Y-130964286D01*
X132892857Y-130178571D01*
X127607143Y-127928571D02*
X127607143Y-126428571D01*
X128178571Y-126428571D01*
X128321429Y-126500000D01*
X128392857Y-126571429D01*
X128464286Y-126714286D01*
X128464286Y-126928571D01*
X128392857Y-127071429D01*
X128321429Y-127142857D01*
X128178571Y-127214286D01*
X127607143Y-127214286D01*
X129035714Y-127500000D02*
X129750000Y-127500000D01*
X128892857Y-127928571D02*
X129392857Y-126428571D01*
X129892857Y-127928571D01*
X130321428Y-127857143D02*
X130535714Y-127928571D01*
X130892857Y-127928571D01*
X131035714Y-127857143D01*
X131107143Y-127785714D01*
X131178571Y-127642857D01*
X131178571Y-127500000D01*
X131107143Y-127357143D01*
X131035714Y-127285714D01*
X130892857Y-127214286D01*
X130607143Y-127142857D01*
X130464285Y-127071429D01*
X130392857Y-127000000D01*
X130321428Y-126857143D01*
X130321428Y-126714286D01*
X130392857Y-126571429D01*
X130464285Y-126500000D01*
X130607143Y-126428571D01*
X130964285Y-126428571D01*
X131178571Y-126500000D01*
X131749999Y-127857143D02*
X131964285Y-127928571D01*
X132321428Y-127928571D01*
X132464285Y-127857143D01*
X132535714Y-127785714D01*
X132607142Y-127642857D01*
X132607142Y-127500000D01*
X132535714Y-127357143D01*
X132464285Y-127285714D01*
X132321428Y-127214286D01*
X132035714Y-127142857D01*
X131892856Y-127071429D01*
X131821428Y-127000000D01*
X131749999Y-126857143D01*
X131749999Y-126714286D01*
X131821428Y-126571429D01*
X131892856Y-126500000D01*
X132035714Y-126428571D01*
X132392856Y-126428571D01*
X132607142Y-126500000D01*
X120214287Y-100928571D02*
X119500001Y-100928571D01*
X119428572Y-101642857D01*
X119500001Y-101571429D01*
X119642858Y-101500000D01*
X120000001Y-101500000D01*
X120142858Y-101571429D01*
X120214287Y-101642857D01*
X120285715Y-101785714D01*
X120285715Y-102142857D01*
X120214287Y-102285714D01*
X120142858Y-102357143D01*
X120000001Y-102428571D01*
X119642858Y-102428571D01*
X119500001Y-102357143D01*
X119428572Y-102285714D01*
X120714286Y-100928571D02*
X121214286Y-102428571D01*
X121714286Y-100928571D01*
X121695715Y-105668571D02*
X122624286Y-105668571D01*
X122124286Y-106240000D01*
X122338572Y-106240000D01*
X122481429Y-106311429D01*
X122552858Y-106382857D01*
X122624286Y-106525714D01*
X122624286Y-106882857D01*
X122552858Y-107025714D01*
X122481429Y-107097143D01*
X122338572Y-107168571D01*
X121910000Y-107168571D01*
X121767143Y-107097143D01*
X121695715Y-107025714D01*
X123267143Y-107025714D02*
X123338571Y-107097143D01*
X123267143Y-107168571D01*
X123195714Y-107097143D01*
X123267143Y-107025714D01*
X123267143Y-107168571D01*
X123838572Y-105668571D02*
X124767143Y-105668571D01*
X124267143Y-106240000D01*
X124481429Y-106240000D01*
X124624286Y-106311429D01*
X124695715Y-106382857D01*
X124767143Y-106525714D01*
X124767143Y-106882857D01*
X124695715Y-107025714D01*
X124624286Y-107097143D01*
X124481429Y-107168571D01*
X124052857Y-107168571D01*
X123910000Y-107097143D01*
X123838572Y-107025714D01*
X125195714Y-105668571D02*
X125695714Y-107168571D01*
X126195714Y-105668571D01*
X121607143Y-110500000D02*
X121464286Y-110428571D01*
X121250000Y-110428571D01*
X121035715Y-110500000D01*
X120892857Y-110642857D01*
X120821429Y-110785714D01*
X120750000Y-111071429D01*
X120750000Y-111285714D01*
X120821429Y-111571429D01*
X120892857Y-111714286D01*
X121035715Y-111857143D01*
X121250000Y-111928571D01*
X121392857Y-111928571D01*
X121607143Y-111857143D01*
X121678572Y-111785714D01*
X121678572Y-111285714D01*
X121392857Y-111285714D01*
X122321429Y-111928571D02*
X122321429Y-110428571D01*
X123178572Y-111928571D01*
X123178572Y-110428571D01*
X123892858Y-111928571D02*
X123892858Y-110428571D01*
X124250001Y-110428571D01*
X124464286Y-110500000D01*
X124607144Y-110642857D01*
X124678572Y-110785714D01*
X124750001Y-111071429D01*
X124750001Y-111285714D01*
X124678572Y-111571429D01*
X124607144Y-111714286D01*
X124464286Y-111857143D01*
X124250001Y-111928571D01*
X123892858Y-111928571D01*
X118807143Y-122178571D02*
X118307143Y-121464286D01*
X117950000Y-122178571D02*
X117950000Y-120678571D01*
X118521428Y-120678571D01*
X118664286Y-120750000D01*
X118735714Y-120821429D01*
X118807143Y-120964286D01*
X118807143Y-121178571D01*
X118735714Y-121321429D01*
X118664286Y-121392857D01*
X118521428Y-121464286D01*
X117950000Y-121464286D01*
X120092857Y-121178571D02*
X120092857Y-122178571D01*
X119450000Y-121178571D02*
X119450000Y-121964286D01*
X119521428Y-122107143D01*
X119664286Y-122178571D01*
X119878571Y-122178571D01*
X120021428Y-122107143D01*
X120092857Y-122035714D01*
X120807143Y-121178571D02*
X120807143Y-122178571D01*
X120807143Y-121321429D02*
X120878571Y-121250000D01*
X121021429Y-121178571D01*
X121235714Y-121178571D01*
X121378571Y-121250000D01*
X121450000Y-121392857D01*
X121450000Y-122178571D01*
X118457143Y-116192857D02*
X117957143Y-116192857D01*
X117957143Y-116978571D02*
X117957143Y-115478571D01*
X118671429Y-115478571D01*
X119457143Y-116978571D02*
X119314285Y-116907143D01*
X119242857Y-116764286D01*
X119242857Y-115478571D01*
X120671428Y-116978571D02*
X120671428Y-116192857D01*
X120599999Y-116050000D01*
X120457142Y-115978571D01*
X120171428Y-115978571D01*
X120028571Y-116050000D01*
X120671428Y-116907143D02*
X120528571Y-116978571D01*
X120171428Y-116978571D01*
X120028571Y-116907143D01*
X119957142Y-116764286D01*
X119957142Y-116621429D01*
X120028571Y-116478571D01*
X120171428Y-116407143D01*
X120528571Y-116407143D01*
X120671428Y-116335714D01*
X121314285Y-116907143D02*
X121457142Y-116978571D01*
X121742857Y-116978571D01*
X121885714Y-116907143D01*
X121957142Y-116764286D01*
X121957142Y-116692857D01*
X121885714Y-116550000D01*
X121742857Y-116478571D01*
X121528571Y-116478571D01*
X121385714Y-116407143D01*
X121314285Y-116264286D01*
X121314285Y-116192857D01*
X121385714Y-116050000D01*
X121528571Y-115978571D01*
X121742857Y-115978571D01*
X121885714Y-116050000D01*
X122600000Y-116978571D02*
X122600000Y-115478571D01*
X123242857Y-116978571D02*
X123242857Y-116192857D01*
X123171428Y-116050000D01*
X123028571Y-115978571D01*
X122814286Y-115978571D01*
X122671428Y-116050000D01*
X122600000Y-116121429D01*
D12*
X196500000Y-92750000D02*
G75*
G03X193750000Y-90000000I-2750000J0D01*
G01*
X196500000Y-92750000D02*
X196500000Y-123250000D01*
X193750000Y-126000000D02*
G75*
G03X196500000Y-123250000I0J2750000D01*
G01*
X163350000Y-90000000D02*
X193750000Y-90000000D01*
X163250000Y-90000000D02*
G75*
G03X160500000Y-92750000I0J-2750000D01*
G01*
X163250000Y-126000000D02*
X193750000Y-126000000D01*
X160500000Y-92750000D02*
X160500000Y-123250000D01*
X160500000Y-123250000D02*
G75*
G03X163250000Y-126000000I2750000J0D01*
G01*
X130000000Y-123250000D02*
G75*
G03X132750000Y-126000000I2750000J0D01*
G01*
X163250000Y-126000000D02*
G75*
G03X166000000Y-123250000I0J2750000D01*
G01*
X166000000Y-92750000D02*
G75*
G03X163250000Y-90000000I-2750000J0D01*
G01*
X132750000Y-90000000D02*
G75*
G03X130000000Y-92750000I0J-2750000D01*
G01*
X119350000Y-126000000D02*
X163250000Y-126000000D01*
X130000000Y-92750000D02*
X130000000Y-123250000D01*
X166000000Y-92750000D02*
X166000000Y-123250000D01*
X119350000Y-90000000D02*
X163250000Y-90000000D01*
X112410000Y-137280000D02*
X125110000Y-137280000D01*
X125110000Y-137280000D02*
X125110000Y-139820000D01*
X125110000Y-139820000D02*
X112410000Y-139820000D01*
X109590000Y-137000000D02*
X111140000Y-137000000D01*
X112410000Y-137280000D02*
X112410000Y-139820000D01*
X111140000Y-140100000D02*
X109590000Y-140100000D01*
X109590000Y-140100000D02*
X109590000Y-137000000D01*
X135270000Y-139820000D02*
X196230000Y-139820000D01*
X196230000Y-134740000D02*
X132730000Y-134740000D01*
X196230000Y-134740000D02*
X196230000Y-139820000D01*
X132730000Y-134740000D02*
X132730000Y-137280000D01*
X132450000Y-138550000D02*
X132450000Y-140100000D01*
X132730000Y-137280000D02*
X135270000Y-137280000D01*
X135270000Y-137280000D02*
X135270000Y-139820000D01*
X132450000Y-140100000D02*
X134000000Y-140100000D01*
X118520000Y-98520000D02*
X126140000Y-98520000D01*
X118520000Y-95980000D02*
X126140000Y-95980000D01*
X115700000Y-95700000D02*
X117250000Y-95700000D01*
X126140000Y-98520000D02*
X126140000Y-95980000D01*
X118520000Y-95980000D02*
X118520000Y-98520000D01*
X117250000Y-98800000D02*
X115700000Y-98800000D01*
X115700000Y-98800000D02*
X115700000Y-95700000D01*
X135270000Y-89020000D02*
X196230000Y-89020000D01*
X196230000Y-83940000D02*
X132730000Y-83940000D01*
X196230000Y-83940000D02*
X196230000Y-89020000D01*
X132730000Y-83940000D02*
X132730000Y-86480000D01*
X132450000Y-87750000D02*
X132450000Y-89300000D01*
X132730000Y-86480000D02*
X135270000Y-86480000D01*
X135270000Y-86480000D02*
X135270000Y-89020000D01*
X132450000Y-89300000D02*
X134000000Y-89300000D01*
X114950340Y-109450180D02*
X115651380Y-109450180D01*
X115651380Y-109450180D02*
X115651380Y-109699100D01*
X115651380Y-112249160D02*
X115651380Y-112449820D01*
X115651380Y-112449820D02*
X114950340Y-112449820D01*
X112450000Y-122550000D02*
X112450000Y-123050000D01*
X115950000Y-123050000D02*
X112450000Y-123050000D01*
X115950000Y-122550000D02*
X115950000Y-123050000D01*
X115950000Y-114550000D02*
X112450000Y-114550000D01*
X112450000Y-114550000D02*
X112450000Y-115050000D01*
X115950000Y-114550000D02*
X115950000Y-115050000D01*
X114150000Y-103450000D02*
G75*
G03X114150000Y-103450000I-100000J0D01*
G01*
X113500000Y-103200000D02*
X114000000Y-103200000D01*
X113500000Y-100300000D02*
X113500000Y-103200000D01*
X114000000Y-100300000D02*
X113500000Y-100300000D01*
X114000000Y-103200000D02*
X114000000Y-100300000D01*
X113500000Y-104630000D02*
G75*
G03X113500000Y-104630000I-100000J0D01*
G01*
X113950000Y-104880000D02*
X113450000Y-104880000D01*
X113950000Y-107780000D02*
X113950000Y-104880000D01*
X113450000Y-107780000D02*
X113950000Y-107780000D01*
X113450000Y-104880000D02*
X113450000Y-107780000D01*
X124600000Y-134837969D02*
X126500000Y-134837969D01*
X124600000Y-133737969D02*
X126500000Y-133737969D01*
X125500000Y-134287969D02*
X125950000Y-134287969D01*
X125450000Y-134037969D02*
X125450000Y-134537969D01*
X125450000Y-134287969D02*
X125700000Y-134037969D01*
X125700000Y-134037969D02*
X125700000Y-134537969D01*
X125700000Y-134537969D02*
X125450000Y-134287969D01*
X124600000Y-131337969D02*
X126500000Y-131337969D01*
X124600000Y-130237969D02*
X126500000Y-130237969D01*
X125500000Y-130787969D02*
X125950000Y-130787969D01*
X125450000Y-130537969D02*
X125450000Y-131037969D01*
X125450000Y-130787969D02*
X125700000Y-130537969D01*
X125700000Y-130537969D02*
X125700000Y-131037969D01*
X125700000Y-131037969D02*
X125450000Y-130787969D01*
X124600000Y-127837969D02*
X126500000Y-127837969D01*
X124600000Y-126737969D02*
X126500000Y-126737969D01*
X125500000Y-127287969D02*
X125950000Y-127287969D01*
X125450000Y-127037969D02*
X125450000Y-127537969D01*
X125450000Y-127287969D02*
X125700000Y-127037969D01*
X125700000Y-127037969D02*
X125700000Y-127537969D01*
X125700000Y-127537969D02*
X125450000Y-127287969D01*
X121400000Y-133612969D02*
X122400000Y-133612969D01*
X122400000Y-134962969D02*
X121400000Y-134962969D01*
X121400000Y-130112969D02*
X122400000Y-130112969D01*
X122400000Y-131462969D02*
X121400000Y-131462969D01*
X121400000Y-126625000D02*
X122400000Y-126625000D01*
X122400000Y-127975000D02*
X121400000Y-127975000D01*
X114750714Y-130300000D02*
G75*
G03X114750714Y-130300000I-1750714J0D01*
G01*
X109775000Y-127075000D02*
X109900000Y-127075000D01*
X116225000Y-127075000D02*
X116100000Y-127075000D01*
X116225000Y-133525000D02*
X116100000Y-133525000D01*
X109900000Y-133525000D02*
X109775000Y-133525000D01*
X111600000Y-127075000D02*
X114400000Y-127075000D01*
X109775000Y-133525000D02*
X109775000Y-127075000D01*
X111600000Y-133525000D02*
X114400000Y-133525000D01*
X116225000Y-133525000D02*
X116225000Y-127075000D01*
X111160000Y-106010000D02*
X111160000Y-106710000D01*
X109960000Y-106710000D02*
X109960000Y-106010000D01*
X117540000Y-106010000D02*
X117540000Y-106710000D01*
X116340000Y-106710000D02*
X116340000Y-106010000D01*
X119675000Y-132270000D02*
X119675000Y-133270000D01*
X118325000Y-133270000D02*
X118325000Y-132270000D01*
X116625000Y-133260000D02*
X116625000Y-132260000D01*
X117975000Y-132260000D02*
X117975000Y-133260000D01*
X188460000Y-104700000D02*
X191840000Y-104700000D01*
X188460000Y-111300000D02*
X191840000Y-111300000D01*
X116625000Y-128900000D02*
X116625000Y-127900000D01*
X117975000Y-127900000D02*
X117975000Y-128900000D01*
X124482353Y-120390000D02*
G75*
G03X124482353Y-120390000I-362353J0D01*
G01*
X180500000Y-111975000D02*
X179500000Y-111975000D01*
X179500000Y-110625000D02*
X180500000Y-110625000D01*
X185200000Y-111975000D02*
X184200000Y-111975000D01*
X184200000Y-110625000D02*
X185200000Y-110625000D01*
D14*
G36*
X188511343Y-129662173D02*
X188582011Y-129667779D01*
X188653885Y-129677766D01*
X188701382Y-129686682D01*
X188726837Y-129692279D01*
X188752505Y-129698526D01*
X188777782Y-129705225D01*
X188802064Y-129712177D01*
X188824750Y-129719184D01*
X188845234Y-129726047D01*
X188862915Y-129732567D01*
X188877188Y-129738546D01*
X188887451Y-129743786D01*
X188893099Y-129748087D01*
X188894023Y-129750081D01*
X188893536Y-129753499D01*
X188892111Y-129762235D01*
X188889802Y-129775983D01*
X188886660Y-129794442D01*
X188882741Y-129817305D01*
X188878097Y-129844270D01*
X188872780Y-129875033D01*
X188866846Y-129909290D01*
X188860346Y-129946736D01*
X188853334Y-129987068D01*
X188845863Y-130029982D01*
X188837987Y-130075174D01*
X188829758Y-130122340D01*
X188821231Y-130171177D01*
X188812457Y-130221380D01*
X188803492Y-130272645D01*
X188794387Y-130324668D01*
X188785196Y-130377146D01*
X188775972Y-130429775D01*
X188766769Y-130482250D01*
X188757640Y-130534268D01*
X188748637Y-130585525D01*
X188739815Y-130635717D01*
X188731227Y-130684540D01*
X188722925Y-130731690D01*
X188714963Y-130776863D01*
X188707395Y-130819756D01*
X188700273Y-130860063D01*
X188693651Y-130897483D01*
X188687582Y-130931709D01*
X188682119Y-130962440D01*
X188677316Y-130989370D01*
X188673226Y-131012195D01*
X188669902Y-131030613D01*
X188667397Y-131044319D01*
X188665764Y-131053008D01*
X188665375Y-131054977D01*
X188650970Y-131119946D01*
X188634930Y-131182006D01*
X188617410Y-131240722D01*
X188598560Y-131295660D01*
X188578535Y-131346386D01*
X188557487Y-131392464D01*
X188535569Y-131433461D01*
X188527679Y-131446595D01*
X188496411Y-131492499D01*
X188462288Y-131534126D01*
X188425596Y-131571188D01*
X188386624Y-131603397D01*
X188345660Y-131630464D01*
X188341820Y-131632675D01*
X188310174Y-131648664D01*
X188273928Y-131663437D01*
X188234117Y-131676698D01*
X188191776Y-131688152D01*
X188147938Y-131697503D01*
X188103638Y-131704455D01*
X188082510Y-131706853D01*
X188061263Y-131708560D01*
X188036707Y-131709889D01*
X188010329Y-131710814D01*
X187983615Y-131711308D01*
X187958050Y-131711344D01*
X187935122Y-131710895D01*
X187916316Y-131709934D01*
X187915512Y-131709872D01*
X187838839Y-131701108D01*
X187761212Y-131686763D01*
X187731045Y-131679748D01*
X187714287Y-131675460D01*
X187697612Y-131670890D01*
X187682097Y-131666365D01*
X187668821Y-131662210D01*
X187658860Y-131658750D01*
X187653293Y-131656312D01*
X187653109Y-131656196D01*
X187651958Y-131654332D01*
X187651567Y-131650254D01*
X187652003Y-131643284D01*
X187653336Y-131632743D01*
X187655634Y-131617955D01*
X187658942Y-131598380D01*
X187668508Y-131543000D01*
X187851035Y-131541419D01*
X187888914Y-131541074D01*
X187921550Y-131540734D01*
X187949407Y-131540384D01*
X187972951Y-131540010D01*
X187992645Y-131539598D01*
X188008955Y-131539132D01*
X188022345Y-131538598D01*
X188033280Y-131537982D01*
X188042224Y-131537269D01*
X188049642Y-131536445D01*
X188055999Y-131535495D01*
X188059247Y-131534907D01*
X188096448Y-131526777D01*
X188128941Y-131517465D01*
X188157664Y-131506626D01*
X188183556Y-131493913D01*
X188203710Y-131481594D01*
X188217129Y-131471416D01*
X188232624Y-131457726D01*
X188249039Y-131441715D01*
X188265218Y-131424576D01*
X188280002Y-131407500D01*
X188292238Y-131391680D01*
X188295420Y-131387085D01*
X188311533Y-131360628D01*
X188327673Y-131329677D01*
X188343320Y-131295422D01*
X188357955Y-131259050D01*
X188371057Y-131221750D01*
X188378936Y-131196080D01*
X188382337Y-131183606D01*
X188386192Y-131168400D01*
X188390263Y-131151521D01*
X188394315Y-131134029D01*
X188398109Y-131116985D01*
X188401408Y-131101450D01*
X188403977Y-131088483D01*
X188405577Y-131079145D01*
X188406000Y-131075007D01*
X188404304Y-131073844D01*
X188398898Y-131074862D01*
X188389302Y-131078194D01*
X188376747Y-131083259D01*
X188333426Y-131100106D01*
X188290202Y-131114483D01*
X188248315Y-131126027D01*
X188209001Y-131134376D01*
X188193382Y-131136867D01*
X188179180Y-131138324D01*
X188160714Y-131139395D01*
X188139319Y-131140080D01*
X188116327Y-131140378D01*
X188093074Y-131140289D01*
X188070891Y-131139812D01*
X188051113Y-131138945D01*
X188035075Y-131137689D01*
X188029247Y-131136969D01*
X188004748Y-131132711D01*
X187979000Y-131127038D01*
X187954049Y-131120462D01*
X187931938Y-131113494D01*
X187924388Y-131110728D01*
X187894248Y-131096239D01*
X187865440Y-131076844D01*
X187838770Y-131053321D01*
X187815041Y-131026448D01*
X187795059Y-130997001D01*
X187783334Y-130974402D01*
X187767082Y-130932405D01*
X187754393Y-130885963D01*
X187745266Y-130835095D01*
X187739704Y-130779815D01*
X187737708Y-130720141D01*
X187739279Y-130656090D01*
X187739534Y-130652696D01*
X187996448Y-130652696D01*
X187996695Y-130699856D01*
X187999354Y-130744444D01*
X188004398Y-130785594D01*
X188011796Y-130822444D01*
X188012277Y-130824355D01*
X188023204Y-130857702D01*
X188037902Y-130886776D01*
X188056374Y-130911578D01*
X188078625Y-130932110D01*
X188104657Y-130948374D01*
X188134474Y-130960373D01*
X188168081Y-130968107D01*
X188205480Y-130971580D01*
X188246677Y-130970793D01*
X188278947Y-130967556D01*
X188297250Y-130964529D01*
X188317107Y-130960159D01*
X188337717Y-130954733D01*
X188358277Y-130948535D01*
X188377987Y-130941854D01*
X188396045Y-130934974D01*
X188411649Y-130928182D01*
X188423998Y-130921764D01*
X188432291Y-130916007D01*
X188435623Y-130911626D01*
X188436280Y-130908288D01*
X188437862Y-130899674D01*
X188440311Y-130886116D01*
X188443567Y-130867949D01*
X188447573Y-130845504D01*
X188452268Y-130819116D01*
X188457595Y-130789118D01*
X188463495Y-130755842D01*
X188469910Y-130719623D01*
X188476779Y-130680793D01*
X188484046Y-130639686D01*
X188491650Y-130596635D01*
X188499534Y-130551973D01*
X188507639Y-130506033D01*
X188515906Y-130459149D01*
X188524276Y-130411654D01*
X188532691Y-130363881D01*
X188541092Y-130316164D01*
X188549420Y-130268836D01*
X188557617Y-130222229D01*
X188565624Y-130176678D01*
X188573382Y-130132515D01*
X188580832Y-130090074D01*
X188587916Y-130049688D01*
X188594576Y-130011690D01*
X188600751Y-129976414D01*
X188606385Y-129944192D01*
X188611418Y-129915358D01*
X188615791Y-129890246D01*
X188619446Y-129869188D01*
X188622323Y-129852518D01*
X188624366Y-129840569D01*
X188625513Y-129833675D01*
X188625753Y-129832034D01*
X188623015Y-129831080D01*
X188615256Y-129830339D01*
X188603160Y-129829800D01*
X188587408Y-129829454D01*
X188568684Y-129829290D01*
X188547671Y-129829296D01*
X188525050Y-129829464D01*
X188501506Y-129829781D01*
X188477720Y-129830238D01*
X188454376Y-129830824D01*
X188432156Y-129831528D01*
X188411743Y-129832340D01*
X188393820Y-129833249D01*
X188379070Y-129834245D01*
X188368175Y-129835316D01*
X188363273Y-129836093D01*
X188328186Y-129845095D01*
X188297246Y-129856721D01*
X188269241Y-129871641D01*
X188242955Y-129890523D01*
X188217175Y-129914036D01*
X188211850Y-129919480D01*
X188186667Y-129948881D01*
X188162512Y-129983477D01*
X188139605Y-130022812D01*
X188118164Y-130066430D01*
X188098408Y-130113877D01*
X188080557Y-130164697D01*
X188064829Y-130218434D01*
X188061061Y-130233045D01*
X188053746Y-130263889D01*
X188046098Y-130299201D01*
X188038335Y-130337768D01*
X188030675Y-130378376D01*
X188023337Y-130419811D01*
X188016539Y-130460861D01*
X188010500Y-130500311D01*
X188005436Y-130536949D01*
X188003306Y-130554112D01*
X187998642Y-130603827D01*
X187996448Y-130652696D01*
X187739534Y-130652696D01*
X187744419Y-130587679D01*
X187749805Y-130539842D01*
X187758559Y-130476957D01*
X187768864Y-130414010D01*
X187780541Y-130351778D01*
X187793411Y-130291039D01*
X187807295Y-130232569D01*
X187822016Y-130177146D01*
X187837394Y-130125546D01*
X187853251Y-130078546D01*
X187860002Y-130060389D01*
X187882699Y-130005643D01*
X187906909Y-129956038D01*
X187932894Y-129911143D01*
X187960916Y-129870530D01*
X187991238Y-129833770D01*
X188011949Y-129812089D01*
X188047740Y-129779834D01*
X188085488Y-129752096D01*
X188125823Y-129728536D01*
X188169376Y-129708815D01*
X188216778Y-129692593D01*
X188250461Y-129683642D01*
X188311441Y-129671685D01*
X188375572Y-129664123D01*
X188442368Y-129660954D01*
X188511343Y-129662173D01*
X188511343Y-129662173D01*
G37*
X188511343Y-129662173D02*
X188582011Y-129667779D01*
X188653885Y-129677766D01*
X188701382Y-129686682D01*
X188726837Y-129692279D01*
X188752505Y-129698526D01*
X188777782Y-129705225D01*
X188802064Y-129712177D01*
X188824750Y-129719184D01*
X188845234Y-129726047D01*
X188862915Y-129732567D01*
X188877188Y-129738546D01*
X188887451Y-129743786D01*
X188893099Y-129748087D01*
X188894023Y-129750081D01*
X188893536Y-129753499D01*
X188892111Y-129762235D01*
X188889802Y-129775983D01*
X188886660Y-129794442D01*
X188882741Y-129817305D01*
X188878097Y-129844270D01*
X188872780Y-129875033D01*
X188866846Y-129909290D01*
X188860346Y-129946736D01*
X188853334Y-129987068D01*
X188845863Y-130029982D01*
X188837987Y-130075174D01*
X188829758Y-130122340D01*
X188821231Y-130171177D01*
X188812457Y-130221380D01*
X188803492Y-130272645D01*
X188794387Y-130324668D01*
X188785196Y-130377146D01*
X188775972Y-130429775D01*
X188766769Y-130482250D01*
X188757640Y-130534268D01*
X188748637Y-130585525D01*
X188739815Y-130635717D01*
X188731227Y-130684540D01*
X188722925Y-130731690D01*
X188714963Y-130776863D01*
X188707395Y-130819756D01*
X188700273Y-130860063D01*
X188693651Y-130897483D01*
X188687582Y-130931709D01*
X188682119Y-130962440D01*
X188677316Y-130989370D01*
X188673226Y-131012195D01*
X188669902Y-131030613D01*
X188667397Y-131044319D01*
X188665764Y-131053008D01*
X188665375Y-131054977D01*
X188650970Y-131119946D01*
X188634930Y-131182006D01*
X188617410Y-131240722D01*
X188598560Y-131295660D01*
X188578535Y-131346386D01*
X188557487Y-131392464D01*
X188535569Y-131433461D01*
X188527679Y-131446595D01*
X188496411Y-131492499D01*
X188462288Y-131534126D01*
X188425596Y-131571188D01*
X188386624Y-131603397D01*
X188345660Y-131630464D01*
X188341820Y-131632675D01*
X188310174Y-131648664D01*
X188273928Y-131663437D01*
X188234117Y-131676698D01*
X188191776Y-131688152D01*
X188147938Y-131697503D01*
X188103638Y-131704455D01*
X188082510Y-131706853D01*
X188061263Y-131708560D01*
X188036707Y-131709889D01*
X188010329Y-131710814D01*
X187983615Y-131711308D01*
X187958050Y-131711344D01*
X187935122Y-131710895D01*
X187916316Y-131709934D01*
X187915512Y-131709872D01*
X187838839Y-131701108D01*
X187761212Y-131686763D01*
X187731045Y-131679748D01*
X187714287Y-131675460D01*
X187697612Y-131670890D01*
X187682097Y-131666365D01*
X187668821Y-131662210D01*
X187658860Y-131658750D01*
X187653293Y-131656312D01*
X187653109Y-131656196D01*
X187651958Y-131654332D01*
X187651567Y-131650254D01*
X187652003Y-131643284D01*
X187653336Y-131632743D01*
X187655634Y-131617955D01*
X187658942Y-131598380D01*
X187668508Y-131543000D01*
X187851035Y-131541419D01*
X187888914Y-131541074D01*
X187921550Y-131540734D01*
X187949407Y-131540384D01*
X187972951Y-131540010D01*
X187992645Y-131539598D01*
X188008955Y-131539132D01*
X188022345Y-131538598D01*
X188033280Y-131537982D01*
X188042224Y-131537269D01*
X188049642Y-131536445D01*
X188055999Y-131535495D01*
X188059247Y-131534907D01*
X188096448Y-131526777D01*
X188128941Y-131517465D01*
X188157664Y-131506626D01*
X188183556Y-131493913D01*
X188203710Y-131481594D01*
X188217129Y-131471416D01*
X188232624Y-131457726D01*
X188249039Y-131441715D01*
X188265218Y-131424576D01*
X188280002Y-131407500D01*
X188292238Y-131391680D01*
X188295420Y-131387085D01*
X188311533Y-131360628D01*
X188327673Y-131329677D01*
X188343320Y-131295422D01*
X188357955Y-131259050D01*
X188371057Y-131221750D01*
X188378936Y-131196080D01*
X188382337Y-131183606D01*
X188386192Y-131168400D01*
X188390263Y-131151521D01*
X188394315Y-131134029D01*
X188398109Y-131116985D01*
X188401408Y-131101450D01*
X188403977Y-131088483D01*
X188405577Y-131079145D01*
X188406000Y-131075007D01*
X188404304Y-131073844D01*
X188398898Y-131074862D01*
X188389302Y-131078194D01*
X188376747Y-131083259D01*
X188333426Y-131100106D01*
X188290202Y-131114483D01*
X188248315Y-131126027D01*
X188209001Y-131134376D01*
X188193382Y-131136867D01*
X188179180Y-131138324D01*
X188160714Y-131139395D01*
X188139319Y-131140080D01*
X188116327Y-131140378D01*
X188093074Y-131140289D01*
X188070891Y-131139812D01*
X188051113Y-131138945D01*
X188035075Y-131137689D01*
X188029247Y-131136969D01*
X188004748Y-131132711D01*
X187979000Y-131127038D01*
X187954049Y-131120462D01*
X187931938Y-131113494D01*
X187924388Y-131110728D01*
X187894248Y-131096239D01*
X187865440Y-131076844D01*
X187838770Y-131053321D01*
X187815041Y-131026448D01*
X187795059Y-130997001D01*
X187783334Y-130974402D01*
X187767082Y-130932405D01*
X187754393Y-130885963D01*
X187745266Y-130835095D01*
X187739704Y-130779815D01*
X187737708Y-130720141D01*
X187739279Y-130656090D01*
X187739534Y-130652696D01*
X187996448Y-130652696D01*
X187996695Y-130699856D01*
X187999354Y-130744444D01*
X188004398Y-130785594D01*
X188011796Y-130822444D01*
X188012277Y-130824355D01*
X188023204Y-130857702D01*
X188037902Y-130886776D01*
X188056374Y-130911578D01*
X188078625Y-130932110D01*
X188104657Y-130948374D01*
X188134474Y-130960373D01*
X188168081Y-130968107D01*
X188205480Y-130971580D01*
X188246677Y-130970793D01*
X188278947Y-130967556D01*
X188297250Y-130964529D01*
X188317107Y-130960159D01*
X188337717Y-130954733D01*
X188358277Y-130948535D01*
X188377987Y-130941854D01*
X188396045Y-130934974D01*
X188411649Y-130928182D01*
X188423998Y-130921764D01*
X188432291Y-130916007D01*
X188435623Y-130911626D01*
X188436280Y-130908288D01*
X188437862Y-130899674D01*
X188440311Y-130886116D01*
X188443567Y-130867949D01*
X188447573Y-130845504D01*
X188452268Y-130819116D01*
X188457595Y-130789118D01*
X188463495Y-130755842D01*
X188469910Y-130719623D01*
X188476779Y-130680793D01*
X188484046Y-130639686D01*
X188491650Y-130596635D01*
X188499534Y-130551973D01*
X188507639Y-130506033D01*
X188515906Y-130459149D01*
X188524276Y-130411654D01*
X188532691Y-130363881D01*
X188541092Y-130316164D01*
X188549420Y-130268836D01*
X188557617Y-130222229D01*
X188565624Y-130176678D01*
X188573382Y-130132515D01*
X188580832Y-130090074D01*
X188587916Y-130049688D01*
X188594576Y-130011690D01*
X188600751Y-129976414D01*
X188606385Y-129944192D01*
X188611418Y-129915358D01*
X188615791Y-129890246D01*
X188619446Y-129869188D01*
X188622323Y-129852518D01*
X188624366Y-129840569D01*
X188625513Y-129833675D01*
X188625753Y-129832034D01*
X188623015Y-129831080D01*
X188615256Y-129830339D01*
X188603160Y-129829800D01*
X188587408Y-129829454D01*
X188568684Y-129829290D01*
X188547671Y-129829296D01*
X188525050Y-129829464D01*
X188501506Y-129829781D01*
X188477720Y-129830238D01*
X188454376Y-129830824D01*
X188432156Y-129831528D01*
X188411743Y-129832340D01*
X188393820Y-129833249D01*
X188379070Y-129834245D01*
X188368175Y-129835316D01*
X188363273Y-129836093D01*
X188328186Y-129845095D01*
X188297246Y-129856721D01*
X188269241Y-129871641D01*
X188242955Y-129890523D01*
X188217175Y-129914036D01*
X188211850Y-129919480D01*
X188186667Y-129948881D01*
X188162512Y-129983477D01*
X188139605Y-130022812D01*
X188118164Y-130066430D01*
X188098408Y-130113877D01*
X188080557Y-130164697D01*
X188064829Y-130218434D01*
X188061061Y-130233045D01*
X188053746Y-130263889D01*
X188046098Y-130299201D01*
X188038335Y-130337768D01*
X188030675Y-130378376D01*
X188023337Y-130419811D01*
X188016539Y-130460861D01*
X188010500Y-130500311D01*
X188005436Y-130536949D01*
X188003306Y-130554112D01*
X187998642Y-130603827D01*
X187996448Y-130652696D01*
X187739534Y-130652696D01*
X187744419Y-130587679D01*
X187749805Y-130539842D01*
X187758559Y-130476957D01*
X187768864Y-130414010D01*
X187780541Y-130351778D01*
X187793411Y-130291039D01*
X187807295Y-130232569D01*
X187822016Y-130177146D01*
X187837394Y-130125546D01*
X187853251Y-130078546D01*
X187860002Y-130060389D01*
X187882699Y-130005643D01*
X187906909Y-129956038D01*
X187932894Y-129911143D01*
X187960916Y-129870530D01*
X187991238Y-129833770D01*
X188011949Y-129812089D01*
X188047740Y-129779834D01*
X188085488Y-129752096D01*
X188125823Y-129728536D01*
X188169376Y-129708815D01*
X188216778Y-129692593D01*
X188250461Y-129683642D01*
X188311441Y-129671685D01*
X188375572Y-129664123D01*
X188442368Y-129660954D01*
X188511343Y-129662173D01*
G36*
X190998868Y-129381859D02*
X190998157Y-129385611D01*
X190996589Y-129394303D01*
X190994267Y-129407336D01*
X190991296Y-129424108D01*
X190987783Y-129444021D01*
X190983832Y-129466473D01*
X190979548Y-129490864D01*
X190975036Y-129516595D01*
X190970400Y-129543064D01*
X190965747Y-129569673D01*
X190961180Y-129595821D01*
X190956805Y-129620907D01*
X190952727Y-129644331D01*
X190949051Y-129665494D01*
X190945882Y-129683794D01*
X190943325Y-129698633D01*
X190941484Y-129709409D01*
X190940465Y-129715523D01*
X190940292Y-129716703D01*
X190943070Y-129716907D01*
X190951098Y-129717121D01*
X190963920Y-129717340D01*
X190981077Y-129717559D01*
X191002113Y-129717774D01*
X191026570Y-129717981D01*
X191053990Y-129718176D01*
X191083917Y-129718353D01*
X191115894Y-129718509D01*
X191139493Y-129718604D01*
X191338694Y-129719337D01*
X191327457Y-129782590D01*
X191316219Y-129845843D01*
X191305913Y-129848640D01*
X191298615Y-129850624D01*
X191287646Y-129853612D01*
X191274842Y-129857102D01*
X191268253Y-129858899D01*
X191209595Y-129873118D01*
X191148363Y-129884627D01*
X191086274Y-129893193D01*
X191025044Y-129898581D01*
X190966388Y-129900556D01*
X190963432Y-129900561D01*
X190906499Y-129900561D01*
X190904889Y-129908410D01*
X190904097Y-129912716D01*
X190902405Y-129922247D01*
X190899883Y-129936604D01*
X190896599Y-129955385D01*
X190892624Y-129978193D01*
X190888025Y-130004625D01*
X190882873Y-130034284D01*
X190877236Y-130066768D01*
X190871184Y-130101678D01*
X190864785Y-130138613D01*
X190858109Y-130177175D01*
X190851224Y-130216962D01*
X190844201Y-130257576D01*
X190837107Y-130298616D01*
X190830012Y-130339682D01*
X190822986Y-130380374D01*
X190816096Y-130420293D01*
X190809414Y-130459038D01*
X190803006Y-130496210D01*
X190796943Y-130531408D01*
X190791294Y-130564233D01*
X190786128Y-130594285D01*
X190781514Y-130621164D01*
X190777521Y-130644469D01*
X190774218Y-130663802D01*
X190771674Y-130678762D01*
X190769958Y-130688949D01*
X190769142Y-130693955D01*
X190764900Y-130732407D01*
X190763771Y-130770073D01*
X190765672Y-130806109D01*
X190770520Y-130839669D01*
X190778234Y-130869906D01*
X190788728Y-130895976D01*
X190788973Y-130896464D01*
X190797130Y-130909859D01*
X190808096Y-130924112D01*
X190820459Y-130937647D01*
X190832803Y-130948889D01*
X190841585Y-130955096D01*
X190847823Y-130958603D01*
X190853949Y-130961580D01*
X190860484Y-130964074D01*
X190867943Y-130966134D01*
X190876845Y-130967809D01*
X190887707Y-130969146D01*
X190901048Y-130970194D01*
X190917385Y-130971002D01*
X190937235Y-130971618D01*
X190961117Y-130972090D01*
X190989547Y-130972467D01*
X191023045Y-130972797D01*
X191031829Y-130972874D01*
X191173309Y-130974096D01*
X191165304Y-131020245D01*
X191161746Y-131040959D01*
X191158969Y-131056800D01*
X191156649Y-131068494D01*
X191154460Y-131076769D01*
X191152078Y-131082349D01*
X191149177Y-131085962D01*
X191145432Y-131088335D01*
X191140518Y-131090193D01*
X191134110Y-131092263D01*
X191132884Y-131092677D01*
X191104501Y-131101359D01*
X191071507Y-131109713D01*
X191034996Y-131117525D01*
X190996065Y-131124583D01*
X190955807Y-131130673D01*
X190915319Y-131135583D01*
X190908318Y-131136302D01*
X190873926Y-131139322D01*
X190843686Y-131141016D01*
X190816206Y-131141412D01*
X190790091Y-131140534D01*
X190768240Y-131138835D01*
X190723382Y-131132772D01*
X190683216Y-131123585D01*
X190647556Y-131111114D01*
X190616214Y-131095199D01*
X190589004Y-131075679D01*
X190565740Y-131052395D01*
X190546235Y-131025186D01*
X190530302Y-130993892D01*
X190517757Y-130958353D01*
X190508411Y-130918408D01*
X190507816Y-130915134D01*
X190505823Y-130899756D01*
X190504394Y-130880007D01*
X190503541Y-130857196D01*
X190503274Y-130832632D01*
X190503606Y-130807627D01*
X190504548Y-130783489D01*
X190506111Y-130761529D01*
X190506433Y-130758168D01*
X190507205Y-130750604D01*
X190508008Y-130743157D01*
X190508892Y-130735522D01*
X190509907Y-130727397D01*
X190511105Y-130718476D01*
X190512535Y-130708455D01*
X190514246Y-130697032D01*
X190516291Y-130683901D01*
X190518717Y-130668758D01*
X190521577Y-130651300D01*
X190524919Y-130631222D01*
X190528795Y-130608220D01*
X190533254Y-130581990D01*
X190538346Y-130552229D01*
X190544123Y-130518632D01*
X190550633Y-130480895D01*
X190557927Y-130438713D01*
X190566055Y-130391784D01*
X190575068Y-130339803D01*
X190583756Y-130289729D01*
X190591675Y-130244043D01*
X190599321Y-130199852D01*
X190606635Y-130157489D01*
X190613562Y-130117286D01*
X190620044Y-130079575D01*
X190626025Y-130044688D01*
X190631449Y-130012956D01*
X190636258Y-129984712D01*
X190640396Y-129960288D01*
X190643805Y-129940016D01*
X190646431Y-129924228D01*
X190648215Y-129913255D01*
X190649101Y-129907430D01*
X190649191Y-129906589D01*
X190649076Y-129904864D01*
X190648325Y-129903504D01*
X190646333Y-129902466D01*
X190642492Y-129901706D01*
X190636196Y-129901181D01*
X190626838Y-129900848D01*
X190613811Y-129900662D01*
X190596509Y-129900581D01*
X190574324Y-129900562D01*
X190565000Y-129900561D01*
X190539780Y-129900510D01*
X190519779Y-129900342D01*
X190504509Y-129900036D01*
X190493482Y-129899572D01*
X190486210Y-129898929D01*
X190482206Y-129898086D01*
X190480981Y-129897023D01*
X190480981Y-129896994D01*
X190481533Y-129893395D01*
X190483015Y-129884898D01*
X190485296Y-129872214D01*
X190488248Y-129856056D01*
X190491741Y-129837134D01*
X190495645Y-129816159D01*
X190497476Y-129806382D01*
X190513798Y-129719337D01*
X190599466Y-129718582D01*
X190685134Y-129717828D01*
X190714966Y-129546635D01*
X190744798Y-129375443D01*
X190872566Y-129375440D01*
X191000334Y-129375438D01*
X190998868Y-129381859D01*
X190998868Y-129381859D01*
G37*
X190998868Y-129381859D02*
X190998157Y-129385611D01*
X190996589Y-129394303D01*
X190994267Y-129407336D01*
X190991296Y-129424108D01*
X190987783Y-129444021D01*
X190983832Y-129466473D01*
X190979548Y-129490864D01*
X190975036Y-129516595D01*
X190970400Y-129543064D01*
X190965747Y-129569673D01*
X190961180Y-129595821D01*
X190956805Y-129620907D01*
X190952727Y-129644331D01*
X190949051Y-129665494D01*
X190945882Y-129683794D01*
X190943325Y-129698633D01*
X190941484Y-129709409D01*
X190940465Y-129715523D01*
X190940292Y-129716703D01*
X190943070Y-129716907D01*
X190951098Y-129717121D01*
X190963920Y-129717340D01*
X190981077Y-129717559D01*
X191002113Y-129717774D01*
X191026570Y-129717981D01*
X191053990Y-129718176D01*
X191083917Y-129718353D01*
X191115894Y-129718509D01*
X191139493Y-129718604D01*
X191338694Y-129719337D01*
X191327457Y-129782590D01*
X191316219Y-129845843D01*
X191305913Y-129848640D01*
X191298615Y-129850624D01*
X191287646Y-129853612D01*
X191274842Y-129857102D01*
X191268253Y-129858899D01*
X191209595Y-129873118D01*
X191148363Y-129884627D01*
X191086274Y-129893193D01*
X191025044Y-129898581D01*
X190966388Y-129900556D01*
X190963432Y-129900561D01*
X190906499Y-129900561D01*
X190904889Y-129908410D01*
X190904097Y-129912716D01*
X190902405Y-129922247D01*
X190899883Y-129936604D01*
X190896599Y-129955385D01*
X190892624Y-129978193D01*
X190888025Y-130004625D01*
X190882873Y-130034284D01*
X190877236Y-130066768D01*
X190871184Y-130101678D01*
X190864785Y-130138613D01*
X190858109Y-130177175D01*
X190851224Y-130216962D01*
X190844201Y-130257576D01*
X190837107Y-130298616D01*
X190830012Y-130339682D01*
X190822986Y-130380374D01*
X190816096Y-130420293D01*
X190809414Y-130459038D01*
X190803006Y-130496210D01*
X190796943Y-130531408D01*
X190791294Y-130564233D01*
X190786128Y-130594285D01*
X190781514Y-130621164D01*
X190777521Y-130644469D01*
X190774218Y-130663802D01*
X190771674Y-130678762D01*
X190769958Y-130688949D01*
X190769142Y-130693955D01*
X190764900Y-130732407D01*
X190763771Y-130770073D01*
X190765672Y-130806109D01*
X190770520Y-130839669D01*
X190778234Y-130869906D01*
X190788728Y-130895976D01*
X190788973Y-130896464D01*
X190797130Y-130909859D01*
X190808096Y-130924112D01*
X190820459Y-130937647D01*
X190832803Y-130948889D01*
X190841585Y-130955096D01*
X190847823Y-130958603D01*
X190853949Y-130961580D01*
X190860484Y-130964074D01*
X190867943Y-130966134D01*
X190876845Y-130967809D01*
X190887707Y-130969146D01*
X190901048Y-130970194D01*
X190917385Y-130971002D01*
X190937235Y-130971618D01*
X190961117Y-130972090D01*
X190989547Y-130972467D01*
X191023045Y-130972797D01*
X191031829Y-130972874D01*
X191173309Y-130974096D01*
X191165304Y-131020245D01*
X191161746Y-131040959D01*
X191158969Y-131056800D01*
X191156649Y-131068494D01*
X191154460Y-131076769D01*
X191152078Y-131082349D01*
X191149177Y-131085962D01*
X191145432Y-131088335D01*
X191140518Y-131090193D01*
X191134110Y-131092263D01*
X191132884Y-131092677D01*
X191104501Y-131101359D01*
X191071507Y-131109713D01*
X191034996Y-131117525D01*
X190996065Y-131124583D01*
X190955807Y-131130673D01*
X190915319Y-131135583D01*
X190908318Y-131136302D01*
X190873926Y-131139322D01*
X190843686Y-131141016D01*
X190816206Y-131141412D01*
X190790091Y-131140534D01*
X190768240Y-131138835D01*
X190723382Y-131132772D01*
X190683216Y-131123585D01*
X190647556Y-131111114D01*
X190616214Y-131095199D01*
X190589004Y-131075679D01*
X190565740Y-131052395D01*
X190546235Y-131025186D01*
X190530302Y-130993892D01*
X190517757Y-130958353D01*
X190508411Y-130918408D01*
X190507816Y-130915134D01*
X190505823Y-130899756D01*
X190504394Y-130880007D01*
X190503541Y-130857196D01*
X190503274Y-130832632D01*
X190503606Y-130807627D01*
X190504548Y-130783489D01*
X190506111Y-130761529D01*
X190506433Y-130758168D01*
X190507205Y-130750604D01*
X190508008Y-130743157D01*
X190508892Y-130735522D01*
X190509907Y-130727397D01*
X190511105Y-130718476D01*
X190512535Y-130708455D01*
X190514246Y-130697032D01*
X190516291Y-130683901D01*
X190518717Y-130668758D01*
X190521577Y-130651300D01*
X190524919Y-130631222D01*
X190528795Y-130608220D01*
X190533254Y-130581990D01*
X190538346Y-130552229D01*
X190544123Y-130518632D01*
X190550633Y-130480895D01*
X190557927Y-130438713D01*
X190566055Y-130391784D01*
X190575068Y-130339803D01*
X190583756Y-130289729D01*
X190591675Y-130244043D01*
X190599321Y-130199852D01*
X190606635Y-130157489D01*
X190613562Y-130117286D01*
X190620044Y-130079575D01*
X190626025Y-130044688D01*
X190631449Y-130012956D01*
X190636258Y-129984712D01*
X190640396Y-129960288D01*
X190643805Y-129940016D01*
X190646431Y-129924228D01*
X190648215Y-129913255D01*
X190649101Y-129907430D01*
X190649191Y-129906589D01*
X190649076Y-129904864D01*
X190648325Y-129903504D01*
X190646333Y-129902466D01*
X190642492Y-129901706D01*
X190636196Y-129901181D01*
X190626838Y-129900848D01*
X190613811Y-129900662D01*
X190596509Y-129900581D01*
X190574324Y-129900562D01*
X190565000Y-129900561D01*
X190539780Y-129900510D01*
X190519779Y-129900342D01*
X190504509Y-129900036D01*
X190493482Y-129899572D01*
X190486210Y-129898929D01*
X190482206Y-129898086D01*
X190480981Y-129897023D01*
X190480981Y-129896994D01*
X190481533Y-129893395D01*
X190483015Y-129884898D01*
X190485296Y-129872214D01*
X190488248Y-129856056D01*
X190491741Y-129837134D01*
X190495645Y-129816159D01*
X190497476Y-129806382D01*
X190513798Y-129719337D01*
X190599466Y-129718582D01*
X190685134Y-129717828D01*
X190714966Y-129546635D01*
X190744798Y-129375443D01*
X190872566Y-129375440D01*
X191000334Y-129375438D01*
X190998868Y-129381859D01*
G36*
X192236971Y-129091549D02*
X192290019Y-129093652D01*
X192343322Y-129097410D01*
X192395914Y-129102738D01*
X192446832Y-129109553D01*
X192495111Y-129117771D01*
X192539786Y-129127308D01*
X192579893Y-129138081D01*
X192582168Y-129138776D01*
X192595047Y-129142911D01*
X192603233Y-129146061D01*
X192607565Y-129148650D01*
X192608880Y-129151103D01*
X192608719Y-129152248D01*
X192607908Y-129156075D01*
X192606319Y-129164416D01*
X192604133Y-129176249D01*
X192601532Y-129190553D01*
X192598699Y-129206306D01*
X192595816Y-129222487D01*
X192593064Y-129238074D01*
X192590626Y-129252047D01*
X192588684Y-129263383D01*
X192587419Y-129271063D01*
X192587011Y-129274016D01*
X192584230Y-129274229D01*
X192576174Y-129274455D01*
X192563276Y-129274690D01*
X192545971Y-129274928D01*
X192524691Y-129275167D01*
X192499870Y-129275401D01*
X192471941Y-129275626D01*
X192441337Y-129275837D01*
X192408492Y-129276032D01*
X192373840Y-129276204D01*
X192365118Y-129276243D01*
X192322242Y-129276431D01*
X192284631Y-129276621D01*
X192251842Y-129276844D01*
X192223430Y-129277128D01*
X192198954Y-129277502D01*
X192177970Y-129277995D01*
X192160035Y-129278636D01*
X192144705Y-129279454D01*
X192131538Y-129280479D01*
X192120091Y-129281739D01*
X192109919Y-129283264D01*
X192100581Y-129285082D01*
X192091633Y-129287222D01*
X192082631Y-129289714D01*
X192073133Y-129292587D01*
X192062696Y-129295869D01*
X192061888Y-129296125D01*
X192023580Y-129310214D01*
X191989570Y-129327070D01*
X191958880Y-129347281D01*
X191930534Y-129371431D01*
X191921711Y-129380177D01*
X191893766Y-129412872D01*
X191869634Y-129449563D01*
X191849460Y-129489873D01*
X191833391Y-129533423D01*
X191821571Y-129579836D01*
X191814147Y-129628733D01*
X191811587Y-129665783D01*
X191811304Y-129699546D01*
X191813245Y-129729047D01*
X191817736Y-129755405D01*
X191825104Y-129779741D01*
X191835675Y-129803177D01*
X191849777Y-129826832D01*
X191864643Y-129847764D01*
X191878773Y-129865520D01*
X191893806Y-129882301D01*
X191910176Y-129898405D01*
X191928318Y-129914128D01*
X191948665Y-129929765D01*
X191971652Y-129945612D01*
X191997712Y-129961967D01*
X192027279Y-129979125D01*
X192060788Y-129997383D01*
X192098671Y-130017036D01*
X192141364Y-130038381D01*
X192150360Y-130042802D01*
X192181880Y-130058646D01*
X192209182Y-130073318D01*
X192233428Y-130087555D01*
X192255781Y-130102091D01*
X192277402Y-130117660D01*
X192299455Y-130134998D01*
X192310180Y-130143867D01*
X192339547Y-130170005D01*
X192364485Y-130195763D01*
X192386024Y-130222414D01*
X192405198Y-130251232D01*
X192422529Y-130282491D01*
X192437269Y-130313847D01*
X192448487Y-130343922D01*
X192456508Y-130374127D01*
X192461652Y-130405875D01*
X192464245Y-130440577D01*
X192464713Y-130467067D01*
X192462506Y-130522995D01*
X192455888Y-130579387D01*
X192448844Y-130618533D01*
X192434567Y-130680803D01*
X192418052Y-130738005D01*
X192399127Y-130790394D01*
X192377621Y-130838221D01*
X192353362Y-130881740D01*
X192326178Y-130921205D01*
X192295898Y-130956868D01*
X192262349Y-130988983D01*
X192225360Y-131017802D01*
X192184759Y-131043580D01*
X192147133Y-131063360D01*
X192108482Y-131080635D01*
X192069286Y-131095320D01*
X192028604Y-131107661D01*
X191985494Y-131117901D01*
X191939013Y-131126283D01*
X191888219Y-131133053D01*
X191870674Y-131134941D01*
X191856972Y-131136059D01*
X191838816Y-131137122D01*
X191817200Y-131138108D01*
X191793118Y-131138994D01*
X191767563Y-131139757D01*
X191741528Y-131140374D01*
X191716007Y-131140823D01*
X191691994Y-131141080D01*
X191670481Y-131141122D01*
X191652463Y-131140927D01*
X191638933Y-131140472D01*
X191636652Y-131140334D01*
X191597909Y-131137565D01*
X191563736Y-131134759D01*
X191532994Y-131131779D01*
X191504548Y-131128490D01*
X191477260Y-131124756D01*
X191449991Y-131120442D01*
X191421606Y-131115412D01*
X191411191Y-131113457D01*
X191393882Y-131109976D01*
X191375748Y-131106003D01*
X191357726Y-131101778D01*
X191340750Y-131097539D01*
X191325753Y-131093529D01*
X191313671Y-131089985D01*
X191305437Y-131087148D01*
X191302141Y-131085452D01*
X191302129Y-131082320D01*
X191302980Y-131074553D01*
X191304536Y-131063133D01*
X191306640Y-131049041D01*
X191309134Y-131033258D01*
X191311860Y-131016765D01*
X191314662Y-131000545D01*
X191317381Y-130985578D01*
X191319861Y-130972845D01*
X191321295Y-130966118D01*
X191322665Y-130960022D01*
X191547439Y-130958497D01*
X191592237Y-130958178D01*
X191631792Y-130957848D01*
X191666569Y-130957483D01*
X191697033Y-130957060D01*
X191723649Y-130956552D01*
X191746883Y-130955937D01*
X191767198Y-130955190D01*
X191785061Y-130954285D01*
X191800935Y-130953199D01*
X191815287Y-130951908D01*
X191828581Y-130950386D01*
X191841281Y-130948609D01*
X191853854Y-130946553D01*
X191866764Y-130944194D01*
X191880475Y-130941506D01*
X191883997Y-130940797D01*
X191930310Y-130929598D01*
X191971879Y-130915605D01*
X192009019Y-130898670D01*
X192042043Y-130878643D01*
X192071266Y-130855373D01*
X192079206Y-130847869D01*
X192105562Y-130819166D01*
X192128595Y-130787923D01*
X192148550Y-130753630D01*
X192165674Y-130715775D01*
X192180213Y-130673849D01*
X192192411Y-130627340D01*
X192197905Y-130601202D01*
X192200412Y-130584285D01*
X192202124Y-130564303D01*
X192203042Y-130542633D01*
X192203168Y-130520650D01*
X192202500Y-130499732D01*
X192201040Y-130481254D01*
X192198788Y-130466593D01*
X192197859Y-130462786D01*
X192189856Y-130439384D01*
X192178863Y-130416803D01*
X192164284Y-130394053D01*
X192145524Y-130370143D01*
X192134771Y-130357866D01*
X192117688Y-130340801D01*
X192096334Y-130322809D01*
X192070540Y-130303780D01*
X192040132Y-130283604D01*
X192004938Y-130262172D01*
X191964787Y-130239374D01*
X191919506Y-130215101D01*
X191874955Y-130192270D01*
X191842955Y-130175892D01*
X191815292Y-130161077D01*
X191791013Y-130147250D01*
X191769162Y-130133837D01*
X191748783Y-130120266D01*
X191728923Y-130105963D01*
X191720080Y-130099274D01*
X191681719Y-130066722D01*
X191648298Y-130031555D01*
X191619479Y-129993321D01*
X191594922Y-129951570D01*
X191574451Y-129906269D01*
X191562811Y-129870080D01*
X191554658Y-129829815D01*
X191549988Y-129785918D01*
X191548798Y-129738832D01*
X191551087Y-129688998D01*
X191556850Y-129636859D01*
X191566086Y-129582858D01*
X191576805Y-129535258D01*
X191593905Y-129475991D01*
X191614499Y-129421192D01*
X191638655Y-129370763D01*
X191666443Y-129324606D01*
X191697932Y-129282622D01*
X191733191Y-129244714D01*
X191772289Y-129210783D01*
X191815296Y-129180731D01*
X191834296Y-129169382D01*
X191869336Y-129151685D01*
X191908905Y-129135774D01*
X191952029Y-129121932D01*
X191997731Y-129110439D01*
X192045037Y-129101575D01*
X192089000Y-129095998D01*
X192135497Y-129092638D01*
X192185142Y-129091183D01*
X192236971Y-129091549D01*
X192236971Y-129091549D01*
G37*
X192236971Y-129091549D02*
X192290019Y-129093652D01*
X192343322Y-129097410D01*
X192395914Y-129102738D01*
X192446832Y-129109553D01*
X192495111Y-129117771D01*
X192539786Y-129127308D01*
X192579893Y-129138081D01*
X192582168Y-129138776D01*
X192595047Y-129142911D01*
X192603233Y-129146061D01*
X192607565Y-129148650D01*
X192608880Y-129151103D01*
X192608719Y-129152248D01*
X192607908Y-129156075D01*
X192606319Y-129164416D01*
X192604133Y-129176249D01*
X192601532Y-129190553D01*
X192598699Y-129206306D01*
X192595816Y-129222487D01*
X192593064Y-129238074D01*
X192590626Y-129252047D01*
X192588684Y-129263383D01*
X192587419Y-129271063D01*
X192587011Y-129274016D01*
X192584230Y-129274229D01*
X192576174Y-129274455D01*
X192563276Y-129274690D01*
X192545971Y-129274928D01*
X192524691Y-129275167D01*
X192499870Y-129275401D01*
X192471941Y-129275626D01*
X192441337Y-129275837D01*
X192408492Y-129276032D01*
X192373840Y-129276204D01*
X192365118Y-129276243D01*
X192322242Y-129276431D01*
X192284631Y-129276621D01*
X192251842Y-129276844D01*
X192223430Y-129277128D01*
X192198954Y-129277502D01*
X192177970Y-129277995D01*
X192160035Y-129278636D01*
X192144705Y-129279454D01*
X192131538Y-129280479D01*
X192120091Y-129281739D01*
X192109919Y-129283264D01*
X192100581Y-129285082D01*
X192091633Y-129287222D01*
X192082631Y-129289714D01*
X192073133Y-129292587D01*
X192062696Y-129295869D01*
X192061888Y-129296125D01*
X192023580Y-129310214D01*
X191989570Y-129327070D01*
X191958880Y-129347281D01*
X191930534Y-129371431D01*
X191921711Y-129380177D01*
X191893766Y-129412872D01*
X191869634Y-129449563D01*
X191849460Y-129489873D01*
X191833391Y-129533423D01*
X191821571Y-129579836D01*
X191814147Y-129628733D01*
X191811587Y-129665783D01*
X191811304Y-129699546D01*
X191813245Y-129729047D01*
X191817736Y-129755405D01*
X191825104Y-129779741D01*
X191835675Y-129803177D01*
X191849777Y-129826832D01*
X191864643Y-129847764D01*
X191878773Y-129865520D01*
X191893806Y-129882301D01*
X191910176Y-129898405D01*
X191928318Y-129914128D01*
X191948665Y-129929765D01*
X191971652Y-129945612D01*
X191997712Y-129961967D01*
X192027279Y-129979125D01*
X192060788Y-129997383D01*
X192098671Y-130017036D01*
X192141364Y-130038381D01*
X192150360Y-130042802D01*
X192181880Y-130058646D01*
X192209182Y-130073318D01*
X192233428Y-130087555D01*
X192255781Y-130102091D01*
X192277402Y-130117660D01*
X192299455Y-130134998D01*
X192310180Y-130143867D01*
X192339547Y-130170005D01*
X192364485Y-130195763D01*
X192386024Y-130222414D01*
X192405198Y-130251232D01*
X192422529Y-130282491D01*
X192437269Y-130313847D01*
X192448487Y-130343922D01*
X192456508Y-130374127D01*
X192461652Y-130405875D01*
X192464245Y-130440577D01*
X192464713Y-130467067D01*
X192462506Y-130522995D01*
X192455888Y-130579387D01*
X192448844Y-130618533D01*
X192434567Y-130680803D01*
X192418052Y-130738005D01*
X192399127Y-130790394D01*
X192377621Y-130838221D01*
X192353362Y-130881740D01*
X192326178Y-130921205D01*
X192295898Y-130956868D01*
X192262349Y-130988983D01*
X192225360Y-131017802D01*
X192184759Y-131043580D01*
X192147133Y-131063360D01*
X192108482Y-131080635D01*
X192069286Y-131095320D01*
X192028604Y-131107661D01*
X191985494Y-131117901D01*
X191939013Y-131126283D01*
X191888219Y-131133053D01*
X191870674Y-131134941D01*
X191856972Y-131136059D01*
X191838816Y-131137122D01*
X191817200Y-131138108D01*
X191793118Y-131138994D01*
X191767563Y-131139757D01*
X191741528Y-131140374D01*
X191716007Y-131140823D01*
X191691994Y-131141080D01*
X191670481Y-131141122D01*
X191652463Y-131140927D01*
X191638933Y-131140472D01*
X191636652Y-131140334D01*
X191597909Y-131137565D01*
X191563736Y-131134759D01*
X191532994Y-131131779D01*
X191504548Y-131128490D01*
X191477260Y-131124756D01*
X191449991Y-131120442D01*
X191421606Y-131115412D01*
X191411191Y-131113457D01*
X191393882Y-131109976D01*
X191375748Y-131106003D01*
X191357726Y-131101778D01*
X191340750Y-131097539D01*
X191325753Y-131093529D01*
X191313671Y-131089985D01*
X191305437Y-131087148D01*
X191302141Y-131085452D01*
X191302129Y-131082320D01*
X191302980Y-131074553D01*
X191304536Y-131063133D01*
X191306640Y-131049041D01*
X191309134Y-131033258D01*
X191311860Y-131016765D01*
X191314662Y-131000545D01*
X191317381Y-130985578D01*
X191319861Y-130972845D01*
X191321295Y-130966118D01*
X191322665Y-130960022D01*
X191547439Y-130958497D01*
X191592237Y-130958178D01*
X191631792Y-130957848D01*
X191666569Y-130957483D01*
X191697033Y-130957060D01*
X191723649Y-130956552D01*
X191746883Y-130955937D01*
X191767198Y-130955190D01*
X191785061Y-130954285D01*
X191800935Y-130953199D01*
X191815287Y-130951908D01*
X191828581Y-130950386D01*
X191841281Y-130948609D01*
X191853854Y-130946553D01*
X191866764Y-130944194D01*
X191880475Y-130941506D01*
X191883997Y-130940797D01*
X191930310Y-130929598D01*
X191971879Y-130915605D01*
X192009019Y-130898670D01*
X192042043Y-130878643D01*
X192071266Y-130855373D01*
X192079206Y-130847869D01*
X192105562Y-130819166D01*
X192128595Y-130787923D01*
X192148550Y-130753630D01*
X192165674Y-130715775D01*
X192180213Y-130673849D01*
X192192411Y-130627340D01*
X192197905Y-130601202D01*
X192200412Y-130584285D01*
X192202124Y-130564303D01*
X192203042Y-130542633D01*
X192203168Y-130520650D01*
X192202500Y-130499732D01*
X192201040Y-130481254D01*
X192198788Y-130466593D01*
X192197859Y-130462786D01*
X192189856Y-130439384D01*
X192178863Y-130416803D01*
X192164284Y-130394053D01*
X192145524Y-130370143D01*
X192134771Y-130357866D01*
X192117688Y-130340801D01*
X192096334Y-130322809D01*
X192070540Y-130303780D01*
X192040132Y-130283604D01*
X192004938Y-130262172D01*
X191964787Y-130239374D01*
X191919506Y-130215101D01*
X191874955Y-130192270D01*
X191842955Y-130175892D01*
X191815292Y-130161077D01*
X191791013Y-130147250D01*
X191769162Y-130133837D01*
X191748783Y-130120266D01*
X191728923Y-130105963D01*
X191720080Y-130099274D01*
X191681719Y-130066722D01*
X191648298Y-130031555D01*
X191619479Y-129993321D01*
X191594922Y-129951570D01*
X191574451Y-129906269D01*
X191562811Y-129870080D01*
X191554658Y-129829815D01*
X191549988Y-129785918D01*
X191548798Y-129738832D01*
X191551087Y-129688998D01*
X191556850Y-129636859D01*
X191566086Y-129582858D01*
X191576805Y-129535258D01*
X191593905Y-129475991D01*
X191614499Y-129421192D01*
X191638655Y-129370763D01*
X191666443Y-129324606D01*
X191697932Y-129282622D01*
X191733191Y-129244714D01*
X191772289Y-129210783D01*
X191815296Y-129180731D01*
X191834296Y-129169382D01*
X191869336Y-129151685D01*
X191908905Y-129135774D01*
X191952029Y-129121932D01*
X191997731Y-129110439D01*
X192045037Y-129101575D01*
X192089000Y-129095998D01*
X192135497Y-129092638D01*
X192185142Y-129091183D01*
X192236971Y-129091549D01*
G36*
X193253413Y-129381859D02*
X193252686Y-129385639D01*
X193251101Y-129394363D01*
X193248765Y-129407428D01*
X193245783Y-129424233D01*
X193242258Y-129444176D01*
X193238298Y-129466657D01*
X193234007Y-129491073D01*
X193229490Y-129516822D01*
X193224852Y-129543303D01*
X193220199Y-129569915D01*
X193215636Y-129596056D01*
X193211268Y-129621124D01*
X193207201Y-129644518D01*
X193203539Y-129665636D01*
X193200388Y-129683876D01*
X193197853Y-129698638D01*
X193196039Y-129709318D01*
X193195052Y-129715317D01*
X193194899Y-129716407D01*
X193197677Y-129716661D01*
X193205705Y-129716921D01*
X193218526Y-129717183D01*
X193235682Y-129717442D01*
X193256717Y-129717692D01*
X193281172Y-129717929D01*
X193308590Y-129718147D01*
X193338514Y-129718341D01*
X193370485Y-129718507D01*
X193393991Y-129718604D01*
X193593082Y-129719337D01*
X193581869Y-129782612D01*
X193570657Y-129845886D01*
X193560435Y-129848662D01*
X193553178Y-129850636D01*
X193542243Y-129853614D01*
X193529461Y-129857098D01*
X193522860Y-129858899D01*
X193464202Y-129873118D01*
X193402970Y-129884627D01*
X193340881Y-129893193D01*
X193279651Y-129898581D01*
X193220995Y-129900556D01*
X193218039Y-129900561D01*
X193161105Y-129900561D01*
X193159446Y-129908410D01*
X193158010Y-129915749D01*
X193155720Y-129928176D01*
X193152642Y-129945290D01*
X193148847Y-129966687D01*
X193144402Y-129991968D01*
X193139377Y-130020730D01*
X193133839Y-130052572D01*
X193127858Y-130087093D01*
X193121501Y-130123891D01*
X193114838Y-130162564D01*
X193107937Y-130202711D01*
X193100866Y-130243930D01*
X193093695Y-130285821D01*
X193086491Y-130327981D01*
X193079324Y-130370009D01*
X193072261Y-130411503D01*
X193065372Y-130452063D01*
X193058724Y-130491285D01*
X193052387Y-130528770D01*
X193046430Y-130564115D01*
X193040919Y-130596919D01*
X193035925Y-130626781D01*
X193031516Y-130653298D01*
X193027759Y-130676070D01*
X193024725Y-130694695D01*
X193022481Y-130708771D01*
X193021096Y-130717897D01*
X193020680Y-130721067D01*
X193018261Y-130761292D01*
X193019426Y-130799086D01*
X193024060Y-130834084D01*
X193032045Y-130865924D01*
X193043261Y-130894241D01*
X193057593Y-130918672D01*
X193074922Y-130938854D01*
X193095131Y-130954422D01*
X193096477Y-130955228D01*
X193102643Y-130958707D01*
X193108724Y-130961660D01*
X193115237Y-130964135D01*
X193122699Y-130966180D01*
X193131626Y-130967842D01*
X193142536Y-130969170D01*
X193155943Y-130970212D01*
X193172366Y-130971015D01*
X193192321Y-130971628D01*
X193216324Y-130972099D01*
X193244893Y-130972475D01*
X193278543Y-130972805D01*
X193286380Y-130972874D01*
X193427804Y-130974096D01*
X193418454Y-131027254D01*
X193415456Y-131044110D01*
X193412727Y-131059100D01*
X193410443Y-131071289D01*
X193408779Y-131079741D01*
X193407910Y-131083522D01*
X193407902Y-131083542D01*
X193404714Y-131085693D01*
X193396976Y-131088908D01*
X193385678Y-131092880D01*
X193371812Y-131097305D01*
X193356367Y-131101878D01*
X193340336Y-131106292D01*
X193324709Y-131110242D01*
X193311910Y-131113128D01*
X193256727Y-131123652D01*
X193203770Y-131131763D01*
X193153601Y-131137410D01*
X193106780Y-131140544D01*
X193063865Y-131141114D01*
X193025418Y-131139070D01*
X193024164Y-131138951D01*
X192979643Y-131132953D01*
X192939818Y-131123968D01*
X192904473Y-131111918D01*
X192873392Y-131096720D01*
X192846358Y-131078295D01*
X192835168Y-131068664D01*
X192821464Y-131054991D01*
X192810344Y-131041328D01*
X192800407Y-131025756D01*
X192791509Y-131008914D01*
X192778307Y-130977772D01*
X192768298Y-130943864D01*
X192761450Y-130906847D01*
X192757733Y-130866376D01*
X192757117Y-130822109D01*
X192759571Y-130773700D01*
X192765065Y-130720806D01*
X192765540Y-130717098D01*
X192766545Y-130710292D01*
X192768470Y-130698222D01*
X192771253Y-130681248D01*
X192774834Y-130659727D01*
X192779150Y-130634019D01*
X192784142Y-130604483D01*
X192789748Y-130571478D01*
X192795907Y-130535364D01*
X192802558Y-130496498D01*
X192809640Y-130455240D01*
X192817092Y-130411949D01*
X192824853Y-130366984D01*
X192832862Y-130320704D01*
X192836816Y-130297898D01*
X192844829Y-130251675D01*
X192852568Y-130206951D01*
X192859978Y-130164053D01*
X192867002Y-130123308D01*
X192873584Y-130085046D01*
X192879669Y-130049592D01*
X192885201Y-130017275D01*
X192890122Y-129988422D01*
X192894379Y-129963360D01*
X192897913Y-129942417D01*
X192900670Y-129925921D01*
X192902594Y-129914199D01*
X192903628Y-129907579D01*
X192903798Y-129906196D01*
X192903616Y-129904586D01*
X192902668Y-129903315D01*
X192900348Y-129902345D01*
X192896052Y-129901634D01*
X192889174Y-129901142D01*
X192879111Y-129900830D01*
X192865257Y-129900655D01*
X192847007Y-129900579D01*
X192823757Y-129900562D01*
X192819274Y-129900561D01*
X192734751Y-129900561D01*
X192736256Y-129892713D01*
X192737140Y-129887969D01*
X192738905Y-129878389D01*
X192741409Y-129864750D01*
X192744509Y-129847831D01*
X192748062Y-129828411D01*
X192751925Y-129807268D01*
X192752998Y-129801388D01*
X192768236Y-129717911D01*
X192853899Y-129717910D01*
X192939562Y-129717910D01*
X192969438Y-129546674D01*
X192999315Y-129375438D01*
X193254940Y-129375438D01*
X193253413Y-129381859D01*
X193253413Y-129381859D01*
G37*
X193253413Y-129381859D02*
X193252686Y-129385639D01*
X193251101Y-129394363D01*
X193248765Y-129407428D01*
X193245783Y-129424233D01*
X193242258Y-129444176D01*
X193238298Y-129466657D01*
X193234007Y-129491073D01*
X193229490Y-129516822D01*
X193224852Y-129543303D01*
X193220199Y-129569915D01*
X193215636Y-129596056D01*
X193211268Y-129621124D01*
X193207201Y-129644518D01*
X193203539Y-129665636D01*
X193200388Y-129683876D01*
X193197853Y-129698638D01*
X193196039Y-129709318D01*
X193195052Y-129715317D01*
X193194899Y-129716407D01*
X193197677Y-129716661D01*
X193205705Y-129716921D01*
X193218526Y-129717183D01*
X193235682Y-129717442D01*
X193256717Y-129717692D01*
X193281172Y-129717929D01*
X193308590Y-129718147D01*
X193338514Y-129718341D01*
X193370485Y-129718507D01*
X193393991Y-129718604D01*
X193593082Y-129719337D01*
X193581869Y-129782612D01*
X193570657Y-129845886D01*
X193560435Y-129848662D01*
X193553178Y-129850636D01*
X193542243Y-129853614D01*
X193529461Y-129857098D01*
X193522860Y-129858899D01*
X193464202Y-129873118D01*
X193402970Y-129884627D01*
X193340881Y-129893193D01*
X193279651Y-129898581D01*
X193220995Y-129900556D01*
X193218039Y-129900561D01*
X193161105Y-129900561D01*
X193159446Y-129908410D01*
X193158010Y-129915749D01*
X193155720Y-129928176D01*
X193152642Y-129945290D01*
X193148847Y-129966687D01*
X193144402Y-129991968D01*
X193139377Y-130020730D01*
X193133839Y-130052572D01*
X193127858Y-130087093D01*
X193121501Y-130123891D01*
X193114838Y-130162564D01*
X193107937Y-130202711D01*
X193100866Y-130243930D01*
X193093695Y-130285821D01*
X193086491Y-130327981D01*
X193079324Y-130370009D01*
X193072261Y-130411503D01*
X193065372Y-130452063D01*
X193058724Y-130491285D01*
X193052387Y-130528770D01*
X193046430Y-130564115D01*
X193040919Y-130596919D01*
X193035925Y-130626781D01*
X193031516Y-130653298D01*
X193027759Y-130676070D01*
X193024725Y-130694695D01*
X193022481Y-130708771D01*
X193021096Y-130717897D01*
X193020680Y-130721067D01*
X193018261Y-130761292D01*
X193019426Y-130799086D01*
X193024060Y-130834084D01*
X193032045Y-130865924D01*
X193043261Y-130894241D01*
X193057593Y-130918672D01*
X193074922Y-130938854D01*
X193095131Y-130954422D01*
X193096477Y-130955228D01*
X193102643Y-130958707D01*
X193108724Y-130961660D01*
X193115237Y-130964135D01*
X193122699Y-130966180D01*
X193131626Y-130967842D01*
X193142536Y-130969170D01*
X193155943Y-130970212D01*
X193172366Y-130971015D01*
X193192321Y-130971628D01*
X193216324Y-130972099D01*
X193244893Y-130972475D01*
X193278543Y-130972805D01*
X193286380Y-130972874D01*
X193427804Y-130974096D01*
X193418454Y-131027254D01*
X193415456Y-131044110D01*
X193412727Y-131059100D01*
X193410443Y-131071289D01*
X193408779Y-131079741D01*
X193407910Y-131083522D01*
X193407902Y-131083542D01*
X193404714Y-131085693D01*
X193396976Y-131088908D01*
X193385678Y-131092880D01*
X193371812Y-131097305D01*
X193356367Y-131101878D01*
X193340336Y-131106292D01*
X193324709Y-131110242D01*
X193311910Y-131113128D01*
X193256727Y-131123652D01*
X193203770Y-131131763D01*
X193153601Y-131137410D01*
X193106780Y-131140544D01*
X193063865Y-131141114D01*
X193025418Y-131139070D01*
X193024164Y-131138951D01*
X192979643Y-131132953D01*
X192939818Y-131123968D01*
X192904473Y-131111918D01*
X192873392Y-131096720D01*
X192846358Y-131078295D01*
X192835168Y-131068664D01*
X192821464Y-131054991D01*
X192810344Y-131041328D01*
X192800407Y-131025756D01*
X192791509Y-131008914D01*
X192778307Y-130977772D01*
X192768298Y-130943864D01*
X192761450Y-130906847D01*
X192757733Y-130866376D01*
X192757117Y-130822109D01*
X192759571Y-130773700D01*
X192765065Y-130720806D01*
X192765540Y-130717098D01*
X192766545Y-130710292D01*
X192768470Y-130698222D01*
X192771253Y-130681248D01*
X192774834Y-130659727D01*
X192779150Y-130634019D01*
X192784142Y-130604483D01*
X192789748Y-130571478D01*
X192795907Y-130535364D01*
X192802558Y-130496498D01*
X192809640Y-130455240D01*
X192817092Y-130411949D01*
X192824853Y-130366984D01*
X192832862Y-130320704D01*
X192836816Y-130297898D01*
X192844829Y-130251675D01*
X192852568Y-130206951D01*
X192859978Y-130164053D01*
X192867002Y-130123308D01*
X192873584Y-130085046D01*
X192879669Y-130049592D01*
X192885201Y-130017275D01*
X192890122Y-129988422D01*
X192894379Y-129963360D01*
X192897913Y-129942417D01*
X192900670Y-129925921D01*
X192902594Y-129914199D01*
X192903628Y-129907579D01*
X192903798Y-129906196D01*
X192903616Y-129904586D01*
X192902668Y-129903315D01*
X192900348Y-129902345D01*
X192896052Y-129901634D01*
X192889174Y-129901142D01*
X192879111Y-129900830D01*
X192865257Y-129900655D01*
X192847007Y-129900579D01*
X192823757Y-129900562D01*
X192819274Y-129900561D01*
X192734751Y-129900561D01*
X192736256Y-129892713D01*
X192737140Y-129887969D01*
X192738905Y-129878389D01*
X192741409Y-129864750D01*
X192744509Y-129847831D01*
X192748062Y-129828411D01*
X192751925Y-129807268D01*
X192752998Y-129801388D01*
X192768236Y-129717911D01*
X192853899Y-129717910D01*
X192939562Y-129717910D01*
X192969438Y-129546674D01*
X192999315Y-129375438D01*
X193254940Y-129375438D01*
X193253413Y-129381859D01*
G36*
X194403239Y-129662728D02*
X194432204Y-129663545D01*
X194458852Y-129664818D01*
X194482038Y-129666544D01*
X194492011Y-129667582D01*
X194536768Y-129673724D01*
X194582380Y-129681677D01*
X194627769Y-129691174D01*
X194671859Y-129701951D01*
X194713573Y-129713742D01*
X194751833Y-129726284D01*
X194785562Y-129739310D01*
X194788335Y-129740495D01*
X194796353Y-129744257D01*
X194800176Y-129747361D01*
X194800964Y-129751128D01*
X194800453Y-129754293D01*
X194799816Y-129757787D01*
X194798240Y-129766656D01*
X194795769Y-129780652D01*
X194792445Y-129799527D01*
X194788314Y-129823034D01*
X194783417Y-129850925D01*
X194777798Y-129882951D01*
X194771502Y-129918866D01*
X194764570Y-129958422D01*
X194757047Y-130001370D01*
X194748976Y-130047463D01*
X194740401Y-130096453D01*
X194731364Y-130148093D01*
X194721909Y-130202134D01*
X194712080Y-130258329D01*
X194701920Y-130316430D01*
X194691473Y-130376189D01*
X194681824Y-130431393D01*
X194671157Y-130492417D01*
X194660740Y-130551996D01*
X194650615Y-130609882D01*
X194640827Y-130665830D01*
X194631417Y-130719590D01*
X194622431Y-130770918D01*
X194613910Y-130819564D01*
X194605899Y-130865283D01*
X194598441Y-130907828D01*
X194591578Y-130946950D01*
X194585355Y-130982403D01*
X194579814Y-131013941D01*
X194575000Y-131041315D01*
X194570955Y-131064279D01*
X194567722Y-131082586D01*
X194565345Y-131095988D01*
X194563868Y-131104239D01*
X194563342Y-131107061D01*
X194561824Y-131113483D01*
X194350742Y-131113483D01*
X194350742Y-131027865D01*
X194343479Y-131027865D01*
X194337678Y-131029633D01*
X194328298Y-131034643D01*
X194316119Y-131042449D01*
X194308518Y-131047769D01*
X194264088Y-131076223D01*
X194217115Y-131099637D01*
X194167854Y-131117945D01*
X194116560Y-131131083D01*
X194063488Y-131138983D01*
X194008894Y-131141582D01*
X193953384Y-131138847D01*
X193910587Y-131132913D01*
X193870659Y-131123733D01*
X193834122Y-131111496D01*
X193801503Y-131096388D01*
X193773326Y-131078598D01*
X193763776Y-131071076D01*
X193739364Y-131047970D01*
X193718037Y-131022085D01*
X193699631Y-130993043D01*
X193683986Y-130960467D01*
X193670941Y-130923978D01*
X193660335Y-130883200D01*
X193652005Y-130837755D01*
X193646806Y-130797168D01*
X193643983Y-130757873D01*
X193643350Y-130713739D01*
X193643693Y-130702714D01*
X193902649Y-130702714D01*
X193905419Y-130748808D01*
X193911001Y-130790466D01*
X193919388Y-130827532D01*
X193930573Y-130859854D01*
X193937621Y-130874985D01*
X193949810Y-130894748D01*
X193965163Y-130913656D01*
X193982361Y-130930335D01*
X194000083Y-130943413D01*
X194007309Y-130947474D01*
X194034181Y-130958352D01*
X194064974Y-130966086D01*
X194098781Y-130970574D01*
X194134692Y-130971714D01*
X194171800Y-130969405D01*
X194186641Y-130967513D01*
X194231070Y-130958501D01*
X194275845Y-130944589D01*
X194313945Y-130928831D01*
X194341361Y-130916085D01*
X194350505Y-130864239D01*
X194351987Y-130855837D01*
X194354404Y-130842141D01*
X194357698Y-130823477D01*
X194361811Y-130800173D01*
X194366686Y-130772555D01*
X194372264Y-130740951D01*
X194378489Y-130705686D01*
X194385303Y-130667087D01*
X194392647Y-130625482D01*
X194400464Y-130581198D01*
X194408697Y-130534560D01*
X194417287Y-130485896D01*
X194426178Y-130435533D01*
X194435311Y-130383797D01*
X194444629Y-130331016D01*
X194446054Y-130322943D01*
X194455231Y-130270912D01*
X194464124Y-130220392D01*
X194472685Y-130171672D01*
X194480862Y-130125038D01*
X194488607Y-130080776D01*
X194495870Y-130039173D01*
X194502600Y-130000516D01*
X194508748Y-129965092D01*
X194514265Y-129933188D01*
X194519101Y-129905089D01*
X194523205Y-129881084D01*
X194526529Y-129861458D01*
X194529022Y-129846499D01*
X194530635Y-129836493D01*
X194531318Y-129831727D01*
X194531331Y-129831353D01*
X194528239Y-129830726D01*
X194520179Y-129830214D01*
X194507891Y-129829816D01*
X194492112Y-129829528D01*
X194473582Y-129829349D01*
X194453040Y-129829276D01*
X194431225Y-129829305D01*
X194408876Y-129829435D01*
X194386730Y-129829663D01*
X194365529Y-129829986D01*
X194346009Y-129830402D01*
X194328910Y-129830908D01*
X194314972Y-129831502D01*
X194305355Y-129832142D01*
X194266584Y-129837323D01*
X194231842Y-129845850D01*
X194200282Y-129858106D01*
X194171054Y-129874475D01*
X194143310Y-129895339D01*
X194122400Y-129914735D01*
X194109579Y-129928378D01*
X194096343Y-129943793D01*
X194084379Y-129958953D01*
X194077177Y-129969056D01*
X194067690Y-129984332D01*
X194056784Y-130003624D01*
X194045108Y-130025629D01*
X194033313Y-130049043D01*
X194022047Y-130072563D01*
X194011963Y-130094887D01*
X194003709Y-130114709D01*
X194001088Y-130121587D01*
X193987729Y-130161039D01*
X193974665Y-130205995D01*
X193961943Y-130256256D01*
X193949608Y-130311621D01*
X193937705Y-130371892D01*
X193926280Y-130436871D01*
X193919825Y-130477056D01*
X193911279Y-130539354D01*
X193905572Y-130597832D01*
X193902698Y-130652337D01*
X193902649Y-130702714D01*
X193643693Y-130702714D01*
X193644864Y-130665181D01*
X193648481Y-130612613D01*
X193654156Y-130556449D01*
X193661846Y-130497102D01*
X193671507Y-130434987D01*
X193683093Y-130370518D01*
X193696563Y-130304108D01*
X193701791Y-130280134D01*
X193719973Y-130205191D01*
X193740054Y-130135599D01*
X193762052Y-130071318D01*
X193785987Y-130012311D01*
X193811877Y-129958539D01*
X193839741Y-129909963D01*
X193869596Y-129866545D01*
X193901461Y-129828245D01*
X193934747Y-129795563D01*
X193969137Y-129767675D01*
X194005110Y-129743489D01*
X194043255Y-129722763D01*
X194084161Y-129705253D01*
X194128415Y-129690717D01*
X194176606Y-129678912D01*
X194229321Y-129669594D01*
X194244846Y-129667414D01*
X194263694Y-129665487D01*
X194287087Y-129664020D01*
X194313882Y-129663011D01*
X194342935Y-129662459D01*
X194373102Y-129662365D01*
X194403239Y-129662728D01*
X194403239Y-129662728D01*
G37*
X194403239Y-129662728D02*
X194432204Y-129663545D01*
X194458852Y-129664818D01*
X194482038Y-129666544D01*
X194492011Y-129667582D01*
X194536768Y-129673724D01*
X194582380Y-129681677D01*
X194627769Y-129691174D01*
X194671859Y-129701951D01*
X194713573Y-129713742D01*
X194751833Y-129726284D01*
X194785562Y-129739310D01*
X194788335Y-129740495D01*
X194796353Y-129744257D01*
X194800176Y-129747361D01*
X194800964Y-129751128D01*
X194800453Y-129754293D01*
X194799816Y-129757787D01*
X194798240Y-129766656D01*
X194795769Y-129780652D01*
X194792445Y-129799527D01*
X194788314Y-129823034D01*
X194783417Y-129850925D01*
X194777798Y-129882951D01*
X194771502Y-129918866D01*
X194764570Y-129958422D01*
X194757047Y-130001370D01*
X194748976Y-130047463D01*
X194740401Y-130096453D01*
X194731364Y-130148093D01*
X194721909Y-130202134D01*
X194712080Y-130258329D01*
X194701920Y-130316430D01*
X194691473Y-130376189D01*
X194681824Y-130431393D01*
X194671157Y-130492417D01*
X194660740Y-130551996D01*
X194650615Y-130609882D01*
X194640827Y-130665830D01*
X194631417Y-130719590D01*
X194622431Y-130770918D01*
X194613910Y-130819564D01*
X194605899Y-130865283D01*
X194598441Y-130907828D01*
X194591578Y-130946950D01*
X194585355Y-130982403D01*
X194579814Y-131013941D01*
X194575000Y-131041315D01*
X194570955Y-131064279D01*
X194567722Y-131082586D01*
X194565345Y-131095988D01*
X194563868Y-131104239D01*
X194563342Y-131107061D01*
X194561824Y-131113483D01*
X194350742Y-131113483D01*
X194350742Y-131027865D01*
X194343479Y-131027865D01*
X194337678Y-131029633D01*
X194328298Y-131034643D01*
X194316119Y-131042449D01*
X194308518Y-131047769D01*
X194264088Y-131076223D01*
X194217115Y-131099637D01*
X194167854Y-131117945D01*
X194116560Y-131131083D01*
X194063488Y-131138983D01*
X194008894Y-131141582D01*
X193953384Y-131138847D01*
X193910587Y-131132913D01*
X193870659Y-131123733D01*
X193834122Y-131111496D01*
X193801503Y-131096388D01*
X193773326Y-131078598D01*
X193763776Y-131071076D01*
X193739364Y-131047970D01*
X193718037Y-131022085D01*
X193699631Y-130993043D01*
X193683986Y-130960467D01*
X193670941Y-130923978D01*
X193660335Y-130883200D01*
X193652005Y-130837755D01*
X193646806Y-130797168D01*
X193643983Y-130757873D01*
X193643350Y-130713739D01*
X193643693Y-130702714D01*
X193902649Y-130702714D01*
X193905419Y-130748808D01*
X193911001Y-130790466D01*
X193919388Y-130827532D01*
X193930573Y-130859854D01*
X193937621Y-130874985D01*
X193949810Y-130894748D01*
X193965163Y-130913656D01*
X193982361Y-130930335D01*
X194000083Y-130943413D01*
X194007309Y-130947474D01*
X194034181Y-130958352D01*
X194064974Y-130966086D01*
X194098781Y-130970574D01*
X194134692Y-130971714D01*
X194171800Y-130969405D01*
X194186641Y-130967513D01*
X194231070Y-130958501D01*
X194275845Y-130944589D01*
X194313945Y-130928831D01*
X194341361Y-130916085D01*
X194350505Y-130864239D01*
X194351987Y-130855837D01*
X194354404Y-130842141D01*
X194357698Y-130823477D01*
X194361811Y-130800173D01*
X194366686Y-130772555D01*
X194372264Y-130740951D01*
X194378489Y-130705686D01*
X194385303Y-130667087D01*
X194392647Y-130625482D01*
X194400464Y-130581198D01*
X194408697Y-130534560D01*
X194417287Y-130485896D01*
X194426178Y-130435533D01*
X194435311Y-130383797D01*
X194444629Y-130331016D01*
X194446054Y-130322943D01*
X194455231Y-130270912D01*
X194464124Y-130220392D01*
X194472685Y-130171672D01*
X194480862Y-130125038D01*
X194488607Y-130080776D01*
X194495870Y-130039173D01*
X194502600Y-130000516D01*
X194508748Y-129965092D01*
X194514265Y-129933188D01*
X194519101Y-129905089D01*
X194523205Y-129881084D01*
X194526529Y-129861458D01*
X194529022Y-129846499D01*
X194530635Y-129836493D01*
X194531318Y-129831727D01*
X194531331Y-129831353D01*
X194528239Y-129830726D01*
X194520179Y-129830214D01*
X194507891Y-129829816D01*
X194492112Y-129829528D01*
X194473582Y-129829349D01*
X194453040Y-129829276D01*
X194431225Y-129829305D01*
X194408876Y-129829435D01*
X194386730Y-129829663D01*
X194365529Y-129829986D01*
X194346009Y-129830402D01*
X194328910Y-129830908D01*
X194314972Y-129831502D01*
X194305355Y-129832142D01*
X194266584Y-129837323D01*
X194231842Y-129845850D01*
X194200282Y-129858106D01*
X194171054Y-129874475D01*
X194143310Y-129895339D01*
X194122400Y-129914735D01*
X194109579Y-129928378D01*
X194096343Y-129943793D01*
X194084379Y-129958953D01*
X194077177Y-129969056D01*
X194067690Y-129984332D01*
X194056784Y-130003624D01*
X194045108Y-130025629D01*
X194033313Y-130049043D01*
X194022047Y-130072563D01*
X194011963Y-130094887D01*
X194003709Y-130114709D01*
X194001088Y-130121587D01*
X193987729Y-130161039D01*
X193974665Y-130205995D01*
X193961943Y-130256256D01*
X193949608Y-130311621D01*
X193937705Y-130371892D01*
X193926280Y-130436871D01*
X193919825Y-130477056D01*
X193911279Y-130539354D01*
X193905572Y-130597832D01*
X193902698Y-130652337D01*
X193902649Y-130702714D01*
X193643693Y-130702714D01*
X193644864Y-130665181D01*
X193648481Y-130612613D01*
X193654156Y-130556449D01*
X193661846Y-130497102D01*
X193671507Y-130434987D01*
X193683093Y-130370518D01*
X193696563Y-130304108D01*
X193701791Y-130280134D01*
X193719973Y-130205191D01*
X193740054Y-130135599D01*
X193762052Y-130071318D01*
X193785987Y-130012311D01*
X193811877Y-129958539D01*
X193839741Y-129909963D01*
X193869596Y-129866545D01*
X193901461Y-129828245D01*
X193934747Y-129795563D01*
X193969137Y-129767675D01*
X194005110Y-129743489D01*
X194043255Y-129722763D01*
X194084161Y-129705253D01*
X194128415Y-129690717D01*
X194176606Y-129678912D01*
X194229321Y-129669594D01*
X194244846Y-129667414D01*
X194263694Y-129665487D01*
X194287087Y-129664020D01*
X194313882Y-129663011D01*
X194342935Y-129662459D01*
X194373102Y-129662365D01*
X194403239Y-129662728D01*
G36*
X195674673Y-129662664D02*
X195701267Y-129663237D01*
X195726169Y-129664216D01*
X195748148Y-129665593D01*
X195765975Y-129667361D01*
X195766932Y-129667485D01*
X195795864Y-129671671D01*
X195826437Y-129676726D01*
X195856831Y-129682316D01*
X195885227Y-129688105D01*
X195909805Y-129693758D01*
X195910416Y-129693910D01*
X195926010Y-129697978D01*
X195941823Y-129702415D01*
X195956788Y-129706888D01*
X195969835Y-129711062D01*
X195979896Y-129714603D01*
X195985901Y-129717177D01*
X195986893Y-129717827D01*
X195987136Y-129721153D01*
X195986470Y-129729198D01*
X195985006Y-129741069D01*
X195982856Y-129755869D01*
X195980132Y-129772704D01*
X195979818Y-129774551D01*
X195970469Y-129829213D01*
X195831993Y-129829238D01*
X195802791Y-129829303D01*
X195774010Y-129829478D01*
X195746421Y-129829751D01*
X195720798Y-129830110D01*
X195697916Y-129830543D01*
X195678547Y-129831037D01*
X195663465Y-129831580D01*
X195654696Y-129832063D01*
X195609925Y-129837442D01*
X195568937Y-129846952D01*
X195531399Y-129860765D01*
X195496978Y-129879058D01*
X195465344Y-129902004D01*
X195436162Y-129929778D01*
X195410980Y-129960031D01*
X195390377Y-129989610D01*
X195371239Y-130021624D01*
X195353444Y-130056427D01*
X195336873Y-130094374D01*
X195321404Y-130135820D01*
X195306916Y-130181119D01*
X195293290Y-130230626D01*
X195280404Y-130284696D01*
X195268138Y-130343683D01*
X195256371Y-130407943D01*
X195254103Y-130421245D01*
X195246929Y-130464967D01*
X195240995Y-130503888D01*
X195236229Y-130538758D01*
X195232559Y-130570333D01*
X195229911Y-130599363D01*
X195228215Y-130626602D01*
X195227396Y-130652804D01*
X195227384Y-130678719D01*
X195227762Y-130695382D01*
X195230173Y-130737671D01*
X195234725Y-130775083D01*
X195241559Y-130808084D01*
X195250819Y-130837144D01*
X195262647Y-130862731D01*
X195277184Y-130885312D01*
X195290164Y-130900786D01*
X195308705Y-130918829D01*
X195327624Y-130933213D01*
X195348165Y-130944598D01*
X195371570Y-130953646D01*
X195399082Y-130961018D01*
X195406328Y-130962589D01*
X195418985Y-130964929D01*
X195433215Y-130966938D01*
X195449477Y-130968639D01*
X195468233Y-130970050D01*
X195489944Y-130971191D01*
X195515071Y-130972084D01*
X195544074Y-130972748D01*
X195577416Y-130973202D01*
X195615556Y-130973469D01*
X195657486Y-130973566D01*
X195795545Y-130973640D01*
X195794062Y-130981488D01*
X195793099Y-130986871D01*
X195791383Y-130996756D01*
X195789106Y-131010018D01*
X195786461Y-131025533D01*
X195784497Y-131037122D01*
X195776415Y-131084908D01*
X195759225Y-131090583D01*
X195738845Y-131096679D01*
X195713920Y-131103107D01*
X195685582Y-131109639D01*
X195654966Y-131116045D01*
X195623206Y-131122096D01*
X195591435Y-131127564D01*
X195560788Y-131132218D01*
X195539405Y-131135015D01*
X195525859Y-131136323D01*
X195508281Y-131137542D01*
X195487820Y-131138637D01*
X195465620Y-131139573D01*
X195442830Y-131140316D01*
X195420596Y-131140831D01*
X195400066Y-131141083D01*
X195382385Y-131141036D01*
X195368702Y-131140657D01*
X195363888Y-131140347D01*
X195317471Y-131135740D01*
X195276142Y-131130130D01*
X195239343Y-131123323D01*
X195206513Y-131115130D01*
X195177091Y-131105360D01*
X195150518Y-131093821D01*
X195126232Y-131080323D01*
X195103673Y-131064674D01*
X195082282Y-131046684D01*
X195078329Y-131043009D01*
X195054848Y-131018093D01*
X195034578Y-130990491D01*
X195017302Y-130959722D01*
X195002801Y-130925304D01*
X194990857Y-130886754D01*
X194981251Y-130843591D01*
X194977164Y-130819528D01*
X194974590Y-130798215D01*
X194972641Y-130772483D01*
X194971339Y-130743587D01*
X194970699Y-130712783D01*
X194970741Y-130681327D01*
X194971484Y-130650475D01*
X194972945Y-130621483D01*
X194974051Y-130606910D01*
X194979310Y-130555675D01*
X194986465Y-130500554D01*
X194995268Y-130442952D01*
X195005474Y-130384274D01*
X195016835Y-130325925D01*
X195029104Y-130269309D01*
X195042036Y-130215832D01*
X195044229Y-130207359D01*
X195064712Y-130135868D01*
X195087412Y-130069626D01*
X195112339Y-130008618D01*
X195139502Y-129952830D01*
X195168909Y-129902248D01*
X195200568Y-129856858D01*
X195234490Y-129816645D01*
X195270682Y-129781595D01*
X195309154Y-129751693D01*
X195335339Y-129735039D01*
X195369094Y-129717653D01*
X195407491Y-129702053D01*
X195449668Y-129688504D01*
X195494767Y-129677270D01*
X195541925Y-129668616D01*
X195559382Y-129666165D01*
X195575982Y-129664590D01*
X195597041Y-129663461D01*
X195621330Y-129662768D01*
X195647617Y-129662505D01*
X195674673Y-129662664D01*
X195674673Y-129662664D01*
G37*
X195674673Y-129662664D02*
X195701267Y-129663237D01*
X195726169Y-129664216D01*
X195748148Y-129665593D01*
X195765975Y-129667361D01*
X195766932Y-129667485D01*
X195795864Y-129671671D01*
X195826437Y-129676726D01*
X195856831Y-129682316D01*
X195885227Y-129688105D01*
X195909805Y-129693758D01*
X195910416Y-129693910D01*
X195926010Y-129697978D01*
X195941823Y-129702415D01*
X195956788Y-129706888D01*
X195969835Y-129711062D01*
X195979896Y-129714603D01*
X195985901Y-129717177D01*
X195986893Y-129717827D01*
X195987136Y-129721153D01*
X195986470Y-129729198D01*
X195985006Y-129741069D01*
X195982856Y-129755869D01*
X195980132Y-129772704D01*
X195979818Y-129774551D01*
X195970469Y-129829213D01*
X195831993Y-129829238D01*
X195802791Y-129829303D01*
X195774010Y-129829478D01*
X195746421Y-129829751D01*
X195720798Y-129830110D01*
X195697916Y-129830543D01*
X195678547Y-129831037D01*
X195663465Y-129831580D01*
X195654696Y-129832063D01*
X195609925Y-129837442D01*
X195568937Y-129846952D01*
X195531399Y-129860765D01*
X195496978Y-129879058D01*
X195465344Y-129902004D01*
X195436162Y-129929778D01*
X195410980Y-129960031D01*
X195390377Y-129989610D01*
X195371239Y-130021624D01*
X195353444Y-130056427D01*
X195336873Y-130094374D01*
X195321404Y-130135820D01*
X195306916Y-130181119D01*
X195293290Y-130230626D01*
X195280404Y-130284696D01*
X195268138Y-130343683D01*
X195256371Y-130407943D01*
X195254103Y-130421245D01*
X195246929Y-130464967D01*
X195240995Y-130503888D01*
X195236229Y-130538758D01*
X195232559Y-130570333D01*
X195229911Y-130599363D01*
X195228215Y-130626602D01*
X195227396Y-130652804D01*
X195227384Y-130678719D01*
X195227762Y-130695382D01*
X195230173Y-130737671D01*
X195234725Y-130775083D01*
X195241559Y-130808084D01*
X195250819Y-130837144D01*
X195262647Y-130862731D01*
X195277184Y-130885312D01*
X195290164Y-130900786D01*
X195308705Y-130918829D01*
X195327624Y-130933213D01*
X195348165Y-130944598D01*
X195371570Y-130953646D01*
X195399082Y-130961018D01*
X195406328Y-130962589D01*
X195418985Y-130964929D01*
X195433215Y-130966938D01*
X195449477Y-130968639D01*
X195468233Y-130970050D01*
X195489944Y-130971191D01*
X195515071Y-130972084D01*
X195544074Y-130972748D01*
X195577416Y-130973202D01*
X195615556Y-130973469D01*
X195657486Y-130973566D01*
X195795545Y-130973640D01*
X195794062Y-130981488D01*
X195793099Y-130986871D01*
X195791383Y-130996756D01*
X195789106Y-131010018D01*
X195786461Y-131025533D01*
X195784497Y-131037122D01*
X195776415Y-131084908D01*
X195759225Y-131090583D01*
X195738845Y-131096679D01*
X195713920Y-131103107D01*
X195685582Y-131109639D01*
X195654966Y-131116045D01*
X195623206Y-131122096D01*
X195591435Y-131127564D01*
X195560788Y-131132218D01*
X195539405Y-131135015D01*
X195525859Y-131136323D01*
X195508281Y-131137542D01*
X195487820Y-131138637D01*
X195465620Y-131139573D01*
X195442830Y-131140316D01*
X195420596Y-131140831D01*
X195400066Y-131141083D01*
X195382385Y-131141036D01*
X195368702Y-131140657D01*
X195363888Y-131140347D01*
X195317471Y-131135740D01*
X195276142Y-131130130D01*
X195239343Y-131123323D01*
X195206513Y-131115130D01*
X195177091Y-131105360D01*
X195150518Y-131093821D01*
X195126232Y-131080323D01*
X195103673Y-131064674D01*
X195082282Y-131046684D01*
X195078329Y-131043009D01*
X195054848Y-131018093D01*
X195034578Y-130990491D01*
X195017302Y-130959722D01*
X195002801Y-130925304D01*
X194990857Y-130886754D01*
X194981251Y-130843591D01*
X194977164Y-130819528D01*
X194974590Y-130798215D01*
X194972641Y-130772483D01*
X194971339Y-130743587D01*
X194970699Y-130712783D01*
X194970741Y-130681327D01*
X194971484Y-130650475D01*
X194972945Y-130621483D01*
X194974051Y-130606910D01*
X194979310Y-130555675D01*
X194986465Y-130500554D01*
X194995268Y-130442952D01*
X195005474Y-130384274D01*
X195016835Y-130325925D01*
X195029104Y-130269309D01*
X195042036Y-130215832D01*
X195044229Y-130207359D01*
X195064712Y-130135868D01*
X195087412Y-130069626D01*
X195112339Y-130008618D01*
X195139502Y-129952830D01*
X195168909Y-129902248D01*
X195200568Y-129856858D01*
X195234490Y-129816645D01*
X195270682Y-129781595D01*
X195309154Y-129751693D01*
X195335339Y-129735039D01*
X195369094Y-129717653D01*
X195407491Y-129702053D01*
X195449668Y-129688504D01*
X195494767Y-129677270D01*
X195541925Y-129668616D01*
X195559382Y-129666165D01*
X195575982Y-129664590D01*
X195597041Y-129663461D01*
X195621330Y-129662768D01*
X195647617Y-129662505D01*
X195674673Y-129662664D01*
G36*
X186495590Y-129126432D02*
X186494729Y-129131161D01*
X186493058Y-129140749D01*
X186490708Y-129154429D01*
X186487810Y-129171430D01*
X186484497Y-129190984D01*
X186480898Y-129212321D01*
X186479624Y-129219898D01*
X186475970Y-129241584D01*
X186472563Y-129261673D01*
X186469532Y-129279412D01*
X186467007Y-129294049D01*
X186465117Y-129304829D01*
X186463993Y-129310999D01*
X186463803Y-129311938D01*
X186462363Y-129318359D01*
X185750171Y-129318359D01*
X185688151Y-129664398D01*
X185680330Y-129708070D01*
X185672795Y-129750204D01*
X185665607Y-129790458D01*
X185658827Y-129828489D01*
X185652516Y-129863952D01*
X185646734Y-129896505D01*
X185641543Y-129925803D01*
X185637004Y-129951504D01*
X185633177Y-129973264D01*
X185630123Y-129990738D01*
X185627903Y-130003585D01*
X185626578Y-130011460D01*
X185626201Y-130014005D01*
X185627262Y-130014598D01*
X185630603Y-130015125D01*
X185636496Y-130015591D01*
X185645214Y-130015998D01*
X185657031Y-130016350D01*
X185672219Y-130016650D01*
X185691050Y-130016901D01*
X185713798Y-130017107D01*
X185740736Y-130017271D01*
X185772136Y-130017395D01*
X185808271Y-130017484D01*
X185849414Y-130017541D01*
X185895838Y-130017569D01*
X185924506Y-130017573D01*
X185974017Y-130017585D01*
X186018094Y-130017625D01*
X186057008Y-130017695D01*
X186091033Y-130017799D01*
X186120441Y-130017940D01*
X186145505Y-130018121D01*
X186166499Y-130018346D01*
X186183695Y-130018617D01*
X186197365Y-130018939D01*
X186207783Y-130019313D01*
X186215222Y-130019745D01*
X186219953Y-130020236D01*
X186222251Y-130020790D01*
X186222576Y-130021140D01*
X186222063Y-130024716D01*
X186220682Y-130033232D01*
X186218550Y-130046003D01*
X186215781Y-130062346D01*
X186212492Y-130081577D01*
X186208798Y-130103014D01*
X186206047Y-130118887D01*
X186189684Y-130213067D01*
X185590692Y-130215921D01*
X185530173Y-130562674D01*
X185522145Y-130608674D01*
X185514126Y-130654622D01*
X185506200Y-130700032D01*
X185498453Y-130744419D01*
X185490969Y-130787297D01*
X185483833Y-130828181D01*
X185477130Y-130866586D01*
X185470945Y-130902026D01*
X185465361Y-130934015D01*
X185460465Y-130962068D01*
X185456340Y-130985700D01*
X185453071Y-131004424D01*
X185451844Y-131011455D01*
X185434032Y-131113483D01*
X185178888Y-131113483D01*
X185182714Y-131092792D01*
X185183494Y-131088429D01*
X185185224Y-131078653D01*
X185187866Y-131063672D01*
X185191385Y-131043694D01*
X185195744Y-131018928D01*
X185200905Y-130989583D01*
X185206833Y-130955867D01*
X185213490Y-130917989D01*
X185220841Y-130876156D01*
X185228848Y-130830579D01*
X185237474Y-130781464D01*
X185246685Y-130729021D01*
X185256441Y-130673459D01*
X185266708Y-130614985D01*
X185277448Y-130553808D01*
X185288625Y-130490137D01*
X185300201Y-130424181D01*
X185312142Y-130356147D01*
X185324409Y-130286245D01*
X185336966Y-130214682D01*
X185349777Y-130141668D01*
X185356528Y-130103191D01*
X185369431Y-130029649D01*
X185382088Y-129957517D01*
X185394462Y-129887002D01*
X185406518Y-129818307D01*
X185418220Y-129751638D01*
X185429531Y-129687199D01*
X185440416Y-129625196D01*
X185450839Y-129565833D01*
X185460763Y-129509316D01*
X185470153Y-129455848D01*
X185478973Y-129405635D01*
X185487187Y-129358883D01*
X185494758Y-129315795D01*
X185501651Y-129276577D01*
X185507830Y-129241433D01*
X185513258Y-129210569D01*
X185517900Y-129184190D01*
X185521720Y-129162500D01*
X185524682Y-129145704D01*
X185526749Y-129134007D01*
X185527887Y-129127614D01*
X185528103Y-129126432D01*
X185529690Y-129118584D01*
X186497173Y-129118584D01*
X186495590Y-129126432D01*
X186495590Y-129126432D01*
G37*
X186495590Y-129126432D02*
X186494729Y-129131161D01*
X186493058Y-129140749D01*
X186490708Y-129154429D01*
X186487810Y-129171430D01*
X186484497Y-129190984D01*
X186480898Y-129212321D01*
X186479624Y-129219898D01*
X186475970Y-129241584D01*
X186472563Y-129261673D01*
X186469532Y-129279412D01*
X186467007Y-129294049D01*
X186465117Y-129304829D01*
X186463993Y-129310999D01*
X186463803Y-129311938D01*
X186462363Y-129318359D01*
X185750171Y-129318359D01*
X185688151Y-129664398D01*
X185680330Y-129708070D01*
X185672795Y-129750204D01*
X185665607Y-129790458D01*
X185658827Y-129828489D01*
X185652516Y-129863952D01*
X185646734Y-129896505D01*
X185641543Y-129925803D01*
X185637004Y-129951504D01*
X185633177Y-129973264D01*
X185630123Y-129990738D01*
X185627903Y-130003585D01*
X185626578Y-130011460D01*
X185626201Y-130014005D01*
X185627262Y-130014598D01*
X185630603Y-130015125D01*
X185636496Y-130015591D01*
X185645214Y-130015998D01*
X185657031Y-130016350D01*
X185672219Y-130016650D01*
X185691050Y-130016901D01*
X185713798Y-130017107D01*
X185740736Y-130017271D01*
X185772136Y-130017395D01*
X185808271Y-130017484D01*
X185849414Y-130017541D01*
X185895838Y-130017569D01*
X185924506Y-130017573D01*
X185974017Y-130017585D01*
X186018094Y-130017625D01*
X186057008Y-130017695D01*
X186091033Y-130017799D01*
X186120441Y-130017940D01*
X186145505Y-130018121D01*
X186166499Y-130018346D01*
X186183695Y-130018617D01*
X186197365Y-130018939D01*
X186207783Y-130019313D01*
X186215222Y-130019745D01*
X186219953Y-130020236D01*
X186222251Y-130020790D01*
X186222576Y-130021140D01*
X186222063Y-130024716D01*
X186220682Y-130033232D01*
X186218550Y-130046003D01*
X186215781Y-130062346D01*
X186212492Y-130081577D01*
X186208798Y-130103014D01*
X186206047Y-130118887D01*
X186189684Y-130213067D01*
X185590692Y-130215921D01*
X185530173Y-130562674D01*
X185522145Y-130608674D01*
X185514126Y-130654622D01*
X185506200Y-130700032D01*
X185498453Y-130744419D01*
X185490969Y-130787297D01*
X185483833Y-130828181D01*
X185477130Y-130866586D01*
X185470945Y-130902026D01*
X185465361Y-130934015D01*
X185460465Y-130962068D01*
X185456340Y-130985700D01*
X185453071Y-131004424D01*
X185451844Y-131011455D01*
X185434032Y-131113483D01*
X185178888Y-131113483D01*
X185182714Y-131092792D01*
X185183494Y-131088429D01*
X185185224Y-131078653D01*
X185187866Y-131063672D01*
X185191385Y-131043694D01*
X185195744Y-131018928D01*
X185200905Y-130989583D01*
X185206833Y-130955867D01*
X185213490Y-130917989D01*
X185220841Y-130876156D01*
X185228848Y-130830579D01*
X185237474Y-130781464D01*
X185246685Y-130729021D01*
X185256441Y-130673459D01*
X185266708Y-130614985D01*
X185277448Y-130553808D01*
X185288625Y-130490137D01*
X185300201Y-130424181D01*
X185312142Y-130356147D01*
X185324409Y-130286245D01*
X185336966Y-130214682D01*
X185349777Y-130141668D01*
X185356528Y-130103191D01*
X185369431Y-130029649D01*
X185382088Y-129957517D01*
X185394462Y-129887002D01*
X185406518Y-129818307D01*
X185418220Y-129751638D01*
X185429531Y-129687199D01*
X185440416Y-129625196D01*
X185450839Y-129565833D01*
X185460763Y-129509316D01*
X185470153Y-129455848D01*
X185478973Y-129405635D01*
X185487187Y-129358883D01*
X185494758Y-129315795D01*
X185501651Y-129276577D01*
X185507830Y-129241433D01*
X185513258Y-129210569D01*
X185517900Y-129184190D01*
X185521720Y-129162500D01*
X185524682Y-129145704D01*
X185526749Y-129134007D01*
X185527887Y-129127614D01*
X185528103Y-129126432D01*
X185529690Y-129118584D01*
X186497173Y-129118584D01*
X186495590Y-129126432D01*
G36*
X186911048Y-129118601D02*
X186936294Y-129118664D01*
X186956791Y-129118790D01*
X186973018Y-129118994D01*
X186985455Y-129119294D01*
X186994581Y-129119706D01*
X187000876Y-129120247D01*
X187004818Y-129120933D01*
X187006887Y-129121782D01*
X187007562Y-129122809D01*
X187007573Y-129122989D01*
X187007087Y-129125967D01*
X187005657Y-129134322D01*
X187003326Y-129147810D01*
X187000136Y-129166186D01*
X186996132Y-129189206D01*
X186991355Y-129216625D01*
X186985848Y-129248199D01*
X186979654Y-129283683D01*
X186972817Y-129322832D01*
X186965378Y-129365403D01*
X186957381Y-129411150D01*
X186948869Y-129459829D01*
X186939884Y-129511196D01*
X186930469Y-129565006D01*
X186920668Y-129621013D01*
X186910522Y-129678975D01*
X186900076Y-129738646D01*
X186889371Y-129799782D01*
X186878451Y-129862138D01*
X186867358Y-129925469D01*
X186856135Y-129989532D01*
X186844826Y-130054081D01*
X186833472Y-130118873D01*
X186822117Y-130183661D01*
X186810804Y-130248203D01*
X186799575Y-130312253D01*
X186788474Y-130375567D01*
X186777543Y-130437901D01*
X186766825Y-130499009D01*
X186756362Y-130558647D01*
X186746199Y-130616572D01*
X186736377Y-130672537D01*
X186726939Y-130726299D01*
X186717929Y-130777613D01*
X186709389Y-130826235D01*
X186701362Y-130871919D01*
X186693891Y-130914422D01*
X186687018Y-130953499D01*
X186680787Y-130988906D01*
X186675241Y-131020397D01*
X186670421Y-131047729D01*
X186666372Y-131070656D01*
X186663136Y-131088934D01*
X186660755Y-131102320D01*
X186660418Y-131104207D01*
X186658758Y-131113483D01*
X186532076Y-131113483D01*
X186501780Y-131113469D01*
X186476705Y-131113416D01*
X186456362Y-131113305D01*
X186440263Y-131113118D01*
X186427921Y-131112837D01*
X186418848Y-131112444D01*
X186412556Y-131111920D01*
X186408558Y-131111246D01*
X186406365Y-131110405D01*
X186405490Y-131109379D01*
X186405394Y-131108738D01*
X186405882Y-131105601D01*
X186407324Y-131097045D01*
X186409684Y-131083271D01*
X186412927Y-131064480D01*
X186417017Y-131040875D01*
X186421920Y-131012656D01*
X186427600Y-130980026D01*
X186434022Y-130943186D01*
X186441150Y-130902338D01*
X186448949Y-130857684D01*
X186457385Y-130809426D01*
X186466421Y-130757764D01*
X186476023Y-130702902D01*
X186486155Y-130645040D01*
X186496782Y-130584380D01*
X186507868Y-130521124D01*
X186519379Y-130455474D01*
X186531279Y-130387631D01*
X186543533Y-130317797D01*
X186556106Y-130246174D01*
X186568961Y-130172963D01*
X186579483Y-130113063D01*
X186592537Y-130038753D01*
X186605337Y-129965885D01*
X186617846Y-129894658D01*
X186630030Y-129825273D01*
X186641853Y-129757932D01*
X186653281Y-129692835D01*
X186664278Y-129630183D01*
X186674808Y-129570177D01*
X186684837Y-129513018D01*
X186694330Y-129458907D01*
X186703250Y-129408044D01*
X186711564Y-129360632D01*
X186719235Y-129316869D01*
X186726228Y-129276959D01*
X186732509Y-129241100D01*
X186738042Y-129209495D01*
X186742791Y-129182344D01*
X186746722Y-129159848D01*
X186749799Y-129142208D01*
X186751987Y-129129625D01*
X186753251Y-129122300D01*
X186753573Y-129120358D01*
X186756332Y-129119991D01*
X186764225Y-129119649D01*
X186776681Y-129119341D01*
X186793126Y-129119074D01*
X186812989Y-129118858D01*
X186835695Y-129118699D01*
X186860672Y-129118606D01*
X186880573Y-129118584D01*
X186911048Y-129118601D01*
X186911048Y-129118601D01*
G37*
X186911048Y-129118601D02*
X186936294Y-129118664D01*
X186956791Y-129118790D01*
X186973018Y-129118994D01*
X186985455Y-129119294D01*
X186994581Y-129119706D01*
X187000876Y-129120247D01*
X187004818Y-129120933D01*
X187006887Y-129121782D01*
X187007562Y-129122809D01*
X187007573Y-129122989D01*
X187007087Y-129125967D01*
X187005657Y-129134322D01*
X187003326Y-129147810D01*
X187000136Y-129166186D01*
X186996132Y-129189206D01*
X186991355Y-129216625D01*
X186985848Y-129248199D01*
X186979654Y-129283683D01*
X186972817Y-129322832D01*
X186965378Y-129365403D01*
X186957381Y-129411150D01*
X186948869Y-129459829D01*
X186939884Y-129511196D01*
X186930469Y-129565006D01*
X186920668Y-129621013D01*
X186910522Y-129678975D01*
X186900076Y-129738646D01*
X186889371Y-129799782D01*
X186878451Y-129862138D01*
X186867358Y-129925469D01*
X186856135Y-129989532D01*
X186844826Y-130054081D01*
X186833472Y-130118873D01*
X186822117Y-130183661D01*
X186810804Y-130248203D01*
X186799575Y-130312253D01*
X186788474Y-130375567D01*
X186777543Y-130437901D01*
X186766825Y-130499009D01*
X186756362Y-130558647D01*
X186746199Y-130616572D01*
X186736377Y-130672537D01*
X186726939Y-130726299D01*
X186717929Y-130777613D01*
X186709389Y-130826235D01*
X186701362Y-130871919D01*
X186693891Y-130914422D01*
X186687018Y-130953499D01*
X186680787Y-130988906D01*
X186675241Y-131020397D01*
X186670421Y-131047729D01*
X186666372Y-131070656D01*
X186663136Y-131088934D01*
X186660755Y-131102320D01*
X186660418Y-131104207D01*
X186658758Y-131113483D01*
X186532076Y-131113483D01*
X186501780Y-131113469D01*
X186476705Y-131113416D01*
X186456362Y-131113305D01*
X186440263Y-131113118D01*
X186427921Y-131112837D01*
X186418848Y-131112444D01*
X186412556Y-131111920D01*
X186408558Y-131111246D01*
X186406365Y-131110405D01*
X186405490Y-131109379D01*
X186405394Y-131108738D01*
X186405882Y-131105601D01*
X186407324Y-131097045D01*
X186409684Y-131083271D01*
X186412927Y-131064480D01*
X186417017Y-131040875D01*
X186421920Y-131012656D01*
X186427600Y-130980026D01*
X186434022Y-130943186D01*
X186441150Y-130902338D01*
X186448949Y-130857684D01*
X186457385Y-130809426D01*
X186466421Y-130757764D01*
X186476023Y-130702902D01*
X186486155Y-130645040D01*
X186496782Y-130584380D01*
X186507868Y-130521124D01*
X186519379Y-130455474D01*
X186531279Y-130387631D01*
X186543533Y-130317797D01*
X186556106Y-130246174D01*
X186568961Y-130172963D01*
X186579483Y-130113063D01*
X186592537Y-130038753D01*
X186605337Y-129965885D01*
X186617846Y-129894658D01*
X186630030Y-129825273D01*
X186641853Y-129757932D01*
X186653281Y-129692835D01*
X186664278Y-129630183D01*
X186674808Y-129570177D01*
X186684837Y-129513018D01*
X186694330Y-129458907D01*
X186703250Y-129408044D01*
X186711564Y-129360632D01*
X186719235Y-129316869D01*
X186726228Y-129276959D01*
X186732509Y-129241100D01*
X186738042Y-129209495D01*
X186742791Y-129182344D01*
X186746722Y-129159848D01*
X186749799Y-129142208D01*
X186751987Y-129129625D01*
X186753251Y-129122300D01*
X186753573Y-129120358D01*
X186756332Y-129119991D01*
X186764225Y-129119649D01*
X186776681Y-129119341D01*
X186793126Y-129119074D01*
X186812989Y-129118858D01*
X186835695Y-129118699D01*
X186860672Y-129118606D01*
X186880573Y-129118584D01*
X186911048Y-129118601D01*
G36*
X187371424Y-129689774D02*
X187394202Y-129689840D01*
X187419228Y-129689948D01*
X187438950Y-129690054D01*
X187565849Y-129690797D01*
X187440935Y-130400000D01*
X187429881Y-130462767D01*
X187419087Y-130524063D01*
X187408597Y-130583651D01*
X187398451Y-130641292D01*
X187388692Y-130696749D01*
X187379361Y-130749783D01*
X187370501Y-130800158D01*
X187362152Y-130847634D01*
X187354357Y-130891975D01*
X187347157Y-130932942D01*
X187340595Y-130970298D01*
X187334711Y-131003804D01*
X187329549Y-131033224D01*
X187325149Y-131058318D01*
X187321554Y-131078850D01*
X187318805Y-131094581D01*
X187316945Y-131105273D01*
X187316014Y-131110690D01*
X187315910Y-131111342D01*
X187313128Y-131111786D01*
X187305211Y-131112198D01*
X187292734Y-131112570D01*
X187276269Y-131112891D01*
X187256390Y-131113152D01*
X187233670Y-131113344D01*
X187208683Y-131113456D01*
X187188798Y-131113483D01*
X187156998Y-131113447D01*
X187130522Y-131113334D01*
X187108989Y-131113133D01*
X187092015Y-131112834D01*
X187079219Y-131112425D01*
X187070216Y-131111897D01*
X187064626Y-131111240D01*
X187062064Y-131110442D01*
X187061798Y-131110026D01*
X187062284Y-131106952D01*
X187063708Y-131098557D01*
X187066020Y-131085131D01*
X187069169Y-131066962D01*
X187073103Y-131044339D01*
X187077772Y-131017553D01*
X187083125Y-130986891D01*
X187089112Y-130952643D01*
X187095681Y-130915099D01*
X187102781Y-130874547D01*
X187110362Y-130831277D01*
X187118374Y-130785577D01*
X187126764Y-130737738D01*
X187135482Y-130688047D01*
X187144478Y-130636795D01*
X187153701Y-130584271D01*
X187163099Y-130530763D01*
X187172622Y-130476561D01*
X187182219Y-130421954D01*
X187191839Y-130367232D01*
X187201432Y-130312682D01*
X187210946Y-130258596D01*
X187220331Y-130205261D01*
X187229536Y-130152967D01*
X187238510Y-130102003D01*
X187247202Y-130052659D01*
X187255562Y-130005223D01*
X187263538Y-129959984D01*
X187271079Y-129917233D01*
X187278136Y-129877257D01*
X187284657Y-129840347D01*
X187290590Y-129806791D01*
X187295886Y-129776878D01*
X187300494Y-129750898D01*
X187304362Y-129729140D01*
X187307440Y-129711894D01*
X187309677Y-129699447D01*
X187311023Y-129692090D01*
X187311426Y-129690054D01*
X187314317Y-129689916D01*
X187322339Y-129689819D01*
X187334916Y-129689763D01*
X187351469Y-129689748D01*
X187371424Y-129689774D01*
X187371424Y-129689774D01*
G37*
X187371424Y-129689774D02*
X187394202Y-129689840D01*
X187419228Y-129689948D01*
X187438950Y-129690054D01*
X187565849Y-129690797D01*
X187440935Y-130400000D01*
X187429881Y-130462767D01*
X187419087Y-130524063D01*
X187408597Y-130583651D01*
X187398451Y-130641292D01*
X187388692Y-130696749D01*
X187379361Y-130749783D01*
X187370501Y-130800158D01*
X187362152Y-130847634D01*
X187354357Y-130891975D01*
X187347157Y-130932942D01*
X187340595Y-130970298D01*
X187334711Y-131003804D01*
X187329549Y-131033224D01*
X187325149Y-131058318D01*
X187321554Y-131078850D01*
X187318805Y-131094581D01*
X187316945Y-131105273D01*
X187316014Y-131110690D01*
X187315910Y-131111342D01*
X187313128Y-131111786D01*
X187305211Y-131112198D01*
X187292734Y-131112570D01*
X187276269Y-131112891D01*
X187256390Y-131113152D01*
X187233670Y-131113344D01*
X187208683Y-131113456D01*
X187188798Y-131113483D01*
X187156998Y-131113447D01*
X187130522Y-131113334D01*
X187108989Y-131113133D01*
X187092015Y-131112834D01*
X187079219Y-131112425D01*
X187070216Y-131111897D01*
X187064626Y-131111240D01*
X187062064Y-131110442D01*
X187061798Y-131110026D01*
X187062284Y-131106952D01*
X187063708Y-131098557D01*
X187066020Y-131085131D01*
X187069169Y-131066962D01*
X187073103Y-131044339D01*
X187077772Y-131017553D01*
X187083125Y-130986891D01*
X187089112Y-130952643D01*
X187095681Y-130915099D01*
X187102781Y-130874547D01*
X187110362Y-130831277D01*
X187118374Y-130785577D01*
X187126764Y-130737738D01*
X187135482Y-130688047D01*
X187144478Y-130636795D01*
X187153701Y-130584271D01*
X187163099Y-130530763D01*
X187172622Y-130476561D01*
X187182219Y-130421954D01*
X187191839Y-130367232D01*
X187201432Y-130312682D01*
X187210946Y-130258596D01*
X187220331Y-130205261D01*
X187229536Y-130152967D01*
X187238510Y-130102003D01*
X187247202Y-130052659D01*
X187255562Y-130005223D01*
X187263538Y-129959984D01*
X187271079Y-129917233D01*
X187278136Y-129877257D01*
X187284657Y-129840347D01*
X187290590Y-129806791D01*
X187295886Y-129776878D01*
X187300494Y-129750898D01*
X187304362Y-129729140D01*
X187307440Y-129711894D01*
X187309677Y-129699447D01*
X187311023Y-129692090D01*
X187311426Y-129690054D01*
X187314317Y-129689916D01*
X187322339Y-129689819D01*
X187334916Y-129689763D01*
X187351469Y-129689748D01*
X187371424Y-129689774D01*
G36*
X189627618Y-129118987D02*
X189639056Y-129119053D01*
X189645795Y-129119159D01*
X189647423Y-129119268D01*
X189646932Y-129122119D01*
X189645511Y-129130229D01*
X189643225Y-129143236D01*
X189640138Y-129160776D01*
X189636312Y-129182490D01*
X189631813Y-129208013D01*
X189626703Y-129236984D01*
X189621047Y-129269041D01*
X189614909Y-129303822D01*
X189608352Y-129340965D01*
X189601441Y-129380107D01*
X189594238Y-129420886D01*
X189593444Y-129425382D01*
X189586222Y-129466315D01*
X189579296Y-129505650D01*
X189572732Y-129543025D01*
X189566590Y-129578078D01*
X189560934Y-129610447D01*
X189555827Y-129639770D01*
X189551333Y-129665684D01*
X189547513Y-129687828D01*
X189544431Y-129705840D01*
X189542149Y-129719357D01*
X189540732Y-129728017D01*
X189540241Y-129731459D01*
X189540246Y-129731503D01*
X189543018Y-129730832D01*
X189549525Y-129728344D01*
X189557625Y-129724895D01*
X189571562Y-129719187D01*
X189589555Y-129712492D01*
X189610150Y-129705299D01*
X189631891Y-129698098D01*
X189653321Y-129691379D01*
X189672985Y-129685631D01*
X189680281Y-129683648D01*
X189723133Y-129673996D01*
X189767724Y-129667077D01*
X189813265Y-129662855D01*
X189858966Y-129661293D01*
X189904040Y-129662356D01*
X189947696Y-129666007D01*
X189989146Y-129672209D01*
X190027600Y-129680928D01*
X190062271Y-129692125D01*
X190085540Y-129702240D01*
X190113552Y-129718968D01*
X190139428Y-129740022D01*
X190161979Y-129764304D01*
X190178633Y-129788320D01*
X190191095Y-129814013D01*
X190201108Y-129844155D01*
X190208570Y-129877991D01*
X190213383Y-129914768D01*
X190215446Y-129953733D01*
X190214659Y-129994131D01*
X190211155Y-130033354D01*
X190210377Y-130038508D01*
X190208676Y-130048939D01*
X190206114Y-130064303D01*
X190202749Y-130084254D01*
X190198642Y-130108448D01*
X190193852Y-130136538D01*
X190188439Y-130168180D01*
X190182464Y-130203029D01*
X190175985Y-130240739D01*
X190169063Y-130280966D01*
X190161757Y-130323364D01*
X190154127Y-130367588D01*
X190146234Y-130413293D01*
X190138136Y-130460134D01*
X190129894Y-130507766D01*
X190121568Y-130555842D01*
X190113217Y-130604020D01*
X190104901Y-130651952D01*
X190096680Y-130699294D01*
X190088614Y-130745701D01*
X190080762Y-130790828D01*
X190073185Y-130834329D01*
X190065942Y-130875859D01*
X190059093Y-130915074D01*
X190052697Y-130951628D01*
X190046816Y-130985176D01*
X190041507Y-131015372D01*
X190036833Y-131041872D01*
X190032851Y-131064330D01*
X190029622Y-131082401D01*
X190027205Y-131095741D01*
X190025662Y-131104003D01*
X190025338Y-131105634D01*
X190023727Y-131113483D01*
X189769451Y-131113483D01*
X189771381Y-131101353D01*
X189772071Y-131097303D01*
X189773698Y-131087920D01*
X189776211Y-131073494D01*
X189779558Y-131054317D01*
X189783690Y-131030676D01*
X189788556Y-131002863D01*
X189794104Y-130971166D01*
X189800284Y-130935876D01*
X189807046Y-130897283D01*
X189814338Y-130855676D01*
X189822110Y-130811345D01*
X189830311Y-130764579D01*
X189838890Y-130715669D01*
X189847797Y-130664905D01*
X189856980Y-130612575D01*
X189861982Y-130584078D01*
X189872973Y-130521453D01*
X189883019Y-130464185D01*
X189892161Y-130412008D01*
X189900445Y-130364658D01*
X189907913Y-130321870D01*
X189914607Y-130283380D01*
X189920573Y-130248922D01*
X189925853Y-130218231D01*
X189930489Y-130191043D01*
X189934527Y-130167093D01*
X189938008Y-130146116D01*
X189940976Y-130127847D01*
X189943475Y-130112021D01*
X189945547Y-130098373D01*
X189947236Y-130086639D01*
X189948586Y-130076554D01*
X189949640Y-130067852D01*
X189950440Y-130060270D01*
X189951030Y-130053541D01*
X189951454Y-130047402D01*
X189951755Y-130041587D01*
X189951976Y-130035832D01*
X189952066Y-130033032D01*
X189952532Y-130014760D01*
X189952585Y-130000812D01*
X189952132Y-129989815D01*
X189951082Y-129980395D01*
X189949343Y-129971176D01*
X189947418Y-129963111D01*
X189943562Y-129949625D01*
X189938939Y-129936040D01*
X189934455Y-129924993D01*
X189933827Y-129923668D01*
X189925480Y-129910084D01*
X189913597Y-129895281D01*
X189899652Y-129880779D01*
X189885118Y-129868096D01*
X189871469Y-129858751D01*
X189870108Y-129858004D01*
X189848316Y-129848672D01*
X189822175Y-129841265D01*
X189792737Y-129835859D01*
X189761053Y-129832530D01*
X189728174Y-129831353D01*
X189695152Y-129832406D01*
X189663038Y-129835763D01*
X189634892Y-129841023D01*
X189610673Y-129847429D01*
X189585170Y-129855474D01*
X189560437Y-129864444D01*
X189538525Y-129873625D01*
X189531347Y-129877030D01*
X189510840Y-129887168D01*
X189507656Y-129905994D01*
X189506861Y-129910607D01*
X189505132Y-129920573D01*
X189502517Y-129935621D01*
X189499063Y-129955482D01*
X189494816Y-129979886D01*
X189489823Y-130008562D01*
X189484132Y-130041241D01*
X189477790Y-130077651D01*
X189470843Y-130117524D01*
X189463339Y-130160589D01*
X189455325Y-130206576D01*
X189446848Y-130255214D01*
X189437955Y-130306234D01*
X189428693Y-130359366D01*
X189419109Y-130414339D01*
X189409250Y-130470884D01*
X189400958Y-130518438D01*
X189297445Y-131112056D01*
X189169801Y-131112799D01*
X189042158Y-131113542D01*
X189043874Y-131104237D01*
X189044492Y-131100754D01*
X189046062Y-131091853D01*
X189048547Y-131077736D01*
X189051912Y-131058608D01*
X189056122Y-131034671D01*
X189061140Y-131006129D01*
X189066931Y-130973185D01*
X189073460Y-130936042D01*
X189080690Y-130894904D01*
X189088585Y-130849974D01*
X189097111Y-130801455D01*
X189106231Y-130749551D01*
X189115910Y-130694464D01*
X189126111Y-130636400D01*
X189136799Y-130575559D01*
X189147939Y-130512147D01*
X189159495Y-130446365D01*
X189171430Y-130378419D01*
X189183710Y-130308510D01*
X189196298Y-130236842D01*
X189209159Y-130163619D01*
X189219020Y-130107471D01*
X189392449Y-129120011D01*
X189519955Y-129119268D01*
X189546313Y-129119130D01*
X189570830Y-129119034D01*
X189592934Y-129118977D01*
X189612054Y-129118962D01*
X189627618Y-129118987D01*
X189627618Y-129118987D01*
G37*
X189627618Y-129118987D02*
X189639056Y-129119053D01*
X189645795Y-129119159D01*
X189647423Y-129119268D01*
X189646932Y-129122119D01*
X189645511Y-129130229D01*
X189643225Y-129143236D01*
X189640138Y-129160776D01*
X189636312Y-129182490D01*
X189631813Y-129208013D01*
X189626703Y-129236984D01*
X189621047Y-129269041D01*
X189614909Y-129303822D01*
X189608352Y-129340965D01*
X189601441Y-129380107D01*
X189594238Y-129420886D01*
X189593444Y-129425382D01*
X189586222Y-129466315D01*
X189579296Y-129505650D01*
X189572732Y-129543025D01*
X189566590Y-129578078D01*
X189560934Y-129610447D01*
X189555827Y-129639770D01*
X189551333Y-129665684D01*
X189547513Y-129687828D01*
X189544431Y-129705840D01*
X189542149Y-129719357D01*
X189540732Y-129728017D01*
X189540241Y-129731459D01*
X189540246Y-129731503D01*
X189543018Y-129730832D01*
X189549525Y-129728344D01*
X189557625Y-129724895D01*
X189571562Y-129719187D01*
X189589555Y-129712492D01*
X189610150Y-129705299D01*
X189631891Y-129698098D01*
X189653321Y-129691379D01*
X189672985Y-129685631D01*
X189680281Y-129683648D01*
X189723133Y-129673996D01*
X189767724Y-129667077D01*
X189813265Y-129662855D01*
X189858966Y-129661293D01*
X189904040Y-129662356D01*
X189947696Y-129666007D01*
X189989146Y-129672209D01*
X190027600Y-129680928D01*
X190062271Y-129692125D01*
X190085540Y-129702240D01*
X190113552Y-129718968D01*
X190139428Y-129740022D01*
X190161979Y-129764304D01*
X190178633Y-129788320D01*
X190191095Y-129814013D01*
X190201108Y-129844155D01*
X190208570Y-129877991D01*
X190213383Y-129914768D01*
X190215446Y-129953733D01*
X190214659Y-129994131D01*
X190211155Y-130033354D01*
X190210377Y-130038508D01*
X190208676Y-130048939D01*
X190206114Y-130064303D01*
X190202749Y-130084254D01*
X190198642Y-130108448D01*
X190193852Y-130136538D01*
X190188439Y-130168180D01*
X190182464Y-130203029D01*
X190175985Y-130240739D01*
X190169063Y-130280966D01*
X190161757Y-130323364D01*
X190154127Y-130367588D01*
X190146234Y-130413293D01*
X190138136Y-130460134D01*
X190129894Y-130507766D01*
X190121568Y-130555842D01*
X190113217Y-130604020D01*
X190104901Y-130651952D01*
X190096680Y-130699294D01*
X190088614Y-130745701D01*
X190080762Y-130790828D01*
X190073185Y-130834329D01*
X190065942Y-130875859D01*
X190059093Y-130915074D01*
X190052697Y-130951628D01*
X190046816Y-130985176D01*
X190041507Y-131015372D01*
X190036833Y-131041872D01*
X190032851Y-131064330D01*
X190029622Y-131082401D01*
X190027205Y-131095741D01*
X190025662Y-131104003D01*
X190025338Y-131105634D01*
X190023727Y-131113483D01*
X189769451Y-131113483D01*
X189771381Y-131101353D01*
X189772071Y-131097303D01*
X189773698Y-131087920D01*
X189776211Y-131073494D01*
X189779558Y-131054317D01*
X189783690Y-131030676D01*
X189788556Y-131002863D01*
X189794104Y-130971166D01*
X189800284Y-130935876D01*
X189807046Y-130897283D01*
X189814338Y-130855676D01*
X189822110Y-130811345D01*
X189830311Y-130764579D01*
X189838890Y-130715669D01*
X189847797Y-130664905D01*
X189856980Y-130612575D01*
X189861982Y-130584078D01*
X189872973Y-130521453D01*
X189883019Y-130464185D01*
X189892161Y-130412008D01*
X189900445Y-130364658D01*
X189907913Y-130321870D01*
X189914607Y-130283380D01*
X189920573Y-130248922D01*
X189925853Y-130218231D01*
X189930489Y-130191043D01*
X189934527Y-130167093D01*
X189938008Y-130146116D01*
X189940976Y-130127847D01*
X189943475Y-130112021D01*
X189945547Y-130098373D01*
X189947236Y-130086639D01*
X189948586Y-130076554D01*
X189949640Y-130067852D01*
X189950440Y-130060270D01*
X189951030Y-130053541D01*
X189951454Y-130047402D01*
X189951755Y-130041587D01*
X189951976Y-130035832D01*
X189952066Y-130033032D01*
X189952532Y-130014760D01*
X189952585Y-130000812D01*
X189952132Y-129989815D01*
X189951082Y-129980395D01*
X189949343Y-129971176D01*
X189947418Y-129963111D01*
X189943562Y-129949625D01*
X189938939Y-129936040D01*
X189934455Y-129924993D01*
X189933827Y-129923668D01*
X189925480Y-129910084D01*
X189913597Y-129895281D01*
X189899652Y-129880779D01*
X189885118Y-129868096D01*
X189871469Y-129858751D01*
X189870108Y-129858004D01*
X189848316Y-129848672D01*
X189822175Y-129841265D01*
X189792737Y-129835859D01*
X189761053Y-129832530D01*
X189728174Y-129831353D01*
X189695152Y-129832406D01*
X189663038Y-129835763D01*
X189634892Y-129841023D01*
X189610673Y-129847429D01*
X189585170Y-129855474D01*
X189560437Y-129864444D01*
X189538525Y-129873625D01*
X189531347Y-129877030D01*
X189510840Y-129887168D01*
X189507656Y-129905994D01*
X189506861Y-129910607D01*
X189505132Y-129920573D01*
X189502517Y-129935621D01*
X189499063Y-129955482D01*
X189494816Y-129979886D01*
X189489823Y-130008562D01*
X189484132Y-130041241D01*
X189477790Y-130077651D01*
X189470843Y-130117524D01*
X189463339Y-130160589D01*
X189455325Y-130206576D01*
X189446848Y-130255214D01*
X189437955Y-130306234D01*
X189428693Y-130359366D01*
X189419109Y-130414339D01*
X189409250Y-130470884D01*
X189400958Y-130518438D01*
X189297445Y-131112056D01*
X189169801Y-131112799D01*
X189042158Y-131113542D01*
X189043874Y-131104237D01*
X189044492Y-131100754D01*
X189046062Y-131091853D01*
X189048547Y-131077736D01*
X189051912Y-131058608D01*
X189056122Y-131034671D01*
X189061140Y-131006129D01*
X189066931Y-130973185D01*
X189073460Y-130936042D01*
X189080690Y-130894904D01*
X189088585Y-130849974D01*
X189097111Y-130801455D01*
X189106231Y-130749551D01*
X189115910Y-130694464D01*
X189126111Y-130636400D01*
X189136799Y-130575559D01*
X189147939Y-130512147D01*
X189159495Y-130446365D01*
X189171430Y-130378419D01*
X189183710Y-130308510D01*
X189196298Y-130236842D01*
X189209159Y-130163619D01*
X189219020Y-130107471D01*
X189392449Y-129120011D01*
X189519955Y-129119268D01*
X189546313Y-129119130D01*
X189570830Y-129119034D01*
X189592934Y-129118977D01*
X189612054Y-129118962D01*
X189627618Y-129118987D01*
G36*
X196602584Y-129118987D02*
X196614027Y-129119052D01*
X196620772Y-129119159D01*
X196622406Y-129119268D01*
X196621909Y-129122107D01*
X196620464Y-129130311D01*
X196618115Y-129143625D01*
X196614907Y-129161792D01*
X196610886Y-129184557D01*
X196606096Y-129211665D01*
X196600584Y-129242860D01*
X196594393Y-129277885D01*
X196587569Y-129316486D01*
X196580158Y-129358407D01*
X196572204Y-129403393D01*
X196563753Y-129451186D01*
X196554850Y-129501533D01*
X196545541Y-129554177D01*
X196535869Y-129608863D01*
X196525882Y-129665335D01*
X196515623Y-129723337D01*
X196514311Y-129730752D01*
X196504026Y-129788934D01*
X196494016Y-129845621D01*
X196484326Y-129900559D01*
X196475002Y-129953490D01*
X196466087Y-130004159D01*
X196457627Y-130052310D01*
X196449666Y-130097688D01*
X196442249Y-130140036D01*
X196435421Y-130179098D01*
X196429225Y-130214620D01*
X196423708Y-130246344D01*
X196418914Y-130274016D01*
X196414887Y-130297379D01*
X196411673Y-130316177D01*
X196409315Y-130330154D01*
X196407859Y-130339056D01*
X196407350Y-130342625D01*
X196407355Y-130342683D01*
X196409370Y-130342683D01*
X196411241Y-130340365D01*
X196416500Y-130333853D01*
X196424947Y-130323394D01*
X196436384Y-130309234D01*
X196450612Y-130291620D01*
X196467431Y-130270798D01*
X196486643Y-130247015D01*
X196508048Y-130220516D01*
X196531447Y-130191550D01*
X196556642Y-130160361D01*
X196583433Y-130127196D01*
X196611621Y-130092303D01*
X196641007Y-130055926D01*
X196671392Y-130018314D01*
X196673719Y-130015432D01*
X196937126Y-129689370D01*
X197078384Y-129689370D01*
X197110412Y-129689379D01*
X197137183Y-129689417D01*
X197159150Y-129689499D01*
X197176765Y-129689642D01*
X197190479Y-129689862D01*
X197200743Y-129690176D01*
X197208010Y-129690600D01*
X197212731Y-129691149D01*
X197215358Y-129691841D01*
X197216344Y-129692691D01*
X197216138Y-129693716D01*
X197215726Y-129694303D01*
X197213471Y-129697026D01*
X197207757Y-129703880D01*
X197198787Y-129714619D01*
X197186769Y-129729000D01*
X197171905Y-129746776D01*
X197154402Y-129767704D01*
X197134465Y-129791537D01*
X197112298Y-129818031D01*
X197088106Y-129846941D01*
X197062095Y-129878021D01*
X197034470Y-129911027D01*
X197005435Y-129945714D01*
X196975195Y-129981837D01*
X196943956Y-130019149D01*
X196939259Y-130024760D01*
X196907897Y-130062218D01*
X196877509Y-130098516D01*
X196848299Y-130133410D01*
X196820472Y-130166653D01*
X196794233Y-130198003D01*
X196769786Y-130227214D01*
X196747335Y-130254042D01*
X196727086Y-130278242D01*
X196709244Y-130299571D01*
X196694011Y-130317782D01*
X196681595Y-130332632D01*
X196672198Y-130343877D01*
X196666025Y-130351271D01*
X196663282Y-130354570D01*
X196663179Y-130354697D01*
X196663012Y-130355989D01*
X196663623Y-130358723D01*
X196665119Y-130363128D01*
X196667609Y-130369433D01*
X196671200Y-130377868D01*
X196676002Y-130388663D01*
X196682122Y-130402046D01*
X196689669Y-130418249D01*
X196698751Y-130437499D01*
X196709476Y-130460027D01*
X196721953Y-130486063D01*
X196736290Y-130515835D01*
X196752596Y-130549573D01*
X196770978Y-130587508D01*
X196791546Y-130629868D01*
X196814407Y-130676883D01*
X196839669Y-130728782D01*
X196840821Y-130731147D01*
X196861927Y-130774502D01*
X196882359Y-130816493D01*
X196901974Y-130856831D01*
X196920633Y-130895226D01*
X196938194Y-130931385D01*
X196954517Y-130965020D01*
X196969462Y-130995840D01*
X196982886Y-131023554D01*
X196994650Y-131047872D01*
X197004612Y-131068503D01*
X197012632Y-131085156D01*
X197018569Y-131097542D01*
X197022283Y-131105370D01*
X197023627Y-131108333D01*
X197023778Y-131109502D01*
X197023117Y-131110479D01*
X197021182Y-131111283D01*
X197017513Y-131111929D01*
X197011647Y-131112434D01*
X197003124Y-131112817D01*
X196991482Y-131113094D01*
X196976259Y-131113281D01*
X196956994Y-131113397D01*
X196933226Y-131113457D01*
X196904493Y-131113480D01*
X196884314Y-131113483D01*
X196743367Y-131113483D01*
X196574084Y-130746039D01*
X196554149Y-130702784D01*
X196534851Y-130660943D01*
X196516327Y-130620810D01*
X196498712Y-130582679D01*
X196482144Y-130546844D01*
X196466759Y-130513600D01*
X196452692Y-130483241D01*
X196440081Y-130456060D01*
X196429062Y-130432353D01*
X196419771Y-130412412D01*
X196412344Y-130396533D01*
X196406918Y-130385009D01*
X196403629Y-130378134D01*
X196402622Y-130376173D01*
X196402267Y-130375597D01*
X196401971Y-130374948D01*
X196401682Y-130374504D01*
X196401350Y-130374541D01*
X196400926Y-130375339D01*
X196400358Y-130377175D01*
X196399596Y-130380328D01*
X196398591Y-130385076D01*
X196397291Y-130391696D01*
X196395646Y-130400467D01*
X196393606Y-130411667D01*
X196391120Y-130425573D01*
X196388138Y-130442465D01*
X196384610Y-130462620D01*
X196380485Y-130486316D01*
X196375713Y-130513831D01*
X196370243Y-130545444D01*
X196364025Y-130581432D01*
X196357010Y-130622074D01*
X196349145Y-130667647D01*
X196340381Y-130718430D01*
X196335739Y-130745325D01*
X196328081Y-130789674D01*
X196320674Y-130832527D01*
X196313579Y-130873540D01*
X196306855Y-130912371D01*
X196300561Y-130948676D01*
X196294758Y-130982113D01*
X196289505Y-131012339D01*
X196284862Y-131039009D01*
X196280887Y-131061782D01*
X196277642Y-131080314D01*
X196275185Y-131094261D01*
X196273577Y-131103281D01*
X196272876Y-131107031D01*
X196272869Y-131107061D01*
X196271330Y-131113483D01*
X196144384Y-131113483D01*
X196118089Y-131113436D01*
X196093639Y-131113303D01*
X196071606Y-131113093D01*
X196052563Y-131112816D01*
X196037083Y-131112481D01*
X196025736Y-131112098D01*
X196019096Y-131111677D01*
X196017549Y-131111342D01*
X196018046Y-131108403D01*
X196019496Y-131100043D01*
X196021864Y-131086463D01*
X196025115Y-131067863D01*
X196029214Y-131044444D01*
X196034125Y-131016406D01*
X196039813Y-130983950D01*
X196046243Y-130947278D01*
X196053380Y-130906588D01*
X196061189Y-130862083D01*
X196069634Y-130813962D01*
X196078680Y-130762426D01*
X196088292Y-130707677D01*
X196098435Y-130649914D01*
X196109073Y-130589338D01*
X196120172Y-130526150D01*
X196131696Y-130460550D01*
X196143610Y-130392739D01*
X196155878Y-130322918D01*
X196168466Y-130251288D01*
X196181338Y-130178048D01*
X196192489Y-130114606D01*
X196367318Y-129120011D01*
X196494895Y-129119268D01*
X196521259Y-129119130D01*
X196545782Y-129119034D01*
X196567891Y-129118977D01*
X196587015Y-129118962D01*
X196602584Y-129118987D01*
X196602584Y-129118987D01*
G37*
X196602584Y-129118987D02*
X196614027Y-129119052D01*
X196620772Y-129119159D01*
X196622406Y-129119268D01*
X196621909Y-129122107D01*
X196620464Y-129130311D01*
X196618115Y-129143625D01*
X196614907Y-129161792D01*
X196610886Y-129184557D01*
X196606096Y-129211665D01*
X196600584Y-129242860D01*
X196594393Y-129277885D01*
X196587569Y-129316486D01*
X196580158Y-129358407D01*
X196572204Y-129403393D01*
X196563753Y-129451186D01*
X196554850Y-129501533D01*
X196545541Y-129554177D01*
X196535869Y-129608863D01*
X196525882Y-129665335D01*
X196515623Y-129723337D01*
X196514311Y-129730752D01*
X196504026Y-129788934D01*
X196494016Y-129845621D01*
X196484326Y-129900559D01*
X196475002Y-129953490D01*
X196466087Y-130004159D01*
X196457627Y-130052310D01*
X196449666Y-130097688D01*
X196442249Y-130140036D01*
X196435421Y-130179098D01*
X196429225Y-130214620D01*
X196423708Y-130246344D01*
X196418914Y-130274016D01*
X196414887Y-130297379D01*
X196411673Y-130316177D01*
X196409315Y-130330154D01*
X196407859Y-130339056D01*
X196407350Y-130342625D01*
X196407355Y-130342683D01*
X196409370Y-130342683D01*
X196411241Y-130340365D01*
X196416500Y-130333853D01*
X196424947Y-130323394D01*
X196436384Y-130309234D01*
X196450612Y-130291620D01*
X196467431Y-130270798D01*
X196486643Y-130247015D01*
X196508048Y-130220516D01*
X196531447Y-130191550D01*
X196556642Y-130160361D01*
X196583433Y-130127196D01*
X196611621Y-130092303D01*
X196641007Y-130055926D01*
X196671392Y-130018314D01*
X196673719Y-130015432D01*
X196937126Y-129689370D01*
X197078384Y-129689370D01*
X197110412Y-129689379D01*
X197137183Y-129689417D01*
X197159150Y-129689499D01*
X197176765Y-129689642D01*
X197190479Y-129689862D01*
X197200743Y-129690176D01*
X197208010Y-129690600D01*
X197212731Y-129691149D01*
X197215358Y-129691841D01*
X197216344Y-129692691D01*
X197216138Y-129693716D01*
X197215726Y-129694303D01*
X197213471Y-129697026D01*
X197207757Y-129703880D01*
X197198787Y-129714619D01*
X197186769Y-129729000D01*
X197171905Y-129746776D01*
X197154402Y-129767704D01*
X197134465Y-129791537D01*
X197112298Y-129818031D01*
X197088106Y-129846941D01*
X197062095Y-129878021D01*
X197034470Y-129911027D01*
X197005435Y-129945714D01*
X196975195Y-129981837D01*
X196943956Y-130019149D01*
X196939259Y-130024760D01*
X196907897Y-130062218D01*
X196877509Y-130098516D01*
X196848299Y-130133410D01*
X196820472Y-130166653D01*
X196794233Y-130198003D01*
X196769786Y-130227214D01*
X196747335Y-130254042D01*
X196727086Y-130278242D01*
X196709244Y-130299571D01*
X196694011Y-130317782D01*
X196681595Y-130332632D01*
X196672198Y-130343877D01*
X196666025Y-130351271D01*
X196663282Y-130354570D01*
X196663179Y-130354697D01*
X196663012Y-130355989D01*
X196663623Y-130358723D01*
X196665119Y-130363128D01*
X196667609Y-130369433D01*
X196671200Y-130377868D01*
X196676002Y-130388663D01*
X196682122Y-130402046D01*
X196689669Y-130418249D01*
X196698751Y-130437499D01*
X196709476Y-130460027D01*
X196721953Y-130486063D01*
X196736290Y-130515835D01*
X196752596Y-130549573D01*
X196770978Y-130587508D01*
X196791546Y-130629868D01*
X196814407Y-130676883D01*
X196839669Y-130728782D01*
X196840821Y-130731147D01*
X196861927Y-130774502D01*
X196882359Y-130816493D01*
X196901974Y-130856831D01*
X196920633Y-130895226D01*
X196938194Y-130931385D01*
X196954517Y-130965020D01*
X196969462Y-130995840D01*
X196982886Y-131023554D01*
X196994650Y-131047872D01*
X197004612Y-131068503D01*
X197012632Y-131085156D01*
X197018569Y-131097542D01*
X197022283Y-131105370D01*
X197023627Y-131108333D01*
X197023778Y-131109502D01*
X197023117Y-131110479D01*
X197021182Y-131111283D01*
X197017513Y-131111929D01*
X197011647Y-131112434D01*
X197003124Y-131112817D01*
X196991482Y-131113094D01*
X196976259Y-131113281D01*
X196956994Y-131113397D01*
X196933226Y-131113457D01*
X196904493Y-131113480D01*
X196884314Y-131113483D01*
X196743367Y-131113483D01*
X196574084Y-130746039D01*
X196554149Y-130702784D01*
X196534851Y-130660943D01*
X196516327Y-130620810D01*
X196498712Y-130582679D01*
X196482144Y-130546844D01*
X196466759Y-130513600D01*
X196452692Y-130483241D01*
X196440081Y-130456060D01*
X196429062Y-130432353D01*
X196419771Y-130412412D01*
X196412344Y-130396533D01*
X196406918Y-130385009D01*
X196403629Y-130378134D01*
X196402622Y-130376173D01*
X196402267Y-130375597D01*
X196401971Y-130374948D01*
X196401682Y-130374504D01*
X196401350Y-130374541D01*
X196400926Y-130375339D01*
X196400358Y-130377175D01*
X196399596Y-130380328D01*
X196398591Y-130385076D01*
X196397291Y-130391696D01*
X196395646Y-130400467D01*
X196393606Y-130411667D01*
X196391120Y-130425573D01*
X196388138Y-130442465D01*
X196384610Y-130462620D01*
X196380485Y-130486316D01*
X196375713Y-130513831D01*
X196370243Y-130545444D01*
X196364025Y-130581432D01*
X196357010Y-130622074D01*
X196349145Y-130667647D01*
X196340381Y-130718430D01*
X196335739Y-130745325D01*
X196328081Y-130789674D01*
X196320674Y-130832527D01*
X196313579Y-130873540D01*
X196306855Y-130912371D01*
X196300561Y-130948676D01*
X196294758Y-130982113D01*
X196289505Y-131012339D01*
X196284862Y-131039009D01*
X196280887Y-131061782D01*
X196277642Y-131080314D01*
X196275185Y-131094261D01*
X196273577Y-131103281D01*
X196272876Y-131107031D01*
X196272869Y-131107061D01*
X196271330Y-131113483D01*
X196144384Y-131113483D01*
X196118089Y-131113436D01*
X196093639Y-131113303D01*
X196071606Y-131113093D01*
X196052563Y-131112816D01*
X196037083Y-131112481D01*
X196025736Y-131112098D01*
X196019096Y-131111677D01*
X196017549Y-131111342D01*
X196018046Y-131108403D01*
X196019496Y-131100043D01*
X196021864Y-131086463D01*
X196025115Y-131067863D01*
X196029214Y-131044444D01*
X196034125Y-131016406D01*
X196039813Y-130983950D01*
X196046243Y-130947278D01*
X196053380Y-130906588D01*
X196061189Y-130862083D01*
X196069634Y-130813962D01*
X196078680Y-130762426D01*
X196088292Y-130707677D01*
X196098435Y-130649914D01*
X196109073Y-130589338D01*
X196120172Y-130526150D01*
X196131696Y-130460550D01*
X196143610Y-130392739D01*
X196155878Y-130322918D01*
X196168466Y-130251288D01*
X196181338Y-130178048D01*
X196192489Y-130114606D01*
X196367318Y-129120011D01*
X196494895Y-129119268D01*
X196521259Y-129119130D01*
X196545782Y-129119034D01*
X196567891Y-129118977D01*
X196587015Y-129118962D01*
X196602584Y-129118987D01*
G36*
X187459895Y-129176066D02*
X187482672Y-129176132D01*
X187507695Y-129176240D01*
X187527393Y-129176346D01*
X187654262Y-129177089D01*
X187633584Y-129296955D01*
X187628908Y-129324061D01*
X187624292Y-129350823D01*
X187619880Y-129376406D01*
X187615815Y-129399976D01*
X187612243Y-129420696D01*
X187609306Y-129437733D01*
X187607149Y-129450251D01*
X187606639Y-129453207D01*
X187600372Y-129489595D01*
X187473782Y-129489595D01*
X187443558Y-129489584D01*
X187418551Y-129489537D01*
X187398269Y-129489435D01*
X187382221Y-129489259D01*
X187369917Y-129488990D01*
X187360863Y-129488607D01*
X187354570Y-129488092D01*
X187350547Y-129487425D01*
X187348301Y-129486587D01*
X187347342Y-129485558D01*
X187347171Y-129484601D01*
X187347633Y-129481069D01*
X187348957Y-129472604D01*
X187351033Y-129459831D01*
X187353757Y-129443375D01*
X187357021Y-129423861D01*
X187360717Y-129401914D01*
X187364740Y-129378160D01*
X187368981Y-129353224D01*
X187373335Y-129327730D01*
X187377693Y-129302304D01*
X187381950Y-129277571D01*
X187385999Y-129254156D01*
X187389731Y-129232684D01*
X187393041Y-129213781D01*
X187395822Y-129198071D01*
X187397966Y-129186180D01*
X187399367Y-129178732D01*
X187399902Y-129176346D01*
X187402793Y-129176208D01*
X187410814Y-129176111D01*
X187423389Y-129176055D01*
X187439942Y-129176040D01*
X187459895Y-129176066D01*
X187459895Y-129176066D01*
G37*
X187459895Y-129176066D02*
X187482672Y-129176132D01*
X187507695Y-129176240D01*
X187527393Y-129176346D01*
X187654262Y-129177089D01*
X187633584Y-129296955D01*
X187628908Y-129324061D01*
X187624292Y-129350823D01*
X187619880Y-129376406D01*
X187615815Y-129399976D01*
X187612243Y-129420696D01*
X187609306Y-129437733D01*
X187607149Y-129450251D01*
X187606639Y-129453207D01*
X187600372Y-129489595D01*
X187473782Y-129489595D01*
X187443558Y-129489584D01*
X187418551Y-129489537D01*
X187398269Y-129489435D01*
X187382221Y-129489259D01*
X187369917Y-129488990D01*
X187360863Y-129488607D01*
X187354570Y-129488092D01*
X187350547Y-129487425D01*
X187348301Y-129486587D01*
X187347342Y-129485558D01*
X187347171Y-129484601D01*
X187347633Y-129481069D01*
X187348957Y-129472604D01*
X187351033Y-129459831D01*
X187353757Y-129443375D01*
X187357021Y-129423861D01*
X187360717Y-129401914D01*
X187364740Y-129378160D01*
X187368981Y-129353224D01*
X187373335Y-129327730D01*
X187377693Y-129302304D01*
X187381950Y-129277571D01*
X187385999Y-129254156D01*
X187389731Y-129232684D01*
X187393041Y-129213781D01*
X187395822Y-129198071D01*
X187397966Y-129186180D01*
X187399367Y-129178732D01*
X187399902Y-129176346D01*
X187402793Y-129176208D01*
X187410814Y-129176111D01*
X187423389Y-129176055D01*
X187439942Y-129176040D01*
X187459895Y-129176066D01*
D12*
X148766667Y-93028571D02*
X148433333Y-93028571D01*
X148433333Y-93552381D02*
X148433333Y-92552381D01*
X148909524Y-92552381D01*
X149242857Y-92647619D02*
X149290476Y-92600000D01*
X149385714Y-92552381D01*
X149623810Y-92552381D01*
X149719048Y-92600000D01*
X149766667Y-92647619D01*
X149814286Y-92742857D01*
X149814286Y-92838095D01*
X149766667Y-92980952D01*
X149195238Y-93552381D01*
X149814286Y-93552381D01*
X194466667Y-120928571D02*
X194133333Y-120928571D01*
X194133333Y-121452381D02*
X194133333Y-120452381D01*
X194609524Y-120452381D01*
X194895238Y-120452381D02*
X195514286Y-120452381D01*
X195180952Y-120833333D01*
X195323810Y-120833333D01*
X195419048Y-120880952D01*
X195466667Y-120928571D01*
X195514286Y-121023810D01*
X195514286Y-121261905D01*
X195466667Y-121357143D01*
X195419048Y-121404762D01*
X195323810Y-121452381D01*
X195038095Y-121452381D01*
X194942857Y-121404762D01*
X194895238Y-121357143D01*
X116804762Y-113147619D02*
X116709524Y-113100000D01*
X116614286Y-113004762D01*
X116471429Y-112861905D01*
X116376190Y-112814286D01*
X116280952Y-112814286D01*
X116328571Y-113052381D02*
X116233333Y-113004762D01*
X116138095Y-112909524D01*
X116090476Y-112719048D01*
X116090476Y-112385714D01*
X116138095Y-112195238D01*
X116233333Y-112100000D01*
X116328571Y-112052381D01*
X116519048Y-112052381D01*
X116614286Y-112100000D01*
X116709524Y-112195238D01*
X116757143Y-112385714D01*
X116757143Y-112719048D01*
X116709524Y-112909524D01*
X116614286Y-113004762D01*
X116519048Y-113052381D01*
X116328571Y-113052381D01*
X117709524Y-113052381D02*
X117138095Y-113052381D01*
X117423809Y-113052381D02*
X117423809Y-112052381D01*
X117328571Y-112195238D01*
X117233333Y-112290476D01*
X117138095Y-112338095D01*
X109738095Y-101202381D02*
X109738095Y-102011905D01*
X109785714Y-102107143D01*
X109833333Y-102154762D01*
X109928571Y-102202381D01*
X110119048Y-102202381D01*
X110214286Y-102154762D01*
X110261905Y-102107143D01*
X110309524Y-102011905D01*
X110309524Y-101202381D01*
X111309524Y-102202381D02*
X110738095Y-102202381D01*
X111023809Y-102202381D02*
X111023809Y-101202381D01*
X110928571Y-101345238D01*
X110833333Y-101440476D01*
X110738095Y-101488095D01*
X112928095Y-108182381D02*
X112928095Y-108991905D01*
X112975714Y-109087143D01*
X113023333Y-109134762D01*
X113118571Y-109182381D01*
X113309048Y-109182381D01*
X113404286Y-109134762D01*
X113451905Y-109087143D01*
X113499524Y-108991905D01*
X113499524Y-108182381D01*
X113928095Y-108277619D02*
X113975714Y-108230000D01*
X114070952Y-108182381D01*
X114309048Y-108182381D01*
X114404286Y-108230000D01*
X114451905Y-108277619D01*
X114499524Y-108372857D01*
X114499524Y-108468095D01*
X114451905Y-108610952D01*
X113880476Y-109182381D01*
X114499524Y-109182381D01*
X124961905Y-136452381D02*
X124961905Y-135452381D01*
X125200000Y-135452381D01*
X125342858Y-135500000D01*
X125438096Y-135595238D01*
X125485715Y-135690476D01*
X125533334Y-135880952D01*
X125533334Y-136023810D01*
X125485715Y-136214286D01*
X125438096Y-136309524D01*
X125342858Y-136404762D01*
X125200000Y-136452381D01*
X124961905Y-136452381D01*
X126485715Y-136452381D02*
X125914286Y-136452381D01*
X126200000Y-136452381D02*
X126200000Y-135452381D01*
X126104762Y-135595238D01*
X126009524Y-135690476D01*
X125914286Y-135738095D01*
X124961905Y-132952381D02*
X124961905Y-131952381D01*
X125200000Y-131952381D01*
X125342858Y-132000000D01*
X125438096Y-132095238D01*
X125485715Y-132190476D01*
X125533334Y-132380952D01*
X125533334Y-132523810D01*
X125485715Y-132714286D01*
X125438096Y-132809524D01*
X125342858Y-132904762D01*
X125200000Y-132952381D01*
X124961905Y-132952381D01*
X125914286Y-132047619D02*
X125961905Y-132000000D01*
X126057143Y-131952381D01*
X126295239Y-131952381D01*
X126390477Y-132000000D01*
X126438096Y-132047619D01*
X126485715Y-132142857D01*
X126485715Y-132238095D01*
X126438096Y-132380952D01*
X125866667Y-132952381D01*
X126485715Y-132952381D01*
X124961905Y-129452381D02*
X124961905Y-128452381D01*
X125200000Y-128452381D01*
X125342858Y-128500000D01*
X125438096Y-128595238D01*
X125485715Y-128690476D01*
X125533334Y-128880952D01*
X125533334Y-129023810D01*
X125485715Y-129214286D01*
X125438096Y-129309524D01*
X125342858Y-129404762D01*
X125200000Y-129452381D01*
X124961905Y-129452381D01*
X125866667Y-128452381D02*
X126485715Y-128452381D01*
X126152381Y-128833333D01*
X126295239Y-128833333D01*
X126390477Y-128880952D01*
X126438096Y-128928571D01*
X126485715Y-129023810D01*
X126485715Y-129261905D01*
X126438096Y-129357143D01*
X126390477Y-129404762D01*
X126295239Y-129452381D01*
X126009524Y-129452381D01*
X125914286Y-129404762D01*
X125866667Y-129357143D01*
X121733334Y-136452381D02*
X121400000Y-135976190D01*
X121161905Y-136452381D02*
X121161905Y-135452381D01*
X121542858Y-135452381D01*
X121638096Y-135500000D01*
X121685715Y-135547619D01*
X121733334Y-135642857D01*
X121733334Y-135785714D01*
X121685715Y-135880952D01*
X121638096Y-135928571D01*
X121542858Y-135976190D01*
X121161905Y-135976190D01*
X122685715Y-136452381D02*
X122114286Y-136452381D01*
X122400000Y-136452381D02*
X122400000Y-135452381D01*
X122304762Y-135595238D01*
X122209524Y-135690476D01*
X122114286Y-135738095D01*
X121733334Y-132952381D02*
X121400000Y-132476190D01*
X121161905Y-132952381D02*
X121161905Y-131952381D01*
X121542858Y-131952381D01*
X121638096Y-132000000D01*
X121685715Y-132047619D01*
X121733334Y-132142857D01*
X121733334Y-132285714D01*
X121685715Y-132380952D01*
X121638096Y-132428571D01*
X121542858Y-132476190D01*
X121161905Y-132476190D01*
X122114286Y-132047619D02*
X122161905Y-132000000D01*
X122257143Y-131952381D01*
X122495239Y-131952381D01*
X122590477Y-132000000D01*
X122638096Y-132047619D01*
X122685715Y-132142857D01*
X122685715Y-132238095D01*
X122638096Y-132380952D01*
X122066667Y-132952381D01*
X122685715Y-132952381D01*
X121733334Y-129464412D02*
X121400000Y-128988221D01*
X121161905Y-129464412D02*
X121161905Y-128464412D01*
X121542858Y-128464412D01*
X121638096Y-128512031D01*
X121685715Y-128559650D01*
X121733334Y-128654888D01*
X121733334Y-128797745D01*
X121685715Y-128892983D01*
X121638096Y-128940602D01*
X121542858Y-128988221D01*
X121161905Y-128988221D01*
X122066667Y-128464412D02*
X122685715Y-128464412D01*
X122352381Y-128845364D01*
X122495239Y-128845364D01*
X122590477Y-128892983D01*
X122638096Y-128940602D01*
X122685715Y-129035841D01*
X122685715Y-129273936D01*
X122638096Y-129369174D01*
X122590477Y-129416793D01*
X122495239Y-129464412D01*
X122209524Y-129464412D01*
X122114286Y-129416793D01*
X122066667Y-129369174D01*
X110423334Y-109257143D02*
X110375715Y-109304762D01*
X110232858Y-109352381D01*
X110137620Y-109352381D01*
X109994762Y-109304762D01*
X109899524Y-109209524D01*
X109851905Y-109114286D01*
X109804286Y-108923810D01*
X109804286Y-108780952D01*
X109851905Y-108590476D01*
X109899524Y-108495238D01*
X109994762Y-108400000D01*
X110137620Y-108352381D01*
X110232858Y-108352381D01*
X110375715Y-108400000D01*
X110423334Y-108447619D01*
X111375715Y-109352381D02*
X110804286Y-109352381D01*
X111090000Y-109352381D02*
X111090000Y-108352381D01*
X110994762Y-108495238D01*
X110899524Y-108590476D01*
X110804286Y-108638095D01*
X116753334Y-109257143D02*
X116705715Y-109304762D01*
X116562858Y-109352381D01*
X116467620Y-109352381D01*
X116324762Y-109304762D01*
X116229524Y-109209524D01*
X116181905Y-109114286D01*
X116134286Y-108923810D01*
X116134286Y-108780952D01*
X116181905Y-108590476D01*
X116229524Y-108495238D01*
X116324762Y-108400000D01*
X116467620Y-108352381D01*
X116562858Y-108352381D01*
X116705715Y-108400000D01*
X116753334Y-108447619D01*
X117134286Y-108447619D02*
X117181905Y-108400000D01*
X117277143Y-108352381D01*
X117515239Y-108352381D01*
X117610477Y-108400000D01*
X117658096Y-108447619D01*
X117705715Y-108542857D01*
X117705715Y-108638095D01*
X117658096Y-108780952D01*
X117086667Y-109352381D01*
X117705715Y-109352381D01*
X119452381Y-135866666D02*
X118976190Y-136200000D01*
X119452381Y-136438095D02*
X118452381Y-136438095D01*
X118452381Y-136057142D01*
X118500000Y-135961904D01*
X118547619Y-135914285D01*
X118642857Y-135866666D01*
X118785714Y-135866666D01*
X118880952Y-135914285D01*
X118928571Y-135961904D01*
X118976190Y-136057142D01*
X118976190Y-136438095D01*
X118785714Y-135009523D02*
X119452381Y-135009523D01*
X118404762Y-135247619D02*
X119119048Y-135485714D01*
X119119048Y-134866666D01*
X117752381Y-135866666D02*
X117276190Y-136200000D01*
X117752381Y-136438095D02*
X116752381Y-136438095D01*
X116752381Y-136057142D01*
X116800000Y-135961904D01*
X116847619Y-135914285D01*
X116942857Y-135866666D01*
X117085714Y-135866666D01*
X117180952Y-135914285D01*
X117228571Y-135961904D01*
X117276190Y-136057142D01*
X117276190Y-136438095D01*
X116752381Y-134961904D02*
X116752381Y-135438095D01*
X117228571Y-135485714D01*
X117180952Y-135438095D01*
X117133333Y-135342857D01*
X117133333Y-135104761D01*
X117180952Y-135009523D01*
X117228571Y-134961904D01*
X117323810Y-134914285D01*
X117561905Y-134914285D01*
X117657143Y-134961904D01*
X117704762Y-135009523D01*
X117752381Y-135104761D01*
X117752381Y-135342857D01*
X117704762Y-135438095D01*
X117657143Y-135485714D01*
X119352381Y-127566666D02*
X118876190Y-127900000D01*
X119352381Y-128138095D02*
X118352381Y-128138095D01*
X118352381Y-127757142D01*
X118400000Y-127661904D01*
X118447619Y-127614285D01*
X118542857Y-127566666D01*
X118685714Y-127566666D01*
X118780952Y-127614285D01*
X118828571Y-127661904D01*
X118876190Y-127757142D01*
X118876190Y-128138095D01*
X118352381Y-126709523D02*
X118352381Y-126900000D01*
X118400000Y-126995238D01*
X118447619Y-127042857D01*
X118590476Y-127138095D01*
X118780952Y-127185714D01*
X119161905Y-127185714D01*
X119257143Y-127138095D01*
X119304762Y-127090476D01*
X119352381Y-126995238D01*
X119352381Y-126804761D01*
X119304762Y-126709523D01*
X119257143Y-126661904D01*
X119161905Y-126614285D01*
X118923810Y-126614285D01*
X118828571Y-126661904D01*
X118780952Y-126709523D01*
X118733333Y-126804761D01*
X118733333Y-126995238D01*
X118780952Y-127090476D01*
X118828571Y-127138095D01*
X118923810Y-127185714D01*
X128538095Y-119552381D02*
X128538095Y-120361905D01*
X128585714Y-120457143D01*
X128633333Y-120504762D01*
X128728571Y-120552381D01*
X128919048Y-120552381D01*
X129014286Y-120504762D01*
X129061905Y-120457143D01*
X129109524Y-120361905D01*
X129109524Y-119552381D01*
X129490476Y-119552381D02*
X130109524Y-119552381D01*
X129776190Y-119933333D01*
X129919048Y-119933333D01*
X130014286Y-119980952D01*
X130061905Y-120028571D01*
X130109524Y-120123810D01*
X130109524Y-120361905D01*
X130061905Y-120457143D01*
X130014286Y-120504762D01*
X129919048Y-120552381D01*
X129633333Y-120552381D01*
X129538095Y-120504762D01*
X129490476Y-120457143D01*
X179833334Y-113252381D02*
X179500000Y-112776190D01*
X179261905Y-113252381D02*
X179261905Y-112252381D01*
X179642858Y-112252381D01*
X179738096Y-112300000D01*
X179785715Y-112347619D01*
X179833334Y-112442857D01*
X179833334Y-112585714D01*
X179785715Y-112680952D01*
X179738096Y-112728571D01*
X179642858Y-112776190D01*
X179261905Y-112776190D01*
X180166667Y-112252381D02*
X180833334Y-112252381D01*
X180404762Y-113252381D01*
X184533334Y-113252381D02*
X184200000Y-112776190D01*
X183961905Y-113252381D02*
X183961905Y-112252381D01*
X184342858Y-112252381D01*
X184438096Y-112300000D01*
X184485715Y-112347619D01*
X184533334Y-112442857D01*
X184533334Y-112585714D01*
X184485715Y-112680952D01*
X184438096Y-112728571D01*
X184342858Y-112776190D01*
X183961905Y-112776190D01*
X185104762Y-112680952D02*
X185009524Y-112633333D01*
X184961905Y-112585714D01*
X184914286Y-112490476D01*
X184914286Y-112442857D01*
X184961905Y-112347619D01*
X185009524Y-112300000D01*
X185104762Y-112252381D01*
X185295239Y-112252381D01*
X185390477Y-112300000D01*
X185438096Y-112347619D01*
X185485715Y-112442857D01*
X185485715Y-112490476D01*
X185438096Y-112585714D01*
X185390477Y-112633333D01*
X185295239Y-112680952D01*
X185104762Y-112680952D01*
X185009524Y-112728571D01*
X184961905Y-112776190D01*
X184914286Y-112871429D01*
X184914286Y-113061905D01*
X184961905Y-113157143D01*
X185009524Y-113204762D01*
X185104762Y-113252381D01*
X185295239Y-113252381D01*
X185390477Y-113204762D01*
X185438096Y-113157143D01*
X185485715Y-113061905D01*
X185485715Y-112871429D01*
X185438096Y-112776190D01*
X185390477Y-112728571D01*
X185295239Y-112680952D01*
X112266667Y-123928571D02*
X111933333Y-123928571D01*
X111933333Y-124452381D02*
X111933333Y-123452381D01*
X112409524Y-123452381D01*
X113314286Y-124452381D02*
X112742857Y-124452381D01*
X113028571Y-124452381D02*
X113028571Y-123452381D01*
X112933333Y-123595238D01*
X112838095Y-123690476D01*
X112742857Y-123738095D01*
M02*
