M48
INCH,TZ
T1C0.013
T2C0.013
T3C0.032
T4C0.040
T5C0.066
T6C0.118
%
G90
G05
T1
X43240Y-44094
X43299Y-40610
X43894Y-41850
X44441Y-40835
X44685Y-44433
X44974Y-41077
X45433Y-53484
X45610Y-41850
X45677Y-40055
X46748Y-53386
X47910Y-52052
X47921Y-52382
X50016Y-53331
X50406Y-53646
X51894Y-41512
X52445Y-42110
X55516Y-49483
X55537Y-48168
X57285Y-49561
X57357Y-47986
X57373Y-52867
X57594Y-48280
X57749Y-49324
X57854Y-50969
X58024Y-49606
X58120Y-48705
X58530Y-52338
X58535Y-51528
X58988Y-48165
X59122Y-50764
X59571Y-50887
X59602Y-52811
X59606Y-51838
X59633Y-48074
X60083Y-42193
X60504Y-49314
X60578Y-48744
X61378Y-42957
X61665Y-37236
X61732Y-42685
X61949Y-36953
X62106Y-48398
X62130Y-49016
X62480Y-36819
X62487Y-38700
X62535Y-37185
X62548Y-38113
X62593Y-37677
X62728Y-50075
X62743Y-38453
X62815Y-47650
X62850Y-43075
X63189Y-37276
X63224Y-37902
X63248Y-36780
X63252Y-49898
X63287Y-35988
X64208Y-43245
X64260Y-42015
X64376Y-52619
X64634Y-42035
X64736Y-46307
X65242Y-52451
X65706Y-52331
X65957Y-51862
X66171Y-51451
X66301Y-49605
X66398Y-51764
X66577Y-52564
X66834Y-52318
X67012Y-50827
X67061Y-52077
X67224Y-51772
X67406Y-52553
X67484Y-51201
X67710Y-52107
X67799Y-51732
X68902Y-52047
X68996Y-51665
X70381Y-49377
X70616Y-49608
X71201Y-48311
X71642Y-44307
X72197Y-49205
X74776Y-51799
T2
X60764Y-45511
X60781Y-44385
X60856Y-44955
X61007Y-45734
X61027Y-45239
X61036Y-44069
X61134Y-42063
X61170Y-44792
X61187Y-43568
X61276Y-46072
X61382Y-44305
X61470Y-45791
X61474Y-43793
X61512Y-42205
X61547Y-43343
X61728Y-45998
X61915Y-45727
X62305Y-46042
X63404Y-46042
X63794Y-45727
X63981Y-45998
X64239Y-45791
X64240Y-43728
X64461Y-44153
X64464Y-46061
X64501Y-43397
X64545Y-44830
X64584Y-43847
X64679Y-45260
X64752Y-44319
X64843Y-44973
X65055Y-45929
T3
X46358Y-40059
X46949Y-43701
X47469Y-41866
T4
X43756Y-54547
X44756Y-54547
X45756Y-54547
X46161Y-38287
X46756Y-54547
X47161Y-38287
X47756Y-54547
X48161Y-38287
X48756Y-54547
X49161Y-38287
X52756Y-33547
X52756Y-34547
X52756Y-53547
X52756Y-54547
X53756Y-33547
X53756Y-34547
X53756Y-53547
X53756Y-54547
X54756Y-33547
X54756Y-34547
X54756Y-53547
X54756Y-54547
X55756Y-33547
X55756Y-34547
X55756Y-53547
X55756Y-54547
X56756Y-33547
X56756Y-34547
X56756Y-53547
X56756Y-54547
X57756Y-33547
X57756Y-34547
X57756Y-53547
X57756Y-54547
X58756Y-33547
X58756Y-34547
X58756Y-53547
X58756Y-54547
X59756Y-33547
X59756Y-34547
X59756Y-53547
X59756Y-54547
X60756Y-33547
X60756Y-34547
X60756Y-53547
X60756Y-54547
X61756Y-33547
X61756Y-34547
X61756Y-53547
X61756Y-54547
X62756Y-33547
X62756Y-34547
X62756Y-53547
X62756Y-54547
X63756Y-33547
X63756Y-34547
X63756Y-53547
X63756Y-54547
X64756Y-33547
X64756Y-34547
X64756Y-53547
X64756Y-54547
X65756Y-33547
X65756Y-34547
X65756Y-53547
X65756Y-54547
X66756Y-33547
X66756Y-34547
X66756Y-53547
X66756Y-54547
X67756Y-33547
X67756Y-34547
X67756Y-53547
X67756Y-54547
X68756Y-33547
X68756Y-34547
X68756Y-53547
X68756Y-54547
X69756Y-33547
X69756Y-34547
X69756Y-53547
X69756Y-54547
X70756Y-33547
X70756Y-34547
X70756Y-53547
X70756Y-54547
X71756Y-33547
X71756Y-34547
X71756Y-53547
X71756Y-54547
X72756Y-33547
X72756Y-34547
X72756Y-53547
X72756Y-54547
X73756Y-33547
X73756Y-34547
X73756Y-53547
X73756Y-54547
X74756Y-33547
X74756Y-34547
X74756Y-53547
X74756Y-54547
X75756Y-33547
X75756Y-34547
X75756Y-53547
X75756Y-54547
X76756Y-33547
X76756Y-34547
X76756Y-53547
X76756Y-54547
T5
X44685Y-46654
X45866Y-48504
X47047Y-46654
T6
X52264Y-36516
X52264Y-48524
X64272Y-36516
X64272Y-48524
X76280Y-36516
X76280Y-48524
T0
M30
