G04 #@! TF.FileFunction,Copper,L1,Top,Signal*
%FSLAX46Y46*%
G04 Gerber Fmt 4.6, Leading zero omitted, Abs format (unit mm)*
G04 Created by KiCad (PCBNEW 4.0.1-stable) date Thursday, April 14, 2016 'AMt' 11:51:39 AM*
%MOMM*%
G01*
G04 APERTURE LIST*
%ADD10C,0.100000*%
%ADD11C,0.010000*%
%ADD12C,1.000000*%
%ADD13R,1.727200X2.032000*%
%ADD14O,1.727200X2.032000*%
%ADD15R,1.727200X1.727200*%
%ADD16O,1.727200X1.727200*%
%ADD17R,1.800860X0.800100*%
%ADD18R,1.400000X1.200000*%
%ADD19R,1.060000X0.650000*%
%ADD20R,0.797560X0.797560*%
%ADD21R,1.200000X0.900000*%
%ADD22R,1.300000X1.550000*%
%ADD23C,1.501140*%
%ADD24R,1.501140X1.501140*%
%ADD25C,2.000000*%
%ADD26R,0.700000X0.200000*%
%ADD27R,0.750000X1.200000*%
%ADD28R,0.900000X1.200000*%
%ADD29R,0.900000X0.240000*%
%ADD30R,0.240000X0.900000*%
%ADD31R,0.600000X2.000000*%
%ADD32R,0.700000X4.200000*%
%ADD33O,3.000000X2.400000*%
%ADD34O,2.400000X3.000000*%
%ADD35C,0.685800*%
%ADD36C,0.685801*%
%ADD37C,0.254000*%
%ADD38C,0.152400*%
G04 APERTURE END LIST*
D10*
D11*
G36*
X119609423Y-87005069D02*
X119641094Y-87005572D01*
X119668725Y-87006621D01*
X119693824Y-87008340D01*
X119717893Y-87010851D01*
X119742439Y-87014276D01*
X119768967Y-87018740D01*
X119790931Y-87022815D01*
X119849786Y-87035578D01*
X119910883Y-87051645D01*
X119971336Y-87070182D01*
X120028260Y-87090354D01*
X120039639Y-87094777D01*
X120082817Y-87111970D01*
X120125192Y-87129108D01*
X120167150Y-87146370D01*
X120209080Y-87163937D01*
X120251369Y-87181989D01*
X120294404Y-87200707D01*
X120338573Y-87220271D01*
X120384265Y-87240862D01*
X120431866Y-87262659D01*
X120481764Y-87285844D01*
X120534347Y-87310597D01*
X120590003Y-87337099D01*
X120649118Y-87365528D01*
X120712082Y-87396067D01*
X120779280Y-87428896D01*
X120851102Y-87464194D01*
X120927935Y-87502143D01*
X121010166Y-87542923D01*
X121098183Y-87586714D01*
X121120903Y-87598037D01*
X121199183Y-87636981D01*
X121271702Y-87672880D01*
X121338949Y-87705961D01*
X121401415Y-87736448D01*
X121459589Y-87764567D01*
X121513962Y-87790545D01*
X121565024Y-87814606D01*
X121613265Y-87836978D01*
X121659175Y-87857885D01*
X121703244Y-87877553D01*
X121745962Y-87896208D01*
X121787819Y-87914076D01*
X121829306Y-87931382D01*
X121870912Y-87948353D01*
X121913128Y-87965213D01*
X121946403Y-87978281D01*
X121969926Y-87987518D01*
X121991319Y-87996037D01*
X122009688Y-88003473D01*
X122024143Y-88009460D01*
X122033791Y-88013635D01*
X122037732Y-88015624D01*
X122037199Y-88019719D01*
X122031987Y-88027737D01*
X122022739Y-88038968D01*
X122010100Y-88052704D01*
X121994712Y-88068236D01*
X121977219Y-88084855D01*
X121964178Y-88096657D01*
X121896199Y-88152758D01*
X121821764Y-88206253D01*
X121740994Y-88257086D01*
X121654011Y-88305200D01*
X121560938Y-88350538D01*
X121461897Y-88393043D01*
X121357009Y-88432658D01*
X121246398Y-88469327D01*
X121130185Y-88502992D01*
X121043292Y-88525296D01*
X120942697Y-88548538D01*
X120847709Y-88567867D01*
X120758081Y-88583303D01*
X120673561Y-88594868D01*
X120593901Y-88602580D01*
X120518851Y-88606462D01*
X120448163Y-88606535D01*
X120381587Y-88602818D01*
X120318874Y-88595332D01*
X120281082Y-88588660D01*
X120220450Y-88573748D01*
X120165094Y-88554367D01*
X120115086Y-88530590D01*
X120070499Y-88502491D01*
X120031404Y-88470142D01*
X119997873Y-88433617D01*
X119969979Y-88392988D01*
X119947795Y-88348329D01*
X119931392Y-88299713D01*
X119920842Y-88247214D01*
X119917903Y-88220940D01*
X119917085Y-88209833D01*
X119916149Y-88201698D01*
X119914111Y-88195994D01*
X119909991Y-88192178D01*
X119902806Y-88189710D01*
X119891575Y-88188046D01*
X119875315Y-88186646D01*
X119853045Y-88184967D01*
X119852667Y-88184937D01*
X119825115Y-88182710D01*
X119803944Y-88180816D01*
X119788491Y-88179166D01*
X119778094Y-88177673D01*
X119772090Y-88176249D01*
X119769817Y-88174807D01*
X119769918Y-88173974D01*
X119767973Y-88172665D01*
X119761139Y-88172440D01*
X119751468Y-88173114D01*
X119741010Y-88174497D01*
X119731817Y-88176403D01*
X119727431Y-88177859D01*
X119721923Y-88179376D01*
X119710616Y-88181836D01*
X119694669Y-88185008D01*
X119675241Y-88188665D01*
X119653489Y-88192578D01*
X119648056Y-88193529D01*
X119566570Y-88207036D01*
X119489154Y-88218409D01*
X119413266Y-88227987D01*
X119336367Y-88236109D01*
X119312917Y-88238294D01*
X119290487Y-88239888D01*
X119263281Y-88241121D01*
X119232652Y-88241993D01*
X119199951Y-88242504D01*
X119166529Y-88242652D01*
X119133738Y-88242438D01*
X119102930Y-88241861D01*
X119075455Y-88240920D01*
X119052666Y-88239615D01*
X119039514Y-88238402D01*
X118966686Y-88228747D01*
X118895829Y-88216860D01*
X118825068Y-88202349D01*
X118752527Y-88184822D01*
X118676331Y-88163890D01*
X118660857Y-88159368D01*
X118638243Y-88152575D01*
X118621577Y-88147222D01*
X118609982Y-88142959D01*
X118602578Y-88139438D01*
X118598490Y-88136309D01*
X118597057Y-88133968D01*
X118596091Y-88128855D01*
X118594509Y-88117561D01*
X118592410Y-88100925D01*
X118589895Y-88079783D01*
X118587063Y-88054975D01*
X118584013Y-88027338D01*
X118580918Y-87998392D01*
X118577321Y-87964399D01*
X118574435Y-87936757D01*
X118572312Y-87914791D01*
X118571001Y-87897830D01*
X118570553Y-87885198D01*
X118571018Y-87876223D01*
X118572447Y-87870230D01*
X118574890Y-87866547D01*
X118578397Y-87864499D01*
X118583018Y-87863413D01*
X118588805Y-87862615D01*
X118591091Y-87862283D01*
X118602337Y-87860254D01*
X118619389Y-87856797D01*
X118641193Y-87852151D01*
X118666700Y-87846555D01*
X118694858Y-87840249D01*
X118724615Y-87833471D01*
X118754921Y-87826461D01*
X118784725Y-87819457D01*
X118812975Y-87812700D01*
X118838620Y-87806427D01*
X118857833Y-87801593D01*
X118960462Y-87774234D01*
X119056453Y-87746397D01*
X119146213Y-87717945D01*
X119230153Y-87688742D01*
X119308680Y-87658650D01*
X119382203Y-87627534D01*
X119394056Y-87622213D01*
X119464730Y-87587760D01*
X119536700Y-87548022D01*
X119608246Y-87504092D01*
X119677648Y-87457066D01*
X119743190Y-87408037D01*
X119787403Y-87371786D01*
X119805065Y-87356423D01*
X119823398Y-87340012D01*
X119841684Y-87323244D01*
X119859206Y-87306810D01*
X119875249Y-87291401D01*
X119889095Y-87277709D01*
X119900027Y-87266424D01*
X119907329Y-87258238D01*
X119910283Y-87253841D01*
X119910219Y-87253368D01*
X119904114Y-87250119D01*
X119892137Y-87245797D01*
X119875347Y-87240663D01*
X119854801Y-87234980D01*
X119831556Y-87229011D01*
X119806670Y-87223019D01*
X119781199Y-87217265D01*
X119756201Y-87212013D01*
X119732732Y-87207526D01*
X119711852Y-87204065D01*
X119711556Y-87204021D01*
X119656513Y-87197477D01*
X119602179Y-87194423D01*
X119547039Y-87194893D01*
X119489581Y-87198923D01*
X119428289Y-87206548D01*
X119398461Y-87211261D01*
X119305204Y-87229850D01*
X119215771Y-87253707D01*
X119130377Y-87282725D01*
X119049234Y-87316797D01*
X118972557Y-87355818D01*
X118900558Y-87399681D01*
X118833451Y-87448280D01*
X118771449Y-87501509D01*
X118727949Y-87544915D01*
X118685574Y-87593556D01*
X118647536Y-87644333D01*
X118614493Y-87696230D01*
X118587105Y-87748230D01*
X118569656Y-87789355D01*
X118564680Y-87801769D01*
X118560056Y-87811937D01*
X118556789Y-87817652D01*
X118553532Y-87820958D01*
X118545631Y-87828670D01*
X118533561Y-87840334D01*
X118517793Y-87855496D01*
X118498801Y-87873704D01*
X118477057Y-87894504D01*
X118453034Y-87917442D01*
X118427205Y-87942065D01*
X118408042Y-87960309D01*
X118381341Y-87985737D01*
X118356208Y-88009712D01*
X118333104Y-88031794D01*
X118312486Y-88051540D01*
X118294813Y-88068513D01*
X118280545Y-88082270D01*
X118270139Y-88092371D01*
X118264055Y-88098376D01*
X118262607Y-88099922D01*
X118265572Y-88101699D01*
X118274384Y-88106052D01*
X118288436Y-88112701D01*
X118307123Y-88121368D01*
X118329836Y-88131773D01*
X118355972Y-88143637D01*
X118384923Y-88156683D01*
X118416083Y-88170630D01*
X118423468Y-88173923D01*
X118585126Y-88245942D01*
X118601981Y-88306214D01*
X118610094Y-88334199D01*
X118619941Y-88366534D01*
X118630916Y-88401347D01*
X118642411Y-88436762D01*
X118653817Y-88470907D01*
X118664527Y-88501907D01*
X118673511Y-88526757D01*
X118678959Y-88540443D01*
X118683479Y-88548917D01*
X118688136Y-88553733D01*
X118693830Y-88556392D01*
X118701132Y-88557558D01*
X118714453Y-88558496D01*
X118732760Y-88559209D01*
X118755020Y-88559697D01*
X118780201Y-88559965D01*
X118807269Y-88560013D01*
X118835192Y-88559845D01*
X118862937Y-88559461D01*
X118889472Y-88558866D01*
X118913763Y-88558060D01*
X118934777Y-88557046D01*
X118951319Y-88555841D01*
X119114261Y-88538212D01*
X119214139Y-88524838D01*
X119256859Y-88518400D01*
X119293678Y-88512100D01*
X119325734Y-88505624D01*
X119354167Y-88498661D01*
X119380116Y-88490899D01*
X119404721Y-88482025D01*
X119429122Y-88471727D01*
X119454457Y-88459694D01*
X119457556Y-88458147D01*
X119513115Y-88426813D01*
X119567664Y-88389211D01*
X119620233Y-88346128D01*
X119669852Y-88298353D01*
X119710314Y-88253042D01*
X119728347Y-88231319D01*
X119730748Y-88256569D01*
X119737775Y-88303991D01*
X119749681Y-88353168D01*
X119765802Y-88402224D01*
X119785477Y-88449282D01*
X119808042Y-88492463D01*
X119821719Y-88514289D01*
X119859340Y-88564006D01*
X119902141Y-88609003D01*
X119950037Y-88649251D01*
X120002937Y-88684723D01*
X120060757Y-88715389D01*
X120123406Y-88741223D01*
X120190799Y-88762197D01*
X120262848Y-88778282D01*
X120339465Y-88789451D01*
X120420562Y-88795676D01*
X120506053Y-88796929D01*
X120595848Y-88793182D01*
X120674639Y-88786139D01*
X120747782Y-88776822D01*
X120825875Y-88764509D01*
X120907621Y-88749481D01*
X120991724Y-88732024D01*
X121076887Y-88712418D01*
X121161813Y-88690949D01*
X121245205Y-88667899D01*
X121321986Y-88644745D01*
X121419460Y-88612112D01*
X121513786Y-88576670D01*
X121604613Y-88538629D01*
X121691592Y-88498203D01*
X121774372Y-88455600D01*
X121852604Y-88411034D01*
X121925937Y-88364714D01*
X121994021Y-88316853D01*
X122056506Y-88267661D01*
X122113041Y-88217350D01*
X122163278Y-88166131D01*
X122206865Y-88114215D01*
X122211516Y-88108103D01*
X122221132Y-88095676D01*
X122227892Y-88088104D01*
X122232929Y-88084422D01*
X122237377Y-88083664D01*
X122239726Y-88084079D01*
X122259163Y-88088388D01*
X122284240Y-88093070D01*
X122313568Y-88097922D01*
X122345757Y-88102737D01*
X122379415Y-88107313D01*
X122413152Y-88111443D01*
X122445578Y-88114923D01*
X122456167Y-88115932D01*
X122487905Y-88118462D01*
X122519888Y-88120184D01*
X122552791Y-88121067D01*
X122587290Y-88121080D01*
X122624060Y-88120194D01*
X122663775Y-88118377D01*
X122707113Y-88115599D01*
X122754746Y-88111829D01*
X122807352Y-88107037D01*
X122865605Y-88101192D01*
X122927125Y-88094600D01*
X123016165Y-88084237D01*
X123111639Y-88072018D01*
X123213193Y-88058007D01*
X123320469Y-88042269D01*
X123433115Y-88024868D01*
X123550774Y-88005867D01*
X123673091Y-87985332D01*
X123799712Y-87963326D01*
X123930280Y-87939914D01*
X124064441Y-87915160D01*
X124201840Y-87889128D01*
X124342121Y-87861882D01*
X124484930Y-87833486D01*
X124629911Y-87804006D01*
X124776709Y-87773505D01*
X124924969Y-87742046D01*
X125074335Y-87709696D01*
X125161972Y-87690408D01*
X125206466Y-87680554D01*
X125244684Y-87672267D01*
X125277258Y-87665680D01*
X125304823Y-87660928D01*
X125328011Y-87658146D01*
X125347455Y-87657468D01*
X125363788Y-87659028D01*
X125377642Y-87662962D01*
X125389652Y-87669404D01*
X125400449Y-87678488D01*
X125410667Y-87690348D01*
X125420938Y-87705120D01*
X125431896Y-87722938D01*
X125444174Y-87743936D01*
X125448453Y-87751295D01*
X125485722Y-87817072D01*
X125520654Y-87882322D01*
X125552855Y-87946214D01*
X125581929Y-88007915D01*
X125607481Y-88066594D01*
X125629117Y-88121419D01*
X125642982Y-88160859D01*
X125658442Y-88213272D01*
X125669158Y-88262184D01*
X125675158Y-88307367D01*
X125676469Y-88348594D01*
X125673119Y-88385635D01*
X125665134Y-88418262D01*
X125652543Y-88446247D01*
X125635372Y-88469362D01*
X125613649Y-88487378D01*
X125603124Y-88493395D01*
X125592991Y-88498154D01*
X125581941Y-88502524D01*
X125569615Y-88506533D01*
X125555657Y-88510209D01*
X125539709Y-88513581D01*
X125521413Y-88516677D01*
X125500414Y-88519524D01*
X125476352Y-88522152D01*
X125448872Y-88524587D01*
X125417615Y-88526859D01*
X125382225Y-88528995D01*
X125342343Y-88531023D01*
X125297613Y-88532973D01*
X125247677Y-88534871D01*
X125192178Y-88536746D01*
X125130759Y-88538626D01*
X125063062Y-88540540D01*
X124988731Y-88542515D01*
X124975000Y-88542869D01*
X124852923Y-88546207D01*
X124737344Y-88549786D01*
X124627707Y-88553639D01*
X124523456Y-88557794D01*
X124424037Y-88562284D01*
X124328895Y-88567138D01*
X124237474Y-88572388D01*
X124149219Y-88578064D01*
X124063574Y-88584196D01*
X123979985Y-88590816D01*
X123897897Y-88597954D01*
X123816754Y-88605640D01*
X123789667Y-88608345D01*
X123660967Y-88622177D01*
X123536502Y-88637273D01*
X123415523Y-88653805D01*
X123297281Y-88671941D01*
X123181028Y-88691851D01*
X123066016Y-88713705D01*
X122951496Y-88737671D01*
X122836721Y-88763920D01*
X122720941Y-88792620D01*
X122603408Y-88823942D01*
X122483373Y-88858054D01*
X122360090Y-88895127D01*
X122232808Y-88935329D01*
X122100780Y-88978830D01*
X121995792Y-89014551D01*
X121945932Y-89032059D01*
X121898400Y-89049485D01*
X121852527Y-89067150D01*
X121807643Y-89085374D01*
X121763080Y-89104476D01*
X121718167Y-89124779D01*
X121672235Y-89146601D01*
X121624615Y-89170263D01*
X121574637Y-89196085D01*
X121521633Y-89224388D01*
X121464932Y-89255492D01*
X121403865Y-89289717D01*
X121337763Y-89327384D01*
X121316694Y-89339493D01*
X121258073Y-89373223D01*
X121205102Y-89403651D01*
X121157334Y-89431025D01*
X121114321Y-89455591D01*
X121075616Y-89477596D01*
X121040771Y-89497287D01*
X121009338Y-89514910D01*
X120980870Y-89530714D01*
X120954919Y-89544944D01*
X120931037Y-89557848D01*
X120908777Y-89569672D01*
X120887692Y-89580664D01*
X120867332Y-89591070D01*
X120847252Y-89601138D01*
X120827003Y-89611113D01*
X120806138Y-89621244D01*
X120804306Y-89622128D01*
X120736867Y-89653565D01*
X120673250Y-89680819D01*
X120612082Y-89704282D01*
X120551992Y-89724345D01*
X120491609Y-89741402D01*
X120429560Y-89755844D01*
X120364474Y-89768064D01*
X120294978Y-89778454D01*
X120230139Y-89786279D01*
X120189152Y-89790039D01*
X120143206Y-89792999D01*
X120094358Y-89795105D01*
X120044663Y-89796301D01*
X119996179Y-89796532D01*
X119950962Y-89795744D01*
X119921458Y-89794508D01*
X119841912Y-89787865D01*
X119761456Y-89776743D01*
X119681278Y-89761443D01*
X119602567Y-89742263D01*
X119526511Y-89719501D01*
X119454298Y-89693456D01*
X119387116Y-89664427D01*
X119369008Y-89655625D01*
X119288028Y-89611372D01*
X119208806Y-89560408D01*
X119131482Y-89502893D01*
X119056195Y-89438983D01*
X118983086Y-89368836D01*
X118912295Y-89292610D01*
X118843960Y-89210463D01*
X118778223Y-89122552D01*
X118715222Y-89029036D01*
X118655097Y-88930070D01*
X118597989Y-88825814D01*
X118552897Y-88735201D01*
X118534559Y-88695287D01*
X118516937Y-88653922D01*
X118499526Y-88609814D01*
X118481819Y-88561672D01*
X118463310Y-88508204D01*
X118458965Y-88495250D01*
X118451296Y-88471804D01*
X118443193Y-88446214D01*
X118435008Y-88419673D01*
X118427093Y-88393373D01*
X118419801Y-88368508D01*
X118413485Y-88346269D01*
X118408496Y-88327848D01*
X118405187Y-88314440D01*
X118404378Y-88310558D01*
X118402209Y-88298996D01*
X118197595Y-88216428D01*
X118161615Y-88201883D01*
X118127607Y-88188085D01*
X118096132Y-88175266D01*
X118067748Y-88163654D01*
X118043014Y-88153480D01*
X118022490Y-88144974D01*
X118006734Y-88138367D01*
X117996307Y-88133889D01*
X117991768Y-88131769D01*
X117991619Y-88131656D01*
X117993960Y-88129006D01*
X118001162Y-88122050D01*
X118012812Y-88111163D01*
X118028495Y-88096724D01*
X118047797Y-88079108D01*
X118070304Y-88058694D01*
X118095601Y-88035859D01*
X118123274Y-88010979D01*
X118152909Y-87984432D01*
X118178286Y-87961769D01*
X118214302Y-87929640D01*
X118245416Y-87901846D01*
X118271998Y-87878033D01*
X118294415Y-87857848D01*
X118313038Y-87840935D01*
X118328235Y-87826942D01*
X118340376Y-87815513D01*
X118349830Y-87806294D01*
X118356965Y-87798931D01*
X118362152Y-87793071D01*
X118365759Y-87788358D01*
X118368156Y-87784439D01*
X118369712Y-87780959D01*
X118370795Y-87777565D01*
X118370979Y-87776897D01*
X118377388Y-87756348D01*
X118386490Y-87731398D01*
X118397560Y-87703816D01*
X118409874Y-87675375D01*
X118422705Y-87647843D01*
X118429300Y-87634554D01*
X118461749Y-87576345D01*
X118498977Y-87520220D01*
X118541666Y-87465249D01*
X118590499Y-87410502D01*
X118603642Y-87396849D01*
X118659151Y-87343310D01*
X118716431Y-87294827D01*
X118776685Y-87250531D01*
X118841117Y-87209557D01*
X118910931Y-87171037D01*
X118931917Y-87160420D01*
X118999971Y-87128548D01*
X119067985Y-87100713D01*
X119137187Y-87076541D01*
X119208807Y-87055659D01*
X119284072Y-87037692D01*
X119364212Y-87022268D01*
X119410680Y-87014752D01*
X119430516Y-87011832D01*
X119447844Y-87009566D01*
X119464061Y-87007870D01*
X119480562Y-87006659D01*
X119498742Y-87005848D01*
X119519998Y-87005355D01*
X119545724Y-87005094D01*
X119572208Y-87004991D01*
X119609423Y-87005069D01*
X119609423Y-87005069D01*
G37*
X119609423Y-87005069D02*
X119641094Y-87005572D01*
X119668725Y-87006621D01*
X119693824Y-87008340D01*
X119717893Y-87010851D01*
X119742439Y-87014276D01*
X119768967Y-87018740D01*
X119790931Y-87022815D01*
X119849786Y-87035578D01*
X119910883Y-87051645D01*
X119971336Y-87070182D01*
X120028260Y-87090354D01*
X120039639Y-87094777D01*
X120082817Y-87111970D01*
X120125192Y-87129108D01*
X120167150Y-87146370D01*
X120209080Y-87163937D01*
X120251369Y-87181989D01*
X120294404Y-87200707D01*
X120338573Y-87220271D01*
X120384265Y-87240862D01*
X120431866Y-87262659D01*
X120481764Y-87285844D01*
X120534347Y-87310597D01*
X120590003Y-87337099D01*
X120649118Y-87365528D01*
X120712082Y-87396067D01*
X120779280Y-87428896D01*
X120851102Y-87464194D01*
X120927935Y-87502143D01*
X121010166Y-87542923D01*
X121098183Y-87586714D01*
X121120903Y-87598037D01*
X121199183Y-87636981D01*
X121271702Y-87672880D01*
X121338949Y-87705961D01*
X121401415Y-87736448D01*
X121459589Y-87764567D01*
X121513962Y-87790545D01*
X121565024Y-87814606D01*
X121613265Y-87836978D01*
X121659175Y-87857885D01*
X121703244Y-87877553D01*
X121745962Y-87896208D01*
X121787819Y-87914076D01*
X121829306Y-87931382D01*
X121870912Y-87948353D01*
X121913128Y-87965213D01*
X121946403Y-87978281D01*
X121969926Y-87987518D01*
X121991319Y-87996037D01*
X122009688Y-88003473D01*
X122024143Y-88009460D01*
X122033791Y-88013635D01*
X122037732Y-88015624D01*
X122037199Y-88019719D01*
X122031987Y-88027737D01*
X122022739Y-88038968D01*
X122010100Y-88052704D01*
X121994712Y-88068236D01*
X121977219Y-88084855D01*
X121964178Y-88096657D01*
X121896199Y-88152758D01*
X121821764Y-88206253D01*
X121740994Y-88257086D01*
X121654011Y-88305200D01*
X121560938Y-88350538D01*
X121461897Y-88393043D01*
X121357009Y-88432658D01*
X121246398Y-88469327D01*
X121130185Y-88502992D01*
X121043292Y-88525296D01*
X120942697Y-88548538D01*
X120847709Y-88567867D01*
X120758081Y-88583303D01*
X120673561Y-88594868D01*
X120593901Y-88602580D01*
X120518851Y-88606462D01*
X120448163Y-88606535D01*
X120381587Y-88602818D01*
X120318874Y-88595332D01*
X120281082Y-88588660D01*
X120220450Y-88573748D01*
X120165094Y-88554367D01*
X120115086Y-88530590D01*
X120070499Y-88502491D01*
X120031404Y-88470142D01*
X119997873Y-88433617D01*
X119969979Y-88392988D01*
X119947795Y-88348329D01*
X119931392Y-88299713D01*
X119920842Y-88247214D01*
X119917903Y-88220940D01*
X119917085Y-88209833D01*
X119916149Y-88201698D01*
X119914111Y-88195994D01*
X119909991Y-88192178D01*
X119902806Y-88189710D01*
X119891575Y-88188046D01*
X119875315Y-88186646D01*
X119853045Y-88184967D01*
X119852667Y-88184937D01*
X119825115Y-88182710D01*
X119803944Y-88180816D01*
X119788491Y-88179166D01*
X119778094Y-88177673D01*
X119772090Y-88176249D01*
X119769817Y-88174807D01*
X119769918Y-88173974D01*
X119767973Y-88172665D01*
X119761139Y-88172440D01*
X119751468Y-88173114D01*
X119741010Y-88174497D01*
X119731817Y-88176403D01*
X119727431Y-88177859D01*
X119721923Y-88179376D01*
X119710616Y-88181836D01*
X119694669Y-88185008D01*
X119675241Y-88188665D01*
X119653489Y-88192578D01*
X119648056Y-88193529D01*
X119566570Y-88207036D01*
X119489154Y-88218409D01*
X119413266Y-88227987D01*
X119336367Y-88236109D01*
X119312917Y-88238294D01*
X119290487Y-88239888D01*
X119263281Y-88241121D01*
X119232652Y-88241993D01*
X119199951Y-88242504D01*
X119166529Y-88242652D01*
X119133738Y-88242438D01*
X119102930Y-88241861D01*
X119075455Y-88240920D01*
X119052666Y-88239615D01*
X119039514Y-88238402D01*
X118966686Y-88228747D01*
X118895829Y-88216860D01*
X118825068Y-88202349D01*
X118752527Y-88184822D01*
X118676331Y-88163890D01*
X118660857Y-88159368D01*
X118638243Y-88152575D01*
X118621577Y-88147222D01*
X118609982Y-88142959D01*
X118602578Y-88139438D01*
X118598490Y-88136309D01*
X118597057Y-88133968D01*
X118596091Y-88128855D01*
X118594509Y-88117561D01*
X118592410Y-88100925D01*
X118589895Y-88079783D01*
X118587063Y-88054975D01*
X118584013Y-88027338D01*
X118580918Y-87998392D01*
X118577321Y-87964399D01*
X118574435Y-87936757D01*
X118572312Y-87914791D01*
X118571001Y-87897830D01*
X118570553Y-87885198D01*
X118571018Y-87876223D01*
X118572447Y-87870230D01*
X118574890Y-87866547D01*
X118578397Y-87864499D01*
X118583018Y-87863413D01*
X118588805Y-87862615D01*
X118591091Y-87862283D01*
X118602337Y-87860254D01*
X118619389Y-87856797D01*
X118641193Y-87852151D01*
X118666700Y-87846555D01*
X118694858Y-87840249D01*
X118724615Y-87833471D01*
X118754921Y-87826461D01*
X118784725Y-87819457D01*
X118812975Y-87812700D01*
X118838620Y-87806427D01*
X118857833Y-87801593D01*
X118960462Y-87774234D01*
X119056453Y-87746397D01*
X119146213Y-87717945D01*
X119230153Y-87688742D01*
X119308680Y-87658650D01*
X119382203Y-87627534D01*
X119394056Y-87622213D01*
X119464730Y-87587760D01*
X119536700Y-87548022D01*
X119608246Y-87504092D01*
X119677648Y-87457066D01*
X119743190Y-87408037D01*
X119787403Y-87371786D01*
X119805065Y-87356423D01*
X119823398Y-87340012D01*
X119841684Y-87323244D01*
X119859206Y-87306810D01*
X119875249Y-87291401D01*
X119889095Y-87277709D01*
X119900027Y-87266424D01*
X119907329Y-87258238D01*
X119910283Y-87253841D01*
X119910219Y-87253368D01*
X119904114Y-87250119D01*
X119892137Y-87245797D01*
X119875347Y-87240663D01*
X119854801Y-87234980D01*
X119831556Y-87229011D01*
X119806670Y-87223019D01*
X119781199Y-87217265D01*
X119756201Y-87212013D01*
X119732732Y-87207526D01*
X119711852Y-87204065D01*
X119711556Y-87204021D01*
X119656513Y-87197477D01*
X119602179Y-87194423D01*
X119547039Y-87194893D01*
X119489581Y-87198923D01*
X119428289Y-87206548D01*
X119398461Y-87211261D01*
X119305204Y-87229850D01*
X119215771Y-87253707D01*
X119130377Y-87282725D01*
X119049234Y-87316797D01*
X118972557Y-87355818D01*
X118900558Y-87399681D01*
X118833451Y-87448280D01*
X118771449Y-87501509D01*
X118727949Y-87544915D01*
X118685574Y-87593556D01*
X118647536Y-87644333D01*
X118614493Y-87696230D01*
X118587105Y-87748230D01*
X118569656Y-87789355D01*
X118564680Y-87801769D01*
X118560056Y-87811937D01*
X118556789Y-87817652D01*
X118553532Y-87820958D01*
X118545631Y-87828670D01*
X118533561Y-87840334D01*
X118517793Y-87855496D01*
X118498801Y-87873704D01*
X118477057Y-87894504D01*
X118453034Y-87917442D01*
X118427205Y-87942065D01*
X118408042Y-87960309D01*
X118381341Y-87985737D01*
X118356208Y-88009712D01*
X118333104Y-88031794D01*
X118312486Y-88051540D01*
X118294813Y-88068513D01*
X118280545Y-88082270D01*
X118270139Y-88092371D01*
X118264055Y-88098376D01*
X118262607Y-88099922D01*
X118265572Y-88101699D01*
X118274384Y-88106052D01*
X118288436Y-88112701D01*
X118307123Y-88121368D01*
X118329836Y-88131773D01*
X118355972Y-88143637D01*
X118384923Y-88156683D01*
X118416083Y-88170630D01*
X118423468Y-88173923D01*
X118585126Y-88245942D01*
X118601981Y-88306214D01*
X118610094Y-88334199D01*
X118619941Y-88366534D01*
X118630916Y-88401347D01*
X118642411Y-88436762D01*
X118653817Y-88470907D01*
X118664527Y-88501907D01*
X118673511Y-88526757D01*
X118678959Y-88540443D01*
X118683479Y-88548917D01*
X118688136Y-88553733D01*
X118693830Y-88556392D01*
X118701132Y-88557558D01*
X118714453Y-88558496D01*
X118732760Y-88559209D01*
X118755020Y-88559697D01*
X118780201Y-88559965D01*
X118807269Y-88560013D01*
X118835192Y-88559845D01*
X118862937Y-88559461D01*
X118889472Y-88558866D01*
X118913763Y-88558060D01*
X118934777Y-88557046D01*
X118951319Y-88555841D01*
X119114261Y-88538212D01*
X119214139Y-88524838D01*
X119256859Y-88518400D01*
X119293678Y-88512100D01*
X119325734Y-88505624D01*
X119354167Y-88498661D01*
X119380116Y-88490899D01*
X119404721Y-88482025D01*
X119429122Y-88471727D01*
X119454457Y-88459694D01*
X119457556Y-88458147D01*
X119513115Y-88426813D01*
X119567664Y-88389211D01*
X119620233Y-88346128D01*
X119669852Y-88298353D01*
X119710314Y-88253042D01*
X119728347Y-88231319D01*
X119730748Y-88256569D01*
X119737775Y-88303991D01*
X119749681Y-88353168D01*
X119765802Y-88402224D01*
X119785477Y-88449282D01*
X119808042Y-88492463D01*
X119821719Y-88514289D01*
X119859340Y-88564006D01*
X119902141Y-88609003D01*
X119950037Y-88649251D01*
X120002937Y-88684723D01*
X120060757Y-88715389D01*
X120123406Y-88741223D01*
X120190799Y-88762197D01*
X120262848Y-88778282D01*
X120339465Y-88789451D01*
X120420562Y-88795676D01*
X120506053Y-88796929D01*
X120595848Y-88793182D01*
X120674639Y-88786139D01*
X120747782Y-88776822D01*
X120825875Y-88764509D01*
X120907621Y-88749481D01*
X120991724Y-88732024D01*
X121076887Y-88712418D01*
X121161813Y-88690949D01*
X121245205Y-88667899D01*
X121321986Y-88644745D01*
X121419460Y-88612112D01*
X121513786Y-88576670D01*
X121604613Y-88538629D01*
X121691592Y-88498203D01*
X121774372Y-88455600D01*
X121852604Y-88411034D01*
X121925937Y-88364714D01*
X121994021Y-88316853D01*
X122056506Y-88267661D01*
X122113041Y-88217350D01*
X122163278Y-88166131D01*
X122206865Y-88114215D01*
X122211516Y-88108103D01*
X122221132Y-88095676D01*
X122227892Y-88088104D01*
X122232929Y-88084422D01*
X122237377Y-88083664D01*
X122239726Y-88084079D01*
X122259163Y-88088388D01*
X122284240Y-88093070D01*
X122313568Y-88097922D01*
X122345757Y-88102737D01*
X122379415Y-88107313D01*
X122413152Y-88111443D01*
X122445578Y-88114923D01*
X122456167Y-88115932D01*
X122487905Y-88118462D01*
X122519888Y-88120184D01*
X122552791Y-88121067D01*
X122587290Y-88121080D01*
X122624060Y-88120194D01*
X122663775Y-88118377D01*
X122707113Y-88115599D01*
X122754746Y-88111829D01*
X122807352Y-88107037D01*
X122865605Y-88101192D01*
X122927125Y-88094600D01*
X123016165Y-88084237D01*
X123111639Y-88072018D01*
X123213193Y-88058007D01*
X123320469Y-88042269D01*
X123433115Y-88024868D01*
X123550774Y-88005867D01*
X123673091Y-87985332D01*
X123799712Y-87963326D01*
X123930280Y-87939914D01*
X124064441Y-87915160D01*
X124201840Y-87889128D01*
X124342121Y-87861882D01*
X124484930Y-87833486D01*
X124629911Y-87804006D01*
X124776709Y-87773505D01*
X124924969Y-87742046D01*
X125074335Y-87709696D01*
X125161972Y-87690408D01*
X125206466Y-87680554D01*
X125244684Y-87672267D01*
X125277258Y-87665680D01*
X125304823Y-87660928D01*
X125328011Y-87658146D01*
X125347455Y-87657468D01*
X125363788Y-87659028D01*
X125377642Y-87662962D01*
X125389652Y-87669404D01*
X125400449Y-87678488D01*
X125410667Y-87690348D01*
X125420938Y-87705120D01*
X125431896Y-87722938D01*
X125444174Y-87743936D01*
X125448453Y-87751295D01*
X125485722Y-87817072D01*
X125520654Y-87882322D01*
X125552855Y-87946214D01*
X125581929Y-88007915D01*
X125607481Y-88066594D01*
X125629117Y-88121419D01*
X125642982Y-88160859D01*
X125658442Y-88213272D01*
X125669158Y-88262184D01*
X125675158Y-88307367D01*
X125676469Y-88348594D01*
X125673119Y-88385635D01*
X125665134Y-88418262D01*
X125652543Y-88446247D01*
X125635372Y-88469362D01*
X125613649Y-88487378D01*
X125603124Y-88493395D01*
X125592991Y-88498154D01*
X125581941Y-88502524D01*
X125569615Y-88506533D01*
X125555657Y-88510209D01*
X125539709Y-88513581D01*
X125521413Y-88516677D01*
X125500414Y-88519524D01*
X125476352Y-88522152D01*
X125448872Y-88524587D01*
X125417615Y-88526859D01*
X125382225Y-88528995D01*
X125342343Y-88531023D01*
X125297613Y-88532973D01*
X125247677Y-88534871D01*
X125192178Y-88536746D01*
X125130759Y-88538626D01*
X125063062Y-88540540D01*
X124988731Y-88542515D01*
X124975000Y-88542869D01*
X124852923Y-88546207D01*
X124737344Y-88549786D01*
X124627707Y-88553639D01*
X124523456Y-88557794D01*
X124424037Y-88562284D01*
X124328895Y-88567138D01*
X124237474Y-88572388D01*
X124149219Y-88578064D01*
X124063574Y-88584196D01*
X123979985Y-88590816D01*
X123897897Y-88597954D01*
X123816754Y-88605640D01*
X123789667Y-88608345D01*
X123660967Y-88622177D01*
X123536502Y-88637273D01*
X123415523Y-88653805D01*
X123297281Y-88671941D01*
X123181028Y-88691851D01*
X123066016Y-88713705D01*
X122951496Y-88737671D01*
X122836721Y-88763920D01*
X122720941Y-88792620D01*
X122603408Y-88823942D01*
X122483373Y-88858054D01*
X122360090Y-88895127D01*
X122232808Y-88935329D01*
X122100780Y-88978830D01*
X121995792Y-89014551D01*
X121945932Y-89032059D01*
X121898400Y-89049485D01*
X121852527Y-89067150D01*
X121807643Y-89085374D01*
X121763080Y-89104476D01*
X121718167Y-89124779D01*
X121672235Y-89146601D01*
X121624615Y-89170263D01*
X121574637Y-89196085D01*
X121521633Y-89224388D01*
X121464932Y-89255492D01*
X121403865Y-89289717D01*
X121337763Y-89327384D01*
X121316694Y-89339493D01*
X121258073Y-89373223D01*
X121205102Y-89403651D01*
X121157334Y-89431025D01*
X121114321Y-89455591D01*
X121075616Y-89477596D01*
X121040771Y-89497287D01*
X121009338Y-89514910D01*
X120980870Y-89530714D01*
X120954919Y-89544944D01*
X120931037Y-89557848D01*
X120908777Y-89569672D01*
X120887692Y-89580664D01*
X120867332Y-89591070D01*
X120847252Y-89601138D01*
X120827003Y-89611113D01*
X120806138Y-89621244D01*
X120804306Y-89622128D01*
X120736867Y-89653565D01*
X120673250Y-89680819D01*
X120612082Y-89704282D01*
X120551992Y-89724345D01*
X120491609Y-89741402D01*
X120429560Y-89755844D01*
X120364474Y-89768064D01*
X120294978Y-89778454D01*
X120230139Y-89786279D01*
X120189152Y-89790039D01*
X120143206Y-89792999D01*
X120094358Y-89795105D01*
X120044663Y-89796301D01*
X119996179Y-89796532D01*
X119950962Y-89795744D01*
X119921458Y-89794508D01*
X119841912Y-89787865D01*
X119761456Y-89776743D01*
X119681278Y-89761443D01*
X119602567Y-89742263D01*
X119526511Y-89719501D01*
X119454298Y-89693456D01*
X119387116Y-89664427D01*
X119369008Y-89655625D01*
X119288028Y-89611372D01*
X119208806Y-89560408D01*
X119131482Y-89502893D01*
X119056195Y-89438983D01*
X118983086Y-89368836D01*
X118912295Y-89292610D01*
X118843960Y-89210463D01*
X118778223Y-89122552D01*
X118715222Y-89029036D01*
X118655097Y-88930070D01*
X118597989Y-88825814D01*
X118552897Y-88735201D01*
X118534559Y-88695287D01*
X118516937Y-88653922D01*
X118499526Y-88609814D01*
X118481819Y-88561672D01*
X118463310Y-88508204D01*
X118458965Y-88495250D01*
X118451296Y-88471804D01*
X118443193Y-88446214D01*
X118435008Y-88419673D01*
X118427093Y-88393373D01*
X118419801Y-88368508D01*
X118413485Y-88346269D01*
X118408496Y-88327848D01*
X118405187Y-88314440D01*
X118404378Y-88310558D01*
X118402209Y-88298996D01*
X118197595Y-88216428D01*
X118161615Y-88201883D01*
X118127607Y-88188085D01*
X118096132Y-88175266D01*
X118067748Y-88163654D01*
X118043014Y-88153480D01*
X118022490Y-88144974D01*
X118006734Y-88138367D01*
X117996307Y-88133889D01*
X117991768Y-88131769D01*
X117991619Y-88131656D01*
X117993960Y-88129006D01*
X118001162Y-88122050D01*
X118012812Y-88111163D01*
X118028495Y-88096724D01*
X118047797Y-88079108D01*
X118070304Y-88058694D01*
X118095601Y-88035859D01*
X118123274Y-88010979D01*
X118152909Y-87984432D01*
X118178286Y-87961769D01*
X118214302Y-87929640D01*
X118245416Y-87901846D01*
X118271998Y-87878033D01*
X118294415Y-87857848D01*
X118313038Y-87840935D01*
X118328235Y-87826942D01*
X118340376Y-87815513D01*
X118349830Y-87806294D01*
X118356965Y-87798931D01*
X118362152Y-87793071D01*
X118365759Y-87788358D01*
X118368156Y-87784439D01*
X118369712Y-87780959D01*
X118370795Y-87777565D01*
X118370979Y-87776897D01*
X118377388Y-87756348D01*
X118386490Y-87731398D01*
X118397560Y-87703816D01*
X118409874Y-87675375D01*
X118422705Y-87647843D01*
X118429300Y-87634554D01*
X118461749Y-87576345D01*
X118498977Y-87520220D01*
X118541666Y-87465249D01*
X118590499Y-87410502D01*
X118603642Y-87396849D01*
X118659151Y-87343310D01*
X118716431Y-87294827D01*
X118776685Y-87250531D01*
X118841117Y-87209557D01*
X118910931Y-87171037D01*
X118931917Y-87160420D01*
X118999971Y-87128548D01*
X119067985Y-87100713D01*
X119137187Y-87076541D01*
X119208807Y-87055659D01*
X119284072Y-87037692D01*
X119364212Y-87022268D01*
X119410680Y-87014752D01*
X119430516Y-87011832D01*
X119447844Y-87009566D01*
X119464061Y-87007870D01*
X119480562Y-87006659D01*
X119498742Y-87005848D01*
X119519998Y-87005355D01*
X119545724Y-87005094D01*
X119572208Y-87004991D01*
X119609423Y-87005069D01*
G36*
X157689423Y-127765069D02*
X157721094Y-127765572D01*
X157748725Y-127766621D01*
X157773824Y-127768340D01*
X157797893Y-127770851D01*
X157822439Y-127774276D01*
X157848967Y-127778740D01*
X157870931Y-127782815D01*
X157929786Y-127795578D01*
X157990883Y-127811645D01*
X158051336Y-127830182D01*
X158108260Y-127850354D01*
X158119639Y-127854777D01*
X158162817Y-127871970D01*
X158205192Y-127889108D01*
X158247150Y-127906370D01*
X158289080Y-127923937D01*
X158331369Y-127941989D01*
X158374404Y-127960707D01*
X158418573Y-127980271D01*
X158464265Y-128000862D01*
X158511866Y-128022659D01*
X158561764Y-128045844D01*
X158614347Y-128070597D01*
X158670003Y-128097099D01*
X158729118Y-128125528D01*
X158792082Y-128156067D01*
X158859280Y-128188896D01*
X158931102Y-128224194D01*
X159007935Y-128262143D01*
X159090166Y-128302923D01*
X159178183Y-128346714D01*
X159200903Y-128358037D01*
X159279183Y-128396981D01*
X159351702Y-128432880D01*
X159418949Y-128465961D01*
X159481415Y-128496448D01*
X159539589Y-128524567D01*
X159593962Y-128550545D01*
X159645024Y-128574606D01*
X159693265Y-128596978D01*
X159739175Y-128617885D01*
X159783244Y-128637553D01*
X159825962Y-128656208D01*
X159867819Y-128674076D01*
X159909306Y-128691382D01*
X159950912Y-128708353D01*
X159993128Y-128725213D01*
X160026403Y-128738281D01*
X160049926Y-128747518D01*
X160071319Y-128756037D01*
X160089688Y-128763473D01*
X160104143Y-128769460D01*
X160113791Y-128773635D01*
X160117732Y-128775624D01*
X160117199Y-128779719D01*
X160111987Y-128787737D01*
X160102739Y-128798968D01*
X160090100Y-128812704D01*
X160074712Y-128828236D01*
X160057219Y-128844855D01*
X160044178Y-128856657D01*
X159976199Y-128912758D01*
X159901764Y-128966253D01*
X159820994Y-129017086D01*
X159734011Y-129065200D01*
X159640938Y-129110538D01*
X159541897Y-129153043D01*
X159437009Y-129192658D01*
X159326398Y-129229327D01*
X159210185Y-129262992D01*
X159123292Y-129285296D01*
X159022697Y-129308538D01*
X158927709Y-129327867D01*
X158838081Y-129343303D01*
X158753561Y-129354868D01*
X158673901Y-129362580D01*
X158598851Y-129366462D01*
X158528163Y-129366535D01*
X158461587Y-129362818D01*
X158398874Y-129355332D01*
X158361082Y-129348660D01*
X158300450Y-129333748D01*
X158245094Y-129314367D01*
X158195086Y-129290590D01*
X158150499Y-129262491D01*
X158111404Y-129230142D01*
X158077873Y-129193617D01*
X158049979Y-129152988D01*
X158027795Y-129108329D01*
X158011392Y-129059713D01*
X158000842Y-129007214D01*
X157997903Y-128980940D01*
X157997085Y-128969833D01*
X157996149Y-128961698D01*
X157994111Y-128955994D01*
X157989991Y-128952178D01*
X157982806Y-128949710D01*
X157971575Y-128948046D01*
X157955315Y-128946646D01*
X157933045Y-128944967D01*
X157932667Y-128944937D01*
X157905115Y-128942710D01*
X157883944Y-128940816D01*
X157868491Y-128939166D01*
X157858094Y-128937673D01*
X157852090Y-128936249D01*
X157849817Y-128934807D01*
X157849918Y-128933974D01*
X157847973Y-128932665D01*
X157841139Y-128932440D01*
X157831468Y-128933114D01*
X157821010Y-128934497D01*
X157811817Y-128936403D01*
X157807431Y-128937859D01*
X157801923Y-128939376D01*
X157790616Y-128941836D01*
X157774669Y-128945008D01*
X157755241Y-128948665D01*
X157733489Y-128952578D01*
X157728056Y-128953529D01*
X157646570Y-128967036D01*
X157569154Y-128978409D01*
X157493266Y-128987987D01*
X157416367Y-128996109D01*
X157392917Y-128998294D01*
X157370487Y-128999888D01*
X157343281Y-129001121D01*
X157312652Y-129001993D01*
X157279951Y-129002504D01*
X157246529Y-129002652D01*
X157213738Y-129002438D01*
X157182930Y-129001861D01*
X157155455Y-129000920D01*
X157132666Y-128999615D01*
X157119514Y-128998402D01*
X157046686Y-128988747D01*
X156975829Y-128976860D01*
X156905068Y-128962349D01*
X156832527Y-128944822D01*
X156756331Y-128923890D01*
X156740857Y-128919368D01*
X156718243Y-128912575D01*
X156701577Y-128907222D01*
X156689982Y-128902959D01*
X156682578Y-128899438D01*
X156678490Y-128896309D01*
X156677057Y-128893968D01*
X156676091Y-128888855D01*
X156674509Y-128877561D01*
X156672410Y-128860925D01*
X156669895Y-128839783D01*
X156667063Y-128814975D01*
X156664013Y-128787338D01*
X156660918Y-128758392D01*
X156657321Y-128724399D01*
X156654435Y-128696757D01*
X156652312Y-128674791D01*
X156651001Y-128657830D01*
X156650553Y-128645198D01*
X156651018Y-128636223D01*
X156652447Y-128630230D01*
X156654890Y-128626547D01*
X156658397Y-128624499D01*
X156663018Y-128623413D01*
X156668805Y-128622615D01*
X156671091Y-128622283D01*
X156682337Y-128620254D01*
X156699389Y-128616797D01*
X156721193Y-128612151D01*
X156746700Y-128606555D01*
X156774858Y-128600249D01*
X156804615Y-128593471D01*
X156834921Y-128586461D01*
X156864725Y-128579457D01*
X156892975Y-128572700D01*
X156918620Y-128566427D01*
X156937833Y-128561593D01*
X157040462Y-128534234D01*
X157136453Y-128506397D01*
X157226213Y-128477945D01*
X157310153Y-128448742D01*
X157388680Y-128418650D01*
X157462203Y-128387534D01*
X157474056Y-128382213D01*
X157544730Y-128347760D01*
X157616700Y-128308022D01*
X157688246Y-128264092D01*
X157757648Y-128217066D01*
X157823190Y-128168037D01*
X157867403Y-128131786D01*
X157885065Y-128116423D01*
X157903398Y-128100012D01*
X157921684Y-128083244D01*
X157939206Y-128066810D01*
X157955249Y-128051401D01*
X157969095Y-128037709D01*
X157980027Y-128026424D01*
X157987329Y-128018238D01*
X157990283Y-128013841D01*
X157990219Y-128013368D01*
X157984114Y-128010119D01*
X157972137Y-128005797D01*
X157955347Y-128000663D01*
X157934801Y-127994980D01*
X157911556Y-127989011D01*
X157886670Y-127983019D01*
X157861199Y-127977265D01*
X157836201Y-127972013D01*
X157812732Y-127967526D01*
X157791852Y-127964065D01*
X157791556Y-127964021D01*
X157736513Y-127957477D01*
X157682179Y-127954423D01*
X157627039Y-127954893D01*
X157569581Y-127958923D01*
X157508289Y-127966548D01*
X157478461Y-127971261D01*
X157385204Y-127989850D01*
X157295771Y-128013707D01*
X157210377Y-128042725D01*
X157129234Y-128076797D01*
X157052557Y-128115818D01*
X156980558Y-128159681D01*
X156913451Y-128208280D01*
X156851449Y-128261509D01*
X156807949Y-128304915D01*
X156765574Y-128353556D01*
X156727536Y-128404333D01*
X156694493Y-128456230D01*
X156667105Y-128508230D01*
X156649656Y-128549355D01*
X156644680Y-128561769D01*
X156640056Y-128571937D01*
X156636789Y-128577652D01*
X156633532Y-128580958D01*
X156625631Y-128588670D01*
X156613561Y-128600334D01*
X156597793Y-128615496D01*
X156578801Y-128633704D01*
X156557057Y-128654504D01*
X156533034Y-128677442D01*
X156507205Y-128702065D01*
X156488042Y-128720309D01*
X156461341Y-128745737D01*
X156436208Y-128769712D01*
X156413104Y-128791794D01*
X156392486Y-128811540D01*
X156374813Y-128828513D01*
X156360545Y-128842270D01*
X156350139Y-128852371D01*
X156344055Y-128858376D01*
X156342607Y-128859922D01*
X156345572Y-128861699D01*
X156354384Y-128866052D01*
X156368436Y-128872701D01*
X156387123Y-128881368D01*
X156409836Y-128891773D01*
X156435972Y-128903637D01*
X156464923Y-128916683D01*
X156496083Y-128930630D01*
X156503468Y-128933923D01*
X156665126Y-129005942D01*
X156681981Y-129066214D01*
X156690094Y-129094199D01*
X156699941Y-129126534D01*
X156710916Y-129161347D01*
X156722411Y-129196762D01*
X156733817Y-129230907D01*
X156744527Y-129261907D01*
X156753511Y-129286757D01*
X156758959Y-129300443D01*
X156763479Y-129308917D01*
X156768136Y-129313733D01*
X156773830Y-129316392D01*
X156781132Y-129317558D01*
X156794453Y-129318496D01*
X156812760Y-129319209D01*
X156835020Y-129319697D01*
X156860201Y-129319965D01*
X156887269Y-129320013D01*
X156915192Y-129319845D01*
X156942937Y-129319461D01*
X156969472Y-129318866D01*
X156993763Y-129318060D01*
X157014777Y-129317046D01*
X157031319Y-129315841D01*
X157194261Y-129298212D01*
X157294139Y-129284838D01*
X157336859Y-129278400D01*
X157373678Y-129272100D01*
X157405734Y-129265624D01*
X157434167Y-129258661D01*
X157460116Y-129250899D01*
X157484721Y-129242025D01*
X157509122Y-129231727D01*
X157534457Y-129219694D01*
X157537556Y-129218147D01*
X157593115Y-129186813D01*
X157647664Y-129149211D01*
X157700233Y-129106128D01*
X157749852Y-129058353D01*
X157790314Y-129013042D01*
X157808347Y-128991319D01*
X157810748Y-129016569D01*
X157817775Y-129063991D01*
X157829681Y-129113168D01*
X157845802Y-129162224D01*
X157865477Y-129209282D01*
X157888042Y-129252463D01*
X157901719Y-129274289D01*
X157939340Y-129324006D01*
X157982141Y-129369003D01*
X158030037Y-129409251D01*
X158082937Y-129444723D01*
X158140757Y-129475389D01*
X158203406Y-129501223D01*
X158270799Y-129522197D01*
X158342848Y-129538282D01*
X158419465Y-129549451D01*
X158500562Y-129555676D01*
X158586053Y-129556929D01*
X158675848Y-129553182D01*
X158754639Y-129546139D01*
X158827782Y-129536822D01*
X158905875Y-129524509D01*
X158987621Y-129509481D01*
X159071724Y-129492024D01*
X159156887Y-129472418D01*
X159241813Y-129450949D01*
X159325205Y-129427899D01*
X159401986Y-129404745D01*
X159499460Y-129372112D01*
X159593786Y-129336670D01*
X159684613Y-129298629D01*
X159771592Y-129258203D01*
X159854372Y-129215600D01*
X159932604Y-129171034D01*
X160005937Y-129124714D01*
X160074021Y-129076853D01*
X160136506Y-129027661D01*
X160193041Y-128977350D01*
X160243278Y-128926131D01*
X160286865Y-128874215D01*
X160291516Y-128868103D01*
X160301132Y-128855676D01*
X160307892Y-128848104D01*
X160312929Y-128844422D01*
X160317377Y-128843664D01*
X160319726Y-128844079D01*
X160339163Y-128848388D01*
X160364240Y-128853070D01*
X160393568Y-128857922D01*
X160425757Y-128862737D01*
X160459415Y-128867313D01*
X160493152Y-128871443D01*
X160525578Y-128874923D01*
X160536167Y-128875932D01*
X160567905Y-128878462D01*
X160599888Y-128880184D01*
X160632791Y-128881067D01*
X160667290Y-128881080D01*
X160704060Y-128880194D01*
X160743775Y-128878377D01*
X160787113Y-128875599D01*
X160834746Y-128871829D01*
X160887352Y-128867037D01*
X160945605Y-128861192D01*
X161007125Y-128854600D01*
X161096165Y-128844237D01*
X161191639Y-128832018D01*
X161293193Y-128818007D01*
X161400469Y-128802269D01*
X161513115Y-128784868D01*
X161630774Y-128765867D01*
X161753091Y-128745332D01*
X161879712Y-128723326D01*
X162010280Y-128699914D01*
X162144441Y-128675160D01*
X162281840Y-128649128D01*
X162422121Y-128621882D01*
X162564930Y-128593486D01*
X162709911Y-128564006D01*
X162856709Y-128533505D01*
X163004969Y-128502046D01*
X163154335Y-128469696D01*
X163241972Y-128450408D01*
X163286466Y-128440554D01*
X163324684Y-128432267D01*
X163357258Y-128425680D01*
X163384823Y-128420928D01*
X163408011Y-128418146D01*
X163427455Y-128417468D01*
X163443788Y-128419028D01*
X163457642Y-128422962D01*
X163469652Y-128429404D01*
X163480449Y-128438488D01*
X163490667Y-128450348D01*
X163500938Y-128465120D01*
X163511896Y-128482938D01*
X163524174Y-128503936D01*
X163528453Y-128511295D01*
X163565722Y-128577072D01*
X163600654Y-128642322D01*
X163632855Y-128706214D01*
X163661929Y-128767915D01*
X163687481Y-128826594D01*
X163709117Y-128881419D01*
X163722982Y-128920859D01*
X163738442Y-128973272D01*
X163749158Y-129022184D01*
X163755158Y-129067367D01*
X163756469Y-129108594D01*
X163753119Y-129145635D01*
X163745134Y-129178262D01*
X163732543Y-129206247D01*
X163715372Y-129229362D01*
X163693649Y-129247378D01*
X163683124Y-129253395D01*
X163672991Y-129258154D01*
X163661941Y-129262524D01*
X163649615Y-129266533D01*
X163635657Y-129270209D01*
X163619709Y-129273581D01*
X163601413Y-129276677D01*
X163580414Y-129279524D01*
X163556352Y-129282152D01*
X163528872Y-129284587D01*
X163497615Y-129286859D01*
X163462225Y-129288995D01*
X163422343Y-129291023D01*
X163377613Y-129292973D01*
X163327677Y-129294871D01*
X163272178Y-129296746D01*
X163210759Y-129298626D01*
X163143062Y-129300540D01*
X163068731Y-129302515D01*
X163055000Y-129302869D01*
X162932923Y-129306207D01*
X162817344Y-129309786D01*
X162707707Y-129313639D01*
X162603456Y-129317794D01*
X162504037Y-129322284D01*
X162408895Y-129327138D01*
X162317474Y-129332388D01*
X162229219Y-129338064D01*
X162143574Y-129344196D01*
X162059985Y-129350816D01*
X161977897Y-129357954D01*
X161896754Y-129365640D01*
X161869667Y-129368345D01*
X161740967Y-129382177D01*
X161616502Y-129397273D01*
X161495523Y-129413805D01*
X161377281Y-129431941D01*
X161261028Y-129451851D01*
X161146016Y-129473705D01*
X161031496Y-129497671D01*
X160916721Y-129523920D01*
X160800941Y-129552620D01*
X160683408Y-129583942D01*
X160563373Y-129618054D01*
X160440090Y-129655127D01*
X160312808Y-129695329D01*
X160180780Y-129738830D01*
X160075792Y-129774551D01*
X160025932Y-129792059D01*
X159978400Y-129809485D01*
X159932527Y-129827150D01*
X159887643Y-129845374D01*
X159843080Y-129864476D01*
X159798167Y-129884779D01*
X159752235Y-129906601D01*
X159704615Y-129930263D01*
X159654637Y-129956085D01*
X159601633Y-129984388D01*
X159544932Y-130015492D01*
X159483865Y-130049717D01*
X159417763Y-130087384D01*
X159396694Y-130099493D01*
X159338073Y-130133223D01*
X159285102Y-130163651D01*
X159237334Y-130191025D01*
X159194321Y-130215591D01*
X159155616Y-130237596D01*
X159120771Y-130257287D01*
X159089338Y-130274910D01*
X159060870Y-130290714D01*
X159034919Y-130304944D01*
X159011037Y-130317848D01*
X158988777Y-130329672D01*
X158967692Y-130340664D01*
X158947332Y-130351070D01*
X158927252Y-130361138D01*
X158907003Y-130371113D01*
X158886138Y-130381244D01*
X158884306Y-130382128D01*
X158816867Y-130413565D01*
X158753250Y-130440819D01*
X158692082Y-130464282D01*
X158631992Y-130484345D01*
X158571609Y-130501402D01*
X158509560Y-130515844D01*
X158444474Y-130528064D01*
X158374978Y-130538454D01*
X158310139Y-130546279D01*
X158269152Y-130550039D01*
X158223206Y-130552999D01*
X158174358Y-130555105D01*
X158124663Y-130556301D01*
X158076179Y-130556532D01*
X158030962Y-130555744D01*
X158001458Y-130554508D01*
X157921912Y-130547865D01*
X157841456Y-130536743D01*
X157761278Y-130521443D01*
X157682567Y-130502263D01*
X157606511Y-130479501D01*
X157534298Y-130453456D01*
X157467116Y-130424427D01*
X157449008Y-130415625D01*
X157368028Y-130371372D01*
X157288806Y-130320408D01*
X157211482Y-130262893D01*
X157136195Y-130198983D01*
X157063086Y-130128836D01*
X156992295Y-130052610D01*
X156923960Y-129970463D01*
X156858223Y-129882552D01*
X156795222Y-129789036D01*
X156735097Y-129690070D01*
X156677989Y-129585814D01*
X156632897Y-129495201D01*
X156614559Y-129455287D01*
X156596937Y-129413922D01*
X156579526Y-129369814D01*
X156561819Y-129321672D01*
X156543310Y-129268204D01*
X156538965Y-129255250D01*
X156531296Y-129231804D01*
X156523193Y-129206214D01*
X156515008Y-129179673D01*
X156507093Y-129153373D01*
X156499801Y-129128508D01*
X156493485Y-129106269D01*
X156488496Y-129087848D01*
X156485187Y-129074440D01*
X156484378Y-129070558D01*
X156482209Y-129058996D01*
X156277595Y-128976428D01*
X156241615Y-128961883D01*
X156207607Y-128948085D01*
X156176132Y-128935266D01*
X156147748Y-128923654D01*
X156123014Y-128913480D01*
X156102490Y-128904974D01*
X156086734Y-128898367D01*
X156076307Y-128893889D01*
X156071768Y-128891769D01*
X156071619Y-128891656D01*
X156073960Y-128889006D01*
X156081162Y-128882050D01*
X156092812Y-128871163D01*
X156108495Y-128856724D01*
X156127797Y-128839108D01*
X156150304Y-128818694D01*
X156175601Y-128795859D01*
X156203274Y-128770979D01*
X156232909Y-128744432D01*
X156258286Y-128721769D01*
X156294302Y-128689640D01*
X156325416Y-128661846D01*
X156351998Y-128638033D01*
X156374415Y-128617848D01*
X156393038Y-128600935D01*
X156408235Y-128586942D01*
X156420376Y-128575513D01*
X156429830Y-128566294D01*
X156436965Y-128558931D01*
X156442152Y-128553071D01*
X156445759Y-128548358D01*
X156448156Y-128544439D01*
X156449712Y-128540959D01*
X156450795Y-128537565D01*
X156450979Y-128536897D01*
X156457388Y-128516348D01*
X156466490Y-128491398D01*
X156477560Y-128463816D01*
X156489874Y-128435375D01*
X156502705Y-128407843D01*
X156509300Y-128394554D01*
X156541749Y-128336345D01*
X156578977Y-128280220D01*
X156621666Y-128225249D01*
X156670499Y-128170502D01*
X156683642Y-128156849D01*
X156739151Y-128103310D01*
X156796431Y-128054827D01*
X156856685Y-128010531D01*
X156921117Y-127969557D01*
X156990931Y-127931037D01*
X157011917Y-127920420D01*
X157079971Y-127888548D01*
X157147985Y-127860713D01*
X157217187Y-127836541D01*
X157288807Y-127815659D01*
X157364072Y-127797692D01*
X157444212Y-127782268D01*
X157490680Y-127774752D01*
X157510516Y-127771832D01*
X157527844Y-127769566D01*
X157544061Y-127767870D01*
X157560562Y-127766659D01*
X157578742Y-127765848D01*
X157599998Y-127765355D01*
X157625724Y-127765094D01*
X157652208Y-127764991D01*
X157689423Y-127765069D01*
X157689423Y-127765069D01*
G37*
X157689423Y-127765069D02*
X157721094Y-127765572D01*
X157748725Y-127766621D01*
X157773824Y-127768340D01*
X157797893Y-127770851D01*
X157822439Y-127774276D01*
X157848967Y-127778740D01*
X157870931Y-127782815D01*
X157929786Y-127795578D01*
X157990883Y-127811645D01*
X158051336Y-127830182D01*
X158108260Y-127850354D01*
X158119639Y-127854777D01*
X158162817Y-127871970D01*
X158205192Y-127889108D01*
X158247150Y-127906370D01*
X158289080Y-127923937D01*
X158331369Y-127941989D01*
X158374404Y-127960707D01*
X158418573Y-127980271D01*
X158464265Y-128000862D01*
X158511866Y-128022659D01*
X158561764Y-128045844D01*
X158614347Y-128070597D01*
X158670003Y-128097099D01*
X158729118Y-128125528D01*
X158792082Y-128156067D01*
X158859280Y-128188896D01*
X158931102Y-128224194D01*
X159007935Y-128262143D01*
X159090166Y-128302923D01*
X159178183Y-128346714D01*
X159200903Y-128358037D01*
X159279183Y-128396981D01*
X159351702Y-128432880D01*
X159418949Y-128465961D01*
X159481415Y-128496448D01*
X159539589Y-128524567D01*
X159593962Y-128550545D01*
X159645024Y-128574606D01*
X159693265Y-128596978D01*
X159739175Y-128617885D01*
X159783244Y-128637553D01*
X159825962Y-128656208D01*
X159867819Y-128674076D01*
X159909306Y-128691382D01*
X159950912Y-128708353D01*
X159993128Y-128725213D01*
X160026403Y-128738281D01*
X160049926Y-128747518D01*
X160071319Y-128756037D01*
X160089688Y-128763473D01*
X160104143Y-128769460D01*
X160113791Y-128773635D01*
X160117732Y-128775624D01*
X160117199Y-128779719D01*
X160111987Y-128787737D01*
X160102739Y-128798968D01*
X160090100Y-128812704D01*
X160074712Y-128828236D01*
X160057219Y-128844855D01*
X160044178Y-128856657D01*
X159976199Y-128912758D01*
X159901764Y-128966253D01*
X159820994Y-129017086D01*
X159734011Y-129065200D01*
X159640938Y-129110538D01*
X159541897Y-129153043D01*
X159437009Y-129192658D01*
X159326398Y-129229327D01*
X159210185Y-129262992D01*
X159123292Y-129285296D01*
X159022697Y-129308538D01*
X158927709Y-129327867D01*
X158838081Y-129343303D01*
X158753561Y-129354868D01*
X158673901Y-129362580D01*
X158598851Y-129366462D01*
X158528163Y-129366535D01*
X158461587Y-129362818D01*
X158398874Y-129355332D01*
X158361082Y-129348660D01*
X158300450Y-129333748D01*
X158245094Y-129314367D01*
X158195086Y-129290590D01*
X158150499Y-129262491D01*
X158111404Y-129230142D01*
X158077873Y-129193617D01*
X158049979Y-129152988D01*
X158027795Y-129108329D01*
X158011392Y-129059713D01*
X158000842Y-129007214D01*
X157997903Y-128980940D01*
X157997085Y-128969833D01*
X157996149Y-128961698D01*
X157994111Y-128955994D01*
X157989991Y-128952178D01*
X157982806Y-128949710D01*
X157971575Y-128948046D01*
X157955315Y-128946646D01*
X157933045Y-128944967D01*
X157932667Y-128944937D01*
X157905115Y-128942710D01*
X157883944Y-128940816D01*
X157868491Y-128939166D01*
X157858094Y-128937673D01*
X157852090Y-128936249D01*
X157849817Y-128934807D01*
X157849918Y-128933974D01*
X157847973Y-128932665D01*
X157841139Y-128932440D01*
X157831468Y-128933114D01*
X157821010Y-128934497D01*
X157811817Y-128936403D01*
X157807431Y-128937859D01*
X157801923Y-128939376D01*
X157790616Y-128941836D01*
X157774669Y-128945008D01*
X157755241Y-128948665D01*
X157733489Y-128952578D01*
X157728056Y-128953529D01*
X157646570Y-128967036D01*
X157569154Y-128978409D01*
X157493266Y-128987987D01*
X157416367Y-128996109D01*
X157392917Y-128998294D01*
X157370487Y-128999888D01*
X157343281Y-129001121D01*
X157312652Y-129001993D01*
X157279951Y-129002504D01*
X157246529Y-129002652D01*
X157213738Y-129002438D01*
X157182930Y-129001861D01*
X157155455Y-129000920D01*
X157132666Y-128999615D01*
X157119514Y-128998402D01*
X157046686Y-128988747D01*
X156975829Y-128976860D01*
X156905068Y-128962349D01*
X156832527Y-128944822D01*
X156756331Y-128923890D01*
X156740857Y-128919368D01*
X156718243Y-128912575D01*
X156701577Y-128907222D01*
X156689982Y-128902959D01*
X156682578Y-128899438D01*
X156678490Y-128896309D01*
X156677057Y-128893968D01*
X156676091Y-128888855D01*
X156674509Y-128877561D01*
X156672410Y-128860925D01*
X156669895Y-128839783D01*
X156667063Y-128814975D01*
X156664013Y-128787338D01*
X156660918Y-128758392D01*
X156657321Y-128724399D01*
X156654435Y-128696757D01*
X156652312Y-128674791D01*
X156651001Y-128657830D01*
X156650553Y-128645198D01*
X156651018Y-128636223D01*
X156652447Y-128630230D01*
X156654890Y-128626547D01*
X156658397Y-128624499D01*
X156663018Y-128623413D01*
X156668805Y-128622615D01*
X156671091Y-128622283D01*
X156682337Y-128620254D01*
X156699389Y-128616797D01*
X156721193Y-128612151D01*
X156746700Y-128606555D01*
X156774858Y-128600249D01*
X156804615Y-128593471D01*
X156834921Y-128586461D01*
X156864725Y-128579457D01*
X156892975Y-128572700D01*
X156918620Y-128566427D01*
X156937833Y-128561593D01*
X157040462Y-128534234D01*
X157136453Y-128506397D01*
X157226213Y-128477945D01*
X157310153Y-128448742D01*
X157388680Y-128418650D01*
X157462203Y-128387534D01*
X157474056Y-128382213D01*
X157544730Y-128347760D01*
X157616700Y-128308022D01*
X157688246Y-128264092D01*
X157757648Y-128217066D01*
X157823190Y-128168037D01*
X157867403Y-128131786D01*
X157885065Y-128116423D01*
X157903398Y-128100012D01*
X157921684Y-128083244D01*
X157939206Y-128066810D01*
X157955249Y-128051401D01*
X157969095Y-128037709D01*
X157980027Y-128026424D01*
X157987329Y-128018238D01*
X157990283Y-128013841D01*
X157990219Y-128013368D01*
X157984114Y-128010119D01*
X157972137Y-128005797D01*
X157955347Y-128000663D01*
X157934801Y-127994980D01*
X157911556Y-127989011D01*
X157886670Y-127983019D01*
X157861199Y-127977265D01*
X157836201Y-127972013D01*
X157812732Y-127967526D01*
X157791852Y-127964065D01*
X157791556Y-127964021D01*
X157736513Y-127957477D01*
X157682179Y-127954423D01*
X157627039Y-127954893D01*
X157569581Y-127958923D01*
X157508289Y-127966548D01*
X157478461Y-127971261D01*
X157385204Y-127989850D01*
X157295771Y-128013707D01*
X157210377Y-128042725D01*
X157129234Y-128076797D01*
X157052557Y-128115818D01*
X156980558Y-128159681D01*
X156913451Y-128208280D01*
X156851449Y-128261509D01*
X156807949Y-128304915D01*
X156765574Y-128353556D01*
X156727536Y-128404333D01*
X156694493Y-128456230D01*
X156667105Y-128508230D01*
X156649656Y-128549355D01*
X156644680Y-128561769D01*
X156640056Y-128571937D01*
X156636789Y-128577652D01*
X156633532Y-128580958D01*
X156625631Y-128588670D01*
X156613561Y-128600334D01*
X156597793Y-128615496D01*
X156578801Y-128633704D01*
X156557057Y-128654504D01*
X156533034Y-128677442D01*
X156507205Y-128702065D01*
X156488042Y-128720309D01*
X156461341Y-128745737D01*
X156436208Y-128769712D01*
X156413104Y-128791794D01*
X156392486Y-128811540D01*
X156374813Y-128828513D01*
X156360545Y-128842270D01*
X156350139Y-128852371D01*
X156344055Y-128858376D01*
X156342607Y-128859922D01*
X156345572Y-128861699D01*
X156354384Y-128866052D01*
X156368436Y-128872701D01*
X156387123Y-128881368D01*
X156409836Y-128891773D01*
X156435972Y-128903637D01*
X156464923Y-128916683D01*
X156496083Y-128930630D01*
X156503468Y-128933923D01*
X156665126Y-129005942D01*
X156681981Y-129066214D01*
X156690094Y-129094199D01*
X156699941Y-129126534D01*
X156710916Y-129161347D01*
X156722411Y-129196762D01*
X156733817Y-129230907D01*
X156744527Y-129261907D01*
X156753511Y-129286757D01*
X156758959Y-129300443D01*
X156763479Y-129308917D01*
X156768136Y-129313733D01*
X156773830Y-129316392D01*
X156781132Y-129317558D01*
X156794453Y-129318496D01*
X156812760Y-129319209D01*
X156835020Y-129319697D01*
X156860201Y-129319965D01*
X156887269Y-129320013D01*
X156915192Y-129319845D01*
X156942937Y-129319461D01*
X156969472Y-129318866D01*
X156993763Y-129318060D01*
X157014777Y-129317046D01*
X157031319Y-129315841D01*
X157194261Y-129298212D01*
X157294139Y-129284838D01*
X157336859Y-129278400D01*
X157373678Y-129272100D01*
X157405734Y-129265624D01*
X157434167Y-129258661D01*
X157460116Y-129250899D01*
X157484721Y-129242025D01*
X157509122Y-129231727D01*
X157534457Y-129219694D01*
X157537556Y-129218147D01*
X157593115Y-129186813D01*
X157647664Y-129149211D01*
X157700233Y-129106128D01*
X157749852Y-129058353D01*
X157790314Y-129013042D01*
X157808347Y-128991319D01*
X157810748Y-129016569D01*
X157817775Y-129063991D01*
X157829681Y-129113168D01*
X157845802Y-129162224D01*
X157865477Y-129209282D01*
X157888042Y-129252463D01*
X157901719Y-129274289D01*
X157939340Y-129324006D01*
X157982141Y-129369003D01*
X158030037Y-129409251D01*
X158082937Y-129444723D01*
X158140757Y-129475389D01*
X158203406Y-129501223D01*
X158270799Y-129522197D01*
X158342848Y-129538282D01*
X158419465Y-129549451D01*
X158500562Y-129555676D01*
X158586053Y-129556929D01*
X158675848Y-129553182D01*
X158754639Y-129546139D01*
X158827782Y-129536822D01*
X158905875Y-129524509D01*
X158987621Y-129509481D01*
X159071724Y-129492024D01*
X159156887Y-129472418D01*
X159241813Y-129450949D01*
X159325205Y-129427899D01*
X159401986Y-129404745D01*
X159499460Y-129372112D01*
X159593786Y-129336670D01*
X159684613Y-129298629D01*
X159771592Y-129258203D01*
X159854372Y-129215600D01*
X159932604Y-129171034D01*
X160005937Y-129124714D01*
X160074021Y-129076853D01*
X160136506Y-129027661D01*
X160193041Y-128977350D01*
X160243278Y-128926131D01*
X160286865Y-128874215D01*
X160291516Y-128868103D01*
X160301132Y-128855676D01*
X160307892Y-128848104D01*
X160312929Y-128844422D01*
X160317377Y-128843664D01*
X160319726Y-128844079D01*
X160339163Y-128848388D01*
X160364240Y-128853070D01*
X160393568Y-128857922D01*
X160425757Y-128862737D01*
X160459415Y-128867313D01*
X160493152Y-128871443D01*
X160525578Y-128874923D01*
X160536167Y-128875932D01*
X160567905Y-128878462D01*
X160599888Y-128880184D01*
X160632791Y-128881067D01*
X160667290Y-128881080D01*
X160704060Y-128880194D01*
X160743775Y-128878377D01*
X160787113Y-128875599D01*
X160834746Y-128871829D01*
X160887352Y-128867037D01*
X160945605Y-128861192D01*
X161007125Y-128854600D01*
X161096165Y-128844237D01*
X161191639Y-128832018D01*
X161293193Y-128818007D01*
X161400469Y-128802269D01*
X161513115Y-128784868D01*
X161630774Y-128765867D01*
X161753091Y-128745332D01*
X161879712Y-128723326D01*
X162010280Y-128699914D01*
X162144441Y-128675160D01*
X162281840Y-128649128D01*
X162422121Y-128621882D01*
X162564930Y-128593486D01*
X162709911Y-128564006D01*
X162856709Y-128533505D01*
X163004969Y-128502046D01*
X163154335Y-128469696D01*
X163241972Y-128450408D01*
X163286466Y-128440554D01*
X163324684Y-128432267D01*
X163357258Y-128425680D01*
X163384823Y-128420928D01*
X163408011Y-128418146D01*
X163427455Y-128417468D01*
X163443788Y-128419028D01*
X163457642Y-128422962D01*
X163469652Y-128429404D01*
X163480449Y-128438488D01*
X163490667Y-128450348D01*
X163500938Y-128465120D01*
X163511896Y-128482938D01*
X163524174Y-128503936D01*
X163528453Y-128511295D01*
X163565722Y-128577072D01*
X163600654Y-128642322D01*
X163632855Y-128706214D01*
X163661929Y-128767915D01*
X163687481Y-128826594D01*
X163709117Y-128881419D01*
X163722982Y-128920859D01*
X163738442Y-128973272D01*
X163749158Y-129022184D01*
X163755158Y-129067367D01*
X163756469Y-129108594D01*
X163753119Y-129145635D01*
X163745134Y-129178262D01*
X163732543Y-129206247D01*
X163715372Y-129229362D01*
X163693649Y-129247378D01*
X163683124Y-129253395D01*
X163672991Y-129258154D01*
X163661941Y-129262524D01*
X163649615Y-129266533D01*
X163635657Y-129270209D01*
X163619709Y-129273581D01*
X163601413Y-129276677D01*
X163580414Y-129279524D01*
X163556352Y-129282152D01*
X163528872Y-129284587D01*
X163497615Y-129286859D01*
X163462225Y-129288995D01*
X163422343Y-129291023D01*
X163377613Y-129292973D01*
X163327677Y-129294871D01*
X163272178Y-129296746D01*
X163210759Y-129298626D01*
X163143062Y-129300540D01*
X163068731Y-129302515D01*
X163055000Y-129302869D01*
X162932923Y-129306207D01*
X162817344Y-129309786D01*
X162707707Y-129313639D01*
X162603456Y-129317794D01*
X162504037Y-129322284D01*
X162408895Y-129327138D01*
X162317474Y-129332388D01*
X162229219Y-129338064D01*
X162143574Y-129344196D01*
X162059985Y-129350816D01*
X161977897Y-129357954D01*
X161896754Y-129365640D01*
X161869667Y-129368345D01*
X161740967Y-129382177D01*
X161616502Y-129397273D01*
X161495523Y-129413805D01*
X161377281Y-129431941D01*
X161261028Y-129451851D01*
X161146016Y-129473705D01*
X161031496Y-129497671D01*
X160916721Y-129523920D01*
X160800941Y-129552620D01*
X160683408Y-129583942D01*
X160563373Y-129618054D01*
X160440090Y-129655127D01*
X160312808Y-129695329D01*
X160180780Y-129738830D01*
X160075792Y-129774551D01*
X160025932Y-129792059D01*
X159978400Y-129809485D01*
X159932527Y-129827150D01*
X159887643Y-129845374D01*
X159843080Y-129864476D01*
X159798167Y-129884779D01*
X159752235Y-129906601D01*
X159704615Y-129930263D01*
X159654637Y-129956085D01*
X159601633Y-129984388D01*
X159544932Y-130015492D01*
X159483865Y-130049717D01*
X159417763Y-130087384D01*
X159396694Y-130099493D01*
X159338073Y-130133223D01*
X159285102Y-130163651D01*
X159237334Y-130191025D01*
X159194321Y-130215591D01*
X159155616Y-130237596D01*
X159120771Y-130257287D01*
X159089338Y-130274910D01*
X159060870Y-130290714D01*
X159034919Y-130304944D01*
X159011037Y-130317848D01*
X158988777Y-130329672D01*
X158967692Y-130340664D01*
X158947332Y-130351070D01*
X158927252Y-130361138D01*
X158907003Y-130371113D01*
X158886138Y-130381244D01*
X158884306Y-130382128D01*
X158816867Y-130413565D01*
X158753250Y-130440819D01*
X158692082Y-130464282D01*
X158631992Y-130484345D01*
X158571609Y-130501402D01*
X158509560Y-130515844D01*
X158444474Y-130528064D01*
X158374978Y-130538454D01*
X158310139Y-130546279D01*
X158269152Y-130550039D01*
X158223206Y-130552999D01*
X158174358Y-130555105D01*
X158124663Y-130556301D01*
X158076179Y-130556532D01*
X158030962Y-130555744D01*
X158001458Y-130554508D01*
X157921912Y-130547865D01*
X157841456Y-130536743D01*
X157761278Y-130521443D01*
X157682567Y-130502263D01*
X157606511Y-130479501D01*
X157534298Y-130453456D01*
X157467116Y-130424427D01*
X157449008Y-130415625D01*
X157368028Y-130371372D01*
X157288806Y-130320408D01*
X157211482Y-130262893D01*
X157136195Y-130198983D01*
X157063086Y-130128836D01*
X156992295Y-130052610D01*
X156923960Y-129970463D01*
X156858223Y-129882552D01*
X156795222Y-129789036D01*
X156735097Y-129690070D01*
X156677989Y-129585814D01*
X156632897Y-129495201D01*
X156614559Y-129455287D01*
X156596937Y-129413922D01*
X156579526Y-129369814D01*
X156561819Y-129321672D01*
X156543310Y-129268204D01*
X156538965Y-129255250D01*
X156531296Y-129231804D01*
X156523193Y-129206214D01*
X156515008Y-129179673D01*
X156507093Y-129153373D01*
X156499801Y-129128508D01*
X156493485Y-129106269D01*
X156488496Y-129087848D01*
X156485187Y-129074440D01*
X156484378Y-129070558D01*
X156482209Y-129058996D01*
X156277595Y-128976428D01*
X156241615Y-128961883D01*
X156207607Y-128948085D01*
X156176132Y-128935266D01*
X156147748Y-128923654D01*
X156123014Y-128913480D01*
X156102490Y-128904974D01*
X156086734Y-128898367D01*
X156076307Y-128893889D01*
X156071768Y-128891769D01*
X156071619Y-128891656D01*
X156073960Y-128889006D01*
X156081162Y-128882050D01*
X156092812Y-128871163D01*
X156108495Y-128856724D01*
X156127797Y-128839108D01*
X156150304Y-128818694D01*
X156175601Y-128795859D01*
X156203274Y-128770979D01*
X156232909Y-128744432D01*
X156258286Y-128721769D01*
X156294302Y-128689640D01*
X156325416Y-128661846D01*
X156351998Y-128638033D01*
X156374415Y-128617848D01*
X156393038Y-128600935D01*
X156408235Y-128586942D01*
X156420376Y-128575513D01*
X156429830Y-128566294D01*
X156436965Y-128558931D01*
X156442152Y-128553071D01*
X156445759Y-128548358D01*
X156448156Y-128544439D01*
X156449712Y-128540959D01*
X156450795Y-128537565D01*
X156450979Y-128536897D01*
X156457388Y-128516348D01*
X156466490Y-128491398D01*
X156477560Y-128463816D01*
X156489874Y-128435375D01*
X156502705Y-128407843D01*
X156509300Y-128394554D01*
X156541749Y-128336345D01*
X156578977Y-128280220D01*
X156621666Y-128225249D01*
X156670499Y-128170502D01*
X156683642Y-128156849D01*
X156739151Y-128103310D01*
X156796431Y-128054827D01*
X156856685Y-128010531D01*
X156921117Y-127969557D01*
X156990931Y-127931037D01*
X157011917Y-127920420D01*
X157079971Y-127888548D01*
X157147985Y-127860713D01*
X157217187Y-127836541D01*
X157288807Y-127815659D01*
X157364072Y-127797692D01*
X157444212Y-127782268D01*
X157490680Y-127774752D01*
X157510516Y-127771832D01*
X157527844Y-127769566D01*
X157544061Y-127767870D01*
X157560562Y-127766659D01*
X157578742Y-127765848D01*
X157599998Y-127765355D01*
X157625724Y-127765094D01*
X157652208Y-127764991D01*
X157689423Y-127765069D01*
G36*
X128141912Y-86289328D02*
X128179087Y-86289340D01*
X128211821Y-86289366D01*
X128240406Y-86289411D01*
X128265137Y-86289481D01*
X128286306Y-86289581D01*
X128304208Y-86289715D01*
X128319136Y-86289889D01*
X128331384Y-86290109D01*
X128341247Y-86290379D01*
X128349017Y-86290705D01*
X128354988Y-86291092D01*
X128359454Y-86291544D01*
X128362709Y-86292067D01*
X128365046Y-86292667D01*
X128366760Y-86293349D01*
X128368032Y-86294048D01*
X128374217Y-86299369D01*
X128378517Y-86305738D01*
X128378618Y-86305984D01*
X128379468Y-86309432D01*
X128381162Y-86317481D01*
X128383633Y-86329785D01*
X128386816Y-86345999D01*
X128390644Y-86365777D01*
X128395052Y-86388772D01*
X128399972Y-86414640D01*
X128405339Y-86443034D01*
X128411087Y-86473609D01*
X128417150Y-86506019D01*
X128423461Y-86539918D01*
X128426888Y-86558396D01*
X128433321Y-86593102D01*
X128439535Y-86626614D01*
X128445466Y-86658574D01*
X128451046Y-86688625D01*
X128456209Y-86716411D01*
X128460889Y-86741572D01*
X128465018Y-86763753D01*
X128468531Y-86782596D01*
X128471362Y-86797743D01*
X128473443Y-86808837D01*
X128474708Y-86815522D01*
X128475013Y-86817096D01*
X128475885Y-86821591D01*
X128476785Y-86825572D01*
X128478016Y-86829199D01*
X128479879Y-86832631D01*
X128482678Y-86836027D01*
X128486715Y-86839546D01*
X128492292Y-86843349D01*
X128499712Y-86847593D01*
X128509277Y-86852440D01*
X128521290Y-86858046D01*
X128536054Y-86864573D01*
X128553871Y-86872180D01*
X128575043Y-86881025D01*
X128599873Y-86891268D01*
X128628663Y-86903068D01*
X128661716Y-86916586D01*
X128671628Y-86920639D01*
X128706076Y-86934740D01*
X128736188Y-86947060D01*
X128762294Y-86957692D01*
X128784727Y-86966727D01*
X128803816Y-86974258D01*
X128819894Y-86980378D01*
X128833292Y-86985177D01*
X128844341Y-86988748D01*
X128853372Y-86991184D01*
X128860717Y-86992576D01*
X128866707Y-86993017D01*
X128871673Y-86992599D01*
X128875947Y-86991413D01*
X128879860Y-86989553D01*
X128883743Y-86987110D01*
X128887927Y-86984176D01*
X128891390Y-86981759D01*
X128895895Y-86978675D01*
X128904234Y-86972960D01*
X128916094Y-86964828D01*
X128931161Y-86954496D01*
X128949123Y-86942176D01*
X128969666Y-86928085D01*
X128992477Y-86912437D01*
X129017244Y-86895447D01*
X129043652Y-86877329D01*
X129071388Y-86858299D01*
X129100140Y-86838571D01*
X129111367Y-86830867D01*
X129144967Y-86807819D01*
X129174678Y-86787457D01*
X129200756Y-86769616D01*
X129223454Y-86754130D01*
X129243028Y-86740833D01*
X129259732Y-86729561D01*
X129273819Y-86720146D01*
X129285546Y-86712424D01*
X129295166Y-86706229D01*
X129302934Y-86701394D01*
X129309104Y-86697754D01*
X129313931Y-86695144D01*
X129317669Y-86693398D01*
X129320573Y-86692350D01*
X129322897Y-86691833D01*
X129324895Y-86691684D01*
X129325110Y-86691683D01*
X129336011Y-86691683D01*
X129522758Y-86878429D01*
X129552582Y-86908256D01*
X129579048Y-86934738D01*
X129602358Y-86958086D01*
X129622712Y-86978513D01*
X129640310Y-86996229D01*
X129655352Y-87011445D01*
X129668040Y-87024372D01*
X129678573Y-87035223D01*
X129687152Y-87044207D01*
X129693977Y-87051537D01*
X129699249Y-87057423D01*
X129703168Y-87062076D01*
X129705935Y-87065708D01*
X129707749Y-87068530D01*
X129708812Y-87070754D01*
X129709323Y-87072589D01*
X129709484Y-87074249D01*
X129709495Y-87075217D01*
X129708249Y-87084021D01*
X129705215Y-87092217D01*
X129704773Y-87092985D01*
X129702686Y-87096153D01*
X129697958Y-87103162D01*
X129690798Y-87113709D01*
X129681414Y-87127491D01*
X129670012Y-87144203D01*
X129656801Y-87163542D01*
X129641987Y-87185204D01*
X129625780Y-87208884D01*
X129608385Y-87234279D01*
X129590012Y-87261086D01*
X129570866Y-87288999D01*
X129568179Y-87292916D01*
X129548759Y-87321219D01*
X129529948Y-87348639D01*
X129511966Y-87374850D01*
X129495037Y-87399529D01*
X129479383Y-87422353D01*
X129465226Y-87442997D01*
X129452787Y-87461137D01*
X129442289Y-87476450D01*
X129433954Y-87488611D01*
X129428005Y-87497297D01*
X129424663Y-87502184D01*
X129424525Y-87502386D01*
X129421271Y-87507029D01*
X129418436Y-87511113D01*
X129416117Y-87514966D01*
X129414410Y-87518916D01*
X129413412Y-87523290D01*
X129413218Y-87528418D01*
X129413927Y-87534628D01*
X129415635Y-87542247D01*
X129418437Y-87551604D01*
X129422431Y-87563027D01*
X129427713Y-87576845D01*
X129434381Y-87593385D01*
X129442529Y-87612975D01*
X129452256Y-87635945D01*
X129463657Y-87662621D01*
X129476830Y-87693333D01*
X129489234Y-87722256D01*
X129501459Y-87750761D01*
X129513181Y-87778056D01*
X129524240Y-87803768D01*
X129534475Y-87827524D01*
X129543723Y-87848952D01*
X129551825Y-87867678D01*
X129558620Y-87883330D01*
X129563945Y-87895536D01*
X129567640Y-87903921D01*
X129569544Y-87908114D01*
X129569671Y-87908370D01*
X129574634Y-87915307D01*
X129581041Y-87921298D01*
X129581084Y-87921329D01*
X129582257Y-87922180D01*
X129583418Y-87922962D01*
X129584835Y-87923728D01*
X129586774Y-87924531D01*
X129589505Y-87925425D01*
X129593294Y-87926463D01*
X129598410Y-87927699D01*
X129605119Y-87929185D01*
X129613691Y-87930974D01*
X129624392Y-87933121D01*
X129637490Y-87935678D01*
X129653253Y-87938699D01*
X129671948Y-87942236D01*
X129693845Y-87946344D01*
X129719209Y-87951075D01*
X129748308Y-87956483D01*
X129781412Y-87962621D01*
X129818786Y-87969543D01*
X129860700Y-87977300D01*
X129884287Y-87981666D01*
X129914902Y-87987339D01*
X129944300Y-87992800D01*
X129972076Y-87997972D01*
X129997820Y-88002779D01*
X130021124Y-88007143D01*
X130041580Y-88010989D01*
X130058782Y-88014240D01*
X130072319Y-88016819D01*
X130081786Y-88018650D01*
X130086773Y-88019656D01*
X130087099Y-88019729D01*
X130095862Y-88022846D01*
X130103200Y-88027326D01*
X130104703Y-88028716D01*
X130110623Y-88035018D01*
X130111262Y-88298246D01*
X130111362Y-88340381D01*
X130111443Y-88377778D01*
X130111500Y-88410730D01*
X130111528Y-88439530D01*
X130111523Y-88464469D01*
X130111481Y-88485841D01*
X130111396Y-88503938D01*
X130111265Y-88519052D01*
X130111083Y-88531475D01*
X130110845Y-88541500D01*
X130110546Y-88549419D01*
X130110183Y-88555525D01*
X130109751Y-88560110D01*
X130109245Y-88563466D01*
X130108660Y-88565886D01*
X130107993Y-88567663D01*
X130107238Y-88569088D01*
X130107056Y-88569389D01*
X130100775Y-88576182D01*
X130093843Y-88580019D01*
X130089972Y-88580937D01*
X130081590Y-88582681D01*
X130069132Y-88585167D01*
X130053035Y-88588312D01*
X130033733Y-88592032D01*
X130011662Y-88596243D01*
X129987258Y-88600861D01*
X129960957Y-88605803D01*
X129933193Y-88610984D01*
X129922010Y-88613062D01*
X129876078Y-88621585D01*
X129834833Y-88629241D01*
X129798017Y-88636081D01*
X129765370Y-88642152D01*
X129736635Y-88647503D01*
X129711553Y-88652184D01*
X129689865Y-88656244D01*
X129671313Y-88659731D01*
X129655637Y-88662695D01*
X129642580Y-88665184D01*
X129631883Y-88667248D01*
X129623287Y-88668935D01*
X129616533Y-88670294D01*
X129611364Y-88671375D01*
X129607520Y-88672226D01*
X129604743Y-88672896D01*
X129602774Y-88673435D01*
X129602077Y-88673649D01*
X129594794Y-88677446D01*
X129588208Y-88683110D01*
X129587927Y-88683437D01*
X129586055Y-88686873D01*
X129582476Y-88694645D01*
X129577329Y-88706416D01*
X129570757Y-88721844D01*
X129562901Y-88740589D01*
X129553901Y-88762313D01*
X129543899Y-88786674D01*
X129533037Y-88813333D01*
X129521454Y-88841951D01*
X129509294Y-88872186D01*
X129503193Y-88887423D01*
X129489259Y-88922282D01*
X129477081Y-88952781D01*
X129466543Y-88979233D01*
X129457533Y-89001948D01*
X129449936Y-89021239D01*
X129443639Y-89037415D01*
X129438527Y-89050787D01*
X129434487Y-89061668D01*
X129431406Y-89070367D01*
X129429168Y-89077196D01*
X129427661Y-89082467D01*
X129426770Y-89086489D01*
X129426381Y-89089575D01*
X129426382Y-89092035D01*
X129426657Y-89094180D01*
X129426961Y-89095703D01*
X129427914Y-89098459D01*
X129429976Y-89102672D01*
X129433294Y-89108563D01*
X129438016Y-89116354D01*
X129444288Y-89126268D01*
X129452257Y-89138525D01*
X129462070Y-89153349D01*
X129473875Y-89170961D01*
X129487818Y-89191583D01*
X129504045Y-89215436D01*
X129522705Y-89242743D01*
X129543943Y-89273726D01*
X129567907Y-89308606D01*
X129568620Y-89309643D01*
X129588339Y-89338371D01*
X129607248Y-89366022D01*
X129625151Y-89392303D01*
X129641851Y-89416922D01*
X129657151Y-89439585D01*
X129670857Y-89460000D01*
X129682771Y-89477874D01*
X129692698Y-89492914D01*
X129700441Y-89504828D01*
X129705804Y-89513324D01*
X129708590Y-89518107D01*
X129708951Y-89518972D01*
X129709189Y-89526912D01*
X129708379Y-89532804D01*
X129706445Y-89535722D01*
X129701277Y-89541774D01*
X129692837Y-89551002D01*
X129681086Y-89563444D01*
X129665985Y-89579142D01*
X129647494Y-89598136D01*
X129625575Y-89620466D01*
X129600189Y-89646172D01*
X129571296Y-89675294D01*
X129538858Y-89707873D01*
X129525143Y-89721619D01*
X129499929Y-89746847D01*
X129475621Y-89771107D01*
X129452468Y-89794157D01*
X129430714Y-89815753D01*
X129410608Y-89835654D01*
X129392395Y-89853615D01*
X129376321Y-89869396D01*
X129362634Y-89882752D01*
X129351579Y-89893442D01*
X129343404Y-89901223D01*
X129338354Y-89905851D01*
X129336803Y-89907089D01*
X129326833Y-89910352D01*
X129316612Y-89909312D01*
X129305289Y-89903848D01*
X129303010Y-89902346D01*
X129299136Y-89899695D01*
X129291436Y-89894419D01*
X129280229Y-89886737D01*
X129265836Y-89876870D01*
X129248578Y-89865037D01*
X129228776Y-89851458D01*
X129206749Y-89836352D01*
X129182818Y-89819940D01*
X129157305Y-89802442D01*
X129130529Y-89784077D01*
X129105940Y-89767211D01*
X129078417Y-89748348D01*
X129051938Y-89730232D01*
X129026816Y-89713074D01*
X129003363Y-89697087D01*
X128981892Y-89682482D01*
X128962716Y-89669473D01*
X128946147Y-89658271D01*
X128932498Y-89649088D01*
X128922082Y-89642136D01*
X128915212Y-89637629D01*
X128912297Y-89635825D01*
X128900483Y-89632294D01*
X128894107Y-89632398D01*
X128889402Y-89633917D01*
X128880635Y-89637726D01*
X128868135Y-89643662D01*
X128852231Y-89651562D01*
X128833253Y-89661264D01*
X128811529Y-89672606D01*
X128794559Y-89681596D01*
X128770834Y-89694199D01*
X128751102Y-89704565D01*
X128734942Y-89712860D01*
X128721927Y-89719252D01*
X128711636Y-89723908D01*
X128703644Y-89726995D01*
X128697526Y-89728680D01*
X128692861Y-89729131D01*
X128689223Y-89728513D01*
X128686189Y-89726994D01*
X128683889Y-89725222D01*
X128682309Y-89722374D01*
X128678885Y-89715011D01*
X128673675Y-89703274D01*
X128666737Y-89687305D01*
X128658133Y-89667245D01*
X128647920Y-89643234D01*
X128636159Y-89615413D01*
X128622908Y-89583924D01*
X128608227Y-89548906D01*
X128592175Y-89510501D01*
X128574812Y-89468850D01*
X128556196Y-89424094D01*
X128536388Y-89376374D01*
X128515446Y-89325830D01*
X128498588Y-89285080D01*
X128476707Y-89232154D01*
X128456672Y-89183674D01*
X128438403Y-89139444D01*
X128421821Y-89099263D01*
X128406845Y-89062932D01*
X128393396Y-89030253D01*
X128381395Y-89001026D01*
X128370763Y-88975052D01*
X128361419Y-88952131D01*
X128353285Y-88932066D01*
X128346280Y-88914657D01*
X128340325Y-88899704D01*
X128335342Y-88887009D01*
X128331249Y-88876373D01*
X128327968Y-88867595D01*
X128325419Y-88860478D01*
X128323522Y-88854823D01*
X128322199Y-88850429D01*
X128321369Y-88847099D01*
X128320953Y-88844632D01*
X128320871Y-88842830D01*
X128321045Y-88841494D01*
X128321199Y-88840950D01*
X128323599Y-88835298D01*
X128327242Y-88830243D01*
X128332912Y-88825085D01*
X128341395Y-88819125D01*
X128353475Y-88811663D01*
X128355257Y-88810602D01*
X128367135Y-88803219D01*
X128380052Y-88794680D01*
X128391491Y-88786656D01*
X128392980Y-88785558D01*
X128402649Y-88778368D01*
X128414572Y-88769506D01*
X128426963Y-88760299D01*
X128434475Y-88754719D01*
X128475725Y-88720988D01*
X128513516Y-88683697D01*
X128547598Y-88643121D01*
X128577724Y-88599533D01*
X128583524Y-88590024D01*
X128606301Y-88547314D01*
X128625628Y-88501638D01*
X128641173Y-88453973D01*
X128652607Y-88405300D01*
X128658232Y-88369155D01*
X128659830Y-88350627D01*
X128660694Y-88328600D01*
X128660850Y-88304549D01*
X128660321Y-88279948D01*
X128659129Y-88256271D01*
X128657300Y-88234991D01*
X128655914Y-88224045D01*
X128645747Y-88171737D01*
X128630996Y-88121214D01*
X128611839Y-88072723D01*
X128588456Y-88026508D01*
X128561024Y-87982817D01*
X128529724Y-87941897D01*
X128494732Y-87903992D01*
X128456229Y-87869350D01*
X128414393Y-87838217D01*
X128369403Y-87810840D01*
X128347977Y-87799712D01*
X128300646Y-87778956D01*
X128252462Y-87762984D01*
X128203044Y-87751707D01*
X128152010Y-87745039D01*
X128100000Y-87742891D01*
X128054843Y-87744365D01*
X128012475Y-87748928D01*
X127971562Y-87756788D01*
X127930769Y-87768152D01*
X127923960Y-87770378D01*
X127874705Y-87789370D01*
X127827852Y-87812596D01*
X127783643Y-87839815D01*
X127742319Y-87870788D01*
X127704122Y-87905275D01*
X127669295Y-87943036D01*
X127638078Y-87983832D01*
X127610714Y-88027422D01*
X127587445Y-88073567D01*
X127568512Y-88122026D01*
X127568074Y-88123329D01*
X127556907Y-88160050D01*
X127548666Y-88195126D01*
X127543102Y-88230130D01*
X127539965Y-88266637D01*
X127539004Y-88306084D01*
X127539990Y-88343824D01*
X127543057Y-88378572D01*
X127548476Y-88412030D01*
X127556521Y-88445900D01*
X127566756Y-88479742D01*
X127585700Y-88529412D01*
X127608995Y-88576635D01*
X127636490Y-88621205D01*
X127668038Y-88662917D01*
X127703490Y-88701564D01*
X127742697Y-88736943D01*
X127765524Y-88754723D01*
X127776681Y-88762991D01*
X127787963Y-88771394D01*
X127797838Y-88778788D01*
X127803247Y-88782869D01*
X127811470Y-88788763D01*
X127822332Y-88796081D01*
X127834134Y-88803693D01*
X127840970Y-88807937D01*
X127854169Y-88816145D01*
X127863686Y-88822542D01*
X127870241Y-88827755D01*
X127874550Y-88832410D01*
X127877333Y-88837134D01*
X127878805Y-88840963D01*
X127879075Y-88842144D01*
X127879131Y-88843689D01*
X127878892Y-88845799D01*
X127878280Y-88848672D01*
X127877214Y-88852506D01*
X127875615Y-88857503D01*
X127873404Y-88863860D01*
X127870501Y-88871776D01*
X127866826Y-88881451D01*
X127862300Y-88893084D01*
X127856844Y-88906874D01*
X127850377Y-88923020D01*
X127842821Y-88941722D01*
X127834096Y-88963177D01*
X127824121Y-88987586D01*
X127812819Y-89015148D01*
X127800108Y-89046061D01*
X127785911Y-89080526D01*
X127770146Y-89118740D01*
X127752735Y-89160903D01*
X127733598Y-89207214D01*
X127712655Y-89257873D01*
X127701400Y-89285093D01*
X127679840Y-89337188D01*
X127659326Y-89386673D01*
X127639918Y-89433400D01*
X127621680Y-89477222D01*
X127604674Y-89517990D01*
X127588960Y-89555558D01*
X127574603Y-89589776D01*
X127561664Y-89620499D01*
X127550205Y-89647577D01*
X127540288Y-89670864D01*
X127531976Y-89690211D01*
X127525331Y-89705471D01*
X127520415Y-89716495D01*
X127517290Y-89723138D01*
X127516094Y-89725222D01*
X127509755Y-89728499D01*
X127503425Y-89729623D01*
X127498868Y-89728370D01*
X127490014Y-89724631D01*
X127476924Y-89718434D01*
X127459655Y-89709809D01*
X127438269Y-89698785D01*
X127412823Y-89685390D01*
X127406253Y-89681898D01*
X127386434Y-89671410D01*
X127367737Y-89661640D01*
X127350684Y-89652852D01*
X127335798Y-89645310D01*
X127323603Y-89639279D01*
X127314622Y-89635022D01*
X127309377Y-89632804D01*
X127308575Y-89632569D01*
X127300146Y-89632265D01*
X127292779Y-89633666D01*
X127289584Y-89635468D01*
X127282560Y-89639915D01*
X127272019Y-89646797D01*
X127258271Y-89655905D01*
X127241630Y-89667028D01*
X127222407Y-89679958D01*
X127200914Y-89694484D01*
X127177463Y-89710396D01*
X127152365Y-89727486D01*
X127125933Y-89745542D01*
X127102155Y-89761834D01*
X127074535Y-89780782D01*
X127047794Y-89799127D01*
X127022265Y-89816639D01*
X126998281Y-89833089D01*
X126976177Y-89848249D01*
X126956285Y-89861890D01*
X126938940Y-89873784D01*
X126924475Y-89883700D01*
X126913223Y-89891411D01*
X126905520Y-89896688D01*
X126902143Y-89898997D01*
X126890080Y-89906348D01*
X126880284Y-89910042D01*
X126871756Y-89910249D01*
X126863499Y-89907140D01*
X126861435Y-89905912D01*
X126858636Y-89903496D01*
X126852539Y-89897759D01*
X126843394Y-89888946D01*
X126831448Y-89877303D01*
X126816951Y-89863076D01*
X126800151Y-89846510D01*
X126781297Y-89827851D01*
X126760638Y-89807345D01*
X126738423Y-89785237D01*
X126714900Y-89761772D01*
X126690318Y-89737196D01*
X126673599Y-89720451D01*
X126639864Y-89686593D01*
X126609690Y-89656208D01*
X126583039Y-89629257D01*
X126559874Y-89605702D01*
X126540155Y-89585503D01*
X126523845Y-89568619D01*
X126510905Y-89555013D01*
X126501297Y-89544645D01*
X126494984Y-89537474D01*
X126491926Y-89533463D01*
X126491620Y-89532804D01*
X126490720Y-89524838D01*
X126491035Y-89518972D01*
X126492592Y-89515961D01*
X126496814Y-89509106D01*
X126503504Y-89498700D01*
X126512468Y-89485035D01*
X126523508Y-89468405D01*
X126536428Y-89449102D01*
X126551032Y-89427418D01*
X126567124Y-89403647D01*
X126584507Y-89378081D01*
X126602986Y-89351013D01*
X126622364Y-89322735D01*
X126631360Y-89309643D01*
X126655411Y-89274639D01*
X126676733Y-89243539D01*
X126695470Y-89216121D01*
X126711771Y-89192165D01*
X126725781Y-89171447D01*
X126737648Y-89153747D01*
X126747518Y-89138844D01*
X126755539Y-89126515D01*
X126761856Y-89116539D01*
X126766616Y-89108694D01*
X126769967Y-89102759D01*
X126772054Y-89098513D01*
X126773025Y-89095733D01*
X126773032Y-89095703D01*
X126773436Y-89093591D01*
X126773648Y-89091390D01*
X126773553Y-89088789D01*
X126773037Y-89085475D01*
X126771987Y-89081139D01*
X126770289Y-89075468D01*
X126767829Y-89068151D01*
X126764492Y-89058877D01*
X126760166Y-89047335D01*
X126754736Y-89033213D01*
X126748087Y-89016201D01*
X126740107Y-88995986D01*
X126730682Y-88972258D01*
X126719696Y-88944705D01*
X126707038Y-88913017D01*
X126696905Y-88887669D01*
X126684860Y-88857618D01*
X126673256Y-88828812D01*
X126662239Y-88801606D01*
X126651957Y-88776358D01*
X126642556Y-88753425D01*
X126634185Y-88733164D01*
X126626989Y-88715931D01*
X126621117Y-88702083D01*
X126616716Y-88691977D01*
X126613932Y-88685970D01*
X126613088Y-88684467D01*
X126606838Y-88678611D01*
X126600097Y-88674588D01*
X126596559Y-88673678D01*
X126588425Y-88671925D01*
X126576048Y-88669397D01*
X126559779Y-88666162D01*
X126539970Y-88662289D01*
X126516973Y-88657844D01*
X126491139Y-88652896D01*
X126462820Y-88647512D01*
X126432367Y-88641761D01*
X126400133Y-88635710D01*
X126366468Y-88629427D01*
X126353435Y-88627004D01*
X126319307Y-88620655D01*
X126286465Y-88614523D01*
X126255261Y-88608675D01*
X126226049Y-88603179D01*
X126199181Y-88598101D01*
X126175011Y-88593509D01*
X126153890Y-88589469D01*
X126136171Y-88586049D01*
X126122208Y-88583316D01*
X126112352Y-88581337D01*
X126106958Y-88580179D01*
X126106157Y-88579970D01*
X126098245Y-88575394D01*
X126092943Y-88569389D01*
X126092168Y-88568002D01*
X126091481Y-88566330D01*
X126090879Y-88564080D01*
X126090355Y-88560959D01*
X126089907Y-88556675D01*
X126089529Y-88550936D01*
X126089216Y-88543449D01*
X126088965Y-88533921D01*
X126088771Y-88522061D01*
X126088628Y-88507577D01*
X126088534Y-88490175D01*
X126088482Y-88469563D01*
X126088470Y-88445449D01*
X126088491Y-88417540D01*
X126088541Y-88385545D01*
X126088617Y-88349170D01*
X126088713Y-88308123D01*
X126088737Y-88298246D01*
X126089376Y-88035018D01*
X126095371Y-88028637D01*
X126096249Y-88027558D01*
X126096863Y-88026630D01*
X126097492Y-88025794D01*
X126098412Y-88024993D01*
X126099901Y-88024170D01*
X126102235Y-88023267D01*
X126105692Y-88022228D01*
X126110550Y-88020993D01*
X126117085Y-88019507D01*
X126125575Y-88017712D01*
X126136297Y-88015550D01*
X126149528Y-88012964D01*
X126165546Y-88009897D01*
X126184627Y-88006290D01*
X126207049Y-88002087D01*
X126233089Y-87997231D01*
X126263025Y-87991663D01*
X126297133Y-87985327D01*
X126335691Y-87978165D01*
X126369033Y-87971969D01*
X126409894Y-87964373D01*
X126446104Y-87957633D01*
X126477952Y-87951678D01*
X126505730Y-87946438D01*
X126529729Y-87941841D01*
X126550240Y-87937816D01*
X126567555Y-87934294D01*
X126581964Y-87931202D01*
X126593759Y-87928470D01*
X126603232Y-87926027D01*
X126610672Y-87923802D01*
X126616372Y-87921724D01*
X126620622Y-87919723D01*
X126623714Y-87917728D01*
X126625938Y-87915667D01*
X126627587Y-87913470D01*
X126628951Y-87911066D01*
X126630321Y-87908384D01*
X126630328Y-87908370D01*
X126631932Y-87904878D01*
X126635354Y-87897134D01*
X126640431Y-87885510D01*
X126647002Y-87870381D01*
X126654907Y-87852119D01*
X126663985Y-87831096D01*
X126674073Y-87807685D01*
X126685012Y-87782259D01*
X126696640Y-87755190D01*
X126708795Y-87726853D01*
X126710765Y-87722256D01*
X126725488Y-87687931D01*
X126738358Y-87657914D01*
X126749474Y-87631878D01*
X126758931Y-87609494D01*
X126766826Y-87590435D01*
X126773256Y-87574371D01*
X126778317Y-87560975D01*
X126782107Y-87549918D01*
X126784721Y-87540873D01*
X126786256Y-87533511D01*
X126786809Y-87527503D01*
X126786477Y-87522522D01*
X126785356Y-87518240D01*
X126783543Y-87514328D01*
X126781134Y-87510457D01*
X126778226Y-87506301D01*
X126775494Y-87502386D01*
X126772369Y-87497811D01*
X126766618Y-87489410D01*
X126758463Y-87477505D01*
X126748122Y-87462415D01*
X126735816Y-87444463D01*
X126721766Y-87423969D01*
X126706191Y-87401255D01*
X126689312Y-87376642D01*
X126671348Y-87350451D01*
X126652521Y-87323003D01*
X126633050Y-87294620D01*
X126630030Y-87290217D01*
X126610707Y-87262039D01*
X126592160Y-87234966D01*
X126574592Y-87209298D01*
X126558206Y-87185329D01*
X126543202Y-87163359D01*
X126529785Y-87143683D01*
X126518157Y-87126599D01*
X126508520Y-87112404D01*
X126501077Y-87101394D01*
X126496030Y-87093867D01*
X126493582Y-87090120D01*
X126493407Y-87089823D01*
X126491443Y-87083596D01*
X126490507Y-87075669D01*
X126490495Y-87074753D01*
X126490576Y-87073141D01*
X126490955Y-87071404D01*
X126491831Y-87069332D01*
X126493405Y-87066714D01*
X126495877Y-87063339D01*
X126499448Y-87058996D01*
X126504318Y-87053476D01*
X126510686Y-87046567D01*
X126518754Y-87038059D01*
X126528723Y-87027740D01*
X126540791Y-87015402D01*
X126555160Y-87000832D01*
X126572031Y-86983820D01*
X126591602Y-86964155D01*
X126614076Y-86941628D01*
X126639652Y-86916027D01*
X126668530Y-86887141D01*
X126677241Y-86878429D01*
X126863988Y-86691683D01*
X126874972Y-86691683D01*
X126876369Y-86691594D01*
X126877491Y-86691417D01*
X126878543Y-86691286D01*
X126879727Y-86691335D01*
X126881247Y-86691700D01*
X126883305Y-86692514D01*
X126886105Y-86693912D01*
X126889851Y-86696028D01*
X126894744Y-86698997D01*
X126900989Y-86702953D01*
X126908789Y-86708030D01*
X126918346Y-86714364D01*
X126929864Y-86722087D01*
X126943546Y-86731336D01*
X126959595Y-86742243D01*
X126978215Y-86754944D01*
X126999608Y-86769574D01*
X127023978Y-86786265D01*
X127051528Y-86805153D01*
X127082460Y-86826373D01*
X127116979Y-86850058D01*
X127155287Y-86876344D01*
X127188033Y-86898809D01*
X127215331Y-86917530D01*
X127238804Y-86933605D01*
X127258772Y-86947235D01*
X127275556Y-86958622D01*
X127289475Y-86967967D01*
X127300851Y-86975472D01*
X127310003Y-86981339D01*
X127317253Y-86985769D01*
X127322919Y-86988963D01*
X127327323Y-86991124D01*
X127330786Y-86992454D01*
X127333627Y-86993152D01*
X127336166Y-86993422D01*
X127338451Y-86993465D01*
X127341406Y-86993229D01*
X127345398Y-86992441D01*
X127350742Y-86990979D01*
X127357755Y-86988723D01*
X127366754Y-86985553D01*
X127378054Y-86981347D01*
X127391972Y-86975985D01*
X127408824Y-86969345D01*
X127428927Y-86961308D01*
X127452596Y-86951752D01*
X127480148Y-86940556D01*
X127511900Y-86927600D01*
X127526141Y-86921777D01*
X127554446Y-86910172D01*
X127581495Y-86899031D01*
X127606912Y-86888511D01*
X127630319Y-86878772D01*
X127651341Y-86869970D01*
X127669601Y-86862266D01*
X127684722Y-86855816D01*
X127696327Y-86850779D01*
X127704041Y-86847313D01*
X127707486Y-86845577D01*
X127707527Y-86845547D01*
X127709785Y-86843863D01*
X127711830Y-86842155D01*
X127713729Y-86840136D01*
X127715547Y-86837517D01*
X127717351Y-86834014D01*
X127719207Y-86829338D01*
X127721181Y-86823203D01*
X127723339Y-86815322D01*
X127725747Y-86805407D01*
X127728471Y-86793173D01*
X127731577Y-86778331D01*
X127735131Y-86760596D01*
X127739200Y-86739680D01*
X127743849Y-86715296D01*
X127749144Y-86687158D01*
X127755152Y-86654977D01*
X127761939Y-86618468D01*
X127769570Y-86577344D01*
X127770771Y-86570869D01*
X127777357Y-86535447D01*
X127783728Y-86501329D01*
X127789819Y-86468850D01*
X127795567Y-86438348D01*
X127800907Y-86410159D01*
X127805774Y-86384620D01*
X127810105Y-86362068D01*
X127813834Y-86342838D01*
X127816898Y-86327269D01*
X127819233Y-86315695D01*
X127820773Y-86308455D01*
X127821400Y-86305984D01*
X127825549Y-86299638D01*
X127831701Y-86294214D01*
X127831968Y-86294048D01*
X127833368Y-86293288D01*
X127835123Y-86292614D01*
X127837526Y-86292020D01*
X127840872Y-86291503D01*
X127845454Y-86291056D01*
X127851565Y-86290675D01*
X127859501Y-86290354D01*
X127869553Y-86290089D01*
X127882017Y-86289873D01*
X127897185Y-86289702D01*
X127915351Y-86289571D01*
X127936810Y-86289474D01*
X127961855Y-86289406D01*
X127990779Y-86289363D01*
X128023876Y-86289338D01*
X128061441Y-86289328D01*
X128100000Y-86289325D01*
X128141912Y-86289328D01*
X128141912Y-86289328D01*
G37*
X128141912Y-86289328D02*
X128179087Y-86289340D01*
X128211821Y-86289366D01*
X128240406Y-86289411D01*
X128265137Y-86289481D01*
X128286306Y-86289581D01*
X128304208Y-86289715D01*
X128319136Y-86289889D01*
X128331384Y-86290109D01*
X128341247Y-86290379D01*
X128349017Y-86290705D01*
X128354988Y-86291092D01*
X128359454Y-86291544D01*
X128362709Y-86292067D01*
X128365046Y-86292667D01*
X128366760Y-86293349D01*
X128368032Y-86294048D01*
X128374217Y-86299369D01*
X128378517Y-86305738D01*
X128378618Y-86305984D01*
X128379468Y-86309432D01*
X128381162Y-86317481D01*
X128383633Y-86329785D01*
X128386816Y-86345999D01*
X128390644Y-86365777D01*
X128395052Y-86388772D01*
X128399972Y-86414640D01*
X128405339Y-86443034D01*
X128411087Y-86473609D01*
X128417150Y-86506019D01*
X128423461Y-86539918D01*
X128426888Y-86558396D01*
X128433321Y-86593102D01*
X128439535Y-86626614D01*
X128445466Y-86658574D01*
X128451046Y-86688625D01*
X128456209Y-86716411D01*
X128460889Y-86741572D01*
X128465018Y-86763753D01*
X128468531Y-86782596D01*
X128471362Y-86797743D01*
X128473443Y-86808837D01*
X128474708Y-86815522D01*
X128475013Y-86817096D01*
X128475885Y-86821591D01*
X128476785Y-86825572D01*
X128478016Y-86829199D01*
X128479879Y-86832631D01*
X128482678Y-86836027D01*
X128486715Y-86839546D01*
X128492292Y-86843349D01*
X128499712Y-86847593D01*
X128509277Y-86852440D01*
X128521290Y-86858046D01*
X128536054Y-86864573D01*
X128553871Y-86872180D01*
X128575043Y-86881025D01*
X128599873Y-86891268D01*
X128628663Y-86903068D01*
X128661716Y-86916586D01*
X128671628Y-86920639D01*
X128706076Y-86934740D01*
X128736188Y-86947060D01*
X128762294Y-86957692D01*
X128784727Y-86966727D01*
X128803816Y-86974258D01*
X128819894Y-86980378D01*
X128833292Y-86985177D01*
X128844341Y-86988748D01*
X128853372Y-86991184D01*
X128860717Y-86992576D01*
X128866707Y-86993017D01*
X128871673Y-86992599D01*
X128875947Y-86991413D01*
X128879860Y-86989553D01*
X128883743Y-86987110D01*
X128887927Y-86984176D01*
X128891390Y-86981759D01*
X128895895Y-86978675D01*
X128904234Y-86972960D01*
X128916094Y-86964828D01*
X128931161Y-86954496D01*
X128949123Y-86942176D01*
X128969666Y-86928085D01*
X128992477Y-86912437D01*
X129017244Y-86895447D01*
X129043652Y-86877329D01*
X129071388Y-86858299D01*
X129100140Y-86838571D01*
X129111367Y-86830867D01*
X129144967Y-86807819D01*
X129174678Y-86787457D01*
X129200756Y-86769616D01*
X129223454Y-86754130D01*
X129243028Y-86740833D01*
X129259732Y-86729561D01*
X129273819Y-86720146D01*
X129285546Y-86712424D01*
X129295166Y-86706229D01*
X129302934Y-86701394D01*
X129309104Y-86697754D01*
X129313931Y-86695144D01*
X129317669Y-86693398D01*
X129320573Y-86692350D01*
X129322897Y-86691833D01*
X129324895Y-86691684D01*
X129325110Y-86691683D01*
X129336011Y-86691683D01*
X129522758Y-86878429D01*
X129552582Y-86908256D01*
X129579048Y-86934738D01*
X129602358Y-86958086D01*
X129622712Y-86978513D01*
X129640310Y-86996229D01*
X129655352Y-87011445D01*
X129668040Y-87024372D01*
X129678573Y-87035223D01*
X129687152Y-87044207D01*
X129693977Y-87051537D01*
X129699249Y-87057423D01*
X129703168Y-87062076D01*
X129705935Y-87065708D01*
X129707749Y-87068530D01*
X129708812Y-87070754D01*
X129709323Y-87072589D01*
X129709484Y-87074249D01*
X129709495Y-87075217D01*
X129708249Y-87084021D01*
X129705215Y-87092217D01*
X129704773Y-87092985D01*
X129702686Y-87096153D01*
X129697958Y-87103162D01*
X129690798Y-87113709D01*
X129681414Y-87127491D01*
X129670012Y-87144203D01*
X129656801Y-87163542D01*
X129641987Y-87185204D01*
X129625780Y-87208884D01*
X129608385Y-87234279D01*
X129590012Y-87261086D01*
X129570866Y-87288999D01*
X129568179Y-87292916D01*
X129548759Y-87321219D01*
X129529948Y-87348639D01*
X129511966Y-87374850D01*
X129495037Y-87399529D01*
X129479383Y-87422353D01*
X129465226Y-87442997D01*
X129452787Y-87461137D01*
X129442289Y-87476450D01*
X129433954Y-87488611D01*
X129428005Y-87497297D01*
X129424663Y-87502184D01*
X129424525Y-87502386D01*
X129421271Y-87507029D01*
X129418436Y-87511113D01*
X129416117Y-87514966D01*
X129414410Y-87518916D01*
X129413412Y-87523290D01*
X129413218Y-87528418D01*
X129413927Y-87534628D01*
X129415635Y-87542247D01*
X129418437Y-87551604D01*
X129422431Y-87563027D01*
X129427713Y-87576845D01*
X129434381Y-87593385D01*
X129442529Y-87612975D01*
X129452256Y-87635945D01*
X129463657Y-87662621D01*
X129476830Y-87693333D01*
X129489234Y-87722256D01*
X129501459Y-87750761D01*
X129513181Y-87778056D01*
X129524240Y-87803768D01*
X129534475Y-87827524D01*
X129543723Y-87848952D01*
X129551825Y-87867678D01*
X129558620Y-87883330D01*
X129563945Y-87895536D01*
X129567640Y-87903921D01*
X129569544Y-87908114D01*
X129569671Y-87908370D01*
X129574634Y-87915307D01*
X129581041Y-87921298D01*
X129581084Y-87921329D01*
X129582257Y-87922180D01*
X129583418Y-87922962D01*
X129584835Y-87923728D01*
X129586774Y-87924531D01*
X129589505Y-87925425D01*
X129593294Y-87926463D01*
X129598410Y-87927699D01*
X129605119Y-87929185D01*
X129613691Y-87930974D01*
X129624392Y-87933121D01*
X129637490Y-87935678D01*
X129653253Y-87938699D01*
X129671948Y-87942236D01*
X129693845Y-87946344D01*
X129719209Y-87951075D01*
X129748308Y-87956483D01*
X129781412Y-87962621D01*
X129818786Y-87969543D01*
X129860700Y-87977300D01*
X129884287Y-87981666D01*
X129914902Y-87987339D01*
X129944300Y-87992800D01*
X129972076Y-87997972D01*
X129997820Y-88002779D01*
X130021124Y-88007143D01*
X130041580Y-88010989D01*
X130058782Y-88014240D01*
X130072319Y-88016819D01*
X130081786Y-88018650D01*
X130086773Y-88019656D01*
X130087099Y-88019729D01*
X130095862Y-88022846D01*
X130103200Y-88027326D01*
X130104703Y-88028716D01*
X130110623Y-88035018D01*
X130111262Y-88298246D01*
X130111362Y-88340381D01*
X130111443Y-88377778D01*
X130111500Y-88410730D01*
X130111528Y-88439530D01*
X130111523Y-88464469D01*
X130111481Y-88485841D01*
X130111396Y-88503938D01*
X130111265Y-88519052D01*
X130111083Y-88531475D01*
X130110845Y-88541500D01*
X130110546Y-88549419D01*
X130110183Y-88555525D01*
X130109751Y-88560110D01*
X130109245Y-88563466D01*
X130108660Y-88565886D01*
X130107993Y-88567663D01*
X130107238Y-88569088D01*
X130107056Y-88569389D01*
X130100775Y-88576182D01*
X130093843Y-88580019D01*
X130089972Y-88580937D01*
X130081590Y-88582681D01*
X130069132Y-88585167D01*
X130053035Y-88588312D01*
X130033733Y-88592032D01*
X130011662Y-88596243D01*
X129987258Y-88600861D01*
X129960957Y-88605803D01*
X129933193Y-88610984D01*
X129922010Y-88613062D01*
X129876078Y-88621585D01*
X129834833Y-88629241D01*
X129798017Y-88636081D01*
X129765370Y-88642152D01*
X129736635Y-88647503D01*
X129711553Y-88652184D01*
X129689865Y-88656244D01*
X129671313Y-88659731D01*
X129655637Y-88662695D01*
X129642580Y-88665184D01*
X129631883Y-88667248D01*
X129623287Y-88668935D01*
X129616533Y-88670294D01*
X129611364Y-88671375D01*
X129607520Y-88672226D01*
X129604743Y-88672896D01*
X129602774Y-88673435D01*
X129602077Y-88673649D01*
X129594794Y-88677446D01*
X129588208Y-88683110D01*
X129587927Y-88683437D01*
X129586055Y-88686873D01*
X129582476Y-88694645D01*
X129577329Y-88706416D01*
X129570757Y-88721844D01*
X129562901Y-88740589D01*
X129553901Y-88762313D01*
X129543899Y-88786674D01*
X129533037Y-88813333D01*
X129521454Y-88841951D01*
X129509294Y-88872186D01*
X129503193Y-88887423D01*
X129489259Y-88922282D01*
X129477081Y-88952781D01*
X129466543Y-88979233D01*
X129457533Y-89001948D01*
X129449936Y-89021239D01*
X129443639Y-89037415D01*
X129438527Y-89050787D01*
X129434487Y-89061668D01*
X129431406Y-89070367D01*
X129429168Y-89077196D01*
X129427661Y-89082467D01*
X129426770Y-89086489D01*
X129426381Y-89089575D01*
X129426382Y-89092035D01*
X129426657Y-89094180D01*
X129426961Y-89095703D01*
X129427914Y-89098459D01*
X129429976Y-89102672D01*
X129433294Y-89108563D01*
X129438016Y-89116354D01*
X129444288Y-89126268D01*
X129452257Y-89138525D01*
X129462070Y-89153349D01*
X129473875Y-89170961D01*
X129487818Y-89191583D01*
X129504045Y-89215436D01*
X129522705Y-89242743D01*
X129543943Y-89273726D01*
X129567907Y-89308606D01*
X129568620Y-89309643D01*
X129588339Y-89338371D01*
X129607248Y-89366022D01*
X129625151Y-89392303D01*
X129641851Y-89416922D01*
X129657151Y-89439585D01*
X129670857Y-89460000D01*
X129682771Y-89477874D01*
X129692698Y-89492914D01*
X129700441Y-89504828D01*
X129705804Y-89513324D01*
X129708590Y-89518107D01*
X129708951Y-89518972D01*
X129709189Y-89526912D01*
X129708379Y-89532804D01*
X129706445Y-89535722D01*
X129701277Y-89541774D01*
X129692837Y-89551002D01*
X129681086Y-89563444D01*
X129665985Y-89579142D01*
X129647494Y-89598136D01*
X129625575Y-89620466D01*
X129600189Y-89646172D01*
X129571296Y-89675294D01*
X129538858Y-89707873D01*
X129525143Y-89721619D01*
X129499929Y-89746847D01*
X129475621Y-89771107D01*
X129452468Y-89794157D01*
X129430714Y-89815753D01*
X129410608Y-89835654D01*
X129392395Y-89853615D01*
X129376321Y-89869396D01*
X129362634Y-89882752D01*
X129351579Y-89893442D01*
X129343404Y-89901223D01*
X129338354Y-89905851D01*
X129336803Y-89907089D01*
X129326833Y-89910352D01*
X129316612Y-89909312D01*
X129305289Y-89903848D01*
X129303010Y-89902346D01*
X129299136Y-89899695D01*
X129291436Y-89894419D01*
X129280229Y-89886737D01*
X129265836Y-89876870D01*
X129248578Y-89865037D01*
X129228776Y-89851458D01*
X129206749Y-89836352D01*
X129182818Y-89819940D01*
X129157305Y-89802442D01*
X129130529Y-89784077D01*
X129105940Y-89767211D01*
X129078417Y-89748348D01*
X129051938Y-89730232D01*
X129026816Y-89713074D01*
X129003363Y-89697087D01*
X128981892Y-89682482D01*
X128962716Y-89669473D01*
X128946147Y-89658271D01*
X128932498Y-89649088D01*
X128922082Y-89642136D01*
X128915212Y-89637629D01*
X128912297Y-89635825D01*
X128900483Y-89632294D01*
X128894107Y-89632398D01*
X128889402Y-89633917D01*
X128880635Y-89637726D01*
X128868135Y-89643662D01*
X128852231Y-89651562D01*
X128833253Y-89661264D01*
X128811529Y-89672606D01*
X128794559Y-89681596D01*
X128770834Y-89694199D01*
X128751102Y-89704565D01*
X128734942Y-89712860D01*
X128721927Y-89719252D01*
X128711636Y-89723908D01*
X128703644Y-89726995D01*
X128697526Y-89728680D01*
X128692861Y-89729131D01*
X128689223Y-89728513D01*
X128686189Y-89726994D01*
X128683889Y-89725222D01*
X128682309Y-89722374D01*
X128678885Y-89715011D01*
X128673675Y-89703274D01*
X128666737Y-89687305D01*
X128658133Y-89667245D01*
X128647920Y-89643234D01*
X128636159Y-89615413D01*
X128622908Y-89583924D01*
X128608227Y-89548906D01*
X128592175Y-89510501D01*
X128574812Y-89468850D01*
X128556196Y-89424094D01*
X128536388Y-89376374D01*
X128515446Y-89325830D01*
X128498588Y-89285080D01*
X128476707Y-89232154D01*
X128456672Y-89183674D01*
X128438403Y-89139444D01*
X128421821Y-89099263D01*
X128406845Y-89062932D01*
X128393396Y-89030253D01*
X128381395Y-89001026D01*
X128370763Y-88975052D01*
X128361419Y-88952131D01*
X128353285Y-88932066D01*
X128346280Y-88914657D01*
X128340325Y-88899704D01*
X128335342Y-88887009D01*
X128331249Y-88876373D01*
X128327968Y-88867595D01*
X128325419Y-88860478D01*
X128323522Y-88854823D01*
X128322199Y-88850429D01*
X128321369Y-88847099D01*
X128320953Y-88844632D01*
X128320871Y-88842830D01*
X128321045Y-88841494D01*
X128321199Y-88840950D01*
X128323599Y-88835298D01*
X128327242Y-88830243D01*
X128332912Y-88825085D01*
X128341395Y-88819125D01*
X128353475Y-88811663D01*
X128355257Y-88810602D01*
X128367135Y-88803219D01*
X128380052Y-88794680D01*
X128391491Y-88786656D01*
X128392980Y-88785558D01*
X128402649Y-88778368D01*
X128414572Y-88769506D01*
X128426963Y-88760299D01*
X128434475Y-88754719D01*
X128475725Y-88720988D01*
X128513516Y-88683697D01*
X128547598Y-88643121D01*
X128577724Y-88599533D01*
X128583524Y-88590024D01*
X128606301Y-88547314D01*
X128625628Y-88501638D01*
X128641173Y-88453973D01*
X128652607Y-88405300D01*
X128658232Y-88369155D01*
X128659830Y-88350627D01*
X128660694Y-88328600D01*
X128660850Y-88304549D01*
X128660321Y-88279948D01*
X128659129Y-88256271D01*
X128657300Y-88234991D01*
X128655914Y-88224045D01*
X128645747Y-88171737D01*
X128630996Y-88121214D01*
X128611839Y-88072723D01*
X128588456Y-88026508D01*
X128561024Y-87982817D01*
X128529724Y-87941897D01*
X128494732Y-87903992D01*
X128456229Y-87869350D01*
X128414393Y-87838217D01*
X128369403Y-87810840D01*
X128347977Y-87799712D01*
X128300646Y-87778956D01*
X128252462Y-87762984D01*
X128203044Y-87751707D01*
X128152010Y-87745039D01*
X128100000Y-87742891D01*
X128054843Y-87744365D01*
X128012475Y-87748928D01*
X127971562Y-87756788D01*
X127930769Y-87768152D01*
X127923960Y-87770378D01*
X127874705Y-87789370D01*
X127827852Y-87812596D01*
X127783643Y-87839815D01*
X127742319Y-87870788D01*
X127704122Y-87905275D01*
X127669295Y-87943036D01*
X127638078Y-87983832D01*
X127610714Y-88027422D01*
X127587445Y-88073567D01*
X127568512Y-88122026D01*
X127568074Y-88123329D01*
X127556907Y-88160050D01*
X127548666Y-88195126D01*
X127543102Y-88230130D01*
X127539965Y-88266637D01*
X127539004Y-88306084D01*
X127539990Y-88343824D01*
X127543057Y-88378572D01*
X127548476Y-88412030D01*
X127556521Y-88445900D01*
X127566756Y-88479742D01*
X127585700Y-88529412D01*
X127608995Y-88576635D01*
X127636490Y-88621205D01*
X127668038Y-88662917D01*
X127703490Y-88701564D01*
X127742697Y-88736943D01*
X127765524Y-88754723D01*
X127776681Y-88762991D01*
X127787963Y-88771394D01*
X127797838Y-88778788D01*
X127803247Y-88782869D01*
X127811470Y-88788763D01*
X127822332Y-88796081D01*
X127834134Y-88803693D01*
X127840970Y-88807937D01*
X127854169Y-88816145D01*
X127863686Y-88822542D01*
X127870241Y-88827755D01*
X127874550Y-88832410D01*
X127877333Y-88837134D01*
X127878805Y-88840963D01*
X127879075Y-88842144D01*
X127879131Y-88843689D01*
X127878892Y-88845799D01*
X127878280Y-88848672D01*
X127877214Y-88852506D01*
X127875615Y-88857503D01*
X127873404Y-88863860D01*
X127870501Y-88871776D01*
X127866826Y-88881451D01*
X127862300Y-88893084D01*
X127856844Y-88906874D01*
X127850377Y-88923020D01*
X127842821Y-88941722D01*
X127834096Y-88963177D01*
X127824121Y-88987586D01*
X127812819Y-89015148D01*
X127800108Y-89046061D01*
X127785911Y-89080526D01*
X127770146Y-89118740D01*
X127752735Y-89160903D01*
X127733598Y-89207214D01*
X127712655Y-89257873D01*
X127701400Y-89285093D01*
X127679840Y-89337188D01*
X127659326Y-89386673D01*
X127639918Y-89433400D01*
X127621680Y-89477222D01*
X127604674Y-89517990D01*
X127588960Y-89555558D01*
X127574603Y-89589776D01*
X127561664Y-89620499D01*
X127550205Y-89647577D01*
X127540288Y-89670864D01*
X127531976Y-89690211D01*
X127525331Y-89705471D01*
X127520415Y-89716495D01*
X127517290Y-89723138D01*
X127516094Y-89725222D01*
X127509755Y-89728499D01*
X127503425Y-89729623D01*
X127498868Y-89728370D01*
X127490014Y-89724631D01*
X127476924Y-89718434D01*
X127459655Y-89709809D01*
X127438269Y-89698785D01*
X127412823Y-89685390D01*
X127406253Y-89681898D01*
X127386434Y-89671410D01*
X127367737Y-89661640D01*
X127350684Y-89652852D01*
X127335798Y-89645310D01*
X127323603Y-89639279D01*
X127314622Y-89635022D01*
X127309377Y-89632804D01*
X127308575Y-89632569D01*
X127300146Y-89632265D01*
X127292779Y-89633666D01*
X127289584Y-89635468D01*
X127282560Y-89639915D01*
X127272019Y-89646797D01*
X127258271Y-89655905D01*
X127241630Y-89667028D01*
X127222407Y-89679958D01*
X127200914Y-89694484D01*
X127177463Y-89710396D01*
X127152365Y-89727486D01*
X127125933Y-89745542D01*
X127102155Y-89761834D01*
X127074535Y-89780782D01*
X127047794Y-89799127D01*
X127022265Y-89816639D01*
X126998281Y-89833089D01*
X126976177Y-89848249D01*
X126956285Y-89861890D01*
X126938940Y-89873784D01*
X126924475Y-89883700D01*
X126913223Y-89891411D01*
X126905520Y-89896688D01*
X126902143Y-89898997D01*
X126890080Y-89906348D01*
X126880284Y-89910042D01*
X126871756Y-89910249D01*
X126863499Y-89907140D01*
X126861435Y-89905912D01*
X126858636Y-89903496D01*
X126852539Y-89897759D01*
X126843394Y-89888946D01*
X126831448Y-89877303D01*
X126816951Y-89863076D01*
X126800151Y-89846510D01*
X126781297Y-89827851D01*
X126760638Y-89807345D01*
X126738423Y-89785237D01*
X126714900Y-89761772D01*
X126690318Y-89737196D01*
X126673599Y-89720451D01*
X126639864Y-89686593D01*
X126609690Y-89656208D01*
X126583039Y-89629257D01*
X126559874Y-89605702D01*
X126540155Y-89585503D01*
X126523845Y-89568619D01*
X126510905Y-89555013D01*
X126501297Y-89544645D01*
X126494984Y-89537474D01*
X126491926Y-89533463D01*
X126491620Y-89532804D01*
X126490720Y-89524838D01*
X126491035Y-89518972D01*
X126492592Y-89515961D01*
X126496814Y-89509106D01*
X126503504Y-89498700D01*
X126512468Y-89485035D01*
X126523508Y-89468405D01*
X126536428Y-89449102D01*
X126551032Y-89427418D01*
X126567124Y-89403647D01*
X126584507Y-89378081D01*
X126602986Y-89351013D01*
X126622364Y-89322735D01*
X126631360Y-89309643D01*
X126655411Y-89274639D01*
X126676733Y-89243539D01*
X126695470Y-89216121D01*
X126711771Y-89192165D01*
X126725781Y-89171447D01*
X126737648Y-89153747D01*
X126747518Y-89138844D01*
X126755539Y-89126515D01*
X126761856Y-89116539D01*
X126766616Y-89108694D01*
X126769967Y-89102759D01*
X126772054Y-89098513D01*
X126773025Y-89095733D01*
X126773032Y-89095703D01*
X126773436Y-89093591D01*
X126773648Y-89091390D01*
X126773553Y-89088789D01*
X126773037Y-89085475D01*
X126771987Y-89081139D01*
X126770289Y-89075468D01*
X126767829Y-89068151D01*
X126764492Y-89058877D01*
X126760166Y-89047335D01*
X126754736Y-89033213D01*
X126748087Y-89016201D01*
X126740107Y-88995986D01*
X126730682Y-88972258D01*
X126719696Y-88944705D01*
X126707038Y-88913017D01*
X126696905Y-88887669D01*
X126684860Y-88857618D01*
X126673256Y-88828812D01*
X126662239Y-88801606D01*
X126651957Y-88776358D01*
X126642556Y-88753425D01*
X126634185Y-88733164D01*
X126626989Y-88715931D01*
X126621117Y-88702083D01*
X126616716Y-88691977D01*
X126613932Y-88685970D01*
X126613088Y-88684467D01*
X126606838Y-88678611D01*
X126600097Y-88674588D01*
X126596559Y-88673678D01*
X126588425Y-88671925D01*
X126576048Y-88669397D01*
X126559779Y-88666162D01*
X126539970Y-88662289D01*
X126516973Y-88657844D01*
X126491139Y-88652896D01*
X126462820Y-88647512D01*
X126432367Y-88641761D01*
X126400133Y-88635710D01*
X126366468Y-88629427D01*
X126353435Y-88627004D01*
X126319307Y-88620655D01*
X126286465Y-88614523D01*
X126255261Y-88608675D01*
X126226049Y-88603179D01*
X126199181Y-88598101D01*
X126175011Y-88593509D01*
X126153890Y-88589469D01*
X126136171Y-88586049D01*
X126122208Y-88583316D01*
X126112352Y-88581337D01*
X126106958Y-88580179D01*
X126106157Y-88579970D01*
X126098245Y-88575394D01*
X126092943Y-88569389D01*
X126092168Y-88568002D01*
X126091481Y-88566330D01*
X126090879Y-88564080D01*
X126090355Y-88560959D01*
X126089907Y-88556675D01*
X126089529Y-88550936D01*
X126089216Y-88543449D01*
X126088965Y-88533921D01*
X126088771Y-88522061D01*
X126088628Y-88507577D01*
X126088534Y-88490175D01*
X126088482Y-88469563D01*
X126088470Y-88445449D01*
X126088491Y-88417540D01*
X126088541Y-88385545D01*
X126088617Y-88349170D01*
X126088713Y-88308123D01*
X126088737Y-88298246D01*
X126089376Y-88035018D01*
X126095371Y-88028637D01*
X126096249Y-88027558D01*
X126096863Y-88026630D01*
X126097492Y-88025794D01*
X126098412Y-88024993D01*
X126099901Y-88024170D01*
X126102235Y-88023267D01*
X126105692Y-88022228D01*
X126110550Y-88020993D01*
X126117085Y-88019507D01*
X126125575Y-88017712D01*
X126136297Y-88015550D01*
X126149528Y-88012964D01*
X126165546Y-88009897D01*
X126184627Y-88006290D01*
X126207049Y-88002087D01*
X126233089Y-87997231D01*
X126263025Y-87991663D01*
X126297133Y-87985327D01*
X126335691Y-87978165D01*
X126369033Y-87971969D01*
X126409894Y-87964373D01*
X126446104Y-87957633D01*
X126477952Y-87951678D01*
X126505730Y-87946438D01*
X126529729Y-87941841D01*
X126550240Y-87937816D01*
X126567555Y-87934294D01*
X126581964Y-87931202D01*
X126593759Y-87928470D01*
X126603232Y-87926027D01*
X126610672Y-87923802D01*
X126616372Y-87921724D01*
X126620622Y-87919723D01*
X126623714Y-87917728D01*
X126625938Y-87915667D01*
X126627587Y-87913470D01*
X126628951Y-87911066D01*
X126630321Y-87908384D01*
X126630328Y-87908370D01*
X126631932Y-87904878D01*
X126635354Y-87897134D01*
X126640431Y-87885510D01*
X126647002Y-87870381D01*
X126654907Y-87852119D01*
X126663985Y-87831096D01*
X126674073Y-87807685D01*
X126685012Y-87782259D01*
X126696640Y-87755190D01*
X126708795Y-87726853D01*
X126710765Y-87722256D01*
X126725488Y-87687931D01*
X126738358Y-87657914D01*
X126749474Y-87631878D01*
X126758931Y-87609494D01*
X126766826Y-87590435D01*
X126773256Y-87574371D01*
X126778317Y-87560975D01*
X126782107Y-87549918D01*
X126784721Y-87540873D01*
X126786256Y-87533511D01*
X126786809Y-87527503D01*
X126786477Y-87522522D01*
X126785356Y-87518240D01*
X126783543Y-87514328D01*
X126781134Y-87510457D01*
X126778226Y-87506301D01*
X126775494Y-87502386D01*
X126772369Y-87497811D01*
X126766618Y-87489410D01*
X126758463Y-87477505D01*
X126748122Y-87462415D01*
X126735816Y-87444463D01*
X126721766Y-87423969D01*
X126706191Y-87401255D01*
X126689312Y-87376642D01*
X126671348Y-87350451D01*
X126652521Y-87323003D01*
X126633050Y-87294620D01*
X126630030Y-87290217D01*
X126610707Y-87262039D01*
X126592160Y-87234966D01*
X126574592Y-87209298D01*
X126558206Y-87185329D01*
X126543202Y-87163359D01*
X126529785Y-87143683D01*
X126518157Y-87126599D01*
X126508520Y-87112404D01*
X126501077Y-87101394D01*
X126496030Y-87093867D01*
X126493582Y-87090120D01*
X126493407Y-87089823D01*
X126491443Y-87083596D01*
X126490507Y-87075669D01*
X126490495Y-87074753D01*
X126490576Y-87073141D01*
X126490955Y-87071404D01*
X126491831Y-87069332D01*
X126493405Y-87066714D01*
X126495877Y-87063339D01*
X126499448Y-87058996D01*
X126504318Y-87053476D01*
X126510686Y-87046567D01*
X126518754Y-87038059D01*
X126528723Y-87027740D01*
X126540791Y-87015402D01*
X126555160Y-87000832D01*
X126572031Y-86983820D01*
X126591602Y-86964155D01*
X126614076Y-86941628D01*
X126639652Y-86916027D01*
X126668530Y-86887141D01*
X126677241Y-86878429D01*
X126863988Y-86691683D01*
X126874972Y-86691683D01*
X126876369Y-86691594D01*
X126877491Y-86691417D01*
X126878543Y-86691286D01*
X126879727Y-86691335D01*
X126881247Y-86691700D01*
X126883305Y-86692514D01*
X126886105Y-86693912D01*
X126889851Y-86696028D01*
X126894744Y-86698997D01*
X126900989Y-86702953D01*
X126908789Y-86708030D01*
X126918346Y-86714364D01*
X126929864Y-86722087D01*
X126943546Y-86731336D01*
X126959595Y-86742243D01*
X126978215Y-86754944D01*
X126999608Y-86769574D01*
X127023978Y-86786265D01*
X127051528Y-86805153D01*
X127082460Y-86826373D01*
X127116979Y-86850058D01*
X127155287Y-86876344D01*
X127188033Y-86898809D01*
X127215331Y-86917530D01*
X127238804Y-86933605D01*
X127258772Y-86947235D01*
X127275556Y-86958622D01*
X127289475Y-86967967D01*
X127300851Y-86975472D01*
X127310003Y-86981339D01*
X127317253Y-86985769D01*
X127322919Y-86988963D01*
X127327323Y-86991124D01*
X127330786Y-86992454D01*
X127333627Y-86993152D01*
X127336166Y-86993422D01*
X127338451Y-86993465D01*
X127341406Y-86993229D01*
X127345398Y-86992441D01*
X127350742Y-86990979D01*
X127357755Y-86988723D01*
X127366754Y-86985553D01*
X127378054Y-86981347D01*
X127391972Y-86975985D01*
X127408824Y-86969345D01*
X127428927Y-86961308D01*
X127452596Y-86951752D01*
X127480148Y-86940556D01*
X127511900Y-86927600D01*
X127526141Y-86921777D01*
X127554446Y-86910172D01*
X127581495Y-86899031D01*
X127606912Y-86888511D01*
X127630319Y-86878772D01*
X127651341Y-86869970D01*
X127669601Y-86862266D01*
X127684722Y-86855816D01*
X127696327Y-86850779D01*
X127704041Y-86847313D01*
X127707486Y-86845577D01*
X127707527Y-86845547D01*
X127709785Y-86843863D01*
X127711830Y-86842155D01*
X127713729Y-86840136D01*
X127715547Y-86837517D01*
X127717351Y-86834014D01*
X127719207Y-86829338D01*
X127721181Y-86823203D01*
X127723339Y-86815322D01*
X127725747Y-86805407D01*
X127728471Y-86793173D01*
X127731577Y-86778331D01*
X127735131Y-86760596D01*
X127739200Y-86739680D01*
X127743849Y-86715296D01*
X127749144Y-86687158D01*
X127755152Y-86654977D01*
X127761939Y-86618468D01*
X127769570Y-86577344D01*
X127770771Y-86570869D01*
X127777357Y-86535447D01*
X127783728Y-86501329D01*
X127789819Y-86468850D01*
X127795567Y-86438348D01*
X127800907Y-86410159D01*
X127805774Y-86384620D01*
X127810105Y-86362068D01*
X127813834Y-86342838D01*
X127816898Y-86327269D01*
X127819233Y-86315695D01*
X127820773Y-86308455D01*
X127821400Y-86305984D01*
X127825549Y-86299638D01*
X127831701Y-86294214D01*
X127831968Y-86294048D01*
X127833368Y-86293288D01*
X127835123Y-86292614D01*
X127837526Y-86292020D01*
X127840872Y-86291503D01*
X127845454Y-86291056D01*
X127851565Y-86290675D01*
X127859501Y-86290354D01*
X127869553Y-86290089D01*
X127882017Y-86289873D01*
X127897185Y-86289702D01*
X127915351Y-86289571D01*
X127936810Y-86289474D01*
X127961855Y-86289406D01*
X127990779Y-86289363D01*
X128023876Y-86289338D01*
X128061441Y-86289328D01*
X128100000Y-86289325D01*
X128141912Y-86289328D01*
D12*
X149200000Y-91200000D03*
X194800000Y-119300000D03*
D13*
X111140000Y-138550000D03*
D14*
X113680000Y-138550000D03*
X116220000Y-138550000D03*
X118760000Y-138550000D03*
X121300000Y-138550000D03*
X123840000Y-138550000D03*
D15*
X134000000Y-136010000D03*
D16*
X134000000Y-138550000D03*
X136540000Y-136010000D03*
X136540000Y-138550000D03*
X139080000Y-136010000D03*
X139080000Y-138550000D03*
X141620000Y-136010000D03*
X141620000Y-138550000D03*
X144160000Y-136010000D03*
X144160000Y-138550000D03*
X146700000Y-136010000D03*
X146700000Y-138550000D03*
X149240000Y-136010000D03*
X149240000Y-138550000D03*
X151780000Y-136010000D03*
X151780000Y-138550000D03*
X154320000Y-136010000D03*
X154320000Y-138550000D03*
X156860000Y-136010000D03*
X156860000Y-138550000D03*
X159400000Y-136010000D03*
X159400000Y-138550000D03*
X161940000Y-136010000D03*
X161940000Y-138550000D03*
X164480000Y-136010000D03*
X164480000Y-138550000D03*
X167020000Y-136010000D03*
X167020000Y-138550000D03*
X169560000Y-136010000D03*
X169560000Y-138550000D03*
X172100000Y-136010000D03*
X172100000Y-138550000D03*
X174640000Y-136010000D03*
X174640000Y-138550000D03*
X177180000Y-136010000D03*
X177180000Y-138550000D03*
X179720000Y-136010000D03*
X179720000Y-138550000D03*
X182260000Y-136010000D03*
X182260000Y-138550000D03*
X184800000Y-136010000D03*
X184800000Y-138550000D03*
X187340000Y-136010000D03*
X187340000Y-138550000D03*
X189880000Y-136010000D03*
X189880000Y-138550000D03*
X192420000Y-136010000D03*
X192420000Y-138550000D03*
X194960000Y-136010000D03*
X194960000Y-138550000D03*
D13*
X117250000Y-97250000D03*
D14*
X119790000Y-97250000D03*
X122330000Y-97250000D03*
X124870000Y-97250000D03*
D15*
X134000000Y-85210000D03*
D16*
X134000000Y-87750000D03*
X136540000Y-85210000D03*
X136540000Y-87750000D03*
X139080000Y-85210000D03*
X139080000Y-87750000D03*
X141620000Y-85210000D03*
X141620000Y-87750000D03*
X144160000Y-85210000D03*
X144160000Y-87750000D03*
X146700000Y-85210000D03*
X146700000Y-87750000D03*
X149240000Y-85210000D03*
X149240000Y-87750000D03*
X151780000Y-85210000D03*
X151780000Y-87750000D03*
X154320000Y-85210000D03*
X154320000Y-87750000D03*
X156860000Y-85210000D03*
X156860000Y-87750000D03*
X159400000Y-85210000D03*
X159400000Y-87750000D03*
X161940000Y-85210000D03*
X161940000Y-87750000D03*
X164480000Y-85210000D03*
X164480000Y-87750000D03*
X167020000Y-85210000D03*
X167020000Y-87750000D03*
X169560000Y-85210000D03*
X169560000Y-87750000D03*
X172100000Y-85210000D03*
X172100000Y-87750000D03*
X174640000Y-85210000D03*
X174640000Y-87750000D03*
X177180000Y-85210000D03*
X177180000Y-87750000D03*
X179720000Y-85210000D03*
X179720000Y-87750000D03*
X182260000Y-85210000D03*
X182260000Y-87750000D03*
X184800000Y-85210000D03*
X184800000Y-87750000D03*
X187340000Y-85210000D03*
X187340000Y-87750000D03*
X189880000Y-85210000D03*
X189880000Y-87750000D03*
X192420000Y-85210000D03*
X192420000Y-87750000D03*
X194960000Y-85210000D03*
X194960000Y-87750000D03*
D17*
X113500000Y-110000000D03*
X113500000Y-111900000D03*
X116502280Y-110950000D03*
D18*
X112000000Y-116300000D03*
X112000000Y-118800000D03*
X112000000Y-121300000D03*
X116400000Y-116300000D03*
X116400000Y-118800000D03*
X116400000Y-121300000D03*
D19*
X114850000Y-102700000D03*
X114850000Y-101750000D03*
X114850000Y-100800000D03*
X112650000Y-100800000D03*
X112650000Y-102700000D03*
X112600000Y-105380000D03*
X112600000Y-106330000D03*
X112600000Y-107280000D03*
X114800000Y-107280000D03*
X114800000Y-105380000D03*
D20*
X126449300Y-134287969D03*
X124950700Y-134287969D03*
X126449300Y-130787969D03*
X124950700Y-130787969D03*
X126449300Y-127287969D03*
X124950700Y-127287969D03*
D21*
X123000000Y-134287969D03*
X120800000Y-134287969D03*
X123000000Y-130787969D03*
X120800000Y-130787969D03*
X123000000Y-127300000D03*
X120800000Y-127300000D03*
D22*
X115250000Y-134275000D03*
X110750000Y-134275000D03*
X110750000Y-126325000D03*
X115250000Y-126325000D03*
D23*
X117750000Y-101750000D03*
X120570000Y-106340000D03*
D24*
X119250000Y-111000000D03*
D25*
X158550000Y-91250000D03*
D26*
X161190000Y-100200000D03*
X161190000Y-100600000D03*
X161190000Y-101000000D03*
X161190000Y-101400000D03*
X161190000Y-101800000D03*
X161190000Y-102200000D03*
X161190000Y-102600000D03*
X161190000Y-103000000D03*
X161190000Y-103400000D03*
X161190000Y-103800000D03*
X161190000Y-107800000D03*
X161190000Y-107400000D03*
X161190000Y-107000000D03*
X161190000Y-106600000D03*
X161190000Y-106200000D03*
X161190000Y-105800000D03*
X161190000Y-105400000D03*
X161190000Y-105000000D03*
X161190000Y-104600000D03*
X161190000Y-104200000D03*
X161190000Y-108200000D03*
X161190000Y-108600000D03*
X161190000Y-109000000D03*
X161190000Y-109400000D03*
X161190000Y-109800000D03*
X161190000Y-110200000D03*
X161190000Y-110600000D03*
X161190000Y-111000000D03*
X161190000Y-111400000D03*
X161190000Y-111800000D03*
X161190000Y-115800000D03*
X161190000Y-115400000D03*
X161190000Y-115000000D03*
X161190000Y-114600000D03*
X161190000Y-114200000D03*
X161190000Y-113800000D03*
X161190000Y-113400000D03*
X161190000Y-113000000D03*
X161190000Y-112600000D03*
X161190000Y-112200000D03*
X158110000Y-112200000D03*
X158110000Y-112600000D03*
X158110000Y-113000000D03*
X158110000Y-113400000D03*
X158110000Y-113800000D03*
X158110000Y-114200000D03*
X158110000Y-114600000D03*
X158110000Y-115000000D03*
X158110000Y-115400000D03*
X158110000Y-115800000D03*
X158110000Y-111800000D03*
X158110000Y-111400000D03*
X158110000Y-111000000D03*
X158110000Y-110600000D03*
X158110000Y-110200000D03*
X158110000Y-109800000D03*
X158110000Y-109400000D03*
X158110000Y-109000000D03*
X158110000Y-108600000D03*
X158110000Y-108200000D03*
X158110000Y-104200000D03*
X158110000Y-104600000D03*
X158110000Y-105000000D03*
X158110000Y-105400000D03*
X158110000Y-105800000D03*
X158110000Y-106200000D03*
X158110000Y-106600000D03*
X158110000Y-107000000D03*
X158110000Y-107400000D03*
X158110000Y-107800000D03*
X158110000Y-103800000D03*
X158110000Y-103400000D03*
X158110000Y-103000000D03*
X158110000Y-102600000D03*
X158110000Y-102200000D03*
X158110000Y-101800000D03*
X158110000Y-101400000D03*
X158110000Y-101000000D03*
X158110000Y-100600000D03*
X158110000Y-100200000D03*
D27*
X110560000Y-105410000D03*
X110560000Y-107310000D03*
X116940000Y-105410000D03*
X116940000Y-107310000D03*
D28*
X119000000Y-133870000D03*
X119000000Y-131670000D03*
X117300000Y-131660000D03*
X117300000Y-133860000D03*
D26*
X188610000Y-109800000D03*
X191690000Y-109800000D03*
X188610000Y-109400000D03*
X191690000Y-109400000D03*
X188610000Y-109000000D03*
X191690000Y-109000000D03*
X188610000Y-108600000D03*
X191690000Y-108600000D03*
X188610000Y-108200000D03*
X191690000Y-108200000D03*
X188610000Y-107800000D03*
X191690000Y-107800000D03*
X188610000Y-107400000D03*
X191690000Y-107400000D03*
X188610000Y-107000000D03*
X191690000Y-107000000D03*
X188610000Y-106600000D03*
X191690000Y-106600000D03*
X188610000Y-106200000D03*
X191690000Y-106200000D03*
D28*
X117300000Y-127300000D03*
X117300000Y-129500000D03*
D29*
X124850000Y-118650000D03*
X128450000Y-118650000D03*
X128450000Y-118150000D03*
X124850000Y-118150000D03*
D30*
X125400000Y-119700000D03*
X125900000Y-119700000D03*
X126400000Y-119700000D03*
X126900000Y-119700000D03*
X127400000Y-119700000D03*
X127900000Y-119700000D03*
X127900000Y-117100000D03*
X127400000Y-117100000D03*
X126900000Y-117100000D03*
X126400000Y-117100000D03*
X125900000Y-117100000D03*
X125400000Y-117100000D03*
D21*
X178900000Y-111300000D03*
X181100000Y-111300000D03*
X183600000Y-111300000D03*
X185800000Y-111300000D03*
D12*
X110700000Y-124000000D03*
D20*
X118650000Y-106550700D03*
X118650000Y-108049300D03*
D21*
X120600000Y-108950000D03*
X122800000Y-108950000D03*
D31*
X137000000Y-127500000D03*
X138000000Y-127500000D03*
X139000000Y-127500000D03*
X140000000Y-127500000D03*
X141000000Y-127500000D03*
X142000000Y-127500000D03*
X143000000Y-127500000D03*
X144000000Y-127500000D03*
X145000000Y-127500000D03*
X146000000Y-127500000D03*
X147000000Y-127500000D03*
X148000000Y-127500000D03*
X149000000Y-127500000D03*
X150000000Y-127500000D03*
X151000000Y-127500000D03*
X152000000Y-127500000D03*
D32*
X136000000Y-129600000D03*
X153000000Y-129600000D03*
D31*
X167500000Y-127500000D03*
X168500000Y-127500000D03*
X169500000Y-127500000D03*
X170500000Y-127500000D03*
X171500000Y-127500000D03*
X172500000Y-127500000D03*
X173500000Y-127500000D03*
X174500000Y-127500000D03*
X175500000Y-127500000D03*
X176500000Y-127500000D03*
X177500000Y-127500000D03*
X178500000Y-127500000D03*
X179500000Y-127500000D03*
X180500000Y-127500000D03*
X181500000Y-127500000D03*
X182500000Y-127500000D03*
D32*
X166500000Y-129600000D03*
X183500000Y-129600000D03*
D33*
X114200000Y-90300000D03*
D34*
X111200000Y-85600000D03*
X117200000Y-85600000D03*
D35*
X116550000Y-88200000D03*
X159088154Y-120806559D03*
X160660000Y-126740000D03*
X109980000Y-103150000D03*
X109830000Y-112000000D03*
X115900000Y-130500000D03*
X129000000Y-121400000D03*
X125700000Y-123200000D03*
X113600000Y-129900000D03*
X126900000Y-116000000D03*
X119000000Y-123900000D03*
X176150000Y-125300000D03*
X173266413Y-122335745D03*
X161050000Y-119331020D03*
X161119498Y-121413615D03*
X146260665Y-122018065D03*
X146568980Y-125259460D03*
X162545300Y-106161220D03*
X152610000Y-107170000D03*
X163400000Y-106000000D03*
D36*
X156240000Y-107200000D03*
X156142854Y-111234603D03*
X155415949Y-110663083D03*
X155032223Y-111936370D03*
X154383520Y-112736864D03*
X155910590Y-112534495D03*
X155372384Y-113770411D03*
X154573948Y-114185369D03*
X155007512Y-114906215D03*
X154339317Y-115598934D03*
X154956957Y-116165608D03*
X155641520Y-117022455D03*
X156788823Y-116834445D03*
X156134258Y-116308281D03*
X158255617Y-116945501D03*
X157265015Y-116147324D03*
D35*
X163515257Y-133651140D03*
X154499077Y-123078563D03*
X153718242Y-125368980D03*
X168075341Y-130684659D03*
X158046066Y-124736067D03*
X157544560Y-122673308D03*
X171410000Y-130050000D03*
X170210000Y-129100000D03*
X127040000Y-135460000D03*
X128030000Y-136260000D03*
X168405341Y-126021251D03*
X147654129Y-122724207D03*
X146965798Y-125994907D03*
X165714987Y-133226331D03*
X169106848Y-133513128D03*
X171210920Y-133484836D03*
X169758234Y-132887976D03*
X166894105Y-132921520D03*
D36*
X162035617Y-116147324D03*
X161045015Y-116945501D03*
X163166374Y-116308281D03*
X162511810Y-116834445D03*
D35*
X164428518Y-117619200D03*
D36*
X163737894Y-116995401D03*
D35*
X178767271Y-125418980D03*
X151461464Y-122018065D03*
X151310878Y-129253252D03*
D36*
X164285373Y-114959245D03*
D35*
X150001155Y-122320336D03*
X150169126Y-128940874D03*
X179365392Y-126004688D03*
D36*
X165240000Y-116660000D03*
X163944142Y-113869254D03*
X164700097Y-114231642D03*
X163731203Y-112148805D03*
X164470000Y-112570000D03*
X163170000Y-111070000D03*
X164043185Y-111370817D03*
D35*
X175000000Y-125400000D03*
X172650000Y-122900000D03*
X159850000Y-119900000D03*
X160300000Y-121250000D03*
X164170000Y-106770000D03*
X156800000Y-108420000D03*
X131810000Y-105440000D03*
X133210000Y-106960000D03*
X159130804Y-97773517D03*
X157350000Y-93860000D03*
X158607726Y-98425236D03*
X156630000Y-94580000D03*
X158767052Y-94234600D03*
X159881020Y-93729958D03*
X158687184Y-93402754D03*
X160177085Y-91240782D03*
X158969115Y-95885453D03*
X160905030Y-95198643D03*
X160768980Y-96270000D03*
X158872737Y-96808042D03*
X181979821Y-113019780D03*
X159868980Y-109543999D03*
X155900000Y-109110000D03*
D36*
X155280000Y-106840000D03*
D35*
X115400000Y-135850000D03*
D36*
X156330088Y-110091581D03*
D35*
X113100000Y-88000000D03*
X111800000Y-88500000D03*
X183380000Y-125418980D03*
X120600000Y-129000000D03*
X120600000Y-132400000D03*
X129531020Y-118718980D03*
X125300000Y-116000000D03*
X114100000Y-121300000D03*
X159330000Y-127190000D03*
X113500000Y-112860000D03*
X115850000Y-106300000D03*
X111490000Y-106300000D03*
X116020000Y-101740000D03*
X131800002Y-132400000D03*
X129200002Y-125700000D03*
X129225350Y-122874650D03*
X131800000Y-134100000D03*
X126900000Y-125800000D03*
X123185920Y-118909420D03*
X121041994Y-116648244D03*
X120099996Y-117600000D03*
X128138232Y-123861731D03*
X130400000Y-128500000D03*
X133600000Y-131400000D03*
X133900000Y-134100000D03*
X135400000Y-134200000D03*
X134700000Y-131300000D03*
X129351987Y-124158187D03*
X128137929Y-115900522D03*
X124400000Y-103300000D03*
X127100000Y-108600000D03*
X128000000Y-113400000D03*
X126431246Y-115308179D03*
X126000000Y-104600000D03*
X126000000Y-108700000D03*
X126100000Y-113900000D03*
X114234675Y-104336746D03*
X112880000Y-103720000D03*
X148202928Y-125956730D03*
X141850000Y-110700000D03*
X141800000Y-104800000D03*
X139950000Y-90800000D03*
X145400000Y-90600000D03*
X148300000Y-119100000D03*
X175250000Y-131230000D03*
X172210000Y-131400000D03*
X170750000Y-131500000D03*
X168650000Y-131480000D03*
X149349480Y-125673522D03*
X147400000Y-110650000D03*
X152300000Y-105800000D03*
X140850000Y-91450000D03*
X146900000Y-91450000D03*
X149271251Y-120800000D03*
X171984516Y-132350625D03*
X170336059Y-132274557D03*
X175010000Y-132200000D03*
X167530000Y-131730000D03*
X120800000Y-118300000D03*
X121664566Y-117388066D03*
X145812977Y-121312428D03*
X120100000Y-92250000D03*
X158950000Y-95050000D03*
X160200000Y-94750000D03*
D37*
X116550000Y-88200000D02*
X117028680Y-87721320D01*
X117028680Y-87721320D02*
X117200000Y-87721320D01*
X146823242Y-122637845D02*
X147356642Y-122104445D01*
X153720275Y-122940116D02*
X154201590Y-122458801D01*
X156615949Y-122458801D02*
X158268191Y-120806559D01*
X154201590Y-122458801D02*
X156615949Y-122458801D01*
X158603221Y-120806559D02*
X159088154Y-120806559D01*
X148821858Y-122940116D02*
X153720275Y-122940116D01*
X145237682Y-123303101D02*
X145902938Y-122637845D01*
X137000000Y-126800000D02*
X140496899Y-123303101D01*
X140496899Y-123303101D02*
X145237682Y-123303101D01*
X147986187Y-122104445D02*
X148821858Y-122940116D01*
X145902938Y-122637845D02*
X146823242Y-122637845D01*
X147356642Y-122104445D02*
X147986187Y-122104445D01*
X158268191Y-120806559D02*
X158603221Y-120806559D01*
X137000000Y-127500000D02*
X137000000Y-126800000D01*
X130217249Y-125700000D02*
X129597487Y-125080238D01*
X135900000Y-125700000D02*
X130217249Y-125700000D01*
X129597487Y-125080238D02*
X128480238Y-125080238D01*
X118417249Y-114900000D02*
X112730000Y-114900000D01*
X128480238Y-125080238D02*
X120719762Y-117319762D01*
X120719762Y-117319762D02*
X120719762Y-117202513D01*
X120719762Y-117202513D02*
X118417249Y-114900000D01*
X137000000Y-126800000D02*
X135900000Y-125700000D01*
X112730000Y-114900000D02*
X110172899Y-112342899D01*
X110172899Y-112342899D02*
X109830000Y-112000000D01*
X110430000Y-102700000D02*
X110600000Y-102700000D01*
X110600000Y-102700000D02*
X112650000Y-102700000D01*
X110600000Y-98300000D02*
X110600000Y-102700000D01*
X117300000Y-91600000D02*
X110600000Y-98300000D01*
X117300000Y-87821320D02*
X117300000Y-91600000D01*
X117200000Y-85600000D02*
X117200000Y-87721320D01*
X117200000Y-87721320D02*
X117300000Y-87821320D01*
X160660000Y-126740000D02*
X166740000Y-126740000D01*
X166740000Y-126740000D02*
X167500000Y-127500000D01*
X109980000Y-103150000D02*
X110430000Y-102700000D01*
D38*
X117300000Y-131660000D02*
X117300000Y-131510000D01*
X117300000Y-131510000D02*
X116290000Y-130500000D01*
X116290000Y-130500000D02*
X115900000Y-130500000D01*
X129000000Y-121400000D02*
X129000000Y-120400000D01*
X129000000Y-120400000D02*
X130400000Y-119000000D01*
X130400000Y-119000000D02*
X130400000Y-118500000D01*
X130400000Y-118500000D02*
X130050000Y-118150000D01*
X130050000Y-118150000D02*
X128450000Y-118150000D01*
X115400000Y-123300000D02*
X125600000Y-123300000D01*
X125600000Y-123300000D02*
X125700000Y-123200000D01*
X113600000Y-125100000D02*
X115400000Y-123300000D01*
X113600000Y-129900000D02*
X113600000Y-125100000D01*
X119000000Y-131670000D02*
X119000000Y-129000000D01*
X119000000Y-129000000D02*
X118457101Y-128457101D01*
X118457101Y-128457101D02*
X116457101Y-128457101D01*
X116457101Y-128457101D02*
X116200000Y-128200000D01*
X116200000Y-128200000D02*
X116200000Y-126600000D01*
X116200000Y-126600000D02*
X118900000Y-123900000D01*
X118900000Y-123900000D02*
X119000000Y-123900000D01*
X126900000Y-116000000D02*
X126900000Y-117100000D01*
X177500000Y-125210000D02*
X177860000Y-124850000D01*
X177860000Y-124850000D02*
X184470000Y-124850000D01*
X184470000Y-124850000D02*
X189930000Y-130310000D01*
X189930000Y-130310000D02*
X189930000Y-133520000D01*
X189930000Y-133520000D02*
X192420000Y-136010000D01*
X176634933Y-125300000D02*
X176150000Y-125300000D01*
X177500000Y-125210000D02*
X177410000Y-125300000D01*
X177410000Y-125300000D02*
X176634933Y-125300000D01*
X172923514Y-121992846D02*
X173266413Y-122335745D01*
X170261688Y-119331020D02*
X172923514Y-121992846D01*
X161050000Y-119331020D02*
X170261688Y-119331020D01*
X147028440Y-124800000D02*
X157177474Y-124800000D01*
X158227474Y-123750000D02*
X158783113Y-123750000D01*
X157177474Y-124800000D02*
X158227474Y-123750000D01*
X146568980Y-125259460D02*
X147028440Y-124800000D01*
X158783113Y-123750000D02*
X160776599Y-121756514D01*
X160776599Y-121756514D02*
X161119498Y-121413615D01*
X128707194Y-124578094D02*
X128856267Y-124727167D01*
X128856267Y-124727167D02*
X130025800Y-124727167D01*
X128707194Y-123588628D02*
X128707194Y-124578094D01*
X130598633Y-125300000D02*
X137100000Y-125300000D01*
X137100000Y-125300000D02*
X140381935Y-122018065D01*
X126900000Y-121781434D02*
X128707194Y-123588628D01*
X126900000Y-119700000D02*
X126900000Y-121781434D01*
X145775732Y-122018065D02*
X146260665Y-122018065D01*
X140381935Y-122018065D02*
X145775732Y-122018065D01*
X130025800Y-124727167D02*
X130598633Y-125300000D01*
X146302271Y-125526169D02*
X146568980Y-125259460D01*
X147000000Y-127500000D02*
X147000000Y-126868096D01*
X147000000Y-126868096D02*
X146302271Y-126170367D01*
X146302271Y-126170367D02*
X146302271Y-125526169D01*
X177500000Y-127500000D02*
X177500000Y-125210000D01*
D37*
X152610000Y-107170000D02*
X152952899Y-106827101D01*
X152952899Y-106827101D02*
X153642899Y-106827101D01*
X153642899Y-106827101D02*
X154610000Y-105860000D01*
X155750000Y-105860000D02*
X156114000Y-106224000D01*
X154610000Y-105860000D02*
X155750000Y-105860000D01*
D38*
X119640000Y-105410000D02*
X119239520Y-105410000D01*
X119239520Y-105410000D02*
X118650000Y-105999520D01*
X118650000Y-105999520D02*
X118650000Y-106550700D01*
D37*
X178900000Y-111300000D02*
X171200000Y-111300000D01*
X171200000Y-111300000D02*
X169000000Y-109100000D01*
X169000000Y-109100000D02*
X165484080Y-109100000D01*
X165484080Y-109100000D02*
X162545300Y-106161220D01*
X152267101Y-106827101D02*
X152610000Y-107170000D01*
X127738408Y-107750000D02*
X130760000Y-107750000D01*
X120570000Y-106340000D02*
X126328408Y-106340000D01*
X130760000Y-107750000D02*
X133050000Y-105460000D01*
X133050000Y-105460000D02*
X150900000Y-105460000D01*
X150900000Y-105460000D02*
X152267101Y-106827101D01*
X126328408Y-106340000D02*
X127738408Y-107750000D01*
X116940000Y-105410000D02*
X119640000Y-105410000D01*
X119640000Y-105410000D02*
X120570000Y-106340000D01*
X114800000Y-105380000D02*
X116910000Y-105380000D01*
X116910000Y-105380000D02*
X116940000Y-105410000D01*
D38*
X158110316Y-106224000D02*
X156114000Y-106224000D01*
X188610000Y-106200000D02*
X163600000Y-106200000D01*
X163600000Y-106200000D02*
X163400000Y-106000000D01*
X156900933Y-107024000D02*
X156724933Y-107200000D01*
X156724933Y-107200000D02*
X156240000Y-107200000D01*
X158110316Y-107024000D02*
X156900933Y-107024000D01*
X156853578Y-111234603D02*
X156627787Y-111234603D01*
X158110316Y-110576401D02*
X157511780Y-110576401D01*
X156627787Y-111234603D02*
X156142854Y-111234603D01*
X157511780Y-110576401D02*
X156853578Y-111234603D01*
X155900882Y-110663083D02*
X155415949Y-110663083D01*
X156994031Y-110663083D02*
X155900882Y-110663083D01*
X157480713Y-110176401D02*
X156994031Y-110663083D01*
X158110316Y-110176401D02*
X157480713Y-110176401D01*
X155517156Y-111936370D02*
X155032223Y-111936370D01*
X156494679Y-111936370D02*
X155517156Y-111936370D01*
X156781526Y-111737722D02*
X156693327Y-111737722D01*
X158110316Y-110976401D02*
X157542847Y-110976401D01*
X157542847Y-110976401D02*
X156781526Y-111737722D01*
X156693327Y-111737722D02*
X156494679Y-111936370D01*
X156139114Y-113154070D02*
X154800726Y-113154070D01*
X156945839Y-112347344D02*
X156139114Y-113154070D01*
X157034038Y-112347344D02*
X156945839Y-112347344D01*
X154726419Y-113079763D02*
X154383520Y-112736864D01*
X157604981Y-111776401D02*
X157034038Y-112347344D01*
X158110316Y-111776401D02*
X157604981Y-111776401D01*
X154800726Y-113154070D02*
X154726419Y-113079763D01*
X156819583Y-112042533D02*
X156327621Y-112534495D01*
X156907782Y-112042533D02*
X156819583Y-112042533D01*
X157573914Y-111376401D02*
X156907782Y-112042533D01*
X156327621Y-112534495D02*
X155910590Y-112534495D01*
X158110316Y-111376401D02*
X157573914Y-111376401D01*
X155884558Y-113770411D02*
X155857317Y-113770411D01*
X157412615Y-112461968D02*
X157381548Y-112461968D01*
X155857317Y-113770411D02*
X155372384Y-113770411D01*
X157634060Y-112271590D02*
X157553516Y-112352134D01*
X157760316Y-112176401D02*
X157665127Y-112271590D01*
X157160294Y-112652155D02*
X157072095Y-112652155D01*
X157536283Y-112366779D02*
X157507804Y-112366779D01*
X157255292Y-112557157D02*
X157160294Y-112652155D01*
X157381548Y-112461968D02*
X157286359Y-112557157D01*
X157507804Y-112366779D02*
X157412615Y-112461968D01*
X157553516Y-112352134D02*
X157536283Y-112366779D01*
X157072095Y-112652155D02*
X156345909Y-113378341D01*
X158110316Y-112176401D02*
X157760316Y-112176401D01*
X156345909Y-113378341D02*
X155884558Y-113770411D01*
X157286359Y-112557157D02*
X157255292Y-112557157D01*
X157665127Y-112271590D02*
X157634060Y-112271590D01*
X155460914Y-114513792D02*
X155281835Y-114334713D01*
X154723292Y-114334713D02*
X154573948Y-114185369D01*
X155281835Y-114334713D02*
X154723292Y-114334713D01*
X155471256Y-114517536D02*
X155460914Y-114513792D01*
X156616966Y-113548000D02*
X155476109Y-114517536D01*
X155476109Y-114517536D02*
X155471256Y-114517536D01*
X157208000Y-112956966D02*
X156616966Y-113548000D01*
X157286550Y-112956966D02*
X157208000Y-112956966D01*
X157381548Y-112861968D02*
X157286550Y-112956966D01*
X157412615Y-112861968D02*
X157381548Y-112861968D01*
X157634060Y-112671590D02*
X157553647Y-112752003D01*
X157648307Y-112671590D02*
X157634060Y-112671590D01*
X157553647Y-112752003D02*
X157536261Y-112766779D01*
X158110316Y-112576401D02*
X157760316Y-112576401D01*
X157760316Y-112576401D02*
X157648307Y-112671590D01*
X157536261Y-112766779D02*
X157507804Y-112766779D01*
X157507804Y-112766779D02*
X157412615Y-112861968D01*
X157536282Y-113166779D02*
X157507804Y-113166779D01*
X157553518Y-113152132D02*
X157536282Y-113166779D01*
X157634060Y-113071590D02*
X157553518Y-113152132D01*
X157760316Y-112976401D02*
X157665127Y-113071590D01*
X158110316Y-112976401D02*
X157760316Y-112976401D01*
X157665127Y-113071590D02*
X157634060Y-113071590D01*
X157507804Y-113166779D02*
X157412806Y-113261777D01*
X156921777Y-113688973D02*
X155588132Y-114822347D01*
X157348973Y-113261777D02*
X156921777Y-113688973D01*
X157412806Y-113261777D02*
X157348973Y-113261777D01*
X155588132Y-114822347D02*
X155091380Y-114822347D01*
X155091380Y-114822347D02*
X155007512Y-114906215D01*
X155607425Y-115127158D02*
X155256848Y-115477735D01*
X154824250Y-115598934D02*
X154339317Y-115598934D01*
X154945449Y-115477735D02*
X154824250Y-115598934D01*
X155256848Y-115477735D02*
X154945449Y-115477735D01*
X155700156Y-115127158D02*
X155607425Y-115127158D01*
X157226588Y-113829946D02*
X155700156Y-115127158D01*
X157489946Y-113566588D02*
X157226588Y-113829946D01*
X157648307Y-113471590D02*
X157553309Y-113566588D01*
X157553309Y-113566588D02*
X157489946Y-113566588D01*
X157760316Y-113376401D02*
X157648307Y-113471590D01*
X158110316Y-113376401D02*
X157760316Y-113376401D01*
X155342941Y-115822709D02*
X155299856Y-115822709D01*
X157526728Y-113974889D02*
X155812180Y-115431969D01*
X155299856Y-115822709D02*
X154956957Y-116165608D01*
X157630218Y-113871399D02*
X157526728Y-113974889D01*
X158015318Y-113871399D02*
X157630218Y-113871399D01*
X158110316Y-113776401D02*
X158015318Y-113871399D01*
X155733681Y-115431969D02*
X155342941Y-115822709D01*
X155812180Y-115431969D02*
X155733681Y-115431969D01*
X155562757Y-116033960D02*
X155562757Y-116943692D01*
X155562757Y-116943692D02*
X155641520Y-117022455D01*
X155859937Y-115736780D02*
X155562757Y-116033960D01*
X157659136Y-114262376D02*
X155924204Y-115736780D01*
X155924204Y-115736780D02*
X155859937Y-115736780D01*
X158024341Y-114262376D02*
X157659136Y-114262376D01*
X158110316Y-114176401D02*
X158024341Y-114262376D01*
X158110316Y-114976401D02*
X157760316Y-114976401D01*
X157760316Y-114976401D02*
X156643057Y-115925886D01*
X156643057Y-115925886D02*
X156699637Y-116227803D01*
X156699637Y-116227803D02*
X156788823Y-116834445D01*
X155961549Y-116105055D02*
X156134258Y-116308281D01*
X158110316Y-114576401D02*
X157760316Y-114576401D01*
X157760316Y-114576401D02*
X155961549Y-116105055D01*
X158255617Y-115800200D02*
X158255617Y-116945501D01*
X157092307Y-115944098D02*
X157265015Y-116147324D01*
X158110316Y-115376401D02*
X157760316Y-115376401D01*
X157760316Y-115376401D02*
X157092307Y-115944098D01*
X161076458Y-133530000D02*
X157664269Y-133530000D01*
X149563113Y-132366979D02*
X145166979Y-132366979D01*
X145166979Y-132366979D02*
X141000000Y-128200000D01*
X150730189Y-133534055D02*
X149563113Y-132366979D01*
X141000000Y-128200000D02*
X141000000Y-127500000D01*
X157664269Y-133530000D02*
X157660214Y-133534055D01*
X162926458Y-135380000D02*
X161076458Y-133530000D01*
X157660214Y-133534055D02*
X150730189Y-133534055D01*
X168924322Y-132051502D02*
X168609947Y-132051502D01*
X164136458Y-134170000D02*
X162926458Y-135380000D01*
X166491449Y-134170000D02*
X164136458Y-134170000D01*
X168609947Y-132051502D02*
X166491449Y-134170000D01*
X169221502Y-131754322D02*
X168924322Y-132051502D01*
X169221502Y-130930898D02*
X169221502Y-131754322D01*
X171500000Y-127500000D02*
X171500000Y-128652400D01*
X171500000Y-128652400D02*
X169221502Y-130930898D01*
X163200000Y-135653542D02*
X162926458Y-135380000D01*
X163200000Y-137270000D02*
X163200000Y-135653542D01*
X164480000Y-138550000D02*
X163200000Y-137270000D01*
X168736203Y-132356313D02*
X165946115Y-135146401D01*
X169050578Y-132356313D02*
X168736203Y-132356313D01*
X165946115Y-135146401D02*
X165343599Y-135146401D01*
X165343599Y-135146401D02*
X164480000Y-136010000D01*
X161202714Y-133225189D02*
X161628665Y-133651140D01*
X163030324Y-133651140D02*
X163515257Y-133651140D01*
X161628665Y-133651140D02*
X163030324Y-133651140D01*
X157538013Y-133225189D02*
X161202714Y-133225189D01*
X157533958Y-133229244D02*
X157538013Y-133225189D01*
X150856445Y-133229244D02*
X157533958Y-133229244D01*
X149689369Y-132062168D02*
X150856445Y-133229244D01*
X145862168Y-132062168D02*
X149689369Y-132062168D01*
X142000000Y-127500000D02*
X142000000Y-128200000D01*
X142000000Y-128200000D02*
X145862168Y-132062168D01*
X172047600Y-128652400D02*
X171994489Y-128652400D01*
X169526313Y-131880578D02*
X169050578Y-132356313D01*
X172500000Y-127500000D02*
X172500000Y-128200000D01*
X171994489Y-128652400D02*
X169526313Y-131120576D01*
X169526313Y-131120576D02*
X169526313Y-131880578D01*
X172500000Y-128200000D02*
X172047600Y-128652400D01*
X154203175Y-125368980D02*
X153718242Y-125368980D01*
X169171205Y-125452271D02*
X158331204Y-125452271D01*
X169500000Y-125781066D02*
X169171205Y-125452271D01*
X169500000Y-127500000D02*
X169500000Y-125781066D01*
X158331204Y-125452271D02*
X158247913Y-125368980D01*
X158247913Y-125368980D02*
X154203175Y-125368980D01*
X145453252Y-124014323D02*
X146174388Y-123293187D01*
X139000000Y-127500000D02*
X139000000Y-126800000D01*
X141785677Y-124014323D02*
X145453252Y-124014323D01*
X139000000Y-126800000D02*
X141785677Y-124014323D01*
X146174388Y-123293187D02*
X154284453Y-123293187D01*
X154284453Y-123293187D02*
X154499077Y-123078563D01*
X133002063Y-132140000D02*
X132173102Y-132968961D01*
X139000000Y-129890000D02*
X136750000Y-132140000D01*
X139000000Y-127500000D02*
X139000000Y-129890000D01*
X136750000Y-132140000D02*
X133002063Y-132140000D01*
X132173102Y-132968961D02*
X131526896Y-132968961D01*
X126449300Y-127891365D02*
X126449300Y-127839149D01*
X126449300Y-127839149D02*
X126449300Y-127287969D01*
X131526896Y-132968961D02*
X126449300Y-127891365D01*
X168418240Y-130341760D02*
X168075341Y-130684659D01*
X169500000Y-129260000D02*
X168418240Y-130341760D01*
X169500000Y-127500000D02*
X169500000Y-129260000D01*
X170500000Y-127500000D02*
X170500000Y-126347600D01*
X170500000Y-126347600D02*
X169302400Y-125150000D01*
X169302400Y-125150000D02*
X158550000Y-125150000D01*
X158400000Y-125000000D02*
X158309999Y-125000000D01*
X158550000Y-125150000D02*
X158400000Y-125000000D01*
X158309999Y-125000000D02*
X158046066Y-124736067D01*
X156372410Y-123845458D02*
X157201661Y-123016207D01*
X142480866Y-124319134D02*
X145575916Y-124319134D01*
X157201661Y-123016207D02*
X157544560Y-122673308D01*
X146049592Y-123845458D02*
X156372410Y-123845458D01*
X145575916Y-124319134D02*
X146049592Y-123845458D01*
X140000000Y-126800000D02*
X142480866Y-124319134D01*
X140000000Y-127500000D02*
X140000000Y-126800000D01*
X169176834Y-132661124D02*
X169831124Y-132006834D01*
X169831124Y-131553054D02*
X170991279Y-130392899D01*
X167020000Y-136010000D02*
X167020000Y-134788686D01*
X167020000Y-134788686D02*
X169147562Y-132661124D01*
X171067101Y-130392899D02*
X171410000Y-130050000D01*
X169147562Y-132661124D02*
X169176834Y-132661124D01*
X169831124Y-132006834D02*
X169831124Y-131553054D01*
X170991279Y-130392899D02*
X171067101Y-130392899D01*
X170360000Y-129100000D02*
X170500000Y-128960000D01*
X170210000Y-129100000D02*
X170360000Y-129100000D01*
X126449300Y-130787969D02*
X126449300Y-131339149D01*
X126449300Y-131339149D02*
X127670151Y-132560000D01*
X127670151Y-132560000D02*
X130690460Y-132560000D01*
X130690460Y-132560000D02*
X131401692Y-133271232D01*
X136920000Y-132560000D02*
X140000000Y-129480000D01*
X131401692Y-133271232D02*
X132298306Y-133271232D01*
X132298306Y-133271232D02*
X133009538Y-132560000D01*
X133009538Y-132560000D02*
X136920000Y-132560000D01*
X140000000Y-129480000D02*
X140000000Y-127500000D01*
X170500000Y-128960000D02*
X170500000Y-127500000D01*
X127040000Y-135460000D02*
X126449300Y-134869300D01*
X126449300Y-134869300D02*
X126449300Y-134287969D01*
X131610000Y-139840000D02*
X128030000Y-136260000D01*
X168270000Y-139840000D02*
X131610000Y-139840000D01*
X169560000Y-138550000D02*
X168270000Y-139840000D01*
X168500000Y-127500000D02*
X168500000Y-126115910D01*
X168500000Y-126115910D02*
X168405341Y-126021251D01*
X146965798Y-125994907D02*
X147856163Y-125104542D01*
X147856163Y-125104542D02*
X149686286Y-125104542D01*
X167920408Y-126021251D02*
X168405341Y-126021251D01*
X150602995Y-126021251D02*
X167920408Y-126021251D01*
X149686286Y-125104542D02*
X150602995Y-126021251D01*
X138000000Y-127500000D02*
X138000000Y-126800000D01*
X141125793Y-123674207D02*
X145365893Y-123674207D01*
X138000000Y-126800000D02*
X141125793Y-123674207D01*
X145365893Y-123674207D02*
X146049184Y-122990916D01*
X146049184Y-122990916D02*
X147387420Y-122990916D01*
X147387420Y-122990916D02*
X147654129Y-122724207D01*
X165014214Y-133010491D02*
X165230054Y-133226331D01*
X161328970Y-132920378D02*
X161419083Y-133010491D01*
X165230054Y-133226331D02*
X165714987Y-133226331D01*
X143000000Y-128200000D02*
X146557357Y-131757357D01*
X143000000Y-127500000D02*
X143000000Y-128200000D01*
X157411757Y-132920378D02*
X161328970Y-132920378D01*
X149815625Y-131757357D02*
X150982701Y-132924433D01*
X157407702Y-132924433D02*
X157411757Y-132920378D01*
X146557357Y-131757357D02*
X149815625Y-131757357D01*
X161419083Y-133010491D02*
X165014214Y-133010491D01*
X150982701Y-132924433D02*
X157407702Y-132924433D01*
X173500000Y-132062201D02*
X170652201Y-134910000D01*
X173500000Y-127500000D02*
X173500000Y-132062201D01*
X169449747Y-133856027D02*
X169106848Y-133513128D01*
X170503720Y-134910000D02*
X169449747Y-133856027D01*
X170652201Y-134910000D02*
X170503720Y-134910000D01*
X170652201Y-134910000D02*
X170652201Y-137102201D01*
X170652201Y-137102201D02*
X171236401Y-137686401D01*
X171236401Y-137686401D02*
X172100000Y-138550000D01*
X170868021Y-133141937D02*
X171210920Y-133484836D01*
X170614060Y-132887976D02*
X170868021Y-133141937D01*
X169758234Y-132887976D02*
X170614060Y-132887976D01*
X172100000Y-134788686D02*
X172100000Y-136010000D01*
X166409172Y-132921520D02*
X166894105Y-132921520D01*
X166142463Y-132654811D02*
X166409172Y-132921520D01*
X172100000Y-134204178D02*
X172100000Y-134788686D01*
X174500000Y-131804178D02*
X172100000Y-134204178D01*
X161494470Y-132654811D02*
X166142463Y-132654811D01*
X161455226Y-132615567D02*
X161494470Y-132654811D01*
X144000000Y-127500000D02*
X144000000Y-128200000D01*
X144000000Y-128200000D02*
X147252546Y-131452546D01*
X149941881Y-131452546D02*
X151108957Y-132619622D01*
X157281446Y-132619622D02*
X157285501Y-132615567D01*
X151108957Y-132619622D02*
X157281446Y-132619622D01*
X147252546Y-131452546D02*
X149941881Y-131452546D01*
X157285501Y-132615567D02*
X161455226Y-132615567D01*
X174500000Y-127500000D02*
X174500000Y-131804178D01*
X161190316Y-115376401D02*
X161540316Y-115376401D01*
X161540316Y-115376401D02*
X162208326Y-115944098D01*
X162208326Y-115944098D02*
X162035617Y-116147324D01*
X161045015Y-115800200D02*
X161045015Y-116945501D01*
X161190316Y-114576401D02*
X161540316Y-114576401D01*
X161540316Y-114576401D02*
X163339083Y-116105055D01*
X163339083Y-116105055D02*
X163166374Y-116308281D01*
X162600996Y-116227803D02*
X162511810Y-116834445D01*
X162657575Y-115925886D02*
X162600996Y-116227803D01*
X161540316Y-114976401D02*
X162657575Y-115925886D01*
X161190316Y-114976401D02*
X161540316Y-114976401D01*
X164428518Y-116238406D02*
X164428518Y-117134267D01*
X161540316Y-113776401D02*
X164378499Y-116188387D01*
X161190316Y-113776401D02*
X161540316Y-113776401D01*
X164378499Y-116188387D02*
X164428518Y-116238406D01*
X164428518Y-117134267D02*
X164428518Y-117619200D01*
X164080793Y-116652502D02*
X163737894Y-116995401D01*
X164080793Y-116379303D02*
X164080793Y-116652502D01*
X163788332Y-116086842D02*
X164080793Y-116379303D01*
X161190316Y-114176401D02*
X161540316Y-114176401D01*
X161540316Y-114176401D02*
X163788332Y-116086842D01*
X180118980Y-125418980D02*
X179252204Y-125418980D01*
X179252204Y-125418980D02*
X178767271Y-125418980D01*
X181500000Y-127500000D02*
X181500000Y-126800000D01*
X181500000Y-126800000D02*
X180118980Y-125418980D01*
X159795189Y-113423744D02*
X159795189Y-117373745D01*
X160218933Y-113000000D02*
X159795189Y-113423744D01*
X161190000Y-113000000D02*
X160218933Y-113000000D01*
X152161003Y-121803459D02*
X151946397Y-122018065D01*
X159795189Y-117373745D02*
X155365475Y-121803459D01*
X155365475Y-121803459D02*
X152161003Y-121803459D01*
X151946397Y-122018065D02*
X151461464Y-122018065D01*
X151000000Y-127500000D02*
X151000000Y-128942374D01*
X151000000Y-128942374D02*
X151310878Y-129253252D01*
X181500000Y-132260000D02*
X181500000Y-127500000D01*
X161190316Y-112976401D02*
X161540316Y-112976401D01*
X161540316Y-112976401D02*
X164112665Y-115162471D01*
X164112665Y-115162471D02*
X164285373Y-114959245D01*
X183550000Y-134310000D02*
X181500000Y-132260000D01*
X183550000Y-137260000D02*
X183550000Y-134310000D01*
X182260000Y-138550000D02*
X183550000Y-137260000D01*
X150752797Y-122587045D02*
X150486088Y-122320336D01*
X150486088Y-122320336D02*
X150001155Y-122320336D01*
X160100000Y-113987600D02*
X160100000Y-117500000D01*
X155494270Y-122105730D02*
X153849419Y-122105730D01*
X160100000Y-117500000D02*
X155494270Y-122105730D01*
X153368104Y-122587045D02*
X150752797Y-122587045D01*
X153849419Y-122105730D02*
X153368104Y-122587045D01*
X160687600Y-113400000D02*
X160100000Y-113987600D01*
X161190000Y-113400000D02*
X160687600Y-113400000D01*
X182260000Y-136010000D02*
X182260000Y-134788686D01*
X182260000Y-134788686D02*
X180500000Y-133028686D01*
X180500000Y-133028686D02*
X180500000Y-128652400D01*
X150000000Y-127500000D02*
X150000000Y-128771748D01*
X150000000Y-128771748D02*
X150169126Y-128940874D01*
X180500000Y-126800000D02*
X179704688Y-126004688D01*
X180500000Y-127500000D02*
X180500000Y-126800000D01*
X179704688Y-126004688D02*
X179365392Y-126004688D01*
X164673709Y-115608776D02*
X165240000Y-116175067D01*
X164167151Y-115608776D02*
X164673709Y-115608776D01*
X161190316Y-113376401D02*
X161540316Y-113376401D01*
X165240000Y-116175067D02*
X165240000Y-116660000D01*
X161540316Y-113376401D02*
X164167151Y-115608776D01*
X180500000Y-128652400D02*
X180500000Y-127500000D01*
X161190316Y-112176401D02*
X161540316Y-112176401D01*
X161540316Y-112176401D02*
X163771433Y-114072481D01*
X163771433Y-114072481D02*
X163944142Y-113869254D01*
X164114757Y-114414250D02*
X164700097Y-114231642D01*
X163825920Y-114518785D02*
X164114757Y-114414250D01*
X161540316Y-112576401D02*
X163825920Y-114518785D01*
X161190316Y-112576401D02*
X161540316Y-112576401D01*
X163062521Y-112670000D02*
X163210008Y-112670000D01*
X161742676Y-111548350D02*
X163062521Y-112670000D01*
X161190316Y-111376401D02*
X161570727Y-111376401D01*
X161570727Y-111376401D02*
X161742676Y-111548350D01*
X163210008Y-112670000D02*
X163388304Y-112491704D01*
X163388304Y-112491704D02*
X163731203Y-112148805D01*
X164054675Y-112912899D02*
X164127101Y-112912899D01*
X163569460Y-113398114D02*
X164054675Y-112912899D01*
X164127101Y-112912899D02*
X164470000Y-112570000D01*
X163484697Y-113428791D02*
X163569460Y-113398114D01*
X161641496Y-111862376D02*
X163484697Y-113428791D01*
X161276291Y-111862376D02*
X161641496Y-111862376D01*
X161190316Y-111776401D02*
X161276291Y-111862376D01*
X162685067Y-111070000D02*
X163170000Y-111070000D01*
X162221218Y-111070000D02*
X162685067Y-111070000D01*
X161727619Y-110576401D02*
X162221218Y-111070000D01*
X161190316Y-110576401D02*
X161727619Y-110576401D01*
X161190316Y-110976401D02*
X161601794Y-110976401D01*
X161601794Y-110976401D02*
X161949473Y-111324080D01*
X161949473Y-111324080D02*
X162998500Y-112215579D01*
X162998500Y-112215579D02*
X163164149Y-112049931D01*
X163164149Y-112049931D02*
X163164149Y-111899308D01*
X163692640Y-111370817D02*
X164043185Y-111370817D01*
X163164149Y-111899308D02*
X163692640Y-111370817D01*
X175000000Y-125400000D02*
X177850000Y-122550000D01*
X193700000Y-132000000D02*
X193700000Y-137270000D01*
X177850000Y-122550000D02*
X184250000Y-122550000D01*
X184250000Y-122550000D02*
X193700000Y-132000000D01*
X193700000Y-137270000D02*
X192420000Y-138550000D01*
X175000000Y-125400000D02*
X175342899Y-125742899D01*
X175342899Y-125742899D02*
X175442899Y-125742899D01*
X176500000Y-126800000D02*
X176500000Y-127500000D01*
X175442899Y-125742899D02*
X176500000Y-126800000D01*
X169650000Y-119900000D02*
X172650000Y-122900000D01*
X159850000Y-119900000D02*
X169650000Y-119900000D01*
X146300000Y-124450000D02*
X157100000Y-124450000D01*
X157100000Y-124450000D02*
X160300000Y-121250000D01*
X146000000Y-124750000D02*
X146300000Y-124450000D01*
X146000000Y-127500000D02*
X146000000Y-124750000D01*
X188610000Y-106600000D02*
X187757600Y-106600000D01*
X187757600Y-106600000D02*
X187370000Y-106987600D01*
X188610000Y-107000000D02*
X187757600Y-107000000D01*
X187757600Y-107000000D02*
X187745200Y-106987600D01*
X187745200Y-106987600D02*
X187370000Y-106987600D01*
X188610000Y-107400000D02*
X187082400Y-107400000D01*
X187082400Y-107400000D02*
X187020000Y-107337600D01*
X188610000Y-107800000D02*
X188260000Y-107800000D01*
X188610000Y-108200000D02*
X188260000Y-108200000D01*
X188610000Y-108600000D02*
X188260000Y-108600000D01*
X188610000Y-109400000D02*
X186970000Y-109400000D01*
X186970000Y-109400000D02*
X186930000Y-109440000D01*
X186930000Y-109440000D02*
X186770000Y-109280000D01*
X186770000Y-109280000D02*
X186770000Y-109010000D01*
X188610000Y-109000000D02*
X187757600Y-109000000D01*
X187757600Y-109000000D02*
X187747600Y-109010000D01*
X187747600Y-109010000D02*
X186770000Y-109010000D01*
X164512899Y-107112899D02*
X164170000Y-106770000D01*
X186770000Y-108200000D02*
X165600000Y-108200000D01*
X165600000Y-108200000D02*
X164512899Y-107112899D01*
D37*
X111189000Y-105410000D02*
X110560000Y-105410000D01*
X112194751Y-105410000D02*
X111189000Y-105410000D01*
X113821239Y-103783512D02*
X112194751Y-105410000D01*
X113851239Y-103783512D02*
X113821239Y-103783512D01*
X114850000Y-102784751D02*
X113851239Y-103783512D01*
X114850000Y-102700000D02*
X114850000Y-102784751D01*
X110560000Y-105410000D02*
X112570000Y-105410000D01*
X112570000Y-105410000D02*
X112600000Y-105380000D01*
X114850000Y-102700000D02*
X116800000Y-102700000D01*
X116800000Y-102700000D02*
X117750000Y-101750000D01*
X121440000Y-105440000D02*
X117750000Y-101750000D01*
D38*
X157390000Y-107400000D02*
X156990000Y-107800000D01*
X156990000Y-107800000D02*
X156800000Y-107990000D01*
X158110000Y-107800000D02*
X157607600Y-107800000D01*
X157607600Y-107800000D02*
X156990000Y-107800000D01*
X158110000Y-108200000D02*
X157020000Y-108200000D01*
X157020000Y-108200000D02*
X156800000Y-108420000D01*
X158110000Y-108600000D02*
X156980000Y-108600000D01*
X156980000Y-108600000D02*
X156800000Y-108420000D01*
X157420000Y-109400000D02*
X157020000Y-109000000D01*
X157020000Y-109000000D02*
X156800000Y-108780000D01*
X158110000Y-109000000D02*
X157380000Y-109000000D01*
X157380000Y-109000000D02*
X157020000Y-109000000D01*
X158110000Y-109400000D02*
X157420000Y-109400000D01*
X156800000Y-108780000D02*
X156800000Y-108420000D01*
X158110000Y-107400000D02*
X157390000Y-107400000D01*
X156800000Y-107990000D02*
X156800000Y-108420000D01*
X186770000Y-108200000D02*
X186770000Y-108600000D01*
X186770000Y-108600000D02*
X186770000Y-109010000D01*
X188260000Y-108600000D02*
X186770000Y-108600000D01*
X186770000Y-107587600D02*
X186770000Y-107800000D01*
X186770000Y-107800000D02*
X186770000Y-108200000D01*
X188260000Y-107800000D02*
X186770000Y-107800000D01*
X187370000Y-106987600D02*
X187020000Y-107337600D01*
X187020000Y-107337600D02*
X186770000Y-107587600D01*
X186770000Y-108200000D02*
X188260000Y-108200000D01*
D37*
X131810000Y-105440000D02*
X121440000Y-105440000D01*
X156800000Y-108420000D02*
X134670000Y-108420000D01*
X134670000Y-108420000D02*
X133210000Y-106960000D01*
X131810000Y-105440000D02*
X131810000Y-98090000D01*
X137800000Y-92100000D02*
X137800000Y-86470000D01*
X131810000Y-98090000D02*
X137800000Y-92100000D01*
X137800000Y-86470000D02*
X136540000Y-85210000D01*
D38*
X157638667Y-105400000D02*
X158110000Y-105400000D01*
X153976396Y-101737729D02*
X157638667Y-105400000D01*
X152617729Y-101737729D02*
X153976396Y-101737729D01*
X141620000Y-90740000D02*
X152617729Y-101737729D01*
X141620000Y-87750000D02*
X141620000Y-90740000D01*
X141620000Y-85210000D02*
X140360000Y-86470000D01*
X157607600Y-105800000D02*
X158110000Y-105800000D01*
X153938746Y-102131146D02*
X157607600Y-105800000D01*
X152214344Y-102131146D02*
X153938746Y-102131146D01*
X141418961Y-91335763D02*
X152214344Y-102131146D01*
X141418961Y-91176898D02*
X141418961Y-91335763D01*
X140360000Y-90117937D02*
X141418961Y-91176898D01*
X140360000Y-86470000D02*
X140360000Y-90117937D01*
X157049345Y-103824000D02*
X158110316Y-103824000D01*
X144160000Y-90934655D02*
X157049345Y-103824000D01*
X144160000Y-87750000D02*
X144160000Y-90934655D01*
X144160000Y-85210000D02*
X142900000Y-86470000D01*
X142900000Y-86470000D02*
X142900000Y-90160000D01*
X142900000Y-90160000D02*
X153781156Y-101041156D01*
X153781156Y-101041156D02*
X153781156Y-101111423D01*
X153781156Y-101111423D02*
X157669733Y-105000000D01*
X157669733Y-105000000D02*
X158110000Y-105000000D01*
X158110316Y-101824000D02*
X157733896Y-101824000D01*
X157440702Y-101530806D02*
X157384812Y-101530805D01*
X157636165Y-101726270D02*
X157440702Y-101530806D01*
X157733896Y-101824000D02*
X157636165Y-101726270D01*
X157384812Y-101530805D02*
X157241115Y-101387103D01*
X156358204Y-100448310D02*
X154320000Y-98410103D01*
X156358204Y-100504193D02*
X156358204Y-100448310D01*
X157241115Y-101387103D02*
X156358204Y-100504193D01*
X154320000Y-98410103D02*
X154320000Y-88971314D01*
X154320000Y-88971314D02*
X154320000Y-87750000D01*
X153456401Y-86073599D02*
X154320000Y-85210000D01*
X153110000Y-97627577D02*
X153110000Y-86420000D01*
X156055933Y-100573514D02*
X153110000Y-97627577D01*
X153110000Y-86420000D02*
X153456401Y-86073599D01*
X157000343Y-101573805D02*
X156055933Y-100629397D01*
X156055933Y-100629397D02*
X156055933Y-100573514D01*
X157259602Y-101833073D02*
X157000343Y-101573805D01*
X157315496Y-101833074D02*
X157259602Y-101833073D01*
X157706422Y-102224000D02*
X157315496Y-101833074D01*
X158110316Y-102224000D02*
X157706422Y-102224000D01*
X159473703Y-98863738D02*
X159473703Y-98116416D01*
X159473703Y-98116416D02*
X159130804Y-97773517D01*
X159502271Y-98892306D02*
X159473703Y-98863738D01*
X158639875Y-104600000D02*
X159502271Y-103737604D01*
X158110000Y-104600000D02*
X158639875Y-104600000D01*
X159502271Y-103737604D02*
X159502271Y-98892306D01*
X157350000Y-93860000D02*
X157090000Y-93600000D01*
X157090000Y-93600000D02*
X157090000Y-90060000D01*
X157090000Y-90060000D02*
X159400000Y-87750000D01*
X158110000Y-104200000D02*
X158612400Y-104200000D01*
X158612400Y-104200000D02*
X159200000Y-103612400D01*
X159200000Y-103612400D02*
X159200000Y-99017510D01*
X159200000Y-99017510D02*
X158607726Y-98425236D01*
X156630000Y-94580000D02*
X156630000Y-89850000D01*
X156630000Y-89850000D02*
X158100000Y-88380000D01*
X158100000Y-86510000D02*
X158536401Y-86073599D01*
X158100000Y-88380000D02*
X158100000Y-86510000D01*
X158536401Y-86073599D02*
X159400000Y-85210000D01*
X156962746Y-96038906D02*
X158424153Y-94577499D01*
X158424153Y-94577499D02*
X158767052Y-94234600D01*
X156962746Y-100253785D02*
X156962746Y-96038906D01*
X158110316Y-101024000D02*
X158012585Y-100926269D01*
X158012585Y-100926269D02*
X157635230Y-100926269D01*
X157635230Y-100926269D02*
X156962746Y-100253785D01*
X159881020Y-93245025D02*
X159881020Y-93729958D01*
X159881020Y-92341505D02*
X159881020Y-93245025D01*
X161940000Y-87750000D02*
X161940000Y-90282525D01*
X161940000Y-90282525D02*
X159881020Y-92341505D01*
X156660475Y-100378989D02*
X156660475Y-95429463D01*
X157510022Y-101228537D02*
X157452983Y-101171496D01*
X157565907Y-101228538D02*
X157510022Y-101228537D01*
X158110316Y-101424000D02*
X157761370Y-101424000D01*
X156660475Y-95429463D02*
X158344285Y-93745653D01*
X158344285Y-93745653D02*
X158687184Y-93402754D01*
X157761370Y-101424000D02*
X157565907Y-101228538D01*
X157452983Y-101171496D02*
X156660475Y-100378989D01*
X160529826Y-90888041D02*
X160519984Y-90897883D01*
X161940000Y-85210000D02*
X160529826Y-86620174D01*
X160519984Y-90897883D02*
X160177085Y-91240782D01*
X160529826Y-86620174D02*
X160529826Y-90888041D01*
X165800000Y-89070000D02*
X165800000Y-93500000D01*
X164480000Y-87750000D02*
X165800000Y-89070000D01*
X165800000Y-93500000D02*
X164100000Y-95200000D01*
X164100000Y-95200000D02*
X160906387Y-95200000D01*
X160906387Y-95200000D02*
X160905030Y-95198643D01*
X157265015Y-97589553D02*
X158626216Y-96228352D01*
X158626216Y-96228352D02*
X158969115Y-95885453D01*
X157265015Y-100128580D02*
X157265015Y-97589553D01*
X158110316Y-100624000D02*
X157760435Y-100624000D01*
X157760435Y-100624000D02*
X157265015Y-100128580D01*
X167020000Y-87750000D02*
X167020000Y-92707475D01*
X161536709Y-95502271D02*
X161111879Y-95927101D01*
X164225204Y-95502271D02*
X161536709Y-95502271D01*
X167020000Y-92707475D02*
X164225204Y-95502271D01*
X161111879Y-95927101D02*
X160768980Y-96270000D01*
X158110000Y-100200000D02*
X158110000Y-99947600D01*
X157607600Y-98073179D02*
X158529838Y-97150941D01*
X157607600Y-99445200D02*
X157607600Y-98073179D01*
X158110000Y-99947600D02*
X157607600Y-99445200D01*
X158529838Y-97150941D02*
X158872737Y-96808042D01*
X167883599Y-86073599D02*
X167020000Y-85210000D01*
X168230000Y-90360000D02*
X168230000Y-86420000D01*
X164350408Y-95804542D02*
X167324811Y-92830139D01*
X164150408Y-95804542D02*
X164350408Y-95804542D01*
X161190000Y-98764950D02*
X164150408Y-95804542D01*
X161190000Y-100200000D02*
X161190000Y-98764950D01*
X167324811Y-91265189D02*
X168230000Y-90360000D01*
X167324811Y-92830139D02*
X167324811Y-91265189D01*
X168230000Y-86420000D02*
X167883599Y-86073599D01*
X169560000Y-89469999D02*
X169560000Y-88971314D01*
X164276388Y-96106813D02*
X164475612Y-96106813D01*
X164475612Y-96106813D02*
X167629622Y-92952803D01*
X161540284Y-100624000D02*
X162035617Y-100128667D01*
X161190316Y-100624000D02*
X161540284Y-100624000D01*
X167629622Y-91400377D02*
X169560000Y-89469999D01*
X169560000Y-88971314D02*
X169560000Y-87750000D01*
X167629622Y-92952803D02*
X167629622Y-91400377D01*
X162035617Y-100128667D02*
X162035617Y-98347584D01*
X162035617Y-98347584D02*
X164276388Y-96106813D01*
X170423599Y-86073599D02*
X169560000Y-85210000D01*
X170820000Y-86470000D02*
X170423599Y-86073599D01*
X162657572Y-98439230D02*
X170820000Y-90276802D01*
X162657572Y-100074504D02*
X162657572Y-98439230D01*
X170820000Y-90276802D02*
X170820000Y-86470000D01*
X161540300Y-101024000D02*
X162657572Y-100074504D01*
X161190316Y-101024000D02*
X161540300Y-101024000D01*
X161190316Y-101424000D02*
X161540316Y-101424000D01*
X163339083Y-99895346D02*
X163166374Y-99692120D01*
X163166374Y-99692120D02*
X163166374Y-98361494D01*
X161540316Y-101424000D02*
X163339083Y-99895346D01*
X163166374Y-98361494D02*
X172100000Y-89427868D01*
X172100000Y-89427868D02*
X172100000Y-87750000D01*
X173280000Y-86390000D02*
X172963599Y-86073599D01*
X173280000Y-88678934D02*
X173280000Y-86390000D01*
X163658004Y-98300930D02*
X173280000Y-88678934D01*
X172963599Y-86073599D02*
X172100000Y-85210000D01*
X163658004Y-99110000D02*
X163658004Y-98300930D01*
X163658004Y-99110000D02*
X163642567Y-99005000D01*
X163731753Y-99611642D02*
X163658004Y-99110000D01*
X163788332Y-99913558D02*
X163731753Y-99611642D01*
X161540316Y-101824000D02*
X163788332Y-99913558D01*
X161190316Y-101824000D02*
X161540316Y-101824000D01*
X161190316Y-102224000D02*
X161540316Y-102224000D01*
X161540316Y-102224000D02*
X164453897Y-99747939D01*
X164453897Y-99747939D02*
X164626605Y-99951165D01*
X164626605Y-99951165D02*
X164626605Y-97763395D01*
X164626605Y-97763395D02*
X174640000Y-87750000D01*
X175503599Y-86073599D02*
X174640000Y-85210000D01*
X175920000Y-86490000D02*
X175503599Y-86073599D01*
X175920000Y-88790000D02*
X175920000Y-86490000D01*
X164842264Y-100616670D02*
X165041329Y-100417605D01*
X164455989Y-100496161D02*
X164842264Y-100616670D01*
X165041329Y-100417605D02*
X165041329Y-99668671D01*
X165041329Y-99668671D02*
X175920000Y-88790000D01*
X164167151Y-100391625D02*
X164455989Y-100496161D01*
X161540316Y-102624000D02*
X164167151Y-100391625D01*
X161190316Y-102624000D02*
X161540316Y-102624000D01*
X161190316Y-103024000D02*
X161540316Y-103024000D01*
X161540316Y-103024000D02*
X164112665Y-100837930D01*
X164285373Y-101041156D02*
X164848844Y-101041156D01*
X164112665Y-100837930D02*
X164285373Y-101041156D01*
X164848844Y-101041156D02*
X176316401Y-89573599D01*
X176316401Y-89573599D02*
X176316401Y-88613599D01*
X176316401Y-88613599D02*
X177180000Y-87750000D01*
X178043599Y-86073599D02*
X177180000Y-85210000D01*
X178480000Y-88558934D02*
X178480000Y-86510000D01*
X178480000Y-86510000D02*
X178043599Y-86073599D01*
X165270175Y-101768759D02*
X178480000Y-88558934D01*
X164700097Y-101768759D02*
X165270175Y-101768759D01*
X164114757Y-101586151D02*
X164700097Y-101768759D01*
X163825920Y-101481616D02*
X164114757Y-101586151D01*
X161540316Y-103424000D02*
X163825920Y-101481616D01*
X161190316Y-103424000D02*
X161540316Y-103424000D01*
X161190316Y-103824000D02*
X161276290Y-103738026D01*
X161276290Y-103738026D02*
X161641496Y-103738026D01*
X161641496Y-103738026D02*
X163771440Y-101927927D01*
X163944142Y-102131146D02*
X165338854Y-102131146D01*
X163771440Y-101927927D02*
X163944142Y-102131146D01*
X165338854Y-102131146D02*
X179720000Y-87750000D01*
X180583599Y-86073599D02*
X179720000Y-85210000D01*
X180910000Y-88668934D02*
X180910000Y-86400000D01*
X163773526Y-102676142D02*
X164358866Y-102858749D01*
X166720185Y-102858749D02*
X180910000Y-88668934D01*
X164358866Y-102858749D02*
X166720185Y-102858749D01*
X163484709Y-102571613D02*
X163773526Y-102676142D01*
X161742676Y-104052052D02*
X163484709Y-102571613D01*
X180910000Y-86400000D02*
X180583599Y-86073599D01*
X161742664Y-104052052D02*
X161742676Y-104052052D01*
X161641496Y-104138026D02*
X161742664Y-104052052D01*
X161276290Y-104138026D02*
X161641496Y-104138026D01*
X161190316Y-104224000D02*
X161276290Y-104138026D01*
X161276290Y-104538026D02*
X161641496Y-104538026D01*
X161641496Y-104538026D02*
X161742663Y-104452053D01*
X161190316Y-104624000D02*
X161276290Y-104538026D01*
X161742663Y-104452053D02*
X161742673Y-104452053D01*
X161742673Y-104452053D02*
X161843844Y-104366077D01*
X161843856Y-104366078D02*
X163430220Y-103017932D01*
X161843844Y-104366077D02*
X161843856Y-104366078D01*
X163430220Y-103017932D02*
X163602910Y-103221137D01*
X163602910Y-103221137D02*
X166788863Y-103221137D01*
X166788863Y-103221137D02*
X182260000Y-87750000D01*
X173300000Y-124642063D02*
X175005537Y-126347600D01*
X175500000Y-126800000D02*
X175500000Y-127500000D01*
X175047600Y-126347600D02*
X175500000Y-126800000D01*
X175005537Y-126347600D02*
X175047600Y-126347600D01*
X173300000Y-124600000D02*
X173300000Y-124642063D01*
X156874797Y-124147729D02*
X159631038Y-121391488D01*
X146174796Y-124147729D02*
X156874797Y-124147729D01*
X160768145Y-120681038D02*
X160792502Y-120705395D01*
X160792502Y-120705395D02*
X169405395Y-120705395D01*
X145000000Y-127500000D02*
X145000000Y-125322525D01*
X169405395Y-120705395D02*
X173300000Y-124600000D01*
X159926897Y-120681038D02*
X160768145Y-120681038D01*
X159631038Y-120976897D02*
X159926897Y-120681038D01*
X159631038Y-121391488D02*
X159631038Y-120976897D01*
X145000000Y-125322525D02*
X146174796Y-124147729D01*
X181979821Y-113504713D02*
X181979821Y-113019780D01*
X173300000Y-124600000D02*
X181979821Y-115920179D01*
X181979821Y-115920179D02*
X181979821Y-113504713D01*
X161276290Y-104938026D02*
X161641496Y-104938026D01*
X161190316Y-105024000D02*
X161276290Y-104938026D01*
X161742673Y-104852053D02*
X161843841Y-104766080D01*
X161641496Y-104938026D02*
X161742663Y-104852053D01*
X161843841Y-104766080D02*
X161843849Y-104766080D01*
X161742663Y-104852053D02*
X161742673Y-104852053D01*
X161843849Y-104766080D02*
X161945022Y-104680103D01*
X161945036Y-104680104D02*
X163143497Y-103661611D01*
X161945022Y-104680103D02*
X161945036Y-104680104D01*
X163143497Y-103661611D02*
X163432294Y-103766132D01*
X164017634Y-103948740D02*
X171141260Y-103948740D01*
X163432294Y-103766132D02*
X164017634Y-103948740D01*
X171141260Y-103948740D02*
X187340000Y-87750000D01*
X188203599Y-86073599D02*
X187340000Y-85210000D01*
X188670000Y-86540000D02*
X188203599Y-86073599D01*
X188670000Y-88500000D02*
X188670000Y-86540000D01*
X172858872Y-104311128D02*
X188670000Y-88500000D01*
X163069547Y-104503259D02*
X163261678Y-104311128D01*
X162619900Y-104503259D02*
X163069547Y-104503259D01*
X163261678Y-104311128D02*
X172858872Y-104311128D01*
X162045373Y-104991512D02*
X162619900Y-104503259D01*
X161846527Y-105160469D02*
X162045349Y-104991511D01*
X162045349Y-104991511D02*
X162045373Y-104991512D01*
X161582996Y-105424000D02*
X161846527Y-105160469D01*
X161190316Y-105424000D02*
X161582996Y-105424000D01*
X162385845Y-105098847D02*
X162848338Y-105098847D01*
X161190316Y-105824000D02*
X161624632Y-105824000D01*
X161624632Y-105824000D02*
X162145711Y-105302921D01*
X162145711Y-105302921D02*
X162385845Y-105098847D01*
X163091062Y-104856123D02*
X172773877Y-104856123D01*
X162848338Y-105098847D02*
X163091062Y-104856123D01*
X172773877Y-104856123D02*
X189016401Y-88613599D01*
X189016401Y-88613599D02*
X189880000Y-87750000D01*
X191022988Y-86352988D02*
X190743599Y-86073599D01*
X174022383Y-105401118D02*
X191022988Y-88400513D01*
X162500742Y-105401118D02*
X174022383Y-105401118D01*
X191022988Y-88400513D02*
X191022988Y-86352988D01*
X190743599Y-86073599D02*
X189880000Y-85210000D01*
X161677860Y-106224000D02*
X162500742Y-105401118D01*
X161190316Y-106224000D02*
X161677860Y-106224000D01*
X159631039Y-94322042D02*
X159312058Y-94003061D01*
X159631039Y-95003565D02*
X159631039Y-94322042D01*
X160102271Y-95474797D02*
X159631039Y-95003565D01*
X160102271Y-98637356D02*
X160102271Y-95474797D01*
X159677475Y-107000000D02*
X160102271Y-106575204D01*
X160106813Y-103988012D02*
X160106813Y-98641898D01*
X160102271Y-103992554D02*
X160106813Y-103988012D01*
X159660000Y-107000000D02*
X159677475Y-107000000D01*
X160102271Y-106575204D02*
X160102271Y-103992554D01*
X159312058Y-94003061D02*
X159312058Y-92012058D01*
X159312058Y-92012058D02*
X158700000Y-91400000D01*
X160106813Y-98641898D02*
X160102271Y-98637356D01*
X159819914Y-109010000D02*
X159868980Y-109059066D01*
X159640000Y-109010000D02*
X159819914Y-109010000D01*
X160012979Y-109400000D02*
X159868980Y-109543999D01*
X159868980Y-109059066D02*
X159868980Y-109543999D01*
X161190000Y-109400000D02*
X160012979Y-109400000D01*
X122800000Y-108950000D02*
X122800000Y-110982751D01*
X122800000Y-110982751D02*
X122782751Y-111000000D01*
D37*
X158700000Y-91400000D02*
X158550000Y-91250000D01*
X167470000Y-112400000D02*
X185800000Y-112400000D01*
X185800000Y-112400000D02*
X191990000Y-112400000D01*
X185800000Y-112004000D02*
X185800000Y-112400000D01*
X185800000Y-111300000D02*
X185800000Y-112004000D01*
X191990000Y-112400000D02*
X194580000Y-109810000D01*
X163270000Y-108200000D02*
X167470000Y-112400000D01*
D38*
X160687600Y-106600000D02*
X160267600Y-107020000D01*
X159822065Y-107020000D02*
X159640000Y-107020000D01*
X160267600Y-107020000D02*
X159822065Y-107020000D01*
X161190000Y-106600000D02*
X160687600Y-106600000D01*
D37*
X120254570Y-111000000D02*
X119250000Y-111000000D01*
X122782751Y-111000000D02*
X120254570Y-111000000D01*
X127397487Y-107980238D02*
X125802513Y-107980238D01*
X155900000Y-109110000D02*
X128527249Y-109110000D01*
X128527249Y-109110000D02*
X127397487Y-107980238D01*
X125802513Y-107980238D02*
X122782751Y-111000000D01*
D38*
X191690000Y-109800000D02*
X194570000Y-109800000D01*
X194570000Y-109800000D02*
X194580000Y-109810000D01*
X191690000Y-109400000D02*
X194570000Y-109400000D01*
X194570000Y-109400000D02*
X194580000Y-109410000D01*
X191690000Y-109000000D02*
X194540000Y-109000000D01*
X194540000Y-109000000D02*
X194580000Y-108960000D01*
X191690000Y-108600000D02*
X194560000Y-108600000D01*
X194560000Y-108600000D02*
X194580000Y-108620000D01*
X191690000Y-108200000D02*
X194520000Y-108200000D01*
X194520000Y-108200000D02*
X194580000Y-108260000D01*
X191690000Y-107800000D02*
X194520000Y-107800000D01*
X194520000Y-107800000D02*
X194580000Y-107740000D01*
X191690000Y-107400000D02*
X194550000Y-107400000D01*
X194550000Y-107400000D02*
X194580000Y-107430000D01*
X191690000Y-107000000D02*
X194480000Y-107000000D01*
X194480000Y-107000000D02*
X194580000Y-107100000D01*
X191690000Y-106600000D02*
X192542400Y-106600000D01*
X192542400Y-106600000D02*
X192582400Y-106560000D01*
X192582400Y-106560000D02*
X194360000Y-106560000D01*
X191690000Y-106200000D02*
X192040000Y-106200000D01*
X159640000Y-108580000D02*
X159640000Y-109010000D01*
X161190000Y-109000000D02*
X159650000Y-109000000D01*
X159650000Y-109000000D02*
X159640000Y-109010000D01*
X159640000Y-108220000D02*
X159640000Y-108580000D01*
X161190000Y-108600000D02*
X159660000Y-108600000D01*
X159660000Y-108600000D02*
X159640000Y-108580000D01*
X159640000Y-107800000D02*
X159640000Y-108220000D01*
X161190000Y-108200000D02*
X159660000Y-108200000D01*
X159660000Y-108200000D02*
X159640000Y-108220000D01*
X159640000Y-107400000D02*
X159640000Y-107800000D01*
X161190000Y-107800000D02*
X159640000Y-107800000D01*
X159640000Y-107020000D02*
X159640000Y-107400000D01*
X161190000Y-107400000D02*
X159640000Y-107400000D01*
X161190000Y-107000000D02*
X159660000Y-107000000D01*
X159660000Y-107000000D02*
X159640000Y-107020000D01*
X116502280Y-110950000D02*
X119200000Y-110950000D01*
X119200000Y-110950000D02*
X119250000Y-111000000D01*
D37*
X194580000Y-106780000D02*
X194360000Y-106560000D01*
X194360000Y-106560000D02*
X194000000Y-106200000D01*
X194580000Y-107430000D02*
X194580000Y-107100000D01*
X194580000Y-107100000D02*
X194580000Y-106780000D01*
X194580000Y-107740000D02*
X194580000Y-107430000D01*
X194580000Y-108260000D02*
X194580000Y-107740000D01*
X194580000Y-108620000D02*
X194580000Y-108260000D01*
X194580000Y-108960000D02*
X194580000Y-108620000D01*
X194580000Y-109410000D02*
X194580000Y-108960000D01*
X194580000Y-109810000D02*
X194580000Y-109410000D01*
X194000000Y-106200000D02*
X191640000Y-103840000D01*
X191640000Y-103840000D02*
X191640000Y-88530000D01*
D38*
X194000000Y-106200000D02*
X192040000Y-106200000D01*
D37*
X162070000Y-109400000D02*
X162480000Y-108990000D01*
X162480000Y-108990000D02*
X162860000Y-108610000D01*
D38*
X161190000Y-109000000D02*
X162470000Y-109000000D01*
X162470000Y-109000000D02*
X162480000Y-108990000D01*
D37*
X162860000Y-108610000D02*
X163270000Y-108200000D01*
D38*
X161190000Y-108600000D02*
X162850000Y-108600000D01*
X162850000Y-108600000D02*
X162860000Y-108610000D01*
X161190000Y-108200000D02*
X163270000Y-108200000D01*
X161190000Y-107800000D02*
X163250000Y-107800000D01*
X163250000Y-107800000D02*
X163270000Y-107780000D01*
D37*
X163270000Y-107780000D02*
X162930000Y-107440000D01*
X162930000Y-107440000D02*
X162500000Y-107010000D01*
D38*
X161190000Y-107400000D02*
X162890000Y-107400000D01*
X162890000Y-107400000D02*
X162930000Y-107440000D01*
X162490000Y-107000000D02*
X162500000Y-107010000D01*
D37*
X162500000Y-107010000D02*
X162090000Y-106600000D01*
D38*
X161190000Y-107000000D02*
X162490000Y-107000000D01*
X161190000Y-109400000D02*
X162070000Y-109400000D01*
D37*
X163270000Y-108200000D02*
X163270000Y-107780000D01*
D38*
X162090000Y-106600000D02*
X161190000Y-106600000D01*
D37*
X191640000Y-88530000D02*
X192420000Y-87750000D01*
D38*
X155764933Y-106840000D02*
X155280000Y-106840000D01*
X155980933Y-106624000D02*
X155764933Y-106840000D01*
X158110316Y-106624000D02*
X155980933Y-106624000D01*
X123000000Y-134287969D02*
X124950700Y-134287969D01*
X124950700Y-130787969D02*
X123000000Y-130787969D01*
X124950700Y-127287969D02*
X123012031Y-127287969D01*
X123012031Y-127287969D02*
X123000000Y-127300000D01*
X110750000Y-126325000D02*
X110750000Y-134275000D01*
X115400000Y-135850000D02*
X112200000Y-135850000D01*
X112200000Y-135850000D02*
X110750000Y-134400000D01*
X110750000Y-134400000D02*
X110750000Y-134275000D01*
X156815021Y-110091581D02*
X156330088Y-110091581D01*
X157130201Y-109776401D02*
X156815021Y-110091581D01*
X158110316Y-109776401D02*
X157130201Y-109776401D01*
X113680000Y-138550000D02*
X113680000Y-138397600D01*
X113680000Y-138397600D02*
X117300000Y-134777600D01*
X117300000Y-134777600D02*
X117300000Y-134612400D01*
X117300000Y-134612400D02*
X117300000Y-133860000D01*
X118760000Y-135620000D02*
X119000000Y-135380000D01*
X119000000Y-135380000D02*
X119000000Y-133870000D01*
X118760000Y-138550000D02*
X118760000Y-135620000D01*
X118760000Y-135620000D02*
X118740000Y-135600000D01*
X111800000Y-88500000D02*
X112900000Y-88500000D01*
X112900000Y-88500000D02*
X113752400Y-88500000D01*
X113100000Y-88000000D02*
X113100000Y-88484933D01*
X113100000Y-88484933D02*
X113084933Y-88500000D01*
X113084933Y-88500000D02*
X112900000Y-88500000D01*
X113752400Y-88500000D02*
X114200000Y-88947600D01*
X114200000Y-88947600D02*
X114200000Y-90300000D01*
X111200000Y-85600000D02*
X111200000Y-87900000D01*
X111200000Y-87900000D02*
X111800000Y-88500000D01*
D37*
X182500000Y-126800000D02*
X183380000Y-125920000D01*
X183380000Y-125920000D02*
X183380000Y-125418980D01*
X182500000Y-127500000D02*
X182500000Y-126800000D01*
D38*
X120800000Y-130787969D02*
X120800000Y-132200000D01*
X120800000Y-132200000D02*
X120600000Y-132400000D01*
X120600000Y-129000000D02*
X120600000Y-130587969D01*
X120600000Y-130587969D02*
X120800000Y-130787969D01*
X120800000Y-127300000D02*
X120800000Y-128800000D01*
X120800000Y-128800000D02*
X120600000Y-129000000D01*
X120800000Y-134287969D02*
X120800000Y-132600000D01*
X120800000Y-132600000D02*
X120600000Y-132400000D01*
X129462040Y-118650000D02*
X129531020Y-118718980D01*
X128450000Y-118650000D02*
X129462040Y-118650000D01*
X125400000Y-117100000D02*
X125400000Y-116100000D01*
X125400000Y-116100000D02*
X125300000Y-116000000D01*
X114100000Y-121300000D02*
X116400000Y-121300000D01*
X112000000Y-121300000D02*
X114100000Y-121300000D01*
D37*
X152790000Y-126710000D02*
X158850000Y-126710000D01*
X158850000Y-126710000D02*
X159330000Y-127190000D01*
X152000000Y-127500000D02*
X152790000Y-126710000D01*
X113500000Y-111900000D02*
X113500000Y-112860000D01*
X116940000Y-107310000D02*
X116860000Y-107310000D01*
X116860000Y-107310000D02*
X115850000Y-106300000D01*
X112600000Y-106330000D02*
X111520000Y-106330000D01*
X111520000Y-106330000D02*
X111490000Y-106300000D01*
X110560000Y-107310000D02*
X110560000Y-107230000D01*
X110560000Y-107230000D02*
X111490000Y-106300000D01*
X114850000Y-101750000D02*
X116010000Y-101750000D01*
X116010000Y-101750000D02*
X116020000Y-101740000D01*
D38*
X131457103Y-132057101D02*
X131800002Y-132400000D01*
X129200002Y-125700000D02*
X129200002Y-129800000D01*
X129200002Y-129800000D02*
X131457103Y-132057101D01*
X128882451Y-122531751D02*
X129225350Y-122874650D01*
X127900000Y-121549300D02*
X128882451Y-122531751D01*
X127900000Y-119700000D02*
X127900000Y-121549300D01*
X129127715Y-134282285D02*
X131617715Y-134282285D01*
X131617715Y-134282285D02*
X131800000Y-134100000D01*
X121300000Y-138550000D02*
X121300000Y-138397600D01*
X126540000Y-136870000D02*
X129127715Y-134282285D01*
X121300000Y-138397600D02*
X122827600Y-136870000D01*
X122827600Y-136870000D02*
X126540000Y-136870000D01*
X126900000Y-125800000D02*
X126500000Y-126200000D01*
X126500000Y-126200000D02*
X118250000Y-126200000D01*
X127795332Y-123518832D02*
X123528819Y-119252319D01*
X123528819Y-119252319D02*
X123185920Y-118909420D01*
X128138232Y-123861731D02*
X127795332Y-123518832D01*
X118799996Y-116300000D02*
X119757097Y-117257101D01*
X119757097Y-117257101D02*
X120099996Y-117600000D01*
X116400000Y-116300000D02*
X118799996Y-116300000D01*
X124850000Y-118150000D02*
X124247600Y-118150000D01*
X124247600Y-118150000D02*
X122745844Y-116648244D01*
X122745844Y-116648244D02*
X121526927Y-116648244D01*
X121526927Y-116648244D02*
X121041994Y-116648244D01*
X118250000Y-126200000D02*
X117300000Y-127150000D01*
X117300000Y-127150000D02*
X117300000Y-127300000D01*
X133600000Y-131400000D02*
X130700000Y-128500000D01*
X130700000Y-128500000D02*
X130400000Y-128500000D01*
X134000000Y-136010000D02*
X134000000Y-134200000D01*
X134000000Y-134200000D02*
X133900000Y-134100000D01*
X134000000Y-138550000D02*
X134000000Y-136010000D01*
X112000000Y-116300000D02*
X116400000Y-116300000D01*
X136540000Y-136010000D02*
X135400000Y-134870000D01*
X135400000Y-134870000D02*
X135400000Y-134200000D01*
X127400000Y-121853959D02*
X129351987Y-123805946D01*
X129351987Y-123805946D02*
X129351987Y-124158187D01*
X127400000Y-119700000D02*
X127400000Y-121853959D01*
X127900000Y-117100000D02*
X127900000Y-116138451D01*
X127900000Y-116138451D02*
X128137929Y-115900522D01*
X124400000Y-103300000D02*
X124400000Y-101860000D01*
X124400000Y-101860000D02*
X120958400Y-98418400D01*
X120958400Y-98418400D02*
X120806000Y-98418400D01*
X120806000Y-98418400D02*
X119790000Y-97402400D01*
X119790000Y-97402400D02*
X119790000Y-97250000D01*
X128000000Y-113400000D02*
X128000000Y-109500000D01*
X128000000Y-109500000D02*
X127100000Y-108600000D01*
X126331039Y-115408386D02*
X126431246Y-115308179D01*
X126331039Y-116428639D02*
X126331039Y-115408386D01*
X126400000Y-116497600D02*
X126331039Y-116428639D01*
X126400000Y-117100000D02*
X126400000Y-116497600D01*
X126000000Y-104600000D02*
X126000000Y-97364000D01*
X126000000Y-97364000D02*
X125886000Y-97250000D01*
X125886000Y-97250000D02*
X124870000Y-97250000D01*
X126100000Y-108800000D02*
X126000000Y-108700000D01*
X126100000Y-113900000D02*
X126100000Y-108800000D01*
X136540000Y-87750000D02*
X134190000Y-90100000D01*
X121000000Y-90100000D02*
X119152271Y-91947729D01*
X134190000Y-90100000D02*
X121000000Y-90100000D01*
X119152271Y-91947729D02*
X118574796Y-91947729D01*
X118574796Y-91947729D02*
X114547729Y-95974796D01*
X114547729Y-95974796D02*
X114547729Y-96524796D01*
X112650000Y-98422525D02*
X112650000Y-100322600D01*
X114547729Y-96524796D02*
X112650000Y-98422525D01*
X112650000Y-100322600D02*
X112650000Y-100800000D01*
X113222899Y-103377101D02*
X113682899Y-103377101D01*
X113500000Y-107975000D02*
X113500000Y-105071421D01*
X113891776Y-104679645D02*
X114234675Y-104336746D01*
X113682899Y-103377101D02*
X113790000Y-103270000D01*
X113500000Y-105071421D02*
X113891776Y-104679645D01*
X112880000Y-103720000D02*
X113222899Y-103377101D01*
X113790000Y-103270000D02*
X113790000Y-102090000D01*
X113790000Y-102090000D02*
X112650000Y-100950000D01*
X112650000Y-100950000D02*
X112650000Y-100800000D01*
X113500000Y-110000000D02*
X113500000Y-107975000D01*
X113500000Y-107975000D02*
X112805000Y-107280000D01*
X112805000Y-107280000D02*
X112600000Y-107280000D01*
X148376401Y-86073599D02*
X149240000Y-85210000D01*
X147997731Y-89510204D02*
X147997731Y-86452269D01*
X146331038Y-91176897D02*
X147997731Y-89510204D01*
X147997731Y-86452269D02*
X148376401Y-86073599D01*
X148000000Y-93442065D02*
X146331038Y-91773103D01*
X157400000Y-103300000D02*
X157400000Y-103255885D01*
X157524000Y-103424000D02*
X157400000Y-103300000D01*
X157400000Y-103255885D02*
X148000000Y-93855885D01*
X158110316Y-103424000D02*
X157524000Y-103424000D01*
X146331038Y-91773103D02*
X146331038Y-91176897D01*
X148000000Y-93855885D02*
X148000000Y-93442065D01*
X158110000Y-102600000D02*
X157654948Y-102600000D01*
X157134392Y-102135341D02*
X156789764Y-101790702D01*
X155753662Y-100754601D02*
X155753662Y-100698718D01*
X157581218Y-102526271D02*
X157190290Y-102135342D01*
X157654948Y-102600000D02*
X157581218Y-102526271D01*
X156789764Y-101790702D02*
X155753662Y-100754601D01*
X155753662Y-100698718D02*
X151780000Y-96725051D01*
X151780000Y-96725051D02*
X151780000Y-88971314D01*
X157190290Y-102135342D02*
X157134392Y-102135341D01*
X151780000Y-88971314D02*
X151780000Y-87750000D01*
X150500000Y-86490000D02*
X150916401Y-86073599D01*
X150500000Y-95928411D02*
X150500000Y-86490000D01*
X150916401Y-86073599D02*
X151780000Y-85210000D01*
X157595589Y-103024000D02*
X150500000Y-95928411D01*
X158110316Y-103024000D02*
X157595589Y-103024000D01*
X148000000Y-127500000D02*
X148000000Y-126159658D01*
X148000000Y-126159658D02*
X148202928Y-125956730D01*
X139950000Y-102950000D02*
X141457101Y-104457101D01*
X139950000Y-90800000D02*
X139950000Y-102950000D01*
X141457101Y-104457101D02*
X141800000Y-104800000D01*
X141850000Y-110700000D02*
X143400000Y-112250000D01*
X143400000Y-112250000D02*
X143400000Y-114200000D01*
X145450000Y-86450000D02*
X145450000Y-90550000D01*
X145450000Y-90550000D02*
X145400000Y-90600000D01*
X145826401Y-86073599D02*
X145450000Y-86450000D01*
X146700000Y-85210000D02*
X145836401Y-86073599D01*
X145836401Y-86073599D02*
X145826401Y-86073599D01*
X125900000Y-115618996D02*
X125900000Y-116497600D01*
X125862285Y-115581281D02*
X125900000Y-115618996D01*
X125900000Y-116497600D02*
X125900000Y-117100000D01*
X125862285Y-115035077D02*
X125862285Y-115581281D01*
X126697362Y-114200000D02*
X125862285Y-115035077D01*
X143400000Y-114200000D02*
X126697362Y-114200000D01*
X148300000Y-119100000D02*
X143400000Y-114200000D01*
X168307101Y-131822899D02*
X168650000Y-131480000D01*
X148000000Y-128200000D02*
X148840000Y-129040000D01*
X148000000Y-127500000D02*
X148000000Y-128200000D01*
X175250000Y-131230000D02*
X175734933Y-131230000D01*
X175734933Y-131230000D02*
X178500000Y-128464933D01*
X178500000Y-128464933D02*
X178500000Y-127500000D01*
X170750000Y-131500000D02*
X172110000Y-131500000D01*
X172110000Y-131500000D02*
X172210000Y-131400000D01*
X167789244Y-132340756D02*
X168307101Y-131822899D01*
X161581482Y-132310756D02*
X161611482Y-132340756D01*
X157159245Y-132310756D02*
X161581482Y-132310756D01*
X148840000Y-129040000D02*
X148840000Y-129919598D01*
X151235213Y-132314811D02*
X157155190Y-132314811D01*
X148840000Y-129919598D02*
X151235213Y-132314811D01*
X161611482Y-132340756D02*
X167789244Y-132340756D01*
X157155190Y-132314811D02*
X157159245Y-132310756D01*
X127726897Y-115231038D02*
X128273103Y-115231038D01*
X149006581Y-126016421D02*
X149349480Y-125673522D01*
X145885100Y-120457101D02*
X148928352Y-120457101D01*
X148928352Y-120457101D02*
X149271251Y-120800000D01*
X127568961Y-115388974D02*
X127726897Y-115231038D01*
X127568961Y-116328639D02*
X127568961Y-115388974D01*
X127400000Y-116497600D02*
X127568961Y-116328639D01*
X149000000Y-127500000D02*
X149000000Y-126023002D01*
X128273103Y-115231038D02*
X133842065Y-120800000D01*
X133842065Y-120800000D02*
X145542201Y-120800000D01*
X149000000Y-126023002D02*
X149006581Y-126016421D01*
X145542201Y-120800000D02*
X145885100Y-120457101D01*
X127400000Y-117100000D02*
X127400000Y-116497600D01*
X147400000Y-116550000D02*
X149271251Y-118421251D01*
X149271251Y-118421251D02*
X149271251Y-120800000D01*
X147400000Y-110650000D02*
X147400000Y-116550000D01*
X140850000Y-91450000D02*
X140850000Y-94350000D01*
X140850000Y-94350000D02*
X152300000Y-105800000D01*
X146900000Y-91250000D02*
X146900000Y-91450000D01*
X148376401Y-89773599D02*
X146900000Y-91250000D01*
X149240000Y-87750000D02*
X148376401Y-88613599D01*
X148376401Y-88613599D02*
X148376401Y-89773599D01*
X151310000Y-130962400D02*
X151398347Y-131050747D01*
X151310000Y-130962400D02*
X152357600Y-132010000D01*
X149000000Y-128652400D02*
X151310000Y-130962400D01*
X157533743Y-131505191D02*
X157786257Y-131505191D01*
X165550918Y-131512400D02*
X165967119Y-131928601D01*
X157793466Y-131512400D02*
X165550918Y-131512400D01*
X167331399Y-131928601D02*
X167530000Y-131730000D01*
X149000000Y-127500000D02*
X149000000Y-128652400D01*
X152357600Y-132010000D02*
X157028934Y-132010000D01*
X157028934Y-132010000D02*
X157533743Y-131505191D01*
X157786257Y-131505191D02*
X157793466Y-131512400D01*
X165967119Y-131928601D02*
X167331399Y-131928601D01*
X171908448Y-132274557D02*
X171984516Y-132350625D01*
X170336059Y-132274557D02*
X171908448Y-132274557D01*
X175010000Y-132200000D02*
X175500000Y-132200000D01*
X175500000Y-132200000D02*
X179500000Y-128200000D01*
X179500000Y-128200000D02*
X179500000Y-127500000D01*
X120457101Y-118642899D02*
X120800000Y-118300000D01*
X120300000Y-118800000D02*
X120457101Y-118642899D01*
X116400000Y-118800000D02*
X120300000Y-118800000D01*
X122506631Y-117388066D02*
X122149499Y-117388066D01*
X123768565Y-118650000D02*
X122506631Y-117388066D01*
X124850000Y-118650000D02*
X123768565Y-118650000D01*
X122149499Y-117388066D02*
X121664566Y-117388066D01*
X112000000Y-118800000D02*
X116400000Y-118800000D01*
X115250000Y-126325000D02*
X115250000Y-129500000D01*
X115250000Y-129500000D02*
X115250000Y-134275000D01*
X117300000Y-129500000D02*
X115250000Y-129500000D01*
X181100000Y-111300000D02*
X183600000Y-111300000D01*
X188610000Y-109800000D02*
X184497600Y-109800000D01*
X184497600Y-109800000D02*
X183600000Y-110697600D01*
X183600000Y-110697600D02*
X183600000Y-111300000D01*
X118650000Y-108049300D02*
X118650000Y-108600480D01*
X118650000Y-108600480D02*
X118999520Y-108950000D01*
X118999520Y-108950000D02*
X119847600Y-108950000D01*
X119847600Y-108950000D02*
X120600000Y-108950000D01*
X160687600Y-110200000D02*
X159450000Y-111437600D01*
X146297910Y-121312428D02*
X145812977Y-121312428D01*
X159450000Y-116850000D02*
X154914149Y-121385851D01*
X161190000Y-110200000D02*
X160687600Y-110200000D01*
X159450000Y-111437600D02*
X159450000Y-116850000D01*
X154914149Y-121385851D02*
X146371333Y-121385851D01*
X146371333Y-121385851D02*
X146297910Y-121312428D01*
X114850000Y-100322600D02*
X114850000Y-100800000D01*
X114850000Y-96100000D02*
X114850000Y-100322600D01*
X120100000Y-92250000D02*
X118700000Y-92250000D01*
X118700000Y-92250000D02*
X114850000Y-96100000D01*
X159800000Y-106350000D02*
X159300000Y-106850000D01*
X160000000Y-110300000D02*
X160500000Y-109800000D01*
X159300000Y-106850000D02*
X159300000Y-109900000D01*
X159292899Y-95392899D02*
X159342899Y-95392899D01*
X159804542Y-98767102D02*
X159804542Y-103862808D01*
X159804542Y-103862808D02*
X159800000Y-103867350D01*
X160687600Y-109800000D02*
X161190000Y-109800000D01*
X159800000Y-98762560D02*
X159804542Y-98767102D01*
X159800000Y-95850000D02*
X159800000Y-98762560D01*
X158950000Y-95050000D02*
X159292899Y-95392899D01*
X159700000Y-110300000D02*
X160000000Y-110300000D01*
X159800000Y-103867350D02*
X159800000Y-106350000D01*
X159342899Y-95392899D02*
X159800000Y-95850000D01*
X159300000Y-109900000D02*
X159700000Y-110300000D01*
X160500000Y-109800000D02*
X160687600Y-109800000D01*
X160450000Y-94500000D02*
X160200000Y-94750000D01*
X160450000Y-92200000D02*
X160450000Y-94500000D01*
X163200000Y-89450000D02*
X160450000Y-92200000D01*
X163200000Y-86490000D02*
X163200000Y-89450000D01*
X164480000Y-85210000D02*
X163200000Y-86490000D01*
M02*
