G04 #@! TF.FileFunction,Legend,Top*
%FSLAX46Y46*%
G04 Gerber Fmt 4.6, Leading zero omitted, Abs format (unit mm)*
G04 Created by KiCad (PCBNEW 4.0.1-stable) date Wednesday, January 27, 2016 'PMt' 03:54:46 PM*
%MOMM*%
G01*
G04 APERTURE LIST*
%ADD10C,0.100000*%
%ADD11C,0.220000*%
%ADD12C,0.300000*%
%ADD13C,0.150000*%
%ADD14C,0.010000*%
G04 APERTURE END LIST*
D10*
D11*
X174096428Y-133875952D02*
X173977381Y-133935476D01*
X173739285Y-133935476D01*
X173620238Y-133875952D01*
X173560714Y-133816429D01*
X173501190Y-133697381D01*
X173501190Y-133340238D01*
X173560714Y-133221190D01*
X173620238Y-133161667D01*
X173739285Y-133102143D01*
X173977381Y-133102143D01*
X174096428Y-133161667D01*
X174632143Y-133935476D02*
X174632143Y-132685476D01*
X174751191Y-133459286D02*
X175108334Y-133935476D01*
X175108334Y-133102143D02*
X174632143Y-133578333D01*
X176179762Y-133935476D02*
X176179762Y-132685476D01*
X176179762Y-133875952D02*
X176060715Y-133935476D01*
X175822619Y-133935476D01*
X175703572Y-133875952D01*
X175644048Y-133816429D01*
X175584524Y-133697381D01*
X175584524Y-133340238D01*
X175644048Y-133221190D01*
X175703572Y-133161667D01*
X175822619Y-133102143D01*
X176060715Y-133102143D01*
X176179762Y-133161667D01*
X176775000Y-133816429D02*
X176834524Y-133875952D01*
X176775000Y-133935476D01*
X176715476Y-133875952D01*
X176775000Y-133816429D01*
X176775000Y-133935476D01*
X177191667Y-133102143D02*
X177667857Y-133102143D01*
X177370238Y-132685476D02*
X177370238Y-133756905D01*
X177429762Y-133875952D01*
X177548809Y-133935476D01*
X177667857Y-133935476D01*
X178560715Y-133875952D02*
X178441667Y-133935476D01*
X178203572Y-133935476D01*
X178084524Y-133875952D01*
X178025000Y-133756905D01*
X178025000Y-133280714D01*
X178084524Y-133161667D01*
X178203572Y-133102143D01*
X178441667Y-133102143D01*
X178560715Y-133161667D01*
X178620238Y-133280714D01*
X178620238Y-133399762D01*
X178025000Y-133518810D01*
X179691667Y-133875952D02*
X179572620Y-133935476D01*
X179334524Y-133935476D01*
X179215477Y-133875952D01*
X179155953Y-133816429D01*
X179096429Y-133697381D01*
X179096429Y-133340238D01*
X179155953Y-133221190D01*
X179215477Y-133161667D01*
X179334524Y-133102143D01*
X179572620Y-133102143D01*
X179691667Y-133161667D01*
X180227382Y-133935476D02*
X180227382Y-132685476D01*
X180763096Y-133935476D02*
X180763096Y-133280714D01*
X180703573Y-133161667D01*
X180584525Y-133102143D01*
X180405953Y-133102143D01*
X180286906Y-133161667D01*
X180227382Y-133221190D01*
X182251191Y-132625952D02*
X181179763Y-134233095D01*
X183203572Y-133102143D02*
X183203572Y-134114048D01*
X183144049Y-134233095D01*
X183084525Y-134292619D01*
X182965477Y-134352143D01*
X182786906Y-134352143D01*
X182667858Y-134292619D01*
X183203572Y-133875952D02*
X183084525Y-133935476D01*
X182846429Y-133935476D01*
X182727382Y-133875952D01*
X182667858Y-133816429D01*
X182608334Y-133697381D01*
X182608334Y-133340238D01*
X182667858Y-133221190D01*
X182727382Y-133161667D01*
X182846429Y-133102143D01*
X183084525Y-133102143D01*
X183203572Y-133161667D01*
X183798810Y-133459286D02*
X184751191Y-133459286D01*
X185167858Y-133102143D02*
X185644048Y-133102143D01*
X185346429Y-132685476D02*
X185346429Y-133756905D01*
X185405953Y-133875952D01*
X185525000Y-133935476D01*
X185644048Y-133935476D01*
X186536906Y-133875952D02*
X186417858Y-133935476D01*
X186179763Y-133935476D01*
X186060715Y-133875952D01*
X186001191Y-133756905D01*
X186001191Y-133280714D01*
X186060715Y-133161667D01*
X186179763Y-133102143D01*
X186417858Y-133102143D01*
X186536906Y-133161667D01*
X186596429Y-133280714D01*
X186596429Y-133399762D01*
X186001191Y-133518810D01*
X187072620Y-133875952D02*
X187191668Y-133935476D01*
X187429763Y-133935476D01*
X187548811Y-133875952D01*
X187608335Y-133756905D01*
X187608335Y-133697381D01*
X187548811Y-133578333D01*
X187429763Y-133518810D01*
X187251192Y-133518810D01*
X187132144Y-133459286D01*
X187072620Y-133340238D01*
X187072620Y-133280714D01*
X187132144Y-133161667D01*
X187251192Y-133102143D01*
X187429763Y-133102143D01*
X187548811Y-133161667D01*
X187965478Y-133102143D02*
X188441668Y-133102143D01*
X188144049Y-132685476D02*
X188144049Y-133756905D01*
X188203573Y-133875952D01*
X188322620Y-133935476D01*
X188441668Y-133935476D01*
X188858335Y-133459286D02*
X189810716Y-133459286D01*
X190405954Y-133935476D02*
X190405954Y-132685476D01*
X190405954Y-133161667D02*
X190525002Y-133102143D01*
X190763097Y-133102143D01*
X190882145Y-133161667D01*
X190941668Y-133221190D01*
X191001192Y-133340238D01*
X191001192Y-133697381D01*
X190941668Y-133816429D01*
X190882145Y-133875952D01*
X190763097Y-133935476D01*
X190525002Y-133935476D01*
X190405954Y-133875952D01*
X191715477Y-133935476D02*
X191596430Y-133875952D01*
X191536906Y-133816429D01*
X191477382Y-133697381D01*
X191477382Y-133340238D01*
X191536906Y-133221190D01*
X191596430Y-133161667D01*
X191715477Y-133102143D01*
X191894049Y-133102143D01*
X192013097Y-133161667D01*
X192072620Y-133221190D01*
X192132144Y-133340238D01*
X192132144Y-133697381D01*
X192072620Y-133816429D01*
X192013097Y-133875952D01*
X191894049Y-133935476D01*
X191715477Y-133935476D01*
X192489287Y-133102143D02*
X192965477Y-133102143D01*
X192667858Y-132685476D02*
X192667858Y-133756905D01*
X192727382Y-133875952D01*
X192846429Y-133935476D01*
X192965477Y-133935476D01*
X194275001Y-132625952D02*
X193203573Y-134233095D01*
X194572620Y-133102143D02*
X194870239Y-133935476D01*
X195167859Y-133102143D01*
X196298811Y-133935476D02*
X195584525Y-133935476D01*
X195941668Y-133935476D02*
X195941668Y-132685476D01*
X195822620Y-132864048D01*
X195703573Y-132983095D01*
X195584525Y-133042619D01*
D12*
X138447142Y-106592857D02*
X138947142Y-106592857D01*
X139161428Y-107378571D02*
X138447142Y-107378571D01*
X138447142Y-105878571D01*
X139161428Y-105878571D01*
X139661428Y-107378571D02*
X140447142Y-106378571D01*
X139661428Y-106378571D02*
X140447142Y-107378571D01*
X141018571Y-106378571D02*
X141018571Y-107878571D01*
X141018571Y-106450000D02*
X141161428Y-106378571D01*
X141447142Y-106378571D01*
X141589999Y-106450000D01*
X141661428Y-106521429D01*
X141732857Y-106664286D01*
X141732857Y-107092857D01*
X141661428Y-107235714D01*
X141589999Y-107307143D01*
X141447142Y-107378571D01*
X141161428Y-107378571D01*
X141018571Y-107307143D01*
X143018571Y-107378571D02*
X143018571Y-106592857D01*
X142947142Y-106450000D01*
X142804285Y-106378571D01*
X142518571Y-106378571D01*
X142375714Y-106450000D01*
X143018571Y-107307143D02*
X142875714Y-107378571D01*
X142518571Y-107378571D01*
X142375714Y-107307143D01*
X142304285Y-107164286D01*
X142304285Y-107021429D01*
X142375714Y-106878571D01*
X142518571Y-106807143D01*
X142875714Y-106807143D01*
X143018571Y-106735714D01*
X143732857Y-106378571D02*
X143732857Y-107378571D01*
X143732857Y-106521429D02*
X143804285Y-106450000D01*
X143947143Y-106378571D01*
X144161428Y-106378571D01*
X144304285Y-106450000D01*
X144375714Y-106592857D01*
X144375714Y-107378571D01*
X145018571Y-107307143D02*
X145161428Y-107378571D01*
X145447143Y-107378571D01*
X145590000Y-107307143D01*
X145661428Y-107164286D01*
X145661428Y-107092857D01*
X145590000Y-106950000D01*
X145447143Y-106878571D01*
X145232857Y-106878571D01*
X145090000Y-106807143D01*
X145018571Y-106664286D01*
X145018571Y-106592857D01*
X145090000Y-106450000D01*
X145232857Y-106378571D01*
X145447143Y-106378571D01*
X145590000Y-106450000D01*
X146304286Y-107378571D02*
X146304286Y-106378571D01*
X146304286Y-105878571D02*
X146232857Y-105950000D01*
X146304286Y-106021429D01*
X146375714Y-105950000D01*
X146304286Y-105878571D01*
X146304286Y-106021429D01*
X147232858Y-107378571D02*
X147090000Y-107307143D01*
X147018572Y-107235714D01*
X146947143Y-107092857D01*
X146947143Y-106664286D01*
X147018572Y-106521429D01*
X147090000Y-106450000D01*
X147232858Y-106378571D01*
X147447143Y-106378571D01*
X147590000Y-106450000D01*
X147661429Y-106521429D01*
X147732858Y-106664286D01*
X147732858Y-107092857D01*
X147661429Y-107235714D01*
X147590000Y-107307143D01*
X147447143Y-107378571D01*
X147232858Y-107378571D01*
X148375715Y-106378571D02*
X148375715Y-107378571D01*
X148375715Y-106521429D02*
X148447143Y-106450000D01*
X148590001Y-106378571D01*
X148804286Y-106378571D01*
X148947143Y-106450000D01*
X149018572Y-106592857D01*
X149018572Y-107378571D01*
X149661429Y-107307143D02*
X149804286Y-107378571D01*
X150090001Y-107378571D01*
X150232858Y-107307143D01*
X150304286Y-107164286D01*
X150304286Y-107092857D01*
X150232858Y-106950000D01*
X150090001Y-106878571D01*
X149875715Y-106878571D01*
X149732858Y-106807143D01*
X149661429Y-106664286D01*
X149661429Y-106592857D01*
X149732858Y-106450000D01*
X149875715Y-106378571D01*
X150090001Y-106378571D01*
X150232858Y-106450000D01*
X140947143Y-108350000D02*
X140804286Y-108278571D01*
X140590000Y-108278571D01*
X140375715Y-108350000D01*
X140232857Y-108492857D01*
X140161429Y-108635714D01*
X140090000Y-108921429D01*
X140090000Y-109135714D01*
X140161429Y-109421429D01*
X140232857Y-109564286D01*
X140375715Y-109707143D01*
X140590000Y-109778571D01*
X140732857Y-109778571D01*
X140947143Y-109707143D01*
X141018572Y-109635714D01*
X141018572Y-109135714D01*
X140732857Y-109135714D01*
X141875715Y-109778571D02*
X141732857Y-109707143D01*
X141661429Y-109635714D01*
X141590000Y-109492857D01*
X141590000Y-109064286D01*
X141661429Y-108921429D01*
X141732857Y-108850000D01*
X141875715Y-108778571D01*
X142090000Y-108778571D01*
X142232857Y-108850000D01*
X142304286Y-108921429D01*
X142375715Y-109064286D01*
X142375715Y-109492857D01*
X142304286Y-109635714D01*
X142232857Y-109707143D01*
X142090000Y-109778571D01*
X141875715Y-109778571D01*
X144161429Y-109778571D02*
X144161429Y-108278571D01*
X144161429Y-108992857D02*
X145018572Y-108992857D01*
X145018572Y-109778571D02*
X145018572Y-108278571D01*
X146304286Y-109707143D02*
X146161429Y-109778571D01*
X145875715Y-109778571D01*
X145732858Y-109707143D01*
X145661429Y-109564286D01*
X145661429Y-108992857D01*
X145732858Y-108850000D01*
X145875715Y-108778571D01*
X146161429Y-108778571D01*
X146304286Y-108850000D01*
X146375715Y-108992857D01*
X146375715Y-109135714D01*
X145661429Y-109278571D01*
X147018572Y-109778571D02*
X147018572Y-108778571D01*
X147018572Y-109064286D02*
X147090000Y-108921429D01*
X147161429Y-108850000D01*
X147304286Y-108778571D01*
X147447143Y-108778571D01*
X148518571Y-109707143D02*
X148375714Y-109778571D01*
X148090000Y-109778571D01*
X147947143Y-109707143D01*
X147875714Y-109564286D01*
X147875714Y-108992857D01*
X147947143Y-108850000D01*
X148090000Y-108778571D01*
X148375714Y-108778571D01*
X148518571Y-108850000D01*
X148590000Y-108992857D01*
X148590000Y-109135714D01*
X147875714Y-109278571D01*
X167818572Y-106872857D02*
X167318572Y-106872857D01*
X167318572Y-107658571D02*
X167318572Y-106158571D01*
X168032858Y-106158571D01*
X168818572Y-107658571D02*
X168675714Y-107587143D01*
X168604286Y-107444286D01*
X168604286Y-106158571D01*
X169390000Y-107658571D02*
X169390000Y-106658571D01*
X169390000Y-106158571D02*
X169318571Y-106230000D01*
X169390000Y-106301429D01*
X169461428Y-106230000D01*
X169390000Y-106158571D01*
X169390000Y-106301429D01*
X170747143Y-106658571D02*
X170747143Y-107872857D01*
X170675714Y-108015714D01*
X170604286Y-108087143D01*
X170461429Y-108158571D01*
X170247143Y-108158571D01*
X170104286Y-108087143D01*
X170747143Y-107587143D02*
X170604286Y-107658571D01*
X170318572Y-107658571D01*
X170175714Y-107587143D01*
X170104286Y-107515714D01*
X170032857Y-107372857D01*
X170032857Y-106944286D01*
X170104286Y-106801429D01*
X170175714Y-106730000D01*
X170318572Y-106658571D01*
X170604286Y-106658571D01*
X170747143Y-106730000D01*
X171461429Y-107658571D02*
X171461429Y-106158571D01*
X172104286Y-107658571D02*
X172104286Y-106872857D01*
X172032857Y-106730000D01*
X171890000Y-106658571D01*
X171675715Y-106658571D01*
X171532857Y-106730000D01*
X171461429Y-106801429D01*
X172604286Y-106658571D02*
X173175715Y-106658571D01*
X172818572Y-106158571D02*
X172818572Y-107444286D01*
X172890000Y-107587143D01*
X173032858Y-107658571D01*
X173175715Y-107658571D01*
X175675715Y-107515714D02*
X175604286Y-107587143D01*
X175390000Y-107658571D01*
X175247143Y-107658571D01*
X175032858Y-107587143D01*
X174890000Y-107444286D01*
X174818572Y-107301429D01*
X174747143Y-107015714D01*
X174747143Y-106801429D01*
X174818572Y-106515714D01*
X174890000Y-106372857D01*
X175032858Y-106230000D01*
X175247143Y-106158571D01*
X175390000Y-106158571D01*
X175604286Y-106230000D01*
X175675715Y-106301429D01*
X176532858Y-107658571D02*
X176390000Y-107587143D01*
X176318572Y-107515714D01*
X176247143Y-107372857D01*
X176247143Y-106944286D01*
X176318572Y-106801429D01*
X176390000Y-106730000D01*
X176532858Y-106658571D01*
X176747143Y-106658571D01*
X176890000Y-106730000D01*
X176961429Y-106801429D01*
X177032858Y-106944286D01*
X177032858Y-107372857D01*
X176961429Y-107515714D01*
X176890000Y-107587143D01*
X176747143Y-107658571D01*
X176532858Y-107658571D01*
X177675715Y-106658571D02*
X177675715Y-107658571D01*
X177675715Y-106801429D02*
X177747143Y-106730000D01*
X177890001Y-106658571D01*
X178104286Y-106658571D01*
X178247143Y-106730000D01*
X178318572Y-106872857D01*
X178318572Y-107658571D01*
X178818572Y-106658571D02*
X179390001Y-106658571D01*
X179032858Y-106158571D02*
X179032858Y-107444286D01*
X179104286Y-107587143D01*
X179247144Y-107658571D01*
X179390001Y-107658571D01*
X179890001Y-107658571D02*
X179890001Y-106658571D01*
X179890001Y-106944286D02*
X179961429Y-106801429D01*
X180032858Y-106730000D01*
X180175715Y-106658571D01*
X180318572Y-106658571D01*
X181032858Y-107658571D02*
X180890000Y-107587143D01*
X180818572Y-107515714D01*
X180747143Y-107372857D01*
X180747143Y-106944286D01*
X180818572Y-106801429D01*
X180890000Y-106730000D01*
X181032858Y-106658571D01*
X181247143Y-106658571D01*
X181390000Y-106730000D01*
X181461429Y-106801429D01*
X181532858Y-106944286D01*
X181532858Y-107372857D01*
X181461429Y-107515714D01*
X181390000Y-107587143D01*
X181247143Y-107658571D01*
X181032858Y-107658571D01*
X182390001Y-107658571D02*
X182247143Y-107587143D01*
X182175715Y-107444286D01*
X182175715Y-106158571D01*
X183175715Y-107658571D02*
X183032857Y-107587143D01*
X182961429Y-107444286D01*
X182961429Y-106158571D01*
X184318571Y-107587143D02*
X184175714Y-107658571D01*
X183890000Y-107658571D01*
X183747143Y-107587143D01*
X183675714Y-107444286D01*
X183675714Y-106872857D01*
X183747143Y-106730000D01*
X183890000Y-106658571D01*
X184175714Y-106658571D01*
X184318571Y-106730000D01*
X184390000Y-106872857D01*
X184390000Y-107015714D01*
X183675714Y-107158571D01*
X185032857Y-107658571D02*
X185032857Y-106658571D01*
X185032857Y-106944286D02*
X185104285Y-106801429D01*
X185175714Y-106730000D01*
X185318571Y-106658571D01*
X185461428Y-106658571D01*
X185889999Y-107587143D02*
X186032856Y-107658571D01*
X186318571Y-107658571D01*
X186461428Y-107587143D01*
X186532856Y-107444286D01*
X186532856Y-107372857D01*
X186461428Y-107230000D01*
X186318571Y-107158571D01*
X186104285Y-107158571D01*
X185961428Y-107087143D01*
X185889999Y-106944286D01*
X185889999Y-106872857D01*
X185961428Y-106730000D01*
X186104285Y-106658571D01*
X186318571Y-106658571D01*
X186461428Y-106730000D01*
X173497143Y-108630000D02*
X173354286Y-108558571D01*
X173140000Y-108558571D01*
X172925715Y-108630000D01*
X172782857Y-108772857D01*
X172711429Y-108915714D01*
X172640000Y-109201429D01*
X172640000Y-109415714D01*
X172711429Y-109701429D01*
X172782857Y-109844286D01*
X172925715Y-109987143D01*
X173140000Y-110058571D01*
X173282857Y-110058571D01*
X173497143Y-109987143D01*
X173568572Y-109915714D01*
X173568572Y-109415714D01*
X173282857Y-109415714D01*
X174425715Y-110058571D02*
X174282857Y-109987143D01*
X174211429Y-109915714D01*
X174140000Y-109772857D01*
X174140000Y-109344286D01*
X174211429Y-109201429D01*
X174282857Y-109130000D01*
X174425715Y-109058571D01*
X174640000Y-109058571D01*
X174782857Y-109130000D01*
X174854286Y-109201429D01*
X174925715Y-109344286D01*
X174925715Y-109772857D01*
X174854286Y-109915714D01*
X174782857Y-109987143D01*
X174640000Y-110058571D01*
X174425715Y-110058571D01*
X176711429Y-110058571D02*
X176711429Y-108558571D01*
X176711429Y-109272857D02*
X177568572Y-109272857D01*
X177568572Y-110058571D02*
X177568572Y-108558571D01*
X178854286Y-109987143D02*
X178711429Y-110058571D01*
X178425715Y-110058571D01*
X178282858Y-109987143D01*
X178211429Y-109844286D01*
X178211429Y-109272857D01*
X178282858Y-109130000D01*
X178425715Y-109058571D01*
X178711429Y-109058571D01*
X178854286Y-109130000D01*
X178925715Y-109272857D01*
X178925715Y-109415714D01*
X178211429Y-109558571D01*
X179568572Y-110058571D02*
X179568572Y-109058571D01*
X179568572Y-109344286D02*
X179640000Y-109201429D01*
X179711429Y-109130000D01*
X179854286Y-109058571D01*
X179997143Y-109058571D01*
X181068571Y-109987143D02*
X180925714Y-110058571D01*
X180640000Y-110058571D01*
X180497143Y-109987143D01*
X180425714Y-109844286D01*
X180425714Y-109272857D01*
X180497143Y-109130000D01*
X180640000Y-109058571D01*
X180925714Y-109058571D01*
X181068571Y-109130000D01*
X181140000Y-109272857D01*
X181140000Y-109415714D01*
X180425714Y-109558571D01*
D13*
X187939048Y-112302381D02*
X188558096Y-112302381D01*
X188224762Y-112683333D01*
X188367620Y-112683333D01*
X188462858Y-112730952D01*
X188510477Y-112778571D01*
X188558096Y-112873810D01*
X188558096Y-113111905D01*
X188510477Y-113207143D01*
X188462858Y-113254762D01*
X188367620Y-113302381D01*
X188081905Y-113302381D01*
X187986667Y-113254762D01*
X187939048Y-113207143D01*
X188986667Y-113207143D02*
X189034286Y-113254762D01*
X188986667Y-113302381D01*
X188939048Y-113254762D01*
X188986667Y-113207143D01*
X188986667Y-113302381D01*
X189939048Y-112302381D02*
X189462857Y-112302381D01*
X189415238Y-112778571D01*
X189462857Y-112730952D01*
X189558095Y-112683333D01*
X189796191Y-112683333D01*
X189891429Y-112730952D01*
X189939048Y-112778571D01*
X189986667Y-112873810D01*
X189986667Y-113111905D01*
X189939048Y-113207143D01*
X189891429Y-113254762D01*
X189796191Y-113302381D01*
X189558095Y-113302381D01*
X189462857Y-113254762D01*
X189415238Y-113207143D01*
X190415238Y-113302381D02*
X190415238Y-112635714D01*
X190415238Y-112730952D02*
X190462857Y-112683333D01*
X190558095Y-112635714D01*
X190700953Y-112635714D01*
X190796191Y-112683333D01*
X190843810Y-112778571D01*
X190843810Y-113302381D01*
X190843810Y-112778571D02*
X190891429Y-112683333D01*
X190986667Y-112635714D01*
X191129524Y-112635714D01*
X191224762Y-112683333D01*
X191272381Y-112778571D01*
X191272381Y-113302381D01*
X191748571Y-113302381D02*
X191748571Y-112635714D01*
X191748571Y-112730952D02*
X191796190Y-112683333D01*
X191891428Y-112635714D01*
X192034286Y-112635714D01*
X192129524Y-112683333D01*
X192177143Y-112778571D01*
X192177143Y-113302381D01*
X192177143Y-112778571D02*
X192224762Y-112683333D01*
X192320000Y-112635714D01*
X192462857Y-112635714D01*
X192558095Y-112683333D01*
X192605714Y-112778571D01*
X192605714Y-113302381D01*
X157049048Y-118002381D02*
X157668096Y-118002381D01*
X157334762Y-118383333D01*
X157477620Y-118383333D01*
X157572858Y-118430952D01*
X157620477Y-118478571D01*
X157668096Y-118573810D01*
X157668096Y-118811905D01*
X157620477Y-118907143D01*
X157572858Y-118954762D01*
X157477620Y-119002381D01*
X157191905Y-119002381D01*
X157096667Y-118954762D01*
X157049048Y-118907143D01*
X158096667Y-118907143D02*
X158144286Y-118954762D01*
X158096667Y-119002381D01*
X158049048Y-118954762D01*
X158096667Y-118907143D01*
X158096667Y-119002381D01*
X159049048Y-118002381D02*
X158572857Y-118002381D01*
X158525238Y-118478571D01*
X158572857Y-118430952D01*
X158668095Y-118383333D01*
X158906191Y-118383333D01*
X159001429Y-118430952D01*
X159049048Y-118478571D01*
X159096667Y-118573810D01*
X159096667Y-118811905D01*
X159049048Y-118907143D01*
X159001429Y-118954762D01*
X158906191Y-119002381D01*
X158668095Y-119002381D01*
X158572857Y-118954762D01*
X158525238Y-118907143D01*
X159525238Y-119002381D02*
X159525238Y-118335714D01*
X159525238Y-118430952D02*
X159572857Y-118383333D01*
X159668095Y-118335714D01*
X159810953Y-118335714D01*
X159906191Y-118383333D01*
X159953810Y-118478571D01*
X159953810Y-119002381D01*
X159953810Y-118478571D02*
X160001429Y-118383333D01*
X160096667Y-118335714D01*
X160239524Y-118335714D01*
X160334762Y-118383333D01*
X160382381Y-118478571D01*
X160382381Y-119002381D01*
X160858571Y-119002381D02*
X160858571Y-118335714D01*
X160858571Y-118430952D02*
X160906190Y-118383333D01*
X161001428Y-118335714D01*
X161144286Y-118335714D01*
X161239524Y-118383333D01*
X161287143Y-118478571D01*
X161287143Y-119002381D01*
X161287143Y-118478571D02*
X161334762Y-118383333D01*
X161430000Y-118335714D01*
X161572857Y-118335714D01*
X161668095Y-118383333D01*
X161715714Y-118478571D01*
X161715714Y-119002381D01*
D12*
X113607143Y-135000000D02*
X113464286Y-134928571D01*
X113250000Y-134928571D01*
X113035715Y-135000000D01*
X112892857Y-135142857D01*
X112821429Y-135285714D01*
X112750000Y-135571429D01*
X112750000Y-135785714D01*
X112821429Y-136071429D01*
X112892857Y-136214286D01*
X113035715Y-136357143D01*
X113250000Y-136428571D01*
X113392857Y-136428571D01*
X113607143Y-136357143D01*
X113678572Y-136285714D01*
X113678572Y-135785714D01*
X113392857Y-135785714D01*
X114607143Y-134928571D02*
X114892857Y-134928571D01*
X115035715Y-135000000D01*
X115178572Y-135142857D01*
X115250000Y-135428571D01*
X115250000Y-135928571D01*
X115178572Y-136214286D01*
X115035715Y-136357143D01*
X114892857Y-136428571D01*
X114607143Y-136428571D01*
X114464286Y-136357143D01*
X114321429Y-136214286D01*
X114250000Y-135928571D01*
X114250000Y-135428571D01*
X114321429Y-135142857D01*
X114464286Y-135000000D01*
X114607143Y-134928571D01*
X128107143Y-134392857D02*
X127607143Y-134392857D01*
X127607143Y-135178571D02*
X127607143Y-133678571D01*
X128321429Y-133678571D01*
X128821428Y-134750000D02*
X129535714Y-134750000D01*
X128678571Y-135178571D02*
X129178571Y-133678571D01*
X129678571Y-135178571D01*
X130178571Y-135178571D02*
X130178571Y-133678571D01*
X131607143Y-135178571D02*
X130892857Y-135178571D01*
X130892857Y-133678571D01*
X128107143Y-130892857D02*
X128321429Y-130964286D01*
X128392857Y-131035714D01*
X128464286Y-131178571D01*
X128464286Y-131392857D01*
X128392857Y-131535714D01*
X128321429Y-131607143D01*
X128178571Y-131678571D01*
X127607143Y-131678571D01*
X127607143Y-130178571D01*
X128107143Y-130178571D01*
X128250000Y-130250000D01*
X128321429Y-130321429D01*
X128392857Y-130464286D01*
X128392857Y-130607143D01*
X128321429Y-130750000D01*
X128250000Y-130821429D01*
X128107143Y-130892857D01*
X127607143Y-130892857D01*
X129107143Y-130178571D02*
X129107143Y-131392857D01*
X129178571Y-131535714D01*
X129250000Y-131607143D01*
X129392857Y-131678571D01*
X129678571Y-131678571D01*
X129821429Y-131607143D01*
X129892857Y-131535714D01*
X129964286Y-131392857D01*
X129964286Y-130178571D01*
X130607143Y-131607143D02*
X130821429Y-131678571D01*
X131178572Y-131678571D01*
X131321429Y-131607143D01*
X131392858Y-131535714D01*
X131464286Y-131392857D01*
X131464286Y-131250000D01*
X131392858Y-131107143D01*
X131321429Y-131035714D01*
X131178572Y-130964286D01*
X130892858Y-130892857D01*
X130750000Y-130821429D01*
X130678572Y-130750000D01*
X130607143Y-130607143D01*
X130607143Y-130464286D01*
X130678572Y-130321429D01*
X130750000Y-130250000D01*
X130892858Y-130178571D01*
X131250000Y-130178571D01*
X131464286Y-130250000D01*
X132392857Y-130964286D02*
X132392857Y-131678571D01*
X131892857Y-130178571D02*
X132392857Y-130964286D01*
X132892857Y-130178571D01*
X127607143Y-127928571D02*
X127607143Y-126428571D01*
X128178571Y-126428571D01*
X128321429Y-126500000D01*
X128392857Y-126571429D01*
X128464286Y-126714286D01*
X128464286Y-126928571D01*
X128392857Y-127071429D01*
X128321429Y-127142857D01*
X128178571Y-127214286D01*
X127607143Y-127214286D01*
X129035714Y-127500000D02*
X129750000Y-127500000D01*
X128892857Y-127928571D02*
X129392857Y-126428571D01*
X129892857Y-127928571D01*
X130321428Y-127857143D02*
X130535714Y-127928571D01*
X130892857Y-127928571D01*
X131035714Y-127857143D01*
X131107143Y-127785714D01*
X131178571Y-127642857D01*
X131178571Y-127500000D01*
X131107143Y-127357143D01*
X131035714Y-127285714D01*
X130892857Y-127214286D01*
X130607143Y-127142857D01*
X130464285Y-127071429D01*
X130392857Y-127000000D01*
X130321428Y-126857143D01*
X130321428Y-126714286D01*
X130392857Y-126571429D01*
X130464285Y-126500000D01*
X130607143Y-126428571D01*
X130964285Y-126428571D01*
X131178571Y-126500000D01*
X131749999Y-127857143D02*
X131964285Y-127928571D01*
X132321428Y-127928571D01*
X132464285Y-127857143D01*
X132535714Y-127785714D01*
X132607142Y-127642857D01*
X132607142Y-127500000D01*
X132535714Y-127357143D01*
X132464285Y-127285714D01*
X132321428Y-127214286D01*
X132035714Y-127142857D01*
X131892856Y-127071429D01*
X131821428Y-127000000D01*
X131749999Y-126857143D01*
X131749999Y-126714286D01*
X131821428Y-126571429D01*
X131892856Y-126500000D01*
X132035714Y-126428571D01*
X132392856Y-126428571D01*
X132607142Y-126500000D01*
X120214287Y-100928571D02*
X119500001Y-100928571D01*
X119428572Y-101642857D01*
X119500001Y-101571429D01*
X119642858Y-101500000D01*
X120000001Y-101500000D01*
X120142858Y-101571429D01*
X120214287Y-101642857D01*
X120285715Y-101785714D01*
X120285715Y-102142857D01*
X120214287Y-102285714D01*
X120142858Y-102357143D01*
X120000001Y-102428571D01*
X119642858Y-102428571D01*
X119500001Y-102357143D01*
X119428572Y-102285714D01*
X120714286Y-100928571D02*
X121214286Y-102428571D01*
X121714286Y-100928571D01*
X121695715Y-105668571D02*
X122624286Y-105668571D01*
X122124286Y-106240000D01*
X122338572Y-106240000D01*
X122481429Y-106311429D01*
X122552858Y-106382857D01*
X122624286Y-106525714D01*
X122624286Y-106882857D01*
X122552858Y-107025714D01*
X122481429Y-107097143D01*
X122338572Y-107168571D01*
X121910000Y-107168571D01*
X121767143Y-107097143D01*
X121695715Y-107025714D01*
X123267143Y-107025714D02*
X123338571Y-107097143D01*
X123267143Y-107168571D01*
X123195714Y-107097143D01*
X123267143Y-107025714D01*
X123267143Y-107168571D01*
X123838572Y-105668571D02*
X124767143Y-105668571D01*
X124267143Y-106240000D01*
X124481429Y-106240000D01*
X124624286Y-106311429D01*
X124695715Y-106382857D01*
X124767143Y-106525714D01*
X124767143Y-106882857D01*
X124695715Y-107025714D01*
X124624286Y-107097143D01*
X124481429Y-107168571D01*
X124052857Y-107168571D01*
X123910000Y-107097143D01*
X123838572Y-107025714D01*
X125195714Y-105668571D02*
X125695714Y-107168571D01*
X126195714Y-105668571D01*
X121607143Y-110500000D02*
X121464286Y-110428571D01*
X121250000Y-110428571D01*
X121035715Y-110500000D01*
X120892857Y-110642857D01*
X120821429Y-110785714D01*
X120750000Y-111071429D01*
X120750000Y-111285714D01*
X120821429Y-111571429D01*
X120892857Y-111714286D01*
X121035715Y-111857143D01*
X121250000Y-111928571D01*
X121392857Y-111928571D01*
X121607143Y-111857143D01*
X121678572Y-111785714D01*
X121678572Y-111285714D01*
X121392857Y-111285714D01*
X122321429Y-111928571D02*
X122321429Y-110428571D01*
X123178572Y-111928571D01*
X123178572Y-110428571D01*
X123892858Y-111928571D02*
X123892858Y-110428571D01*
X124250001Y-110428571D01*
X124464286Y-110500000D01*
X124607144Y-110642857D01*
X124678572Y-110785714D01*
X124750001Y-111071429D01*
X124750001Y-111285714D01*
X124678572Y-111571429D01*
X124607144Y-111714286D01*
X124464286Y-111857143D01*
X124250001Y-111928571D01*
X123892858Y-111928571D01*
X118607143Y-92178571D02*
X118107143Y-91464286D01*
X117750000Y-92178571D02*
X117750000Y-90678571D01*
X118321428Y-90678571D01*
X118464286Y-90750000D01*
X118535714Y-90821429D01*
X118607143Y-90964286D01*
X118607143Y-91178571D01*
X118535714Y-91321429D01*
X118464286Y-91392857D01*
X118321428Y-91464286D01*
X117750000Y-91464286D01*
X119892857Y-91178571D02*
X119892857Y-92178571D01*
X119250000Y-91178571D02*
X119250000Y-91964286D01*
X119321428Y-92107143D01*
X119464286Y-92178571D01*
X119678571Y-92178571D01*
X119821428Y-92107143D01*
X119892857Y-92035714D01*
X120607143Y-91178571D02*
X120607143Y-92178571D01*
X120607143Y-91321429D02*
X120678571Y-91250000D01*
X120821429Y-91178571D01*
X121035714Y-91178571D01*
X121178571Y-91250000D01*
X121250000Y-91392857D01*
X121250000Y-92178571D01*
X118107143Y-86392857D02*
X117607143Y-86392857D01*
X117607143Y-87178571D02*
X117607143Y-85678571D01*
X118321429Y-85678571D01*
X119107143Y-87178571D02*
X118964285Y-87107143D01*
X118892857Y-86964286D01*
X118892857Y-85678571D01*
X120321428Y-87178571D02*
X120321428Y-86392857D01*
X120249999Y-86250000D01*
X120107142Y-86178571D01*
X119821428Y-86178571D01*
X119678571Y-86250000D01*
X120321428Y-87107143D02*
X120178571Y-87178571D01*
X119821428Y-87178571D01*
X119678571Y-87107143D01*
X119607142Y-86964286D01*
X119607142Y-86821429D01*
X119678571Y-86678571D01*
X119821428Y-86607143D01*
X120178571Y-86607143D01*
X120321428Y-86535714D01*
X120964285Y-87107143D02*
X121107142Y-87178571D01*
X121392857Y-87178571D01*
X121535714Y-87107143D01*
X121607142Y-86964286D01*
X121607142Y-86892857D01*
X121535714Y-86750000D01*
X121392857Y-86678571D01*
X121178571Y-86678571D01*
X121035714Y-86607143D01*
X120964285Y-86464286D01*
X120964285Y-86392857D01*
X121035714Y-86250000D01*
X121178571Y-86178571D01*
X121392857Y-86178571D01*
X121535714Y-86250000D01*
X122250000Y-87178571D02*
X122250000Y-85678571D01*
X122892857Y-87178571D02*
X122892857Y-86392857D01*
X122821428Y-86250000D01*
X122678571Y-86178571D01*
X122464286Y-86178571D01*
X122321428Y-86250000D01*
X122250000Y-86321429D01*
D13*
X196500000Y-92750000D02*
G75*
G03X193750000Y-90000000I-2750000J0D01*
G01*
X196500000Y-92750000D02*
X196500000Y-123250000D01*
X193750000Y-126000000D02*
G75*
G03X196500000Y-123250000I0J2750000D01*
G01*
X163350000Y-90000000D02*
X193750000Y-90000000D01*
X163250000Y-90000000D02*
G75*
G03X160500000Y-92750000I0J-2750000D01*
G01*
X163250000Y-126000000D02*
X193750000Y-126000000D01*
X160500000Y-92750000D02*
X160500000Y-123250000D01*
X160500000Y-123250000D02*
G75*
G03X163250000Y-126000000I2750000J0D01*
G01*
X130000000Y-123250000D02*
G75*
G03X132750000Y-126000000I2750000J0D01*
G01*
X163250000Y-126000000D02*
G75*
G03X166000000Y-123250000I0J2750000D01*
G01*
X166000000Y-92750000D02*
G75*
G03X163250000Y-90000000I-2750000J0D01*
G01*
X132750000Y-90000000D02*
G75*
G03X130000000Y-92750000I0J-2750000D01*
G01*
X132750000Y-126000000D02*
X163250000Y-126000000D01*
X130000000Y-92750000D02*
X130000000Y-123250000D01*
X166000000Y-92750000D02*
X166000000Y-123250000D01*
X132750000Y-90000000D02*
X163250000Y-90000000D01*
X112410000Y-137280000D02*
X125110000Y-137280000D01*
X125110000Y-137280000D02*
X125110000Y-139820000D01*
X125110000Y-139820000D02*
X112410000Y-139820000D01*
X109590000Y-137000000D02*
X111140000Y-137000000D01*
X112410000Y-137280000D02*
X112410000Y-139820000D01*
X111140000Y-140100000D02*
X109590000Y-140100000D01*
X109590000Y-140100000D02*
X109590000Y-137000000D01*
X135270000Y-139820000D02*
X196230000Y-139820000D01*
X196230000Y-134740000D02*
X132730000Y-134740000D01*
X196230000Y-134740000D02*
X196230000Y-139820000D01*
X132730000Y-134740000D02*
X132730000Y-137280000D01*
X132450000Y-138550000D02*
X132450000Y-140100000D01*
X132730000Y-137280000D02*
X135270000Y-137280000D01*
X135270000Y-137280000D02*
X135270000Y-139820000D01*
X132450000Y-140100000D02*
X134000000Y-140100000D01*
X118520000Y-98520000D02*
X126140000Y-98520000D01*
X118520000Y-95980000D02*
X126140000Y-95980000D01*
X115700000Y-95700000D02*
X117250000Y-95700000D01*
X126140000Y-98520000D02*
X126140000Y-95980000D01*
X118520000Y-95980000D02*
X118520000Y-98520000D01*
X117250000Y-98800000D02*
X115700000Y-98800000D01*
X115700000Y-98800000D02*
X115700000Y-95700000D01*
X135270000Y-89020000D02*
X196230000Y-89020000D01*
X196230000Y-83940000D02*
X132730000Y-83940000D01*
X196230000Y-83940000D02*
X196230000Y-89020000D01*
X132730000Y-83940000D02*
X132730000Y-86480000D01*
X132450000Y-87750000D02*
X132450000Y-89300000D01*
X132730000Y-86480000D02*
X135270000Y-86480000D01*
X135270000Y-86480000D02*
X135270000Y-89020000D01*
X132450000Y-89300000D02*
X134000000Y-89300000D01*
X188460000Y-104700000D02*
X191840000Y-104700000D01*
X189400000Y-108000000D02*
X190900000Y-108000000D01*
X190150000Y-104700000D02*
X190150000Y-111300000D01*
X188460000Y-111300000D02*
X191840000Y-111300000D01*
X114950340Y-109450180D02*
X115651380Y-109450180D01*
X115651380Y-109450180D02*
X115651380Y-109699100D01*
X115651380Y-112249160D02*
X115651380Y-112449820D01*
X115651380Y-112449820D02*
X114950340Y-112449820D01*
X111550000Y-92750000D02*
X111550000Y-93250000D01*
X115050000Y-93250000D02*
X111550000Y-93250000D01*
X115050000Y-92750000D02*
X115050000Y-93250000D01*
X115050000Y-84750000D02*
X111550000Y-84750000D01*
X111550000Y-84750000D02*
X111550000Y-85250000D01*
X115050000Y-84750000D02*
X115050000Y-85250000D01*
X114150000Y-103450000D02*
G75*
G03X114150000Y-103450000I-100000J0D01*
G01*
X113500000Y-103200000D02*
X114000000Y-103200000D01*
X113500000Y-100300000D02*
X113500000Y-103200000D01*
X114000000Y-100300000D02*
X113500000Y-100300000D01*
X114000000Y-103200000D02*
X114000000Y-100300000D01*
X113500000Y-104630000D02*
G75*
G03X113500000Y-104630000I-100000J0D01*
G01*
X113950000Y-104880000D02*
X113450000Y-104880000D01*
X113950000Y-107780000D02*
X113950000Y-104880000D01*
X113450000Y-107780000D02*
X113950000Y-107780000D01*
X113450000Y-104880000D02*
X113450000Y-107780000D01*
X124074607Y-134837969D02*
X125974607Y-134837969D01*
X124074607Y-133737969D02*
X125974607Y-133737969D01*
X124974607Y-134287969D02*
X125424607Y-134287969D01*
X124924607Y-134037969D02*
X124924607Y-134537969D01*
X124924607Y-134287969D02*
X125174607Y-134037969D01*
X125174607Y-134037969D02*
X125174607Y-134537969D01*
X125174607Y-134537969D02*
X124924607Y-134287969D01*
X124076007Y-131337969D02*
X125976007Y-131337969D01*
X124076007Y-130237969D02*
X125976007Y-130237969D01*
X124976007Y-130787969D02*
X125426007Y-130787969D01*
X124926007Y-130537969D02*
X124926007Y-131037969D01*
X124926007Y-130787969D02*
X125176007Y-130537969D01*
X125176007Y-130537969D02*
X125176007Y-131037969D01*
X125176007Y-131037969D02*
X124926007Y-130787969D01*
X124076007Y-127837969D02*
X125976007Y-127837969D01*
X124076007Y-126737969D02*
X125976007Y-126737969D01*
X124976007Y-127287969D02*
X125426007Y-127287969D01*
X124926007Y-127037969D02*
X124926007Y-127537969D01*
X124926007Y-127287969D02*
X125176007Y-127037969D01*
X125176007Y-127037969D02*
X125176007Y-127537969D01*
X125176007Y-127537969D02*
X124926007Y-127287969D01*
X119825307Y-133612969D02*
X120825307Y-133612969D01*
X120825307Y-134962969D02*
X119825307Y-134962969D01*
X119825307Y-130112969D02*
X120825307Y-130112969D01*
X120825307Y-131462969D02*
X119825307Y-131462969D01*
X119825307Y-126612969D02*
X120825307Y-126612969D01*
X120825307Y-127962969D02*
X119825307Y-127962969D01*
X115750714Y-130250000D02*
G75*
G03X115750714Y-130250000I-1750714J0D01*
G01*
X110775000Y-127025000D02*
X110900000Y-127025000D01*
X117225000Y-127025000D02*
X117100000Y-127025000D01*
X117225000Y-133475000D02*
X117100000Y-133475000D01*
X110900000Y-133475000D02*
X110775000Y-133475000D01*
X112600000Y-127025000D02*
X115400000Y-127025000D01*
X110775000Y-133475000D02*
X110775000Y-127025000D01*
X112600000Y-133475000D02*
X115400000Y-133475000D01*
X117225000Y-133475000D02*
X117225000Y-127025000D01*
X111160000Y-106010000D02*
X111160000Y-106710000D01*
X109960000Y-106710000D02*
X109960000Y-106010000D01*
X117540000Y-106010000D02*
X117540000Y-106710000D01*
X116340000Y-106710000D02*
X116340000Y-106010000D01*
D14*
G36*
X188043685Y-128826052D02*
X188119877Y-128836510D01*
X188193848Y-128852692D01*
X188260513Y-128872483D01*
X188283282Y-128880202D01*
X188303088Y-128887186D01*
X188317962Y-128892723D01*
X188325939Y-128896101D01*
X188326358Y-128896339D01*
X188327157Y-128898158D01*
X188327386Y-128902600D01*
X188326971Y-128910114D01*
X188325838Y-128921147D01*
X188323916Y-128936148D01*
X188321131Y-128955564D01*
X188317411Y-128979844D01*
X188312682Y-129009435D01*
X188306871Y-129044786D01*
X188299906Y-129086345D01*
X188291714Y-129134559D01*
X188282221Y-129189877D01*
X188271355Y-129252747D01*
X188259043Y-129323616D01*
X188245212Y-129402933D01*
X188229790Y-129491146D01*
X188226392Y-129510558D01*
X188209714Y-129605704D01*
X188194550Y-129691932D01*
X188180794Y-129769775D01*
X188168341Y-129839762D01*
X188157085Y-129902424D01*
X188146921Y-129958292D01*
X188137742Y-130007896D01*
X188129445Y-130051766D01*
X188121923Y-130090434D01*
X188115071Y-130124430D01*
X188108784Y-130154284D01*
X188102955Y-130180527D01*
X188097480Y-130203690D01*
X188092253Y-130224303D01*
X188087169Y-130242896D01*
X188082122Y-130260001D01*
X188077007Y-130276147D01*
X188071719Y-130291866D01*
X188070297Y-130295962D01*
X188039034Y-130374422D01*
X188002728Y-130444786D01*
X187961187Y-130507227D01*
X187914217Y-130561918D01*
X187861623Y-130609032D01*
X187803214Y-130648742D01*
X187738794Y-130681220D01*
X187668171Y-130706638D01*
X187591150Y-130725171D01*
X187588743Y-130725621D01*
X187568141Y-130728427D01*
X187540050Y-130730809D01*
X187506561Y-130732720D01*
X187469762Y-130734115D01*
X187431743Y-130734945D01*
X187394593Y-130735164D01*
X187360402Y-130734725D01*
X187331259Y-130733580D01*
X187310717Y-130731867D01*
X187283386Y-130728045D01*
X187253298Y-130722941D01*
X187222083Y-130716930D01*
X187191370Y-130710384D01*
X187162791Y-130703677D01*
X187137975Y-130697182D01*
X187118553Y-130691272D01*
X187106155Y-130686320D01*
X187103113Y-130684333D01*
X187102668Y-130678761D01*
X187103694Y-130665913D01*
X187105871Y-130647926D01*
X187108878Y-130626940D01*
X187112395Y-130605093D01*
X187116102Y-130584524D01*
X187119678Y-130567373D01*
X187121989Y-130558349D01*
X187123227Y-130556078D01*
X187126104Y-130554255D01*
X187131578Y-130552833D01*
X187140610Y-130551761D01*
X187154159Y-130550990D01*
X187173186Y-130550471D01*
X187198649Y-130550154D01*
X187231510Y-130549990D01*
X187272727Y-130549931D01*
X187285879Y-130549926D01*
X187325781Y-130549774D01*
X187363903Y-130549361D01*
X187398852Y-130548722D01*
X187429236Y-130547891D01*
X187453661Y-130546904D01*
X187470737Y-130545797D01*
X187476907Y-130545085D01*
X187533227Y-130531585D01*
X187584067Y-130510244D01*
X187629452Y-130481042D01*
X187669407Y-130443957D01*
X187703957Y-130398969D01*
X187733125Y-130346055D01*
X187747162Y-130312837D01*
X187753331Y-130295166D01*
X187760374Y-130272534D01*
X187767735Y-130247039D01*
X187774859Y-130220777D01*
X187781188Y-130195846D01*
X187786168Y-130174344D01*
X187789241Y-130158367D01*
X187789962Y-130151422D01*
X187788710Y-130148133D01*
X187783970Y-130147902D01*
X187774266Y-130151120D01*
X187758122Y-130158183D01*
X187749388Y-130162239D01*
X187717756Y-130176255D01*
X187689495Y-130186630D01*
X187662111Y-130193868D01*
X187633107Y-130198468D01*
X187599988Y-130200933D01*
X187560258Y-130201766D01*
X187552735Y-130201781D01*
X187520441Y-130201599D01*
X187495553Y-130200923D01*
X187475896Y-130199564D01*
X187459297Y-130197329D01*
X187443580Y-130194028D01*
X187432924Y-130191253D01*
X187379163Y-130172967D01*
X187333151Y-130149620D01*
X187294266Y-130120826D01*
X187261889Y-130086198D01*
X187259630Y-130083255D01*
X187229479Y-130035593D01*
X187205860Y-129980938D01*
X187188773Y-129919317D01*
X187178224Y-129850756D01*
X187174640Y-129783248D01*
X187497165Y-129783248D01*
X187501874Y-129841126D01*
X187511463Y-129891394D01*
X187516964Y-129910170D01*
X187533191Y-129946162D01*
X187555630Y-129975025D01*
X187583868Y-129996558D01*
X187617496Y-130010562D01*
X187656102Y-130016835D01*
X187699277Y-130015180D01*
X187724100Y-130010971D01*
X187743515Y-130005602D01*
X187764724Y-129997738D01*
X187785608Y-129988419D01*
X187804047Y-129978687D01*
X187817922Y-129969581D01*
X187825111Y-129962145D01*
X187825500Y-129961180D01*
X187826676Y-129955296D01*
X187829345Y-129940784D01*
X187833372Y-129918421D01*
X187838620Y-129888984D01*
X187844954Y-129853251D01*
X187852238Y-129811999D01*
X187860337Y-129766005D01*
X187869115Y-129716047D01*
X187878436Y-129662903D01*
X187888164Y-129607348D01*
X187898165Y-129550162D01*
X187908302Y-129492121D01*
X187918439Y-129434002D01*
X187928442Y-129376583D01*
X187938173Y-129320641D01*
X187947499Y-129266954D01*
X187956282Y-129216299D01*
X187964388Y-129169453D01*
X187971681Y-129127194D01*
X187978024Y-129090298D01*
X187983283Y-129059544D01*
X187987322Y-129035709D01*
X187990005Y-129019570D01*
X187991196Y-129011904D01*
X187991245Y-129011409D01*
X187988670Y-129009306D01*
X187980334Y-129007932D01*
X187965319Y-129007249D01*
X187942708Y-129007219D01*
X187911583Y-129007806D01*
X187906179Y-129007944D01*
X187872812Y-129009006D01*
X187847112Y-129010355D01*
X187827160Y-129012197D01*
X187811039Y-129014737D01*
X187796831Y-129018183D01*
X187789243Y-129020504D01*
X187747589Y-129038723D01*
X187709183Y-129065357D01*
X187673955Y-129100518D01*
X187641831Y-129144318D01*
X187612738Y-129196868D01*
X187586603Y-129258281D01*
X187563354Y-129328670D01*
X187545962Y-129394981D01*
X187526639Y-129484365D01*
X187512073Y-129568320D01*
X187502289Y-129646409D01*
X187497312Y-129718198D01*
X187497165Y-129783248D01*
X187174640Y-129783248D01*
X187174216Y-129775281D01*
X187176751Y-129692920D01*
X187185834Y-129603698D01*
X187191456Y-129565113D01*
X187210422Y-129460468D01*
X187232971Y-129364600D01*
X187259166Y-129277373D01*
X187289069Y-129198651D01*
X187322743Y-129128295D01*
X187360250Y-129066169D01*
X187401653Y-129012135D01*
X187447015Y-128966058D01*
X187476198Y-128942143D01*
X187527507Y-128907616D01*
X187581809Y-128879321D01*
X187640117Y-128856951D01*
X187703449Y-128840201D01*
X187772821Y-128828762D01*
X187849247Y-128822329D01*
X187876629Y-128821238D01*
X187963269Y-128821050D01*
X188043685Y-128826052D01*
X188043685Y-128826052D01*
G37*
X188043685Y-128826052D02*
X188119877Y-128836510D01*
X188193848Y-128852692D01*
X188260513Y-128872483D01*
X188283282Y-128880202D01*
X188303088Y-128887186D01*
X188317962Y-128892723D01*
X188325939Y-128896101D01*
X188326358Y-128896339D01*
X188327157Y-128898158D01*
X188327386Y-128902600D01*
X188326971Y-128910114D01*
X188325838Y-128921147D01*
X188323916Y-128936148D01*
X188321131Y-128955564D01*
X188317411Y-128979844D01*
X188312682Y-129009435D01*
X188306871Y-129044786D01*
X188299906Y-129086345D01*
X188291714Y-129134559D01*
X188282221Y-129189877D01*
X188271355Y-129252747D01*
X188259043Y-129323616D01*
X188245212Y-129402933D01*
X188229790Y-129491146D01*
X188226392Y-129510558D01*
X188209714Y-129605704D01*
X188194550Y-129691932D01*
X188180794Y-129769775D01*
X188168341Y-129839762D01*
X188157085Y-129902424D01*
X188146921Y-129958292D01*
X188137742Y-130007896D01*
X188129445Y-130051766D01*
X188121923Y-130090434D01*
X188115071Y-130124430D01*
X188108784Y-130154284D01*
X188102955Y-130180527D01*
X188097480Y-130203690D01*
X188092253Y-130224303D01*
X188087169Y-130242896D01*
X188082122Y-130260001D01*
X188077007Y-130276147D01*
X188071719Y-130291866D01*
X188070297Y-130295962D01*
X188039034Y-130374422D01*
X188002728Y-130444786D01*
X187961187Y-130507227D01*
X187914217Y-130561918D01*
X187861623Y-130609032D01*
X187803214Y-130648742D01*
X187738794Y-130681220D01*
X187668171Y-130706638D01*
X187591150Y-130725171D01*
X187588743Y-130725621D01*
X187568141Y-130728427D01*
X187540050Y-130730809D01*
X187506561Y-130732720D01*
X187469762Y-130734115D01*
X187431743Y-130734945D01*
X187394593Y-130735164D01*
X187360402Y-130734725D01*
X187331259Y-130733580D01*
X187310717Y-130731867D01*
X187283386Y-130728045D01*
X187253298Y-130722941D01*
X187222083Y-130716930D01*
X187191370Y-130710384D01*
X187162791Y-130703677D01*
X187137975Y-130697182D01*
X187118553Y-130691272D01*
X187106155Y-130686320D01*
X187103113Y-130684333D01*
X187102668Y-130678761D01*
X187103694Y-130665913D01*
X187105871Y-130647926D01*
X187108878Y-130626940D01*
X187112395Y-130605093D01*
X187116102Y-130584524D01*
X187119678Y-130567373D01*
X187121989Y-130558349D01*
X187123227Y-130556078D01*
X187126104Y-130554255D01*
X187131578Y-130552833D01*
X187140610Y-130551761D01*
X187154159Y-130550990D01*
X187173186Y-130550471D01*
X187198649Y-130550154D01*
X187231510Y-130549990D01*
X187272727Y-130549931D01*
X187285879Y-130549926D01*
X187325781Y-130549774D01*
X187363903Y-130549361D01*
X187398852Y-130548722D01*
X187429236Y-130547891D01*
X187453661Y-130546904D01*
X187470737Y-130545797D01*
X187476907Y-130545085D01*
X187533227Y-130531585D01*
X187584067Y-130510244D01*
X187629452Y-130481042D01*
X187669407Y-130443957D01*
X187703957Y-130398969D01*
X187733125Y-130346055D01*
X187747162Y-130312837D01*
X187753331Y-130295166D01*
X187760374Y-130272534D01*
X187767735Y-130247039D01*
X187774859Y-130220777D01*
X187781188Y-130195846D01*
X187786168Y-130174344D01*
X187789241Y-130158367D01*
X187789962Y-130151422D01*
X187788710Y-130148133D01*
X187783970Y-130147902D01*
X187774266Y-130151120D01*
X187758122Y-130158183D01*
X187749388Y-130162239D01*
X187717756Y-130176255D01*
X187689495Y-130186630D01*
X187662111Y-130193868D01*
X187633107Y-130198468D01*
X187599988Y-130200933D01*
X187560258Y-130201766D01*
X187552735Y-130201781D01*
X187520441Y-130201599D01*
X187495553Y-130200923D01*
X187475896Y-130199564D01*
X187459297Y-130197329D01*
X187443580Y-130194028D01*
X187432924Y-130191253D01*
X187379163Y-130172967D01*
X187333151Y-130149620D01*
X187294266Y-130120826D01*
X187261889Y-130086198D01*
X187259630Y-130083255D01*
X187229479Y-130035593D01*
X187205860Y-129980938D01*
X187188773Y-129919317D01*
X187178224Y-129850756D01*
X187174640Y-129783248D01*
X187497165Y-129783248D01*
X187501874Y-129841126D01*
X187511463Y-129891394D01*
X187516964Y-129910170D01*
X187533191Y-129946162D01*
X187555630Y-129975025D01*
X187583868Y-129996558D01*
X187617496Y-130010562D01*
X187656102Y-130016835D01*
X187699277Y-130015180D01*
X187724100Y-130010971D01*
X187743515Y-130005602D01*
X187764724Y-129997738D01*
X187785608Y-129988419D01*
X187804047Y-129978687D01*
X187817922Y-129969581D01*
X187825111Y-129962145D01*
X187825500Y-129961180D01*
X187826676Y-129955296D01*
X187829345Y-129940784D01*
X187833372Y-129918421D01*
X187838620Y-129888984D01*
X187844954Y-129853251D01*
X187852238Y-129811999D01*
X187860337Y-129766005D01*
X187869115Y-129716047D01*
X187878436Y-129662903D01*
X187888164Y-129607348D01*
X187898165Y-129550162D01*
X187908302Y-129492121D01*
X187918439Y-129434002D01*
X187928442Y-129376583D01*
X187938173Y-129320641D01*
X187947499Y-129266954D01*
X187956282Y-129216299D01*
X187964388Y-129169453D01*
X187971681Y-129127194D01*
X187978024Y-129090298D01*
X187983283Y-129059544D01*
X187987322Y-129035709D01*
X187990005Y-129019570D01*
X187991196Y-129011904D01*
X187991245Y-129011409D01*
X187988670Y-129009306D01*
X187980334Y-129007932D01*
X187965319Y-129007249D01*
X187942708Y-129007219D01*
X187911583Y-129007806D01*
X187906179Y-129007944D01*
X187872812Y-129009006D01*
X187847112Y-129010355D01*
X187827160Y-129012197D01*
X187811039Y-129014737D01*
X187796831Y-129018183D01*
X187789243Y-129020504D01*
X187747589Y-129038723D01*
X187709183Y-129065357D01*
X187673955Y-129100518D01*
X187641831Y-129144318D01*
X187612738Y-129196868D01*
X187586603Y-129258281D01*
X187563354Y-129328670D01*
X187545962Y-129394981D01*
X187526639Y-129484365D01*
X187512073Y-129568320D01*
X187502289Y-129646409D01*
X187497312Y-129718198D01*
X187497165Y-129783248D01*
X187174640Y-129783248D01*
X187174216Y-129775281D01*
X187176751Y-129692920D01*
X187185834Y-129603698D01*
X187191456Y-129565113D01*
X187210422Y-129460468D01*
X187232971Y-129364600D01*
X187259166Y-129277373D01*
X187289069Y-129198651D01*
X187322743Y-129128295D01*
X187360250Y-129066169D01*
X187401653Y-129012135D01*
X187447015Y-128966058D01*
X187476198Y-128942143D01*
X187527507Y-128907616D01*
X187581809Y-128879321D01*
X187640117Y-128856951D01*
X187703449Y-128840201D01*
X187772821Y-128828762D01*
X187849247Y-128822329D01*
X187876629Y-128821238D01*
X187963269Y-128821050D01*
X188043685Y-128826052D01*
G36*
X190319752Y-128551615D02*
X190354505Y-128551913D01*
X190384969Y-128552380D01*
X190410006Y-128552988D01*
X190428479Y-128553713D01*
X190439252Y-128554530D01*
X190441591Y-128555104D01*
X190441171Y-128560290D01*
X190439304Y-128573576D01*
X190436217Y-128593623D01*
X190432135Y-128619093D01*
X190427283Y-128648646D01*
X190421887Y-128680945D01*
X190416172Y-128714650D01*
X190410365Y-128748424D01*
X190404689Y-128780928D01*
X190399371Y-128810823D01*
X190394637Y-128836770D01*
X190390712Y-128857432D01*
X190390319Y-128859425D01*
X190387711Y-128872604D01*
X190748103Y-128872604D01*
X190745159Y-128887326D01*
X190743194Y-128897704D01*
X190740016Y-128915105D01*
X190736062Y-128937110D01*
X190731770Y-128961302D01*
X190731732Y-128961515D01*
X190721250Y-129020982D01*
X190694652Y-129028714D01*
X190638253Y-129042996D01*
X190575712Y-129055129D01*
X190510330Y-129064591D01*
X190445412Y-129070862D01*
X190417329Y-129072499D01*
X190391515Y-129073761D01*
X190373716Y-129075009D01*
X190362366Y-129076550D01*
X190355899Y-129078690D01*
X190352751Y-129081737D01*
X190351482Y-129085413D01*
X190350294Y-129091683D01*
X190347574Y-129106620D01*
X190343460Y-129129454D01*
X190338089Y-129159414D01*
X190331599Y-129195730D01*
X190324128Y-129237631D01*
X190315813Y-129284346D01*
X190306792Y-129335105D01*
X190297202Y-129389136D01*
X190288520Y-129438113D01*
X190276829Y-129504208D01*
X190266725Y-129561630D01*
X190258095Y-129611139D01*
X190250821Y-129653494D01*
X190244789Y-129689455D01*
X190239884Y-129719782D01*
X190235989Y-129745233D01*
X190232990Y-129766570D01*
X190230771Y-129784551D01*
X190229217Y-129799936D01*
X190228212Y-129813484D01*
X190227642Y-129825955D01*
X190227390Y-129838109D01*
X190227366Y-129840679D01*
X190228017Y-129878046D01*
X190230962Y-129907868D01*
X190236769Y-129932027D01*
X190246007Y-129952409D01*
X190259241Y-129970894D01*
X190270133Y-129982664D01*
X190280066Y-129992150D01*
X190289743Y-129999773D01*
X190300320Y-130005735D01*
X190312953Y-130010238D01*
X190328797Y-130013487D01*
X190349008Y-130015682D01*
X190374740Y-130017027D01*
X190407151Y-130017724D01*
X190447393Y-130017977D01*
X190471575Y-130018000D01*
X190505301Y-130018043D01*
X190535645Y-130018165D01*
X190561363Y-130018355D01*
X190581205Y-130018599D01*
X190593927Y-130018887D01*
X190598284Y-130019198D01*
X190596972Y-130030483D01*
X190594063Y-130047477D01*
X190590021Y-130068092D01*
X190585308Y-130090242D01*
X190580388Y-130111840D01*
X190575725Y-130130799D01*
X190571782Y-130145032D01*
X190569022Y-130152453D01*
X190568571Y-130152999D01*
X190558490Y-130157527D01*
X190541231Y-130163251D01*
X190519028Y-130169553D01*
X190494116Y-130175814D01*
X190468727Y-130181415D01*
X190459358Y-130183253D01*
X190401650Y-130192534D01*
X190342542Y-130199107D01*
X190284195Y-130202873D01*
X190228771Y-130203737D01*
X190178432Y-130201600D01*
X190142012Y-130197472D01*
X190087633Y-130185889D01*
X190041037Y-130169130D01*
X190001749Y-130146888D01*
X189969296Y-130118854D01*
X189943202Y-130084721D01*
X189929665Y-130059626D01*
X189913123Y-130014300D01*
X189902683Y-129962435D01*
X189898444Y-129904966D01*
X189900503Y-129842825D01*
X189903667Y-129812324D01*
X189905134Y-129802478D01*
X189908084Y-129784262D01*
X189912356Y-129758606D01*
X189917788Y-129726440D01*
X189924217Y-129688695D01*
X189931482Y-129646301D01*
X189939421Y-129600188D01*
X189947871Y-129551286D01*
X189956671Y-129500525D01*
X189965658Y-129448836D01*
X189974671Y-129397148D01*
X189983547Y-129346392D01*
X189992126Y-129297497D01*
X190000244Y-129251395D01*
X190007739Y-129209015D01*
X190014450Y-129171287D01*
X190020215Y-129139142D01*
X190024871Y-129113510D01*
X190028257Y-129095320D01*
X190030211Y-129085503D01*
X190030375Y-129084792D01*
X190031104Y-129080732D01*
X190030101Y-129077832D01*
X190026004Y-129075862D01*
X190017448Y-129074591D01*
X190003071Y-129073788D01*
X189981509Y-129073222D01*
X189959513Y-129072811D01*
X189886074Y-129071491D01*
X189903141Y-128973245D01*
X189920207Y-128875000D01*
X189993232Y-128873677D01*
X190021112Y-128873118D01*
X190040873Y-128872460D01*
X190053978Y-128871471D01*
X190061891Y-128869918D01*
X190066078Y-128867569D01*
X190068002Y-128864190D01*
X190068652Y-128861696D01*
X190070058Y-128854373D01*
X190072860Y-128838892D01*
X190076830Y-128816539D01*
X190081741Y-128788604D01*
X190087366Y-128756374D01*
X190093478Y-128721138D01*
X190095047Y-128712057D01*
X190101250Y-128676264D01*
X190107029Y-128643151D01*
X190112156Y-128614007D01*
X190116403Y-128590122D01*
X190119542Y-128572785D01*
X190121345Y-128563286D01*
X190121558Y-128562292D01*
X190124069Y-128551509D01*
X190281846Y-128551509D01*
X190319752Y-128551615D01*
X190319752Y-128551615D01*
G37*
X190319752Y-128551615D02*
X190354505Y-128551913D01*
X190384969Y-128552380D01*
X190410006Y-128552988D01*
X190428479Y-128553713D01*
X190439252Y-128554530D01*
X190441591Y-128555104D01*
X190441171Y-128560290D01*
X190439304Y-128573576D01*
X190436217Y-128593623D01*
X190432135Y-128619093D01*
X190427283Y-128648646D01*
X190421887Y-128680945D01*
X190416172Y-128714650D01*
X190410365Y-128748424D01*
X190404689Y-128780928D01*
X190399371Y-128810823D01*
X190394637Y-128836770D01*
X190390712Y-128857432D01*
X190390319Y-128859425D01*
X190387711Y-128872604D01*
X190748103Y-128872604D01*
X190745159Y-128887326D01*
X190743194Y-128897704D01*
X190740016Y-128915105D01*
X190736062Y-128937110D01*
X190731770Y-128961302D01*
X190731732Y-128961515D01*
X190721250Y-129020982D01*
X190694652Y-129028714D01*
X190638253Y-129042996D01*
X190575712Y-129055129D01*
X190510330Y-129064591D01*
X190445412Y-129070862D01*
X190417329Y-129072499D01*
X190391515Y-129073761D01*
X190373716Y-129075009D01*
X190362366Y-129076550D01*
X190355899Y-129078690D01*
X190352751Y-129081737D01*
X190351482Y-129085413D01*
X190350294Y-129091683D01*
X190347574Y-129106620D01*
X190343460Y-129129454D01*
X190338089Y-129159414D01*
X190331599Y-129195730D01*
X190324128Y-129237631D01*
X190315813Y-129284346D01*
X190306792Y-129335105D01*
X190297202Y-129389136D01*
X190288520Y-129438113D01*
X190276829Y-129504208D01*
X190266725Y-129561630D01*
X190258095Y-129611139D01*
X190250821Y-129653494D01*
X190244789Y-129689455D01*
X190239884Y-129719782D01*
X190235989Y-129745233D01*
X190232990Y-129766570D01*
X190230771Y-129784551D01*
X190229217Y-129799936D01*
X190228212Y-129813484D01*
X190227642Y-129825955D01*
X190227390Y-129838109D01*
X190227366Y-129840679D01*
X190228017Y-129878046D01*
X190230962Y-129907868D01*
X190236769Y-129932027D01*
X190246007Y-129952409D01*
X190259241Y-129970894D01*
X190270133Y-129982664D01*
X190280066Y-129992150D01*
X190289743Y-129999773D01*
X190300320Y-130005735D01*
X190312953Y-130010238D01*
X190328797Y-130013487D01*
X190349008Y-130015682D01*
X190374740Y-130017027D01*
X190407151Y-130017724D01*
X190447393Y-130017977D01*
X190471575Y-130018000D01*
X190505301Y-130018043D01*
X190535645Y-130018165D01*
X190561363Y-130018355D01*
X190581205Y-130018599D01*
X190593927Y-130018887D01*
X190598284Y-130019198D01*
X190596972Y-130030483D01*
X190594063Y-130047477D01*
X190590021Y-130068092D01*
X190585308Y-130090242D01*
X190580388Y-130111840D01*
X190575725Y-130130799D01*
X190571782Y-130145032D01*
X190569022Y-130152453D01*
X190568571Y-130152999D01*
X190558490Y-130157527D01*
X190541231Y-130163251D01*
X190519028Y-130169553D01*
X190494116Y-130175814D01*
X190468727Y-130181415D01*
X190459358Y-130183253D01*
X190401650Y-130192534D01*
X190342542Y-130199107D01*
X190284195Y-130202873D01*
X190228771Y-130203737D01*
X190178432Y-130201600D01*
X190142012Y-130197472D01*
X190087633Y-130185889D01*
X190041037Y-130169130D01*
X190001749Y-130146888D01*
X189969296Y-130118854D01*
X189943202Y-130084721D01*
X189929665Y-130059626D01*
X189913123Y-130014300D01*
X189902683Y-129962435D01*
X189898444Y-129904966D01*
X189900503Y-129842825D01*
X189903667Y-129812324D01*
X189905134Y-129802478D01*
X189908084Y-129784262D01*
X189912356Y-129758606D01*
X189917788Y-129726440D01*
X189924217Y-129688695D01*
X189931482Y-129646301D01*
X189939421Y-129600188D01*
X189947871Y-129551286D01*
X189956671Y-129500525D01*
X189965658Y-129448836D01*
X189974671Y-129397148D01*
X189983547Y-129346392D01*
X189992126Y-129297497D01*
X190000244Y-129251395D01*
X190007739Y-129209015D01*
X190014450Y-129171287D01*
X190020215Y-129139142D01*
X190024871Y-129113510D01*
X190028257Y-129095320D01*
X190030211Y-129085503D01*
X190030375Y-129084792D01*
X190031104Y-129080732D01*
X190030101Y-129077832D01*
X190026004Y-129075862D01*
X190017448Y-129074591D01*
X190003071Y-129073788D01*
X189981509Y-129073222D01*
X189959513Y-129072811D01*
X189886074Y-129071491D01*
X189903141Y-128973245D01*
X189920207Y-128875000D01*
X189993232Y-128873677D01*
X190021112Y-128873118D01*
X190040873Y-128872460D01*
X190053978Y-128871471D01*
X190061891Y-128869918D01*
X190066078Y-128867569D01*
X190068002Y-128864190D01*
X190068652Y-128861696D01*
X190070058Y-128854373D01*
X190072860Y-128838892D01*
X190076830Y-128816539D01*
X190081741Y-128788604D01*
X190087366Y-128756374D01*
X190093478Y-128721138D01*
X190095047Y-128712057D01*
X190101250Y-128676264D01*
X190107029Y-128643151D01*
X190112156Y-128614007D01*
X190116403Y-128590122D01*
X190119542Y-128572785D01*
X190121345Y-128563286D01*
X190121558Y-128562292D01*
X190124069Y-128551509D01*
X190281846Y-128551509D01*
X190319752Y-128551615D01*
G36*
X191651214Y-128289858D02*
X191707425Y-128292609D01*
X191762298Y-128296837D01*
X191814037Y-128302515D01*
X191834792Y-128305384D01*
X191861070Y-128309728D01*
X191888569Y-128315047D01*
X191915470Y-128320902D01*
X191939949Y-128326853D01*
X191960189Y-128332462D01*
X191974366Y-128337289D01*
X191980326Y-128340485D01*
X191981135Y-128346582D01*
X191980326Y-128360233D01*
X191978157Y-128379590D01*
X191974892Y-128402808D01*
X191970790Y-128428041D01*
X191966112Y-128453443D01*
X191961119Y-128477167D01*
X191960832Y-128478425D01*
X191958357Y-128489208D01*
X191753222Y-128489208D01*
X191697673Y-128489277D01*
X191650701Y-128489541D01*
X191611301Y-128490086D01*
X191578466Y-128490995D01*
X191551189Y-128492352D01*
X191528463Y-128494244D01*
X191509283Y-128496754D01*
X191492642Y-128499967D01*
X191477533Y-128503968D01*
X191462950Y-128508841D01*
X191447887Y-128514670D01*
X191447221Y-128514941D01*
X191400141Y-128538975D01*
X191359323Y-128570210D01*
X191324855Y-128608516D01*
X191296822Y-128653764D01*
X191275312Y-128705826D01*
X191260410Y-128764571D01*
X191254711Y-128802668D01*
X191252511Y-128848959D01*
X191257542Y-128890605D01*
X191270336Y-128929122D01*
X191291424Y-128966024D01*
X191321336Y-129002825D01*
X191326969Y-129008798D01*
X191345128Y-129026892D01*
X191363658Y-129043416D01*
X191383801Y-129059191D01*
X191406801Y-129075035D01*
X191433899Y-129091770D01*
X191466338Y-129110215D01*
X191505359Y-129131191D01*
X191538782Y-129148606D01*
X191584993Y-129173059D01*
X191623832Y-129195082D01*
X191656848Y-129215751D01*
X191685591Y-129236140D01*
X191711611Y-129257323D01*
X191736457Y-129280377D01*
X191753013Y-129297189D01*
X191791841Y-129343756D01*
X191822486Y-129394098D01*
X191845933Y-129449888D01*
X191849916Y-129462075D01*
X191854086Y-129476335D01*
X191857073Y-129489601D01*
X191859062Y-129503884D01*
X191860235Y-129521197D01*
X191860776Y-129543551D01*
X191860868Y-129572960D01*
X191860842Y-129581887D01*
X191860446Y-129617226D01*
X191859414Y-129645471D01*
X191857544Y-129669103D01*
X191854635Y-129690601D01*
X191850484Y-129712448D01*
X191850028Y-129714582D01*
X191829388Y-129791098D01*
X191801761Y-129861736D01*
X191767365Y-129926190D01*
X191726421Y-129984157D01*
X191679148Y-130035332D01*
X191625767Y-130079409D01*
X191566495Y-130116085D01*
X191556830Y-130121071D01*
X191503503Y-130145031D01*
X191446957Y-130164639D01*
X191385174Y-130180502D01*
X191317207Y-130193059D01*
X191294432Y-130195739D01*
X191263923Y-130198061D01*
X191227522Y-130199988D01*
X191187076Y-130201486D01*
X191144429Y-130202519D01*
X191101425Y-130203049D01*
X191059909Y-130203042D01*
X191021726Y-130202462D01*
X190988719Y-130201273D01*
X190967358Y-130199865D01*
X190931535Y-130196261D01*
X190894571Y-130191608D01*
X190857744Y-130186155D01*
X190822331Y-130180155D01*
X190789610Y-130173860D01*
X190760860Y-130167520D01*
X190737359Y-130161387D01*
X190720383Y-130155714D01*
X190711212Y-130150750D01*
X190710084Y-130149234D01*
X190709962Y-130142028D01*
X190711559Y-130126925D01*
X190714647Y-130105412D01*
X190718993Y-130078977D01*
X190724367Y-130049107D01*
X190730539Y-130017289D01*
X190730637Y-130016802D01*
X190733289Y-130003623D01*
X190947371Y-130003529D01*
X191005464Y-130003411D01*
X191054841Y-130003096D01*
X191096368Y-130002561D01*
X191130911Y-130001783D01*
X191159338Y-130000739D01*
X191182513Y-129999406D01*
X191201306Y-129997760D01*
X191211773Y-129996485D01*
X191265876Y-129987098D01*
X191312247Y-129974618D01*
X191352440Y-129958330D01*
X191388009Y-129937521D01*
X191420506Y-129911478D01*
X191440864Y-129891249D01*
X191465532Y-129862155D01*
X191485038Y-129832328D01*
X191501204Y-129798618D01*
X191513103Y-129766296D01*
X191528291Y-129709889D01*
X191534845Y-129657542D01*
X191532717Y-129609059D01*
X191521862Y-129564243D01*
X191502232Y-129522899D01*
X191473781Y-129484829D01*
X191438194Y-129451236D01*
X191424125Y-129440240D01*
X191409042Y-129429464D01*
X191391789Y-129418225D01*
X191371210Y-129405840D01*
X191346149Y-129391625D01*
X191315450Y-129374899D01*
X191277959Y-129354977D01*
X191253887Y-129342340D01*
X191193859Y-129309583D01*
X191142285Y-129278389D01*
X191098315Y-129248035D01*
X191061093Y-129217796D01*
X191029768Y-129186948D01*
X191003486Y-129154767D01*
X190981396Y-129120530D01*
X190971980Y-129103055D01*
X190948164Y-129045998D01*
X190932870Y-128985200D01*
X190926050Y-128920368D01*
X190927657Y-128851208D01*
X190928759Y-128839057D01*
X190939357Y-128762228D01*
X190955245Y-128692767D01*
X190976805Y-128629812D01*
X191004418Y-128572496D01*
X191038466Y-128519956D01*
X191079331Y-128471328D01*
X191100658Y-128449906D01*
X191151374Y-128406849D01*
X191206327Y-128370832D01*
X191266449Y-128341405D01*
X191332672Y-128318118D01*
X191405931Y-128300521D01*
X191412992Y-128299184D01*
X191448935Y-128294154D01*
X191492526Y-128290732D01*
X191541968Y-128288894D01*
X191595463Y-128288611D01*
X191651214Y-128289858D01*
X191651214Y-128289858D01*
G37*
X191651214Y-128289858D02*
X191707425Y-128292609D01*
X191762298Y-128296837D01*
X191814037Y-128302515D01*
X191834792Y-128305384D01*
X191861070Y-128309728D01*
X191888569Y-128315047D01*
X191915470Y-128320902D01*
X191939949Y-128326853D01*
X191960189Y-128332462D01*
X191974366Y-128337289D01*
X191980326Y-128340485D01*
X191981135Y-128346582D01*
X191980326Y-128360233D01*
X191978157Y-128379590D01*
X191974892Y-128402808D01*
X191970790Y-128428041D01*
X191966112Y-128453443D01*
X191961119Y-128477167D01*
X191960832Y-128478425D01*
X191958357Y-128489208D01*
X191753222Y-128489208D01*
X191697673Y-128489277D01*
X191650701Y-128489541D01*
X191611301Y-128490086D01*
X191578466Y-128490995D01*
X191551189Y-128492352D01*
X191528463Y-128494244D01*
X191509283Y-128496754D01*
X191492642Y-128499967D01*
X191477533Y-128503968D01*
X191462950Y-128508841D01*
X191447887Y-128514670D01*
X191447221Y-128514941D01*
X191400141Y-128538975D01*
X191359323Y-128570210D01*
X191324855Y-128608516D01*
X191296822Y-128653764D01*
X191275312Y-128705826D01*
X191260410Y-128764571D01*
X191254711Y-128802668D01*
X191252511Y-128848959D01*
X191257542Y-128890605D01*
X191270336Y-128929122D01*
X191291424Y-128966024D01*
X191321336Y-129002825D01*
X191326969Y-129008798D01*
X191345128Y-129026892D01*
X191363658Y-129043416D01*
X191383801Y-129059191D01*
X191406801Y-129075035D01*
X191433899Y-129091770D01*
X191466338Y-129110215D01*
X191505359Y-129131191D01*
X191538782Y-129148606D01*
X191584993Y-129173059D01*
X191623832Y-129195082D01*
X191656848Y-129215751D01*
X191685591Y-129236140D01*
X191711611Y-129257323D01*
X191736457Y-129280377D01*
X191753013Y-129297189D01*
X191791841Y-129343756D01*
X191822486Y-129394098D01*
X191845933Y-129449888D01*
X191849916Y-129462075D01*
X191854086Y-129476335D01*
X191857073Y-129489601D01*
X191859062Y-129503884D01*
X191860235Y-129521197D01*
X191860776Y-129543551D01*
X191860868Y-129572960D01*
X191860842Y-129581887D01*
X191860446Y-129617226D01*
X191859414Y-129645471D01*
X191857544Y-129669103D01*
X191854635Y-129690601D01*
X191850484Y-129712448D01*
X191850028Y-129714582D01*
X191829388Y-129791098D01*
X191801761Y-129861736D01*
X191767365Y-129926190D01*
X191726421Y-129984157D01*
X191679148Y-130035332D01*
X191625767Y-130079409D01*
X191566495Y-130116085D01*
X191556830Y-130121071D01*
X191503503Y-130145031D01*
X191446957Y-130164639D01*
X191385174Y-130180502D01*
X191317207Y-130193059D01*
X191294432Y-130195739D01*
X191263923Y-130198061D01*
X191227522Y-130199988D01*
X191187076Y-130201486D01*
X191144429Y-130202519D01*
X191101425Y-130203049D01*
X191059909Y-130203042D01*
X191021726Y-130202462D01*
X190988719Y-130201273D01*
X190967358Y-130199865D01*
X190931535Y-130196261D01*
X190894571Y-130191608D01*
X190857744Y-130186155D01*
X190822331Y-130180155D01*
X190789610Y-130173860D01*
X190760860Y-130167520D01*
X190737359Y-130161387D01*
X190720383Y-130155714D01*
X190711212Y-130150750D01*
X190710084Y-130149234D01*
X190709962Y-130142028D01*
X190711559Y-130126925D01*
X190714647Y-130105412D01*
X190718993Y-130078977D01*
X190724367Y-130049107D01*
X190730539Y-130017289D01*
X190730637Y-130016802D01*
X190733289Y-130003623D01*
X190947371Y-130003529D01*
X191005464Y-130003411D01*
X191054841Y-130003096D01*
X191096368Y-130002561D01*
X191130911Y-130001783D01*
X191159338Y-130000739D01*
X191182513Y-129999406D01*
X191201306Y-129997760D01*
X191211773Y-129996485D01*
X191265876Y-129987098D01*
X191312247Y-129974618D01*
X191352440Y-129958330D01*
X191388009Y-129937521D01*
X191420506Y-129911478D01*
X191440864Y-129891249D01*
X191465532Y-129862155D01*
X191485038Y-129832328D01*
X191501204Y-129798618D01*
X191513103Y-129766296D01*
X191528291Y-129709889D01*
X191534845Y-129657542D01*
X191532717Y-129609059D01*
X191521862Y-129564243D01*
X191502232Y-129522899D01*
X191473781Y-129484829D01*
X191438194Y-129451236D01*
X191424125Y-129440240D01*
X191409042Y-129429464D01*
X191391789Y-129418225D01*
X191371210Y-129405840D01*
X191346149Y-129391625D01*
X191315450Y-129374899D01*
X191277959Y-129354977D01*
X191253887Y-129342340D01*
X191193859Y-129309583D01*
X191142285Y-129278389D01*
X191098315Y-129248035D01*
X191061093Y-129217796D01*
X191029768Y-129186948D01*
X191003486Y-129154767D01*
X190981396Y-129120530D01*
X190971980Y-129103055D01*
X190948164Y-129045998D01*
X190932870Y-128985200D01*
X190926050Y-128920368D01*
X190927657Y-128851208D01*
X190928759Y-128839057D01*
X190939357Y-128762228D01*
X190955245Y-128692767D01*
X190976805Y-128629812D01*
X191004418Y-128572496D01*
X191038466Y-128519956D01*
X191079331Y-128471328D01*
X191100658Y-128449906D01*
X191151374Y-128406849D01*
X191206327Y-128370832D01*
X191266449Y-128341405D01*
X191332672Y-128318118D01*
X191405931Y-128300521D01*
X191412992Y-128299184D01*
X191448935Y-128294154D01*
X191492526Y-128290732D01*
X191541968Y-128288894D01*
X191595463Y-128288611D01*
X191651214Y-128289858D01*
G36*
X192529073Y-128551615D02*
X192563828Y-128551913D01*
X192594292Y-128552380D01*
X192619331Y-128552988D01*
X192637806Y-128553713D01*
X192648581Y-128554530D01*
X192650921Y-128555104D01*
X192650514Y-128560308D01*
X192648663Y-128573600D01*
X192645596Y-128593629D01*
X192641540Y-128619046D01*
X192636721Y-128648500D01*
X192631366Y-128680641D01*
X192625703Y-128714118D01*
X192619958Y-128747582D01*
X192614359Y-128779681D01*
X192609132Y-128809067D01*
X192604505Y-128834387D01*
X192600705Y-128854293D01*
X192600160Y-128857028D01*
X192597032Y-128872604D01*
X192957424Y-128872604D01*
X192954480Y-128887326D01*
X192952515Y-128897704D01*
X192949337Y-128915105D01*
X192945383Y-128937110D01*
X192941090Y-128961302D01*
X192941053Y-128961515D01*
X192930570Y-129020982D01*
X192903973Y-129028714D01*
X192847574Y-129042996D01*
X192785032Y-129055129D01*
X192719651Y-129064591D01*
X192654733Y-129070862D01*
X192626650Y-129072499D01*
X192600836Y-129073761D01*
X192583037Y-129075009D01*
X192571687Y-129076549D01*
X192565220Y-129078690D01*
X192562072Y-129081737D01*
X192560804Y-129085413D01*
X192559169Y-129093770D01*
X192556072Y-129110625D01*
X192551679Y-129135028D01*
X192546156Y-129166031D01*
X192539667Y-129202685D01*
X192532378Y-129244042D01*
X192524454Y-129289154D01*
X192516061Y-129337071D01*
X192507363Y-129386844D01*
X192498526Y-129437526D01*
X192489716Y-129488168D01*
X192481096Y-129537821D01*
X192472834Y-129585536D01*
X192465093Y-129630364D01*
X192458040Y-129671358D01*
X192451839Y-129707569D01*
X192446656Y-129738047D01*
X192442656Y-129761844D01*
X192440004Y-129778012D01*
X192438978Y-129784715D01*
X192434770Y-129835288D01*
X192436502Y-129880712D01*
X192443961Y-129920458D01*
X192456934Y-129953997D01*
X192475211Y-129980799D01*
X192498578Y-130000336D01*
X192526823Y-130012078D01*
X192530466Y-130012924D01*
X192541940Y-130014347D01*
X192561492Y-130015605D01*
X192587615Y-130016649D01*
X192618804Y-130017428D01*
X192653551Y-130017891D01*
X192680896Y-130018000D01*
X192714625Y-130018060D01*
X192744977Y-130018229D01*
X192770703Y-130018490D01*
X192790557Y-130018828D01*
X192803291Y-130019226D01*
X192807660Y-130019656D01*
X192806659Y-130029475D01*
X192803969Y-130045411D01*
X192800059Y-130065366D01*
X192795398Y-130087238D01*
X192790456Y-130108926D01*
X192785702Y-130128331D01*
X192781604Y-130143352D01*
X192778633Y-130151887D01*
X192777871Y-130153012D01*
X192767805Y-130157532D01*
X192750561Y-130163249D01*
X192728376Y-130169546D01*
X192703483Y-130175803D01*
X192678116Y-130181401D01*
X192668679Y-130183253D01*
X192610971Y-130192534D01*
X192551863Y-130199107D01*
X192493516Y-130202873D01*
X192438092Y-130203737D01*
X192387753Y-130201600D01*
X192351333Y-130197472D01*
X192296420Y-130185651D01*
X192249173Y-130168312D01*
X192209207Y-130145140D01*
X192176137Y-130115820D01*
X192149580Y-130080036D01*
X192129151Y-130037474D01*
X192119328Y-130007305D01*
X192114622Y-129983643D01*
X192111271Y-129953109D01*
X192109373Y-129918335D01*
X192109023Y-129881952D01*
X192110317Y-129846589D01*
X192112517Y-129821526D01*
X192114036Y-129810823D01*
X192117052Y-129791658D01*
X192121401Y-129764983D01*
X192126917Y-129731748D01*
X192133438Y-129692904D01*
X192140798Y-129649403D01*
X192148833Y-129602196D01*
X192157380Y-129552233D01*
X192166273Y-129500466D01*
X192175348Y-129447846D01*
X192184442Y-129395324D01*
X192193390Y-129343852D01*
X192202026Y-129294379D01*
X192210189Y-129247857D01*
X192217712Y-129205238D01*
X192224432Y-129167472D01*
X192230184Y-129135510D01*
X192234804Y-129110304D01*
X192238127Y-129092805D01*
X192239789Y-129084792D01*
X192240480Y-129080730D01*
X192239445Y-129077830D01*
X192235317Y-129075859D01*
X192226731Y-129074588D01*
X192212321Y-129073785D01*
X192190721Y-129073219D01*
X192168912Y-129072811D01*
X192095551Y-129071491D01*
X192112540Y-128973245D01*
X192129528Y-128875000D01*
X192202553Y-128873677D01*
X192230433Y-128873118D01*
X192250194Y-128872460D01*
X192263300Y-128871471D01*
X192271216Y-128869917D01*
X192275406Y-128867567D01*
X192277335Y-128864188D01*
X192277987Y-128861696D01*
X192279397Y-128854373D01*
X192282203Y-128838892D01*
X192286178Y-128816540D01*
X192291094Y-128788605D01*
X192296724Y-128756375D01*
X192302840Y-128721139D01*
X192304410Y-128712057D01*
X192310615Y-128676264D01*
X192316394Y-128643152D01*
X192321520Y-128614008D01*
X192325764Y-128590123D01*
X192328898Y-128572786D01*
X192330695Y-128563286D01*
X192330907Y-128562292D01*
X192333390Y-128551509D01*
X192491166Y-128551509D01*
X192529073Y-128551615D01*
X192529073Y-128551615D01*
G37*
X192529073Y-128551615D02*
X192563828Y-128551913D01*
X192594292Y-128552380D01*
X192619331Y-128552988D01*
X192637806Y-128553713D01*
X192648581Y-128554530D01*
X192650921Y-128555104D01*
X192650514Y-128560308D01*
X192648663Y-128573600D01*
X192645596Y-128593629D01*
X192641540Y-128619046D01*
X192636721Y-128648500D01*
X192631366Y-128680641D01*
X192625703Y-128714118D01*
X192619958Y-128747582D01*
X192614359Y-128779681D01*
X192609132Y-128809067D01*
X192604505Y-128834387D01*
X192600705Y-128854293D01*
X192600160Y-128857028D01*
X192597032Y-128872604D01*
X192957424Y-128872604D01*
X192954480Y-128887326D01*
X192952515Y-128897704D01*
X192949337Y-128915105D01*
X192945383Y-128937110D01*
X192941090Y-128961302D01*
X192941053Y-128961515D01*
X192930570Y-129020982D01*
X192903973Y-129028714D01*
X192847574Y-129042996D01*
X192785032Y-129055129D01*
X192719651Y-129064591D01*
X192654733Y-129070862D01*
X192626650Y-129072499D01*
X192600836Y-129073761D01*
X192583037Y-129075009D01*
X192571687Y-129076549D01*
X192565220Y-129078690D01*
X192562072Y-129081737D01*
X192560804Y-129085413D01*
X192559169Y-129093770D01*
X192556072Y-129110625D01*
X192551679Y-129135028D01*
X192546156Y-129166031D01*
X192539667Y-129202685D01*
X192532378Y-129244042D01*
X192524454Y-129289154D01*
X192516061Y-129337071D01*
X192507363Y-129386844D01*
X192498526Y-129437526D01*
X192489716Y-129488168D01*
X192481096Y-129537821D01*
X192472834Y-129585536D01*
X192465093Y-129630364D01*
X192458040Y-129671358D01*
X192451839Y-129707569D01*
X192446656Y-129738047D01*
X192442656Y-129761844D01*
X192440004Y-129778012D01*
X192438978Y-129784715D01*
X192434770Y-129835288D01*
X192436502Y-129880712D01*
X192443961Y-129920458D01*
X192456934Y-129953997D01*
X192475211Y-129980799D01*
X192498578Y-130000336D01*
X192526823Y-130012078D01*
X192530466Y-130012924D01*
X192541940Y-130014347D01*
X192561492Y-130015605D01*
X192587615Y-130016649D01*
X192618804Y-130017428D01*
X192653551Y-130017891D01*
X192680896Y-130018000D01*
X192714625Y-130018060D01*
X192744977Y-130018229D01*
X192770703Y-130018490D01*
X192790557Y-130018828D01*
X192803291Y-130019226D01*
X192807660Y-130019656D01*
X192806659Y-130029475D01*
X192803969Y-130045411D01*
X192800059Y-130065366D01*
X192795398Y-130087238D01*
X192790456Y-130108926D01*
X192785702Y-130128331D01*
X192781604Y-130143352D01*
X192778633Y-130151887D01*
X192777871Y-130153012D01*
X192767805Y-130157532D01*
X192750561Y-130163249D01*
X192728376Y-130169546D01*
X192703483Y-130175803D01*
X192678116Y-130181401D01*
X192668679Y-130183253D01*
X192610971Y-130192534D01*
X192551863Y-130199107D01*
X192493516Y-130202873D01*
X192438092Y-130203737D01*
X192387753Y-130201600D01*
X192351333Y-130197472D01*
X192296420Y-130185651D01*
X192249173Y-130168312D01*
X192209207Y-130145140D01*
X192176137Y-130115820D01*
X192149580Y-130080036D01*
X192129151Y-130037474D01*
X192119328Y-130007305D01*
X192114622Y-129983643D01*
X192111271Y-129953109D01*
X192109373Y-129918335D01*
X192109023Y-129881952D01*
X192110317Y-129846589D01*
X192112517Y-129821526D01*
X192114036Y-129810823D01*
X192117052Y-129791658D01*
X192121401Y-129764983D01*
X192126917Y-129731748D01*
X192133438Y-129692904D01*
X192140798Y-129649403D01*
X192148833Y-129602196D01*
X192157380Y-129552233D01*
X192166273Y-129500466D01*
X192175348Y-129447846D01*
X192184442Y-129395324D01*
X192193390Y-129343852D01*
X192202026Y-129294379D01*
X192210189Y-129247857D01*
X192217712Y-129205238D01*
X192224432Y-129167472D01*
X192230184Y-129135510D01*
X192234804Y-129110304D01*
X192238127Y-129092805D01*
X192239789Y-129084792D01*
X192240480Y-129080730D01*
X192239445Y-129077830D01*
X192235317Y-129075859D01*
X192226731Y-129074588D01*
X192212321Y-129073785D01*
X192190721Y-129073219D01*
X192168912Y-129072811D01*
X192095551Y-129071491D01*
X192112540Y-128973245D01*
X192129528Y-128875000D01*
X192202553Y-128873677D01*
X192230433Y-128873118D01*
X192250194Y-128872460D01*
X192263300Y-128871471D01*
X192271216Y-128869917D01*
X192275406Y-128867567D01*
X192277335Y-128864188D01*
X192277987Y-128861696D01*
X192279397Y-128854373D01*
X192282203Y-128838892D01*
X192286178Y-128816540D01*
X192291094Y-128788605D01*
X192296724Y-128756375D01*
X192302840Y-128721139D01*
X192304410Y-128712057D01*
X192310615Y-128676264D01*
X192316394Y-128643152D01*
X192321520Y-128614008D01*
X192325764Y-128590123D01*
X192328898Y-128572786D01*
X192330695Y-128563286D01*
X192330907Y-128562292D01*
X192333390Y-128551509D01*
X192491166Y-128551509D01*
X192529073Y-128551615D01*
G36*
X193775462Y-128822270D02*
X193814710Y-128823116D01*
X193849986Y-128824653D01*
X193879356Y-128826894D01*
X193893150Y-128828556D01*
X193921318Y-128833295D01*
X193952448Y-128839623D01*
X193985215Y-128847158D01*
X194018293Y-128855515D01*
X194050359Y-128864311D01*
X194080085Y-128873163D01*
X194106148Y-128881687D01*
X194127221Y-128889500D01*
X194141980Y-128896219D01*
X194149098Y-128901459D01*
X194149547Y-128902730D01*
X194148735Y-128908072D01*
X194146379Y-128922185D01*
X194142594Y-128944399D01*
X194137499Y-128974044D01*
X194131211Y-129010452D01*
X194123847Y-129052952D01*
X194115524Y-129100875D01*
X194106359Y-129153553D01*
X194096470Y-129210315D01*
X194085973Y-129270493D01*
X194074987Y-129333416D01*
X194063628Y-129398416D01*
X194052013Y-129464823D01*
X194040260Y-129531968D01*
X194028486Y-129599181D01*
X194016808Y-129665793D01*
X194005343Y-129731135D01*
X193994209Y-129794537D01*
X193983523Y-129855330D01*
X193973401Y-129912844D01*
X193963962Y-129966410D01*
X193955323Y-130015359D01*
X193947600Y-130059021D01*
X193940911Y-130096728D01*
X193935374Y-130127808D01*
X193931104Y-130151594D01*
X193928220Y-130167416D01*
X193926839Y-130174604D01*
X193926752Y-130174953D01*
X193923678Y-130176968D01*
X193915491Y-130178515D01*
X193901304Y-130179639D01*
X193880231Y-130180388D01*
X193851386Y-130180807D01*
X193813882Y-130180943D01*
X193699651Y-130180943D01*
X193686384Y-130140208D01*
X193679802Y-130121942D01*
X193673550Y-130107974D01*
X193668585Y-130100320D01*
X193667066Y-130099472D01*
X193660586Y-130101959D01*
X193648312Y-130108622D01*
X193632385Y-130118259D01*
X193624041Y-130123607D01*
X193581121Y-130149926D01*
X193541753Y-130169941D01*
X193503366Y-130184448D01*
X193463392Y-130194245D01*
X193419258Y-130200129D01*
X193368395Y-130202896D01*
X193368377Y-130202897D01*
X193336104Y-130203494D01*
X193310844Y-130203220D01*
X193290050Y-130201918D01*
X193271176Y-130199433D01*
X193252420Y-130195770D01*
X193199830Y-130180058D01*
X193153280Y-130157199D01*
X193112705Y-130127103D01*
X193078043Y-130089683D01*
X193049228Y-130044850D01*
X193026197Y-129992514D01*
X193008886Y-129932587D01*
X192997232Y-129864982D01*
X192994292Y-129837466D01*
X192991378Y-129779617D01*
X192991999Y-129749623D01*
X193314410Y-129749623D01*
X193316305Y-129809115D01*
X193322096Y-129860188D01*
X193331980Y-129903267D01*
X193346153Y-129938775D01*
X193364812Y-129967136D01*
X193388154Y-129988775D01*
X193416376Y-130004114D01*
X193435471Y-130010402D01*
X193473303Y-130016771D01*
X193512746Y-130015828D01*
X193541490Y-130011107D01*
X193564143Y-130004874D01*
X193587784Y-129996012D01*
X193609745Y-129985751D01*
X193627363Y-129975318D01*
X193637130Y-129967005D01*
X193639228Y-129961415D01*
X193642556Y-129948044D01*
X193647149Y-129926716D01*
X193653038Y-129897254D01*
X193660257Y-129859482D01*
X193668838Y-129813222D01*
X193678816Y-129758297D01*
X193690222Y-129694531D01*
X193703091Y-129621747D01*
X193717454Y-129539767D01*
X193725146Y-129495623D01*
X193736549Y-129430083D01*
X193747519Y-129367047D01*
X193757940Y-129307179D01*
X193767698Y-129251142D01*
X193776676Y-129199599D01*
X193784759Y-129153212D01*
X193791831Y-129112646D01*
X193797778Y-129078564D01*
X193802482Y-129051628D01*
X193805829Y-129032502D01*
X193807703Y-129021849D01*
X193808039Y-129019972D01*
X193810481Y-129006792D01*
X193739193Y-129006876D01*
X193686635Y-129008488D01*
X193641893Y-129013464D01*
X193603669Y-129022206D01*
X193570662Y-129035121D01*
X193541572Y-129052612D01*
X193515099Y-129075084D01*
X193512820Y-129077345D01*
X193482629Y-129111377D01*
X193455384Y-129150187D01*
X193430798Y-129194488D01*
X193408579Y-129244990D01*
X193388438Y-129302406D01*
X193370086Y-129367448D01*
X193353232Y-129440827D01*
X193342521Y-129495623D01*
X193331886Y-129557001D01*
X193323963Y-129611110D01*
X193318547Y-129659814D01*
X193315432Y-129704973D01*
X193314411Y-129748448D01*
X193314410Y-129749623D01*
X192991999Y-129749623D01*
X192992693Y-129716152D01*
X192998293Y-129646341D01*
X193008237Y-129569455D01*
X193021456Y-129490830D01*
X193037764Y-129411249D01*
X193056110Y-129339314D01*
X193077050Y-129273199D01*
X193101144Y-129211080D01*
X193119359Y-129170724D01*
X193156026Y-129101821D01*
X193196459Y-129041455D01*
X193241242Y-128989182D01*
X193290961Y-128944554D01*
X193346199Y-128907127D01*
X193407541Y-128876454D01*
X193475572Y-128852090D01*
X193550877Y-128833587D01*
X193564867Y-128830915D01*
X193587332Y-128827910D01*
X193617430Y-128825512D01*
X193653225Y-128823735D01*
X193692785Y-128822593D01*
X193734175Y-128822100D01*
X193775462Y-128822270D01*
X193775462Y-128822270D01*
G37*
X193775462Y-128822270D02*
X193814710Y-128823116D01*
X193849986Y-128824653D01*
X193879356Y-128826894D01*
X193893150Y-128828556D01*
X193921318Y-128833295D01*
X193952448Y-128839623D01*
X193985215Y-128847158D01*
X194018293Y-128855515D01*
X194050359Y-128864311D01*
X194080085Y-128873163D01*
X194106148Y-128881687D01*
X194127221Y-128889500D01*
X194141980Y-128896219D01*
X194149098Y-128901459D01*
X194149547Y-128902730D01*
X194148735Y-128908072D01*
X194146379Y-128922185D01*
X194142594Y-128944399D01*
X194137499Y-128974044D01*
X194131211Y-129010452D01*
X194123847Y-129052952D01*
X194115524Y-129100875D01*
X194106359Y-129153553D01*
X194096470Y-129210315D01*
X194085973Y-129270493D01*
X194074987Y-129333416D01*
X194063628Y-129398416D01*
X194052013Y-129464823D01*
X194040260Y-129531968D01*
X194028486Y-129599181D01*
X194016808Y-129665793D01*
X194005343Y-129731135D01*
X193994209Y-129794537D01*
X193983523Y-129855330D01*
X193973401Y-129912844D01*
X193963962Y-129966410D01*
X193955323Y-130015359D01*
X193947600Y-130059021D01*
X193940911Y-130096728D01*
X193935374Y-130127808D01*
X193931104Y-130151594D01*
X193928220Y-130167416D01*
X193926839Y-130174604D01*
X193926752Y-130174953D01*
X193923678Y-130176968D01*
X193915491Y-130178515D01*
X193901304Y-130179639D01*
X193880231Y-130180388D01*
X193851386Y-130180807D01*
X193813882Y-130180943D01*
X193699651Y-130180943D01*
X193686384Y-130140208D01*
X193679802Y-130121942D01*
X193673550Y-130107974D01*
X193668585Y-130100320D01*
X193667066Y-130099472D01*
X193660586Y-130101959D01*
X193648312Y-130108622D01*
X193632385Y-130118259D01*
X193624041Y-130123607D01*
X193581121Y-130149926D01*
X193541753Y-130169941D01*
X193503366Y-130184448D01*
X193463392Y-130194245D01*
X193419258Y-130200129D01*
X193368395Y-130202896D01*
X193368377Y-130202897D01*
X193336104Y-130203494D01*
X193310844Y-130203220D01*
X193290050Y-130201918D01*
X193271176Y-130199433D01*
X193252420Y-130195770D01*
X193199830Y-130180058D01*
X193153280Y-130157199D01*
X193112705Y-130127103D01*
X193078043Y-130089683D01*
X193049228Y-130044850D01*
X193026197Y-129992514D01*
X193008886Y-129932587D01*
X192997232Y-129864982D01*
X192994292Y-129837466D01*
X192991378Y-129779617D01*
X192991999Y-129749623D01*
X193314410Y-129749623D01*
X193316305Y-129809115D01*
X193322096Y-129860188D01*
X193331980Y-129903267D01*
X193346153Y-129938775D01*
X193364812Y-129967136D01*
X193388154Y-129988775D01*
X193416376Y-130004114D01*
X193435471Y-130010402D01*
X193473303Y-130016771D01*
X193512746Y-130015828D01*
X193541490Y-130011107D01*
X193564143Y-130004874D01*
X193587784Y-129996012D01*
X193609745Y-129985751D01*
X193627363Y-129975318D01*
X193637130Y-129967005D01*
X193639228Y-129961415D01*
X193642556Y-129948044D01*
X193647149Y-129926716D01*
X193653038Y-129897254D01*
X193660257Y-129859482D01*
X193668838Y-129813222D01*
X193678816Y-129758297D01*
X193690222Y-129694531D01*
X193703091Y-129621747D01*
X193717454Y-129539767D01*
X193725146Y-129495623D01*
X193736549Y-129430083D01*
X193747519Y-129367047D01*
X193757940Y-129307179D01*
X193767698Y-129251142D01*
X193776676Y-129199599D01*
X193784759Y-129153212D01*
X193791831Y-129112646D01*
X193797778Y-129078564D01*
X193802482Y-129051628D01*
X193805829Y-129032502D01*
X193807703Y-129021849D01*
X193808039Y-129019972D01*
X193810481Y-129006792D01*
X193739193Y-129006876D01*
X193686635Y-129008488D01*
X193641893Y-129013464D01*
X193603669Y-129022206D01*
X193570662Y-129035121D01*
X193541572Y-129052612D01*
X193515099Y-129075084D01*
X193512820Y-129077345D01*
X193482629Y-129111377D01*
X193455384Y-129150187D01*
X193430798Y-129194488D01*
X193408579Y-129244990D01*
X193388438Y-129302406D01*
X193370086Y-129367448D01*
X193353232Y-129440827D01*
X193342521Y-129495623D01*
X193331886Y-129557001D01*
X193323963Y-129611110D01*
X193318547Y-129659814D01*
X193315432Y-129704973D01*
X193314411Y-129748448D01*
X193314410Y-129749623D01*
X192991999Y-129749623D01*
X192992693Y-129716152D01*
X192998293Y-129646341D01*
X193008237Y-129569455D01*
X193021456Y-129490830D01*
X193037764Y-129411249D01*
X193056110Y-129339314D01*
X193077050Y-129273199D01*
X193101144Y-129211080D01*
X193119359Y-129170724D01*
X193156026Y-129101821D01*
X193196459Y-129041455D01*
X193241242Y-128989182D01*
X193290961Y-128944554D01*
X193346199Y-128907127D01*
X193407541Y-128876454D01*
X193475572Y-128852090D01*
X193550877Y-128833587D01*
X193564867Y-128830915D01*
X193587332Y-128827910D01*
X193617430Y-128825512D01*
X193653225Y-128823735D01*
X193692785Y-128822593D01*
X193734175Y-128822100D01*
X193775462Y-128822270D01*
G36*
X195106778Y-128827183D02*
X195193969Y-128840759D01*
X195222691Y-128846802D01*
X195248536Y-128852954D01*
X195272204Y-128859239D01*
X195292039Y-128865153D01*
X195306385Y-128870190D01*
X195313586Y-128873846D01*
X195314113Y-128874682D01*
X195313315Y-128879982D01*
X195311187Y-128892495D01*
X195308124Y-128910005D01*
X195304522Y-128930295D01*
X195300778Y-128951152D01*
X195297287Y-128970359D01*
X195294446Y-128985700D01*
X195292650Y-128994960D01*
X195292424Y-128996009D01*
X195289968Y-129006792D01*
X195130710Y-129006876D01*
X195080972Y-129007013D01*
X195039646Y-129007454D01*
X195005560Y-129008330D01*
X194977544Y-129009772D01*
X194954425Y-129011911D01*
X194935032Y-129014877D01*
X194918195Y-129018800D01*
X194902741Y-129023812D01*
X194887498Y-129030044D01*
X194876165Y-129035279D01*
X194842885Y-129055919D01*
X194810495Y-129085272D01*
X194779633Y-129122470D01*
X194750939Y-129166645D01*
X194725053Y-129216929D01*
X194703645Y-129269562D01*
X194688460Y-129316620D01*
X194673852Y-129370923D01*
X194660200Y-129430307D01*
X194647885Y-129492607D01*
X194637287Y-129555659D01*
X194628787Y-129617298D01*
X194622764Y-129675358D01*
X194619599Y-129727676D01*
X194619207Y-129750256D01*
X194621048Y-129804046D01*
X194626775Y-129849936D01*
X194636699Y-129888919D01*
X194651128Y-129921987D01*
X194670371Y-129950132D01*
X194686802Y-129967374D01*
X194700286Y-129979070D01*
X194713918Y-129988838D01*
X194728683Y-129996845D01*
X194745566Y-130003263D01*
X194765549Y-130008261D01*
X194789618Y-130012009D01*
X194818757Y-130014677D01*
X194853949Y-130016434D01*
X194896179Y-130017452D01*
X194946431Y-130017899D01*
X194979839Y-130017964D01*
X195025281Y-130018061D01*
X195061855Y-130018347D01*
X195090277Y-130018848D01*
X195111263Y-130019591D01*
X195125527Y-130020602D01*
X195133787Y-130021908D01*
X195136757Y-130023535D01*
X195136792Y-130023761D01*
X195135863Y-130034208D01*
X195133375Y-130050647D01*
X195129781Y-130070855D01*
X195125530Y-130092611D01*
X195121073Y-130113693D01*
X195116862Y-130131878D01*
X195113346Y-130144945D01*
X195111060Y-130150595D01*
X195103899Y-130154215D01*
X195089018Y-130159156D01*
X195068123Y-130165007D01*
X195042920Y-130171354D01*
X195015117Y-130177784D01*
X194986418Y-130183884D01*
X194958532Y-130189241D01*
X194935509Y-130193090D01*
X194904482Y-130196800D01*
X194867134Y-130199672D01*
X194825750Y-130201673D01*
X194782615Y-130202767D01*
X194740013Y-130202919D01*
X194700231Y-130202094D01*
X194665552Y-130200258D01*
X194639774Y-130197597D01*
X194594442Y-130189118D01*
X194549768Y-130177042D01*
X194508617Y-130162276D01*
X194473852Y-130145732D01*
X194470671Y-130143918D01*
X194453031Y-130132101D01*
X194432423Y-130115942D01*
X194412300Y-130098219D01*
X194404792Y-130090945D01*
X194386358Y-130071370D01*
X194371997Y-130053045D01*
X194359287Y-130032502D01*
X194346194Y-130007077D01*
X194331292Y-129974436D01*
X194319919Y-129944156D01*
X194311576Y-129913939D01*
X194305763Y-129881488D01*
X194301981Y-129844506D01*
X194299732Y-129800695D01*
X194299452Y-129791935D01*
X194298730Y-129747470D01*
X194299467Y-129705973D01*
X194301858Y-129665080D01*
X194306099Y-129622425D01*
X194312387Y-129575645D01*
X194320916Y-129522375D01*
X194322622Y-129512396D01*
X194341275Y-129417084D01*
X194363016Y-129330336D01*
X194388081Y-129251566D01*
X194416704Y-129180189D01*
X194449123Y-129115618D01*
X194485572Y-129057267D01*
X194526287Y-129004551D01*
X194527205Y-129003482D01*
X194566867Y-128963082D01*
X194612868Y-128925908D01*
X194663016Y-128893343D01*
X194715118Y-128866770D01*
X194766982Y-128847574D01*
X194779754Y-128844065D01*
X194855438Y-128829149D01*
X194936107Y-128821369D01*
X195020355Y-128820717D01*
X195106778Y-128827183D01*
X195106778Y-128827183D01*
G37*
X195106778Y-128827183D02*
X195193969Y-128840759D01*
X195222691Y-128846802D01*
X195248536Y-128852954D01*
X195272204Y-128859239D01*
X195292039Y-128865153D01*
X195306385Y-128870190D01*
X195313586Y-128873846D01*
X195314113Y-128874682D01*
X195313315Y-128879982D01*
X195311187Y-128892495D01*
X195308124Y-128910005D01*
X195304522Y-128930295D01*
X195300778Y-128951152D01*
X195297287Y-128970359D01*
X195294446Y-128985700D01*
X195292650Y-128994960D01*
X195292424Y-128996009D01*
X195289968Y-129006792D01*
X195130710Y-129006876D01*
X195080972Y-129007013D01*
X195039646Y-129007454D01*
X195005560Y-129008330D01*
X194977544Y-129009772D01*
X194954425Y-129011911D01*
X194935032Y-129014877D01*
X194918195Y-129018800D01*
X194902741Y-129023812D01*
X194887498Y-129030044D01*
X194876165Y-129035279D01*
X194842885Y-129055919D01*
X194810495Y-129085272D01*
X194779633Y-129122470D01*
X194750939Y-129166645D01*
X194725053Y-129216929D01*
X194703645Y-129269562D01*
X194688460Y-129316620D01*
X194673852Y-129370923D01*
X194660200Y-129430307D01*
X194647885Y-129492607D01*
X194637287Y-129555659D01*
X194628787Y-129617298D01*
X194622764Y-129675358D01*
X194619599Y-129727676D01*
X194619207Y-129750256D01*
X194621048Y-129804046D01*
X194626775Y-129849936D01*
X194636699Y-129888919D01*
X194651128Y-129921987D01*
X194670371Y-129950132D01*
X194686802Y-129967374D01*
X194700286Y-129979070D01*
X194713918Y-129988838D01*
X194728683Y-129996845D01*
X194745566Y-130003263D01*
X194765549Y-130008261D01*
X194789618Y-130012009D01*
X194818757Y-130014677D01*
X194853949Y-130016434D01*
X194896179Y-130017452D01*
X194946431Y-130017899D01*
X194979839Y-130017964D01*
X195025281Y-130018061D01*
X195061855Y-130018347D01*
X195090277Y-130018848D01*
X195111263Y-130019591D01*
X195125527Y-130020602D01*
X195133787Y-130021908D01*
X195136757Y-130023535D01*
X195136792Y-130023761D01*
X195135863Y-130034208D01*
X195133375Y-130050647D01*
X195129781Y-130070855D01*
X195125530Y-130092611D01*
X195121073Y-130113693D01*
X195116862Y-130131878D01*
X195113346Y-130144945D01*
X195111060Y-130150595D01*
X195103899Y-130154215D01*
X195089018Y-130159156D01*
X195068123Y-130165007D01*
X195042920Y-130171354D01*
X195015117Y-130177784D01*
X194986418Y-130183884D01*
X194958532Y-130189241D01*
X194935509Y-130193090D01*
X194904482Y-130196800D01*
X194867134Y-130199672D01*
X194825750Y-130201673D01*
X194782615Y-130202767D01*
X194740013Y-130202919D01*
X194700231Y-130202094D01*
X194665552Y-130200258D01*
X194639774Y-130197597D01*
X194594442Y-130189118D01*
X194549768Y-130177042D01*
X194508617Y-130162276D01*
X194473852Y-130145732D01*
X194470671Y-130143918D01*
X194453031Y-130132101D01*
X194432423Y-130115942D01*
X194412300Y-130098219D01*
X194404792Y-130090945D01*
X194386358Y-130071370D01*
X194371997Y-130053045D01*
X194359287Y-130032502D01*
X194346194Y-130007077D01*
X194331292Y-129974436D01*
X194319919Y-129944156D01*
X194311576Y-129913939D01*
X194305763Y-129881488D01*
X194301981Y-129844506D01*
X194299732Y-129800695D01*
X194299452Y-129791935D01*
X194298730Y-129747470D01*
X194299467Y-129705973D01*
X194301858Y-129665080D01*
X194306099Y-129622425D01*
X194312387Y-129575645D01*
X194320916Y-129522375D01*
X194322622Y-129512396D01*
X194341275Y-129417084D01*
X194363016Y-129330336D01*
X194388081Y-129251566D01*
X194416704Y-129180189D01*
X194449123Y-129115618D01*
X194485572Y-129057267D01*
X194526287Y-129004551D01*
X194527205Y-129003482D01*
X194566867Y-128963082D01*
X194612868Y-128925908D01*
X194663016Y-128893343D01*
X194715118Y-128866770D01*
X194766982Y-128847574D01*
X194779754Y-128844065D01*
X194855438Y-128829149D01*
X194936107Y-128821369D01*
X195020355Y-128820717D01*
X195106778Y-128827183D01*
G36*
X185449647Y-128311921D02*
X185514242Y-128312022D01*
X185575434Y-128312185D01*
X185632585Y-128312404D01*
X185685060Y-128312675D01*
X185732219Y-128312993D01*
X185773426Y-128313354D01*
X185808043Y-128313753D01*
X185835433Y-128314186D01*
X185854959Y-128314646D01*
X185865983Y-128315131D01*
X185868300Y-128315481D01*
X185867546Y-128321058D01*
X185865375Y-128334668D01*
X185862021Y-128354905D01*
X185857717Y-128380361D01*
X185852700Y-128409628D01*
X185850333Y-128423311D01*
X185832255Y-128527547D01*
X185179915Y-128527547D01*
X185126115Y-128830670D01*
X185116783Y-128883317D01*
X185107970Y-128933174D01*
X185099814Y-128979439D01*
X185092457Y-129021311D01*
X185086038Y-129057991D01*
X185080698Y-129088678D01*
X185076575Y-129112571D01*
X185073811Y-129128869D01*
X185072545Y-129136772D01*
X185072479Y-129137387D01*
X185077159Y-129138050D01*
X185090571Y-129138673D01*
X185111858Y-129139246D01*
X185140168Y-129139756D01*
X185174645Y-129140193D01*
X185214436Y-129140544D01*
X185258687Y-129140800D01*
X185306542Y-129140948D01*
X185343415Y-129140981D01*
X185403473Y-129141022D01*
X185454562Y-129141154D01*
X185497297Y-129141391D01*
X185532292Y-129141746D01*
X185560162Y-129142234D01*
X185581523Y-129142866D01*
X185596989Y-129143658D01*
X185607176Y-129144623D01*
X185612698Y-129145775D01*
X185614188Y-129146982D01*
X185613394Y-129153351D01*
X185611177Y-129167637D01*
X185607789Y-129188319D01*
X185603478Y-129213874D01*
X185598496Y-129242782D01*
X185597443Y-129248821D01*
X185592369Y-129278026D01*
X185587910Y-129304000D01*
X185584314Y-129325268D01*
X185581831Y-129340359D01*
X185580709Y-129347798D01*
X185580670Y-129348255D01*
X185576014Y-129348915D01*
X185562623Y-129349536D01*
X185541347Y-129350107D01*
X185513037Y-129350616D01*
X185478542Y-129351052D01*
X185438713Y-129351404D01*
X185394400Y-129351662D01*
X185346453Y-129351812D01*
X185307563Y-129351849D01*
X185034484Y-129351849D01*
X185032019Y-129362632D01*
X185030839Y-129368906D01*
X185028148Y-129383912D01*
X185024069Y-129406936D01*
X185018729Y-129437266D01*
X185012250Y-129474190D01*
X185004759Y-129516994D01*
X184996380Y-129564967D01*
X184987238Y-129617395D01*
X184977457Y-129673565D01*
X184967163Y-129732766D01*
X184960264Y-129772483D01*
X184949715Y-129833102D01*
X184939587Y-129891028D01*
X184930005Y-129945565D01*
X184921095Y-129996012D01*
X184912981Y-130041671D01*
X184905789Y-130081844D01*
X184899642Y-130115832D01*
X184894666Y-130142937D01*
X184890986Y-130162458D01*
X184888727Y-130173699D01*
X184888072Y-130176247D01*
X184882743Y-130177485D01*
X184869306Y-130178538D01*
X184849116Y-130179405D01*
X184823531Y-130180087D01*
X184793908Y-130180581D01*
X184761602Y-130180888D01*
X184727972Y-130181006D01*
X184694374Y-130180934D01*
X184662165Y-130180673D01*
X184632701Y-130180221D01*
X184607340Y-130179576D01*
X184587439Y-130178740D01*
X184574353Y-130177710D01*
X184569441Y-130176486D01*
X184569434Y-130176434D01*
X184570246Y-130171500D01*
X184572621Y-130157678D01*
X184576459Y-130135519D01*
X184581666Y-130105576D01*
X184588143Y-130068400D01*
X184595795Y-130024543D01*
X184604524Y-129974558D01*
X184614234Y-129918995D01*
X184624828Y-129858408D01*
X184636209Y-129793348D01*
X184648281Y-129724366D01*
X184660946Y-129652016D01*
X184674109Y-129576848D01*
X184687672Y-129499415D01*
X184701538Y-129420268D01*
X184715611Y-129339960D01*
X184729794Y-129259043D01*
X184743991Y-129178068D01*
X184758104Y-129097587D01*
X184772037Y-129018153D01*
X184785693Y-128940317D01*
X184798975Y-128864632D01*
X184811786Y-128791648D01*
X184824031Y-128721918D01*
X184835611Y-128655995D01*
X184846431Y-128594429D01*
X184856394Y-128537773D01*
X184865402Y-128486579D01*
X184873359Y-128441399D01*
X184880169Y-128402784D01*
X184885734Y-128371287D01*
X184889958Y-128347459D01*
X184892744Y-128331853D01*
X184893539Y-128327462D01*
X184896387Y-128311887D01*
X185382288Y-128311887D01*
X185449647Y-128311921D01*
X185449647Y-128311921D01*
G37*
X185449647Y-128311921D02*
X185514242Y-128312022D01*
X185575434Y-128312185D01*
X185632585Y-128312404D01*
X185685060Y-128312675D01*
X185732219Y-128312993D01*
X185773426Y-128313354D01*
X185808043Y-128313753D01*
X185835433Y-128314186D01*
X185854959Y-128314646D01*
X185865983Y-128315131D01*
X185868300Y-128315481D01*
X185867546Y-128321058D01*
X185865375Y-128334668D01*
X185862021Y-128354905D01*
X185857717Y-128380361D01*
X185852700Y-128409628D01*
X185850333Y-128423311D01*
X185832255Y-128527547D01*
X185179915Y-128527547D01*
X185126115Y-128830670D01*
X185116783Y-128883317D01*
X185107970Y-128933174D01*
X185099814Y-128979439D01*
X185092457Y-129021311D01*
X185086038Y-129057991D01*
X185080698Y-129088678D01*
X185076575Y-129112571D01*
X185073811Y-129128869D01*
X185072545Y-129136772D01*
X185072479Y-129137387D01*
X185077159Y-129138050D01*
X185090571Y-129138673D01*
X185111858Y-129139246D01*
X185140168Y-129139756D01*
X185174645Y-129140193D01*
X185214436Y-129140544D01*
X185258687Y-129140800D01*
X185306542Y-129140948D01*
X185343415Y-129140981D01*
X185403473Y-129141022D01*
X185454562Y-129141154D01*
X185497297Y-129141391D01*
X185532292Y-129141746D01*
X185560162Y-129142234D01*
X185581523Y-129142866D01*
X185596989Y-129143658D01*
X185607176Y-129144623D01*
X185612698Y-129145775D01*
X185614188Y-129146982D01*
X185613394Y-129153351D01*
X185611177Y-129167637D01*
X185607789Y-129188319D01*
X185603478Y-129213874D01*
X185598496Y-129242782D01*
X185597443Y-129248821D01*
X185592369Y-129278026D01*
X185587910Y-129304000D01*
X185584314Y-129325268D01*
X185581831Y-129340359D01*
X185580709Y-129347798D01*
X185580670Y-129348255D01*
X185576014Y-129348915D01*
X185562623Y-129349536D01*
X185541347Y-129350107D01*
X185513037Y-129350616D01*
X185478542Y-129351052D01*
X185438713Y-129351404D01*
X185394400Y-129351662D01*
X185346453Y-129351812D01*
X185307563Y-129351849D01*
X185034484Y-129351849D01*
X185032019Y-129362632D01*
X185030839Y-129368906D01*
X185028148Y-129383912D01*
X185024069Y-129406936D01*
X185018729Y-129437266D01*
X185012250Y-129474190D01*
X185004759Y-129516994D01*
X184996380Y-129564967D01*
X184987238Y-129617395D01*
X184977457Y-129673565D01*
X184967163Y-129732766D01*
X184960264Y-129772483D01*
X184949715Y-129833102D01*
X184939587Y-129891028D01*
X184930005Y-129945565D01*
X184921095Y-129996012D01*
X184912981Y-130041671D01*
X184905789Y-130081844D01*
X184899642Y-130115832D01*
X184894666Y-130142937D01*
X184890986Y-130162458D01*
X184888727Y-130173699D01*
X184888072Y-130176247D01*
X184882743Y-130177485D01*
X184869306Y-130178538D01*
X184849116Y-130179405D01*
X184823531Y-130180087D01*
X184793908Y-130180581D01*
X184761602Y-130180888D01*
X184727972Y-130181006D01*
X184694374Y-130180934D01*
X184662165Y-130180673D01*
X184632701Y-130180221D01*
X184607340Y-130179576D01*
X184587439Y-130178740D01*
X184574353Y-130177710D01*
X184569441Y-130176486D01*
X184569434Y-130176434D01*
X184570246Y-130171500D01*
X184572621Y-130157678D01*
X184576459Y-130135519D01*
X184581666Y-130105576D01*
X184588143Y-130068400D01*
X184595795Y-130024543D01*
X184604524Y-129974558D01*
X184614234Y-129918995D01*
X184624828Y-129858408D01*
X184636209Y-129793348D01*
X184648281Y-129724366D01*
X184660946Y-129652016D01*
X184674109Y-129576848D01*
X184687672Y-129499415D01*
X184701538Y-129420268D01*
X184715611Y-129339960D01*
X184729794Y-129259043D01*
X184743991Y-129178068D01*
X184758104Y-129097587D01*
X184772037Y-129018153D01*
X184785693Y-128940317D01*
X184798975Y-128864632D01*
X184811786Y-128791648D01*
X184824031Y-128721918D01*
X184835611Y-128655995D01*
X184846431Y-128594429D01*
X184856394Y-128537773D01*
X184865402Y-128486579D01*
X184873359Y-128441399D01*
X184880169Y-128402784D01*
X184885734Y-128371287D01*
X184889958Y-128347459D01*
X184892744Y-128331853D01*
X184893539Y-128327462D01*
X184896387Y-128311887D01*
X185382288Y-128311887D01*
X185449647Y-128311921D01*
G36*
X186426908Y-128325066D02*
X186425812Y-128331056D01*
X186423142Y-128346023D01*
X186418979Y-128369507D01*
X186413405Y-128401043D01*
X186406502Y-128440171D01*
X186398349Y-128486426D01*
X186389030Y-128539346D01*
X186378625Y-128598469D01*
X186367216Y-128663333D01*
X186354883Y-128733474D01*
X186341709Y-128808430D01*
X186327775Y-128887738D01*
X186313162Y-128970936D01*
X186297952Y-129057562D01*
X186282226Y-129147152D01*
X186266065Y-129239244D01*
X186263545Y-129253604D01*
X186247341Y-129345925D01*
X186231564Y-129435749D01*
X186216295Y-129522618D01*
X186201613Y-129606075D01*
X186187602Y-129685661D01*
X186174341Y-129760919D01*
X186161911Y-129831390D01*
X186150393Y-129896618D01*
X186139868Y-129956144D01*
X186130417Y-130009510D01*
X186122121Y-130056259D01*
X186115061Y-130095932D01*
X186109317Y-130128073D01*
X186104971Y-130152223D01*
X186102104Y-130167923D01*
X186100795Y-130174718D01*
X186100734Y-130174953D01*
X186097960Y-130176670D01*
X186090515Y-130178051D01*
X186077624Y-130179126D01*
X186058509Y-130179922D01*
X186032394Y-130180470D01*
X185998502Y-130180798D01*
X185956057Y-130180935D01*
X185940225Y-130180943D01*
X185896889Y-130180908D01*
X185862194Y-130180770D01*
X185835194Y-130180483D01*
X185814946Y-130180001D01*
X185800505Y-130179276D01*
X185790926Y-130178262D01*
X185785267Y-130176912D01*
X185782581Y-130175180D01*
X185781924Y-130173114D01*
X185782738Y-130167818D01*
X185785114Y-130153639D01*
X185788956Y-130131131D01*
X185794167Y-130100851D01*
X185800647Y-130063355D01*
X185808301Y-130019198D01*
X185817031Y-129968938D01*
X185826740Y-129913128D01*
X185837330Y-129852327D01*
X185848704Y-129787088D01*
X185860764Y-129717969D01*
X185873414Y-129645526D01*
X185886555Y-129570314D01*
X185900091Y-129492889D01*
X185913924Y-129413807D01*
X185927957Y-129333624D01*
X185942092Y-129252897D01*
X185956232Y-129172180D01*
X185970280Y-129092031D01*
X185984138Y-129013004D01*
X185997710Y-128935657D01*
X186010896Y-128860544D01*
X186023602Y-128788222D01*
X186035727Y-128719246D01*
X186047177Y-128654174D01*
X186057853Y-128593559D01*
X186067657Y-128537960D01*
X186076493Y-128487931D01*
X186084263Y-128444028D01*
X186090870Y-128406808D01*
X186096217Y-128376826D01*
X186100205Y-128354638D01*
X186102738Y-128340801D01*
X186103456Y-128337047D01*
X186108490Y-128311887D01*
X186429667Y-128311887D01*
X186426908Y-128325066D01*
X186426908Y-128325066D01*
G37*
X186426908Y-128325066D02*
X186425812Y-128331056D01*
X186423142Y-128346023D01*
X186418979Y-128369507D01*
X186413405Y-128401043D01*
X186406502Y-128440171D01*
X186398349Y-128486426D01*
X186389030Y-128539346D01*
X186378625Y-128598469D01*
X186367216Y-128663333D01*
X186354883Y-128733474D01*
X186341709Y-128808430D01*
X186327775Y-128887738D01*
X186313162Y-128970936D01*
X186297952Y-129057562D01*
X186282226Y-129147152D01*
X186266065Y-129239244D01*
X186263545Y-129253604D01*
X186247341Y-129345925D01*
X186231564Y-129435749D01*
X186216295Y-129522618D01*
X186201613Y-129606075D01*
X186187602Y-129685661D01*
X186174341Y-129760919D01*
X186161911Y-129831390D01*
X186150393Y-129896618D01*
X186139868Y-129956144D01*
X186130417Y-130009510D01*
X186122121Y-130056259D01*
X186115061Y-130095932D01*
X186109317Y-130128073D01*
X186104971Y-130152223D01*
X186102104Y-130167923D01*
X186100795Y-130174718D01*
X186100734Y-130174953D01*
X186097960Y-130176670D01*
X186090515Y-130178051D01*
X186077624Y-130179126D01*
X186058509Y-130179922D01*
X186032394Y-130180470D01*
X185998502Y-130180798D01*
X185956057Y-130180935D01*
X185940225Y-130180943D01*
X185896889Y-130180908D01*
X185862194Y-130180770D01*
X185835194Y-130180483D01*
X185814946Y-130180001D01*
X185800505Y-130179276D01*
X185790926Y-130178262D01*
X185785267Y-130176912D01*
X185782581Y-130175180D01*
X185781924Y-130173114D01*
X185782738Y-130167818D01*
X185785114Y-130153639D01*
X185788956Y-130131131D01*
X185794167Y-130100851D01*
X185800647Y-130063355D01*
X185808301Y-130019198D01*
X185817031Y-129968938D01*
X185826740Y-129913128D01*
X185837330Y-129852327D01*
X185848704Y-129787088D01*
X185860764Y-129717969D01*
X185873414Y-129645526D01*
X185886555Y-129570314D01*
X185900091Y-129492889D01*
X185913924Y-129413807D01*
X185927957Y-129333624D01*
X185942092Y-129252897D01*
X185956232Y-129172180D01*
X185970280Y-129092031D01*
X185984138Y-129013004D01*
X185997710Y-128935657D01*
X186010896Y-128860544D01*
X186023602Y-128788222D01*
X186035727Y-128719246D01*
X186047177Y-128654174D01*
X186057853Y-128593559D01*
X186067657Y-128537960D01*
X186076493Y-128487931D01*
X186084263Y-128444028D01*
X186090870Y-128406808D01*
X186096217Y-128376826D01*
X186100205Y-128354638D01*
X186102738Y-128340801D01*
X186103456Y-128337047D01*
X186108490Y-128311887D01*
X186429667Y-128311887D01*
X186426908Y-128325066D01*
G36*
X186902733Y-128843954D02*
X186937486Y-128844253D01*
X186967949Y-128844719D01*
X186992986Y-128845328D01*
X187011459Y-128846053D01*
X187022232Y-128846869D01*
X187024570Y-128847443D01*
X187023974Y-128852461D01*
X187021814Y-128866263D01*
X187018206Y-128888195D01*
X187013264Y-128917604D01*
X187007103Y-128953839D01*
X186999838Y-128996244D01*
X186991583Y-129044168D01*
X186982453Y-129096957D01*
X186972563Y-129153958D01*
X186962027Y-129214518D01*
X186950961Y-129277984D01*
X186939478Y-129343702D01*
X186927694Y-129411020D01*
X186915723Y-129479284D01*
X186903681Y-129547842D01*
X186891681Y-129616040D01*
X186879838Y-129683225D01*
X186868268Y-129748744D01*
X186857084Y-129811944D01*
X186846402Y-129872172D01*
X186836336Y-129928775D01*
X186827001Y-129981099D01*
X186818511Y-130028491D01*
X186810982Y-130070299D01*
X186804528Y-130105869D01*
X186799264Y-130134549D01*
X186795304Y-130155684D01*
X186792763Y-130168622D01*
X186791834Y-130172620D01*
X186790355Y-130174896D01*
X186787203Y-130176717D01*
X186781406Y-130178133D01*
X186771990Y-130179195D01*
X186757983Y-130179953D01*
X186738411Y-130180456D01*
X186712301Y-130180756D01*
X186678681Y-130180901D01*
X186636578Y-130180943D01*
X186630339Y-130180943D01*
X186592475Y-130180827D01*
X186557859Y-130180497D01*
X186527604Y-130179982D01*
X186502829Y-130179309D01*
X186484649Y-130178507D01*
X186474181Y-130177604D01*
X186472037Y-130176949D01*
X186472851Y-130171808D01*
X186475215Y-130157883D01*
X186479015Y-130135829D01*
X186484136Y-130106301D01*
X186490461Y-130069953D01*
X186497877Y-130027440D01*
X186506268Y-129979418D01*
X186515519Y-129926542D01*
X186525514Y-129869466D01*
X186536139Y-129808845D01*
X186547279Y-129745334D01*
X186558818Y-129679588D01*
X186570641Y-129612262D01*
X186582634Y-129544011D01*
X186594680Y-129475490D01*
X186606665Y-129407354D01*
X186618474Y-129340257D01*
X186629992Y-129274855D01*
X186641103Y-129211802D01*
X186651692Y-129151753D01*
X186661645Y-129095364D01*
X186670846Y-129043290D01*
X186679180Y-128996184D01*
X186686531Y-128954702D01*
X186692785Y-128919500D01*
X186697827Y-128891231D01*
X186701541Y-128870551D01*
X186703813Y-128858115D01*
X186704491Y-128854632D01*
X186707050Y-128843849D01*
X186864827Y-128843849D01*
X186902733Y-128843954D01*
X186902733Y-128843954D01*
G37*
X186902733Y-128843954D02*
X186937486Y-128844253D01*
X186967949Y-128844719D01*
X186992986Y-128845328D01*
X187011459Y-128846053D01*
X187022232Y-128846869D01*
X187024570Y-128847443D01*
X187023974Y-128852461D01*
X187021814Y-128866263D01*
X187018206Y-128888195D01*
X187013264Y-128917604D01*
X187007103Y-128953839D01*
X186999838Y-128996244D01*
X186991583Y-129044168D01*
X186982453Y-129096957D01*
X186972563Y-129153958D01*
X186962027Y-129214518D01*
X186950961Y-129277984D01*
X186939478Y-129343702D01*
X186927694Y-129411020D01*
X186915723Y-129479284D01*
X186903681Y-129547842D01*
X186891681Y-129616040D01*
X186879838Y-129683225D01*
X186868268Y-129748744D01*
X186857084Y-129811944D01*
X186846402Y-129872172D01*
X186836336Y-129928775D01*
X186827001Y-129981099D01*
X186818511Y-130028491D01*
X186810982Y-130070299D01*
X186804528Y-130105869D01*
X186799264Y-130134549D01*
X186795304Y-130155684D01*
X186792763Y-130168622D01*
X186791834Y-130172620D01*
X186790355Y-130174896D01*
X186787203Y-130176717D01*
X186781406Y-130178133D01*
X186771990Y-130179195D01*
X186757983Y-130179953D01*
X186738411Y-130180456D01*
X186712301Y-130180756D01*
X186678681Y-130180901D01*
X186636578Y-130180943D01*
X186630339Y-130180943D01*
X186592475Y-130180827D01*
X186557859Y-130180497D01*
X186527604Y-130179982D01*
X186502829Y-130179309D01*
X186484649Y-130178507D01*
X186474181Y-130177604D01*
X186472037Y-130176949D01*
X186472851Y-130171808D01*
X186475215Y-130157883D01*
X186479015Y-130135829D01*
X186484136Y-130106301D01*
X186490461Y-130069953D01*
X186497877Y-130027440D01*
X186506268Y-129979418D01*
X186515519Y-129926542D01*
X186525514Y-129869466D01*
X186536139Y-129808845D01*
X186547279Y-129745334D01*
X186558818Y-129679588D01*
X186570641Y-129612262D01*
X186582634Y-129544011D01*
X186594680Y-129475490D01*
X186606665Y-129407354D01*
X186618474Y-129340257D01*
X186629992Y-129274855D01*
X186641103Y-129211802D01*
X186651692Y-129151753D01*
X186661645Y-129095364D01*
X186670846Y-129043290D01*
X186679180Y-128996184D01*
X186686531Y-128954702D01*
X186692785Y-128919500D01*
X186697827Y-128891231D01*
X186701541Y-128870551D01*
X186703813Y-128858115D01*
X186704491Y-128854632D01*
X186707050Y-128843849D01*
X186864827Y-128843849D01*
X186902733Y-128843954D01*
G36*
X188992444Y-128311992D02*
X189027165Y-128312291D01*
X189057593Y-128312758D01*
X189082591Y-128313368D01*
X189101022Y-128314094D01*
X189111749Y-128314911D01*
X189114051Y-128315481D01*
X189113637Y-128320801D01*
X189111675Y-128334586D01*
X189108327Y-128355872D01*
X189103753Y-128383692D01*
X189098114Y-128417080D01*
X189091571Y-128455072D01*
X189084283Y-128496700D01*
X189078388Y-128529943D01*
X189069971Y-128577167D01*
X189061561Y-128624399D01*
X189053417Y-128670176D01*
X189045801Y-128713030D01*
X189038972Y-128751497D01*
X189033190Y-128784112D01*
X189028717Y-128809409D01*
X189027214Y-128817937D01*
X189013643Y-128895064D01*
X189059567Y-128871662D01*
X189087881Y-128858664D01*
X189119628Y-128846327D01*
X189149435Y-128836715D01*
X189153415Y-128835633D01*
X189171347Y-128831113D01*
X189187117Y-128827812D01*
X189202805Y-128825540D01*
X189220495Y-128824106D01*
X189242266Y-128823321D01*
X189270200Y-128822993D01*
X189292396Y-128822936D01*
X189342704Y-128823780D01*
X189385375Y-128826597D01*
X189422209Y-128831684D01*
X189455008Y-128839339D01*
X189485572Y-128849862D01*
X189504402Y-128858055D01*
X189542619Y-128881073D01*
X189575131Y-128911345D01*
X189601658Y-128948220D01*
X189621919Y-128991049D01*
X189635632Y-129039183D01*
X189642517Y-129091972D01*
X189642293Y-129148766D01*
X189640202Y-129172003D01*
X189638861Y-129181356D01*
X189636014Y-129199356D01*
X189631795Y-129225205D01*
X189626343Y-129258107D01*
X189619793Y-129297265D01*
X189612283Y-129341883D01*
X189603949Y-129391164D01*
X189594928Y-129444312D01*
X189585356Y-129500529D01*
X189575370Y-129559020D01*
X189565108Y-129618987D01*
X189554705Y-129679634D01*
X189544299Y-129740164D01*
X189534025Y-129799781D01*
X189524022Y-129857687D01*
X189514425Y-129913088D01*
X189505371Y-129965185D01*
X189496997Y-130013182D01*
X189489440Y-130056282D01*
X189482837Y-130093689D01*
X189477323Y-130124607D01*
X189473037Y-130148238D01*
X189470114Y-130163786D01*
X189469315Y-130167764D01*
X189466559Y-130180943D01*
X189309071Y-130180943D01*
X189271185Y-130180836D01*
X189236439Y-130180533D01*
X189205974Y-130180059D01*
X189180930Y-130179441D01*
X189162447Y-130178704D01*
X189151668Y-130177875D01*
X189149332Y-130177299D01*
X189149825Y-130172170D01*
X189151868Y-130158234D01*
X189155355Y-130136125D01*
X189160180Y-130106477D01*
X189166235Y-130069922D01*
X189173414Y-130027096D01*
X189181611Y-129978631D01*
X189190719Y-129925161D01*
X189200631Y-129867321D01*
X189211241Y-129805742D01*
X189222442Y-129741060D01*
X189230521Y-129694603D01*
X189245486Y-129608445D01*
X189258790Y-129531336D01*
X189270493Y-129462899D01*
X189280656Y-129402755D01*
X189289340Y-129350525D01*
X189296606Y-129305830D01*
X189302516Y-129268292D01*
X189307131Y-129237532D01*
X189310510Y-129213172D01*
X189312717Y-129194832D01*
X189313812Y-129182135D01*
X189313962Y-129177490D01*
X189310826Y-129136668D01*
X189301105Y-129101640D01*
X189284323Y-129070819D01*
X189280667Y-129065795D01*
X189257622Y-129042928D01*
X189228214Y-129025624D01*
X189193982Y-129014023D01*
X189156466Y-129008266D01*
X189117206Y-129008493D01*
X189077741Y-129014843D01*
X189039612Y-129027456D01*
X189012360Y-129041387D01*
X188986324Y-129057113D01*
X188788864Y-130178547D01*
X188629677Y-130179810D01*
X188586470Y-130180142D01*
X188551887Y-130180343D01*
X188524968Y-130180361D01*
X188504754Y-130180143D01*
X188490284Y-130179636D01*
X188480598Y-130178786D01*
X188474735Y-130177541D01*
X188471737Y-130175848D01*
X188470642Y-130173654D01*
X188470490Y-130171031D01*
X188471305Y-130165496D01*
X188473685Y-130151076D01*
X188477533Y-130128327D01*
X188482751Y-130097803D01*
X188489243Y-130060060D01*
X188496912Y-130015653D01*
X188505659Y-129965137D01*
X188515388Y-129909066D01*
X188526002Y-129847997D01*
X188537404Y-129782484D01*
X188549495Y-129713082D01*
X188562180Y-129640346D01*
X188575361Y-129564832D01*
X188588940Y-129487094D01*
X188602821Y-129407687D01*
X188616906Y-129327168D01*
X188631098Y-129246090D01*
X188645301Y-129165009D01*
X188659416Y-129084480D01*
X188673346Y-129005058D01*
X188686995Y-128927298D01*
X188700265Y-128851755D01*
X188713059Y-128778984D01*
X188725279Y-128709541D01*
X188736829Y-128643980D01*
X188747612Y-128582857D01*
X188757529Y-128526726D01*
X188766485Y-128476143D01*
X188774381Y-128431663D01*
X188781121Y-128393841D01*
X188786607Y-128363232D01*
X188790743Y-128340391D01*
X188793430Y-128325873D01*
X188794560Y-128320274D01*
X188795809Y-128317977D01*
X188798713Y-128316141D01*
X188804241Y-128314713D01*
X188813366Y-128313644D01*
X188827060Y-128312882D01*
X188846294Y-128312376D01*
X188872041Y-128312076D01*
X188905271Y-128311930D01*
X188946957Y-128311887D01*
X188954568Y-128311887D01*
X188992444Y-128311992D01*
X188992444Y-128311992D01*
G37*
X188992444Y-128311992D02*
X189027165Y-128312291D01*
X189057593Y-128312758D01*
X189082591Y-128313368D01*
X189101022Y-128314094D01*
X189111749Y-128314911D01*
X189114051Y-128315481D01*
X189113637Y-128320801D01*
X189111675Y-128334586D01*
X189108327Y-128355872D01*
X189103753Y-128383692D01*
X189098114Y-128417080D01*
X189091571Y-128455072D01*
X189084283Y-128496700D01*
X189078388Y-128529943D01*
X189069971Y-128577167D01*
X189061561Y-128624399D01*
X189053417Y-128670176D01*
X189045801Y-128713030D01*
X189038972Y-128751497D01*
X189033190Y-128784112D01*
X189028717Y-128809409D01*
X189027214Y-128817937D01*
X189013643Y-128895064D01*
X189059567Y-128871662D01*
X189087881Y-128858664D01*
X189119628Y-128846327D01*
X189149435Y-128836715D01*
X189153415Y-128835633D01*
X189171347Y-128831113D01*
X189187117Y-128827812D01*
X189202805Y-128825540D01*
X189220495Y-128824106D01*
X189242266Y-128823321D01*
X189270200Y-128822993D01*
X189292396Y-128822936D01*
X189342704Y-128823780D01*
X189385375Y-128826597D01*
X189422209Y-128831684D01*
X189455008Y-128839339D01*
X189485572Y-128849862D01*
X189504402Y-128858055D01*
X189542619Y-128881073D01*
X189575131Y-128911345D01*
X189601658Y-128948220D01*
X189621919Y-128991049D01*
X189635632Y-129039183D01*
X189642517Y-129091972D01*
X189642293Y-129148766D01*
X189640202Y-129172003D01*
X189638861Y-129181356D01*
X189636014Y-129199356D01*
X189631795Y-129225205D01*
X189626343Y-129258107D01*
X189619793Y-129297265D01*
X189612283Y-129341883D01*
X189603949Y-129391164D01*
X189594928Y-129444312D01*
X189585356Y-129500529D01*
X189575370Y-129559020D01*
X189565108Y-129618987D01*
X189554705Y-129679634D01*
X189544299Y-129740164D01*
X189534025Y-129799781D01*
X189524022Y-129857687D01*
X189514425Y-129913088D01*
X189505371Y-129965185D01*
X189496997Y-130013182D01*
X189489440Y-130056282D01*
X189482837Y-130093689D01*
X189477323Y-130124607D01*
X189473037Y-130148238D01*
X189470114Y-130163786D01*
X189469315Y-130167764D01*
X189466559Y-130180943D01*
X189309071Y-130180943D01*
X189271185Y-130180836D01*
X189236439Y-130180533D01*
X189205974Y-130180059D01*
X189180930Y-130179441D01*
X189162447Y-130178704D01*
X189151668Y-130177875D01*
X189149332Y-130177299D01*
X189149825Y-130172170D01*
X189151868Y-130158234D01*
X189155355Y-130136125D01*
X189160180Y-130106477D01*
X189166235Y-130069922D01*
X189173414Y-130027096D01*
X189181611Y-129978631D01*
X189190719Y-129925161D01*
X189200631Y-129867321D01*
X189211241Y-129805742D01*
X189222442Y-129741060D01*
X189230521Y-129694603D01*
X189245486Y-129608445D01*
X189258790Y-129531336D01*
X189270493Y-129462899D01*
X189280656Y-129402755D01*
X189289340Y-129350525D01*
X189296606Y-129305830D01*
X189302516Y-129268292D01*
X189307131Y-129237532D01*
X189310510Y-129213172D01*
X189312717Y-129194832D01*
X189313812Y-129182135D01*
X189313962Y-129177490D01*
X189310826Y-129136668D01*
X189301105Y-129101640D01*
X189284323Y-129070819D01*
X189280667Y-129065795D01*
X189257622Y-129042928D01*
X189228214Y-129025624D01*
X189193982Y-129014023D01*
X189156466Y-129008266D01*
X189117206Y-129008493D01*
X189077741Y-129014843D01*
X189039612Y-129027456D01*
X189012360Y-129041387D01*
X188986324Y-129057113D01*
X188788864Y-130178547D01*
X188629677Y-130179810D01*
X188586470Y-130180142D01*
X188551887Y-130180343D01*
X188524968Y-130180361D01*
X188504754Y-130180143D01*
X188490284Y-130179636D01*
X188480598Y-130178786D01*
X188474735Y-130177541D01*
X188471737Y-130175848D01*
X188470642Y-130173654D01*
X188470490Y-130171031D01*
X188471305Y-130165496D01*
X188473685Y-130151076D01*
X188477533Y-130128327D01*
X188482751Y-130097803D01*
X188489243Y-130060060D01*
X188496912Y-130015653D01*
X188505659Y-129965137D01*
X188515388Y-129909066D01*
X188526002Y-129847997D01*
X188537404Y-129782484D01*
X188549495Y-129713082D01*
X188562180Y-129640346D01*
X188575361Y-129564832D01*
X188588940Y-129487094D01*
X188602821Y-129407687D01*
X188616906Y-129327168D01*
X188631098Y-129246090D01*
X188645301Y-129165009D01*
X188659416Y-129084480D01*
X188673346Y-129005058D01*
X188686995Y-128927298D01*
X188700265Y-128851755D01*
X188713059Y-128778984D01*
X188725279Y-128709541D01*
X188736829Y-128643980D01*
X188747612Y-128582857D01*
X188757529Y-128526726D01*
X188766485Y-128476143D01*
X188774381Y-128431663D01*
X188781121Y-128393841D01*
X188786607Y-128363232D01*
X188790743Y-128340391D01*
X188793430Y-128325873D01*
X188794560Y-128320274D01*
X188795809Y-128317977D01*
X188798713Y-128316141D01*
X188804241Y-128314713D01*
X188813366Y-128313644D01*
X188827060Y-128312882D01*
X188846294Y-128312376D01*
X188872041Y-128312076D01*
X188905271Y-128311930D01*
X188946957Y-128311887D01*
X188954568Y-128311887D01*
X188992444Y-128311992D01*
G36*
X195859827Y-128311992D02*
X195894580Y-128312291D01*
X195925043Y-128312757D01*
X195950078Y-128313366D01*
X195968551Y-128314091D01*
X195979322Y-128314907D01*
X195981660Y-128315481D01*
X195981100Y-128320578D01*
X195978968Y-128334517D01*
X195975364Y-128356700D01*
X195970393Y-128386531D01*
X195964156Y-128423415D01*
X195956755Y-128466755D01*
X195948293Y-128515955D01*
X195938872Y-128570418D01*
X195928595Y-128629548D01*
X195917564Y-128692749D01*
X195905881Y-128759425D01*
X195893649Y-128828979D01*
X195888492Y-128858226D01*
X195876052Y-128928836D01*
X195864107Y-128996843D01*
X195852761Y-129061648D01*
X195842117Y-129122651D01*
X195832278Y-129179253D01*
X195823347Y-129230855D01*
X195815428Y-129276857D01*
X195808625Y-129316662D01*
X195803040Y-129349668D01*
X195798777Y-129375277D01*
X195795939Y-129392890D01*
X195794630Y-129401907D01*
X195794558Y-129402977D01*
X195797509Y-129400136D01*
X195805667Y-129390147D01*
X195818585Y-129373601D01*
X195835818Y-129351090D01*
X195856920Y-129323206D01*
X195881443Y-129290541D01*
X195908943Y-129253687D01*
X195938973Y-129213235D01*
X195971087Y-129169778D01*
X196002266Y-129127411D01*
X196208777Y-128846245D01*
X196378171Y-128844985D01*
X196417559Y-128844792D01*
X196453887Y-128844808D01*
X196486049Y-128845017D01*
X196512937Y-128845404D01*
X196533444Y-128845953D01*
X196546463Y-128846648D01*
X196550858Y-128847381D01*
X196548550Y-128851679D01*
X196540869Y-128863035D01*
X196528239Y-128880874D01*
X196511082Y-128904622D01*
X196489824Y-128933702D01*
X196464885Y-128967539D01*
X196436691Y-129005557D01*
X196405663Y-129047183D01*
X196372226Y-129091839D01*
X196336802Y-129138950D01*
X196319660Y-129161681D01*
X196085170Y-129472324D01*
X196216441Y-129823039D01*
X196237107Y-129878359D01*
X196256725Y-129931085D01*
X196275044Y-129980529D01*
X196291812Y-130026001D01*
X196306778Y-130066814D01*
X196319691Y-130102278D01*
X196330299Y-130131707D01*
X196338352Y-130154411D01*
X196343597Y-130169701D01*
X196345783Y-130176890D01*
X196345819Y-130177349D01*
X196340756Y-130178181D01*
X196327202Y-130178944D01*
X196306250Y-130179617D01*
X196278993Y-130180176D01*
X196246524Y-130180599D01*
X196209937Y-130180862D01*
X196173905Y-130180943D01*
X196003885Y-130180943D01*
X195995344Y-130160575D01*
X195992305Y-130152634D01*
X195986364Y-130136460D01*
X195977809Y-130112860D01*
X195966929Y-130082640D01*
X195954014Y-130046605D01*
X195939350Y-130005561D01*
X195923227Y-129960315D01*
X195905934Y-129911673D01*
X195887760Y-129860439D01*
X195879389Y-129836808D01*
X195861176Y-129785540D01*
X195843872Y-129737177D01*
X195827743Y-129692439D01*
X195813053Y-129652045D01*
X195800069Y-129616712D01*
X195789054Y-129587161D01*
X195780275Y-129564111D01*
X195773996Y-129548279D01*
X195770482Y-129540386D01*
X195769828Y-129539676D01*
X195768653Y-129545354D01*
X195765968Y-129559682D01*
X195761915Y-129581865D01*
X195756637Y-129611113D01*
X195750275Y-129646631D01*
X195742971Y-129687628D01*
X195734866Y-129733310D01*
X195726103Y-129782885D01*
X195716822Y-129835561D01*
X195712132Y-129862245D01*
X195656585Y-130178547D01*
X195497330Y-130179810D01*
X195454110Y-130180140D01*
X195419516Y-130180336D01*
X195392586Y-130180348D01*
X195372361Y-130180123D01*
X195357882Y-130179610D01*
X195348189Y-130178758D01*
X195342321Y-130177515D01*
X195339319Y-130175829D01*
X195338224Y-130173649D01*
X195338075Y-130171259D01*
X195338889Y-130165842D01*
X195341266Y-130151540D01*
X195345109Y-130128908D01*
X195350321Y-130098500D01*
X195356805Y-130060872D01*
X195364464Y-130016577D01*
X195373200Y-129966171D01*
X195382917Y-129910209D01*
X195393517Y-129849245D01*
X195404904Y-129783835D01*
X195416980Y-129714533D01*
X195429648Y-129641893D01*
X195442811Y-129566471D01*
X195456372Y-129488822D01*
X195470234Y-129409500D01*
X195484300Y-129329060D01*
X195498472Y-129248057D01*
X195512654Y-129167046D01*
X195526749Y-129086581D01*
X195540659Y-129007218D01*
X195554287Y-128929510D01*
X195567537Y-128854014D01*
X195580311Y-128781284D01*
X195592511Y-128711874D01*
X195604042Y-128646339D01*
X195614806Y-128585235D01*
X195624705Y-128529116D01*
X195633643Y-128478536D01*
X195641522Y-128434051D01*
X195648246Y-128396216D01*
X195653717Y-128365585D01*
X195657839Y-128342712D01*
X195660513Y-128328154D01*
X195661591Y-128322670D01*
X195664144Y-128311887D01*
X195821921Y-128311887D01*
X195859827Y-128311992D01*
X195859827Y-128311992D01*
G37*
X195859827Y-128311992D02*
X195894580Y-128312291D01*
X195925043Y-128312757D01*
X195950078Y-128313366D01*
X195968551Y-128314091D01*
X195979322Y-128314907D01*
X195981660Y-128315481D01*
X195981100Y-128320578D01*
X195978968Y-128334517D01*
X195975364Y-128356700D01*
X195970393Y-128386531D01*
X195964156Y-128423415D01*
X195956755Y-128466755D01*
X195948293Y-128515955D01*
X195938872Y-128570418D01*
X195928595Y-128629548D01*
X195917564Y-128692749D01*
X195905881Y-128759425D01*
X195893649Y-128828979D01*
X195888492Y-128858226D01*
X195876052Y-128928836D01*
X195864107Y-128996843D01*
X195852761Y-129061648D01*
X195842117Y-129122651D01*
X195832278Y-129179253D01*
X195823347Y-129230855D01*
X195815428Y-129276857D01*
X195808625Y-129316662D01*
X195803040Y-129349668D01*
X195798777Y-129375277D01*
X195795939Y-129392890D01*
X195794630Y-129401907D01*
X195794558Y-129402977D01*
X195797509Y-129400136D01*
X195805667Y-129390147D01*
X195818585Y-129373601D01*
X195835818Y-129351090D01*
X195856920Y-129323206D01*
X195881443Y-129290541D01*
X195908943Y-129253687D01*
X195938973Y-129213235D01*
X195971087Y-129169778D01*
X196002266Y-129127411D01*
X196208777Y-128846245D01*
X196378171Y-128844985D01*
X196417559Y-128844792D01*
X196453887Y-128844808D01*
X196486049Y-128845017D01*
X196512937Y-128845404D01*
X196533444Y-128845953D01*
X196546463Y-128846648D01*
X196550858Y-128847381D01*
X196548550Y-128851679D01*
X196540869Y-128863035D01*
X196528239Y-128880874D01*
X196511082Y-128904622D01*
X196489824Y-128933702D01*
X196464885Y-128967539D01*
X196436691Y-129005557D01*
X196405663Y-129047183D01*
X196372226Y-129091839D01*
X196336802Y-129138950D01*
X196319660Y-129161681D01*
X196085170Y-129472324D01*
X196216441Y-129823039D01*
X196237107Y-129878359D01*
X196256725Y-129931085D01*
X196275044Y-129980529D01*
X196291812Y-130026001D01*
X196306778Y-130066814D01*
X196319691Y-130102278D01*
X196330299Y-130131707D01*
X196338352Y-130154411D01*
X196343597Y-130169701D01*
X196345783Y-130176890D01*
X196345819Y-130177349D01*
X196340756Y-130178181D01*
X196327202Y-130178944D01*
X196306250Y-130179617D01*
X196278993Y-130180176D01*
X196246524Y-130180599D01*
X196209937Y-130180862D01*
X196173905Y-130180943D01*
X196003885Y-130180943D01*
X195995344Y-130160575D01*
X195992305Y-130152634D01*
X195986364Y-130136460D01*
X195977809Y-130112860D01*
X195966929Y-130082640D01*
X195954014Y-130046605D01*
X195939350Y-130005561D01*
X195923227Y-129960315D01*
X195905934Y-129911673D01*
X195887760Y-129860439D01*
X195879389Y-129836808D01*
X195861176Y-129785540D01*
X195843872Y-129737177D01*
X195827743Y-129692439D01*
X195813053Y-129652045D01*
X195800069Y-129616712D01*
X195789054Y-129587161D01*
X195780275Y-129564111D01*
X195773996Y-129548279D01*
X195770482Y-129540386D01*
X195769828Y-129539676D01*
X195768653Y-129545354D01*
X195765968Y-129559682D01*
X195761915Y-129581865D01*
X195756637Y-129611113D01*
X195750275Y-129646631D01*
X195742971Y-129687628D01*
X195734866Y-129733310D01*
X195726103Y-129782885D01*
X195716822Y-129835561D01*
X195712132Y-129862245D01*
X195656585Y-130178547D01*
X195497330Y-130179810D01*
X195454110Y-130180140D01*
X195419516Y-130180336D01*
X195392586Y-130180348D01*
X195372361Y-130180123D01*
X195357882Y-130179610D01*
X195348189Y-130178758D01*
X195342321Y-130177515D01*
X195339319Y-130175829D01*
X195338224Y-130173649D01*
X195338075Y-130171259D01*
X195338889Y-130165842D01*
X195341266Y-130151540D01*
X195345109Y-130128908D01*
X195350321Y-130098500D01*
X195356805Y-130060872D01*
X195364464Y-130016577D01*
X195373200Y-129966171D01*
X195382917Y-129910209D01*
X195393517Y-129849245D01*
X195404904Y-129783835D01*
X195416980Y-129714533D01*
X195429648Y-129641893D01*
X195442811Y-129566471D01*
X195456372Y-129488822D01*
X195470234Y-129409500D01*
X195484300Y-129329060D01*
X195498472Y-129248057D01*
X195512654Y-129167046D01*
X195526749Y-129086581D01*
X195540659Y-129007218D01*
X195554287Y-128929510D01*
X195567537Y-128854014D01*
X195580311Y-128781284D01*
X195592511Y-128711874D01*
X195604042Y-128646339D01*
X195614806Y-128585235D01*
X195624705Y-128529116D01*
X195633643Y-128478536D01*
X195641522Y-128434051D01*
X195648246Y-128396216D01*
X195653717Y-128365585D01*
X195657839Y-128342712D01*
X195660513Y-128328154D01*
X195661591Y-128322670D01*
X195664144Y-128311887D01*
X195821921Y-128311887D01*
X195859827Y-128311992D01*
G36*
X186984330Y-128364710D02*
X187019097Y-128365013D01*
X187049584Y-128365485D01*
X187074651Y-128366102D01*
X187093158Y-128366836D01*
X187103965Y-128367663D01*
X187106323Y-128368241D01*
X187105963Y-128373433D01*
X187104170Y-128386709D01*
X187101171Y-128406712D01*
X187097192Y-128432087D01*
X187092460Y-128461476D01*
X187087201Y-128493524D01*
X187081642Y-128526873D01*
X187076008Y-128560169D01*
X187070527Y-128592053D01*
X187065424Y-128621171D01*
X187060926Y-128646165D01*
X187057260Y-128665680D01*
X187054652Y-128678358D01*
X187054337Y-128679708D01*
X187051741Y-128690491D01*
X186893965Y-128690491D01*
X186856059Y-128690385D01*
X186821307Y-128690087D01*
X186790845Y-128689620D01*
X186765810Y-128689012D01*
X186747339Y-128688287D01*
X186736568Y-128687470D01*
X186734231Y-128686896D01*
X186734625Y-128681615D01*
X186736504Y-128668110D01*
X186739665Y-128647592D01*
X186743904Y-128621270D01*
X186749016Y-128590355D01*
X186754798Y-128556059D01*
X186761045Y-128519592D01*
X186767555Y-128482163D01*
X186774124Y-128444985D01*
X186780546Y-128409267D01*
X186785883Y-128380179D01*
X186788773Y-128364604D01*
X186946424Y-128364604D01*
X186984330Y-128364710D01*
X186984330Y-128364710D01*
G37*
X186984330Y-128364710D02*
X187019097Y-128365013D01*
X187049584Y-128365485D01*
X187074651Y-128366102D01*
X187093158Y-128366836D01*
X187103965Y-128367663D01*
X187106323Y-128368241D01*
X187105963Y-128373433D01*
X187104170Y-128386709D01*
X187101171Y-128406712D01*
X187097192Y-128432087D01*
X187092460Y-128461476D01*
X187087201Y-128493524D01*
X187081642Y-128526873D01*
X187076008Y-128560169D01*
X187070527Y-128592053D01*
X187065424Y-128621171D01*
X187060926Y-128646165D01*
X187057260Y-128665680D01*
X187054652Y-128678358D01*
X187054337Y-128679708D01*
X187051741Y-128690491D01*
X186893965Y-128690491D01*
X186856059Y-128690385D01*
X186821307Y-128690087D01*
X186790845Y-128689620D01*
X186765810Y-128689012D01*
X186747339Y-128688287D01*
X186736568Y-128687470D01*
X186734231Y-128686896D01*
X186734625Y-128681615D01*
X186736504Y-128668110D01*
X186739665Y-128647592D01*
X186743904Y-128621270D01*
X186749016Y-128590355D01*
X186754798Y-128556059D01*
X186761045Y-128519592D01*
X186767555Y-128482163D01*
X186774124Y-128444985D01*
X186780546Y-128409267D01*
X186785883Y-128380179D01*
X186788773Y-128364604D01*
X186946424Y-128364604D01*
X186984330Y-128364710D01*
D13*
X110404762Y-111297619D02*
X110309524Y-111250000D01*
X110214286Y-111154762D01*
X110071429Y-111011905D01*
X109976190Y-110964286D01*
X109880952Y-110964286D01*
X109928571Y-111202381D02*
X109833333Y-111154762D01*
X109738095Y-111059524D01*
X109690476Y-110869048D01*
X109690476Y-110535714D01*
X109738095Y-110345238D01*
X109833333Y-110250000D01*
X109928571Y-110202381D01*
X110119048Y-110202381D01*
X110214286Y-110250000D01*
X110309524Y-110345238D01*
X110357143Y-110535714D01*
X110357143Y-110869048D01*
X110309524Y-111059524D01*
X110214286Y-111154762D01*
X110119048Y-111202381D01*
X109928571Y-111202381D01*
X111309524Y-111202381D02*
X110738095Y-111202381D01*
X111023809Y-111202381D02*
X111023809Y-110202381D01*
X110928571Y-110345238D01*
X110833333Y-110440476D01*
X110738095Y-110488095D01*
X109738095Y-101202381D02*
X109738095Y-102011905D01*
X109785714Y-102107143D01*
X109833333Y-102154762D01*
X109928571Y-102202381D01*
X110119048Y-102202381D01*
X110214286Y-102154762D01*
X110261905Y-102107143D01*
X110309524Y-102011905D01*
X110309524Y-101202381D01*
X111309524Y-102202381D02*
X110738095Y-102202381D01*
X111023809Y-102202381D02*
X111023809Y-101202381D01*
X110928571Y-101345238D01*
X110833333Y-101440476D01*
X110738095Y-101488095D01*
X112928095Y-108182381D02*
X112928095Y-108991905D01*
X112975714Y-109087143D01*
X113023333Y-109134762D01*
X113118571Y-109182381D01*
X113309048Y-109182381D01*
X113404286Y-109134762D01*
X113451905Y-109087143D01*
X113499524Y-108991905D01*
X113499524Y-108182381D01*
X113928095Y-108277619D02*
X113975714Y-108230000D01*
X114070952Y-108182381D01*
X114309048Y-108182381D01*
X114404286Y-108230000D01*
X114451905Y-108277619D01*
X114499524Y-108372857D01*
X114499524Y-108468095D01*
X114451905Y-108610952D01*
X113880476Y-109182381D01*
X114499524Y-109182381D01*
X124436512Y-136452381D02*
X124436512Y-135452381D01*
X124674607Y-135452381D01*
X124817465Y-135500000D01*
X124912703Y-135595238D01*
X124960322Y-135690476D01*
X125007941Y-135880952D01*
X125007941Y-136023810D01*
X124960322Y-136214286D01*
X124912703Y-136309524D01*
X124817465Y-136404762D01*
X124674607Y-136452381D01*
X124436512Y-136452381D01*
X125960322Y-136452381D02*
X125388893Y-136452381D01*
X125674607Y-136452381D02*
X125674607Y-135452381D01*
X125579369Y-135595238D01*
X125484131Y-135690476D01*
X125388893Y-135738095D01*
X124437912Y-132952381D02*
X124437912Y-131952381D01*
X124676007Y-131952381D01*
X124818865Y-132000000D01*
X124914103Y-132095238D01*
X124961722Y-132190476D01*
X125009341Y-132380952D01*
X125009341Y-132523810D01*
X124961722Y-132714286D01*
X124914103Y-132809524D01*
X124818865Y-132904762D01*
X124676007Y-132952381D01*
X124437912Y-132952381D01*
X125390293Y-132047619D02*
X125437912Y-132000000D01*
X125533150Y-131952381D01*
X125771246Y-131952381D01*
X125866484Y-132000000D01*
X125914103Y-132047619D01*
X125961722Y-132142857D01*
X125961722Y-132238095D01*
X125914103Y-132380952D01*
X125342674Y-132952381D01*
X125961722Y-132952381D01*
X124437912Y-129452381D02*
X124437912Y-128452381D01*
X124676007Y-128452381D01*
X124818865Y-128500000D01*
X124914103Y-128595238D01*
X124961722Y-128690476D01*
X125009341Y-128880952D01*
X125009341Y-129023810D01*
X124961722Y-129214286D01*
X124914103Y-129309524D01*
X124818865Y-129404762D01*
X124676007Y-129452381D01*
X124437912Y-129452381D01*
X125342674Y-128452381D02*
X125961722Y-128452381D01*
X125628388Y-128833333D01*
X125771246Y-128833333D01*
X125866484Y-128880952D01*
X125914103Y-128928571D01*
X125961722Y-129023810D01*
X125961722Y-129261905D01*
X125914103Y-129357143D01*
X125866484Y-129404762D01*
X125771246Y-129452381D01*
X125485531Y-129452381D01*
X125390293Y-129404762D01*
X125342674Y-129357143D01*
X120158641Y-136452381D02*
X119825307Y-135976190D01*
X119587212Y-136452381D02*
X119587212Y-135452381D01*
X119968165Y-135452381D01*
X120063403Y-135500000D01*
X120111022Y-135547619D01*
X120158641Y-135642857D01*
X120158641Y-135785714D01*
X120111022Y-135880952D01*
X120063403Y-135928571D01*
X119968165Y-135976190D01*
X119587212Y-135976190D01*
X121111022Y-136452381D02*
X120539593Y-136452381D01*
X120825307Y-136452381D02*
X120825307Y-135452381D01*
X120730069Y-135595238D01*
X120634831Y-135690476D01*
X120539593Y-135738095D01*
X120158641Y-132952381D02*
X119825307Y-132476190D01*
X119587212Y-132952381D02*
X119587212Y-131952381D01*
X119968165Y-131952381D01*
X120063403Y-132000000D01*
X120111022Y-132047619D01*
X120158641Y-132142857D01*
X120158641Y-132285714D01*
X120111022Y-132380952D01*
X120063403Y-132428571D01*
X119968165Y-132476190D01*
X119587212Y-132476190D01*
X120539593Y-132047619D02*
X120587212Y-132000000D01*
X120682450Y-131952381D01*
X120920546Y-131952381D01*
X121015784Y-132000000D01*
X121063403Y-132047619D01*
X121111022Y-132142857D01*
X121111022Y-132238095D01*
X121063403Y-132380952D01*
X120491974Y-132952381D01*
X121111022Y-132952381D01*
X120158641Y-129452381D02*
X119825307Y-128976190D01*
X119587212Y-129452381D02*
X119587212Y-128452381D01*
X119968165Y-128452381D01*
X120063403Y-128500000D01*
X120111022Y-128547619D01*
X120158641Y-128642857D01*
X120158641Y-128785714D01*
X120111022Y-128880952D01*
X120063403Y-128928571D01*
X119968165Y-128976190D01*
X119587212Y-128976190D01*
X120491974Y-128452381D02*
X121111022Y-128452381D01*
X120777688Y-128833333D01*
X120920546Y-128833333D01*
X121015784Y-128880952D01*
X121063403Y-128928571D01*
X121111022Y-129023810D01*
X121111022Y-129261905D01*
X121063403Y-129357143D01*
X121015784Y-129404762D01*
X120920546Y-129452381D01*
X120634831Y-129452381D01*
X120539593Y-129404762D01*
X120491974Y-129357143D01*
X110423334Y-109257143D02*
X110375715Y-109304762D01*
X110232858Y-109352381D01*
X110137620Y-109352381D01*
X109994762Y-109304762D01*
X109899524Y-109209524D01*
X109851905Y-109114286D01*
X109804286Y-108923810D01*
X109804286Y-108780952D01*
X109851905Y-108590476D01*
X109899524Y-108495238D01*
X109994762Y-108400000D01*
X110137620Y-108352381D01*
X110232858Y-108352381D01*
X110375715Y-108400000D01*
X110423334Y-108447619D01*
X111375715Y-109352381D02*
X110804286Y-109352381D01*
X111090000Y-109352381D02*
X111090000Y-108352381D01*
X110994762Y-108495238D01*
X110899524Y-108590476D01*
X110804286Y-108638095D01*
X116753334Y-109257143D02*
X116705715Y-109304762D01*
X116562858Y-109352381D01*
X116467620Y-109352381D01*
X116324762Y-109304762D01*
X116229524Y-109209524D01*
X116181905Y-109114286D01*
X116134286Y-108923810D01*
X116134286Y-108780952D01*
X116181905Y-108590476D01*
X116229524Y-108495238D01*
X116324762Y-108400000D01*
X116467620Y-108352381D01*
X116562858Y-108352381D01*
X116705715Y-108400000D01*
X116753334Y-108447619D01*
X117134286Y-108447619D02*
X117181905Y-108400000D01*
X117277143Y-108352381D01*
X117515239Y-108352381D01*
X117610477Y-108400000D01*
X117658096Y-108447619D01*
X117705715Y-108542857D01*
X117705715Y-108638095D01*
X117658096Y-108780952D01*
X117086667Y-109352381D01*
X117705715Y-109352381D01*
M02*
