G04 #@! TF.FileFunction,Copper,L1,Top,Signal*
%FSLAX46Y46*%
G04 Gerber Fmt 4.6, Leading zero omitted, Abs format (unit mm)*
G04 Created by KiCad (PCBNEW 4.0.1-stable) date Wednesday, January 27, 2016 'PMt' 03:54:45 PM*
%MOMM*%
G01*
G04 APERTURE LIST*
%ADD10C,0.100000*%
%ADD11C,0.010000*%
%ADD12C,3.000000*%
%ADD13R,1.727200X2.032000*%
%ADD14O,1.727200X2.032000*%
%ADD15R,1.727200X1.727200*%
%ADD16O,1.727200X1.727200*%
%ADD17R,0.600000X2.000000*%
%ADD18R,0.700000X4.200000*%
%ADD19R,0.700000X0.200000*%
%ADD20R,1.800860X0.800100*%
%ADD21R,1.400000X1.200000*%
%ADD22R,1.060000X0.650000*%
%ADD23R,0.797560X0.797560*%
%ADD24R,1.200000X0.900000*%
%ADD25R,1.300000X1.550000*%
%ADD26C,1.501140*%
%ADD27R,1.501140X1.501140*%
%ADD28C,2.000000*%
%ADD29R,0.750000X1.200000*%
%ADD30C,0.685800*%
%ADD31C,0.685801*%
%ADD32C,0.254000*%
%ADD33C,0.152400*%
G04 APERTURE END LIST*
D10*
D11*
G36*
X157689423Y-127765069D02*
X157721094Y-127765572D01*
X157748725Y-127766621D01*
X157773824Y-127768340D01*
X157797893Y-127770851D01*
X157822439Y-127774276D01*
X157848967Y-127778740D01*
X157870931Y-127782815D01*
X157929786Y-127795578D01*
X157990883Y-127811645D01*
X158051336Y-127830182D01*
X158108260Y-127850354D01*
X158119639Y-127854777D01*
X158162817Y-127871970D01*
X158205192Y-127889108D01*
X158247150Y-127906370D01*
X158289080Y-127923937D01*
X158331369Y-127941989D01*
X158374404Y-127960707D01*
X158418573Y-127980271D01*
X158464265Y-128000862D01*
X158511866Y-128022659D01*
X158561764Y-128045844D01*
X158614347Y-128070597D01*
X158670003Y-128097099D01*
X158729118Y-128125528D01*
X158792082Y-128156067D01*
X158859280Y-128188896D01*
X158931102Y-128224194D01*
X159007935Y-128262143D01*
X159090166Y-128302923D01*
X159178183Y-128346714D01*
X159200903Y-128358037D01*
X159279183Y-128396981D01*
X159351702Y-128432880D01*
X159418949Y-128465961D01*
X159481415Y-128496448D01*
X159539589Y-128524567D01*
X159593962Y-128550545D01*
X159645024Y-128574606D01*
X159693265Y-128596978D01*
X159739175Y-128617885D01*
X159783244Y-128637553D01*
X159825962Y-128656208D01*
X159867819Y-128674076D01*
X159909306Y-128691382D01*
X159950912Y-128708353D01*
X159993128Y-128725213D01*
X160026403Y-128738281D01*
X160049926Y-128747518D01*
X160071319Y-128756037D01*
X160089688Y-128763473D01*
X160104143Y-128769460D01*
X160113791Y-128773635D01*
X160117732Y-128775624D01*
X160117199Y-128779719D01*
X160111987Y-128787737D01*
X160102739Y-128798968D01*
X160090100Y-128812704D01*
X160074712Y-128828236D01*
X160057219Y-128844855D01*
X160044178Y-128856657D01*
X159976199Y-128912758D01*
X159901764Y-128966253D01*
X159820994Y-129017086D01*
X159734011Y-129065200D01*
X159640938Y-129110538D01*
X159541897Y-129153043D01*
X159437009Y-129192658D01*
X159326398Y-129229327D01*
X159210185Y-129262992D01*
X159123292Y-129285296D01*
X159022697Y-129308538D01*
X158927709Y-129327867D01*
X158838081Y-129343303D01*
X158753561Y-129354868D01*
X158673901Y-129362580D01*
X158598851Y-129366462D01*
X158528163Y-129366535D01*
X158461587Y-129362818D01*
X158398874Y-129355332D01*
X158361082Y-129348660D01*
X158300450Y-129333748D01*
X158245094Y-129314367D01*
X158195086Y-129290590D01*
X158150499Y-129262491D01*
X158111404Y-129230142D01*
X158077873Y-129193617D01*
X158049979Y-129152988D01*
X158027795Y-129108329D01*
X158011392Y-129059713D01*
X158000842Y-129007214D01*
X157997903Y-128980940D01*
X157997085Y-128969833D01*
X157996149Y-128961698D01*
X157994111Y-128955994D01*
X157989991Y-128952178D01*
X157982806Y-128949710D01*
X157971575Y-128948046D01*
X157955315Y-128946646D01*
X157933045Y-128944967D01*
X157932667Y-128944937D01*
X157905115Y-128942710D01*
X157883944Y-128940816D01*
X157868491Y-128939166D01*
X157858094Y-128937673D01*
X157852090Y-128936249D01*
X157849817Y-128934807D01*
X157849918Y-128933974D01*
X157847973Y-128932665D01*
X157841139Y-128932440D01*
X157831468Y-128933114D01*
X157821010Y-128934497D01*
X157811817Y-128936403D01*
X157807431Y-128937859D01*
X157801923Y-128939376D01*
X157790616Y-128941836D01*
X157774669Y-128945008D01*
X157755241Y-128948665D01*
X157733489Y-128952578D01*
X157728056Y-128953529D01*
X157646570Y-128967036D01*
X157569154Y-128978409D01*
X157493266Y-128987987D01*
X157416367Y-128996109D01*
X157392917Y-128998294D01*
X157370487Y-128999888D01*
X157343281Y-129001121D01*
X157312652Y-129001993D01*
X157279951Y-129002504D01*
X157246529Y-129002652D01*
X157213738Y-129002438D01*
X157182930Y-129001861D01*
X157155455Y-129000920D01*
X157132666Y-128999615D01*
X157119514Y-128998402D01*
X157046686Y-128988747D01*
X156975829Y-128976860D01*
X156905068Y-128962349D01*
X156832527Y-128944822D01*
X156756331Y-128923890D01*
X156740857Y-128919368D01*
X156718243Y-128912575D01*
X156701577Y-128907222D01*
X156689982Y-128902959D01*
X156682578Y-128899438D01*
X156678490Y-128896309D01*
X156677057Y-128893968D01*
X156676091Y-128888855D01*
X156674509Y-128877561D01*
X156672410Y-128860925D01*
X156669895Y-128839783D01*
X156667063Y-128814975D01*
X156664013Y-128787338D01*
X156660918Y-128758392D01*
X156657321Y-128724399D01*
X156654435Y-128696757D01*
X156652312Y-128674791D01*
X156651001Y-128657830D01*
X156650553Y-128645198D01*
X156651018Y-128636223D01*
X156652447Y-128630230D01*
X156654890Y-128626547D01*
X156658397Y-128624499D01*
X156663018Y-128623413D01*
X156668805Y-128622615D01*
X156671091Y-128622283D01*
X156682337Y-128620254D01*
X156699389Y-128616797D01*
X156721193Y-128612151D01*
X156746700Y-128606555D01*
X156774858Y-128600249D01*
X156804615Y-128593471D01*
X156834921Y-128586461D01*
X156864725Y-128579457D01*
X156892975Y-128572700D01*
X156918620Y-128566427D01*
X156937833Y-128561593D01*
X157040462Y-128534234D01*
X157136453Y-128506397D01*
X157226213Y-128477945D01*
X157310153Y-128448742D01*
X157388680Y-128418650D01*
X157462203Y-128387534D01*
X157474056Y-128382213D01*
X157544730Y-128347760D01*
X157616700Y-128308022D01*
X157688246Y-128264092D01*
X157757648Y-128217066D01*
X157823190Y-128168037D01*
X157867403Y-128131786D01*
X157885065Y-128116423D01*
X157903398Y-128100012D01*
X157921684Y-128083244D01*
X157939206Y-128066810D01*
X157955249Y-128051401D01*
X157969095Y-128037709D01*
X157980027Y-128026424D01*
X157987329Y-128018238D01*
X157990283Y-128013841D01*
X157990219Y-128013368D01*
X157984114Y-128010119D01*
X157972137Y-128005797D01*
X157955347Y-128000663D01*
X157934801Y-127994980D01*
X157911556Y-127989011D01*
X157886670Y-127983019D01*
X157861199Y-127977265D01*
X157836201Y-127972013D01*
X157812732Y-127967526D01*
X157791852Y-127964065D01*
X157791556Y-127964021D01*
X157736513Y-127957477D01*
X157682179Y-127954423D01*
X157627039Y-127954893D01*
X157569581Y-127958923D01*
X157508289Y-127966548D01*
X157478461Y-127971261D01*
X157385204Y-127989850D01*
X157295771Y-128013707D01*
X157210377Y-128042725D01*
X157129234Y-128076797D01*
X157052557Y-128115818D01*
X156980558Y-128159681D01*
X156913451Y-128208280D01*
X156851449Y-128261509D01*
X156807949Y-128304915D01*
X156765574Y-128353556D01*
X156727536Y-128404333D01*
X156694493Y-128456230D01*
X156667105Y-128508230D01*
X156649656Y-128549355D01*
X156644680Y-128561769D01*
X156640056Y-128571937D01*
X156636789Y-128577652D01*
X156633532Y-128580958D01*
X156625631Y-128588670D01*
X156613561Y-128600334D01*
X156597793Y-128615496D01*
X156578801Y-128633704D01*
X156557057Y-128654504D01*
X156533034Y-128677442D01*
X156507205Y-128702065D01*
X156488042Y-128720309D01*
X156461341Y-128745737D01*
X156436208Y-128769712D01*
X156413104Y-128791794D01*
X156392486Y-128811540D01*
X156374813Y-128828513D01*
X156360545Y-128842270D01*
X156350139Y-128852371D01*
X156344055Y-128858376D01*
X156342607Y-128859922D01*
X156345572Y-128861699D01*
X156354384Y-128866052D01*
X156368436Y-128872701D01*
X156387123Y-128881368D01*
X156409836Y-128891773D01*
X156435972Y-128903637D01*
X156464923Y-128916683D01*
X156496083Y-128930630D01*
X156503468Y-128933923D01*
X156665126Y-129005942D01*
X156681981Y-129066214D01*
X156690094Y-129094199D01*
X156699941Y-129126534D01*
X156710916Y-129161347D01*
X156722411Y-129196762D01*
X156733817Y-129230907D01*
X156744527Y-129261907D01*
X156753511Y-129286757D01*
X156758959Y-129300443D01*
X156763479Y-129308917D01*
X156768136Y-129313733D01*
X156773830Y-129316392D01*
X156781132Y-129317558D01*
X156794453Y-129318496D01*
X156812760Y-129319209D01*
X156835020Y-129319697D01*
X156860201Y-129319965D01*
X156887269Y-129320013D01*
X156915192Y-129319845D01*
X156942937Y-129319461D01*
X156969472Y-129318866D01*
X156993763Y-129318060D01*
X157014777Y-129317046D01*
X157031319Y-129315841D01*
X157194261Y-129298212D01*
X157294139Y-129284838D01*
X157336859Y-129278400D01*
X157373678Y-129272100D01*
X157405734Y-129265624D01*
X157434167Y-129258661D01*
X157460116Y-129250899D01*
X157484721Y-129242025D01*
X157509122Y-129231727D01*
X157534457Y-129219694D01*
X157537556Y-129218147D01*
X157593115Y-129186813D01*
X157647664Y-129149211D01*
X157700233Y-129106128D01*
X157749852Y-129058353D01*
X157790314Y-129013042D01*
X157808347Y-128991319D01*
X157810748Y-129016569D01*
X157817775Y-129063991D01*
X157829681Y-129113168D01*
X157845802Y-129162224D01*
X157865477Y-129209282D01*
X157888042Y-129252463D01*
X157901719Y-129274289D01*
X157939340Y-129324006D01*
X157982141Y-129369003D01*
X158030037Y-129409251D01*
X158082937Y-129444723D01*
X158140757Y-129475389D01*
X158203406Y-129501223D01*
X158270799Y-129522197D01*
X158342848Y-129538282D01*
X158419465Y-129549451D01*
X158500562Y-129555676D01*
X158586053Y-129556929D01*
X158675848Y-129553182D01*
X158754639Y-129546139D01*
X158827782Y-129536822D01*
X158905875Y-129524509D01*
X158987621Y-129509481D01*
X159071724Y-129492024D01*
X159156887Y-129472418D01*
X159241813Y-129450949D01*
X159325205Y-129427899D01*
X159401986Y-129404745D01*
X159499460Y-129372112D01*
X159593786Y-129336670D01*
X159684613Y-129298629D01*
X159771592Y-129258203D01*
X159854372Y-129215600D01*
X159932604Y-129171034D01*
X160005937Y-129124714D01*
X160074021Y-129076853D01*
X160136506Y-129027661D01*
X160193041Y-128977350D01*
X160243278Y-128926131D01*
X160286865Y-128874215D01*
X160291516Y-128868103D01*
X160301132Y-128855676D01*
X160307892Y-128848104D01*
X160312929Y-128844422D01*
X160317377Y-128843664D01*
X160319726Y-128844079D01*
X160339163Y-128848388D01*
X160364240Y-128853070D01*
X160393568Y-128857922D01*
X160425757Y-128862737D01*
X160459415Y-128867313D01*
X160493152Y-128871443D01*
X160525578Y-128874923D01*
X160536167Y-128875932D01*
X160567905Y-128878462D01*
X160599888Y-128880184D01*
X160632791Y-128881067D01*
X160667290Y-128881080D01*
X160704060Y-128880194D01*
X160743775Y-128878377D01*
X160787113Y-128875599D01*
X160834746Y-128871829D01*
X160887352Y-128867037D01*
X160945605Y-128861192D01*
X161007125Y-128854600D01*
X161096165Y-128844237D01*
X161191639Y-128832018D01*
X161293193Y-128818007D01*
X161400469Y-128802269D01*
X161513115Y-128784868D01*
X161630774Y-128765867D01*
X161753091Y-128745332D01*
X161879712Y-128723326D01*
X162010280Y-128699914D01*
X162144441Y-128675160D01*
X162281840Y-128649128D01*
X162422121Y-128621882D01*
X162564930Y-128593486D01*
X162709911Y-128564006D01*
X162856709Y-128533505D01*
X163004969Y-128502046D01*
X163154335Y-128469696D01*
X163241972Y-128450408D01*
X163286466Y-128440554D01*
X163324684Y-128432267D01*
X163357258Y-128425680D01*
X163384823Y-128420928D01*
X163408011Y-128418146D01*
X163427455Y-128417468D01*
X163443788Y-128419028D01*
X163457642Y-128422962D01*
X163469652Y-128429404D01*
X163480449Y-128438488D01*
X163490667Y-128450348D01*
X163500938Y-128465120D01*
X163511896Y-128482938D01*
X163524174Y-128503936D01*
X163528453Y-128511295D01*
X163565722Y-128577072D01*
X163600654Y-128642322D01*
X163632855Y-128706214D01*
X163661929Y-128767915D01*
X163687481Y-128826594D01*
X163709117Y-128881419D01*
X163722982Y-128920859D01*
X163738442Y-128973272D01*
X163749158Y-129022184D01*
X163755158Y-129067367D01*
X163756469Y-129108594D01*
X163753119Y-129145635D01*
X163745134Y-129178262D01*
X163732543Y-129206247D01*
X163715372Y-129229362D01*
X163693649Y-129247378D01*
X163683124Y-129253395D01*
X163672991Y-129258154D01*
X163661941Y-129262524D01*
X163649615Y-129266533D01*
X163635657Y-129270209D01*
X163619709Y-129273581D01*
X163601413Y-129276677D01*
X163580414Y-129279524D01*
X163556352Y-129282152D01*
X163528872Y-129284587D01*
X163497615Y-129286859D01*
X163462225Y-129288995D01*
X163422343Y-129291023D01*
X163377613Y-129292973D01*
X163327677Y-129294871D01*
X163272178Y-129296746D01*
X163210759Y-129298626D01*
X163143062Y-129300540D01*
X163068731Y-129302515D01*
X163055000Y-129302869D01*
X162932923Y-129306207D01*
X162817344Y-129309786D01*
X162707707Y-129313639D01*
X162603456Y-129317794D01*
X162504037Y-129322284D01*
X162408895Y-129327138D01*
X162317474Y-129332388D01*
X162229219Y-129338064D01*
X162143574Y-129344196D01*
X162059985Y-129350816D01*
X161977897Y-129357954D01*
X161896754Y-129365640D01*
X161869667Y-129368345D01*
X161740967Y-129382177D01*
X161616502Y-129397273D01*
X161495523Y-129413805D01*
X161377281Y-129431941D01*
X161261028Y-129451851D01*
X161146016Y-129473705D01*
X161031496Y-129497671D01*
X160916721Y-129523920D01*
X160800941Y-129552620D01*
X160683408Y-129583942D01*
X160563373Y-129618054D01*
X160440090Y-129655127D01*
X160312808Y-129695329D01*
X160180780Y-129738830D01*
X160075792Y-129774551D01*
X160025932Y-129792059D01*
X159978400Y-129809485D01*
X159932527Y-129827150D01*
X159887643Y-129845374D01*
X159843080Y-129864476D01*
X159798167Y-129884779D01*
X159752235Y-129906601D01*
X159704615Y-129930263D01*
X159654637Y-129956085D01*
X159601633Y-129984388D01*
X159544932Y-130015492D01*
X159483865Y-130049717D01*
X159417763Y-130087384D01*
X159396694Y-130099493D01*
X159338073Y-130133223D01*
X159285102Y-130163651D01*
X159237334Y-130191025D01*
X159194321Y-130215591D01*
X159155616Y-130237596D01*
X159120771Y-130257287D01*
X159089338Y-130274910D01*
X159060870Y-130290714D01*
X159034919Y-130304944D01*
X159011037Y-130317848D01*
X158988777Y-130329672D01*
X158967692Y-130340664D01*
X158947332Y-130351070D01*
X158927252Y-130361138D01*
X158907003Y-130371113D01*
X158886138Y-130381244D01*
X158884306Y-130382128D01*
X158816867Y-130413565D01*
X158753250Y-130440819D01*
X158692082Y-130464282D01*
X158631992Y-130484345D01*
X158571609Y-130501402D01*
X158509560Y-130515844D01*
X158444474Y-130528064D01*
X158374978Y-130538454D01*
X158310139Y-130546279D01*
X158269152Y-130550039D01*
X158223206Y-130552999D01*
X158174358Y-130555105D01*
X158124663Y-130556301D01*
X158076179Y-130556532D01*
X158030962Y-130555744D01*
X158001458Y-130554508D01*
X157921912Y-130547865D01*
X157841456Y-130536743D01*
X157761278Y-130521443D01*
X157682567Y-130502263D01*
X157606511Y-130479501D01*
X157534298Y-130453456D01*
X157467116Y-130424427D01*
X157449008Y-130415625D01*
X157368028Y-130371372D01*
X157288806Y-130320408D01*
X157211482Y-130262893D01*
X157136195Y-130198983D01*
X157063086Y-130128836D01*
X156992295Y-130052610D01*
X156923960Y-129970463D01*
X156858223Y-129882552D01*
X156795222Y-129789036D01*
X156735097Y-129690070D01*
X156677989Y-129585814D01*
X156632897Y-129495201D01*
X156614559Y-129455287D01*
X156596937Y-129413922D01*
X156579526Y-129369814D01*
X156561819Y-129321672D01*
X156543310Y-129268204D01*
X156538965Y-129255250D01*
X156531296Y-129231804D01*
X156523193Y-129206214D01*
X156515008Y-129179673D01*
X156507093Y-129153373D01*
X156499801Y-129128508D01*
X156493485Y-129106269D01*
X156488496Y-129087848D01*
X156485187Y-129074440D01*
X156484378Y-129070558D01*
X156482209Y-129058996D01*
X156277595Y-128976428D01*
X156241615Y-128961883D01*
X156207607Y-128948085D01*
X156176132Y-128935266D01*
X156147748Y-128923654D01*
X156123014Y-128913480D01*
X156102490Y-128904974D01*
X156086734Y-128898367D01*
X156076307Y-128893889D01*
X156071768Y-128891769D01*
X156071619Y-128891656D01*
X156073960Y-128889006D01*
X156081162Y-128882050D01*
X156092812Y-128871163D01*
X156108495Y-128856724D01*
X156127797Y-128839108D01*
X156150304Y-128818694D01*
X156175601Y-128795859D01*
X156203274Y-128770979D01*
X156232909Y-128744432D01*
X156258286Y-128721769D01*
X156294302Y-128689640D01*
X156325416Y-128661846D01*
X156351998Y-128638033D01*
X156374415Y-128617848D01*
X156393038Y-128600935D01*
X156408235Y-128586942D01*
X156420376Y-128575513D01*
X156429830Y-128566294D01*
X156436965Y-128558931D01*
X156442152Y-128553071D01*
X156445759Y-128548358D01*
X156448156Y-128544439D01*
X156449712Y-128540959D01*
X156450795Y-128537565D01*
X156450979Y-128536897D01*
X156457388Y-128516348D01*
X156466490Y-128491398D01*
X156477560Y-128463816D01*
X156489874Y-128435375D01*
X156502705Y-128407843D01*
X156509300Y-128394554D01*
X156541749Y-128336345D01*
X156578977Y-128280220D01*
X156621666Y-128225249D01*
X156670499Y-128170502D01*
X156683642Y-128156849D01*
X156739151Y-128103310D01*
X156796431Y-128054827D01*
X156856685Y-128010531D01*
X156921117Y-127969557D01*
X156990931Y-127931037D01*
X157011917Y-127920420D01*
X157079971Y-127888548D01*
X157147985Y-127860713D01*
X157217187Y-127836541D01*
X157288807Y-127815659D01*
X157364072Y-127797692D01*
X157444212Y-127782268D01*
X157490680Y-127774752D01*
X157510516Y-127771832D01*
X157527844Y-127769566D01*
X157544061Y-127767870D01*
X157560562Y-127766659D01*
X157578742Y-127765848D01*
X157599998Y-127765355D01*
X157625724Y-127765094D01*
X157652208Y-127764991D01*
X157689423Y-127765069D01*
X157689423Y-127765069D01*
G37*
X157689423Y-127765069D02*
X157721094Y-127765572D01*
X157748725Y-127766621D01*
X157773824Y-127768340D01*
X157797893Y-127770851D01*
X157822439Y-127774276D01*
X157848967Y-127778740D01*
X157870931Y-127782815D01*
X157929786Y-127795578D01*
X157990883Y-127811645D01*
X158051336Y-127830182D01*
X158108260Y-127850354D01*
X158119639Y-127854777D01*
X158162817Y-127871970D01*
X158205192Y-127889108D01*
X158247150Y-127906370D01*
X158289080Y-127923937D01*
X158331369Y-127941989D01*
X158374404Y-127960707D01*
X158418573Y-127980271D01*
X158464265Y-128000862D01*
X158511866Y-128022659D01*
X158561764Y-128045844D01*
X158614347Y-128070597D01*
X158670003Y-128097099D01*
X158729118Y-128125528D01*
X158792082Y-128156067D01*
X158859280Y-128188896D01*
X158931102Y-128224194D01*
X159007935Y-128262143D01*
X159090166Y-128302923D01*
X159178183Y-128346714D01*
X159200903Y-128358037D01*
X159279183Y-128396981D01*
X159351702Y-128432880D01*
X159418949Y-128465961D01*
X159481415Y-128496448D01*
X159539589Y-128524567D01*
X159593962Y-128550545D01*
X159645024Y-128574606D01*
X159693265Y-128596978D01*
X159739175Y-128617885D01*
X159783244Y-128637553D01*
X159825962Y-128656208D01*
X159867819Y-128674076D01*
X159909306Y-128691382D01*
X159950912Y-128708353D01*
X159993128Y-128725213D01*
X160026403Y-128738281D01*
X160049926Y-128747518D01*
X160071319Y-128756037D01*
X160089688Y-128763473D01*
X160104143Y-128769460D01*
X160113791Y-128773635D01*
X160117732Y-128775624D01*
X160117199Y-128779719D01*
X160111987Y-128787737D01*
X160102739Y-128798968D01*
X160090100Y-128812704D01*
X160074712Y-128828236D01*
X160057219Y-128844855D01*
X160044178Y-128856657D01*
X159976199Y-128912758D01*
X159901764Y-128966253D01*
X159820994Y-129017086D01*
X159734011Y-129065200D01*
X159640938Y-129110538D01*
X159541897Y-129153043D01*
X159437009Y-129192658D01*
X159326398Y-129229327D01*
X159210185Y-129262992D01*
X159123292Y-129285296D01*
X159022697Y-129308538D01*
X158927709Y-129327867D01*
X158838081Y-129343303D01*
X158753561Y-129354868D01*
X158673901Y-129362580D01*
X158598851Y-129366462D01*
X158528163Y-129366535D01*
X158461587Y-129362818D01*
X158398874Y-129355332D01*
X158361082Y-129348660D01*
X158300450Y-129333748D01*
X158245094Y-129314367D01*
X158195086Y-129290590D01*
X158150499Y-129262491D01*
X158111404Y-129230142D01*
X158077873Y-129193617D01*
X158049979Y-129152988D01*
X158027795Y-129108329D01*
X158011392Y-129059713D01*
X158000842Y-129007214D01*
X157997903Y-128980940D01*
X157997085Y-128969833D01*
X157996149Y-128961698D01*
X157994111Y-128955994D01*
X157989991Y-128952178D01*
X157982806Y-128949710D01*
X157971575Y-128948046D01*
X157955315Y-128946646D01*
X157933045Y-128944967D01*
X157932667Y-128944937D01*
X157905115Y-128942710D01*
X157883944Y-128940816D01*
X157868491Y-128939166D01*
X157858094Y-128937673D01*
X157852090Y-128936249D01*
X157849817Y-128934807D01*
X157849918Y-128933974D01*
X157847973Y-128932665D01*
X157841139Y-128932440D01*
X157831468Y-128933114D01*
X157821010Y-128934497D01*
X157811817Y-128936403D01*
X157807431Y-128937859D01*
X157801923Y-128939376D01*
X157790616Y-128941836D01*
X157774669Y-128945008D01*
X157755241Y-128948665D01*
X157733489Y-128952578D01*
X157728056Y-128953529D01*
X157646570Y-128967036D01*
X157569154Y-128978409D01*
X157493266Y-128987987D01*
X157416367Y-128996109D01*
X157392917Y-128998294D01*
X157370487Y-128999888D01*
X157343281Y-129001121D01*
X157312652Y-129001993D01*
X157279951Y-129002504D01*
X157246529Y-129002652D01*
X157213738Y-129002438D01*
X157182930Y-129001861D01*
X157155455Y-129000920D01*
X157132666Y-128999615D01*
X157119514Y-128998402D01*
X157046686Y-128988747D01*
X156975829Y-128976860D01*
X156905068Y-128962349D01*
X156832527Y-128944822D01*
X156756331Y-128923890D01*
X156740857Y-128919368D01*
X156718243Y-128912575D01*
X156701577Y-128907222D01*
X156689982Y-128902959D01*
X156682578Y-128899438D01*
X156678490Y-128896309D01*
X156677057Y-128893968D01*
X156676091Y-128888855D01*
X156674509Y-128877561D01*
X156672410Y-128860925D01*
X156669895Y-128839783D01*
X156667063Y-128814975D01*
X156664013Y-128787338D01*
X156660918Y-128758392D01*
X156657321Y-128724399D01*
X156654435Y-128696757D01*
X156652312Y-128674791D01*
X156651001Y-128657830D01*
X156650553Y-128645198D01*
X156651018Y-128636223D01*
X156652447Y-128630230D01*
X156654890Y-128626547D01*
X156658397Y-128624499D01*
X156663018Y-128623413D01*
X156668805Y-128622615D01*
X156671091Y-128622283D01*
X156682337Y-128620254D01*
X156699389Y-128616797D01*
X156721193Y-128612151D01*
X156746700Y-128606555D01*
X156774858Y-128600249D01*
X156804615Y-128593471D01*
X156834921Y-128586461D01*
X156864725Y-128579457D01*
X156892975Y-128572700D01*
X156918620Y-128566427D01*
X156937833Y-128561593D01*
X157040462Y-128534234D01*
X157136453Y-128506397D01*
X157226213Y-128477945D01*
X157310153Y-128448742D01*
X157388680Y-128418650D01*
X157462203Y-128387534D01*
X157474056Y-128382213D01*
X157544730Y-128347760D01*
X157616700Y-128308022D01*
X157688246Y-128264092D01*
X157757648Y-128217066D01*
X157823190Y-128168037D01*
X157867403Y-128131786D01*
X157885065Y-128116423D01*
X157903398Y-128100012D01*
X157921684Y-128083244D01*
X157939206Y-128066810D01*
X157955249Y-128051401D01*
X157969095Y-128037709D01*
X157980027Y-128026424D01*
X157987329Y-128018238D01*
X157990283Y-128013841D01*
X157990219Y-128013368D01*
X157984114Y-128010119D01*
X157972137Y-128005797D01*
X157955347Y-128000663D01*
X157934801Y-127994980D01*
X157911556Y-127989011D01*
X157886670Y-127983019D01*
X157861199Y-127977265D01*
X157836201Y-127972013D01*
X157812732Y-127967526D01*
X157791852Y-127964065D01*
X157791556Y-127964021D01*
X157736513Y-127957477D01*
X157682179Y-127954423D01*
X157627039Y-127954893D01*
X157569581Y-127958923D01*
X157508289Y-127966548D01*
X157478461Y-127971261D01*
X157385204Y-127989850D01*
X157295771Y-128013707D01*
X157210377Y-128042725D01*
X157129234Y-128076797D01*
X157052557Y-128115818D01*
X156980558Y-128159681D01*
X156913451Y-128208280D01*
X156851449Y-128261509D01*
X156807949Y-128304915D01*
X156765574Y-128353556D01*
X156727536Y-128404333D01*
X156694493Y-128456230D01*
X156667105Y-128508230D01*
X156649656Y-128549355D01*
X156644680Y-128561769D01*
X156640056Y-128571937D01*
X156636789Y-128577652D01*
X156633532Y-128580958D01*
X156625631Y-128588670D01*
X156613561Y-128600334D01*
X156597793Y-128615496D01*
X156578801Y-128633704D01*
X156557057Y-128654504D01*
X156533034Y-128677442D01*
X156507205Y-128702065D01*
X156488042Y-128720309D01*
X156461341Y-128745737D01*
X156436208Y-128769712D01*
X156413104Y-128791794D01*
X156392486Y-128811540D01*
X156374813Y-128828513D01*
X156360545Y-128842270D01*
X156350139Y-128852371D01*
X156344055Y-128858376D01*
X156342607Y-128859922D01*
X156345572Y-128861699D01*
X156354384Y-128866052D01*
X156368436Y-128872701D01*
X156387123Y-128881368D01*
X156409836Y-128891773D01*
X156435972Y-128903637D01*
X156464923Y-128916683D01*
X156496083Y-128930630D01*
X156503468Y-128933923D01*
X156665126Y-129005942D01*
X156681981Y-129066214D01*
X156690094Y-129094199D01*
X156699941Y-129126534D01*
X156710916Y-129161347D01*
X156722411Y-129196762D01*
X156733817Y-129230907D01*
X156744527Y-129261907D01*
X156753511Y-129286757D01*
X156758959Y-129300443D01*
X156763479Y-129308917D01*
X156768136Y-129313733D01*
X156773830Y-129316392D01*
X156781132Y-129317558D01*
X156794453Y-129318496D01*
X156812760Y-129319209D01*
X156835020Y-129319697D01*
X156860201Y-129319965D01*
X156887269Y-129320013D01*
X156915192Y-129319845D01*
X156942937Y-129319461D01*
X156969472Y-129318866D01*
X156993763Y-129318060D01*
X157014777Y-129317046D01*
X157031319Y-129315841D01*
X157194261Y-129298212D01*
X157294139Y-129284838D01*
X157336859Y-129278400D01*
X157373678Y-129272100D01*
X157405734Y-129265624D01*
X157434167Y-129258661D01*
X157460116Y-129250899D01*
X157484721Y-129242025D01*
X157509122Y-129231727D01*
X157534457Y-129219694D01*
X157537556Y-129218147D01*
X157593115Y-129186813D01*
X157647664Y-129149211D01*
X157700233Y-129106128D01*
X157749852Y-129058353D01*
X157790314Y-129013042D01*
X157808347Y-128991319D01*
X157810748Y-129016569D01*
X157817775Y-129063991D01*
X157829681Y-129113168D01*
X157845802Y-129162224D01*
X157865477Y-129209282D01*
X157888042Y-129252463D01*
X157901719Y-129274289D01*
X157939340Y-129324006D01*
X157982141Y-129369003D01*
X158030037Y-129409251D01*
X158082937Y-129444723D01*
X158140757Y-129475389D01*
X158203406Y-129501223D01*
X158270799Y-129522197D01*
X158342848Y-129538282D01*
X158419465Y-129549451D01*
X158500562Y-129555676D01*
X158586053Y-129556929D01*
X158675848Y-129553182D01*
X158754639Y-129546139D01*
X158827782Y-129536822D01*
X158905875Y-129524509D01*
X158987621Y-129509481D01*
X159071724Y-129492024D01*
X159156887Y-129472418D01*
X159241813Y-129450949D01*
X159325205Y-129427899D01*
X159401986Y-129404745D01*
X159499460Y-129372112D01*
X159593786Y-129336670D01*
X159684613Y-129298629D01*
X159771592Y-129258203D01*
X159854372Y-129215600D01*
X159932604Y-129171034D01*
X160005937Y-129124714D01*
X160074021Y-129076853D01*
X160136506Y-129027661D01*
X160193041Y-128977350D01*
X160243278Y-128926131D01*
X160286865Y-128874215D01*
X160291516Y-128868103D01*
X160301132Y-128855676D01*
X160307892Y-128848104D01*
X160312929Y-128844422D01*
X160317377Y-128843664D01*
X160319726Y-128844079D01*
X160339163Y-128848388D01*
X160364240Y-128853070D01*
X160393568Y-128857922D01*
X160425757Y-128862737D01*
X160459415Y-128867313D01*
X160493152Y-128871443D01*
X160525578Y-128874923D01*
X160536167Y-128875932D01*
X160567905Y-128878462D01*
X160599888Y-128880184D01*
X160632791Y-128881067D01*
X160667290Y-128881080D01*
X160704060Y-128880194D01*
X160743775Y-128878377D01*
X160787113Y-128875599D01*
X160834746Y-128871829D01*
X160887352Y-128867037D01*
X160945605Y-128861192D01*
X161007125Y-128854600D01*
X161096165Y-128844237D01*
X161191639Y-128832018D01*
X161293193Y-128818007D01*
X161400469Y-128802269D01*
X161513115Y-128784868D01*
X161630774Y-128765867D01*
X161753091Y-128745332D01*
X161879712Y-128723326D01*
X162010280Y-128699914D01*
X162144441Y-128675160D01*
X162281840Y-128649128D01*
X162422121Y-128621882D01*
X162564930Y-128593486D01*
X162709911Y-128564006D01*
X162856709Y-128533505D01*
X163004969Y-128502046D01*
X163154335Y-128469696D01*
X163241972Y-128450408D01*
X163286466Y-128440554D01*
X163324684Y-128432267D01*
X163357258Y-128425680D01*
X163384823Y-128420928D01*
X163408011Y-128418146D01*
X163427455Y-128417468D01*
X163443788Y-128419028D01*
X163457642Y-128422962D01*
X163469652Y-128429404D01*
X163480449Y-128438488D01*
X163490667Y-128450348D01*
X163500938Y-128465120D01*
X163511896Y-128482938D01*
X163524174Y-128503936D01*
X163528453Y-128511295D01*
X163565722Y-128577072D01*
X163600654Y-128642322D01*
X163632855Y-128706214D01*
X163661929Y-128767915D01*
X163687481Y-128826594D01*
X163709117Y-128881419D01*
X163722982Y-128920859D01*
X163738442Y-128973272D01*
X163749158Y-129022184D01*
X163755158Y-129067367D01*
X163756469Y-129108594D01*
X163753119Y-129145635D01*
X163745134Y-129178262D01*
X163732543Y-129206247D01*
X163715372Y-129229362D01*
X163693649Y-129247378D01*
X163683124Y-129253395D01*
X163672991Y-129258154D01*
X163661941Y-129262524D01*
X163649615Y-129266533D01*
X163635657Y-129270209D01*
X163619709Y-129273581D01*
X163601413Y-129276677D01*
X163580414Y-129279524D01*
X163556352Y-129282152D01*
X163528872Y-129284587D01*
X163497615Y-129286859D01*
X163462225Y-129288995D01*
X163422343Y-129291023D01*
X163377613Y-129292973D01*
X163327677Y-129294871D01*
X163272178Y-129296746D01*
X163210759Y-129298626D01*
X163143062Y-129300540D01*
X163068731Y-129302515D01*
X163055000Y-129302869D01*
X162932923Y-129306207D01*
X162817344Y-129309786D01*
X162707707Y-129313639D01*
X162603456Y-129317794D01*
X162504037Y-129322284D01*
X162408895Y-129327138D01*
X162317474Y-129332388D01*
X162229219Y-129338064D01*
X162143574Y-129344196D01*
X162059985Y-129350816D01*
X161977897Y-129357954D01*
X161896754Y-129365640D01*
X161869667Y-129368345D01*
X161740967Y-129382177D01*
X161616502Y-129397273D01*
X161495523Y-129413805D01*
X161377281Y-129431941D01*
X161261028Y-129451851D01*
X161146016Y-129473705D01*
X161031496Y-129497671D01*
X160916721Y-129523920D01*
X160800941Y-129552620D01*
X160683408Y-129583942D01*
X160563373Y-129618054D01*
X160440090Y-129655127D01*
X160312808Y-129695329D01*
X160180780Y-129738830D01*
X160075792Y-129774551D01*
X160025932Y-129792059D01*
X159978400Y-129809485D01*
X159932527Y-129827150D01*
X159887643Y-129845374D01*
X159843080Y-129864476D01*
X159798167Y-129884779D01*
X159752235Y-129906601D01*
X159704615Y-129930263D01*
X159654637Y-129956085D01*
X159601633Y-129984388D01*
X159544932Y-130015492D01*
X159483865Y-130049717D01*
X159417763Y-130087384D01*
X159396694Y-130099493D01*
X159338073Y-130133223D01*
X159285102Y-130163651D01*
X159237334Y-130191025D01*
X159194321Y-130215591D01*
X159155616Y-130237596D01*
X159120771Y-130257287D01*
X159089338Y-130274910D01*
X159060870Y-130290714D01*
X159034919Y-130304944D01*
X159011037Y-130317848D01*
X158988777Y-130329672D01*
X158967692Y-130340664D01*
X158947332Y-130351070D01*
X158927252Y-130361138D01*
X158907003Y-130371113D01*
X158886138Y-130381244D01*
X158884306Y-130382128D01*
X158816867Y-130413565D01*
X158753250Y-130440819D01*
X158692082Y-130464282D01*
X158631992Y-130484345D01*
X158571609Y-130501402D01*
X158509560Y-130515844D01*
X158444474Y-130528064D01*
X158374978Y-130538454D01*
X158310139Y-130546279D01*
X158269152Y-130550039D01*
X158223206Y-130552999D01*
X158174358Y-130555105D01*
X158124663Y-130556301D01*
X158076179Y-130556532D01*
X158030962Y-130555744D01*
X158001458Y-130554508D01*
X157921912Y-130547865D01*
X157841456Y-130536743D01*
X157761278Y-130521443D01*
X157682567Y-130502263D01*
X157606511Y-130479501D01*
X157534298Y-130453456D01*
X157467116Y-130424427D01*
X157449008Y-130415625D01*
X157368028Y-130371372D01*
X157288806Y-130320408D01*
X157211482Y-130262893D01*
X157136195Y-130198983D01*
X157063086Y-130128836D01*
X156992295Y-130052610D01*
X156923960Y-129970463D01*
X156858223Y-129882552D01*
X156795222Y-129789036D01*
X156735097Y-129690070D01*
X156677989Y-129585814D01*
X156632897Y-129495201D01*
X156614559Y-129455287D01*
X156596937Y-129413922D01*
X156579526Y-129369814D01*
X156561819Y-129321672D01*
X156543310Y-129268204D01*
X156538965Y-129255250D01*
X156531296Y-129231804D01*
X156523193Y-129206214D01*
X156515008Y-129179673D01*
X156507093Y-129153373D01*
X156499801Y-129128508D01*
X156493485Y-129106269D01*
X156488496Y-129087848D01*
X156485187Y-129074440D01*
X156484378Y-129070558D01*
X156482209Y-129058996D01*
X156277595Y-128976428D01*
X156241615Y-128961883D01*
X156207607Y-128948085D01*
X156176132Y-128935266D01*
X156147748Y-128923654D01*
X156123014Y-128913480D01*
X156102490Y-128904974D01*
X156086734Y-128898367D01*
X156076307Y-128893889D01*
X156071768Y-128891769D01*
X156071619Y-128891656D01*
X156073960Y-128889006D01*
X156081162Y-128882050D01*
X156092812Y-128871163D01*
X156108495Y-128856724D01*
X156127797Y-128839108D01*
X156150304Y-128818694D01*
X156175601Y-128795859D01*
X156203274Y-128770979D01*
X156232909Y-128744432D01*
X156258286Y-128721769D01*
X156294302Y-128689640D01*
X156325416Y-128661846D01*
X156351998Y-128638033D01*
X156374415Y-128617848D01*
X156393038Y-128600935D01*
X156408235Y-128586942D01*
X156420376Y-128575513D01*
X156429830Y-128566294D01*
X156436965Y-128558931D01*
X156442152Y-128553071D01*
X156445759Y-128548358D01*
X156448156Y-128544439D01*
X156449712Y-128540959D01*
X156450795Y-128537565D01*
X156450979Y-128536897D01*
X156457388Y-128516348D01*
X156466490Y-128491398D01*
X156477560Y-128463816D01*
X156489874Y-128435375D01*
X156502705Y-128407843D01*
X156509300Y-128394554D01*
X156541749Y-128336345D01*
X156578977Y-128280220D01*
X156621666Y-128225249D01*
X156670499Y-128170502D01*
X156683642Y-128156849D01*
X156739151Y-128103310D01*
X156796431Y-128054827D01*
X156856685Y-128010531D01*
X156921117Y-127969557D01*
X156990931Y-127931037D01*
X157011917Y-127920420D01*
X157079971Y-127888548D01*
X157147985Y-127860713D01*
X157217187Y-127836541D01*
X157288807Y-127815659D01*
X157364072Y-127797692D01*
X157444212Y-127782268D01*
X157490680Y-127774752D01*
X157510516Y-127771832D01*
X157527844Y-127769566D01*
X157544061Y-127767870D01*
X157560562Y-127766659D01*
X157578742Y-127765848D01*
X157599998Y-127765355D01*
X157625724Y-127765094D01*
X157652208Y-127764991D01*
X157689423Y-127765069D01*
D12*
X116500000Y-123200000D03*
X113500000Y-118500000D03*
X119500000Y-118500000D03*
D13*
X111140000Y-138550000D03*
D14*
X113680000Y-138550000D03*
X116220000Y-138550000D03*
X118760000Y-138550000D03*
X121300000Y-138550000D03*
X123840000Y-138550000D03*
D15*
X134000000Y-138550000D03*
D16*
X134000000Y-136010000D03*
X136540000Y-138550000D03*
X136540000Y-136010000D03*
X139080000Y-138550000D03*
X139080000Y-136010000D03*
X141620000Y-138550000D03*
X141620000Y-136010000D03*
X144160000Y-138550000D03*
X144160000Y-136010000D03*
X146700000Y-138550000D03*
X146700000Y-136010000D03*
X149240000Y-138550000D03*
X149240000Y-136010000D03*
X151780000Y-138550000D03*
X151780000Y-136010000D03*
X154320000Y-138550000D03*
X154320000Y-136010000D03*
X156860000Y-138550000D03*
X156860000Y-136010000D03*
X159400000Y-138550000D03*
X159400000Y-136010000D03*
X161940000Y-138550000D03*
X161940000Y-136010000D03*
X164480000Y-138550000D03*
X164480000Y-136010000D03*
X167020000Y-138550000D03*
X167020000Y-136010000D03*
X169560000Y-138550000D03*
X169560000Y-136010000D03*
X172100000Y-138550000D03*
X172100000Y-136010000D03*
X174640000Y-138550000D03*
X174640000Y-136010000D03*
X177180000Y-138550000D03*
X177180000Y-136010000D03*
X179720000Y-138550000D03*
X179720000Y-136010000D03*
X182260000Y-138550000D03*
X182260000Y-136010000D03*
X184800000Y-138550000D03*
X184800000Y-136010000D03*
X187340000Y-138550000D03*
X187340000Y-136010000D03*
X189880000Y-138550000D03*
X189880000Y-136010000D03*
X192420000Y-138550000D03*
X192420000Y-136010000D03*
X194960000Y-138550000D03*
X194960000Y-136010000D03*
D13*
X117250000Y-97250000D03*
D14*
X119790000Y-97250000D03*
X122330000Y-97250000D03*
X124870000Y-97250000D03*
D15*
X134000000Y-87750000D03*
D16*
X134000000Y-85210000D03*
X136540000Y-87750000D03*
X136540000Y-85210000D03*
X139080000Y-87750000D03*
X139080000Y-85210000D03*
X141620000Y-87750000D03*
X141620000Y-85210000D03*
X144160000Y-87750000D03*
X144160000Y-85210000D03*
X146700000Y-87750000D03*
X146700000Y-85210000D03*
X149240000Y-87750000D03*
X149240000Y-85210000D03*
X151780000Y-87750000D03*
X151780000Y-85210000D03*
X154320000Y-87750000D03*
X154320000Y-85210000D03*
X156860000Y-87750000D03*
X156860000Y-85210000D03*
X159400000Y-87750000D03*
X159400000Y-85210000D03*
X161940000Y-87750000D03*
X161940000Y-85210000D03*
X164480000Y-87750000D03*
X164480000Y-85210000D03*
X167020000Y-87750000D03*
X167020000Y-85210000D03*
X169560000Y-87750000D03*
X169560000Y-85210000D03*
X172100000Y-87750000D03*
X172100000Y-85210000D03*
X174640000Y-87750000D03*
X174640000Y-85210000D03*
X177180000Y-87750000D03*
X177180000Y-85210000D03*
X179720000Y-87750000D03*
X179720000Y-85210000D03*
X182260000Y-87750000D03*
X182260000Y-85210000D03*
X184800000Y-87750000D03*
X184800000Y-85210000D03*
X187340000Y-87750000D03*
X187340000Y-85210000D03*
X189880000Y-87750000D03*
X189880000Y-85210000D03*
X192420000Y-87750000D03*
X192420000Y-85210000D03*
X194960000Y-87750000D03*
X194960000Y-85210000D03*
D17*
X137000000Y-127500000D03*
X138000000Y-127500000D03*
X139000000Y-127500000D03*
X140000000Y-127500000D03*
X141000000Y-127500000D03*
X142000000Y-127500000D03*
X143000000Y-127500000D03*
X144000000Y-127500000D03*
X145000000Y-127500000D03*
X146000000Y-127500000D03*
X147000000Y-127500000D03*
X148000000Y-127500000D03*
X149000000Y-127500000D03*
X150000000Y-127500000D03*
X151000000Y-127500000D03*
X152000000Y-127500000D03*
D18*
X136000000Y-129600000D03*
X153000000Y-129600000D03*
D19*
X188260000Y-109800000D03*
X192040000Y-109800000D03*
X188260000Y-109400000D03*
X192040000Y-109400000D03*
X188260000Y-109000000D03*
X192040000Y-109000000D03*
X188260000Y-108600000D03*
X192040000Y-108600000D03*
X188260000Y-108200000D03*
X192040000Y-108200000D03*
X188260000Y-107800000D03*
X192040000Y-107800000D03*
X188260000Y-107400000D03*
X192040000Y-107400000D03*
X188260000Y-107000000D03*
X192040000Y-107000000D03*
X188260000Y-106600000D03*
X192040000Y-106600000D03*
X188260000Y-106200000D03*
X192040000Y-106200000D03*
D20*
X113500000Y-110000000D03*
X113500000Y-111900000D03*
X116502280Y-110950000D03*
D21*
X111100000Y-86500000D03*
X111100000Y-89000000D03*
X111100000Y-91500000D03*
X115500000Y-86500000D03*
X115500000Y-89000000D03*
X115500000Y-91500000D03*
D22*
X114850000Y-102700000D03*
X114850000Y-101750000D03*
X114850000Y-100800000D03*
X112650000Y-100800000D03*
X112650000Y-102700000D03*
X112600000Y-105380000D03*
X112600000Y-106330000D03*
X112600000Y-107280000D03*
X114800000Y-107280000D03*
X114800000Y-105380000D03*
D17*
X167500000Y-127500000D03*
X168500000Y-127500000D03*
X169500000Y-127500000D03*
X170500000Y-127500000D03*
X171500000Y-127500000D03*
X172500000Y-127500000D03*
X173500000Y-127500000D03*
X174500000Y-127500000D03*
X175500000Y-127500000D03*
X176500000Y-127500000D03*
X177500000Y-127500000D03*
X178500000Y-127500000D03*
X179500000Y-127500000D03*
X180500000Y-127500000D03*
X181500000Y-127500000D03*
X182500000Y-127500000D03*
D18*
X166500000Y-129600000D03*
X183500000Y-129600000D03*
D23*
X125923907Y-134287969D03*
X124425307Y-134287969D03*
X125925307Y-130787969D03*
X124426707Y-130787969D03*
X125925307Y-127287969D03*
X124426707Y-127287969D03*
D24*
X121425307Y-134287969D03*
X119225307Y-134287969D03*
X121425307Y-130787969D03*
X119225307Y-130787969D03*
X121425307Y-127287969D03*
X119225307Y-127287969D03*
D25*
X116250000Y-134225000D03*
X111750000Y-134225000D03*
X111750000Y-126275000D03*
X116250000Y-126275000D03*
D26*
X117750000Y-101750000D03*
X120570000Y-106340000D03*
D27*
X119250000Y-111000000D03*
D28*
X158550000Y-91250000D03*
D19*
X161190000Y-100200000D03*
X161190000Y-100600000D03*
X161190000Y-101000000D03*
X161190000Y-101400000D03*
X161190000Y-101800000D03*
X161190000Y-102200000D03*
X161190000Y-102600000D03*
X161190000Y-103000000D03*
X161190000Y-103400000D03*
X161190000Y-103800000D03*
X161190000Y-107800000D03*
X161190000Y-107400000D03*
X161190000Y-107000000D03*
X161190000Y-106600000D03*
X161190000Y-106200000D03*
X161190000Y-105800000D03*
X161190000Y-105400000D03*
X161190000Y-105000000D03*
X161190000Y-104600000D03*
X161190000Y-104200000D03*
X161190000Y-108200000D03*
X161190000Y-108600000D03*
X161190000Y-109000000D03*
X161190000Y-109400000D03*
X161190000Y-109800000D03*
X161190000Y-110200000D03*
X161190000Y-110600000D03*
X161190000Y-111000000D03*
X161190000Y-111400000D03*
X161190000Y-111800000D03*
X161190000Y-115800000D03*
X161190000Y-115400000D03*
X161190000Y-115000000D03*
X161190000Y-114600000D03*
X161190000Y-114200000D03*
X161190000Y-113800000D03*
X161190000Y-113400000D03*
X161190000Y-113000000D03*
X161190000Y-112600000D03*
X161190000Y-112200000D03*
X158110000Y-112200000D03*
X158110000Y-112600000D03*
X158110000Y-113000000D03*
X158110000Y-113400000D03*
X158110000Y-113800000D03*
X158110000Y-114200000D03*
X158110000Y-114600000D03*
X158110000Y-115000000D03*
X158110000Y-115400000D03*
X158110000Y-115800000D03*
X158110000Y-111800000D03*
X158110000Y-111400000D03*
X158110000Y-111000000D03*
X158110000Y-110600000D03*
X158110000Y-110200000D03*
X158110000Y-109800000D03*
X158110000Y-109400000D03*
X158110000Y-109000000D03*
X158110000Y-108600000D03*
X158110000Y-108200000D03*
X158110000Y-104200000D03*
X158110000Y-104600000D03*
X158110000Y-105000000D03*
X158110000Y-105400000D03*
X158110000Y-105800000D03*
X158110000Y-106200000D03*
X158110000Y-106600000D03*
X158110000Y-107000000D03*
X158110000Y-107400000D03*
X158110000Y-107800000D03*
X158110000Y-103800000D03*
X158110000Y-103400000D03*
X158110000Y-103000000D03*
X158110000Y-102600000D03*
X158110000Y-102200000D03*
X158110000Y-101800000D03*
X158110000Y-101400000D03*
X158110000Y-101000000D03*
X158110000Y-100600000D03*
X158110000Y-100200000D03*
D29*
X110560000Y-105410000D03*
X110560000Y-107310000D03*
X116940000Y-105410000D03*
X116940000Y-107310000D03*
D30*
X159330000Y-127190000D03*
X113500000Y-112860000D03*
X115850000Y-106300000D03*
X111490000Y-106300000D03*
X116020000Y-101740000D03*
X183380000Y-124980000D03*
X160660000Y-126740000D03*
X159550000Y-121030000D03*
X109980000Y-103150000D03*
X109830000Y-112000000D03*
X121720000Y-133050000D03*
X151398347Y-131669706D03*
X151390000Y-134140000D03*
X171984516Y-132350625D03*
X170336059Y-132274557D03*
X175010000Y-132200000D03*
X167530000Y-131730000D03*
X121690938Y-132212292D03*
X148680000Y-130881026D03*
X148666358Y-132938480D03*
X175250000Y-131230000D03*
X172210000Y-131400000D03*
X170750000Y-131500000D03*
X168650000Y-131480000D03*
X189930000Y-131570000D03*
X145727337Y-134282285D03*
X146682530Y-125283057D03*
X146290000Y-122630000D03*
X146950000Y-129460000D03*
D31*
X163832147Y-110227796D03*
D30*
X152610000Y-107170000D03*
X163220000Y-106717680D03*
D31*
X156240000Y-107200000D03*
X156142854Y-111234603D03*
X155415949Y-110663083D03*
X155032223Y-111936370D03*
X154383520Y-112736864D03*
X155910590Y-112534495D03*
X155372384Y-113770411D03*
X154573948Y-114185369D03*
X155007512Y-114906215D03*
X154339317Y-115598934D03*
X154956957Y-116165608D03*
X155641520Y-117022455D03*
X156788823Y-116834445D03*
X156134258Y-116308281D03*
X158255617Y-116945501D03*
X157265015Y-116147324D03*
D30*
X141064301Y-122346880D03*
X141010000Y-125687553D03*
X114234675Y-104336746D03*
X112880000Y-103720000D03*
X163515257Y-133651140D03*
X153867723Y-123809531D03*
X153680000Y-125257363D03*
X168075341Y-130684659D03*
X170210000Y-129100000D03*
X171410000Y-130050000D03*
X157810000Y-124500000D03*
X157750000Y-122930000D03*
X127040000Y-135460000D03*
X128030000Y-136260000D03*
X168405341Y-125996331D03*
X147625213Y-123709531D03*
X147381520Y-125998669D03*
X165714987Y-133226331D03*
X169106848Y-133513128D03*
X171210920Y-133484836D03*
X169758234Y-132887976D03*
X166894105Y-132921520D03*
D31*
X162035617Y-116147324D03*
X161045015Y-116945501D03*
X163166374Y-116308281D03*
X162511810Y-116834445D03*
D30*
X164428518Y-117619200D03*
D31*
X163737894Y-116995401D03*
D30*
X151310878Y-129253252D03*
X151466741Y-122108480D03*
X178767271Y-125417449D03*
D31*
X164285373Y-114959245D03*
D30*
X150169126Y-128940874D03*
X149830000Y-122340000D03*
X179365392Y-126004688D03*
D31*
X165240000Y-116660000D03*
X163944142Y-113869254D03*
X164700097Y-114231642D03*
X163731203Y-112148805D03*
X164470000Y-112570000D03*
X163170000Y-111070000D03*
X164043185Y-111370817D03*
D30*
X145686065Y-121885342D03*
X145505097Y-125885590D03*
X180850000Y-122710000D03*
X163087993Y-109842007D03*
X164170000Y-106770000D03*
X131810000Y-105440000D03*
X133210000Y-106960000D03*
X156800000Y-108420000D03*
X159366880Y-97670000D03*
X157350000Y-93860000D03*
X158717515Y-98299076D03*
X156630000Y-94580000D03*
X160650000Y-93420000D03*
X158840000Y-94450000D03*
X160748480Y-91410000D03*
X158699032Y-93520968D03*
X158986880Y-95700000D03*
X160500000Y-94680000D03*
X158872737Y-96808042D03*
X160590000Y-96270000D03*
X181970000Y-112540000D03*
X155900000Y-109110000D03*
X159640000Y-109410000D03*
D31*
X155280000Y-106840000D03*
D30*
X115400000Y-135850000D03*
D31*
X156330088Y-110091581D03*
D30*
X118740000Y-135600000D03*
D32*
X152790000Y-126710000D02*
X158850000Y-126710000D01*
X158850000Y-126710000D02*
X159330000Y-127190000D01*
X152000000Y-127500000D02*
X152790000Y-126710000D01*
X113500000Y-111900000D02*
X113500000Y-112860000D01*
X116940000Y-107310000D02*
X116860000Y-107310000D01*
X116860000Y-107310000D02*
X115850000Y-106300000D01*
X112600000Y-106330000D02*
X111520000Y-106330000D01*
X111520000Y-106330000D02*
X111490000Y-106300000D01*
X110560000Y-107310000D02*
X110560000Y-107230000D01*
X110560000Y-107230000D02*
X111490000Y-106300000D01*
X114850000Y-101750000D02*
X116010000Y-101750000D01*
X116010000Y-101750000D02*
X116020000Y-101740000D01*
X182500000Y-127500000D02*
X182500000Y-125860000D01*
X182500000Y-125860000D02*
X183380000Y-124980000D01*
X116250000Y-126275000D02*
X116250000Y-123450000D01*
X116250000Y-123450000D02*
X116500000Y-123200000D01*
X116220000Y-138550000D02*
X116220000Y-134255000D01*
D33*
X116220000Y-134255000D02*
X116250000Y-134225000D01*
D32*
X116250000Y-126275000D02*
X116250000Y-134225000D01*
X119225307Y-134287969D02*
X116312969Y-134287969D01*
D33*
X116312969Y-134287969D02*
X116250000Y-134225000D01*
D32*
X119225307Y-134287969D02*
X119225307Y-130787969D01*
X119225307Y-127287969D02*
X119225307Y-130787969D01*
X119225307Y-127287969D02*
X117137969Y-127287969D01*
X117137969Y-127287969D02*
X116250000Y-126400000D01*
D33*
X116250000Y-126400000D02*
X116250000Y-126275000D01*
D32*
X150701660Y-123626411D02*
X152268340Y-123626411D01*
X147088032Y-123036411D02*
X150111660Y-123036411D01*
X152268340Y-123626411D02*
X152758340Y-123136411D01*
X146821342Y-123303101D02*
X147088032Y-123036411D01*
X150111660Y-123036411D02*
X150701660Y-123626411D01*
X158044750Y-121030000D02*
X159065067Y-121030000D01*
X139942899Y-123303101D02*
X146821342Y-123303101D01*
X137000000Y-127500000D02*
X137000000Y-126246000D01*
X159065067Y-121030000D02*
X159550000Y-121030000D01*
X152758340Y-123136411D02*
X155938340Y-123136411D01*
X137000000Y-126246000D02*
X139942899Y-123303101D01*
X155938340Y-123136411D02*
X158044750Y-121030000D01*
X160660000Y-126740000D02*
X166740000Y-126740000D01*
X166740000Y-126740000D02*
X167500000Y-127500000D01*
X109980000Y-103150000D02*
X110430000Y-102700000D01*
X110430000Y-102700000D02*
X112650000Y-102700000D01*
X119500000Y-118500000D02*
X116330000Y-118500000D01*
X116330000Y-118500000D02*
X109830000Y-112000000D01*
X135730000Y-125530000D02*
X126530000Y-125530000D01*
X126530000Y-125530000D02*
X119500000Y-118500000D01*
D33*
X137000000Y-127500000D02*
X137000000Y-126800000D01*
D32*
X137000000Y-126800000D02*
X135730000Y-125530000D01*
D33*
X122180000Y-133510000D02*
X121720000Y-133050000D01*
X150275067Y-133510000D02*
X122180000Y-133510000D01*
X151398347Y-131184773D02*
X151398347Y-131669706D01*
X151390000Y-134140000D02*
X150905067Y-134140000D01*
X151310000Y-130962400D02*
X151398347Y-131050747D01*
X151398347Y-131050747D02*
X151398347Y-131184773D01*
X150905067Y-134140000D02*
X150275067Y-133510000D01*
X151310000Y-130962400D02*
X152357600Y-132010000D01*
X149000000Y-128652400D02*
X151310000Y-130962400D01*
X157533743Y-131505191D02*
X157786257Y-131505191D01*
X165550918Y-131512400D02*
X165967119Y-131928601D01*
X157793466Y-131512400D02*
X165550918Y-131512400D01*
X167331399Y-131928601D02*
X167530000Y-131730000D01*
X149000000Y-127500000D02*
X149000000Y-128652400D01*
X152357600Y-132010000D02*
X157028934Y-132010000D01*
X157028934Y-132010000D02*
X157533743Y-131505191D01*
X157786257Y-131505191D02*
X157793466Y-131512400D01*
X165967119Y-131928601D02*
X167331399Y-131928601D01*
X171908448Y-132274557D02*
X171984516Y-132350625D01*
X170336059Y-132274557D02*
X171908448Y-132274557D01*
X175010000Y-132200000D02*
X175500000Y-132200000D01*
X175500000Y-132200000D02*
X179500000Y-128200000D01*
X179500000Y-128200000D02*
X179500000Y-127500000D01*
X122417126Y-132938480D02*
X122033837Y-132555191D01*
X122033837Y-132555191D02*
X121690938Y-132212292D01*
X148666358Y-132938480D02*
X122417126Y-132938480D01*
X148840000Y-129040000D02*
X148680000Y-129200000D01*
X167789244Y-132340756D02*
X168307101Y-131822899D01*
X148680000Y-130396093D02*
X148680000Y-130881026D01*
X168307101Y-131822899D02*
X168650000Y-131480000D01*
X161581482Y-132310756D02*
X161611482Y-132340756D01*
X157159245Y-132310756D02*
X161581482Y-132310756D01*
X148840000Y-129040000D02*
X148840000Y-129919598D01*
X151235213Y-132314811D02*
X157155190Y-132314811D01*
X148680000Y-129200000D02*
X148680000Y-130396093D01*
X148840000Y-129919598D02*
X151235213Y-132314811D01*
X161611482Y-132340756D02*
X167789244Y-132340756D01*
X157155190Y-132314811D02*
X157159245Y-132310756D01*
X148000000Y-128200000D02*
X148840000Y-129040000D01*
X148000000Y-127500000D02*
X148000000Y-128200000D01*
X175250000Y-131230000D02*
X175734933Y-131230000D01*
X175734933Y-131230000D02*
X178500000Y-128464933D01*
X178500000Y-128464933D02*
X178500000Y-127500000D01*
X170750000Y-131500000D02*
X172110000Y-131500000D01*
X172110000Y-131500000D02*
X172210000Y-131400000D01*
X189930000Y-131085067D02*
X189930000Y-131570000D01*
X189930000Y-130310000D02*
X189930000Y-131085067D01*
X183680000Y-124060000D02*
X189930000Y-130310000D01*
X178650000Y-124060000D02*
X183680000Y-124060000D01*
X177500000Y-125210000D02*
X178650000Y-124060000D01*
X177500000Y-127500000D02*
X177500000Y-125210000D01*
X145242404Y-134282285D02*
X145727337Y-134282285D01*
X129127715Y-134282285D02*
X145242404Y-134282285D01*
X121300000Y-138550000D02*
X121300000Y-138397600D01*
X126540000Y-136870000D02*
X129127715Y-134282285D01*
X121300000Y-138397600D02*
X122827600Y-136870000D01*
X122827600Y-136870000D02*
X126540000Y-136870000D01*
X159720000Y-113067866D02*
X159720000Y-111208518D01*
X155200889Y-121536979D02*
X159490378Y-117247490D01*
X159490378Y-117247490D02*
X159490378Y-113297488D01*
X151192420Y-121536979D02*
X155200889Y-121536979D01*
X160728518Y-110200000D02*
X161190000Y-110200000D01*
X146290000Y-122630000D02*
X147154809Y-121765191D01*
X159490378Y-113297488D02*
X159720000Y-113067866D01*
X159720000Y-111208518D02*
X160728518Y-110200000D01*
X147154809Y-121765191D02*
X150964208Y-121765191D01*
X150964208Y-121765191D02*
X151192420Y-121536979D01*
X147000000Y-127500000D02*
X147000000Y-126800000D01*
X147000000Y-126800000D02*
X146339631Y-126139631D01*
X146339631Y-126139631D02*
X146339631Y-125625956D01*
X146339631Y-125625956D02*
X146682530Y-125283057D01*
X147000000Y-127500000D02*
X147000000Y-129410000D01*
X147000000Y-129410000D02*
X146950000Y-129460000D01*
X162573581Y-110176401D02*
X162838688Y-110441508D01*
X162838688Y-110441508D02*
X163618435Y-110441508D01*
X163618435Y-110441508D02*
X163832147Y-110227796D01*
X161190316Y-110176401D02*
X162573581Y-110176401D01*
D32*
X154610000Y-105860000D02*
X155750000Y-105860000D01*
X155750000Y-105860000D02*
X156114000Y-106224000D01*
X154220000Y-106250000D02*
X154610000Y-105860000D01*
X153110000Y-106250000D02*
X154220000Y-106250000D01*
X133050000Y-105460000D02*
X150900000Y-105460000D01*
X150900000Y-105460000D02*
X152610000Y-107170000D01*
X130760000Y-107750000D02*
X133050000Y-105460000D01*
X120918534Y-107750000D02*
X130760000Y-107750000D01*
X120570000Y-106340000D02*
X120570000Y-107401466D01*
X120570000Y-107401466D02*
X120918534Y-107750000D01*
X116940000Y-105410000D02*
X119640000Y-105410000D01*
X119640000Y-105410000D02*
X120570000Y-106340000D01*
X114800000Y-105380000D02*
X116910000Y-105380000D01*
X116910000Y-105380000D02*
X116940000Y-105410000D01*
X158700000Y-92570000D02*
X158700000Y-91400000D01*
D33*
X158612400Y-106200000D02*
X159160000Y-106200000D01*
D32*
X160040000Y-97194176D02*
X159660000Y-96814176D01*
X158700000Y-91400000D02*
X158550000Y-91250000D01*
X159660000Y-93530000D02*
X158700000Y-92570000D01*
X159660000Y-96814176D02*
X159660000Y-93530000D01*
X159160000Y-106200000D02*
X160040000Y-105320000D01*
X160040000Y-105320000D02*
X160040000Y-97194176D01*
D33*
X158110316Y-106224000D02*
X156114000Y-106224000D01*
D32*
X153110000Y-106250000D02*
X153110000Y-106670000D01*
X153110000Y-106670000D02*
X152610000Y-107170000D01*
D33*
X158612400Y-106200000D02*
X158110000Y-106200000D01*
X163562899Y-106374781D02*
X163220000Y-106717680D01*
X163789982Y-106147698D02*
X163562899Y-106374781D01*
X164498706Y-106147698D02*
X163789982Y-106147698D01*
X188260000Y-106200000D02*
X164551008Y-106200000D01*
X164551008Y-106200000D02*
X164498706Y-106147698D01*
X156900933Y-107024000D02*
X156724933Y-107200000D01*
X156724933Y-107200000D02*
X156240000Y-107200000D01*
X158110316Y-107024000D02*
X156900933Y-107024000D01*
X156853578Y-111234603D02*
X156627787Y-111234603D01*
X158110316Y-110576401D02*
X157511780Y-110576401D01*
X156627787Y-111234603D02*
X156142854Y-111234603D01*
X157511780Y-110576401D02*
X156853578Y-111234603D01*
X155900882Y-110663083D02*
X155415949Y-110663083D01*
X156994031Y-110663083D02*
X155900882Y-110663083D01*
X157480713Y-110176401D02*
X156994031Y-110663083D01*
X158110316Y-110176401D02*
X157480713Y-110176401D01*
X155517156Y-111936370D02*
X155032223Y-111936370D01*
X156494679Y-111936370D02*
X155517156Y-111936370D01*
X156781526Y-111737722D02*
X156693327Y-111737722D01*
X158110316Y-110976401D02*
X157542847Y-110976401D01*
X157542847Y-110976401D02*
X156781526Y-111737722D01*
X156693327Y-111737722D02*
X156494679Y-111936370D01*
X156139114Y-113154070D02*
X154800726Y-113154070D01*
X156945839Y-112347344D02*
X156139114Y-113154070D01*
X157034038Y-112347344D02*
X156945839Y-112347344D01*
X154726419Y-113079763D02*
X154383520Y-112736864D01*
X157604981Y-111776401D02*
X157034038Y-112347344D01*
X158110316Y-111776401D02*
X157604981Y-111776401D01*
X154800726Y-113154070D02*
X154726419Y-113079763D01*
X156819583Y-112042533D02*
X156327621Y-112534495D01*
X156907782Y-112042533D02*
X156819583Y-112042533D01*
X157573914Y-111376401D02*
X156907782Y-112042533D01*
X156327621Y-112534495D02*
X155910590Y-112534495D01*
X158110316Y-111376401D02*
X157573914Y-111376401D01*
X155884558Y-113770411D02*
X155857317Y-113770411D01*
X157412615Y-112461968D02*
X157381548Y-112461968D01*
X155857317Y-113770411D02*
X155372384Y-113770411D01*
X157634060Y-112271590D02*
X157553516Y-112352134D01*
X157760316Y-112176401D02*
X157665127Y-112271590D01*
X157160294Y-112652155D02*
X157072095Y-112652155D01*
X157536283Y-112366779D02*
X157507804Y-112366779D01*
X157255292Y-112557157D02*
X157160294Y-112652155D01*
X157381548Y-112461968D02*
X157286359Y-112557157D01*
X157507804Y-112366779D02*
X157412615Y-112461968D01*
X157553516Y-112352134D02*
X157536283Y-112366779D01*
X157072095Y-112652155D02*
X156345909Y-113378341D01*
X158110316Y-112176401D02*
X157760316Y-112176401D01*
X156345909Y-113378341D02*
X155884558Y-113770411D01*
X157286359Y-112557157D02*
X157255292Y-112557157D01*
X157665127Y-112271590D02*
X157634060Y-112271590D01*
X155460914Y-114513792D02*
X155281835Y-114334713D01*
X157208000Y-112956966D02*
X156616966Y-113548000D01*
X157381548Y-112861968D02*
X157286550Y-112956966D01*
X157412615Y-112861968D02*
X157381548Y-112861968D01*
X155471256Y-114517536D02*
X155460914Y-114513792D01*
X154723292Y-114334713D02*
X154573948Y-114185369D01*
X157634060Y-112671590D02*
X157553647Y-112752003D01*
X157648307Y-112671590D02*
X157634060Y-112671590D01*
X157286550Y-112956966D02*
X157208000Y-112956966D01*
X155281835Y-114334713D02*
X154723292Y-114334713D01*
X156616966Y-113548000D02*
X155476109Y-114517536D01*
X157553647Y-112752003D02*
X157536261Y-112766779D01*
X158110316Y-112576401D02*
X157760316Y-112576401D01*
X157760316Y-112576401D02*
X157648307Y-112671590D01*
X155476109Y-114517536D02*
X155471256Y-114517536D01*
X157536261Y-112766779D02*
X157507804Y-112766779D01*
X157507804Y-112766779D02*
X157412615Y-112861968D01*
X157536282Y-113166779D02*
X157507804Y-113166779D01*
X157553518Y-113152132D02*
X157536282Y-113166779D01*
X156921777Y-113688973D02*
X155588132Y-114822347D01*
X157348973Y-113261777D02*
X156921777Y-113688973D01*
X155091380Y-114822347D02*
X155007512Y-114906215D01*
X157412806Y-113261777D02*
X157348973Y-113261777D01*
X157634060Y-113071590D02*
X157553518Y-113152132D01*
X157760316Y-112976401D02*
X157665127Y-113071590D01*
X158110316Y-112976401D02*
X157760316Y-112976401D01*
X157665127Y-113071590D02*
X157634060Y-113071590D01*
X155588132Y-114822347D02*
X155091380Y-114822347D01*
X157507804Y-113166779D02*
X157412806Y-113261777D01*
X155607425Y-115127158D02*
X155256848Y-115477735D01*
X157648307Y-113471590D02*
X157553309Y-113566588D01*
X154824250Y-115598934D02*
X154339317Y-115598934D01*
X155700156Y-115127158D02*
X155607425Y-115127158D01*
X154945449Y-115477735D02*
X154824250Y-115598934D01*
X155256848Y-115477735D02*
X154945449Y-115477735D01*
X157226588Y-113829946D02*
X155700156Y-115127158D01*
X157489946Y-113566588D02*
X157226588Y-113829946D01*
X157553309Y-113566588D02*
X157489946Y-113566588D01*
X157760316Y-113376401D02*
X157648307Y-113471590D01*
X158110316Y-113376401D02*
X157760316Y-113376401D01*
X155342941Y-115822709D02*
X155299856Y-115822709D01*
X157526728Y-113974889D02*
X155812180Y-115431969D01*
X155299856Y-115822709D02*
X154956957Y-116165608D01*
X157630218Y-113871399D02*
X157526728Y-113974889D01*
X158015318Y-113871399D02*
X157630218Y-113871399D01*
X158110316Y-113776401D02*
X158015318Y-113871399D01*
X155733681Y-115431969D02*
X155342941Y-115822709D01*
X155812180Y-115431969D02*
X155733681Y-115431969D01*
X157659136Y-114262376D02*
X155924204Y-115736780D01*
X158024341Y-114262376D02*
X157659136Y-114262376D01*
X155562757Y-116033960D02*
X155562757Y-116943692D01*
X155859937Y-115736780D02*
X155562757Y-116033960D01*
X158110316Y-114176401D02*
X158024341Y-114262376D01*
X155924204Y-115736780D02*
X155859937Y-115736780D01*
X155562757Y-116943692D02*
X155641520Y-117022455D01*
X158110316Y-114976401D02*
X157760316Y-114976401D01*
X157760316Y-114976401D02*
X156643057Y-115925886D01*
X156643057Y-115925886D02*
X156699637Y-116227803D01*
X156699637Y-116227803D02*
X156788823Y-116834445D01*
X158110316Y-114576401D02*
X157760316Y-114576401D01*
X157760316Y-114576401D02*
X155961549Y-116105055D01*
X155961549Y-116105055D02*
X156134258Y-116308281D01*
X158255617Y-115800200D02*
X158255617Y-116945501D01*
X158110316Y-115376401D02*
X157760316Y-115376401D01*
X157760316Y-115376401D02*
X157092307Y-115944098D01*
X157092307Y-115944098D02*
X157265015Y-116147324D01*
X113500000Y-110000000D02*
X114000380Y-110000000D01*
X114000380Y-110000000D02*
X114552830Y-110552450D01*
X124328878Y-120580000D02*
X138812488Y-120580000D01*
X114552830Y-110552450D02*
X114552830Y-110803952D01*
X138812488Y-120580000D02*
X140579368Y-122346880D01*
X114552830Y-110803952D02*
X124328878Y-120580000D01*
X140579368Y-122346880D02*
X141064301Y-122346880D01*
X161076458Y-133530000D02*
X157664269Y-133530000D01*
X149563113Y-132366979D02*
X145166979Y-132366979D01*
X145166979Y-132366979D02*
X141000000Y-128200000D01*
X150730189Y-133534055D02*
X149563113Y-132366979D01*
X141000000Y-128200000D02*
X141000000Y-127500000D01*
X157664269Y-133530000D02*
X157660214Y-133534055D01*
X162926458Y-135380000D02*
X161076458Y-133530000D01*
X157660214Y-133534055D02*
X150730189Y-133534055D01*
X168924322Y-132051502D02*
X168609947Y-132051502D01*
X164136458Y-134170000D02*
X162926458Y-135380000D01*
X166491449Y-134170000D02*
X164136458Y-134170000D01*
X168609947Y-132051502D02*
X166491449Y-134170000D01*
X169221502Y-131754322D02*
X168924322Y-132051502D01*
X169221502Y-130930898D02*
X169221502Y-131754322D01*
X171500000Y-127500000D02*
X171500000Y-128652400D01*
X171500000Y-128652400D02*
X169221502Y-130930898D01*
X141000000Y-125697553D02*
X141010000Y-125687553D01*
X141000000Y-127500000D02*
X141000000Y-125697553D01*
X113222899Y-103377101D02*
X113682899Y-103377101D01*
X113500000Y-107975000D02*
X113500000Y-105071421D01*
X113891776Y-104679645D02*
X114234675Y-104336746D01*
X113682899Y-103377101D02*
X113790000Y-103270000D01*
X113500000Y-105071421D02*
X113891776Y-104679645D01*
X112880000Y-103720000D02*
X113222899Y-103377101D01*
X113790000Y-103270000D02*
X113790000Y-102090000D01*
X113790000Y-102090000D02*
X112650000Y-100950000D01*
X112650000Y-100950000D02*
X112650000Y-100800000D01*
X113500000Y-110000000D02*
X113500000Y-107975000D01*
X113500000Y-107975000D02*
X112805000Y-107280000D01*
X112805000Y-107280000D02*
X112600000Y-107280000D01*
X163200000Y-135653542D02*
X162926458Y-135380000D01*
X163200000Y-137270000D02*
X163200000Y-135653542D01*
X164480000Y-138550000D02*
X163200000Y-137270000D01*
X161202714Y-133225189D02*
X161628665Y-133651140D01*
X142000000Y-127500000D02*
X142000000Y-128200000D01*
X145862168Y-132062168D02*
X149689369Y-132062168D01*
X163030324Y-133651140D02*
X163515257Y-133651140D01*
X161628665Y-133651140D02*
X163030324Y-133651140D01*
X157538013Y-133225189D02*
X161202714Y-133225189D01*
X149689369Y-132062168D02*
X150856445Y-133229244D01*
X142000000Y-128200000D02*
X145862168Y-132062168D01*
X157533958Y-133229244D02*
X157538013Y-133225189D01*
X150856445Y-133229244D02*
X157533958Y-133229244D01*
X172047600Y-128652400D02*
X171994489Y-128652400D01*
X168736203Y-132356313D02*
X165946115Y-135146401D01*
X169050578Y-132356313D02*
X168736203Y-132356313D01*
X165946115Y-135146401D02*
X165343599Y-135146401D01*
X169526313Y-131880578D02*
X169050578Y-132356313D01*
X172500000Y-127500000D02*
X172500000Y-128200000D01*
X171994489Y-128652400D02*
X169526313Y-131120576D01*
X169526313Y-131120576D02*
X169526313Y-131880578D01*
X172500000Y-128200000D02*
X172047600Y-128652400D01*
X165343599Y-135146401D02*
X164480000Y-136010000D01*
X158136296Y-125257363D02*
X154164933Y-125257363D01*
X169143745Y-125424811D02*
X158303744Y-125424811D01*
X169500000Y-125781066D02*
X169143745Y-125424811D01*
X169500000Y-127500000D02*
X169500000Y-125781066D01*
X154164933Y-125257363D02*
X153680000Y-125257363D01*
X158303744Y-125424811D02*
X158136296Y-125257363D01*
X153382790Y-123809531D02*
X153867723Y-123809531D01*
X153119499Y-124072822D02*
X153382790Y-123809531D01*
X147350891Y-124281033D02*
X152068469Y-124281033D01*
X139000000Y-126347600D02*
X141333277Y-124014323D01*
X152276680Y-124072822D02*
X153119499Y-124072822D01*
X147084181Y-124014323D02*
X147350891Y-124281033D01*
X141333277Y-124014323D02*
X147084181Y-124014323D01*
X139000000Y-127500000D02*
X139000000Y-126347600D01*
X152068469Y-124281033D02*
X152276680Y-124072822D01*
X136750000Y-132140000D02*
X131328518Y-132140000D01*
X131328518Y-132140000D02*
X126476487Y-127287969D01*
X126476487Y-127287969D02*
X125925307Y-127287969D01*
X139000000Y-129890000D02*
X136750000Y-132140000D01*
X139000000Y-127500000D02*
X139000000Y-129890000D01*
X168418240Y-130341760D02*
X168075341Y-130684659D01*
X169500000Y-129260000D02*
X168418240Y-130341760D01*
X169500000Y-127500000D02*
X169500000Y-129260000D01*
X170500000Y-126350000D02*
X170500000Y-127500000D01*
X157810000Y-124500000D02*
X158430000Y-125120000D01*
X158430000Y-125120000D02*
X169270000Y-125120000D01*
X169270000Y-125120000D02*
X170500000Y-126350000D01*
X169176834Y-132661124D02*
X169831124Y-132006834D01*
X169831124Y-131553054D02*
X170991279Y-130392899D01*
X167020000Y-136010000D02*
X167020000Y-134788686D01*
X167020000Y-134788686D02*
X169147562Y-132661124D01*
X171067101Y-130392899D02*
X171410000Y-130050000D01*
X169147562Y-132661124D02*
X169176834Y-132661124D01*
X169831124Y-132006834D02*
X169831124Y-131553054D01*
X170991279Y-130392899D02*
X171067101Y-130392899D01*
X141505042Y-124319134D02*
X146957925Y-124319134D01*
X140000000Y-127500000D02*
X140000000Y-125824176D01*
X157407101Y-123272899D02*
X157750000Y-122930000D01*
X156298968Y-124381032D02*
X157407101Y-123272899D01*
X147224635Y-124585844D02*
X152194725Y-124585844D01*
X152194725Y-124585844D02*
X152399537Y-124381032D01*
X152399537Y-124381032D02*
X156298968Y-124381032D01*
X146957925Y-124319134D02*
X147224635Y-124585844D01*
X140000000Y-125824176D02*
X141505042Y-124319134D01*
X170360000Y-129100000D02*
X170500000Y-128960000D01*
X170500000Y-128960000D02*
X170500000Y-127500000D01*
X170210000Y-129100000D02*
X170360000Y-129100000D01*
X136920000Y-132560000D02*
X128248518Y-132560000D01*
X128248518Y-132560000D02*
X126476487Y-130787969D01*
X126476487Y-130787969D02*
X125925307Y-130787969D01*
X140000000Y-129480000D02*
X136920000Y-132560000D01*
X140000000Y-127500000D02*
X140000000Y-129480000D01*
X127040000Y-135460000D02*
X125923907Y-134343907D01*
X125923907Y-134343907D02*
X125923907Y-134287969D01*
X168270000Y-139840000D02*
X131610000Y-139840000D01*
X131610000Y-139840000D02*
X128030000Y-136260000D01*
X169560000Y-138550000D02*
X168270000Y-139840000D01*
X168403003Y-125998669D02*
X168405341Y-125996331D01*
X147381520Y-125998669D02*
X168403003Y-125998669D01*
X168500000Y-126090990D02*
X168405341Y-125996331D01*
X168500000Y-127500000D02*
X168500000Y-126090990D01*
X147140280Y-123709531D02*
X147625213Y-123709531D01*
X138000000Y-127500000D02*
X138000000Y-126800000D01*
X141090488Y-123709512D02*
X147140261Y-123709512D01*
X147140261Y-123709512D02*
X147140280Y-123709531D01*
X138000000Y-126800000D02*
X141090488Y-123709512D01*
X165014214Y-133010491D02*
X165230054Y-133226331D01*
X161328970Y-132920378D02*
X161419083Y-133010491D01*
X165230054Y-133226331D02*
X165714987Y-133226331D01*
X143000000Y-128200000D02*
X146557357Y-131757357D01*
X143000000Y-127500000D02*
X143000000Y-128200000D01*
X157411757Y-132920378D02*
X161328970Y-132920378D01*
X149815625Y-131757357D02*
X150982701Y-132924433D01*
X157407702Y-132924433D02*
X157411757Y-132920378D01*
X146557357Y-131757357D02*
X149815625Y-131757357D01*
X161419083Y-133010491D02*
X165014214Y-133010491D01*
X150982701Y-132924433D02*
X157407702Y-132924433D01*
X173500000Y-132062201D02*
X170652201Y-134910000D01*
X173500000Y-127500000D02*
X173500000Y-132062201D01*
X169449747Y-133856027D02*
X169106848Y-133513128D01*
X170503720Y-134910000D02*
X169449747Y-133856027D01*
X170652201Y-134910000D02*
X170503720Y-134910000D01*
X170652201Y-134910000D02*
X170652201Y-137102201D01*
X171236401Y-137686401D02*
X172100000Y-138550000D01*
X170652201Y-137102201D02*
X171236401Y-137686401D01*
X166409172Y-132921520D02*
X166894105Y-132921520D01*
X166142463Y-132654811D02*
X166409172Y-132921520D01*
X161494470Y-132654811D02*
X166142463Y-132654811D01*
X161455226Y-132615567D02*
X161494470Y-132654811D01*
X144000000Y-127500000D02*
X144000000Y-128200000D01*
X144000000Y-128200000D02*
X147252546Y-131452546D01*
X149941881Y-131452546D02*
X151108957Y-132619622D01*
X157281446Y-132619622D02*
X157285501Y-132615567D01*
X151108957Y-132619622D02*
X157281446Y-132619622D01*
X147252546Y-131452546D02*
X149941881Y-131452546D01*
X157285501Y-132615567D02*
X161455226Y-132615567D01*
X170868021Y-133141937D02*
X171210920Y-133484836D01*
X170614060Y-132887976D02*
X170868021Y-133141937D01*
X169758234Y-132887976D02*
X170614060Y-132887976D01*
X174500000Y-127500000D02*
X174500000Y-131804178D01*
X174500000Y-131804178D02*
X172100000Y-134204178D01*
X172100000Y-134788686D02*
X172100000Y-136010000D01*
X172100000Y-134204178D02*
X172100000Y-134788686D01*
X161190316Y-115376401D02*
X161540316Y-115376401D01*
X161540316Y-115376401D02*
X162208326Y-115944098D01*
X162208326Y-115944098D02*
X162035617Y-116147324D01*
X161045015Y-115800200D02*
X161045015Y-116945501D01*
X161190316Y-114576401D02*
X161540316Y-114576401D01*
X161540316Y-114576401D02*
X163339083Y-116105055D01*
X163339083Y-116105055D02*
X163166374Y-116308281D01*
X161190316Y-114976401D02*
X161540316Y-114976401D01*
X161540316Y-114976401D02*
X162657575Y-115925886D01*
X162657575Y-115925886D02*
X162600996Y-116227803D01*
X162600996Y-116227803D02*
X162511810Y-116834445D01*
X164428518Y-116238406D02*
X164428518Y-117134267D01*
X161540316Y-113776401D02*
X164378499Y-116188387D01*
X161190316Y-113776401D02*
X161540316Y-113776401D01*
X164378499Y-116188387D02*
X164428518Y-116238406D01*
X164428518Y-117134267D02*
X164428518Y-117619200D01*
X163788332Y-116086842D02*
X164080793Y-116379303D01*
X161190316Y-114176401D02*
X161540316Y-114176401D01*
X164080793Y-116652502D02*
X163737894Y-116995401D01*
X164080793Y-116379303D02*
X164080793Y-116652502D01*
X161540316Y-114176401D02*
X163788332Y-116086842D01*
X151000000Y-127500000D02*
X151000000Y-128942374D01*
X151000000Y-128942374D02*
X151310878Y-129253252D01*
X159795189Y-113423744D02*
X159795189Y-117373745D01*
X155060454Y-122108480D02*
X151951674Y-122108480D01*
X161190000Y-113000000D02*
X160218933Y-113000000D01*
X151951674Y-122108480D02*
X151466741Y-122108480D01*
X159795189Y-117373745D02*
X155060454Y-122108480D01*
X160218933Y-113000000D02*
X159795189Y-113423744D01*
X180117449Y-125417449D02*
X179252204Y-125417449D01*
X181500000Y-126800000D02*
X180117449Y-125417449D01*
X181500000Y-127500000D02*
X181500000Y-126800000D01*
X179252204Y-125417449D02*
X178767271Y-125417449D01*
X182260000Y-138550000D02*
X183550000Y-137260000D01*
X183550000Y-134310000D02*
X181500000Y-132260000D01*
X183550000Y-137260000D02*
X183550000Y-134310000D01*
X181500000Y-132260000D02*
X181500000Y-127500000D01*
X161190316Y-112976401D02*
X161540316Y-112976401D01*
X161540316Y-112976401D02*
X164112665Y-115162471D01*
X164112665Y-115162471D02*
X164285373Y-114959245D01*
X150000000Y-127500000D02*
X150000000Y-128771748D01*
X150000000Y-128771748D02*
X150169126Y-128940874D01*
X149830000Y-122340000D02*
X150314933Y-122340000D01*
X160100000Y-113987600D02*
X160687600Y-113400000D01*
X150314933Y-122340000D02*
X150654933Y-122680000D01*
X150654933Y-122680000D02*
X154920000Y-122680000D01*
X154920000Y-122680000D02*
X160100000Y-117500000D01*
X160100000Y-117500000D02*
X160100000Y-113987600D01*
X160687600Y-113400000D02*
X161190000Y-113400000D01*
X180500000Y-126800000D02*
X179704688Y-126004688D01*
X180500000Y-127500000D02*
X180500000Y-126800000D01*
X179704688Y-126004688D02*
X179365392Y-126004688D01*
X164673709Y-115608776D02*
X165240000Y-116175067D01*
X164167151Y-115608776D02*
X164673709Y-115608776D01*
X161190316Y-113376401D02*
X161540316Y-113376401D01*
X165240000Y-116175067D02*
X165240000Y-116660000D01*
X161540316Y-113376401D02*
X164167151Y-115608776D01*
X182260000Y-136010000D02*
X182260000Y-134788686D01*
X182260000Y-134788686D02*
X180500000Y-133028686D01*
X180500000Y-133028686D02*
X180500000Y-128652400D01*
X180500000Y-128652400D02*
X180500000Y-127500000D01*
X161190316Y-112176401D02*
X161540316Y-112176401D01*
X161540316Y-112176401D02*
X163771433Y-114072481D01*
X163771433Y-114072481D02*
X163944142Y-113869254D01*
X161190316Y-112576401D02*
X161540316Y-112576401D01*
X161540316Y-112576401D02*
X163825920Y-114518785D01*
X163825920Y-114518785D02*
X164114757Y-114414250D01*
X164114757Y-114414250D02*
X164700097Y-114231642D01*
X163062521Y-112670000D02*
X163210008Y-112670000D01*
X161742676Y-111548350D02*
X163062521Y-112670000D01*
X161190316Y-111376401D02*
X161570727Y-111376401D01*
X161570727Y-111376401D02*
X161742676Y-111548350D01*
X163388304Y-112491704D02*
X163731203Y-112148805D01*
X163210008Y-112670000D02*
X163388304Y-112491704D01*
X163484697Y-113428791D02*
X163569460Y-113398114D01*
X161641496Y-111862376D02*
X163484697Y-113428791D01*
X161276291Y-111862376D02*
X161641496Y-111862376D01*
X164054675Y-112912899D02*
X164127101Y-112912899D01*
X161190316Y-111776401D02*
X161276291Y-111862376D01*
X163569460Y-113398114D02*
X164054675Y-112912899D01*
X164127101Y-112912899D02*
X164470000Y-112570000D01*
X162685067Y-111070000D02*
X163170000Y-111070000D01*
X162221218Y-111070000D02*
X162685067Y-111070000D01*
X161727619Y-110576401D02*
X162221218Y-111070000D01*
X161190316Y-110576401D02*
X161727619Y-110576401D01*
X161190316Y-110976401D02*
X161601794Y-110976401D01*
X161601794Y-110976401D02*
X161949473Y-111324080D01*
X161949473Y-111324080D02*
X162998500Y-112215579D01*
X162998500Y-112215579D02*
X163164149Y-112049931D01*
X163164149Y-112049931D02*
X163164149Y-111899308D01*
X163692640Y-111370817D02*
X164043185Y-111370817D01*
X163164149Y-111899308D02*
X163692640Y-111370817D01*
X146028964Y-121542443D02*
X145686065Y-121885342D01*
X146111027Y-121460380D02*
X146028964Y-121542443D01*
X150837953Y-121460380D02*
X146111027Y-121460380D01*
X151066164Y-121232168D02*
X150837953Y-121460380D01*
X159185567Y-113171232D02*
X159185567Y-117022301D01*
X159210000Y-113146799D02*
X159185567Y-113171232D01*
X159210000Y-111277600D02*
X159210000Y-113146799D01*
X160687600Y-109800000D02*
X159210000Y-111277600D01*
X154975700Y-121232168D02*
X151066164Y-121232168D01*
X161190000Y-109800000D02*
X160687600Y-109800000D01*
X159185567Y-117022301D02*
X154975700Y-121232168D01*
X146000000Y-127500000D02*
X146000000Y-126800000D01*
X145505097Y-126305097D02*
X145505097Y-125885590D01*
X146000000Y-126800000D02*
X145505097Y-126305097D01*
X178450000Y-123260000D02*
X176500000Y-125210000D01*
X176500000Y-125210000D02*
X176500000Y-127500000D01*
X180300000Y-123260000D02*
X178450000Y-123260000D01*
X180850000Y-122710000D02*
X180300000Y-123260000D01*
X161692400Y-109800000D02*
X161734407Y-109842007D01*
X161190000Y-109800000D02*
X161692400Y-109800000D01*
X161734407Y-109842007D02*
X162603060Y-109842007D01*
X162603060Y-109842007D02*
X163087993Y-109842007D01*
X113440000Y-93287600D02*
X113440000Y-89592400D01*
X113440000Y-89592400D02*
X111100000Y-87252400D01*
X111100000Y-87252400D02*
X111100000Y-86500000D01*
X117250000Y-97250000D02*
X117250000Y-97097600D01*
X117250000Y-97097600D02*
X113440000Y-93287600D01*
X109650000Y-94760000D02*
X109650000Y-91202400D01*
X109650000Y-91202400D02*
X111100000Y-89752400D01*
X111100000Y-89752400D02*
X111100000Y-89000000D01*
X114150000Y-99260000D02*
X109650000Y-94760000D01*
X118948400Y-99260000D02*
X114150000Y-99260000D01*
X119790000Y-97250000D02*
X119790000Y-98418400D01*
X119790000Y-98418400D02*
X118948400Y-99260000D01*
X122330000Y-97250000D02*
X122330000Y-98418400D01*
X126450000Y-99330000D02*
X127080000Y-98700000D01*
X127080000Y-98700000D02*
X127080000Y-97227600D01*
X122330000Y-98418400D02*
X123241600Y-99330000D01*
X127080000Y-97227600D02*
X116352400Y-86500000D01*
X123241600Y-99330000D02*
X126450000Y-99330000D01*
X116352400Y-86500000D02*
X115500000Y-86500000D01*
X124870000Y-97250000D02*
X124870000Y-96081600D01*
X116352400Y-89000000D02*
X115500000Y-89000000D01*
X124870000Y-96081600D02*
X117788400Y-89000000D01*
X117788400Y-89000000D02*
X116352400Y-89000000D01*
X156457600Y-104650000D02*
X153440000Y-104650000D01*
X153440000Y-104650000D02*
X136540000Y-87750000D01*
X158110000Y-105800000D02*
X157607600Y-105800000D01*
X157607600Y-105800000D02*
X156457600Y-104650000D01*
X130540000Y-92590000D02*
X130540000Y-92150000D01*
X130540000Y-92150000D02*
X133150000Y-89540000D01*
X133150000Y-89540000D02*
X134348682Y-89540000D01*
X135350000Y-88176458D02*
X135350000Y-86400000D01*
X134348682Y-89540000D02*
X135531112Y-88357570D01*
X135531112Y-88357570D02*
X135350000Y-88176458D01*
X135350000Y-86400000D02*
X135676401Y-86073599D01*
X135676401Y-86073599D02*
X136540000Y-85210000D01*
X164512899Y-107112899D02*
X164170000Y-106770000D01*
X186770000Y-108200000D02*
X165600000Y-108200000D01*
X165600000Y-108200000D02*
X164512899Y-107112899D01*
D32*
X111189000Y-105410000D02*
X110560000Y-105410000D01*
X112194751Y-105410000D02*
X111189000Y-105410000D01*
X113821239Y-103783512D02*
X112194751Y-105410000D01*
X113851239Y-103783512D02*
X113821239Y-103783512D01*
X114850000Y-102784751D02*
X113851239Y-103783512D01*
X114850000Y-102700000D02*
X114850000Y-102784751D01*
X110560000Y-105410000D02*
X112570000Y-105410000D01*
X112570000Y-105410000D02*
X112600000Y-105380000D01*
X131810000Y-105440000D02*
X130540000Y-104170000D01*
X130540000Y-104170000D02*
X130540000Y-92590000D01*
X114850000Y-102700000D02*
X116800000Y-102700000D01*
X116800000Y-102700000D02*
X117750000Y-101750000D01*
X131810000Y-105440000D02*
X121440000Y-105440000D01*
X121440000Y-105440000D02*
X117750000Y-101750000D01*
X156800000Y-108420000D02*
X134670000Y-108420000D01*
X134670000Y-108420000D02*
X133210000Y-106960000D01*
D33*
X157390000Y-107400000D02*
X156990000Y-107800000D01*
X156990000Y-107800000D02*
X156800000Y-107990000D01*
X158110000Y-107800000D02*
X157607600Y-107800000D01*
X157607600Y-107800000D02*
X156990000Y-107800000D01*
X158110000Y-108200000D02*
X157020000Y-108200000D01*
X157020000Y-108200000D02*
X156800000Y-108420000D01*
X158110000Y-108600000D02*
X156980000Y-108600000D01*
X156980000Y-108600000D02*
X156800000Y-108420000D01*
X157420000Y-109400000D02*
X157020000Y-109000000D01*
X157020000Y-109000000D02*
X156800000Y-108780000D01*
X158110000Y-109000000D02*
X157380000Y-109000000D01*
X157380000Y-109000000D02*
X157020000Y-109000000D01*
X158110000Y-109400000D02*
X157420000Y-109400000D01*
X156800000Y-108780000D02*
X156800000Y-108420000D01*
X158110000Y-107400000D02*
X157390000Y-107400000D01*
X156800000Y-107990000D02*
X156800000Y-108420000D01*
X186770000Y-108200000D02*
X186770000Y-108600000D01*
X186770000Y-108600000D02*
X186770000Y-109010000D01*
X188260000Y-108600000D02*
X186770000Y-108600000D01*
X186770000Y-109010000D02*
X186770000Y-109280000D01*
X188260000Y-109000000D02*
X187757600Y-109000000D01*
X187757600Y-109000000D02*
X187747600Y-109010000D01*
X187747600Y-109010000D02*
X186770000Y-109010000D01*
X186770000Y-109280000D02*
X186930000Y-109440000D01*
X186930000Y-109440000D02*
X187290000Y-109800000D01*
X188260000Y-109400000D02*
X186970000Y-109400000D01*
X186970000Y-109400000D02*
X186930000Y-109440000D01*
X187290000Y-109800000D02*
X188260000Y-109800000D01*
X186770000Y-107587600D02*
X186770000Y-107800000D01*
X186770000Y-107800000D02*
X186770000Y-108200000D01*
X188260000Y-107800000D02*
X186770000Y-107800000D01*
X187370000Y-106987600D02*
X187020000Y-107337600D01*
X187020000Y-107337600D02*
X186770000Y-107587600D01*
X188260000Y-107400000D02*
X187082400Y-107400000D01*
X187082400Y-107400000D02*
X187020000Y-107337600D01*
X187757600Y-106600000D02*
X187370000Y-106987600D01*
X188260000Y-107000000D02*
X187757600Y-107000000D01*
X187757600Y-107000000D02*
X187745200Y-106987600D01*
X187745200Y-106987600D02*
X187370000Y-106987600D01*
X188260000Y-106600000D02*
X187757600Y-106600000D01*
X186770000Y-108200000D02*
X188260000Y-108200000D01*
X139080000Y-88971314D02*
X139080000Y-87750000D01*
X139080000Y-89427868D02*
X139080000Y-88971314D01*
X156618473Y-103948740D02*
X153600872Y-103948740D01*
X158110000Y-105000000D02*
X157669733Y-105000000D01*
X153600872Y-103948740D02*
X139080000Y-89427868D01*
X157669733Y-105000000D02*
X156618473Y-103948740D01*
X157638667Y-105400000D02*
X156518667Y-104280000D01*
X137830000Y-86460000D02*
X138216401Y-86073599D01*
X138216401Y-86073599D02*
X139080000Y-85210000D01*
X137830000Y-88608934D02*
X137830000Y-86460000D01*
X153501066Y-104280000D02*
X137830000Y-88608934D01*
X156518667Y-104280000D02*
X153501066Y-104280000D01*
X158110000Y-105400000D02*
X157638667Y-105400000D01*
X157279262Y-103424000D02*
X155592991Y-101737729D01*
X158110316Y-103424000D02*
X157279262Y-103424000D01*
X155592991Y-101737729D02*
X154700000Y-101737729D01*
X152617729Y-101737729D02*
X141620000Y-90740000D01*
X141620000Y-90740000D02*
X141620000Y-87750000D01*
X154700000Y-101737729D02*
X154600535Y-101768759D01*
X154700000Y-101737729D02*
X152617729Y-101737729D01*
X140360000Y-86470000D02*
X140756401Y-86073599D01*
X152214344Y-102131146D02*
X140360000Y-90276802D01*
X158110316Y-103824000D02*
X157049345Y-103824000D01*
X140360000Y-90276802D02*
X140360000Y-86470000D01*
X155356491Y-102131146D02*
X152214344Y-102131146D01*
X140756401Y-86073599D02*
X141620000Y-85210000D01*
X157049345Y-103824000D02*
X155356491Y-102131146D01*
X155442046Y-100678768D02*
X154259303Y-100678768D01*
X158110316Y-102624000D02*
X157387278Y-102624000D01*
X157387278Y-102624000D02*
X155442046Y-100678768D01*
X154259303Y-100678768D02*
X144160000Y-90579465D01*
X144160000Y-90579465D02*
X144160000Y-88971314D01*
X144160000Y-88971314D02*
X144160000Y-87750000D01*
X157340757Y-103024000D02*
X155357913Y-101041156D01*
X158110316Y-103024000D02*
X157340757Y-103024000D01*
X155357913Y-101041156D02*
X153781156Y-101041156D01*
X153781156Y-101041156D02*
X142900000Y-90160000D01*
X142900000Y-90160000D02*
X142900000Y-86470000D01*
X143296401Y-86073599D02*
X144160000Y-85210000D01*
X142900000Y-86470000D02*
X143296401Y-86073599D01*
X154320000Y-88971314D02*
X154320000Y-87750000D01*
X154320000Y-98677745D02*
X154320000Y-88971314D01*
X158110316Y-101824000D02*
X157466255Y-101824000D01*
X157466255Y-101824000D02*
X154320000Y-98677745D01*
X153456401Y-86073599D02*
X154320000Y-85210000D01*
X158110316Y-102224000D02*
X157418717Y-102224000D01*
X157418717Y-102224000D02*
X155485331Y-100290614D01*
X153110000Y-86420000D02*
X153456401Y-86073599D01*
X155407962Y-100254365D02*
X153110000Y-97956403D01*
X153110000Y-97956403D02*
X153110000Y-86420000D01*
X155485331Y-100290614D02*
X155407962Y-100254365D01*
X159366880Y-98154933D02*
X159366880Y-97670000D01*
X159633589Y-98421642D02*
X159366880Y-98154933D01*
X158750000Y-104600000D02*
X159633589Y-103716411D01*
X158110000Y-104600000D02*
X158750000Y-104600000D01*
X159633589Y-103716411D02*
X159633589Y-98421642D01*
X157350000Y-93860000D02*
X157090000Y-93600000D01*
X157090000Y-93600000D02*
X157090000Y-90060000D01*
X157090000Y-90060000D02*
X159400000Y-87750000D01*
X158110000Y-104200000D02*
X158612400Y-104200000D01*
X159060414Y-98641975D02*
X158717515Y-98299076D01*
X159216402Y-98797963D02*
X159060414Y-98641975D01*
X158612400Y-104200000D02*
X159216402Y-103595998D01*
X159216402Y-103595998D02*
X159216402Y-98797963D01*
X156630000Y-94580000D02*
X156630000Y-89850000D01*
X156630000Y-89850000D02*
X158100000Y-88380000D01*
X158100000Y-86510000D02*
X158536401Y-86073599D01*
X158100000Y-88380000D02*
X158100000Y-86510000D01*
X158536401Y-86073599D02*
X159400000Y-85210000D01*
X160650000Y-93420000D02*
X161320000Y-92750000D01*
X161320000Y-92750000D02*
X161320000Y-89591314D01*
X161320000Y-89591314D02*
X161940000Y-88971314D01*
X161940000Y-88971314D02*
X161940000Y-87750000D01*
X157641451Y-101024000D02*
X156788823Y-100171372D01*
X158497101Y-94792899D02*
X158840000Y-94450000D01*
X156788823Y-100171372D02*
X156788823Y-96501177D01*
X158110316Y-101024000D02*
X157641451Y-101024000D01*
X156788823Y-96501177D02*
X158497101Y-94792899D01*
X160748480Y-90925067D02*
X160748480Y-91410000D01*
X160748480Y-86401520D02*
X160748480Y-90925067D01*
X161940000Y-85210000D02*
X160748480Y-86401520D01*
X156134258Y-100056088D02*
X156134258Y-96085742D01*
X157502170Y-101424000D02*
X156134258Y-100056088D01*
X158356133Y-93863867D02*
X158699032Y-93520968D01*
X158110316Y-101424000D02*
X157502170Y-101424000D01*
X156134258Y-96085742D02*
X158356133Y-93863867D01*
X157760435Y-100624000D02*
X157265015Y-100128580D01*
X157265015Y-100128580D02*
X157265015Y-97421865D01*
X158643981Y-96042899D02*
X158986880Y-95700000D01*
X158110316Y-100624000D02*
X157760435Y-100624000D01*
X157265015Y-97421865D02*
X158643981Y-96042899D01*
X164480000Y-88971314D02*
X164480000Y-87750000D01*
X160500000Y-94680000D02*
X164410000Y-94680000D01*
X164410000Y-94680000D02*
X165320000Y-93770000D01*
X165320000Y-93770000D02*
X165320000Y-89811314D01*
X165320000Y-89811314D02*
X164480000Y-88971314D01*
X158110000Y-100200000D02*
X158110000Y-97570779D01*
X158110000Y-97570779D02*
X158146013Y-97534766D01*
X158146013Y-97534766D02*
X158872737Y-96808042D01*
X167020000Y-88971314D02*
X167020000Y-87750000D01*
X164536256Y-94984811D02*
X167020000Y-92501067D01*
X167020000Y-92501067D02*
X167020000Y-88971314D01*
X161875189Y-94984811D02*
X164536256Y-94984811D01*
X160590000Y-96270000D02*
X161875189Y-94984811D01*
X167883599Y-86073599D02*
X167020000Y-85210000D01*
X168230000Y-86420000D02*
X167883599Y-86073599D01*
X164662512Y-95289622D02*
X167324811Y-92627323D01*
X163991445Y-95289622D02*
X164662512Y-95289622D01*
X168230000Y-90360000D02*
X168230000Y-86420000D01*
X161190000Y-98091067D02*
X163991445Y-95289622D01*
X161190000Y-100200000D02*
X161190000Y-98091067D01*
X167324811Y-92627323D02*
X167324811Y-91265189D01*
X167324811Y-91265189D02*
X168230000Y-90360000D01*
X169560000Y-88971314D02*
X169560000Y-87750000D01*
X169560000Y-89469999D02*
X169560000Y-88971314D01*
X167629622Y-92753579D02*
X167629622Y-91400377D01*
X164788768Y-95594433D02*
X167629622Y-92753579D01*
X164117701Y-95594433D02*
X164788768Y-95594433D01*
X161540284Y-100624000D02*
X162035617Y-100128667D01*
X161190316Y-100624000D02*
X161540284Y-100624000D01*
X162035617Y-97676517D02*
X164117701Y-95594433D01*
X162035617Y-100128667D02*
X162035617Y-97676517D01*
X167629622Y-91400377D02*
X169560000Y-89469999D01*
X170423599Y-86073599D02*
X169560000Y-85210000D01*
X161190316Y-101024000D02*
X161540300Y-101024000D01*
X170820000Y-86470000D02*
X170423599Y-86073599D01*
X162657572Y-98439230D02*
X170820000Y-90276802D01*
X162657572Y-100074504D02*
X162657572Y-98439230D01*
X161540300Y-101024000D02*
X162657572Y-100074504D01*
X170820000Y-90276802D02*
X170820000Y-86470000D01*
X161190316Y-101424000D02*
X161540316Y-101424000D01*
X163339083Y-99895346D02*
X163166374Y-99692120D01*
X163166374Y-99692120D02*
X163166374Y-98361494D01*
X161540316Y-101424000D02*
X163339083Y-99895346D01*
X172100000Y-89427868D02*
X172100000Y-87750000D01*
X163166374Y-98361494D02*
X172100000Y-89427868D01*
X173280000Y-86390000D02*
X172963599Y-86073599D01*
X173280000Y-88678934D02*
X173280000Y-86390000D01*
X163658004Y-98300930D02*
X173280000Y-88678934D01*
X172963599Y-86073599D02*
X172100000Y-85210000D01*
X163658004Y-99110000D02*
X163658004Y-98300930D01*
X163658004Y-99110000D02*
X163642567Y-99005000D01*
X163731753Y-99611642D02*
X163658004Y-99110000D01*
X161190316Y-101824000D02*
X161540316Y-101824000D01*
X161540316Y-101824000D02*
X163788332Y-99913558D01*
X163788332Y-99913558D02*
X163731753Y-99611642D01*
X164626605Y-97763395D02*
X174640000Y-87750000D01*
X164626605Y-99951165D02*
X164626605Y-97763395D01*
X161190316Y-102224000D02*
X161540316Y-102224000D01*
X161540316Y-102224000D02*
X164453897Y-99747939D01*
X164453897Y-99747939D02*
X164626605Y-99951165D01*
X175503599Y-86073599D02*
X174640000Y-85210000D01*
X175920000Y-86490000D02*
X175503599Y-86073599D01*
X175920000Y-88790000D02*
X175920000Y-86490000D01*
X164842264Y-100616670D02*
X165041329Y-100417605D01*
X164455989Y-100496161D02*
X164842264Y-100616670D01*
X164167151Y-100391625D02*
X164455989Y-100496161D01*
X165041329Y-100417605D02*
X165041329Y-99668671D01*
X161540316Y-102624000D02*
X164167151Y-100391625D01*
X161190316Y-102624000D02*
X161540316Y-102624000D01*
X165041329Y-99668671D02*
X175920000Y-88790000D01*
X164848844Y-101041156D02*
X176316401Y-89573599D01*
X176316401Y-89573599D02*
X176316401Y-88613599D01*
X176316401Y-88613599D02*
X177180000Y-87750000D01*
X164285373Y-101041156D02*
X164848844Y-101041156D01*
X161190316Y-103024000D02*
X161540316Y-103024000D01*
X161540316Y-103024000D02*
X164112665Y-100837930D01*
X164112665Y-100837930D02*
X164285373Y-101041156D01*
X178043599Y-86073599D02*
X177180000Y-85210000D01*
X178480000Y-88558934D02*
X178480000Y-86510000D01*
X178480000Y-86510000D02*
X178043599Y-86073599D01*
X165270175Y-101768759D02*
X178480000Y-88558934D01*
X164700097Y-101768759D02*
X165270175Y-101768759D01*
X164114757Y-101586151D02*
X164700097Y-101768759D01*
X163825920Y-101481616D02*
X164114757Y-101586151D01*
X161540316Y-103424000D02*
X163825920Y-101481616D01*
X161190316Y-103424000D02*
X161540316Y-103424000D01*
X163944142Y-102131146D02*
X165338854Y-102131146D01*
X165338854Y-102131146D02*
X179720000Y-87750000D01*
X161190316Y-103824000D02*
X161276290Y-103738026D01*
X163771440Y-101927927D02*
X163944142Y-102131146D01*
X161276290Y-103738026D02*
X161641496Y-103738026D01*
X161641496Y-103738026D02*
X163771440Y-101927927D01*
X180583599Y-86073599D02*
X179720000Y-85210000D01*
X180910000Y-88668934D02*
X180910000Y-86400000D01*
X163773526Y-102676142D02*
X164358866Y-102858749D01*
X166720185Y-102858749D02*
X180910000Y-88668934D01*
X164358866Y-102858749D02*
X166720185Y-102858749D01*
X163484709Y-102571613D02*
X163773526Y-102676142D01*
X161742676Y-104052052D02*
X163484709Y-102571613D01*
X180910000Y-86400000D02*
X180583599Y-86073599D01*
X161742664Y-104052052D02*
X161742676Y-104052052D01*
X161641496Y-104138026D02*
X161742664Y-104052052D01*
X161276290Y-104138026D02*
X161641496Y-104138026D01*
X161190316Y-104224000D02*
X161276290Y-104138026D01*
X166788863Y-103221137D02*
X182260000Y-87750000D01*
X163602910Y-103221137D02*
X166788863Y-103221137D01*
X161276290Y-104538026D02*
X161641496Y-104538026D01*
X163430220Y-103017932D02*
X163602910Y-103221137D01*
X161843856Y-104366078D02*
X163430220Y-103017932D01*
X161641496Y-104538026D02*
X161742663Y-104452053D01*
X161742673Y-104452053D02*
X161843844Y-104366077D01*
X161190316Y-104624000D02*
X161276290Y-104538026D01*
X161742663Y-104452053D02*
X161742673Y-104452053D01*
X161843844Y-104366077D02*
X161843856Y-104366078D01*
X152525793Y-124685843D02*
X156812054Y-124685843D01*
X147098379Y-124890655D02*
X152320981Y-124890655D01*
X145920899Y-124623964D02*
X146831689Y-124623964D01*
X144547600Y-126347600D02*
X144547600Y-125997263D01*
X152320981Y-124890655D02*
X152525793Y-124685843D01*
X145000000Y-127500000D02*
X145000000Y-126800000D01*
X144547600Y-125997263D02*
X145920899Y-124623964D01*
X156812054Y-124685843D02*
X160792502Y-120705395D01*
X145000000Y-126800000D02*
X144547600Y-126347600D01*
X160792502Y-120705395D02*
X169405395Y-120705395D01*
X146831689Y-124623964D02*
X147098379Y-124890655D01*
X169405395Y-120705395D02*
X173300000Y-124600000D01*
X173300000Y-124600000D02*
X173300000Y-121210000D01*
X173300000Y-121210000D02*
X181970000Y-112540000D01*
X173300000Y-124600000D02*
X175500000Y-126800000D01*
X175500000Y-126800000D02*
X175500000Y-127500000D01*
X164017634Y-103948740D02*
X171141260Y-103948740D01*
X171141260Y-103948740D02*
X187340000Y-87750000D01*
X161843849Y-104766080D02*
X161945022Y-104680103D01*
X163432294Y-103766132D02*
X164017634Y-103948740D01*
X161945036Y-104680104D02*
X163143497Y-103661611D01*
X161742673Y-104852053D02*
X161843841Y-104766080D01*
X163143497Y-103661611D02*
X163432294Y-103766132D01*
X161641496Y-104938026D02*
X161742663Y-104852053D01*
X161945022Y-104680103D02*
X161945036Y-104680104D01*
X161276290Y-104938026D02*
X161641496Y-104938026D01*
X161190316Y-105024000D02*
X161276290Y-104938026D01*
X161843841Y-104766080D02*
X161843849Y-104766080D01*
X161742663Y-104852053D02*
X161742673Y-104852053D01*
X161190316Y-105424000D02*
X161585928Y-105424000D01*
X162046216Y-104994130D02*
X163089000Y-104107936D01*
X161585928Y-105424000D02*
X161843848Y-105166080D01*
X161843848Y-105166080D02*
X161945016Y-105080108D01*
X161945016Y-105080108D02*
X161945024Y-105080108D01*
X172858872Y-104311128D02*
X188670000Y-88500000D01*
X161945024Y-105080108D02*
X162046201Y-104994129D01*
X162046201Y-104994129D02*
X162046216Y-104994130D01*
X163089000Y-104107936D02*
X163261678Y-104311128D01*
X163261678Y-104311128D02*
X172858872Y-104311128D01*
X188670000Y-88500000D02*
X188670000Y-86540000D01*
X188670000Y-86540000D02*
X188203599Y-86073599D01*
X188203599Y-86073599D02*
X187340000Y-85210000D01*
X163676402Y-105038731D02*
X172591269Y-105038731D01*
X172591269Y-105038731D02*
X189880000Y-87750000D01*
X163091062Y-104856123D02*
X163676402Y-105038731D01*
X162802286Y-104751609D02*
X163091062Y-104856123D01*
X161190316Y-105824000D02*
X161631553Y-105824000D01*
X161631553Y-105824000D02*
X162147397Y-105308156D01*
X162147397Y-105308156D02*
X162802286Y-104751609D01*
X174022383Y-105401118D02*
X191022988Y-88400513D01*
X161721722Y-106224000D02*
X162544604Y-105401118D01*
X191022988Y-88400513D02*
X191022988Y-86352988D01*
X161190316Y-106224000D02*
X161721722Y-106224000D01*
X191022988Y-86352988D02*
X190743599Y-86073599D01*
X190743599Y-86073599D02*
X189880000Y-85210000D01*
X162544604Y-105401118D02*
X174022383Y-105401118D01*
X159640000Y-108580000D02*
X159640000Y-109010000D01*
X159640000Y-109010000D02*
X159640000Y-109410000D01*
X161190000Y-109000000D02*
X159650000Y-109000000D01*
X159650000Y-109000000D02*
X159640000Y-109010000D01*
X159640000Y-108220000D02*
X159640000Y-108580000D01*
X161190000Y-108600000D02*
X159660000Y-108600000D01*
X159660000Y-108600000D02*
X159640000Y-108580000D01*
X159640000Y-107800000D02*
X159640000Y-108220000D01*
X161190000Y-108200000D02*
X159660000Y-108200000D01*
X159660000Y-108200000D02*
X159640000Y-108220000D01*
X159640000Y-107400000D02*
X159640000Y-107800000D01*
X161190000Y-107800000D02*
X159640000Y-107800000D01*
X159640000Y-107020000D02*
X159640000Y-107400000D01*
X161190000Y-107400000D02*
X159640000Y-107400000D01*
X159640000Y-106840000D02*
X159640000Y-107020000D01*
X161190000Y-107000000D02*
X159660000Y-107000000D01*
X159660000Y-107000000D02*
X159640000Y-107020000D01*
X161190000Y-106600000D02*
X159880000Y-106600000D01*
X159880000Y-106600000D02*
X159640000Y-106840000D01*
D32*
X155900000Y-109110000D02*
X120135430Y-109110000D01*
X120135430Y-109110000D02*
X119250000Y-109995430D01*
X119250000Y-109995430D02*
X119250000Y-111000000D01*
D33*
X161190000Y-109400000D02*
X159650000Y-109400000D01*
X159650000Y-109400000D02*
X159640000Y-109410000D01*
X116502280Y-110950000D02*
X119200000Y-110950000D01*
X119200000Y-110950000D02*
X119250000Y-111000000D01*
D32*
X166780000Y-111710000D02*
X192680000Y-111710000D01*
X163270000Y-108200000D02*
X166780000Y-111710000D01*
X192680000Y-111710000D02*
X194580000Y-109810000D01*
D33*
X192040000Y-107000000D02*
X194480000Y-107000000D01*
X194480000Y-107000000D02*
X194580000Y-107100000D01*
D32*
X194580000Y-106780000D02*
X194360000Y-106560000D01*
X194360000Y-106560000D02*
X194000000Y-106200000D01*
D33*
X192582400Y-106560000D02*
X194360000Y-106560000D01*
X192040000Y-106600000D02*
X192542400Y-106600000D01*
X192542400Y-106600000D02*
X192582400Y-106560000D01*
D32*
X194580000Y-107430000D02*
X194580000Y-107100000D01*
X194580000Y-107100000D02*
X194580000Y-106780000D01*
X194580000Y-107740000D02*
X194580000Y-107430000D01*
D33*
X192040000Y-107400000D02*
X194550000Y-107400000D01*
X194550000Y-107400000D02*
X194580000Y-107430000D01*
D32*
X194580000Y-108260000D02*
X194580000Y-107740000D01*
D33*
X192040000Y-107800000D02*
X194520000Y-107800000D01*
X194520000Y-107800000D02*
X194580000Y-107740000D01*
D32*
X194580000Y-108620000D02*
X194580000Y-108260000D01*
D33*
X192040000Y-108200000D02*
X194520000Y-108200000D01*
X194520000Y-108200000D02*
X194580000Y-108260000D01*
D32*
X194580000Y-108960000D02*
X194580000Y-108620000D01*
D33*
X192040000Y-108600000D02*
X194560000Y-108600000D01*
X194560000Y-108600000D02*
X194580000Y-108620000D01*
D32*
X194580000Y-109410000D02*
X194580000Y-108960000D01*
D33*
X192040000Y-109000000D02*
X194540000Y-109000000D01*
X194540000Y-109000000D02*
X194580000Y-108960000D01*
D32*
X194580000Y-109810000D02*
X194580000Y-109410000D01*
D33*
X192040000Y-109400000D02*
X194570000Y-109400000D01*
X194570000Y-109400000D02*
X194580000Y-109410000D01*
X192040000Y-109800000D02*
X194570000Y-109800000D01*
X194570000Y-109800000D02*
X194580000Y-109810000D01*
D32*
X194000000Y-106200000D02*
X191640000Y-103840000D01*
X191640000Y-103840000D02*
X191640000Y-88530000D01*
X191640000Y-88530000D02*
X192420000Y-87750000D01*
D33*
X194000000Y-106200000D02*
X192040000Y-106200000D01*
D32*
X162070000Y-109400000D02*
X162480000Y-108990000D01*
X162480000Y-108990000D02*
X162860000Y-108610000D01*
D33*
X161190000Y-109000000D02*
X162470000Y-109000000D01*
X162470000Y-109000000D02*
X162480000Y-108990000D01*
D32*
X162860000Y-108610000D02*
X163270000Y-108200000D01*
D33*
X161190000Y-108600000D02*
X162850000Y-108600000D01*
X162850000Y-108600000D02*
X162860000Y-108610000D01*
X161190000Y-108200000D02*
X163270000Y-108200000D01*
X161190000Y-107800000D02*
X163250000Y-107800000D01*
X163250000Y-107800000D02*
X163270000Y-107780000D01*
D32*
X163270000Y-107780000D02*
X162930000Y-107440000D01*
X162930000Y-107440000D02*
X162500000Y-107010000D01*
D33*
X161190000Y-107400000D02*
X162890000Y-107400000D01*
X162890000Y-107400000D02*
X162930000Y-107440000D01*
X162490000Y-107000000D02*
X162500000Y-107010000D01*
D32*
X162500000Y-107010000D02*
X162090000Y-106600000D01*
D33*
X161190000Y-107000000D02*
X162490000Y-107000000D01*
X161190000Y-109400000D02*
X162070000Y-109400000D01*
D32*
X163270000Y-108200000D02*
X163270000Y-107780000D01*
D33*
X162090000Y-106600000D02*
X161190000Y-106600000D01*
X155764933Y-106840000D02*
X155280000Y-106840000D01*
X155980933Y-106624000D02*
X155764933Y-106840000D01*
X158110316Y-106624000D02*
X155980933Y-106624000D01*
X121425307Y-134287969D02*
X122177707Y-134287969D01*
X122177707Y-134287969D02*
X124425307Y-134287969D01*
X124426707Y-130787969D02*
X121425307Y-130787969D01*
X121425307Y-127287969D02*
X122177707Y-127287969D01*
X122177707Y-127287969D02*
X124426707Y-127287969D01*
X111750000Y-126275000D02*
X111750000Y-134225000D01*
X111750000Y-134225000D02*
X113775000Y-134225000D01*
X113775000Y-134225000D02*
X115400000Y-135850000D01*
X156815021Y-110091581D02*
X156330088Y-110091581D01*
X157130201Y-109776401D02*
X156815021Y-110091581D01*
X158110316Y-109776401D02*
X157130201Y-109776401D01*
X118760000Y-138550000D02*
X118760000Y-135620000D01*
X118760000Y-135620000D02*
X118740000Y-135600000D01*
M02*
